G04 #@! TF.GenerationSoftware,KiCad,Pcbnew,9.0.2-9.0.2-0~ubuntu24.04.1*
G04 #@! TF.CreationDate,2025-06-08T21:46:16-05:00*
G04 #@! TF.ProjectId,FC,46432e6b-6963-4616-945f-706362585858,rev?*
G04 #@! TF.SameCoordinates,Original*
G04 #@! TF.FileFunction,Legend,Bot*
G04 #@! TF.FilePolarity,Positive*
%FSLAX46Y46*%
G04 Gerber Fmt 4.6, Leading zero omitted, Abs format (unit mm)*
G04 Created by KiCad (PCBNEW 9.0.2-9.0.2-0~ubuntu24.04.1) date 2025-06-08 21:46:16*
%MOMM*%
%LPD*%
G01*
G04 APERTURE LIST*
G04 Aperture macros list*
%AMRoundRect*
0 Rectangle with rounded corners*
0 $1 Rounding radius*
0 $2 $3 $4 $5 $6 $7 $8 $9 X,Y pos of 4 corners*
0 Add a 4 corners polygon primitive as box body*
4,1,4,$2,$3,$4,$5,$6,$7,$8,$9,$2,$3,0*
0 Add four circle primitives for the rounded corners*
1,1,$1+$1,$2,$3*
1,1,$1+$1,$4,$5*
1,1,$1+$1,$6,$7*
1,1,$1+$1,$8,$9*
0 Add four rect primitives between the rounded corners*
20,1,$1+$1,$2,$3,$4,$5,0*
20,1,$1+$1,$4,$5,$6,$7,0*
20,1,$1+$1,$6,$7,$8,$9,0*
20,1,$1+$1,$8,$9,$2,$3,0*%
%AMRotRect*
0 Rectangle, with rotation*
0 The origin of the aperture is its center*
0 $1 length*
0 $2 width*
0 $3 Rotation angle, in degrees counterclockwise*
0 Add horizontal line*
21,1,$1,$2,0,0,$3*%
G04 Aperture macros list end*
%ADD10C,0.150000*%
%ADD11C,0.200000*%
%ADD12C,0.800000*%
%ADD13C,0.000000*%
%ADD14C,0.152400*%
%ADD15C,0.120000*%
%ADD16C,0.127000*%
%ADD17C,0.160000*%
%ADD18C,0.010000*%
%ADD19R,0.254000X0.431800*%
%ADD20R,0.431800X0.254000*%
%ADD21RoundRect,0.225000X0.225000X0.250000X-0.225000X0.250000X-0.225000X-0.250000X0.225000X-0.250000X0*%
%ADD22O,1.800000X1.000000*%
%ADD23O,2.100000X1.000000*%
%ADD24C,0.650000*%
%ADD25O,1.500000X0.800000*%
%ADD26C,0.700000*%
%ADD27RoundRect,0.200000X0.200000X0.275000X-0.200000X0.275000X-0.200000X-0.275000X0.200000X-0.275000X0*%
%ADD28RoundRect,0.200000X-0.200000X-0.275000X0.200000X-0.275000X0.200000X0.275000X-0.200000X0.275000X0*%
%ADD29RotRect,0.762000X0.508000X225.000000*%
%ADD30RotRect,0.762000X0.508000X135.000000*%
%ADD31RotRect,0.762000X0.508000X45.000000*%
%ADD32RotRect,0.762000X0.508000X315.000000*%
%ADD33RoundRect,0.225000X-0.250000X0.225000X-0.250000X-0.225000X0.250000X-0.225000X0.250000X0.225000X0*%
%ADD34RoundRect,0.225000X0.250000X-0.225000X0.250000X0.225000X-0.250000X0.225000X-0.250000X-0.225000X0*%
%ADD35RoundRect,0.225000X-0.225000X-0.250000X0.225000X-0.250000X0.225000X0.250000X-0.225000X0.250000X0*%
%ADD36RoundRect,0.102000X-0.175000X-0.175000X0.175000X-0.175000X0.175000X0.175000X-0.175000X0.175000X0*%
%ADD37RoundRect,0.102000X-0.350000X-0.600000X0.350000X-0.600000X0.350000X0.600000X-0.350000X0.600000X0*%
%ADD38RoundRect,0.102000X-0.500000X-0.600000X0.500000X-0.600000X0.500000X0.600000X-0.500000X0.600000X0*%
%ADD39RoundRect,0.102000X-0.500000X-1.400000X0.500000X-1.400000X0.500000X1.400000X-0.500000X1.400000X0*%
%ADD40RoundRect,0.102000X-0.650000X-0.950000X0.650000X-0.950000X0.650000X0.950000X-0.650000X0.950000X0*%
%ADD41RoundRect,0.102000X-0.500000X-0.400000X0.500000X-0.400000X0.500000X0.400000X-0.500000X0.400000X0*%
%ADD42RoundRect,0.150000X-0.512500X-0.150000X0.512500X-0.150000X0.512500X0.150000X-0.512500X0.150000X0*%
G04 APERTURE END LIST*
D10*
X152380180Y-92377506D02*
X151665895Y-92377506D01*
X151665895Y-92377506D02*
X151523038Y-92425125D01*
X151523038Y-92425125D02*
X151427800Y-92520363D01*
X151427800Y-92520363D02*
X151380180Y-92663220D01*
X151380180Y-92663220D02*
X151380180Y-92758458D01*
X151380180Y-91425125D02*
X151380180Y-91901315D01*
X151380180Y-91901315D02*
X152380180Y-91901315D01*
X151475419Y-90520363D02*
X151427800Y-90567982D01*
X151427800Y-90567982D02*
X151380180Y-90710839D01*
X151380180Y-90710839D02*
X151380180Y-90806077D01*
X151380180Y-90806077D02*
X151427800Y-90948934D01*
X151427800Y-90948934D02*
X151523038Y-91044172D01*
X151523038Y-91044172D02*
X151618276Y-91091791D01*
X151618276Y-91091791D02*
X151808752Y-91139410D01*
X151808752Y-91139410D02*
X151951609Y-91139410D01*
X151951609Y-91139410D02*
X152142085Y-91091791D01*
X152142085Y-91091791D02*
X152237323Y-91044172D01*
X152237323Y-91044172D02*
X152332561Y-90948934D01*
X152332561Y-90948934D02*
X152380180Y-90806077D01*
X152380180Y-90806077D02*
X152380180Y-90710839D01*
X152380180Y-90710839D02*
X152332561Y-90567982D01*
X152332561Y-90567982D02*
X152284942Y-90520363D01*
X152380180Y-89806077D02*
X151665895Y-89806077D01*
X151665895Y-89806077D02*
X151523038Y-89853696D01*
X151523038Y-89853696D02*
X151427800Y-89948934D01*
X151427800Y-89948934D02*
X151380180Y-90091791D01*
X151380180Y-90091791D02*
X151380180Y-90187029D01*
X151380180Y-88853696D02*
X151380180Y-89329886D01*
X151380180Y-89329886D02*
X152380180Y-89329886D01*
X151475419Y-87948934D02*
X151427800Y-87996553D01*
X151427800Y-87996553D02*
X151380180Y-88139410D01*
X151380180Y-88139410D02*
X151380180Y-88234648D01*
X151380180Y-88234648D02*
X151427800Y-88377505D01*
X151427800Y-88377505D02*
X151523038Y-88472743D01*
X151523038Y-88472743D02*
X151618276Y-88520362D01*
X151618276Y-88520362D02*
X151808752Y-88567981D01*
X151808752Y-88567981D02*
X151951609Y-88567981D01*
X151951609Y-88567981D02*
X152142085Y-88520362D01*
X152142085Y-88520362D02*
X152237323Y-88472743D01*
X152237323Y-88472743D02*
X152332561Y-88377505D01*
X152332561Y-88377505D02*
X152380180Y-88234648D01*
X152380180Y-88234648D02*
X152380180Y-88139410D01*
X152380180Y-88139410D02*
X152332561Y-87996553D01*
X152332561Y-87996553D02*
X152284942Y-87948934D01*
X152380180Y-87234648D02*
X151665895Y-87234648D01*
X151665895Y-87234648D02*
X151523038Y-87282267D01*
X151523038Y-87282267D02*
X151427800Y-87377505D01*
X151427800Y-87377505D02*
X151380180Y-87520362D01*
X151380180Y-87520362D02*
X151380180Y-87615600D01*
X151380180Y-86282267D02*
X151380180Y-86758457D01*
X151380180Y-86758457D02*
X152380180Y-86758457D01*
X151475419Y-85377505D02*
X151427800Y-85425124D01*
X151427800Y-85425124D02*
X151380180Y-85567981D01*
X151380180Y-85567981D02*
X151380180Y-85663219D01*
X151380180Y-85663219D02*
X151427800Y-85806076D01*
X151427800Y-85806076D02*
X151523038Y-85901314D01*
X151523038Y-85901314D02*
X151618276Y-85948933D01*
X151618276Y-85948933D02*
X151808752Y-85996552D01*
X151808752Y-85996552D02*
X151951609Y-85996552D01*
X151951609Y-85996552D02*
X152142085Y-85948933D01*
X152142085Y-85948933D02*
X152237323Y-85901314D01*
X152237323Y-85901314D02*
X152332561Y-85806076D01*
X152332561Y-85806076D02*
X152380180Y-85663219D01*
X152380180Y-85663219D02*
X152380180Y-85567981D01*
X152380180Y-85567981D02*
X152332561Y-85425124D01*
X152332561Y-85425124D02*
X152284942Y-85377505D01*
X152380180Y-84663219D02*
X151665895Y-84663219D01*
X151665895Y-84663219D02*
X151523038Y-84710838D01*
X151523038Y-84710838D02*
X151427800Y-84806076D01*
X151427800Y-84806076D02*
X151380180Y-84948933D01*
X151380180Y-84948933D02*
X151380180Y-85044171D01*
X151380180Y-83710838D02*
X151380180Y-84187028D01*
X151380180Y-84187028D02*
X152380180Y-84187028D01*
X151475419Y-82806076D02*
X151427800Y-82853695D01*
X151427800Y-82853695D02*
X151380180Y-82996552D01*
X151380180Y-82996552D02*
X151380180Y-83091790D01*
X151380180Y-83091790D02*
X151427800Y-83234647D01*
X151427800Y-83234647D02*
X151523038Y-83329885D01*
X151523038Y-83329885D02*
X151618276Y-83377504D01*
X151618276Y-83377504D02*
X151808752Y-83425123D01*
X151808752Y-83425123D02*
X151951609Y-83425123D01*
X151951609Y-83425123D02*
X152142085Y-83377504D01*
X152142085Y-83377504D02*
X152237323Y-83329885D01*
X152237323Y-83329885D02*
X152332561Y-83234647D01*
X152332561Y-83234647D02*
X152380180Y-83091790D01*
X152380180Y-83091790D02*
X152380180Y-82996552D01*
X152380180Y-82996552D02*
X152332561Y-82853695D01*
X152332561Y-82853695D02*
X152284942Y-82806076D01*
D11*
X180883926Y-96806028D02*
X180651784Y-97806028D01*
X180651784Y-97806028D02*
X180169641Y-96806028D01*
X178937498Y-97806028D02*
X179794641Y-97806028D01*
X179366069Y-97806028D02*
X179178569Y-96306028D01*
X179178569Y-96306028D02*
X179348212Y-96520314D01*
X179348212Y-96520314D02*
X179508927Y-96663171D01*
X179508927Y-96663171D02*
X179660712Y-96734600D01*
X177080356Y-97234600D02*
X175937499Y-97234600D01*
X174053570Y-96448885D02*
X173973213Y-96377457D01*
X173973213Y-96377457D02*
X173821427Y-96306028D01*
X173821427Y-96306028D02*
X173464284Y-96306028D01*
X173464284Y-96306028D02*
X173330356Y-96377457D01*
X173330356Y-96377457D02*
X173267856Y-96448885D01*
X173267856Y-96448885D02*
X173214284Y-96591742D01*
X173214284Y-96591742D02*
X173232141Y-96734600D01*
X173232141Y-96734600D02*
X173330356Y-96948885D01*
X173330356Y-96948885D02*
X174294641Y-97806028D01*
X174294641Y-97806028D02*
X173366070Y-97806028D01*
X171955356Y-96806028D02*
X172080356Y-97806028D01*
X172241070Y-96234600D02*
X172732142Y-97306028D01*
X172732142Y-97306028D02*
X171803570Y-97306028D01*
X171196428Y-96448885D02*
X171116071Y-96377457D01*
X171116071Y-96377457D02*
X170964285Y-96306028D01*
X170964285Y-96306028D02*
X170607142Y-96306028D01*
X170607142Y-96306028D02*
X170473214Y-96377457D01*
X170473214Y-96377457D02*
X170410714Y-96448885D01*
X170410714Y-96448885D02*
X170357142Y-96591742D01*
X170357142Y-96591742D02*
X170374999Y-96734600D01*
X170374999Y-96734600D02*
X170473214Y-96948885D01*
X170473214Y-96948885D02*
X171437499Y-97806028D01*
X171437499Y-97806028D02*
X170508928Y-97806028D01*
X168964286Y-96306028D02*
X169678571Y-96306028D01*
X169678571Y-96306028D02*
X169839286Y-97020314D01*
X169839286Y-97020314D02*
X169758928Y-96948885D01*
X169758928Y-96948885D02*
X169607143Y-96877457D01*
X169607143Y-96877457D02*
X169250000Y-96877457D01*
X169250000Y-96877457D02*
X169116071Y-96948885D01*
X169116071Y-96948885D02*
X169053571Y-97020314D01*
X169053571Y-97020314D02*
X169000000Y-97163171D01*
X169000000Y-97163171D02*
X169044643Y-97520314D01*
X169044643Y-97520314D02*
X169133928Y-97663171D01*
X169133928Y-97663171D02*
X169214286Y-97734600D01*
X169214286Y-97734600D02*
X169366071Y-97806028D01*
X169366071Y-97806028D02*
X169723214Y-97806028D01*
X169723214Y-97806028D02*
X169857143Y-97734600D01*
X169857143Y-97734600D02*
X169919643Y-97663171D01*
D12*
X187761904Y-90659352D02*
X188142857Y-90468876D01*
X188142857Y-90468876D02*
X188714285Y-90468876D01*
X188714285Y-90468876D02*
X189285714Y-90659352D01*
X189285714Y-90659352D02*
X189666666Y-91040304D01*
X189666666Y-91040304D02*
X189857143Y-91421257D01*
X189857143Y-91421257D02*
X190047619Y-92183161D01*
X190047619Y-92183161D02*
X190047619Y-92754590D01*
X190047619Y-92754590D02*
X189857143Y-93516495D01*
X189857143Y-93516495D02*
X189666666Y-93897447D01*
X189666666Y-93897447D02*
X189285714Y-94278400D01*
X189285714Y-94278400D02*
X188714285Y-94468876D01*
X188714285Y-94468876D02*
X188333333Y-94468876D01*
X188333333Y-94468876D02*
X187761904Y-94278400D01*
X187761904Y-94278400D02*
X187571428Y-94087923D01*
X187571428Y-94087923D02*
X187571428Y-92754590D01*
X187571428Y-92754590D02*
X188333333Y-92754590D01*
X185857143Y-94468876D02*
X185857143Y-91802209D01*
X185857143Y-90468876D02*
X186047619Y-90659352D01*
X186047619Y-90659352D02*
X185857143Y-90849828D01*
X185857143Y-90849828D02*
X185666666Y-90659352D01*
X185666666Y-90659352D02*
X185857143Y-90468876D01*
X185857143Y-90468876D02*
X185857143Y-90849828D01*
X182238095Y-91802209D02*
X182238095Y-95040304D01*
X182238095Y-95040304D02*
X182428571Y-95421257D01*
X182428571Y-95421257D02*
X182619047Y-95611733D01*
X182619047Y-95611733D02*
X183000000Y-95802209D01*
X183000000Y-95802209D02*
X183571428Y-95802209D01*
X183571428Y-95802209D02*
X183952381Y-95611733D01*
X182238095Y-94278400D02*
X182619047Y-94468876D01*
X182619047Y-94468876D02*
X183380952Y-94468876D01*
X183380952Y-94468876D02*
X183761904Y-94278400D01*
X183761904Y-94278400D02*
X183952381Y-94087923D01*
X183952381Y-94087923D02*
X184142857Y-93706971D01*
X184142857Y-93706971D02*
X184142857Y-92564114D01*
X184142857Y-92564114D02*
X183952381Y-92183161D01*
X183952381Y-92183161D02*
X183761904Y-91992685D01*
X183761904Y-91992685D02*
X183380952Y-91802209D01*
X183380952Y-91802209D02*
X182619047Y-91802209D01*
X182619047Y-91802209D02*
X182238095Y-91992685D01*
X178619047Y-94468876D02*
X178619047Y-92373638D01*
X178619047Y-92373638D02*
X178809523Y-91992685D01*
X178809523Y-91992685D02*
X179190475Y-91802209D01*
X179190475Y-91802209D02*
X179952380Y-91802209D01*
X179952380Y-91802209D02*
X180333333Y-91992685D01*
X178619047Y-94278400D02*
X178999999Y-94468876D01*
X178999999Y-94468876D02*
X179952380Y-94468876D01*
X179952380Y-94468876D02*
X180333333Y-94278400D01*
X180333333Y-94278400D02*
X180523809Y-93897447D01*
X180523809Y-93897447D02*
X180523809Y-93516495D01*
X180523809Y-93516495D02*
X180333333Y-93135542D01*
X180333333Y-93135542D02*
X179952380Y-92945066D01*
X179952380Y-92945066D02*
X178999999Y-92945066D01*
X178999999Y-92945066D02*
X178619047Y-92754590D01*
X175380951Y-92373638D02*
X176714285Y-92373638D01*
X176714285Y-94468876D02*
X176714285Y-90468876D01*
X176714285Y-90468876D02*
X174809523Y-90468876D01*
X170999999Y-94087923D02*
X171190475Y-94278400D01*
X171190475Y-94278400D02*
X171761904Y-94468876D01*
X171761904Y-94468876D02*
X172142856Y-94468876D01*
X172142856Y-94468876D02*
X172714285Y-94278400D01*
X172714285Y-94278400D02*
X173095237Y-93897447D01*
X173095237Y-93897447D02*
X173285714Y-93516495D01*
X173285714Y-93516495D02*
X173476190Y-92754590D01*
X173476190Y-92754590D02*
X173476190Y-92183161D01*
X173476190Y-92183161D02*
X173285714Y-91421257D01*
X173285714Y-91421257D02*
X173095237Y-91040304D01*
X173095237Y-91040304D02*
X172714285Y-90659352D01*
X172714285Y-90659352D02*
X172142856Y-90468876D01*
X172142856Y-90468876D02*
X171761904Y-90468876D01*
X171761904Y-90468876D02*
X171190475Y-90659352D01*
X171190475Y-90659352D02*
X170999999Y-90849828D01*
X166238095Y-94468876D02*
X166238095Y-90468876D01*
X166238095Y-92373638D02*
X163952380Y-92373638D01*
X163952380Y-94468876D02*
X163952380Y-90468876D01*
X162428571Y-90468876D02*
X159761904Y-90468876D01*
X159761904Y-90468876D02*
X161476190Y-94468876D01*
D10*
X155708923Y-73569618D02*
X156518446Y-73569618D01*
X156518446Y-73569618D02*
X156613684Y-73617237D01*
X156613684Y-73617237D02*
X156661304Y-73664856D01*
X156661304Y-73664856D02*
X156708923Y-73760094D01*
X156708923Y-73760094D02*
X156708923Y-73950570D01*
X156708923Y-73950570D02*
X156661304Y-74045808D01*
X156661304Y-74045808D02*
X156613684Y-74093427D01*
X156613684Y-74093427D02*
X156518446Y-74141046D01*
X156518446Y-74141046D02*
X155708923Y-74141046D01*
X155804161Y-74569618D02*
X155756542Y-74617237D01*
X155756542Y-74617237D02*
X155708923Y-74712475D01*
X155708923Y-74712475D02*
X155708923Y-74950570D01*
X155708923Y-74950570D02*
X155756542Y-75045808D01*
X155756542Y-75045808D02*
X155804161Y-75093427D01*
X155804161Y-75093427D02*
X155899399Y-75141046D01*
X155899399Y-75141046D02*
X155994637Y-75141046D01*
X155994637Y-75141046D02*
X156137494Y-75093427D01*
X156137494Y-75093427D02*
X156708923Y-74521999D01*
X156708923Y-74521999D02*
X156708923Y-75141046D01*
X158795180Y-73619699D02*
X158557085Y-73619699D01*
X158652323Y-73857794D02*
X158557085Y-73619699D01*
X158557085Y-73619699D02*
X158652323Y-73381604D01*
X158366609Y-73762556D02*
X158557085Y-73619699D01*
X158557085Y-73619699D02*
X158366609Y-73476842D01*
X194642857Y-60109580D02*
X194690476Y-60157200D01*
X194690476Y-60157200D02*
X194833333Y-60204819D01*
X194833333Y-60204819D02*
X194928571Y-60204819D01*
X194928571Y-60204819D02*
X195071428Y-60157200D01*
X195071428Y-60157200D02*
X195166666Y-60061961D01*
X195166666Y-60061961D02*
X195214285Y-59966723D01*
X195214285Y-59966723D02*
X195261904Y-59776247D01*
X195261904Y-59776247D02*
X195261904Y-59633390D01*
X195261904Y-59633390D02*
X195214285Y-59442914D01*
X195214285Y-59442914D02*
X195166666Y-59347676D01*
X195166666Y-59347676D02*
X195071428Y-59252438D01*
X195071428Y-59252438D02*
X194928571Y-59204819D01*
X194928571Y-59204819D02*
X194833333Y-59204819D01*
X194833333Y-59204819D02*
X194690476Y-59252438D01*
X194690476Y-59252438D02*
X194642857Y-59300057D01*
X194261904Y-59300057D02*
X194214285Y-59252438D01*
X194214285Y-59252438D02*
X194119047Y-59204819D01*
X194119047Y-59204819D02*
X193880952Y-59204819D01*
X193880952Y-59204819D02*
X193785714Y-59252438D01*
X193785714Y-59252438D02*
X193738095Y-59300057D01*
X193738095Y-59300057D02*
X193690476Y-59395295D01*
X193690476Y-59395295D02*
X193690476Y-59490533D01*
X193690476Y-59490533D02*
X193738095Y-59633390D01*
X193738095Y-59633390D02*
X194309523Y-60204819D01*
X194309523Y-60204819D02*
X193690476Y-60204819D01*
X193119047Y-59633390D02*
X193214285Y-59585771D01*
X193214285Y-59585771D02*
X193261904Y-59538152D01*
X193261904Y-59538152D02*
X193309523Y-59442914D01*
X193309523Y-59442914D02*
X193309523Y-59395295D01*
X193309523Y-59395295D02*
X193261904Y-59300057D01*
X193261904Y-59300057D02*
X193214285Y-59252438D01*
X193214285Y-59252438D02*
X193119047Y-59204819D01*
X193119047Y-59204819D02*
X192928571Y-59204819D01*
X192928571Y-59204819D02*
X192833333Y-59252438D01*
X192833333Y-59252438D02*
X192785714Y-59300057D01*
X192785714Y-59300057D02*
X192738095Y-59395295D01*
X192738095Y-59395295D02*
X192738095Y-59442914D01*
X192738095Y-59442914D02*
X192785714Y-59538152D01*
X192785714Y-59538152D02*
X192833333Y-59585771D01*
X192833333Y-59585771D02*
X192928571Y-59633390D01*
X192928571Y-59633390D02*
X193119047Y-59633390D01*
X193119047Y-59633390D02*
X193214285Y-59681009D01*
X193214285Y-59681009D02*
X193261904Y-59728628D01*
X193261904Y-59728628D02*
X193309523Y-59823866D01*
X193309523Y-59823866D02*
X193309523Y-60014342D01*
X193309523Y-60014342D02*
X193261904Y-60109580D01*
X193261904Y-60109580D02*
X193214285Y-60157200D01*
X193214285Y-60157200D02*
X193119047Y-60204819D01*
X193119047Y-60204819D02*
X192928571Y-60204819D01*
X192928571Y-60204819D02*
X192833333Y-60157200D01*
X192833333Y-60157200D02*
X192785714Y-60109580D01*
X192785714Y-60109580D02*
X192738095Y-60014342D01*
X192738095Y-60014342D02*
X192738095Y-59823866D01*
X192738095Y-59823866D02*
X192785714Y-59728628D01*
X192785714Y-59728628D02*
X192833333Y-59681009D01*
X192833333Y-59681009D02*
X192928571Y-59633390D01*
X194166666Y-64274819D02*
X194499999Y-63798628D01*
X194738094Y-64274819D02*
X194738094Y-63274819D01*
X194738094Y-63274819D02*
X194357142Y-63274819D01*
X194357142Y-63274819D02*
X194261904Y-63322438D01*
X194261904Y-63322438D02*
X194214285Y-63370057D01*
X194214285Y-63370057D02*
X194166666Y-63465295D01*
X194166666Y-63465295D02*
X194166666Y-63608152D01*
X194166666Y-63608152D02*
X194214285Y-63703390D01*
X194214285Y-63703390D02*
X194261904Y-63751009D01*
X194261904Y-63751009D02*
X194357142Y-63798628D01*
X194357142Y-63798628D02*
X194738094Y-63798628D01*
X193833332Y-63274819D02*
X193166666Y-63274819D01*
X193166666Y-63274819D02*
X193595237Y-64274819D01*
X194166666Y-68634819D02*
X194499999Y-68158628D01*
X194738094Y-68634819D02*
X194738094Y-67634819D01*
X194738094Y-67634819D02*
X194357142Y-67634819D01*
X194357142Y-67634819D02*
X194261904Y-67682438D01*
X194261904Y-67682438D02*
X194214285Y-67730057D01*
X194214285Y-67730057D02*
X194166666Y-67825295D01*
X194166666Y-67825295D02*
X194166666Y-67968152D01*
X194166666Y-67968152D02*
X194214285Y-68063390D01*
X194214285Y-68063390D02*
X194261904Y-68111009D01*
X194261904Y-68111009D02*
X194357142Y-68158628D01*
X194357142Y-68158628D02*
X194738094Y-68158628D01*
X193595237Y-68063390D02*
X193690475Y-68015771D01*
X193690475Y-68015771D02*
X193738094Y-67968152D01*
X193738094Y-67968152D02*
X193785713Y-67872914D01*
X193785713Y-67872914D02*
X193785713Y-67825295D01*
X193785713Y-67825295D02*
X193738094Y-67730057D01*
X193738094Y-67730057D02*
X193690475Y-67682438D01*
X193690475Y-67682438D02*
X193595237Y-67634819D01*
X193595237Y-67634819D02*
X193404761Y-67634819D01*
X193404761Y-67634819D02*
X193309523Y-67682438D01*
X193309523Y-67682438D02*
X193261904Y-67730057D01*
X193261904Y-67730057D02*
X193214285Y-67825295D01*
X193214285Y-67825295D02*
X193214285Y-67872914D01*
X193214285Y-67872914D02*
X193261904Y-67968152D01*
X193261904Y-67968152D02*
X193309523Y-68015771D01*
X193309523Y-68015771D02*
X193404761Y-68063390D01*
X193404761Y-68063390D02*
X193595237Y-68063390D01*
X193595237Y-68063390D02*
X193690475Y-68111009D01*
X193690475Y-68111009D02*
X193738094Y-68158628D01*
X193738094Y-68158628D02*
X193785713Y-68253866D01*
X193785713Y-68253866D02*
X193785713Y-68444342D01*
X193785713Y-68444342D02*
X193738094Y-68539580D01*
X193738094Y-68539580D02*
X193690475Y-68587200D01*
X193690475Y-68587200D02*
X193595237Y-68634819D01*
X193595237Y-68634819D02*
X193404761Y-68634819D01*
X193404761Y-68634819D02*
X193309523Y-68587200D01*
X193309523Y-68587200D02*
X193261904Y-68539580D01*
X193261904Y-68539580D02*
X193214285Y-68444342D01*
X193214285Y-68444342D02*
X193214285Y-68253866D01*
X193214285Y-68253866D02*
X193261904Y-68158628D01*
X193261904Y-68158628D02*
X193309523Y-68111009D01*
X193309523Y-68111009D02*
X193404761Y-68063390D01*
X164954819Y-60238095D02*
X165764342Y-60238095D01*
X165764342Y-60238095D02*
X165859580Y-60285714D01*
X165859580Y-60285714D02*
X165907200Y-60333333D01*
X165907200Y-60333333D02*
X165954819Y-60428571D01*
X165954819Y-60428571D02*
X165954819Y-60619047D01*
X165954819Y-60619047D02*
X165907200Y-60714285D01*
X165907200Y-60714285D02*
X165859580Y-60761904D01*
X165859580Y-60761904D02*
X165764342Y-60809523D01*
X165764342Y-60809523D02*
X164954819Y-60809523D01*
X164954819Y-61190476D02*
X164954819Y-61809523D01*
X164954819Y-61809523D02*
X165335771Y-61476190D01*
X165335771Y-61476190D02*
X165335771Y-61619047D01*
X165335771Y-61619047D02*
X165383390Y-61714285D01*
X165383390Y-61714285D02*
X165431009Y-61761904D01*
X165431009Y-61761904D02*
X165526247Y-61809523D01*
X165526247Y-61809523D02*
X165764342Y-61809523D01*
X165764342Y-61809523D02*
X165859580Y-61761904D01*
X165859580Y-61761904D02*
X165907200Y-61714285D01*
X165907200Y-61714285D02*
X165954819Y-61619047D01*
X165954819Y-61619047D02*
X165954819Y-61333333D01*
X165954819Y-61333333D02*
X165907200Y-61238095D01*
X165907200Y-61238095D02*
X165859580Y-61190476D01*
X194238094Y-97704820D02*
X194238094Y-98514343D01*
X194238094Y-98514343D02*
X194190475Y-98609581D01*
X194190475Y-98609581D02*
X194142856Y-98657201D01*
X194142856Y-98657201D02*
X194047618Y-98704820D01*
X194047618Y-98704820D02*
X193857142Y-98704820D01*
X193857142Y-98704820D02*
X193761904Y-98657201D01*
X193761904Y-98657201D02*
X193714285Y-98609581D01*
X193714285Y-98609581D02*
X193666666Y-98514343D01*
X193666666Y-98514343D02*
X193666666Y-97704820D01*
X192666666Y-98704820D02*
X193238094Y-98704820D01*
X192952380Y-98704820D02*
X192952380Y-97704820D01*
X192952380Y-97704820D02*
X193047618Y-97847677D01*
X193047618Y-97847677D02*
X193142856Y-97942915D01*
X193142856Y-97942915D02*
X193238094Y-97990534D01*
X191809523Y-98038153D02*
X191809523Y-98704820D01*
X192047618Y-97657201D02*
X192285713Y-98371486D01*
X192285713Y-98371486D02*
X191666666Y-98371486D01*
X157738094Y-97954819D02*
X157738094Y-98764342D01*
X157738094Y-98764342D02*
X157690475Y-98859580D01*
X157690475Y-98859580D02*
X157642856Y-98907200D01*
X157642856Y-98907200D02*
X157547618Y-98954819D01*
X157547618Y-98954819D02*
X157357142Y-98954819D01*
X157357142Y-98954819D02*
X157261904Y-98907200D01*
X157261904Y-98907200D02*
X157214285Y-98859580D01*
X157214285Y-98859580D02*
X157166666Y-98764342D01*
X157166666Y-98764342D02*
X157166666Y-97954819D01*
X156166666Y-98954819D02*
X156738094Y-98954819D01*
X156452380Y-98954819D02*
X156452380Y-97954819D01*
X156452380Y-97954819D02*
X156547618Y-98097676D01*
X156547618Y-98097676D02*
X156642856Y-98192914D01*
X156642856Y-98192914D02*
X156738094Y-98240533D01*
X155261904Y-97954819D02*
X155738094Y-97954819D01*
X155738094Y-97954819D02*
X155785713Y-98431009D01*
X155785713Y-98431009D02*
X155738094Y-98383390D01*
X155738094Y-98383390D02*
X155642856Y-98335771D01*
X155642856Y-98335771D02*
X155404761Y-98335771D01*
X155404761Y-98335771D02*
X155309523Y-98383390D01*
X155309523Y-98383390D02*
X155261904Y-98431009D01*
X155261904Y-98431009D02*
X155214285Y-98526247D01*
X155214285Y-98526247D02*
X155214285Y-98764342D01*
X155214285Y-98764342D02*
X155261904Y-98859580D01*
X155261904Y-98859580D02*
X155309523Y-98907200D01*
X155309523Y-98907200D02*
X155404761Y-98954819D01*
X155404761Y-98954819D02*
X155642856Y-98954819D01*
X155642856Y-98954819D02*
X155738094Y-98907200D01*
X155738094Y-98907200D02*
X155785713Y-98859580D01*
X158238094Y-51204819D02*
X158238094Y-52014342D01*
X158238094Y-52014342D02*
X158190475Y-52109580D01*
X158190475Y-52109580D02*
X158142856Y-52157200D01*
X158142856Y-52157200D02*
X158047618Y-52204819D01*
X158047618Y-52204819D02*
X157857142Y-52204819D01*
X157857142Y-52204819D02*
X157761904Y-52157200D01*
X157761904Y-52157200D02*
X157714285Y-52109580D01*
X157714285Y-52109580D02*
X157666666Y-52014342D01*
X157666666Y-52014342D02*
X157666666Y-51204819D01*
X156666666Y-52204819D02*
X157238094Y-52204819D01*
X156952380Y-52204819D02*
X156952380Y-51204819D01*
X156952380Y-51204819D02*
X157047618Y-51347676D01*
X157047618Y-51347676D02*
X157142856Y-51442914D01*
X157142856Y-51442914D02*
X157238094Y-51490533D01*
X155809523Y-51204819D02*
X155999999Y-51204819D01*
X155999999Y-51204819D02*
X156095237Y-51252438D01*
X156095237Y-51252438D02*
X156142856Y-51300057D01*
X156142856Y-51300057D02*
X156238094Y-51442914D01*
X156238094Y-51442914D02*
X156285713Y-51633390D01*
X156285713Y-51633390D02*
X156285713Y-52014342D01*
X156285713Y-52014342D02*
X156238094Y-52109580D01*
X156238094Y-52109580D02*
X156190475Y-52157200D01*
X156190475Y-52157200D02*
X156095237Y-52204819D01*
X156095237Y-52204819D02*
X155904761Y-52204819D01*
X155904761Y-52204819D02*
X155809523Y-52157200D01*
X155809523Y-52157200D02*
X155761904Y-52109580D01*
X155761904Y-52109580D02*
X155714285Y-52014342D01*
X155714285Y-52014342D02*
X155714285Y-51776247D01*
X155714285Y-51776247D02*
X155761904Y-51681009D01*
X155761904Y-51681009D02*
X155809523Y-51633390D01*
X155809523Y-51633390D02*
X155904761Y-51585771D01*
X155904761Y-51585771D02*
X156095237Y-51585771D01*
X156095237Y-51585771D02*
X156190475Y-51633390D01*
X156190475Y-51633390D02*
X156238094Y-51681009D01*
X156238094Y-51681009D02*
X156285713Y-51776247D01*
X195238094Y-50954819D02*
X195238094Y-51764342D01*
X195238094Y-51764342D02*
X195190475Y-51859580D01*
X195190475Y-51859580D02*
X195142856Y-51907200D01*
X195142856Y-51907200D02*
X195047618Y-51954819D01*
X195047618Y-51954819D02*
X194857142Y-51954819D01*
X194857142Y-51954819D02*
X194761904Y-51907200D01*
X194761904Y-51907200D02*
X194714285Y-51859580D01*
X194714285Y-51859580D02*
X194666666Y-51764342D01*
X194666666Y-51764342D02*
X194666666Y-50954819D01*
X193666666Y-51954819D02*
X194238094Y-51954819D01*
X193952380Y-51954819D02*
X193952380Y-50954819D01*
X193952380Y-50954819D02*
X194047618Y-51097676D01*
X194047618Y-51097676D02*
X194142856Y-51192914D01*
X194142856Y-51192914D02*
X194238094Y-51240533D01*
X193333332Y-50954819D02*
X192666666Y-50954819D01*
X192666666Y-50954819D02*
X193095237Y-51954819D01*
X176609580Y-67107142D02*
X176657200Y-67059523D01*
X176657200Y-67059523D02*
X176704819Y-66916666D01*
X176704819Y-66916666D02*
X176704819Y-66821428D01*
X176704819Y-66821428D02*
X176657200Y-66678571D01*
X176657200Y-66678571D02*
X176561961Y-66583333D01*
X176561961Y-66583333D02*
X176466723Y-66535714D01*
X176466723Y-66535714D02*
X176276247Y-66488095D01*
X176276247Y-66488095D02*
X176133390Y-66488095D01*
X176133390Y-66488095D02*
X175942914Y-66535714D01*
X175942914Y-66535714D02*
X175847676Y-66583333D01*
X175847676Y-66583333D02*
X175752438Y-66678571D01*
X175752438Y-66678571D02*
X175704819Y-66821428D01*
X175704819Y-66821428D02*
X175704819Y-66916666D01*
X175704819Y-66916666D02*
X175752438Y-67059523D01*
X175752438Y-67059523D02*
X175800057Y-67107142D01*
X175800057Y-67488095D02*
X175752438Y-67535714D01*
X175752438Y-67535714D02*
X175704819Y-67630952D01*
X175704819Y-67630952D02*
X175704819Y-67869047D01*
X175704819Y-67869047D02*
X175752438Y-67964285D01*
X175752438Y-67964285D02*
X175800057Y-68011904D01*
X175800057Y-68011904D02*
X175895295Y-68059523D01*
X175895295Y-68059523D02*
X175990533Y-68059523D01*
X175990533Y-68059523D02*
X176133390Y-68011904D01*
X176133390Y-68011904D02*
X176704819Y-67440476D01*
X176704819Y-67440476D02*
X176704819Y-68059523D01*
X175704819Y-68678571D02*
X175704819Y-68773809D01*
X175704819Y-68773809D02*
X175752438Y-68869047D01*
X175752438Y-68869047D02*
X175800057Y-68916666D01*
X175800057Y-68916666D02*
X175895295Y-68964285D01*
X175895295Y-68964285D02*
X176085771Y-69011904D01*
X176085771Y-69011904D02*
X176323866Y-69011904D01*
X176323866Y-69011904D02*
X176514342Y-68964285D01*
X176514342Y-68964285D02*
X176609580Y-68916666D01*
X176609580Y-68916666D02*
X176657200Y-68869047D01*
X176657200Y-68869047D02*
X176704819Y-68773809D01*
X176704819Y-68773809D02*
X176704819Y-68678571D01*
X176704819Y-68678571D02*
X176657200Y-68583333D01*
X176657200Y-68583333D02*
X176609580Y-68535714D01*
X176609580Y-68535714D02*
X176514342Y-68488095D01*
X176514342Y-68488095D02*
X176323866Y-68440476D01*
X176323866Y-68440476D02*
X176085771Y-68440476D01*
X176085771Y-68440476D02*
X175895295Y-68488095D01*
X175895295Y-68488095D02*
X175800057Y-68535714D01*
X175800057Y-68535714D02*
X175752438Y-68583333D01*
X175752438Y-68583333D02*
X175704819Y-68678571D01*
X164892857Y-57129580D02*
X164940476Y-57177200D01*
X164940476Y-57177200D02*
X165083333Y-57224819D01*
X165083333Y-57224819D02*
X165178571Y-57224819D01*
X165178571Y-57224819D02*
X165321428Y-57177200D01*
X165321428Y-57177200D02*
X165416666Y-57081961D01*
X165416666Y-57081961D02*
X165464285Y-56986723D01*
X165464285Y-56986723D02*
X165511904Y-56796247D01*
X165511904Y-56796247D02*
X165511904Y-56653390D01*
X165511904Y-56653390D02*
X165464285Y-56462914D01*
X165464285Y-56462914D02*
X165416666Y-56367676D01*
X165416666Y-56367676D02*
X165321428Y-56272438D01*
X165321428Y-56272438D02*
X165178571Y-56224819D01*
X165178571Y-56224819D02*
X165083333Y-56224819D01*
X165083333Y-56224819D02*
X164940476Y-56272438D01*
X164940476Y-56272438D02*
X164892857Y-56320057D01*
X164511904Y-56320057D02*
X164464285Y-56272438D01*
X164464285Y-56272438D02*
X164369047Y-56224819D01*
X164369047Y-56224819D02*
X164130952Y-56224819D01*
X164130952Y-56224819D02*
X164035714Y-56272438D01*
X164035714Y-56272438D02*
X163988095Y-56320057D01*
X163988095Y-56320057D02*
X163940476Y-56415295D01*
X163940476Y-56415295D02*
X163940476Y-56510533D01*
X163940476Y-56510533D02*
X163988095Y-56653390D01*
X163988095Y-56653390D02*
X164559523Y-57224819D01*
X164559523Y-57224819D02*
X163940476Y-57224819D01*
X163083333Y-56558152D02*
X163083333Y-57224819D01*
X163321428Y-56177200D02*
X163559523Y-56891485D01*
X163559523Y-56891485D02*
X162940476Y-56891485D01*
X168416666Y-76524819D02*
X168749999Y-76048628D01*
X168988094Y-76524819D02*
X168988094Y-75524819D01*
X168988094Y-75524819D02*
X168607142Y-75524819D01*
X168607142Y-75524819D02*
X168511904Y-75572438D01*
X168511904Y-75572438D02*
X168464285Y-75620057D01*
X168464285Y-75620057D02*
X168416666Y-75715295D01*
X168416666Y-75715295D02*
X168416666Y-75858152D01*
X168416666Y-75858152D02*
X168464285Y-75953390D01*
X168464285Y-75953390D02*
X168511904Y-76001009D01*
X168511904Y-76001009D02*
X168607142Y-76048628D01*
X168607142Y-76048628D02*
X168988094Y-76048628D01*
X167464285Y-76524819D02*
X168035713Y-76524819D01*
X167749999Y-76524819D02*
X167749999Y-75524819D01*
X167749999Y-75524819D02*
X167845237Y-75667676D01*
X167845237Y-75667676D02*
X167940475Y-75762914D01*
X167940475Y-75762914D02*
X168035713Y-75810533D01*
X173783437Y-68109580D02*
X173831056Y-68157200D01*
X173831056Y-68157200D02*
X173973913Y-68204819D01*
X173973913Y-68204819D02*
X174069151Y-68204819D01*
X174069151Y-68204819D02*
X174212008Y-68157200D01*
X174212008Y-68157200D02*
X174307246Y-68061961D01*
X174307246Y-68061961D02*
X174354865Y-67966723D01*
X174354865Y-67966723D02*
X174402484Y-67776247D01*
X174402484Y-67776247D02*
X174402484Y-67633390D01*
X174402484Y-67633390D02*
X174354865Y-67442914D01*
X174354865Y-67442914D02*
X174307246Y-67347676D01*
X174307246Y-67347676D02*
X174212008Y-67252438D01*
X174212008Y-67252438D02*
X174069151Y-67204819D01*
X174069151Y-67204819D02*
X173973913Y-67204819D01*
X173973913Y-67204819D02*
X173831056Y-67252438D01*
X173831056Y-67252438D02*
X173783437Y-67300057D01*
X172926294Y-67538152D02*
X172926294Y-68204819D01*
X173164389Y-67157200D02*
X173402484Y-67871485D01*
X173402484Y-67871485D02*
X172783437Y-67871485D01*
X172259627Y-67633390D02*
X172354865Y-67585771D01*
X172354865Y-67585771D02*
X172402484Y-67538152D01*
X172402484Y-67538152D02*
X172450103Y-67442914D01*
X172450103Y-67442914D02*
X172450103Y-67395295D01*
X172450103Y-67395295D02*
X172402484Y-67300057D01*
X172402484Y-67300057D02*
X172354865Y-67252438D01*
X172354865Y-67252438D02*
X172259627Y-67204819D01*
X172259627Y-67204819D02*
X172069151Y-67204819D01*
X172069151Y-67204819D02*
X171973913Y-67252438D01*
X171973913Y-67252438D02*
X171926294Y-67300057D01*
X171926294Y-67300057D02*
X171878675Y-67395295D01*
X171878675Y-67395295D02*
X171878675Y-67442914D01*
X171878675Y-67442914D02*
X171926294Y-67538152D01*
X171926294Y-67538152D02*
X171973913Y-67585771D01*
X171973913Y-67585771D02*
X172069151Y-67633390D01*
X172069151Y-67633390D02*
X172259627Y-67633390D01*
X172259627Y-67633390D02*
X172354865Y-67681009D01*
X172354865Y-67681009D02*
X172402484Y-67728628D01*
X172402484Y-67728628D02*
X172450103Y-67823866D01*
X172450103Y-67823866D02*
X172450103Y-68014342D01*
X172450103Y-68014342D02*
X172402484Y-68109580D01*
X172402484Y-68109580D02*
X172354865Y-68157200D01*
X172354865Y-68157200D02*
X172259627Y-68204819D01*
X172259627Y-68204819D02*
X172069151Y-68204819D01*
X172069151Y-68204819D02*
X171973913Y-68157200D01*
X171973913Y-68157200D02*
X171926294Y-68109580D01*
X171926294Y-68109580D02*
X171878675Y-68014342D01*
X171878675Y-68014342D02*
X171878675Y-67823866D01*
X171878675Y-67823866D02*
X171926294Y-67728628D01*
X171926294Y-67728628D02*
X171973913Y-67681009D01*
X171973913Y-67681009D02*
X172069151Y-67633390D01*
X169609580Y-63607142D02*
X169657200Y-63559523D01*
X169657200Y-63559523D02*
X169704819Y-63416666D01*
X169704819Y-63416666D02*
X169704819Y-63321428D01*
X169704819Y-63321428D02*
X169657200Y-63178571D01*
X169657200Y-63178571D02*
X169561961Y-63083333D01*
X169561961Y-63083333D02*
X169466723Y-63035714D01*
X169466723Y-63035714D02*
X169276247Y-62988095D01*
X169276247Y-62988095D02*
X169133390Y-62988095D01*
X169133390Y-62988095D02*
X168942914Y-63035714D01*
X168942914Y-63035714D02*
X168847676Y-63083333D01*
X168847676Y-63083333D02*
X168752438Y-63178571D01*
X168752438Y-63178571D02*
X168704819Y-63321428D01*
X168704819Y-63321428D02*
X168704819Y-63416666D01*
X168704819Y-63416666D02*
X168752438Y-63559523D01*
X168752438Y-63559523D02*
X168800057Y-63607142D01*
X169038152Y-64464285D02*
X169704819Y-64464285D01*
X168657200Y-64226190D02*
X169371485Y-63988095D01*
X169371485Y-63988095D02*
X169371485Y-64607142D01*
X169704819Y-65035714D02*
X169704819Y-65226190D01*
X169704819Y-65226190D02*
X169657200Y-65321428D01*
X169657200Y-65321428D02*
X169609580Y-65369047D01*
X169609580Y-65369047D02*
X169466723Y-65464285D01*
X169466723Y-65464285D02*
X169276247Y-65511904D01*
X169276247Y-65511904D02*
X168895295Y-65511904D01*
X168895295Y-65511904D02*
X168800057Y-65464285D01*
X168800057Y-65464285D02*
X168752438Y-65416666D01*
X168752438Y-65416666D02*
X168704819Y-65321428D01*
X168704819Y-65321428D02*
X168704819Y-65130952D01*
X168704819Y-65130952D02*
X168752438Y-65035714D01*
X168752438Y-65035714D02*
X168800057Y-64988095D01*
X168800057Y-64988095D02*
X168895295Y-64940476D01*
X168895295Y-64940476D02*
X169133390Y-64940476D01*
X169133390Y-64940476D02*
X169228628Y-64988095D01*
X169228628Y-64988095D02*
X169276247Y-65035714D01*
X169276247Y-65035714D02*
X169323866Y-65130952D01*
X169323866Y-65130952D02*
X169323866Y-65321428D01*
X169323866Y-65321428D02*
X169276247Y-65416666D01*
X169276247Y-65416666D02*
X169228628Y-65464285D01*
X169228628Y-65464285D02*
X169133390Y-65511904D01*
X167642857Y-68109580D02*
X167690476Y-68157200D01*
X167690476Y-68157200D02*
X167833333Y-68204819D01*
X167833333Y-68204819D02*
X167928571Y-68204819D01*
X167928571Y-68204819D02*
X168071428Y-68157200D01*
X168071428Y-68157200D02*
X168166666Y-68061961D01*
X168166666Y-68061961D02*
X168214285Y-67966723D01*
X168214285Y-67966723D02*
X168261904Y-67776247D01*
X168261904Y-67776247D02*
X168261904Y-67633390D01*
X168261904Y-67633390D02*
X168214285Y-67442914D01*
X168214285Y-67442914D02*
X168166666Y-67347676D01*
X168166666Y-67347676D02*
X168071428Y-67252438D01*
X168071428Y-67252438D02*
X167928571Y-67204819D01*
X167928571Y-67204819D02*
X167833333Y-67204819D01*
X167833333Y-67204819D02*
X167690476Y-67252438D01*
X167690476Y-67252438D02*
X167642857Y-67300057D01*
X166785714Y-67538152D02*
X166785714Y-68204819D01*
X167023809Y-67157200D02*
X167261904Y-67871485D01*
X167261904Y-67871485D02*
X166642857Y-67871485D01*
X165833333Y-67538152D02*
X165833333Y-68204819D01*
X166071428Y-67157200D02*
X166309523Y-67871485D01*
X166309523Y-67871485D02*
X165690476Y-67871485D01*
X168109580Y-59857142D02*
X168157200Y-59809523D01*
X168157200Y-59809523D02*
X168204819Y-59666666D01*
X168204819Y-59666666D02*
X168204819Y-59571428D01*
X168204819Y-59571428D02*
X168157200Y-59428571D01*
X168157200Y-59428571D02*
X168061961Y-59333333D01*
X168061961Y-59333333D02*
X167966723Y-59285714D01*
X167966723Y-59285714D02*
X167776247Y-59238095D01*
X167776247Y-59238095D02*
X167633390Y-59238095D01*
X167633390Y-59238095D02*
X167442914Y-59285714D01*
X167442914Y-59285714D02*
X167347676Y-59333333D01*
X167347676Y-59333333D02*
X167252438Y-59428571D01*
X167252438Y-59428571D02*
X167204819Y-59571428D01*
X167204819Y-59571428D02*
X167204819Y-59666666D01*
X167204819Y-59666666D02*
X167252438Y-59809523D01*
X167252438Y-59809523D02*
X167300057Y-59857142D01*
X167538152Y-60714285D02*
X168204819Y-60714285D01*
X167157200Y-60476190D02*
X167871485Y-60238095D01*
X167871485Y-60238095D02*
X167871485Y-60857142D01*
X167204819Y-61714285D02*
X167204819Y-61238095D01*
X167204819Y-61238095D02*
X167681009Y-61190476D01*
X167681009Y-61190476D02*
X167633390Y-61238095D01*
X167633390Y-61238095D02*
X167585771Y-61333333D01*
X167585771Y-61333333D02*
X167585771Y-61571428D01*
X167585771Y-61571428D02*
X167633390Y-61666666D01*
X167633390Y-61666666D02*
X167681009Y-61714285D01*
X167681009Y-61714285D02*
X167776247Y-61761904D01*
X167776247Y-61761904D02*
X168014342Y-61761904D01*
X168014342Y-61761904D02*
X168109580Y-61714285D01*
X168109580Y-61714285D02*
X168157200Y-61666666D01*
X168157200Y-61666666D02*
X168204819Y-61571428D01*
X168204819Y-61571428D02*
X168204819Y-61333333D01*
X168204819Y-61333333D02*
X168157200Y-61238095D01*
X168157200Y-61238095D02*
X168109580Y-61190476D01*
X157003857Y-67609580D02*
X157051476Y-67657200D01*
X157051476Y-67657200D02*
X157194333Y-67704819D01*
X157194333Y-67704819D02*
X157289571Y-67704819D01*
X157289571Y-67704819D02*
X157432428Y-67657200D01*
X157432428Y-67657200D02*
X157527666Y-67561961D01*
X157527666Y-67561961D02*
X157575285Y-67466723D01*
X157575285Y-67466723D02*
X157622904Y-67276247D01*
X157622904Y-67276247D02*
X157622904Y-67133390D01*
X157622904Y-67133390D02*
X157575285Y-66942914D01*
X157575285Y-66942914D02*
X157527666Y-66847676D01*
X157527666Y-66847676D02*
X157432428Y-66752438D01*
X157432428Y-66752438D02*
X157289571Y-66704819D01*
X157289571Y-66704819D02*
X157194333Y-66704819D01*
X157194333Y-66704819D02*
X157051476Y-66752438D01*
X157051476Y-66752438D02*
X157003857Y-66800057D01*
X156146714Y-67038152D02*
X156146714Y-67704819D01*
X156384809Y-66657200D02*
X156622904Y-67371485D01*
X156622904Y-67371485D02*
X156003857Y-67371485D01*
X155670523Y-66800057D02*
X155622904Y-66752438D01*
X155622904Y-66752438D02*
X155527666Y-66704819D01*
X155527666Y-66704819D02*
X155289571Y-66704819D01*
X155289571Y-66704819D02*
X155194333Y-66752438D01*
X155194333Y-66752438D02*
X155146714Y-66800057D01*
X155146714Y-66800057D02*
X155099095Y-66895295D01*
X155099095Y-66895295D02*
X155099095Y-66990533D01*
X155099095Y-66990533D02*
X155146714Y-67133390D01*
X155146714Y-67133390D02*
X155718142Y-67704819D01*
X155718142Y-67704819D02*
X155099095Y-67704819D01*
X153040580Y-70476842D02*
X153088200Y-70429223D01*
X153088200Y-70429223D02*
X153135819Y-70286366D01*
X153135819Y-70286366D02*
X153135819Y-70191128D01*
X153135819Y-70191128D02*
X153088200Y-70048271D01*
X153088200Y-70048271D02*
X152992961Y-69953033D01*
X152992961Y-69953033D02*
X152897723Y-69905414D01*
X152897723Y-69905414D02*
X152707247Y-69857795D01*
X152707247Y-69857795D02*
X152564390Y-69857795D01*
X152564390Y-69857795D02*
X152373914Y-69905414D01*
X152373914Y-69905414D02*
X152278676Y-69953033D01*
X152278676Y-69953033D02*
X152183438Y-70048271D01*
X152183438Y-70048271D02*
X152135819Y-70191128D01*
X152135819Y-70191128D02*
X152135819Y-70286366D01*
X152135819Y-70286366D02*
X152183438Y-70429223D01*
X152183438Y-70429223D02*
X152231057Y-70476842D01*
X152469152Y-71333985D02*
X153135819Y-71333985D01*
X152088200Y-71095890D02*
X152802485Y-70857795D01*
X152802485Y-70857795D02*
X152802485Y-71476842D01*
X152135819Y-71762557D02*
X152135819Y-72381604D01*
X152135819Y-72381604D02*
X152516771Y-72048271D01*
X152516771Y-72048271D02*
X152516771Y-72191128D01*
X152516771Y-72191128D02*
X152564390Y-72286366D01*
X152564390Y-72286366D02*
X152612009Y-72333985D01*
X152612009Y-72333985D02*
X152707247Y-72381604D01*
X152707247Y-72381604D02*
X152945342Y-72381604D01*
X152945342Y-72381604D02*
X153040580Y-72333985D01*
X153040580Y-72333985D02*
X153088200Y-72286366D01*
X153088200Y-72286366D02*
X153135819Y-72191128D01*
X153135819Y-72191128D02*
X153135819Y-71905414D01*
X153135819Y-71905414D02*
X153088200Y-71810176D01*
X153088200Y-71810176D02*
X153040580Y-71762557D01*
X154003857Y-67609580D02*
X154051476Y-67657200D01*
X154051476Y-67657200D02*
X154194333Y-67704819D01*
X154194333Y-67704819D02*
X154289571Y-67704819D01*
X154289571Y-67704819D02*
X154432428Y-67657200D01*
X154432428Y-67657200D02*
X154527666Y-67561961D01*
X154527666Y-67561961D02*
X154575285Y-67466723D01*
X154575285Y-67466723D02*
X154622904Y-67276247D01*
X154622904Y-67276247D02*
X154622904Y-67133390D01*
X154622904Y-67133390D02*
X154575285Y-66942914D01*
X154575285Y-66942914D02*
X154527666Y-66847676D01*
X154527666Y-66847676D02*
X154432428Y-66752438D01*
X154432428Y-66752438D02*
X154289571Y-66704819D01*
X154289571Y-66704819D02*
X154194333Y-66704819D01*
X154194333Y-66704819D02*
X154051476Y-66752438D01*
X154051476Y-66752438D02*
X154003857Y-66800057D01*
X153146714Y-67038152D02*
X153146714Y-67704819D01*
X153384809Y-66657200D02*
X153622904Y-67371485D01*
X153622904Y-67371485D02*
X153003857Y-67371485D01*
X152099095Y-67704819D02*
X152670523Y-67704819D01*
X152384809Y-67704819D02*
X152384809Y-66704819D01*
X152384809Y-66704819D02*
X152480047Y-66847676D01*
X152480047Y-66847676D02*
X152575285Y-66942914D01*
X152575285Y-66942914D02*
X152670523Y-66990533D01*
X169392857Y-77859580D02*
X169440476Y-77907200D01*
X169440476Y-77907200D02*
X169583333Y-77954819D01*
X169583333Y-77954819D02*
X169678571Y-77954819D01*
X169678571Y-77954819D02*
X169821428Y-77907200D01*
X169821428Y-77907200D02*
X169916666Y-77811961D01*
X169916666Y-77811961D02*
X169964285Y-77716723D01*
X169964285Y-77716723D02*
X170011904Y-77526247D01*
X170011904Y-77526247D02*
X170011904Y-77383390D01*
X170011904Y-77383390D02*
X169964285Y-77192914D01*
X169964285Y-77192914D02*
X169916666Y-77097676D01*
X169916666Y-77097676D02*
X169821428Y-77002438D01*
X169821428Y-77002438D02*
X169678571Y-76954819D01*
X169678571Y-76954819D02*
X169583333Y-76954819D01*
X169583333Y-76954819D02*
X169440476Y-77002438D01*
X169440476Y-77002438D02*
X169392857Y-77050057D01*
X169011904Y-77050057D02*
X168964285Y-77002438D01*
X168964285Y-77002438D02*
X168869047Y-76954819D01*
X168869047Y-76954819D02*
X168630952Y-76954819D01*
X168630952Y-76954819D02*
X168535714Y-77002438D01*
X168535714Y-77002438D02*
X168488095Y-77050057D01*
X168488095Y-77050057D02*
X168440476Y-77145295D01*
X168440476Y-77145295D02*
X168440476Y-77240533D01*
X168440476Y-77240533D02*
X168488095Y-77383390D01*
X168488095Y-77383390D02*
X169059523Y-77954819D01*
X169059523Y-77954819D02*
X168440476Y-77954819D01*
X167583333Y-76954819D02*
X167773809Y-76954819D01*
X167773809Y-76954819D02*
X167869047Y-77002438D01*
X167869047Y-77002438D02*
X167916666Y-77050057D01*
X167916666Y-77050057D02*
X168011904Y-77192914D01*
X168011904Y-77192914D02*
X168059523Y-77383390D01*
X168059523Y-77383390D02*
X168059523Y-77764342D01*
X168059523Y-77764342D02*
X168011904Y-77859580D01*
X168011904Y-77859580D02*
X167964285Y-77907200D01*
X167964285Y-77907200D02*
X167869047Y-77954819D01*
X167869047Y-77954819D02*
X167678571Y-77954819D01*
X167678571Y-77954819D02*
X167583333Y-77907200D01*
X167583333Y-77907200D02*
X167535714Y-77859580D01*
X167535714Y-77859580D02*
X167488095Y-77764342D01*
X167488095Y-77764342D02*
X167488095Y-77526247D01*
X167488095Y-77526247D02*
X167535714Y-77431009D01*
X167535714Y-77431009D02*
X167583333Y-77383390D01*
X167583333Y-77383390D02*
X167678571Y-77335771D01*
X167678571Y-77335771D02*
X167869047Y-77335771D01*
X167869047Y-77335771D02*
X167964285Y-77383390D01*
X167964285Y-77383390D02*
X168011904Y-77431009D01*
X168011904Y-77431009D02*
X168059523Y-77526247D01*
X171642857Y-60429580D02*
X171690476Y-60477200D01*
X171690476Y-60477200D02*
X171833333Y-60524819D01*
X171833333Y-60524819D02*
X171928571Y-60524819D01*
X171928571Y-60524819D02*
X172071428Y-60477200D01*
X172071428Y-60477200D02*
X172166666Y-60381961D01*
X172166666Y-60381961D02*
X172214285Y-60286723D01*
X172214285Y-60286723D02*
X172261904Y-60096247D01*
X172261904Y-60096247D02*
X172261904Y-59953390D01*
X172261904Y-59953390D02*
X172214285Y-59762914D01*
X172214285Y-59762914D02*
X172166666Y-59667676D01*
X172166666Y-59667676D02*
X172071428Y-59572438D01*
X172071428Y-59572438D02*
X171928571Y-59524819D01*
X171928571Y-59524819D02*
X171833333Y-59524819D01*
X171833333Y-59524819D02*
X171690476Y-59572438D01*
X171690476Y-59572438D02*
X171642857Y-59620057D01*
X171261904Y-59620057D02*
X171214285Y-59572438D01*
X171214285Y-59572438D02*
X171119047Y-59524819D01*
X171119047Y-59524819D02*
X170880952Y-59524819D01*
X170880952Y-59524819D02*
X170785714Y-59572438D01*
X170785714Y-59572438D02*
X170738095Y-59620057D01*
X170738095Y-59620057D02*
X170690476Y-59715295D01*
X170690476Y-59715295D02*
X170690476Y-59810533D01*
X170690476Y-59810533D02*
X170738095Y-59953390D01*
X170738095Y-59953390D02*
X171309523Y-60524819D01*
X171309523Y-60524819D02*
X170690476Y-60524819D01*
X170309523Y-59620057D02*
X170261904Y-59572438D01*
X170261904Y-59572438D02*
X170166666Y-59524819D01*
X170166666Y-59524819D02*
X169928571Y-59524819D01*
X169928571Y-59524819D02*
X169833333Y-59572438D01*
X169833333Y-59572438D02*
X169785714Y-59620057D01*
X169785714Y-59620057D02*
X169738095Y-59715295D01*
X169738095Y-59715295D02*
X169738095Y-59810533D01*
X169738095Y-59810533D02*
X169785714Y-59953390D01*
X169785714Y-59953390D02*
X170357142Y-60524819D01*
X170357142Y-60524819D02*
X169738095Y-60524819D01*
X176167857Y-60429580D02*
X176215476Y-60477200D01*
X176215476Y-60477200D02*
X176358333Y-60524819D01*
X176358333Y-60524819D02*
X176453571Y-60524819D01*
X176453571Y-60524819D02*
X176596428Y-60477200D01*
X176596428Y-60477200D02*
X176691666Y-60381961D01*
X176691666Y-60381961D02*
X176739285Y-60286723D01*
X176739285Y-60286723D02*
X176786904Y-60096247D01*
X176786904Y-60096247D02*
X176786904Y-59953390D01*
X176786904Y-59953390D02*
X176739285Y-59762914D01*
X176739285Y-59762914D02*
X176691666Y-59667676D01*
X176691666Y-59667676D02*
X176596428Y-59572438D01*
X176596428Y-59572438D02*
X176453571Y-59524819D01*
X176453571Y-59524819D02*
X176358333Y-59524819D01*
X176358333Y-59524819D02*
X176215476Y-59572438D01*
X176215476Y-59572438D02*
X176167857Y-59620057D01*
X175786904Y-59620057D02*
X175739285Y-59572438D01*
X175739285Y-59572438D02*
X175644047Y-59524819D01*
X175644047Y-59524819D02*
X175405952Y-59524819D01*
X175405952Y-59524819D02*
X175310714Y-59572438D01*
X175310714Y-59572438D02*
X175263095Y-59620057D01*
X175263095Y-59620057D02*
X175215476Y-59715295D01*
X175215476Y-59715295D02*
X175215476Y-59810533D01*
X175215476Y-59810533D02*
X175263095Y-59953390D01*
X175263095Y-59953390D02*
X175834523Y-60524819D01*
X175834523Y-60524819D02*
X175215476Y-60524819D01*
X174263095Y-60524819D02*
X174834523Y-60524819D01*
X174548809Y-60524819D02*
X174548809Y-59524819D01*
X174548809Y-59524819D02*
X174644047Y-59667676D01*
X174644047Y-59667676D02*
X174739285Y-59762914D01*
X174739285Y-59762914D02*
X174834523Y-59810533D01*
X186039580Y-70857142D02*
X186087200Y-70809523D01*
X186087200Y-70809523D02*
X186134819Y-70666666D01*
X186134819Y-70666666D02*
X186134819Y-70571428D01*
X186134819Y-70571428D02*
X186087200Y-70428571D01*
X186087200Y-70428571D02*
X185991961Y-70333333D01*
X185991961Y-70333333D02*
X185896723Y-70285714D01*
X185896723Y-70285714D02*
X185706247Y-70238095D01*
X185706247Y-70238095D02*
X185563390Y-70238095D01*
X185563390Y-70238095D02*
X185372914Y-70285714D01*
X185372914Y-70285714D02*
X185277676Y-70333333D01*
X185277676Y-70333333D02*
X185182438Y-70428571D01*
X185182438Y-70428571D02*
X185134819Y-70571428D01*
X185134819Y-70571428D02*
X185134819Y-70666666D01*
X185134819Y-70666666D02*
X185182438Y-70809523D01*
X185182438Y-70809523D02*
X185230057Y-70857142D01*
X186134819Y-71809523D02*
X186134819Y-71238095D01*
X186134819Y-71523809D02*
X185134819Y-71523809D01*
X185134819Y-71523809D02*
X185277676Y-71428571D01*
X185277676Y-71428571D02*
X185372914Y-71333333D01*
X185372914Y-71333333D02*
X185420533Y-71238095D01*
X185134819Y-72714285D02*
X185134819Y-72238095D01*
X185134819Y-72238095D02*
X185611009Y-72190476D01*
X185611009Y-72190476D02*
X185563390Y-72238095D01*
X185563390Y-72238095D02*
X185515771Y-72333333D01*
X185515771Y-72333333D02*
X185515771Y-72571428D01*
X185515771Y-72571428D02*
X185563390Y-72666666D01*
X185563390Y-72666666D02*
X185611009Y-72714285D01*
X185611009Y-72714285D02*
X185706247Y-72761904D01*
X185706247Y-72761904D02*
X185944342Y-72761904D01*
X185944342Y-72761904D02*
X186039580Y-72714285D01*
X186039580Y-72714285D02*
X186087200Y-72666666D01*
X186087200Y-72666666D02*
X186134819Y-72571428D01*
X186134819Y-72571428D02*
X186134819Y-72333333D01*
X186134819Y-72333333D02*
X186087200Y-72238095D01*
X186087200Y-72238095D02*
X186039580Y-72190476D01*
X181392857Y-78859580D02*
X181440476Y-78907200D01*
X181440476Y-78907200D02*
X181583333Y-78954819D01*
X181583333Y-78954819D02*
X181678571Y-78954819D01*
X181678571Y-78954819D02*
X181821428Y-78907200D01*
X181821428Y-78907200D02*
X181916666Y-78811961D01*
X181916666Y-78811961D02*
X181964285Y-78716723D01*
X181964285Y-78716723D02*
X182011904Y-78526247D01*
X182011904Y-78526247D02*
X182011904Y-78383390D01*
X182011904Y-78383390D02*
X181964285Y-78192914D01*
X181964285Y-78192914D02*
X181916666Y-78097676D01*
X181916666Y-78097676D02*
X181821428Y-78002438D01*
X181821428Y-78002438D02*
X181678571Y-77954819D01*
X181678571Y-77954819D02*
X181583333Y-77954819D01*
X181583333Y-77954819D02*
X181440476Y-78002438D01*
X181440476Y-78002438D02*
X181392857Y-78050057D01*
X180440476Y-78954819D02*
X181011904Y-78954819D01*
X180726190Y-78954819D02*
X180726190Y-77954819D01*
X180726190Y-77954819D02*
X180821428Y-78097676D01*
X180821428Y-78097676D02*
X180916666Y-78192914D01*
X180916666Y-78192914D02*
X181011904Y-78240533D01*
X179583333Y-78288152D02*
X179583333Y-78954819D01*
X179821428Y-77907200D02*
X180059523Y-78621485D01*
X180059523Y-78621485D02*
X179440476Y-78621485D01*
X186609580Y-80216562D02*
X186657200Y-80168943D01*
X186657200Y-80168943D02*
X186704819Y-80026086D01*
X186704819Y-80026086D02*
X186704819Y-79930848D01*
X186704819Y-79930848D02*
X186657200Y-79787991D01*
X186657200Y-79787991D02*
X186561961Y-79692753D01*
X186561961Y-79692753D02*
X186466723Y-79645134D01*
X186466723Y-79645134D02*
X186276247Y-79597515D01*
X186276247Y-79597515D02*
X186133390Y-79597515D01*
X186133390Y-79597515D02*
X185942914Y-79645134D01*
X185942914Y-79645134D02*
X185847676Y-79692753D01*
X185847676Y-79692753D02*
X185752438Y-79787991D01*
X185752438Y-79787991D02*
X185704819Y-79930848D01*
X185704819Y-79930848D02*
X185704819Y-80026086D01*
X185704819Y-80026086D02*
X185752438Y-80168943D01*
X185752438Y-80168943D02*
X185800057Y-80216562D01*
X186704819Y-81168943D02*
X186704819Y-80597515D01*
X186704819Y-80883229D02*
X185704819Y-80883229D01*
X185704819Y-80883229D02*
X185847676Y-80787991D01*
X185847676Y-80787991D02*
X185942914Y-80692753D01*
X185942914Y-80692753D02*
X185990533Y-80597515D01*
X185704819Y-81502277D02*
X185704819Y-82121324D01*
X185704819Y-82121324D02*
X186085771Y-81787991D01*
X186085771Y-81787991D02*
X186085771Y-81930848D01*
X186085771Y-81930848D02*
X186133390Y-82026086D01*
X186133390Y-82026086D02*
X186181009Y-82073705D01*
X186181009Y-82073705D02*
X186276247Y-82121324D01*
X186276247Y-82121324D02*
X186514342Y-82121324D01*
X186514342Y-82121324D02*
X186609580Y-82073705D01*
X186609580Y-82073705D02*
X186657200Y-82026086D01*
X186657200Y-82026086D02*
X186704819Y-81930848D01*
X186704819Y-81930848D02*
X186704819Y-81645134D01*
X186704819Y-81645134D02*
X186657200Y-81549896D01*
X186657200Y-81549896D02*
X186609580Y-81502277D01*
X183142857Y-84789580D02*
X183190476Y-84837200D01*
X183190476Y-84837200D02*
X183333333Y-84884819D01*
X183333333Y-84884819D02*
X183428571Y-84884819D01*
X183428571Y-84884819D02*
X183571428Y-84837200D01*
X183571428Y-84837200D02*
X183666666Y-84741961D01*
X183666666Y-84741961D02*
X183714285Y-84646723D01*
X183714285Y-84646723D02*
X183761904Y-84456247D01*
X183761904Y-84456247D02*
X183761904Y-84313390D01*
X183761904Y-84313390D02*
X183714285Y-84122914D01*
X183714285Y-84122914D02*
X183666666Y-84027676D01*
X183666666Y-84027676D02*
X183571428Y-83932438D01*
X183571428Y-83932438D02*
X183428571Y-83884819D01*
X183428571Y-83884819D02*
X183333333Y-83884819D01*
X183333333Y-83884819D02*
X183190476Y-83932438D01*
X183190476Y-83932438D02*
X183142857Y-83980057D01*
X182190476Y-84884819D02*
X182761904Y-84884819D01*
X182476190Y-84884819D02*
X182476190Y-83884819D01*
X182476190Y-83884819D02*
X182571428Y-84027676D01*
X182571428Y-84027676D02*
X182666666Y-84122914D01*
X182666666Y-84122914D02*
X182761904Y-84170533D01*
X181809523Y-83980057D02*
X181761904Y-83932438D01*
X181761904Y-83932438D02*
X181666666Y-83884819D01*
X181666666Y-83884819D02*
X181428571Y-83884819D01*
X181428571Y-83884819D02*
X181333333Y-83932438D01*
X181333333Y-83932438D02*
X181285714Y-83980057D01*
X181285714Y-83980057D02*
X181238095Y-84075295D01*
X181238095Y-84075295D02*
X181238095Y-84170533D01*
X181238095Y-84170533D02*
X181285714Y-84313390D01*
X181285714Y-84313390D02*
X181857142Y-84884819D01*
X181857142Y-84884819D02*
X181238095Y-84884819D01*
X176392857Y-84789580D02*
X176440476Y-84837200D01*
X176440476Y-84837200D02*
X176583333Y-84884819D01*
X176583333Y-84884819D02*
X176678571Y-84884819D01*
X176678571Y-84884819D02*
X176821428Y-84837200D01*
X176821428Y-84837200D02*
X176916666Y-84741961D01*
X176916666Y-84741961D02*
X176964285Y-84646723D01*
X176964285Y-84646723D02*
X177011904Y-84456247D01*
X177011904Y-84456247D02*
X177011904Y-84313390D01*
X177011904Y-84313390D02*
X176964285Y-84122914D01*
X176964285Y-84122914D02*
X176916666Y-84027676D01*
X176916666Y-84027676D02*
X176821428Y-83932438D01*
X176821428Y-83932438D02*
X176678571Y-83884819D01*
X176678571Y-83884819D02*
X176583333Y-83884819D01*
X176583333Y-83884819D02*
X176440476Y-83932438D01*
X176440476Y-83932438D02*
X176392857Y-83980057D01*
X175440476Y-84884819D02*
X176011904Y-84884819D01*
X175726190Y-84884819D02*
X175726190Y-83884819D01*
X175726190Y-83884819D02*
X175821428Y-84027676D01*
X175821428Y-84027676D02*
X175916666Y-84122914D01*
X175916666Y-84122914D02*
X176011904Y-84170533D01*
X174821428Y-83884819D02*
X174726190Y-83884819D01*
X174726190Y-83884819D02*
X174630952Y-83932438D01*
X174630952Y-83932438D02*
X174583333Y-83980057D01*
X174583333Y-83980057D02*
X174535714Y-84075295D01*
X174535714Y-84075295D02*
X174488095Y-84265771D01*
X174488095Y-84265771D02*
X174488095Y-84503866D01*
X174488095Y-84503866D02*
X174535714Y-84694342D01*
X174535714Y-84694342D02*
X174583333Y-84789580D01*
X174583333Y-84789580D02*
X174630952Y-84837200D01*
X174630952Y-84837200D02*
X174726190Y-84884819D01*
X174726190Y-84884819D02*
X174821428Y-84884819D01*
X174821428Y-84884819D02*
X174916666Y-84837200D01*
X174916666Y-84837200D02*
X174964285Y-84789580D01*
X174964285Y-84789580D02*
X175011904Y-84694342D01*
X175011904Y-84694342D02*
X175059523Y-84503866D01*
X175059523Y-84503866D02*
X175059523Y-84265771D01*
X175059523Y-84265771D02*
X175011904Y-84075295D01*
X175011904Y-84075295D02*
X174964285Y-83980057D01*
X174964285Y-83980057D02*
X174916666Y-83932438D01*
X174916666Y-83932438D02*
X174821428Y-83884819D01*
X172916666Y-84789580D02*
X172964285Y-84837200D01*
X172964285Y-84837200D02*
X173107142Y-84884819D01*
X173107142Y-84884819D02*
X173202380Y-84884819D01*
X173202380Y-84884819D02*
X173345237Y-84837200D01*
X173345237Y-84837200D02*
X173440475Y-84741961D01*
X173440475Y-84741961D02*
X173488094Y-84646723D01*
X173488094Y-84646723D02*
X173535713Y-84456247D01*
X173535713Y-84456247D02*
X173535713Y-84313390D01*
X173535713Y-84313390D02*
X173488094Y-84122914D01*
X173488094Y-84122914D02*
X173440475Y-84027676D01*
X173440475Y-84027676D02*
X173345237Y-83932438D01*
X173345237Y-83932438D02*
X173202380Y-83884819D01*
X173202380Y-83884819D02*
X173107142Y-83884819D01*
X173107142Y-83884819D02*
X172964285Y-83932438D01*
X172964285Y-83932438D02*
X172916666Y-83980057D01*
X172440475Y-84884819D02*
X172249999Y-84884819D01*
X172249999Y-84884819D02*
X172154761Y-84837200D01*
X172154761Y-84837200D02*
X172107142Y-84789580D01*
X172107142Y-84789580D02*
X172011904Y-84646723D01*
X172011904Y-84646723D02*
X171964285Y-84456247D01*
X171964285Y-84456247D02*
X171964285Y-84075295D01*
X171964285Y-84075295D02*
X172011904Y-83980057D01*
X172011904Y-83980057D02*
X172059523Y-83932438D01*
X172059523Y-83932438D02*
X172154761Y-83884819D01*
X172154761Y-83884819D02*
X172345237Y-83884819D01*
X172345237Y-83884819D02*
X172440475Y-83932438D01*
X172440475Y-83932438D02*
X172488094Y-83980057D01*
X172488094Y-83980057D02*
X172535713Y-84075295D01*
X172535713Y-84075295D02*
X172535713Y-84313390D01*
X172535713Y-84313390D02*
X172488094Y-84408628D01*
X172488094Y-84408628D02*
X172440475Y-84456247D01*
X172440475Y-84456247D02*
X172345237Y-84503866D01*
X172345237Y-84503866D02*
X172154761Y-84503866D01*
X172154761Y-84503866D02*
X172059523Y-84456247D01*
X172059523Y-84456247D02*
X172011904Y-84408628D01*
X172011904Y-84408628D02*
X171964285Y-84313390D01*
X164641666Y-84789580D02*
X164689285Y-84837200D01*
X164689285Y-84837200D02*
X164832142Y-84884819D01*
X164832142Y-84884819D02*
X164927380Y-84884819D01*
X164927380Y-84884819D02*
X165070237Y-84837200D01*
X165070237Y-84837200D02*
X165165475Y-84741961D01*
X165165475Y-84741961D02*
X165213094Y-84646723D01*
X165213094Y-84646723D02*
X165260713Y-84456247D01*
X165260713Y-84456247D02*
X165260713Y-84313390D01*
X165260713Y-84313390D02*
X165213094Y-84122914D01*
X165213094Y-84122914D02*
X165165475Y-84027676D01*
X165165475Y-84027676D02*
X165070237Y-83932438D01*
X165070237Y-83932438D02*
X164927380Y-83884819D01*
X164927380Y-83884819D02*
X164832142Y-83884819D01*
X164832142Y-83884819D02*
X164689285Y-83932438D01*
X164689285Y-83932438D02*
X164641666Y-83980057D01*
X164070237Y-84313390D02*
X164165475Y-84265771D01*
X164165475Y-84265771D02*
X164213094Y-84218152D01*
X164213094Y-84218152D02*
X164260713Y-84122914D01*
X164260713Y-84122914D02*
X164260713Y-84075295D01*
X164260713Y-84075295D02*
X164213094Y-83980057D01*
X164213094Y-83980057D02*
X164165475Y-83932438D01*
X164165475Y-83932438D02*
X164070237Y-83884819D01*
X164070237Y-83884819D02*
X163879761Y-83884819D01*
X163879761Y-83884819D02*
X163784523Y-83932438D01*
X163784523Y-83932438D02*
X163736904Y-83980057D01*
X163736904Y-83980057D02*
X163689285Y-84075295D01*
X163689285Y-84075295D02*
X163689285Y-84122914D01*
X163689285Y-84122914D02*
X163736904Y-84218152D01*
X163736904Y-84218152D02*
X163784523Y-84265771D01*
X163784523Y-84265771D02*
X163879761Y-84313390D01*
X163879761Y-84313390D02*
X164070237Y-84313390D01*
X164070237Y-84313390D02*
X164165475Y-84361009D01*
X164165475Y-84361009D02*
X164213094Y-84408628D01*
X164213094Y-84408628D02*
X164260713Y-84503866D01*
X164260713Y-84503866D02*
X164260713Y-84694342D01*
X164260713Y-84694342D02*
X164213094Y-84789580D01*
X164213094Y-84789580D02*
X164165475Y-84837200D01*
X164165475Y-84837200D02*
X164070237Y-84884819D01*
X164070237Y-84884819D02*
X163879761Y-84884819D01*
X163879761Y-84884819D02*
X163784523Y-84837200D01*
X163784523Y-84837200D02*
X163736904Y-84789580D01*
X163736904Y-84789580D02*
X163689285Y-84694342D01*
X163689285Y-84694342D02*
X163689285Y-84503866D01*
X163689285Y-84503866D02*
X163736904Y-84408628D01*
X163736904Y-84408628D02*
X163784523Y-84361009D01*
X163784523Y-84361009D02*
X163879761Y-84313390D01*
X161679580Y-73083333D02*
X161727200Y-73035714D01*
X161727200Y-73035714D02*
X161774819Y-72892857D01*
X161774819Y-72892857D02*
X161774819Y-72797619D01*
X161774819Y-72797619D02*
X161727200Y-72654762D01*
X161727200Y-72654762D02*
X161631961Y-72559524D01*
X161631961Y-72559524D02*
X161536723Y-72511905D01*
X161536723Y-72511905D02*
X161346247Y-72464286D01*
X161346247Y-72464286D02*
X161203390Y-72464286D01*
X161203390Y-72464286D02*
X161012914Y-72511905D01*
X161012914Y-72511905D02*
X160917676Y-72559524D01*
X160917676Y-72559524D02*
X160822438Y-72654762D01*
X160822438Y-72654762D02*
X160774819Y-72797619D01*
X160774819Y-72797619D02*
X160774819Y-72892857D01*
X160774819Y-72892857D02*
X160822438Y-73035714D01*
X160822438Y-73035714D02*
X160870057Y-73083333D01*
X161108152Y-73940476D02*
X161774819Y-73940476D01*
X160727200Y-73702381D02*
X161441485Y-73464286D01*
X161441485Y-73464286D02*
X161441485Y-74083333D01*
X180142857Y-84789580D02*
X180190476Y-84837200D01*
X180190476Y-84837200D02*
X180333333Y-84884819D01*
X180333333Y-84884819D02*
X180428571Y-84884819D01*
X180428571Y-84884819D02*
X180571428Y-84837200D01*
X180571428Y-84837200D02*
X180666666Y-84741961D01*
X180666666Y-84741961D02*
X180714285Y-84646723D01*
X180714285Y-84646723D02*
X180761904Y-84456247D01*
X180761904Y-84456247D02*
X180761904Y-84313390D01*
X180761904Y-84313390D02*
X180714285Y-84122914D01*
X180714285Y-84122914D02*
X180666666Y-84027676D01*
X180666666Y-84027676D02*
X180571428Y-83932438D01*
X180571428Y-83932438D02*
X180428571Y-83884819D01*
X180428571Y-83884819D02*
X180333333Y-83884819D01*
X180333333Y-83884819D02*
X180190476Y-83932438D01*
X180190476Y-83932438D02*
X180142857Y-83980057D01*
X179190476Y-84884819D02*
X179761904Y-84884819D01*
X179476190Y-84884819D02*
X179476190Y-83884819D01*
X179476190Y-83884819D02*
X179571428Y-84027676D01*
X179571428Y-84027676D02*
X179666666Y-84122914D01*
X179666666Y-84122914D02*
X179761904Y-84170533D01*
X178238095Y-84884819D02*
X178809523Y-84884819D01*
X178523809Y-84884819D02*
X178523809Y-83884819D01*
X178523809Y-83884819D02*
X178619047Y-84027676D01*
X178619047Y-84027676D02*
X178714285Y-84122914D01*
X178714285Y-84122914D02*
X178809523Y-84170533D01*
X162859580Y-80333333D02*
X162907200Y-80285714D01*
X162907200Y-80285714D02*
X162954819Y-80142857D01*
X162954819Y-80142857D02*
X162954819Y-80047619D01*
X162954819Y-80047619D02*
X162907200Y-79904762D01*
X162907200Y-79904762D02*
X162811961Y-79809524D01*
X162811961Y-79809524D02*
X162716723Y-79761905D01*
X162716723Y-79761905D02*
X162526247Y-79714286D01*
X162526247Y-79714286D02*
X162383390Y-79714286D01*
X162383390Y-79714286D02*
X162192914Y-79761905D01*
X162192914Y-79761905D02*
X162097676Y-79809524D01*
X162097676Y-79809524D02*
X162002438Y-79904762D01*
X162002438Y-79904762D02*
X161954819Y-80047619D01*
X161954819Y-80047619D02*
X161954819Y-80142857D01*
X161954819Y-80142857D02*
X162002438Y-80285714D01*
X162002438Y-80285714D02*
X162050057Y-80333333D01*
X161954819Y-81238095D02*
X161954819Y-80761905D01*
X161954819Y-80761905D02*
X162431009Y-80714286D01*
X162431009Y-80714286D02*
X162383390Y-80761905D01*
X162383390Y-80761905D02*
X162335771Y-80857143D01*
X162335771Y-80857143D02*
X162335771Y-81095238D01*
X162335771Y-81095238D02*
X162383390Y-81190476D01*
X162383390Y-81190476D02*
X162431009Y-81238095D01*
X162431009Y-81238095D02*
X162526247Y-81285714D01*
X162526247Y-81285714D02*
X162764342Y-81285714D01*
X162764342Y-81285714D02*
X162859580Y-81238095D01*
X162859580Y-81238095D02*
X162907200Y-81190476D01*
X162907200Y-81190476D02*
X162954819Y-81095238D01*
X162954819Y-81095238D02*
X162954819Y-80857143D01*
X162954819Y-80857143D02*
X162907200Y-80761905D01*
X162907200Y-80761905D02*
X162859580Y-80714286D01*
X167359580Y-80333333D02*
X167407200Y-80285714D01*
X167407200Y-80285714D02*
X167454819Y-80142857D01*
X167454819Y-80142857D02*
X167454819Y-80047619D01*
X167454819Y-80047619D02*
X167407200Y-79904762D01*
X167407200Y-79904762D02*
X167311961Y-79809524D01*
X167311961Y-79809524D02*
X167216723Y-79761905D01*
X167216723Y-79761905D02*
X167026247Y-79714286D01*
X167026247Y-79714286D02*
X166883390Y-79714286D01*
X166883390Y-79714286D02*
X166692914Y-79761905D01*
X166692914Y-79761905D02*
X166597676Y-79809524D01*
X166597676Y-79809524D02*
X166502438Y-79904762D01*
X166502438Y-79904762D02*
X166454819Y-80047619D01*
X166454819Y-80047619D02*
X166454819Y-80142857D01*
X166454819Y-80142857D02*
X166502438Y-80285714D01*
X166502438Y-80285714D02*
X166550057Y-80333333D01*
X166454819Y-81190476D02*
X166454819Y-81000000D01*
X166454819Y-81000000D02*
X166502438Y-80904762D01*
X166502438Y-80904762D02*
X166550057Y-80857143D01*
X166550057Y-80857143D02*
X166692914Y-80761905D01*
X166692914Y-80761905D02*
X166883390Y-80714286D01*
X166883390Y-80714286D02*
X167264342Y-80714286D01*
X167264342Y-80714286D02*
X167359580Y-80761905D01*
X167359580Y-80761905D02*
X167407200Y-80809524D01*
X167407200Y-80809524D02*
X167454819Y-80904762D01*
X167454819Y-80904762D02*
X167454819Y-81095238D01*
X167454819Y-81095238D02*
X167407200Y-81190476D01*
X167407200Y-81190476D02*
X167359580Y-81238095D01*
X167359580Y-81238095D02*
X167264342Y-81285714D01*
X167264342Y-81285714D02*
X167026247Y-81285714D01*
X167026247Y-81285714D02*
X166931009Y-81238095D01*
X166931009Y-81238095D02*
X166883390Y-81190476D01*
X166883390Y-81190476D02*
X166835771Y-81095238D01*
X166835771Y-81095238D02*
X166835771Y-80904762D01*
X166835771Y-80904762D02*
X166883390Y-80809524D01*
X166883390Y-80809524D02*
X166931009Y-80761905D01*
X166931009Y-80761905D02*
X167026247Y-80714286D01*
X180667857Y-70289580D02*
X180715476Y-70337200D01*
X180715476Y-70337200D02*
X180858333Y-70384819D01*
X180858333Y-70384819D02*
X180953571Y-70384819D01*
X180953571Y-70384819D02*
X181096428Y-70337200D01*
X181096428Y-70337200D02*
X181191666Y-70241961D01*
X181191666Y-70241961D02*
X181239285Y-70146723D01*
X181239285Y-70146723D02*
X181286904Y-69956247D01*
X181286904Y-69956247D02*
X181286904Y-69813390D01*
X181286904Y-69813390D02*
X181239285Y-69622914D01*
X181239285Y-69622914D02*
X181191666Y-69527676D01*
X181191666Y-69527676D02*
X181096428Y-69432438D01*
X181096428Y-69432438D02*
X180953571Y-69384819D01*
X180953571Y-69384819D02*
X180858333Y-69384819D01*
X180858333Y-69384819D02*
X180715476Y-69432438D01*
X180715476Y-69432438D02*
X180667857Y-69480057D01*
X179715476Y-70384819D02*
X180286904Y-70384819D01*
X180001190Y-70384819D02*
X180001190Y-69384819D01*
X180001190Y-69384819D02*
X180096428Y-69527676D01*
X180096428Y-69527676D02*
X180191666Y-69622914D01*
X180191666Y-69622914D02*
X180286904Y-69670533D01*
X179144047Y-69813390D02*
X179239285Y-69765771D01*
X179239285Y-69765771D02*
X179286904Y-69718152D01*
X179286904Y-69718152D02*
X179334523Y-69622914D01*
X179334523Y-69622914D02*
X179334523Y-69575295D01*
X179334523Y-69575295D02*
X179286904Y-69480057D01*
X179286904Y-69480057D02*
X179239285Y-69432438D01*
X179239285Y-69432438D02*
X179144047Y-69384819D01*
X179144047Y-69384819D02*
X178953571Y-69384819D01*
X178953571Y-69384819D02*
X178858333Y-69432438D01*
X178858333Y-69432438D02*
X178810714Y-69480057D01*
X178810714Y-69480057D02*
X178763095Y-69575295D01*
X178763095Y-69575295D02*
X178763095Y-69622914D01*
X178763095Y-69622914D02*
X178810714Y-69718152D01*
X178810714Y-69718152D02*
X178858333Y-69765771D01*
X178858333Y-69765771D02*
X178953571Y-69813390D01*
X178953571Y-69813390D02*
X179144047Y-69813390D01*
X179144047Y-69813390D02*
X179239285Y-69861009D01*
X179239285Y-69861009D02*
X179286904Y-69908628D01*
X179286904Y-69908628D02*
X179334523Y-70003866D01*
X179334523Y-70003866D02*
X179334523Y-70194342D01*
X179334523Y-70194342D02*
X179286904Y-70289580D01*
X179286904Y-70289580D02*
X179239285Y-70337200D01*
X179239285Y-70337200D02*
X179144047Y-70384819D01*
X179144047Y-70384819D02*
X178953571Y-70384819D01*
X178953571Y-70384819D02*
X178858333Y-70337200D01*
X178858333Y-70337200D02*
X178810714Y-70289580D01*
X178810714Y-70289580D02*
X178763095Y-70194342D01*
X178763095Y-70194342D02*
X178763095Y-70003866D01*
X178763095Y-70003866D02*
X178810714Y-69908628D01*
X178810714Y-69908628D02*
X178858333Y-69861009D01*
X178858333Y-69861009D02*
X178953571Y-69813390D01*
X172454819Y-60738095D02*
X173264342Y-60738095D01*
X173264342Y-60738095D02*
X173359580Y-60785714D01*
X173359580Y-60785714D02*
X173407200Y-60833333D01*
X173407200Y-60833333D02*
X173454819Y-60928571D01*
X173454819Y-60928571D02*
X173454819Y-61119047D01*
X173454819Y-61119047D02*
X173407200Y-61214285D01*
X173407200Y-61214285D02*
X173359580Y-61261904D01*
X173359580Y-61261904D02*
X173264342Y-61309523D01*
X173264342Y-61309523D02*
X172454819Y-61309523D01*
X172454819Y-62261904D02*
X172454819Y-61785714D01*
X172454819Y-61785714D02*
X172931009Y-61738095D01*
X172931009Y-61738095D02*
X172883390Y-61785714D01*
X172883390Y-61785714D02*
X172835771Y-61880952D01*
X172835771Y-61880952D02*
X172835771Y-62119047D01*
X172835771Y-62119047D02*
X172883390Y-62214285D01*
X172883390Y-62214285D02*
X172931009Y-62261904D01*
X172931009Y-62261904D02*
X173026247Y-62309523D01*
X173026247Y-62309523D02*
X173264342Y-62309523D01*
X173264342Y-62309523D02*
X173359580Y-62261904D01*
X173359580Y-62261904D02*
X173407200Y-62214285D01*
X173407200Y-62214285D02*
X173454819Y-62119047D01*
X173454819Y-62119047D02*
X173454819Y-61880952D01*
X173454819Y-61880952D02*
X173407200Y-61785714D01*
X173407200Y-61785714D02*
X173359580Y-61738095D01*
X185158333Y-57479819D02*
X185158333Y-58194104D01*
X185158333Y-58194104D02*
X185205952Y-58336961D01*
X185205952Y-58336961D02*
X185301190Y-58432200D01*
X185301190Y-58432200D02*
X185444047Y-58479819D01*
X185444047Y-58479819D02*
X185539285Y-58479819D01*
X184729761Y-57575057D02*
X184682142Y-57527438D01*
X184682142Y-57527438D02*
X184586904Y-57479819D01*
X184586904Y-57479819D02*
X184348809Y-57479819D01*
X184348809Y-57479819D02*
X184253571Y-57527438D01*
X184253571Y-57527438D02*
X184205952Y-57575057D01*
X184205952Y-57575057D02*
X184158333Y-57670295D01*
X184158333Y-57670295D02*
X184158333Y-57765533D01*
X184158333Y-57765533D02*
X184205952Y-57908390D01*
X184205952Y-57908390D02*
X184777380Y-58479819D01*
X184777380Y-58479819D02*
X184158333Y-58479819D01*
X191738094Y-78104819D02*
X191738094Y-78914342D01*
X191738094Y-78914342D02*
X191690475Y-79009580D01*
X191690475Y-79009580D02*
X191642856Y-79057200D01*
X191642856Y-79057200D02*
X191547618Y-79104819D01*
X191547618Y-79104819D02*
X191357142Y-79104819D01*
X191357142Y-79104819D02*
X191261904Y-79057200D01*
X191261904Y-79057200D02*
X191214285Y-79009580D01*
X191214285Y-79009580D02*
X191166666Y-78914342D01*
X191166666Y-78914342D02*
X191166666Y-78104819D01*
X190738094Y-78200057D02*
X190690475Y-78152438D01*
X190690475Y-78152438D02*
X190595237Y-78104819D01*
X190595237Y-78104819D02*
X190357142Y-78104819D01*
X190357142Y-78104819D02*
X190261904Y-78152438D01*
X190261904Y-78152438D02*
X190214285Y-78200057D01*
X190214285Y-78200057D02*
X190166666Y-78295295D01*
X190166666Y-78295295D02*
X190166666Y-78390533D01*
X190166666Y-78390533D02*
X190214285Y-78533390D01*
X190214285Y-78533390D02*
X190785713Y-79104819D01*
X190785713Y-79104819D02*
X190166666Y-79104819D01*
X189214285Y-79104819D02*
X189785713Y-79104819D01*
X189499999Y-79104819D02*
X189499999Y-78104819D01*
X189499999Y-78104819D02*
X189595237Y-78247676D01*
X189595237Y-78247676D02*
X189690475Y-78342914D01*
X189690475Y-78342914D02*
X189785713Y-78390533D01*
X187142857Y-68859580D02*
X187190476Y-68907200D01*
X187190476Y-68907200D02*
X187333333Y-68954819D01*
X187333333Y-68954819D02*
X187428571Y-68954819D01*
X187428571Y-68954819D02*
X187571428Y-68907200D01*
X187571428Y-68907200D02*
X187666666Y-68811961D01*
X187666666Y-68811961D02*
X187714285Y-68716723D01*
X187714285Y-68716723D02*
X187761904Y-68526247D01*
X187761904Y-68526247D02*
X187761904Y-68383390D01*
X187761904Y-68383390D02*
X187714285Y-68192914D01*
X187714285Y-68192914D02*
X187666666Y-68097676D01*
X187666666Y-68097676D02*
X187571428Y-68002438D01*
X187571428Y-68002438D02*
X187428571Y-67954819D01*
X187428571Y-67954819D02*
X187333333Y-67954819D01*
X187333333Y-67954819D02*
X187190476Y-68002438D01*
X187190476Y-68002438D02*
X187142857Y-68050057D01*
X186190476Y-68954819D02*
X186761904Y-68954819D01*
X186476190Y-68954819D02*
X186476190Y-67954819D01*
X186476190Y-67954819D02*
X186571428Y-68097676D01*
X186571428Y-68097676D02*
X186666666Y-68192914D01*
X186666666Y-68192914D02*
X186761904Y-68240533D01*
X185857142Y-67954819D02*
X185190476Y-67954819D01*
X185190476Y-67954819D02*
X185619047Y-68954819D01*
X161859580Y-65833333D02*
X161907200Y-65785714D01*
X161907200Y-65785714D02*
X161954819Y-65642857D01*
X161954819Y-65642857D02*
X161954819Y-65547619D01*
X161954819Y-65547619D02*
X161907200Y-65404762D01*
X161907200Y-65404762D02*
X161811961Y-65309524D01*
X161811961Y-65309524D02*
X161716723Y-65261905D01*
X161716723Y-65261905D02*
X161526247Y-65214286D01*
X161526247Y-65214286D02*
X161383390Y-65214286D01*
X161383390Y-65214286D02*
X161192914Y-65261905D01*
X161192914Y-65261905D02*
X161097676Y-65309524D01*
X161097676Y-65309524D02*
X161002438Y-65404762D01*
X161002438Y-65404762D02*
X160954819Y-65547619D01*
X160954819Y-65547619D02*
X160954819Y-65642857D01*
X160954819Y-65642857D02*
X161002438Y-65785714D01*
X161002438Y-65785714D02*
X161050057Y-65833333D01*
X161050057Y-66214286D02*
X161002438Y-66261905D01*
X161002438Y-66261905D02*
X160954819Y-66357143D01*
X160954819Y-66357143D02*
X160954819Y-66595238D01*
X160954819Y-66595238D02*
X161002438Y-66690476D01*
X161002438Y-66690476D02*
X161050057Y-66738095D01*
X161050057Y-66738095D02*
X161145295Y-66785714D01*
X161145295Y-66785714D02*
X161240533Y-66785714D01*
X161240533Y-66785714D02*
X161383390Y-66738095D01*
X161383390Y-66738095D02*
X161954819Y-66166667D01*
X161954819Y-66166667D02*
X161954819Y-66785714D01*
X176142857Y-57139580D02*
X176190476Y-57187200D01*
X176190476Y-57187200D02*
X176333333Y-57234819D01*
X176333333Y-57234819D02*
X176428571Y-57234819D01*
X176428571Y-57234819D02*
X176571428Y-57187200D01*
X176571428Y-57187200D02*
X176666666Y-57091961D01*
X176666666Y-57091961D02*
X176714285Y-56996723D01*
X176714285Y-56996723D02*
X176761904Y-56806247D01*
X176761904Y-56806247D02*
X176761904Y-56663390D01*
X176761904Y-56663390D02*
X176714285Y-56472914D01*
X176714285Y-56472914D02*
X176666666Y-56377676D01*
X176666666Y-56377676D02*
X176571428Y-56282438D01*
X176571428Y-56282438D02*
X176428571Y-56234819D01*
X176428571Y-56234819D02*
X176333333Y-56234819D01*
X176333333Y-56234819D02*
X176190476Y-56282438D01*
X176190476Y-56282438D02*
X176142857Y-56330057D01*
X175190476Y-57234819D02*
X175761904Y-57234819D01*
X175476190Y-57234819D02*
X175476190Y-56234819D01*
X175476190Y-56234819D02*
X175571428Y-56377676D01*
X175571428Y-56377676D02*
X175666666Y-56472914D01*
X175666666Y-56472914D02*
X175761904Y-56520533D01*
X174714285Y-57234819D02*
X174523809Y-57234819D01*
X174523809Y-57234819D02*
X174428571Y-57187200D01*
X174428571Y-57187200D02*
X174380952Y-57139580D01*
X174380952Y-57139580D02*
X174285714Y-56996723D01*
X174285714Y-56996723D02*
X174238095Y-56806247D01*
X174238095Y-56806247D02*
X174238095Y-56425295D01*
X174238095Y-56425295D02*
X174285714Y-56330057D01*
X174285714Y-56330057D02*
X174333333Y-56282438D01*
X174333333Y-56282438D02*
X174428571Y-56234819D01*
X174428571Y-56234819D02*
X174619047Y-56234819D01*
X174619047Y-56234819D02*
X174714285Y-56282438D01*
X174714285Y-56282438D02*
X174761904Y-56330057D01*
X174761904Y-56330057D02*
X174809523Y-56425295D01*
X174809523Y-56425295D02*
X174809523Y-56663390D01*
X174809523Y-56663390D02*
X174761904Y-56758628D01*
X174761904Y-56758628D02*
X174714285Y-56806247D01*
X174714285Y-56806247D02*
X174619047Y-56853866D01*
X174619047Y-56853866D02*
X174428571Y-56853866D01*
X174428571Y-56853866D02*
X174333333Y-56806247D01*
X174333333Y-56806247D02*
X174285714Y-56758628D01*
X174285714Y-56758628D02*
X174238095Y-56663390D01*
X161892857Y-60039580D02*
X161940476Y-60087200D01*
X161940476Y-60087200D02*
X162083333Y-60134819D01*
X162083333Y-60134819D02*
X162178571Y-60134819D01*
X162178571Y-60134819D02*
X162321428Y-60087200D01*
X162321428Y-60087200D02*
X162416666Y-59991961D01*
X162416666Y-59991961D02*
X162464285Y-59896723D01*
X162464285Y-59896723D02*
X162511904Y-59706247D01*
X162511904Y-59706247D02*
X162511904Y-59563390D01*
X162511904Y-59563390D02*
X162464285Y-59372914D01*
X162464285Y-59372914D02*
X162416666Y-59277676D01*
X162416666Y-59277676D02*
X162321428Y-59182438D01*
X162321428Y-59182438D02*
X162178571Y-59134819D01*
X162178571Y-59134819D02*
X162083333Y-59134819D01*
X162083333Y-59134819D02*
X161940476Y-59182438D01*
X161940476Y-59182438D02*
X161892857Y-59230057D01*
X161511904Y-59230057D02*
X161464285Y-59182438D01*
X161464285Y-59182438D02*
X161369047Y-59134819D01*
X161369047Y-59134819D02*
X161130952Y-59134819D01*
X161130952Y-59134819D02*
X161035714Y-59182438D01*
X161035714Y-59182438D02*
X160988095Y-59230057D01*
X160988095Y-59230057D02*
X160940476Y-59325295D01*
X160940476Y-59325295D02*
X160940476Y-59420533D01*
X160940476Y-59420533D02*
X160988095Y-59563390D01*
X160988095Y-59563390D02*
X161559523Y-60134819D01*
X161559523Y-60134819D02*
X160940476Y-60134819D01*
X160607142Y-59134819D02*
X159988095Y-59134819D01*
X159988095Y-59134819D02*
X160321428Y-59515771D01*
X160321428Y-59515771D02*
X160178571Y-59515771D01*
X160178571Y-59515771D02*
X160083333Y-59563390D01*
X160083333Y-59563390D02*
X160035714Y-59611009D01*
X160035714Y-59611009D02*
X159988095Y-59706247D01*
X159988095Y-59706247D02*
X159988095Y-59944342D01*
X159988095Y-59944342D02*
X160035714Y-60039580D01*
X160035714Y-60039580D02*
X160083333Y-60087200D01*
X160083333Y-60087200D02*
X160178571Y-60134819D01*
X160178571Y-60134819D02*
X160464285Y-60134819D01*
X160464285Y-60134819D02*
X160559523Y-60087200D01*
X160559523Y-60087200D02*
X160607142Y-60039580D01*
D13*
G36*
X156690500Y-69519500D02*
G01*
X156309499Y-69519500D01*
X156309499Y-69265500D01*
X156690500Y-69265500D01*
X156690500Y-69519500D01*
G37*
D14*
X154878400Y-72745300D02*
X154878400Y-71945664D01*
X154878400Y-69494100D02*
X155192302Y-69494100D01*
X157621600Y-69494100D02*
X157621600Y-70293736D01*
X157621600Y-72745300D02*
X157307698Y-72745300D01*
X155192302Y-72745300D02*
X154878400Y-72745300D01*
X154878400Y-70293736D02*
X154878400Y-69494100D01*
X157307698Y-69494100D02*
X157621600Y-69494100D01*
X157621600Y-71945664D02*
X157621600Y-72745300D01*
D15*
X194165580Y-58760000D02*
X193884420Y-58760000D01*
X194165580Y-57740000D02*
X193884420Y-57740000D01*
X194237258Y-65772500D02*
X193762742Y-65772500D01*
X194237258Y-64727500D02*
X193762742Y-64727500D01*
X193762742Y-67272500D02*
X194237258Y-67272500D01*
X193762742Y-66227500D02*
X194237258Y-66227500D01*
D16*
X164250000Y-62250000D02*
X164250000Y-62805000D01*
X164250000Y-62250000D02*
X164305000Y-62250000D01*
X164250000Y-64695000D02*
X164250000Y-65250000D01*
X164250000Y-65250000D02*
X164305000Y-65250000D01*
X166750000Y-62250000D02*
X166695000Y-62250000D01*
X166750000Y-62805000D02*
X166750000Y-62250000D01*
X166750000Y-65250000D02*
X166695000Y-65250000D01*
X166750000Y-65250000D02*
X166750000Y-64695000D01*
D11*
X163600000Y-62250000D02*
G75*
G02*
X163400000Y-62250000I-100000J0D01*
G01*
X163400000Y-62250000D02*
G75*
G02*
X163600000Y-62250000I100000J0D01*
G01*
D14*
X198647411Y-95782438D02*
G75*
G02*
X198444211Y-95782438I-101600J0D01*
G01*
X198444211Y-95782438D02*
G75*
G02*
X198647411Y-95782438I101600J0D01*
G01*
X154319162Y-98545811D02*
G75*
G02*
X154115962Y-98545811I-101600J0D01*
G01*
X154115962Y-98545811D02*
G75*
G02*
X154319162Y-98545811I101600J0D01*
G01*
X151565306Y-54286293D02*
G75*
G02*
X151362106Y-54286293I-101600J0D01*
G01*
X151362106Y-54286293D02*
G75*
G02*
X151565306Y-54286293I101600J0D01*
G01*
X195874521Y-51454189D02*
G75*
G02*
X195671321Y-51454189I-101600J0D01*
G01*
X195671321Y-51454189D02*
G75*
G02*
X195874521Y-51454189I101600J0D01*
G01*
D15*
X175740000Y-64609420D02*
X175740000Y-64890580D01*
X176760000Y-64609420D02*
X176760000Y-64890580D01*
X164390580Y-57690000D02*
X164109420Y-57690000D01*
X164390580Y-58710000D02*
X164109420Y-58710000D01*
X165737258Y-76977500D02*
X165262742Y-76977500D01*
X165737258Y-78022500D02*
X165262742Y-78022500D01*
X173140580Y-66760000D02*
X172859420Y-66760000D01*
X173140580Y-65740000D02*
X172859420Y-65740000D01*
X171010000Y-64390580D02*
X171010000Y-64109420D01*
X169990000Y-64390580D02*
X169990000Y-64109420D01*
X167140580Y-66760000D02*
X166859420Y-66760000D01*
X167140580Y-65740000D02*
X166859420Y-65740000D01*
X168260000Y-63640580D02*
X168260000Y-63359420D01*
X167240000Y-63640580D02*
X167240000Y-63359420D01*
X156501580Y-69129700D02*
X156220420Y-69129700D01*
X156501580Y-68109700D02*
X156220420Y-68109700D01*
X154621000Y-70979120D02*
X154621000Y-71260280D01*
X153601000Y-70979120D02*
X153601000Y-71260280D01*
X153220420Y-69129700D02*
X153501580Y-69129700D01*
X153220420Y-68109700D02*
X153501580Y-68109700D01*
X165359420Y-76510000D02*
X165640580Y-76510000D01*
X165359420Y-75490000D02*
X165640580Y-75490000D01*
X171140580Y-62010000D02*
X170859420Y-62010000D01*
X171140580Y-60990000D02*
X170859420Y-60990000D01*
X175665580Y-62010000D02*
X175384420Y-62010000D01*
X175665580Y-60990000D02*
X175384420Y-60990000D01*
X184760000Y-71640580D02*
X184760000Y-71359420D01*
X183740000Y-71640580D02*
X183740000Y-71359420D01*
X183609420Y-79010000D02*
X183890580Y-79010000D01*
X183609420Y-77990000D02*
X183890580Y-77990000D01*
X185260000Y-80859420D02*
X185260000Y-81140580D01*
X184240000Y-80859420D02*
X184240000Y-81140580D01*
X182359420Y-83510000D02*
X182640580Y-83510000D01*
X182359420Y-82490000D02*
X182640580Y-82490000D01*
X175609420Y-83510000D02*
X175890580Y-83510000D01*
X175609420Y-82490000D02*
X175890580Y-82490000D01*
X172609420Y-83510000D02*
X172890580Y-83510000D01*
X172609420Y-82490000D02*
X172890580Y-82490000D01*
X164334420Y-83510000D02*
X164615580Y-83510000D01*
X164334420Y-82490000D02*
X164615580Y-82490000D01*
X163260000Y-73109420D02*
X163260000Y-73390580D01*
X162240000Y-73109420D02*
X162240000Y-73390580D01*
X179359420Y-83510000D02*
X179640580Y-83510000D01*
X179359420Y-82490000D02*
X179640580Y-82490000D01*
X164510000Y-80359420D02*
X164510000Y-80640580D01*
X163490000Y-80359420D02*
X163490000Y-80640580D01*
X166010000Y-80359420D02*
X166010000Y-80640580D01*
X164990000Y-80359420D02*
X164990000Y-80640580D01*
X179884420Y-67990000D02*
X180165580Y-67990000D01*
X179884420Y-69010000D02*
X180165580Y-69010000D01*
D16*
X172000000Y-62530000D02*
X174000000Y-62530000D01*
X172000000Y-65470000D02*
X174000000Y-65470000D01*
D17*
X174530000Y-65100000D02*
G75*
G02*
X174370000Y-65100000I-80000J0D01*
G01*
X174370000Y-65100000D02*
G75*
G02*
X174530000Y-65100000I80000J0D01*
G01*
D16*
X177900000Y-53700000D02*
X177900000Y-55300000D01*
X177900000Y-63220000D02*
X177900000Y-66700000D01*
X177900000Y-66700000D02*
X178280000Y-66700000D01*
X178820000Y-50550000D02*
X190530000Y-50550000D01*
X189970000Y-66700000D02*
X191750000Y-66700000D01*
X191750000Y-66700000D02*
X191750000Y-52770000D01*
D11*
X188425000Y-68200000D02*
G75*
G02*
X188225000Y-68200000I-100000J0D01*
G01*
X188225000Y-68200000D02*
G75*
G02*
X188425000Y-68200000I100000J0D01*
G01*
D15*
X189500000Y-74690000D02*
X188700000Y-74690000D01*
X189500000Y-74690000D02*
X190300000Y-74690000D01*
X189500000Y-77810000D02*
X188700000Y-77810000D01*
X189500000Y-77810000D02*
X190300000Y-77810000D01*
X188440000Y-78090000D02*
X187960000Y-78090000D01*
X188200000Y-77760000D01*
X188440000Y-78090000D01*
G36*
X188440000Y-78090000D02*
G01*
X187960000Y-78090000D01*
X188200000Y-77760000D01*
X188440000Y-78090000D01*
G37*
X183359420Y-67990000D02*
X183640580Y-67990000D01*
X183359420Y-69010000D02*
X183640580Y-69010000D01*
X163510000Y-66140580D02*
X163510000Y-65859420D01*
X162490000Y-66140580D02*
X162490000Y-65859420D01*
X175640580Y-57740000D02*
X175359420Y-57740000D01*
X175640580Y-58760000D02*
X175359420Y-58760000D01*
X161109420Y-58760000D02*
X161390580Y-58760000D01*
X161109420Y-57740000D02*
X161390580Y-57740000D01*
%LPC*%
D18*
X164875000Y-63425000D02*
X164300000Y-63425000D01*
X164300000Y-63075000D01*
X164875000Y-63075000D01*
X164875000Y-63425000D01*
G36*
X164875000Y-63425000D02*
G01*
X164300000Y-63425000D01*
X164300000Y-63075000D01*
X164875000Y-63075000D01*
X164875000Y-63425000D01*
G37*
X164875000Y-63925000D02*
X164300000Y-63925000D01*
X164300000Y-63575000D01*
X164875000Y-63575000D01*
X164875000Y-63925000D01*
G36*
X164875000Y-63925000D02*
G01*
X164300000Y-63925000D01*
X164300000Y-63575000D01*
X164875000Y-63575000D01*
X164875000Y-63925000D01*
G37*
X164875000Y-64425000D02*
X164300000Y-64425000D01*
X164300000Y-64075000D01*
X164875000Y-64075000D01*
X164875000Y-64425000D01*
G36*
X164875000Y-64425000D02*
G01*
X164300000Y-64425000D01*
X164300000Y-64075000D01*
X164875000Y-64075000D01*
X164875000Y-64425000D01*
G37*
X164925000Y-62875000D02*
X164575000Y-62875000D01*
X164575000Y-62300000D01*
X164925000Y-62300000D01*
X164925000Y-62875000D01*
G36*
X164925000Y-62875000D02*
G01*
X164575000Y-62875000D01*
X164575000Y-62300000D01*
X164925000Y-62300000D01*
X164925000Y-62875000D01*
G37*
X164925000Y-65200000D02*
X164575000Y-65200000D01*
X164575000Y-64625000D01*
X164925000Y-64625000D01*
X164925000Y-65200000D01*
G36*
X164925000Y-65200000D02*
G01*
X164575000Y-65200000D01*
X164575000Y-64625000D01*
X164925000Y-64625000D01*
X164925000Y-65200000D01*
G37*
X165425000Y-62875000D02*
X165075000Y-62875000D01*
X165075000Y-62300000D01*
X165425000Y-62300000D01*
X165425000Y-62875000D01*
G36*
X165425000Y-62875000D02*
G01*
X165075000Y-62875000D01*
X165075000Y-62300000D01*
X165425000Y-62300000D01*
X165425000Y-62875000D01*
G37*
X165425000Y-65200000D02*
X165075000Y-65200000D01*
X165075000Y-64625000D01*
X165425000Y-64625000D01*
X165425000Y-65200000D01*
G36*
X165425000Y-65200000D02*
G01*
X165075000Y-65200000D01*
X165075000Y-64625000D01*
X165425000Y-64625000D01*
X165425000Y-65200000D01*
G37*
X165925000Y-62875000D02*
X165575000Y-62875000D01*
X165575000Y-62300000D01*
X165925000Y-62300000D01*
X165925000Y-62875000D01*
G36*
X165925000Y-62875000D02*
G01*
X165575000Y-62875000D01*
X165575000Y-62300000D01*
X165925000Y-62300000D01*
X165925000Y-62875000D01*
G37*
X165925000Y-65200000D02*
X165575000Y-65200000D01*
X165575000Y-64625000D01*
X165925000Y-64625000D01*
X165925000Y-65200000D01*
G36*
X165925000Y-65200000D02*
G01*
X165575000Y-65200000D01*
X165575000Y-64625000D01*
X165925000Y-64625000D01*
X165925000Y-65200000D01*
G37*
X166425000Y-62875000D02*
X166075000Y-62875000D01*
X166075000Y-62300000D01*
X166425000Y-62300000D01*
X166425000Y-62875000D01*
G36*
X166425000Y-62875000D02*
G01*
X166075000Y-62875000D01*
X166075000Y-62300000D01*
X166425000Y-62300000D01*
X166425000Y-62875000D01*
G37*
X166425000Y-65200000D02*
X166075000Y-65200000D01*
X166075000Y-64625000D01*
X166425000Y-64625000D01*
X166425000Y-65200000D01*
G36*
X166425000Y-65200000D02*
G01*
X166075000Y-65200000D01*
X166075000Y-64625000D01*
X166425000Y-64625000D01*
X166425000Y-65200000D01*
G37*
X166700000Y-63425000D02*
X166125000Y-63425000D01*
X166125000Y-63075000D01*
X166700000Y-63075000D01*
X166700000Y-63425000D01*
G36*
X166700000Y-63425000D02*
G01*
X166125000Y-63425000D01*
X166125000Y-63075000D01*
X166700000Y-63075000D01*
X166700000Y-63425000D01*
G37*
X166700000Y-63925000D02*
X166125000Y-63925000D01*
X166125000Y-63575000D01*
X166700000Y-63575000D01*
X166700000Y-63925000D01*
G36*
X166700000Y-63925000D02*
G01*
X166125000Y-63925000D01*
X166125000Y-63575000D01*
X166700000Y-63575000D01*
X166700000Y-63925000D01*
G37*
X166700000Y-64425000D02*
X166125000Y-64425000D01*
X166125000Y-64075000D01*
X166700000Y-64075000D01*
X166700000Y-64425000D01*
G36*
X166700000Y-64425000D02*
G01*
X166125000Y-64425000D01*
X166125000Y-64075000D01*
X166700000Y-64075000D01*
X166700000Y-64425000D01*
G37*
D19*
X157000001Y-72250000D03*
X156500000Y-72250000D03*
X156000000Y-72250000D03*
X155499999Y-72250000D03*
D20*
X155361000Y-71619699D03*
X155361000Y-71119700D03*
X155361000Y-70619701D03*
D19*
X155499999Y-69989400D03*
X156000000Y-69989400D03*
X156500000Y-69989400D03*
X157000001Y-69989400D03*
D20*
X157139000Y-70619701D03*
X157139000Y-71119700D03*
X157139000Y-71619699D03*
D21*
X193250000Y-58250000D03*
X194800000Y-58250000D03*
D22*
X197325000Y-71680000D03*
D23*
X193145000Y-71680000D03*
D22*
X197325000Y-80320000D03*
D23*
X193145000Y-80320000D03*
D24*
X193645000Y-73110000D03*
X193645000Y-78890000D03*
D25*
X198368500Y-61095000D03*
X198368500Y-62365000D03*
X198368500Y-63635000D03*
X198368500Y-64905000D03*
D26*
X197213500Y-60460000D03*
X197213500Y-61730000D03*
X197213500Y-63000000D03*
X197213500Y-64270000D03*
X197213500Y-65540000D03*
D27*
X193175000Y-65250000D03*
X194825000Y-65250000D03*
D28*
X194825000Y-66750000D03*
X193175000Y-66750000D03*
D29*
X196759517Y-97568731D03*
X197431269Y-98240483D03*
X198240483Y-97431269D03*
X197568731Y-96759517D03*
D30*
X152431269Y-96759517D03*
X151759517Y-97431269D03*
X152568731Y-98240483D03*
X153240483Y-97568731D03*
D31*
X152440786Y-53309214D03*
X151769034Y-52637462D03*
X152578248Y-51828248D03*
X153250000Y-52500000D03*
D32*
X197559214Y-53240483D03*
X198230966Y-52568731D03*
X197421752Y-51759517D03*
X196750000Y-52431269D03*
D33*
X176250000Y-63975000D03*
X176250000Y-65525000D03*
D21*
X165025000Y-58200000D03*
X163475000Y-58200000D03*
D27*
X166325000Y-77500000D03*
X164675000Y-77500000D03*
D21*
X172225000Y-66250000D03*
X173775000Y-66250000D03*
D34*
X170500000Y-63475000D03*
X170500000Y-65025000D03*
D21*
X166225000Y-66250000D03*
X167775000Y-66250000D03*
D34*
X167750000Y-62725000D03*
X167750000Y-64275000D03*
D21*
X155586000Y-68619700D03*
X157136000Y-68619700D03*
D33*
X154111000Y-71894700D03*
X154111000Y-70344700D03*
D35*
X154136000Y-68619700D03*
X152586000Y-68619700D03*
X166275000Y-76000000D03*
X164725000Y-76000000D03*
D21*
X170225000Y-61500000D03*
X171775000Y-61500000D03*
X174750000Y-61500000D03*
X176300000Y-61500000D03*
D34*
X184250000Y-70725000D03*
X184250000Y-72275000D03*
D35*
X184525000Y-78500000D03*
X182975000Y-78500000D03*
D33*
X184750000Y-81775000D03*
X184750000Y-80225000D03*
D35*
X183275000Y-83000000D03*
X181725000Y-83000000D03*
X176525000Y-83000000D03*
X174975000Y-83000000D03*
X173525000Y-83000000D03*
X171975000Y-83000000D03*
X165250000Y-83000000D03*
X163700000Y-83000000D03*
D33*
X162750000Y-74025000D03*
X162750000Y-72475000D03*
D35*
X180275000Y-83000000D03*
X178725000Y-83000000D03*
D33*
X164000000Y-81275000D03*
X164000000Y-79725000D03*
X165500000Y-81275000D03*
X165500000Y-79725000D03*
D35*
X179250000Y-68500000D03*
X180800000Y-68500000D03*
D36*
X173725000Y-64975000D03*
X173725000Y-64325000D03*
X173725000Y-63675000D03*
X173725000Y-63025000D03*
X172275000Y-63025000D03*
X172275000Y-63675000D03*
X172275000Y-64325000D03*
X172275000Y-64975000D03*
D37*
X187600000Y-66600000D03*
X186500000Y-66600000D03*
X185400000Y-66600000D03*
X184300000Y-66600000D03*
X183200000Y-66600000D03*
X182100000Y-66600000D03*
X181000000Y-66600000D03*
X179900000Y-66600000D03*
D38*
X178000000Y-62300000D03*
D39*
X178000000Y-51950000D03*
D40*
X191500000Y-51500000D03*
D38*
X189150000Y-66600000D03*
D41*
X178000000Y-56100000D03*
D37*
X178950000Y-66600000D03*
D42*
X188362500Y-77200000D03*
X188362500Y-76250000D03*
X188362500Y-75300000D03*
X190637500Y-75300000D03*
X190637500Y-76250000D03*
X190637500Y-77200000D03*
D35*
X182725000Y-68500000D03*
X184275000Y-68500000D03*
D34*
X163000000Y-66775000D03*
X163000000Y-65225000D03*
D21*
X176275000Y-58250000D03*
X174725000Y-58250000D03*
D35*
X160475000Y-58250000D03*
X162025000Y-58250000D03*
%LPD*%
M02*
