G04 #@! TF.GenerationSoftware,KiCad,Pcbnew,9.0.2-9.0.2-0~ubuntu24.04.1*
G04 #@! TF.CreationDate,2025-06-08T21:46:16-05:00*
G04 #@! TF.ProjectId,FC,46432e6b-6963-4616-945f-706362585858,rev?*
G04 #@! TF.SameCoordinates,Original*
G04 #@! TF.FileFunction,Paste,Bot*
G04 #@! TF.FilePolarity,Positive*
%FSLAX46Y46*%
G04 Gerber Fmt 4.6, Leading zero omitted, Abs format (unit mm)*
G04 Created by KiCad (PCBNEW 9.0.2-9.0.2-0~ubuntu24.04.1) date 2025-06-08 21:46:16*
%MOMM*%
%LPD*%
G01*
G04 APERTURE LIST*
G04 Aperture macros list*
%AMRoundRect*
0 Rectangle with rounded corners*
0 $1 Rounding radius*
0 $2 $3 $4 $5 $6 $7 $8 $9 X,Y pos of 4 corners*
0 Add a 4 corners polygon primitive as box body*
4,1,4,$2,$3,$4,$5,$6,$7,$8,$9,$2,$3,0*
0 Add four circle primitives for the rounded corners*
1,1,$1+$1,$2,$3*
1,1,$1+$1,$4,$5*
1,1,$1+$1,$6,$7*
1,1,$1+$1,$8,$9*
0 Add four rect primitives between the rounded corners*
20,1,$1+$1,$2,$3,$4,$5,0*
20,1,$1+$1,$4,$5,$6,$7,0*
20,1,$1+$1,$6,$7,$8,$9,0*
20,1,$1+$1,$8,$9,$2,$3,0*%
%AMRotRect*
0 Rectangle, with rotation*
0 The origin of the aperture is its center*
0 $1 length*
0 $2 width*
0 $3 Rotation angle, in degrees counterclockwise*
0 Add horizontal line*
21,1,$1,$2,0,0,$3*%
G04 Aperture macros list end*
%ADD10C,0.175000*%
%ADD11R,0.254000X0.431800*%
%ADD12R,0.431800X0.254000*%
%ADD13RoundRect,0.225000X0.225000X0.250000X-0.225000X0.250000X-0.225000X-0.250000X0.225000X-0.250000X0*%
%ADD14RoundRect,0.200000X0.200000X0.275000X-0.200000X0.275000X-0.200000X-0.275000X0.200000X-0.275000X0*%
%ADD15RoundRect,0.200000X-0.200000X-0.275000X0.200000X-0.275000X0.200000X0.275000X-0.200000X0.275000X0*%
%ADD16R,0.250000X0.475000*%
%ADD17R,0.475000X0.250000*%
%ADD18RotRect,0.762000X0.508000X225.000000*%
%ADD19RotRect,0.762000X0.508000X135.000000*%
%ADD20RotRect,0.762000X0.508000X45.000000*%
%ADD21RotRect,0.762000X0.508000X315.000000*%
%ADD22RoundRect,0.225000X-0.250000X0.225000X-0.250000X-0.225000X0.250000X-0.225000X0.250000X0.225000X0*%
%ADD23RoundRect,0.225000X0.250000X-0.225000X0.250000X0.225000X-0.250000X0.225000X-0.250000X-0.225000X0*%
%ADD24RoundRect,0.225000X-0.225000X-0.250000X0.225000X-0.250000X0.225000X0.250000X-0.225000X0.250000X0*%
%ADD25R,0.700000X1.200000*%
%ADD26R,1.000000X1.200000*%
%ADD27R,1.000000X2.800000*%
%ADD28R,1.300000X1.900000*%
%ADD29R,1.000000X0.800000*%
%ADD30RoundRect,0.150000X-0.512500X-0.150000X0.512500X-0.150000X0.512500X0.150000X-0.512500X0.150000X0*%
G04 APERTURE END LIST*
D10*
X172362500Y-63025000D02*
G75*
G02*
X172187500Y-63025000I-87500J0D01*
G01*
X172187500Y-63025000D02*
G75*
G02*
X172362500Y-63025000I87500J0D01*
G01*
X172362500Y-63675000D02*
G75*
G02*
X172187500Y-63675000I-87500J0D01*
G01*
X172187500Y-63675000D02*
G75*
G02*
X172362500Y-63675000I87500J0D01*
G01*
X172362500Y-64325000D02*
G75*
G02*
X172187500Y-64325000I-87500J0D01*
G01*
X172187500Y-64325000D02*
G75*
G02*
X172362500Y-64325000I87500J0D01*
G01*
X172362500Y-64975000D02*
G75*
G02*
X172187500Y-64975000I-87500J0D01*
G01*
X172187500Y-64975000D02*
G75*
G02*
X172362500Y-64975000I87500J0D01*
G01*
X173812500Y-63025000D02*
G75*
G02*
X173637500Y-63025000I-87500J0D01*
G01*
X173637500Y-63025000D02*
G75*
G02*
X173812500Y-63025000I87500J0D01*
G01*
X173812500Y-63675000D02*
G75*
G02*
X173637500Y-63675000I-87500J0D01*
G01*
X173637500Y-63675000D02*
G75*
G02*
X173812500Y-63675000I87500J0D01*
G01*
X173812500Y-64325000D02*
G75*
G02*
X173637500Y-64325000I-87500J0D01*
G01*
X173637500Y-64325000D02*
G75*
G02*
X173812500Y-64325000I87500J0D01*
G01*
X173812500Y-64975000D02*
G75*
G02*
X173637500Y-64975000I-87500J0D01*
G01*
X173637500Y-64975000D02*
G75*
G02*
X173812500Y-64975000I87500J0D01*
G01*
D11*
X157000001Y-72250000D03*
X156500000Y-72250000D03*
X156000000Y-72250000D03*
X155499999Y-72250000D03*
D12*
X155361000Y-71619699D03*
X155361000Y-71119700D03*
X155361000Y-70619701D03*
D11*
X155499999Y-69989400D03*
X156000000Y-69989400D03*
X156500000Y-69989400D03*
X157000001Y-69989400D03*
D12*
X157139000Y-70619701D03*
X157139000Y-71119700D03*
X157139000Y-71619699D03*
D13*
X193250000Y-58250000D03*
X194800000Y-58250000D03*
D14*
X193175000Y-65250000D03*
X194825000Y-65250000D03*
D15*
X194825000Y-66750000D03*
X193175000Y-66750000D03*
D16*
X164750000Y-62587500D03*
X165250000Y-62587500D03*
X165750000Y-62587500D03*
X166250000Y-62587500D03*
D17*
X166412500Y-63250000D03*
X166412500Y-63750000D03*
X166412500Y-64250000D03*
D16*
X166250000Y-64912500D03*
X165750000Y-64912500D03*
X165250000Y-64912500D03*
X164750000Y-64912500D03*
D17*
X164587500Y-64250000D03*
X164587500Y-63750000D03*
X164587500Y-63250000D03*
D18*
X196759517Y-97568731D03*
X197431269Y-98240483D03*
X198240483Y-97431269D03*
X197568731Y-96759517D03*
D19*
X152431269Y-96759517D03*
X151759517Y-97431269D03*
X152568731Y-98240483D03*
X153240483Y-97568731D03*
D20*
X152440786Y-53309214D03*
X151769034Y-52637462D03*
X152578248Y-51828248D03*
X153250000Y-52500000D03*
D21*
X197559214Y-53240483D03*
X198230966Y-52568731D03*
X197421752Y-51759517D03*
X196750000Y-52431269D03*
D22*
X176250000Y-63975000D03*
X176250000Y-65525000D03*
D13*
X165025000Y-58200000D03*
X163475000Y-58200000D03*
D14*
X166325000Y-77500000D03*
X164675000Y-77500000D03*
D13*
X172225000Y-66250000D03*
X173775000Y-66250000D03*
D23*
X170500000Y-63475000D03*
X170500000Y-65025000D03*
D13*
X166225000Y-66250000D03*
X167775000Y-66250000D03*
D23*
X167750000Y-62725000D03*
X167750000Y-64275000D03*
D13*
X155586000Y-68619700D03*
X157136000Y-68619700D03*
D22*
X154111000Y-71894700D03*
X154111000Y-70344700D03*
D24*
X154136000Y-68619700D03*
X152586000Y-68619700D03*
X166275000Y-76000000D03*
X164725000Y-76000000D03*
D13*
X170225000Y-61500000D03*
X171775000Y-61500000D03*
X174750000Y-61500000D03*
X176300000Y-61500000D03*
D23*
X184250000Y-70725000D03*
X184250000Y-72275000D03*
D24*
X184525000Y-78500000D03*
X182975000Y-78500000D03*
D22*
X184750000Y-81775000D03*
X184750000Y-80225000D03*
D24*
X183275000Y-83000000D03*
X181725000Y-83000000D03*
X176525000Y-83000000D03*
X174975000Y-83000000D03*
X173525000Y-83000000D03*
X171975000Y-83000000D03*
X165250000Y-83000000D03*
X163700000Y-83000000D03*
D22*
X162750000Y-74025000D03*
X162750000Y-72475000D03*
D24*
X180275000Y-83000000D03*
X178725000Y-83000000D03*
D22*
X164000000Y-81275000D03*
X164000000Y-79725000D03*
X165500000Y-81275000D03*
X165500000Y-79725000D03*
D24*
X179250000Y-68500000D03*
X180800000Y-68500000D03*
D25*
X187600000Y-66600000D03*
X186500000Y-66600000D03*
X185400000Y-66600000D03*
X184300000Y-66600000D03*
X183200000Y-66600000D03*
X182100000Y-66600000D03*
X181000000Y-66600000D03*
X179900000Y-66600000D03*
D26*
X178000000Y-62300000D03*
D27*
X178000000Y-51950000D03*
D28*
X191500000Y-51500000D03*
D26*
X189150000Y-66600000D03*
D29*
X178000000Y-56100000D03*
D25*
X178950000Y-66600000D03*
D30*
X188362500Y-77200000D03*
X188362500Y-76250000D03*
X188362500Y-75300000D03*
X190637500Y-75300000D03*
X190637500Y-76250000D03*
X190637500Y-77200000D03*
D24*
X182725000Y-68500000D03*
X184275000Y-68500000D03*
D23*
X163000000Y-66775000D03*
X163000000Y-65225000D03*
D13*
X176275000Y-58250000D03*
X174725000Y-58250000D03*
D24*
X160475000Y-58250000D03*
X162025000Y-58250000D03*
M02*
