G04 #@! TF.GenerationSoftware,KiCad,Pcbnew,9.0.2-9.0.2-0~ubuntu24.04.1*
G04 #@! TF.CreationDate,2025-06-08T21:46:16-05:00*
G04 #@! TF.ProjectId,FC,46432e6b-6963-4616-945f-706362585858,rev?*
G04 #@! TF.SameCoordinates,Original*
G04 #@! TF.FileFunction,Paste,Top*
G04 #@! TF.FilePolarity,Positive*
%FSLAX46Y46*%
G04 Gerber Fmt 4.6, Leading zero omitted, Abs format (unit mm)*
G04 Created by KiCad (PCBNEW 9.0.2-9.0.2-0~ubuntu24.04.1) date 2025-06-08 21:46:16*
%MOMM*%
%LPD*%
G01*
G04 APERTURE LIST*
G04 Aperture macros list*
%AMRoundRect*
0 Rectangle with rounded corners*
0 $1 Rounding radius*
0 $2 $3 $4 $5 $6 $7 $8 $9 X,Y pos of 4 corners*
0 Add a 4 corners polygon primitive as box body*
4,1,4,$2,$3,$4,$5,$6,$7,$8,$9,$2,$3,0*
0 Add four circle primitives for the rounded corners*
1,1,$1+$1,$2,$3*
1,1,$1+$1,$4,$5*
1,1,$1+$1,$6,$7*
1,1,$1+$1,$8,$9*
0 Add four rect primitives between the rounded corners*
20,1,$1+$1,$2,$3,$4,$5,0*
20,1,$1+$1,$4,$5,$6,$7,0*
20,1,$1+$1,$6,$7,$8,$9,0*
20,1,$1+$1,$8,$9,$2,$3,0*%
G04 Aperture macros list end*
%ADD10C,2.050000*%
%ADD11RoundRect,0.225000X0.017678X-0.335876X0.335876X-0.017678X-0.017678X0.335876X-0.335876X0.017678X0*%
%ADD12RoundRect,0.225000X-0.225000X-0.250000X0.225000X-0.250000X0.225000X0.250000X-0.225000X0.250000X0*%
%ADD13O,1.800000X1.000000*%
%ADD14O,2.100000X1.000000*%
%ADD15RoundRect,0.075000X0.500000X-0.075000X0.500000X0.075000X-0.500000X0.075000X-0.500000X-0.075000X0*%
%ADD16RoundRect,0.150000X0.425000X-0.150000X0.425000X0.150000X-0.425000X0.150000X-0.425000X-0.150000X0*%
%ADD17RoundRect,0.250000X0.300000X0.700000X-0.300000X0.700000X-0.300000X-0.700000X0.300000X-0.700000X0*%
%ADD18RoundRect,0.175000X0.175000X1.175000X-0.175000X1.175000X-0.175000X-1.175000X0.175000X-1.175000X0*%
%ADD19RoundRect,0.200000X-0.200000X-0.275000X0.200000X-0.275000X0.200000X0.275000X-0.200000X0.275000X0*%
%ADD20RoundRect,0.200000X0.275000X-0.200000X0.275000X0.200000X-0.275000X0.200000X-0.275000X-0.200000X0*%
%ADD21RoundRect,0.075000X-0.675000X-0.075000X0.675000X-0.075000X0.675000X0.075000X-0.675000X0.075000X0*%
%ADD22RoundRect,0.075000X-0.075000X-0.675000X0.075000X-0.675000X0.075000X0.675000X-0.075000X0.675000X0*%
%ADD23R,0.610000X0.350000*%
%ADD24R,0.350000X0.610000*%
%ADD25RoundRect,0.175000X-0.725000X-0.175000X0.725000X-0.175000X0.725000X0.175000X-0.725000X0.175000X0*%
%ADD26RoundRect,0.200000X-0.700000X-0.200000X0.700000X-0.200000X0.700000X0.200000X-0.700000X0.200000X0*%
%ADD27R,1.016000X0.838200*%
%ADD28R,0.508000X1.016000*%
%ADD29RoundRect,0.172500X0.172500X-0.262500X0.172500X0.262500X-0.172500X0.262500X-0.172500X-0.262500X0*%
%ADD30RoundRect,0.093750X0.106250X-0.093750X0.106250X0.093750X-0.106250X0.093750X-0.106250X-0.093750X0*%
%ADD31R,0.774700X0.457200*%
%ADD32R,0.762000X0.508000*%
%ADD33R,2.209800X0.762000*%
%ADD34C,0.889000*%
%ADD35R,0.812800X0.990600*%
%ADD36RoundRect,0.225000X0.225000X0.250000X-0.225000X0.250000X-0.225000X-0.250000X0.225000X-0.250000X0*%
%ADD37RoundRect,0.225000X0.335876X0.017678X0.017678X0.335876X-0.335876X-0.017678X-0.017678X-0.335876X0*%
%ADD38RoundRect,0.225000X-0.250000X0.225000X-0.250000X-0.225000X0.250000X-0.225000X0.250000X0.225000X0*%
%ADD39RoundRect,0.225000X0.250000X-0.225000X0.250000X0.225000X-0.250000X0.225000X-0.250000X-0.225000X0*%
%ADD40RoundRect,0.225000X-0.152629X-0.299716X0.282038X-0.183247X0.152629X0.299716X-0.282038X0.183247X0*%
%ADD41RoundRect,0.225000X0.299716X-0.152629X0.183247X0.282038X-0.299716X0.152629X-0.183247X-0.282038X0*%
%ADD42R,1.000000X1.050000*%
%ADD43R,1.050000X2.200000*%
%ADD44RoundRect,0.225000X0.152629X0.299716X-0.282038X0.183247X-0.152629X-0.299716X0.282038X-0.183247X0*%
%ADD45C,0.228600*%
%ADD46RoundRect,0.250000X0.159099X-0.512652X0.512652X-0.159099X-0.159099X0.512652X-0.512652X0.159099X0*%
%ADD47RoundRect,0.250000X-0.475000X0.250000X-0.475000X-0.250000X0.475000X-0.250000X0.475000X0.250000X0*%
G04 APERTURE END LIST*
D10*
X156025000Y-95000000D02*
G75*
G02*
X153975000Y-95000000I-1025000J0D01*
G01*
X153975000Y-95000000D02*
G75*
G02*
X156025000Y-95000000I1025000J0D01*
G01*
X196025000Y-95000000D02*
G75*
G02*
X193975000Y-95000000I-1025000J0D01*
G01*
X193975000Y-95000000D02*
G75*
G02*
X196025000Y-95000000I1025000J0D01*
G01*
X196025000Y-55000000D02*
G75*
G02*
X193975000Y-55000000I-1025000J0D01*
G01*
X193975000Y-55000000D02*
G75*
G02*
X196025000Y-55000000I1025000J0D01*
G01*
X156025000Y-55000000D02*
G75*
G02*
X153975000Y-55000000I-1025000J0D01*
G01*
X153975000Y-55000000D02*
G75*
G02*
X156025000Y-55000000I1025000J0D01*
G01*
D11*
X161298008Y-59201992D03*
X160201992Y-60298008D03*
D12*
X179275000Y-88250000D03*
X177725000Y-88250000D03*
D11*
X159798008Y-58451992D03*
X158701992Y-59548008D03*
D13*
X197325000Y-71680000D03*
D14*
X193145000Y-71680000D03*
D13*
X197325000Y-80320000D03*
D14*
X193145000Y-80320000D03*
D15*
X192570000Y-77750000D03*
X192570000Y-76750000D03*
X192570000Y-75250000D03*
X192570000Y-74250000D03*
D16*
X192570000Y-72800000D03*
X192570000Y-73600000D03*
D15*
X192570000Y-74750000D03*
X192570000Y-75750000D03*
X192570000Y-76250000D03*
X192570000Y-77250000D03*
D16*
X192570000Y-78400000D03*
X192570000Y-79200000D03*
D17*
X181550000Y-52950000D03*
X191450000Y-52950000D03*
D18*
X183500000Y-56650000D03*
X185000000Y-56650000D03*
X186500000Y-56650000D03*
X188000000Y-56650000D03*
X189500000Y-56650000D03*
D19*
X157575000Y-61000000D03*
X155925000Y-61000000D03*
X190575000Y-74000000D03*
X188925000Y-74000000D03*
X190575000Y-78500000D03*
X188925000Y-78500000D03*
X194575000Y-59500000D03*
X192925000Y-59500000D03*
D20*
X191250000Y-67925000D03*
X191250000Y-69575000D03*
D19*
X190575000Y-83250000D03*
X188925000Y-83250000D03*
X190325000Y-80250000D03*
X188675000Y-80250000D03*
X190575000Y-86500000D03*
X188925000Y-86500000D03*
D21*
X161075000Y-61750000D03*
X161075000Y-62250000D03*
X161075000Y-62750000D03*
X161075000Y-63250000D03*
X161075000Y-63750000D03*
X161075000Y-64250000D03*
X161075000Y-64750000D03*
X161075000Y-65250000D03*
X161075000Y-65750000D03*
X161075000Y-66250000D03*
X161075000Y-66750000D03*
X161075000Y-67250000D03*
X161075000Y-67750000D03*
X161075000Y-68250000D03*
X161075000Y-68750000D03*
X161075000Y-69250000D03*
X161075000Y-69750000D03*
X161075000Y-70250000D03*
X161075000Y-70750000D03*
X161075000Y-71250000D03*
X161075000Y-71750000D03*
X161075000Y-72250000D03*
X161075000Y-72750000D03*
X161075000Y-73250000D03*
X161075000Y-73750000D03*
X161075000Y-74250000D03*
X161075000Y-74750000D03*
X161075000Y-75250000D03*
X161075000Y-75750000D03*
X161075000Y-76250000D03*
X161075000Y-76750000D03*
X161075000Y-77250000D03*
X161075000Y-77750000D03*
X161075000Y-78250000D03*
X161075000Y-78750000D03*
X161075000Y-79250000D03*
X161075000Y-79750000D03*
X161075000Y-80250000D03*
X161075000Y-80750000D03*
X161075000Y-81250000D03*
X161075000Y-81750000D03*
X161075000Y-82250000D03*
X161075000Y-82750000D03*
X161075000Y-83250000D03*
D22*
X163000000Y-85175000D03*
X163500000Y-85175000D03*
X164000000Y-85175000D03*
X164500000Y-85175000D03*
X165000000Y-85175000D03*
X165500000Y-85175000D03*
X166000000Y-85175000D03*
X166500000Y-85175000D03*
X167000000Y-85175000D03*
X167500000Y-85175000D03*
X168000000Y-85175000D03*
X168500000Y-85175000D03*
X169000000Y-85175000D03*
X169500000Y-85175000D03*
X170000000Y-85175000D03*
X170500000Y-85175000D03*
X171000000Y-85175000D03*
X171500000Y-85175000D03*
X172000000Y-85175000D03*
X172500000Y-85175000D03*
X173000000Y-85175000D03*
X173500000Y-85175000D03*
X174000000Y-85175000D03*
X174500000Y-85175000D03*
X175000000Y-85175000D03*
X175500000Y-85175000D03*
X176000000Y-85175000D03*
X176500000Y-85175000D03*
X177000000Y-85175000D03*
X177500000Y-85175000D03*
X178000000Y-85175000D03*
X178500000Y-85175000D03*
X179000000Y-85175000D03*
X179500000Y-85175000D03*
X180000000Y-85175000D03*
X180500000Y-85175000D03*
X181000000Y-85175000D03*
X181500000Y-85175000D03*
X182000000Y-85175000D03*
X182500000Y-85175000D03*
X183000000Y-85175000D03*
X183500000Y-85175000D03*
X184000000Y-85175000D03*
X184500000Y-85175000D03*
D21*
X186425000Y-83250000D03*
X186425000Y-82750000D03*
X186425000Y-82250000D03*
X186425000Y-81750000D03*
X186425000Y-81250000D03*
X186425000Y-80750000D03*
X186425000Y-80250000D03*
X186425000Y-79750000D03*
X186425000Y-79250000D03*
X186425000Y-78750000D03*
X186425000Y-78250000D03*
X186425000Y-77750000D03*
X186425000Y-77250000D03*
X186425000Y-76750000D03*
X186425000Y-76250000D03*
X186425000Y-75750000D03*
X186425000Y-75250000D03*
X186425000Y-74750000D03*
X186425000Y-74250000D03*
X186425000Y-73750000D03*
X186425000Y-73250000D03*
X186425000Y-72750000D03*
X186425000Y-72250000D03*
X186425000Y-71750000D03*
X186425000Y-71250000D03*
X186425000Y-70750000D03*
X186425000Y-70250000D03*
X186425000Y-69750000D03*
X186425000Y-69250000D03*
X186425000Y-68750000D03*
X186425000Y-68250000D03*
X186425000Y-67750000D03*
X186425000Y-67250000D03*
X186425000Y-66750000D03*
X186425000Y-66250000D03*
X186425000Y-65750000D03*
X186425000Y-65250000D03*
X186425000Y-64750000D03*
X186425000Y-64250000D03*
X186425000Y-63750000D03*
X186425000Y-63250000D03*
X186425000Y-62750000D03*
X186425000Y-62250000D03*
X186425000Y-61750000D03*
D22*
X184500000Y-59825000D03*
X184000000Y-59825000D03*
X183500000Y-59825000D03*
X183000000Y-59825000D03*
X182500000Y-59825000D03*
X182000000Y-59825000D03*
X181500000Y-59825000D03*
X181000000Y-59825000D03*
X180500000Y-59825000D03*
X180000000Y-59825000D03*
X179500000Y-59825000D03*
X179000000Y-59825000D03*
X178500000Y-59825000D03*
X178000000Y-59825000D03*
X177500000Y-59825000D03*
X177000000Y-59825000D03*
X176500000Y-59825000D03*
X176000000Y-59825000D03*
X175500000Y-59825000D03*
X175000000Y-59825000D03*
X174500000Y-59825000D03*
X174000000Y-59825000D03*
X173500000Y-59825000D03*
X173000000Y-59825000D03*
X172500000Y-59825000D03*
X172000000Y-59825000D03*
X171500000Y-59825000D03*
X171000000Y-59825000D03*
X170500000Y-59825000D03*
X170000000Y-59825000D03*
X169500000Y-59825000D03*
X169000000Y-59825000D03*
X168500000Y-59825000D03*
X168000000Y-59825000D03*
X167500000Y-59825000D03*
X167000000Y-59825000D03*
X166500000Y-59825000D03*
X166000000Y-59825000D03*
X165500000Y-59825000D03*
X165000000Y-59825000D03*
X164500000Y-59825000D03*
X164000000Y-59825000D03*
X163500000Y-59825000D03*
X163000000Y-59825000D03*
D23*
X156660000Y-81750000D03*
X156660000Y-81250000D03*
X156660000Y-80750000D03*
X156660000Y-80250000D03*
D24*
X156000000Y-80090000D03*
X155500000Y-80090000D03*
X155000000Y-80090000D03*
D23*
X154340000Y-80250000D03*
X154340000Y-80750000D03*
X154340000Y-81250000D03*
X154340000Y-81750000D03*
D24*
X155000000Y-81910000D03*
X155500000Y-81910000D03*
X156000000Y-81910000D03*
D25*
X181250000Y-88600000D03*
D26*
X181250000Y-89700000D03*
X181250000Y-90800000D03*
X181250000Y-91900000D03*
X181250000Y-93000000D03*
X181250000Y-94100000D03*
X181250000Y-95200000D03*
X181250000Y-96300000D03*
D25*
X181250000Y-97400000D03*
X190750000Y-97400000D03*
D26*
X190750000Y-96300000D03*
X190750000Y-95200000D03*
X190750000Y-94100000D03*
X190750000Y-93000000D03*
X190750000Y-91900000D03*
X190750000Y-90800000D03*
X190750000Y-89700000D03*
D25*
X190750000Y-88600000D03*
D27*
X155929801Y-74825001D03*
X155929801Y-76674999D03*
X157570199Y-76674999D03*
X157570199Y-74825001D03*
D28*
X190317500Y-59361000D03*
X188412500Y-59361000D03*
X189365000Y-61139000D03*
X193047500Y-69389000D03*
X194952500Y-69389000D03*
X194000000Y-67611000D03*
D29*
X193350000Y-63250000D03*
X194150000Y-63250000D03*
D30*
X193100000Y-64137500D03*
X193750000Y-64137500D03*
X194400000Y-64137500D03*
X194400000Y-62362500D03*
X193750000Y-62362500D03*
X193100000Y-62362500D03*
D31*
X152736350Y-88799999D03*
X152736350Y-89750000D03*
X152736350Y-90700001D03*
X155263650Y-90700001D03*
X155263650Y-88799999D03*
D32*
X193072201Y-83275000D03*
X193072201Y-84225000D03*
X191927799Y-84225000D03*
X191927799Y-83275000D03*
D33*
X155000700Y-59499998D03*
X155000700Y-62500000D03*
X155000700Y-64000000D03*
D34*
X151900000Y-60250009D03*
X151900000Y-63250009D03*
D35*
X150935000Y-58099999D03*
X152865000Y-58099999D03*
X150935000Y-65399999D03*
X152865000Y-65399999D03*
D36*
X189775000Y-68000000D03*
X188225000Y-68000000D03*
D12*
X159775000Y-88750000D03*
X158225000Y-88750000D03*
D36*
X158725000Y-93000000D03*
X160275000Y-93000000D03*
X153225000Y-87250000D03*
X154775000Y-87250000D03*
X157225000Y-87000000D03*
X158775000Y-87000000D03*
D37*
X160201992Y-84701992D03*
X161298008Y-85798008D03*
D38*
X158750000Y-68325000D03*
X158750000Y-66775000D03*
X158750000Y-65275000D03*
X158750000Y-63725000D03*
D39*
X152500000Y-80225000D03*
X152500000Y-81775000D03*
D12*
X156025000Y-78500000D03*
X154475000Y-78500000D03*
D40*
X198298593Y-97149415D03*
X196801407Y-97550585D03*
D41*
X152174415Y-96601407D03*
X152575585Y-98098593D03*
D42*
X195000000Y-90525000D03*
D43*
X196475000Y-89000000D03*
D42*
X195000000Y-87475000D03*
D43*
X193525000Y-89000000D03*
D36*
X194525000Y-61000000D03*
X192975000Y-61000000D03*
D38*
X191750000Y-62450000D03*
X191750000Y-64000000D03*
D44*
X153198593Y-52449415D03*
X151701407Y-52850585D03*
D38*
X194500000Y-83475000D03*
X194500000Y-85025000D03*
D41*
X197825585Y-53398593D03*
X197424415Y-51901407D03*
D45*
X160100000Y-90400000D03*
X160100000Y-90800000D03*
X160100000Y-91200000D03*
X160100000Y-91600000D03*
X159700000Y-90400000D03*
X159700000Y-91600000D03*
X159300000Y-90400000D03*
X159300000Y-91600000D03*
X158900000Y-90400000D03*
X158900000Y-90800000D03*
X158900000Y-91600000D03*
D46*
X196656498Y-58343502D03*
X198000000Y-57000000D03*
D47*
X196250000Y-83300000D03*
X196250000Y-85200000D03*
M02*
