G04 #@! TF.GenerationSoftware,KiCad,Pcbnew,9.0.2-9.0.2-0~ubuntu24.04.1*
G04 #@! TF.CreationDate,2025-06-10T13:01:30-05:00*
G04 #@! TF.ProjectId,FC,46432e6b-6963-4616-945f-706362585858,rev?*
G04 #@! TF.SameCoordinates,Original*
G04 #@! TF.FileFunction,Legend,Top*
G04 #@! TF.FilePolarity,Positive*
%FSLAX46Y46*%
G04 Gerber Fmt 4.6, Leading zero omitted, Abs format (unit mm)*
G04 Created by KiCad (PCBNEW 9.0.2-9.0.2-0~ubuntu24.04.1) date 2025-06-10 13:01:30*
%MOMM*%
%LPD*%
G01*
G04 APERTURE LIST*
G04 Aperture macros list*
%AMRoundRect*
0 Rectangle with rounded corners*
0 $1 Rounding radius*
0 $2 $3 $4 $5 $6 $7 $8 $9 X,Y pos of 4 corners*
0 Add a 4 corners polygon primitive as box body*
4,1,4,$2,$3,$4,$5,$6,$7,$8,$9,$2,$3,0*
0 Add four circle primitives for the rounded corners*
1,1,$1+$1,$2,$3*
1,1,$1+$1,$4,$5*
1,1,$1+$1,$6,$7*
1,1,$1+$1,$8,$9*
0 Add four rect primitives between the rounded corners*
20,1,$1+$1,$2,$3,$4,$5,0*
20,1,$1+$1,$4,$5,$6,$7,0*
20,1,$1+$1,$6,$7,$8,$9,0*
20,1,$1+$1,$8,$9,$2,$3,0*%
G04 Aperture macros list end*
%ADD10C,0.150000*%
%ADD11C,0.152400*%
%ADD12C,0.120000*%
%ADD13C,0.200000*%
%ADD14C,0.127000*%
%ADD15C,0.100000*%
%ADD16C,0.010000*%
%ADD17R,2.209800X0.762000*%
%ADD18C,0.889000*%
%ADD19R,0.812800X0.990600*%
%ADD20RoundRect,0.225000X0.017678X-0.335876X0.335876X-0.017678X-0.017678X0.335876X-0.335876X0.017678X0*%
%ADD21RoundRect,0.350000X-0.350000X-0.650000X0.350000X-0.650000X0.350000X0.650000X-0.350000X0.650000X0*%
%ADD22RoundRect,0.200000X-0.200000X-0.275000X0.200000X-0.275000X0.200000X0.275000X-0.200000X0.275000X0*%
%ADD23R,0.508000X1.016000*%
%ADD24RoundRect,0.225000X0.299716X-0.152629X0.183247X0.282038X-0.299716X0.152629X-0.183247X-0.282038X0*%
%ADD25RoundRect,0.102000X0.500000X0.525000X-0.500000X0.525000X-0.500000X-0.525000X0.500000X-0.525000X0*%
%ADD26RoundRect,0.102000X0.525000X1.100000X-0.525000X1.100000X-0.525000X-1.100000X0.525000X-1.100000X0*%
%ADD27RoundRect,0.225000X-0.225000X-0.250000X0.225000X-0.250000X0.225000X0.250000X-0.225000X0.250000X0*%
%ADD28RoundRect,0.075000X-0.675000X-0.075000X0.675000X-0.075000X0.675000X0.075000X-0.675000X0.075000X0*%
%ADD29RoundRect,0.075000X-0.075000X-0.675000X0.075000X-0.675000X0.075000X0.675000X-0.075000X0.675000X0*%
%ADD30RoundRect,0.175000X0.175000X1.175000X-0.175000X1.175000X-0.175000X-1.175000X0.175000X-1.175000X0*%
%ADD31RoundRect,0.250000X0.300000X0.700000X-0.300000X0.700000X-0.300000X-0.700000X0.300000X-0.700000X0*%
%ADD32RoundRect,0.350000X0.350000X0.650000X-0.350000X0.650000X-0.350000X-0.650000X0.350000X-0.650000X0*%
%ADD33R,0.762000X0.508000*%
%ADD34RoundRect,0.225000X0.225000X0.250000X-0.225000X0.250000X-0.225000X-0.250000X0.225000X-0.250000X0*%
%ADD35RoundRect,0.175000X-0.725000X-0.175000X0.725000X-0.175000X0.725000X0.175000X-0.725000X0.175000X0*%
%ADD36RoundRect,0.200000X-0.700000X-0.200000X0.700000X-0.200000X0.700000X0.200000X-0.700000X0.200000X0*%
%ADD37C,0.650000*%
%ADD38RoundRect,0.150000X0.425000X-0.150000X0.425000X0.150000X-0.425000X0.150000X-0.425000X-0.150000X0*%
%ADD39RoundRect,0.075000X0.500000X-0.075000X0.500000X0.075000X-0.500000X0.075000X-0.500000X-0.075000X0*%
%ADD40O,2.100000X1.000000*%
%ADD41O,1.800000X1.000000*%
%ADD42R,1.016000X0.838200*%
%ADD43RoundRect,0.225000X-0.250000X0.225000X-0.250000X-0.225000X0.250000X-0.225000X0.250000X0.225000X0*%
%ADD44R,0.774700X0.457200*%
%ADD45RoundRect,0.093750X0.106250X-0.093750X0.106250X0.093750X-0.106250X0.093750X-0.106250X-0.093750X0*%
%ADD46R,1.600000X1.000000*%
%ADD47RoundRect,0.225000X0.335876X0.017678X0.017678X0.335876X-0.335876X-0.017678X-0.017678X-0.335876X0*%
%ADD48RoundRect,0.250000X-0.475000X0.250000X-0.475000X-0.250000X0.475000X-0.250000X0.475000X0.250000X0*%
%ADD49RoundRect,0.250000X0.159099X-0.512652X0.512652X-0.159099X-0.159099X0.512652X-0.512652X0.159099X0*%
%ADD50RoundRect,0.225000X0.250000X-0.225000X0.250000X0.225000X-0.250000X0.225000X-0.250000X-0.225000X0*%
%ADD51C,0.228600*%
%ADD52RoundRect,0.225000X-0.152629X-0.299716X0.282038X-0.183247X0.152629X0.299716X-0.282038X0.183247X0*%
%ADD53C,0.700000*%
%ADD54O,1.500000X0.800000*%
%ADD55RoundRect,0.225000X0.152629X0.299716X-0.282038X0.183247X-0.152629X-0.299716X0.282038X-0.183247X0*%
%ADD56RoundRect,0.200000X0.275000X-0.200000X0.275000X0.200000X-0.275000X0.200000X-0.275000X-0.200000X0*%
G04 APERTURE END LIST*
D10*
X172047618Y-54870180D02*
X171428571Y-54870180D01*
X171428571Y-54870180D02*
X171761904Y-54489228D01*
X171761904Y-54489228D02*
X171619047Y-54489228D01*
X171619047Y-54489228D02*
X171523809Y-54441609D01*
X171523809Y-54441609D02*
X171476190Y-54393990D01*
X171476190Y-54393990D02*
X171428571Y-54298752D01*
X171428571Y-54298752D02*
X171428571Y-54060657D01*
X171428571Y-54060657D02*
X171476190Y-53965419D01*
X171476190Y-53965419D02*
X171523809Y-53917800D01*
X171523809Y-53917800D02*
X171619047Y-53870180D01*
X171619047Y-53870180D02*
X171904761Y-53870180D01*
X171904761Y-53870180D02*
X171999999Y-53917800D01*
X171999999Y-53917800D02*
X172047618Y-53965419D01*
X170999999Y-53965419D02*
X170952380Y-53917800D01*
X170952380Y-53917800D02*
X170999999Y-53870180D01*
X170999999Y-53870180D02*
X171047618Y-53917800D01*
X171047618Y-53917800D02*
X170999999Y-53965419D01*
X170999999Y-53965419D02*
X170999999Y-53870180D01*
X170619047Y-54870180D02*
X170000000Y-54870180D01*
X170000000Y-54870180D02*
X170333333Y-54489228D01*
X170333333Y-54489228D02*
X170190476Y-54489228D01*
X170190476Y-54489228D02*
X170095238Y-54441609D01*
X170095238Y-54441609D02*
X170047619Y-54393990D01*
X170047619Y-54393990D02*
X170000000Y-54298752D01*
X170000000Y-54298752D02*
X170000000Y-54060657D01*
X170000000Y-54060657D02*
X170047619Y-53965419D01*
X170047619Y-53965419D02*
X170095238Y-53917800D01*
X170095238Y-53917800D02*
X170190476Y-53870180D01*
X170190476Y-53870180D02*
X170476190Y-53870180D01*
X170476190Y-53870180D02*
X170571428Y-53917800D01*
X170571428Y-53917800D02*
X170619047Y-53965419D01*
X165583333Y-90979819D02*
X165250000Y-90503628D01*
X165011905Y-90979819D02*
X165011905Y-89979819D01*
X165011905Y-89979819D02*
X165392857Y-89979819D01*
X165392857Y-89979819D02*
X165488095Y-90027438D01*
X165488095Y-90027438D02*
X165535714Y-90075057D01*
X165535714Y-90075057D02*
X165583333Y-90170295D01*
X165583333Y-90170295D02*
X165583333Y-90313152D01*
X165583333Y-90313152D02*
X165535714Y-90408390D01*
X165535714Y-90408390D02*
X165488095Y-90456009D01*
X165488095Y-90456009D02*
X165392857Y-90503628D01*
X165392857Y-90503628D02*
X165011905Y-90503628D01*
X165916667Y-89979819D02*
X166583333Y-90979819D01*
X166583333Y-89979819D02*
X165916667Y-90979819D01*
X169261904Y-53917800D02*
X169119047Y-53870180D01*
X169119047Y-53870180D02*
X168880952Y-53870180D01*
X168880952Y-53870180D02*
X168785714Y-53917800D01*
X168785714Y-53917800D02*
X168738095Y-53965419D01*
X168738095Y-53965419D02*
X168690476Y-54060657D01*
X168690476Y-54060657D02*
X168690476Y-54155895D01*
X168690476Y-54155895D02*
X168738095Y-54251133D01*
X168738095Y-54251133D02*
X168785714Y-54298752D01*
X168785714Y-54298752D02*
X168880952Y-54346371D01*
X168880952Y-54346371D02*
X169071428Y-54393990D01*
X169071428Y-54393990D02*
X169166666Y-54441609D01*
X169166666Y-54441609D02*
X169214285Y-54489228D01*
X169214285Y-54489228D02*
X169261904Y-54584466D01*
X169261904Y-54584466D02*
X169261904Y-54679704D01*
X169261904Y-54679704D02*
X169214285Y-54774942D01*
X169214285Y-54774942D02*
X169166666Y-54822561D01*
X169166666Y-54822561D02*
X169071428Y-54870180D01*
X169071428Y-54870180D02*
X168833333Y-54870180D01*
X168833333Y-54870180D02*
X168690476Y-54822561D01*
X167738095Y-53870180D02*
X168309523Y-53870180D01*
X168023809Y-53870180D02*
X168023809Y-54870180D01*
X168023809Y-54870180D02*
X168119047Y-54727323D01*
X168119047Y-54727323D02*
X168214285Y-54632085D01*
X168214285Y-54632085D02*
X168309523Y-54584466D01*
X178511904Y-54870180D02*
X178988094Y-54870180D01*
X178988094Y-54870180D02*
X179035713Y-54393990D01*
X179035713Y-54393990D02*
X178988094Y-54441609D01*
X178988094Y-54441609D02*
X178892856Y-54489228D01*
X178892856Y-54489228D02*
X178654761Y-54489228D01*
X178654761Y-54489228D02*
X178559523Y-54441609D01*
X178559523Y-54441609D02*
X178511904Y-54393990D01*
X178511904Y-54393990D02*
X178464285Y-54298752D01*
X178464285Y-54298752D02*
X178464285Y-54060657D01*
X178464285Y-54060657D02*
X178511904Y-53965419D01*
X178511904Y-53965419D02*
X178559523Y-53917800D01*
X178559523Y-53917800D02*
X178654761Y-53870180D01*
X178654761Y-53870180D02*
X178892856Y-53870180D01*
X178892856Y-53870180D02*
X178988094Y-53917800D01*
X178988094Y-53917800D02*
X179035713Y-53965419D01*
X162488095Y-89979819D02*
X163059523Y-89979819D01*
X162773809Y-90979819D02*
X162773809Y-89979819D01*
X163297619Y-89979819D02*
X163964285Y-90979819D01*
X163964285Y-89979819D02*
X163297619Y-90979819D01*
X162202381Y-97029819D02*
X162821428Y-97029819D01*
X162821428Y-97029819D02*
X162488095Y-97410771D01*
X162488095Y-97410771D02*
X162630952Y-97410771D01*
X162630952Y-97410771D02*
X162726190Y-97458390D01*
X162726190Y-97458390D02*
X162773809Y-97506009D01*
X162773809Y-97506009D02*
X162821428Y-97601247D01*
X162821428Y-97601247D02*
X162821428Y-97839342D01*
X162821428Y-97839342D02*
X162773809Y-97934580D01*
X162773809Y-97934580D02*
X162726190Y-97982200D01*
X162726190Y-97982200D02*
X162630952Y-98029819D01*
X162630952Y-98029819D02*
X162345238Y-98029819D01*
X162345238Y-98029819D02*
X162250000Y-97982200D01*
X162250000Y-97982200D02*
X162202381Y-97934580D01*
X163250000Y-97934580D02*
X163297619Y-97982200D01*
X163297619Y-97982200D02*
X163250000Y-98029819D01*
X163250000Y-98029819D02*
X163202381Y-97982200D01*
X163202381Y-97982200D02*
X163250000Y-97934580D01*
X163250000Y-97934580D02*
X163250000Y-98029819D01*
X163630952Y-97029819D02*
X164249999Y-97029819D01*
X164249999Y-97029819D02*
X163916666Y-97410771D01*
X163916666Y-97410771D02*
X164059523Y-97410771D01*
X164059523Y-97410771D02*
X164154761Y-97458390D01*
X164154761Y-97458390D02*
X164202380Y-97506009D01*
X164202380Y-97506009D02*
X164249999Y-97601247D01*
X164249999Y-97601247D02*
X164249999Y-97839342D01*
X164249999Y-97839342D02*
X164202380Y-97934580D01*
X164202380Y-97934580D02*
X164154761Y-97982200D01*
X164154761Y-97982200D02*
X164059523Y-98029819D01*
X164059523Y-98029819D02*
X163773809Y-98029819D01*
X163773809Y-98029819D02*
X163678571Y-97982200D01*
X163678571Y-97982200D02*
X163630952Y-97934580D01*
X172488095Y-98032200D02*
X172630952Y-98079819D01*
X172630952Y-98079819D02*
X172869047Y-98079819D01*
X172869047Y-98079819D02*
X172964285Y-98032200D01*
X172964285Y-98032200D02*
X173011904Y-97984580D01*
X173011904Y-97984580D02*
X173059523Y-97889342D01*
X173059523Y-97889342D02*
X173059523Y-97794104D01*
X173059523Y-97794104D02*
X173011904Y-97698866D01*
X173011904Y-97698866D02*
X172964285Y-97651247D01*
X172964285Y-97651247D02*
X172869047Y-97603628D01*
X172869047Y-97603628D02*
X172678571Y-97556009D01*
X172678571Y-97556009D02*
X172583333Y-97508390D01*
X172583333Y-97508390D02*
X172535714Y-97460771D01*
X172535714Y-97460771D02*
X172488095Y-97365533D01*
X172488095Y-97365533D02*
X172488095Y-97270295D01*
X172488095Y-97270295D02*
X172535714Y-97175057D01*
X172535714Y-97175057D02*
X172583333Y-97127438D01*
X172583333Y-97127438D02*
X172678571Y-97079819D01*
X172678571Y-97079819D02*
X172916666Y-97079819D01*
X172916666Y-97079819D02*
X173059523Y-97127438D01*
X173916666Y-97413152D02*
X173916666Y-98079819D01*
X173678571Y-97032200D02*
X173440476Y-97746485D01*
X173440476Y-97746485D02*
X174059523Y-97746485D01*
X163511904Y-93527438D02*
X163416666Y-93479819D01*
X163416666Y-93479819D02*
X163273809Y-93479819D01*
X163273809Y-93479819D02*
X163130952Y-93527438D01*
X163130952Y-93527438D02*
X163035714Y-93622676D01*
X163035714Y-93622676D02*
X162988095Y-93717914D01*
X162988095Y-93717914D02*
X162940476Y-93908390D01*
X162940476Y-93908390D02*
X162940476Y-94051247D01*
X162940476Y-94051247D02*
X162988095Y-94241723D01*
X162988095Y-94241723D02*
X163035714Y-94336961D01*
X163035714Y-94336961D02*
X163130952Y-94432200D01*
X163130952Y-94432200D02*
X163273809Y-94479819D01*
X163273809Y-94479819D02*
X163369047Y-94479819D01*
X163369047Y-94479819D02*
X163511904Y-94432200D01*
X163511904Y-94432200D02*
X163559523Y-94384580D01*
X163559523Y-94384580D02*
X163559523Y-94051247D01*
X163559523Y-94051247D02*
X163369047Y-94051247D01*
X174749999Y-53870180D02*
X174749999Y-54870180D01*
X173702381Y-53870180D02*
X174035714Y-54346371D01*
X174273809Y-53870180D02*
X174273809Y-54870180D01*
X174273809Y-54870180D02*
X173892857Y-54870180D01*
X173892857Y-54870180D02*
X173797619Y-54822561D01*
X173797619Y-54822561D02*
X173750000Y-54774942D01*
X173750000Y-54774942D02*
X173702381Y-54679704D01*
X173702381Y-54679704D02*
X173702381Y-54536847D01*
X173702381Y-54536847D02*
X173750000Y-54441609D01*
X173750000Y-54441609D02*
X173797619Y-54393990D01*
X173797619Y-54393990D02*
X173892857Y-54346371D01*
X173892857Y-54346371D02*
X174273809Y-54346371D01*
X172702381Y-53965419D02*
X172750000Y-53917800D01*
X172750000Y-53917800D02*
X172892857Y-53870180D01*
X172892857Y-53870180D02*
X172988095Y-53870180D01*
X172988095Y-53870180D02*
X173130952Y-53917800D01*
X173130952Y-53917800D02*
X173226190Y-54013038D01*
X173226190Y-54013038D02*
X173273809Y-54108276D01*
X173273809Y-54108276D02*
X173321428Y-54298752D01*
X173321428Y-54298752D02*
X173321428Y-54441609D01*
X173321428Y-54441609D02*
X173273809Y-54632085D01*
X173273809Y-54632085D02*
X173226190Y-54727323D01*
X173226190Y-54727323D02*
X173130952Y-54822561D01*
X173130952Y-54822561D02*
X172988095Y-54870180D01*
X172988095Y-54870180D02*
X172892857Y-54870180D01*
X172892857Y-54870180D02*
X172750000Y-54822561D01*
X172750000Y-54822561D02*
X172702381Y-54774942D01*
X165738095Y-54822561D02*
X165833333Y-54870180D01*
X165833333Y-54870180D02*
X165976190Y-54870180D01*
X165976190Y-54870180D02*
X166119047Y-54822561D01*
X166119047Y-54822561D02*
X166214285Y-54727323D01*
X166214285Y-54727323D02*
X166261904Y-54632085D01*
X166261904Y-54632085D02*
X166309523Y-54441609D01*
X166309523Y-54441609D02*
X166309523Y-54298752D01*
X166309523Y-54298752D02*
X166261904Y-54108276D01*
X166261904Y-54108276D02*
X166214285Y-54013038D01*
X166214285Y-54013038D02*
X166119047Y-53917800D01*
X166119047Y-53917800D02*
X165976190Y-53870180D01*
X165976190Y-53870180D02*
X165880952Y-53870180D01*
X165880952Y-53870180D02*
X165738095Y-53917800D01*
X165738095Y-53917800D02*
X165690476Y-53965419D01*
X165690476Y-53965419D02*
X165690476Y-54298752D01*
X165690476Y-54298752D02*
X165880952Y-54298752D01*
X176011904Y-54870180D02*
X176488094Y-54870180D01*
X176488094Y-54870180D02*
X176535713Y-54393990D01*
X176535713Y-54393990D02*
X176488094Y-54441609D01*
X176488094Y-54441609D02*
X176392856Y-54489228D01*
X176392856Y-54489228D02*
X176154761Y-54489228D01*
X176154761Y-54489228D02*
X176059523Y-54441609D01*
X176059523Y-54441609D02*
X176011904Y-54393990D01*
X176011904Y-54393990D02*
X175964285Y-54298752D01*
X175964285Y-54298752D02*
X175964285Y-54060657D01*
X175964285Y-54060657D02*
X176011904Y-53965419D01*
X176011904Y-53965419D02*
X176059523Y-53917800D01*
X176059523Y-53917800D02*
X176154761Y-53870180D01*
X176154761Y-53870180D02*
X176392856Y-53870180D01*
X176392856Y-53870180D02*
X176488094Y-53917800D01*
X176488094Y-53917800D02*
X176535713Y-53965419D01*
X176011904Y-97127438D02*
X175916666Y-97079819D01*
X175916666Y-97079819D02*
X175773809Y-97079819D01*
X175773809Y-97079819D02*
X175630952Y-97127438D01*
X175630952Y-97127438D02*
X175535714Y-97222676D01*
X175535714Y-97222676D02*
X175488095Y-97317914D01*
X175488095Y-97317914D02*
X175440476Y-97508390D01*
X175440476Y-97508390D02*
X175440476Y-97651247D01*
X175440476Y-97651247D02*
X175488095Y-97841723D01*
X175488095Y-97841723D02*
X175535714Y-97936961D01*
X175535714Y-97936961D02*
X175630952Y-98032200D01*
X175630952Y-98032200D02*
X175773809Y-98079819D01*
X175773809Y-98079819D02*
X175869047Y-98079819D01*
X175869047Y-98079819D02*
X176011904Y-98032200D01*
X176011904Y-98032200D02*
X176059523Y-97984580D01*
X176059523Y-97984580D02*
X176059523Y-97651247D01*
X176059523Y-97651247D02*
X175869047Y-97651247D01*
X164535714Y-97982200D02*
X164678571Y-98029819D01*
X164678571Y-98029819D02*
X164916666Y-98029819D01*
X164916666Y-98029819D02*
X165011904Y-97982200D01*
X165011904Y-97982200D02*
X165059523Y-97934580D01*
X165059523Y-97934580D02*
X165107142Y-97839342D01*
X165107142Y-97839342D02*
X165107142Y-97744104D01*
X165107142Y-97744104D02*
X165059523Y-97648866D01*
X165059523Y-97648866D02*
X165011904Y-97601247D01*
X165011904Y-97601247D02*
X164916666Y-97553628D01*
X164916666Y-97553628D02*
X164726190Y-97506009D01*
X164726190Y-97506009D02*
X164630952Y-97458390D01*
X164630952Y-97458390D02*
X164583333Y-97410771D01*
X164583333Y-97410771D02*
X164535714Y-97315533D01*
X164535714Y-97315533D02*
X164535714Y-97220295D01*
X164535714Y-97220295D02*
X164583333Y-97125057D01*
X164583333Y-97125057D02*
X164630952Y-97077438D01*
X164630952Y-97077438D02*
X164726190Y-97029819D01*
X164726190Y-97029819D02*
X164964285Y-97029819D01*
X164964285Y-97029819D02*
X165107142Y-97077438D01*
X165535714Y-98029819D02*
X165535714Y-97029819D01*
X165535714Y-97029819D02*
X165773809Y-97029819D01*
X165773809Y-97029819D02*
X165916666Y-97077438D01*
X165916666Y-97077438D02*
X166011904Y-97172676D01*
X166011904Y-97172676D02*
X166059523Y-97267914D01*
X166059523Y-97267914D02*
X166107142Y-97458390D01*
X166107142Y-97458390D02*
X166107142Y-97601247D01*
X166107142Y-97601247D02*
X166059523Y-97791723D01*
X166059523Y-97791723D02*
X166011904Y-97886961D01*
X166011904Y-97886961D02*
X165916666Y-97982200D01*
X165916666Y-97982200D02*
X165773809Y-98029819D01*
X165773809Y-98029819D02*
X165535714Y-98029819D01*
X166488095Y-97744104D02*
X166964285Y-97744104D01*
X166392857Y-98029819D02*
X166726190Y-97029819D01*
X166726190Y-97029819D02*
X167059523Y-98029819D01*
X163961904Y-54870180D02*
X163390476Y-54870180D01*
X163676190Y-53870180D02*
X163676190Y-54870180D01*
X163152380Y-54870180D02*
X162485714Y-53870180D01*
X162485714Y-54870180D02*
X163152380Y-53870180D01*
X172488095Y-90982200D02*
X172630952Y-91029819D01*
X172630952Y-91029819D02*
X172869047Y-91029819D01*
X172869047Y-91029819D02*
X172964285Y-90982200D01*
X172964285Y-90982200D02*
X173011904Y-90934580D01*
X173011904Y-90934580D02*
X173059523Y-90839342D01*
X173059523Y-90839342D02*
X173059523Y-90744104D01*
X173059523Y-90744104D02*
X173011904Y-90648866D01*
X173011904Y-90648866D02*
X172964285Y-90601247D01*
X172964285Y-90601247D02*
X172869047Y-90553628D01*
X172869047Y-90553628D02*
X172678571Y-90506009D01*
X172678571Y-90506009D02*
X172583333Y-90458390D01*
X172583333Y-90458390D02*
X172535714Y-90410771D01*
X172535714Y-90410771D02*
X172488095Y-90315533D01*
X172488095Y-90315533D02*
X172488095Y-90220295D01*
X172488095Y-90220295D02*
X172535714Y-90125057D01*
X172535714Y-90125057D02*
X172583333Y-90077438D01*
X172583333Y-90077438D02*
X172678571Y-90029819D01*
X172678571Y-90029819D02*
X172916666Y-90029819D01*
X172916666Y-90029819D02*
X173059523Y-90077438D01*
X173392857Y-90029819D02*
X174011904Y-90029819D01*
X174011904Y-90029819D02*
X173678571Y-90410771D01*
X173678571Y-90410771D02*
X173821428Y-90410771D01*
X173821428Y-90410771D02*
X173916666Y-90458390D01*
X173916666Y-90458390D02*
X173964285Y-90506009D01*
X173964285Y-90506009D02*
X174011904Y-90601247D01*
X174011904Y-90601247D02*
X174011904Y-90839342D01*
X174011904Y-90839342D02*
X173964285Y-90934580D01*
X173964285Y-90934580D02*
X173916666Y-90982200D01*
X173916666Y-90982200D02*
X173821428Y-91029819D01*
X173821428Y-91029819D02*
X173535714Y-91029819D01*
X173535714Y-91029819D02*
X173440476Y-90982200D01*
X173440476Y-90982200D02*
X173392857Y-90934580D01*
X172047618Y-51370180D02*
X171428571Y-51370180D01*
X171428571Y-51370180D02*
X171761904Y-50989228D01*
X171761904Y-50989228D02*
X171619047Y-50989228D01*
X171619047Y-50989228D02*
X171523809Y-50941609D01*
X171523809Y-50941609D02*
X171476190Y-50893990D01*
X171476190Y-50893990D02*
X171428571Y-50798752D01*
X171428571Y-50798752D02*
X171428571Y-50560657D01*
X171428571Y-50560657D02*
X171476190Y-50465419D01*
X171476190Y-50465419D02*
X171523809Y-50417800D01*
X171523809Y-50417800D02*
X171619047Y-50370180D01*
X171619047Y-50370180D02*
X171904761Y-50370180D01*
X171904761Y-50370180D02*
X171999999Y-50417800D01*
X171999999Y-50417800D02*
X172047618Y-50465419D01*
X170999999Y-50465419D02*
X170952380Y-50417800D01*
X170952380Y-50417800D02*
X170999999Y-50370180D01*
X170999999Y-50370180D02*
X171047618Y-50417800D01*
X171047618Y-50417800D02*
X170999999Y-50465419D01*
X170999999Y-50465419D02*
X170999999Y-50370180D01*
X170619047Y-51370180D02*
X170000000Y-51370180D01*
X170000000Y-51370180D02*
X170333333Y-50989228D01*
X170333333Y-50989228D02*
X170190476Y-50989228D01*
X170190476Y-50989228D02*
X170095238Y-50941609D01*
X170095238Y-50941609D02*
X170047619Y-50893990D01*
X170047619Y-50893990D02*
X170000000Y-50798752D01*
X170000000Y-50798752D02*
X170000000Y-50560657D01*
X170000000Y-50560657D02*
X170047619Y-50465419D01*
X170047619Y-50465419D02*
X170095238Y-50417800D01*
X170095238Y-50417800D02*
X170190476Y-50370180D01*
X170190476Y-50370180D02*
X170476190Y-50370180D01*
X170476190Y-50370180D02*
X170571428Y-50417800D01*
X170571428Y-50417800D02*
X170619047Y-50465419D01*
X165738095Y-51322561D02*
X165833333Y-51370180D01*
X165833333Y-51370180D02*
X165976190Y-51370180D01*
X165976190Y-51370180D02*
X166119047Y-51322561D01*
X166119047Y-51322561D02*
X166214285Y-51227323D01*
X166214285Y-51227323D02*
X166261904Y-51132085D01*
X166261904Y-51132085D02*
X166309523Y-50941609D01*
X166309523Y-50941609D02*
X166309523Y-50798752D01*
X166309523Y-50798752D02*
X166261904Y-50608276D01*
X166261904Y-50608276D02*
X166214285Y-50513038D01*
X166214285Y-50513038D02*
X166119047Y-50417800D01*
X166119047Y-50417800D02*
X165976190Y-50370180D01*
X165976190Y-50370180D02*
X165880952Y-50370180D01*
X165880952Y-50370180D02*
X165738095Y-50417800D01*
X165738095Y-50417800D02*
X165690476Y-50465419D01*
X165690476Y-50465419D02*
X165690476Y-50798752D01*
X165690476Y-50798752D02*
X165880952Y-50798752D01*
X160461904Y-51370180D02*
X160938094Y-51370180D01*
X160938094Y-51370180D02*
X160985713Y-50893990D01*
X160985713Y-50893990D02*
X160938094Y-50941609D01*
X160938094Y-50941609D02*
X160842856Y-50989228D01*
X160842856Y-50989228D02*
X160604761Y-50989228D01*
X160604761Y-50989228D02*
X160509523Y-50941609D01*
X160509523Y-50941609D02*
X160461904Y-50893990D01*
X160461904Y-50893990D02*
X160414285Y-50798752D01*
X160414285Y-50798752D02*
X160414285Y-50560657D01*
X160414285Y-50560657D02*
X160461904Y-50465419D01*
X160461904Y-50465419D02*
X160509523Y-50417800D01*
X160509523Y-50417800D02*
X160604761Y-50370180D01*
X160604761Y-50370180D02*
X160842856Y-50370180D01*
X160842856Y-50370180D02*
X160938094Y-50417800D01*
X160938094Y-50417800D02*
X160985713Y-50465419D01*
X179154761Y-50893990D02*
X179011904Y-50846371D01*
X179011904Y-50846371D02*
X178964285Y-50798752D01*
X178964285Y-50798752D02*
X178916666Y-50703514D01*
X178916666Y-50703514D02*
X178916666Y-50560657D01*
X178916666Y-50560657D02*
X178964285Y-50465419D01*
X178964285Y-50465419D02*
X179011904Y-50417800D01*
X179011904Y-50417800D02*
X179107142Y-50370180D01*
X179107142Y-50370180D02*
X179488094Y-50370180D01*
X179488094Y-50370180D02*
X179488094Y-51370180D01*
X179488094Y-51370180D02*
X179154761Y-51370180D01*
X179154761Y-51370180D02*
X179059523Y-51322561D01*
X179059523Y-51322561D02*
X179011904Y-51274942D01*
X179011904Y-51274942D02*
X178964285Y-51179704D01*
X178964285Y-51179704D02*
X178964285Y-51084466D01*
X178964285Y-51084466D02*
X179011904Y-50989228D01*
X179011904Y-50989228D02*
X179059523Y-50941609D01*
X179059523Y-50941609D02*
X179154761Y-50893990D01*
X179154761Y-50893990D02*
X179488094Y-50893990D01*
X178583332Y-51370180D02*
X177916666Y-51370180D01*
X177916666Y-51370180D02*
X178583332Y-50370180D01*
X178583332Y-50370180D02*
X177916666Y-50370180D01*
X176011904Y-90077438D02*
X175916666Y-90029819D01*
X175916666Y-90029819D02*
X175773809Y-90029819D01*
X175773809Y-90029819D02*
X175630952Y-90077438D01*
X175630952Y-90077438D02*
X175535714Y-90172676D01*
X175535714Y-90172676D02*
X175488095Y-90267914D01*
X175488095Y-90267914D02*
X175440476Y-90458390D01*
X175440476Y-90458390D02*
X175440476Y-90601247D01*
X175440476Y-90601247D02*
X175488095Y-90791723D01*
X175488095Y-90791723D02*
X175535714Y-90886961D01*
X175535714Y-90886961D02*
X175630952Y-90982200D01*
X175630952Y-90982200D02*
X175773809Y-91029819D01*
X175773809Y-91029819D02*
X175869047Y-91029819D01*
X175869047Y-91029819D02*
X176011904Y-90982200D01*
X176011904Y-90982200D02*
X176059523Y-90934580D01*
X176059523Y-90934580D02*
X176059523Y-90601247D01*
X176059523Y-90601247D02*
X175869047Y-90601247D01*
X162938095Y-51322561D02*
X163033333Y-51370180D01*
X163033333Y-51370180D02*
X163176190Y-51370180D01*
X163176190Y-51370180D02*
X163319047Y-51322561D01*
X163319047Y-51322561D02*
X163414285Y-51227323D01*
X163414285Y-51227323D02*
X163461904Y-51132085D01*
X163461904Y-51132085D02*
X163509523Y-50941609D01*
X163509523Y-50941609D02*
X163509523Y-50798752D01*
X163509523Y-50798752D02*
X163461904Y-50608276D01*
X163461904Y-50608276D02*
X163414285Y-50513038D01*
X163414285Y-50513038D02*
X163319047Y-50417800D01*
X163319047Y-50417800D02*
X163176190Y-50370180D01*
X163176190Y-50370180D02*
X163080952Y-50370180D01*
X163080952Y-50370180D02*
X162938095Y-50417800D01*
X162938095Y-50417800D02*
X162890476Y-50465419D01*
X162890476Y-50465419D02*
X162890476Y-50798752D01*
X162890476Y-50798752D02*
X163080952Y-50798752D01*
X164559524Y-94432200D02*
X164702381Y-94479819D01*
X164702381Y-94479819D02*
X164940476Y-94479819D01*
X164940476Y-94479819D02*
X165035714Y-94432200D01*
X165035714Y-94432200D02*
X165083333Y-94384580D01*
X165083333Y-94384580D02*
X165130952Y-94289342D01*
X165130952Y-94289342D02*
X165130952Y-94194104D01*
X165130952Y-94194104D02*
X165083333Y-94098866D01*
X165083333Y-94098866D02*
X165035714Y-94051247D01*
X165035714Y-94051247D02*
X164940476Y-94003628D01*
X164940476Y-94003628D02*
X164750000Y-93956009D01*
X164750000Y-93956009D02*
X164654762Y-93908390D01*
X164654762Y-93908390D02*
X164607143Y-93860771D01*
X164607143Y-93860771D02*
X164559524Y-93765533D01*
X164559524Y-93765533D02*
X164559524Y-93670295D01*
X164559524Y-93670295D02*
X164607143Y-93575057D01*
X164607143Y-93575057D02*
X164654762Y-93527438D01*
X164654762Y-93527438D02*
X164750000Y-93479819D01*
X164750000Y-93479819D02*
X164988095Y-93479819D01*
X164988095Y-93479819D02*
X165130952Y-93527438D01*
X166130952Y-94384580D02*
X166083333Y-94432200D01*
X166083333Y-94432200D02*
X165940476Y-94479819D01*
X165940476Y-94479819D02*
X165845238Y-94479819D01*
X165845238Y-94479819D02*
X165702381Y-94432200D01*
X165702381Y-94432200D02*
X165607143Y-94336961D01*
X165607143Y-94336961D02*
X165559524Y-94241723D01*
X165559524Y-94241723D02*
X165511905Y-94051247D01*
X165511905Y-94051247D02*
X165511905Y-93908390D01*
X165511905Y-93908390D02*
X165559524Y-93717914D01*
X165559524Y-93717914D02*
X165607143Y-93622676D01*
X165607143Y-93622676D02*
X165702381Y-93527438D01*
X165702381Y-93527438D02*
X165845238Y-93479819D01*
X165845238Y-93479819D02*
X165940476Y-93479819D01*
X165940476Y-93479819D02*
X166083333Y-93527438D01*
X166083333Y-93527438D02*
X166130952Y-93575057D01*
X167035714Y-94479819D02*
X166559524Y-94479819D01*
X166559524Y-94479819D02*
X166559524Y-93479819D01*
X169702381Y-89979819D02*
X170321428Y-89979819D01*
X170321428Y-89979819D02*
X169988095Y-90360771D01*
X169988095Y-90360771D02*
X170130952Y-90360771D01*
X170130952Y-90360771D02*
X170226190Y-90408390D01*
X170226190Y-90408390D02*
X170273809Y-90456009D01*
X170273809Y-90456009D02*
X170321428Y-90551247D01*
X170321428Y-90551247D02*
X170321428Y-90789342D01*
X170321428Y-90789342D02*
X170273809Y-90884580D01*
X170273809Y-90884580D02*
X170226190Y-90932200D01*
X170226190Y-90932200D02*
X170130952Y-90979819D01*
X170130952Y-90979819D02*
X169845238Y-90979819D01*
X169845238Y-90979819D02*
X169750000Y-90932200D01*
X169750000Y-90932200D02*
X169702381Y-90884580D01*
X170750000Y-90884580D02*
X170797619Y-90932200D01*
X170797619Y-90932200D02*
X170750000Y-90979819D01*
X170750000Y-90979819D02*
X170702381Y-90932200D01*
X170702381Y-90932200D02*
X170750000Y-90884580D01*
X170750000Y-90884580D02*
X170750000Y-90979819D01*
X171130952Y-89979819D02*
X171749999Y-89979819D01*
X171749999Y-89979819D02*
X171416666Y-90360771D01*
X171416666Y-90360771D02*
X171559523Y-90360771D01*
X171559523Y-90360771D02*
X171654761Y-90408390D01*
X171654761Y-90408390D02*
X171702380Y-90456009D01*
X171702380Y-90456009D02*
X171749999Y-90551247D01*
X171749999Y-90551247D02*
X171749999Y-90789342D01*
X171749999Y-90789342D02*
X171702380Y-90884580D01*
X171702380Y-90884580D02*
X171654761Y-90932200D01*
X171654761Y-90932200D02*
X171559523Y-90979819D01*
X171559523Y-90979819D02*
X171273809Y-90979819D01*
X171273809Y-90979819D02*
X171178571Y-90932200D01*
X171178571Y-90932200D02*
X171130952Y-90884580D01*
X175988095Y-51322561D02*
X176083333Y-51370180D01*
X176083333Y-51370180D02*
X176226190Y-51370180D01*
X176226190Y-51370180D02*
X176369047Y-51322561D01*
X176369047Y-51322561D02*
X176464285Y-51227323D01*
X176464285Y-51227323D02*
X176511904Y-51132085D01*
X176511904Y-51132085D02*
X176559523Y-50941609D01*
X176559523Y-50941609D02*
X176559523Y-50798752D01*
X176559523Y-50798752D02*
X176511904Y-50608276D01*
X176511904Y-50608276D02*
X176464285Y-50513038D01*
X176464285Y-50513038D02*
X176369047Y-50417800D01*
X176369047Y-50417800D02*
X176226190Y-50370180D01*
X176226190Y-50370180D02*
X176130952Y-50370180D01*
X176130952Y-50370180D02*
X175988095Y-50417800D01*
X175988095Y-50417800D02*
X175940476Y-50465419D01*
X175940476Y-50465419D02*
X175940476Y-50798752D01*
X175940476Y-50798752D02*
X176130952Y-50798752D01*
X169261904Y-50417800D02*
X169119047Y-50370180D01*
X169119047Y-50370180D02*
X168880952Y-50370180D01*
X168880952Y-50370180D02*
X168785714Y-50417800D01*
X168785714Y-50417800D02*
X168738095Y-50465419D01*
X168738095Y-50465419D02*
X168690476Y-50560657D01*
X168690476Y-50560657D02*
X168690476Y-50655895D01*
X168690476Y-50655895D02*
X168738095Y-50751133D01*
X168738095Y-50751133D02*
X168785714Y-50798752D01*
X168785714Y-50798752D02*
X168880952Y-50846371D01*
X168880952Y-50846371D02*
X169071428Y-50893990D01*
X169071428Y-50893990D02*
X169166666Y-50941609D01*
X169166666Y-50941609D02*
X169214285Y-50989228D01*
X169214285Y-50989228D02*
X169261904Y-51084466D01*
X169261904Y-51084466D02*
X169261904Y-51179704D01*
X169261904Y-51179704D02*
X169214285Y-51274942D01*
X169214285Y-51274942D02*
X169166666Y-51322561D01*
X169166666Y-51322561D02*
X169071428Y-51370180D01*
X169071428Y-51370180D02*
X168833333Y-51370180D01*
X168833333Y-51370180D02*
X168690476Y-51322561D01*
X168309523Y-51274942D02*
X168261904Y-51322561D01*
X168261904Y-51322561D02*
X168166666Y-51370180D01*
X168166666Y-51370180D02*
X167928571Y-51370180D01*
X167928571Y-51370180D02*
X167833333Y-51322561D01*
X167833333Y-51322561D02*
X167785714Y-51274942D01*
X167785714Y-51274942D02*
X167738095Y-51179704D01*
X167738095Y-51179704D02*
X167738095Y-51084466D01*
X167738095Y-51084466D02*
X167785714Y-50941609D01*
X167785714Y-50941609D02*
X168357142Y-50370180D01*
X168357142Y-50370180D02*
X167738095Y-50370180D01*
X173488095Y-51272561D02*
X173583333Y-51320180D01*
X173583333Y-51320180D02*
X173726190Y-51320180D01*
X173726190Y-51320180D02*
X173869047Y-51272561D01*
X173869047Y-51272561D02*
X173964285Y-51177323D01*
X173964285Y-51177323D02*
X174011904Y-51082085D01*
X174011904Y-51082085D02*
X174059523Y-50891609D01*
X174059523Y-50891609D02*
X174059523Y-50748752D01*
X174059523Y-50748752D02*
X174011904Y-50558276D01*
X174011904Y-50558276D02*
X173964285Y-50463038D01*
X173964285Y-50463038D02*
X173869047Y-50367800D01*
X173869047Y-50367800D02*
X173726190Y-50320180D01*
X173726190Y-50320180D02*
X173630952Y-50320180D01*
X173630952Y-50320180D02*
X173488095Y-50367800D01*
X173488095Y-50367800D02*
X173440476Y-50415419D01*
X173440476Y-50415419D02*
X173440476Y-50748752D01*
X173440476Y-50748752D02*
X173630952Y-50748752D01*
X169702381Y-97029819D02*
X170321428Y-97029819D01*
X170321428Y-97029819D02*
X169988095Y-97410771D01*
X169988095Y-97410771D02*
X170130952Y-97410771D01*
X170130952Y-97410771D02*
X170226190Y-97458390D01*
X170226190Y-97458390D02*
X170273809Y-97506009D01*
X170273809Y-97506009D02*
X170321428Y-97601247D01*
X170321428Y-97601247D02*
X170321428Y-97839342D01*
X170321428Y-97839342D02*
X170273809Y-97934580D01*
X170273809Y-97934580D02*
X170226190Y-97982200D01*
X170226190Y-97982200D02*
X170130952Y-98029819D01*
X170130952Y-98029819D02*
X169845238Y-98029819D01*
X169845238Y-98029819D02*
X169750000Y-97982200D01*
X169750000Y-97982200D02*
X169702381Y-97934580D01*
X170750000Y-97934580D02*
X170797619Y-97982200D01*
X170797619Y-97982200D02*
X170750000Y-98029819D01*
X170750000Y-98029819D02*
X170702381Y-97982200D01*
X170702381Y-97982200D02*
X170750000Y-97934580D01*
X170750000Y-97934580D02*
X170750000Y-98029819D01*
X171130952Y-97029819D02*
X171749999Y-97029819D01*
X171749999Y-97029819D02*
X171416666Y-97410771D01*
X171416666Y-97410771D02*
X171559523Y-97410771D01*
X171559523Y-97410771D02*
X171654761Y-97458390D01*
X171654761Y-97458390D02*
X171702380Y-97506009D01*
X171702380Y-97506009D02*
X171749999Y-97601247D01*
X171749999Y-97601247D02*
X171749999Y-97839342D01*
X171749999Y-97839342D02*
X171702380Y-97934580D01*
X171702380Y-97934580D02*
X171654761Y-97982200D01*
X171654761Y-97982200D02*
X171559523Y-98029819D01*
X171559523Y-98029819D02*
X171273809Y-98029819D01*
X171273809Y-98029819D02*
X171178571Y-97982200D01*
X171178571Y-97982200D02*
X171130952Y-97934580D01*
X160866666Y-53870180D02*
X161199999Y-54346371D01*
X161438094Y-53870180D02*
X161438094Y-54870180D01*
X161438094Y-54870180D02*
X161057142Y-54870180D01*
X161057142Y-54870180D02*
X160961904Y-54822561D01*
X160961904Y-54822561D02*
X160914285Y-54774942D01*
X160914285Y-54774942D02*
X160866666Y-54679704D01*
X160866666Y-54679704D02*
X160866666Y-54536847D01*
X160866666Y-54536847D02*
X160914285Y-54441609D01*
X160914285Y-54441609D02*
X160961904Y-54393990D01*
X160961904Y-54393990D02*
X161057142Y-54346371D01*
X161057142Y-54346371D02*
X161438094Y-54346371D01*
X160533332Y-54870180D02*
X159866666Y-53870180D01*
X159866666Y-54870180D02*
X160533332Y-53870180D01*
X152287724Y-67011905D02*
X151478201Y-67011905D01*
X151478201Y-67011905D02*
X151382963Y-67059524D01*
X151382963Y-67059524D02*
X151335344Y-67107143D01*
X151335344Y-67107143D02*
X151287724Y-67202381D01*
X151287724Y-67202381D02*
X151287724Y-67392857D01*
X151287724Y-67392857D02*
X151335344Y-67488095D01*
X151335344Y-67488095D02*
X151382963Y-67535714D01*
X151382963Y-67535714D02*
X151478201Y-67583333D01*
X151478201Y-67583333D02*
X152287724Y-67583333D01*
X151287724Y-68583333D02*
X151287724Y-68011905D01*
X151287724Y-68297619D02*
X152287724Y-68297619D01*
X152287724Y-68297619D02*
X152144867Y-68202381D01*
X152144867Y-68202381D02*
X152049629Y-68107143D01*
X152049629Y-68107143D02*
X152002010Y-68011905D01*
X151859153Y-69154762D02*
X151906772Y-69059524D01*
X151906772Y-69059524D02*
X151954391Y-69011905D01*
X151954391Y-69011905D02*
X152049629Y-68964286D01*
X152049629Y-68964286D02*
X152097248Y-68964286D01*
X152097248Y-68964286D02*
X152192486Y-69011905D01*
X152192486Y-69011905D02*
X152240105Y-69059524D01*
X152240105Y-69059524D02*
X152287724Y-69154762D01*
X152287724Y-69154762D02*
X152287724Y-69345238D01*
X152287724Y-69345238D02*
X152240105Y-69440476D01*
X152240105Y-69440476D02*
X152192486Y-69488095D01*
X152192486Y-69488095D02*
X152097248Y-69535714D01*
X152097248Y-69535714D02*
X152049629Y-69535714D01*
X152049629Y-69535714D02*
X151954391Y-69488095D01*
X151954391Y-69488095D02*
X151906772Y-69440476D01*
X151906772Y-69440476D02*
X151859153Y-69345238D01*
X151859153Y-69345238D02*
X151859153Y-69154762D01*
X151859153Y-69154762D02*
X151811534Y-69059524D01*
X151811534Y-69059524D02*
X151763915Y-69011905D01*
X151763915Y-69011905D02*
X151668677Y-68964286D01*
X151668677Y-68964286D02*
X151478201Y-68964286D01*
X151478201Y-68964286D02*
X151382963Y-69011905D01*
X151382963Y-69011905D02*
X151335344Y-69059524D01*
X151335344Y-69059524D02*
X151287724Y-69154762D01*
X151287724Y-69154762D02*
X151287724Y-69345238D01*
X151287724Y-69345238D02*
X151335344Y-69440476D01*
X151335344Y-69440476D02*
X151382963Y-69488095D01*
X151382963Y-69488095D02*
X151478201Y-69535714D01*
X151478201Y-69535714D02*
X151668677Y-69535714D01*
X151668677Y-69535714D02*
X151763915Y-69488095D01*
X151763915Y-69488095D02*
X151811534Y-69440476D01*
X151811534Y-69440476D02*
X151859153Y-69345238D01*
X158299693Y-58458830D02*
X158299693Y-58526174D01*
X158299693Y-58526174D02*
X158232349Y-58660861D01*
X158232349Y-58660861D02*
X158165006Y-58728204D01*
X158165006Y-58728204D02*
X158030319Y-58795548D01*
X158030319Y-58795548D02*
X157895632Y-58795548D01*
X157895632Y-58795548D02*
X157794617Y-58761876D01*
X157794617Y-58761876D02*
X157626258Y-58660861D01*
X157626258Y-58660861D02*
X157525243Y-58559846D01*
X157525243Y-58559846D02*
X157424227Y-58391487D01*
X157424227Y-58391487D02*
X157390556Y-58290472D01*
X157390556Y-58290472D02*
X157390556Y-58155785D01*
X157390556Y-58155785D02*
X157457899Y-58021098D01*
X157457899Y-58021098D02*
X157525243Y-57953754D01*
X157525243Y-57953754D02*
X157659930Y-57886411D01*
X157659930Y-57886411D02*
X157727273Y-57886411D01*
X157996647Y-57617037D02*
X157996647Y-57549693D01*
X157996647Y-57549693D02*
X158030319Y-57448678D01*
X158030319Y-57448678D02*
X158198678Y-57280319D01*
X158198678Y-57280319D02*
X158299693Y-57246647D01*
X158299693Y-57246647D02*
X158367036Y-57246647D01*
X158367036Y-57246647D02*
X158468052Y-57280319D01*
X158468052Y-57280319D02*
X158535395Y-57347663D01*
X158535395Y-57347663D02*
X158602739Y-57482350D01*
X158602739Y-57482350D02*
X158602739Y-58290472D01*
X158602739Y-58290472D02*
X159040471Y-57852739D01*
X158973128Y-56505869D02*
X158636410Y-56842586D01*
X158636410Y-56842586D02*
X158939456Y-57212975D01*
X158939456Y-57212975D02*
X158939456Y-57145632D01*
X158939456Y-57145632D02*
X158973128Y-57044617D01*
X158973128Y-57044617D02*
X159141487Y-56876258D01*
X159141487Y-56876258D02*
X159242502Y-56842586D01*
X159242502Y-56842586D02*
X159309846Y-56842586D01*
X159309846Y-56842586D02*
X159410861Y-56876258D01*
X159410861Y-56876258D02*
X159579220Y-57044617D01*
X159579220Y-57044617D02*
X159612891Y-57145632D01*
X159612891Y-57145632D02*
X159612891Y-57212975D01*
X159612891Y-57212975D02*
X159579220Y-57313991D01*
X159579220Y-57313991D02*
X159410861Y-57482349D01*
X159410861Y-57482349D02*
X159309846Y-57516021D01*
X159309846Y-57516021D02*
X159242502Y-57516021D01*
X186157142Y-86954819D02*
X185823809Y-86478628D01*
X185585714Y-86954819D02*
X185585714Y-85954819D01*
X185585714Y-85954819D02*
X185966666Y-85954819D01*
X185966666Y-85954819D02*
X186061904Y-86002438D01*
X186061904Y-86002438D02*
X186109523Y-86050057D01*
X186109523Y-86050057D02*
X186157142Y-86145295D01*
X186157142Y-86145295D02*
X186157142Y-86288152D01*
X186157142Y-86288152D02*
X186109523Y-86383390D01*
X186109523Y-86383390D02*
X186061904Y-86431009D01*
X186061904Y-86431009D02*
X185966666Y-86478628D01*
X185966666Y-86478628D02*
X185585714Y-86478628D01*
X187109523Y-86954819D02*
X186538095Y-86954819D01*
X186823809Y-86954819D02*
X186823809Y-85954819D01*
X186823809Y-85954819D02*
X186728571Y-86097676D01*
X186728571Y-86097676D02*
X186633333Y-86192914D01*
X186633333Y-86192914D02*
X186538095Y-86240533D01*
X188061904Y-86954819D02*
X187490476Y-86954819D01*
X187776190Y-86954819D02*
X187776190Y-85954819D01*
X187776190Y-85954819D02*
X187680952Y-86097676D01*
X187680952Y-86097676D02*
X187585714Y-86192914D01*
X187585714Y-86192914D02*
X187490476Y-86240533D01*
X196011905Y-67954819D02*
X196011905Y-68764342D01*
X196011905Y-68764342D02*
X196059524Y-68859580D01*
X196059524Y-68859580D02*
X196107143Y-68907200D01*
X196107143Y-68907200D02*
X196202381Y-68954819D01*
X196202381Y-68954819D02*
X196392857Y-68954819D01*
X196392857Y-68954819D02*
X196488095Y-68907200D01*
X196488095Y-68907200D02*
X196535714Y-68859580D01*
X196535714Y-68859580D02*
X196583333Y-68764342D01*
X196583333Y-68764342D02*
X196583333Y-67954819D01*
X197583333Y-68954819D02*
X197011905Y-68954819D01*
X197297619Y-68954819D02*
X197297619Y-67954819D01*
X197297619Y-67954819D02*
X197202381Y-68097676D01*
X197202381Y-68097676D02*
X197107143Y-68192914D01*
X197107143Y-68192914D02*
X197011905Y-68240533D01*
X198202381Y-67954819D02*
X198297619Y-67954819D01*
X198297619Y-67954819D02*
X198392857Y-68002438D01*
X198392857Y-68002438D02*
X198440476Y-68050057D01*
X198440476Y-68050057D02*
X198488095Y-68145295D01*
X198488095Y-68145295D02*
X198535714Y-68335771D01*
X198535714Y-68335771D02*
X198535714Y-68573866D01*
X198535714Y-68573866D02*
X198488095Y-68764342D01*
X198488095Y-68764342D02*
X198440476Y-68859580D01*
X198440476Y-68859580D02*
X198392857Y-68907200D01*
X198392857Y-68907200D02*
X198297619Y-68954819D01*
X198297619Y-68954819D02*
X198202381Y-68954819D01*
X198202381Y-68954819D02*
X198107143Y-68907200D01*
X198107143Y-68907200D02*
X198059524Y-68859580D01*
X198059524Y-68859580D02*
X198011905Y-68764342D01*
X198011905Y-68764342D02*
X197964286Y-68573866D01*
X197964286Y-68573866D02*
X197964286Y-68335771D01*
X197964286Y-68335771D02*
X198011905Y-68145295D01*
X198011905Y-68145295D02*
X198059524Y-68050057D01*
X198059524Y-68050057D02*
X198107143Y-68002438D01*
X198107143Y-68002438D02*
X198202381Y-67954819D01*
X193607142Y-51609580D02*
X193559523Y-51657200D01*
X193559523Y-51657200D02*
X193416666Y-51704819D01*
X193416666Y-51704819D02*
X193321428Y-51704819D01*
X193321428Y-51704819D02*
X193178571Y-51657200D01*
X193178571Y-51657200D02*
X193083333Y-51561961D01*
X193083333Y-51561961D02*
X193035714Y-51466723D01*
X193035714Y-51466723D02*
X192988095Y-51276247D01*
X192988095Y-51276247D02*
X192988095Y-51133390D01*
X192988095Y-51133390D02*
X193035714Y-50942914D01*
X193035714Y-50942914D02*
X193083333Y-50847676D01*
X193083333Y-50847676D02*
X193178571Y-50752438D01*
X193178571Y-50752438D02*
X193321428Y-50704819D01*
X193321428Y-50704819D02*
X193416666Y-50704819D01*
X193416666Y-50704819D02*
X193559523Y-50752438D01*
X193559523Y-50752438D02*
X193607142Y-50800057D01*
X193940476Y-50704819D02*
X194559523Y-50704819D01*
X194559523Y-50704819D02*
X194226190Y-51085771D01*
X194226190Y-51085771D02*
X194369047Y-51085771D01*
X194369047Y-51085771D02*
X194464285Y-51133390D01*
X194464285Y-51133390D02*
X194511904Y-51181009D01*
X194511904Y-51181009D02*
X194559523Y-51276247D01*
X194559523Y-51276247D02*
X194559523Y-51514342D01*
X194559523Y-51514342D02*
X194511904Y-51609580D01*
X194511904Y-51609580D02*
X194464285Y-51657200D01*
X194464285Y-51657200D02*
X194369047Y-51704819D01*
X194369047Y-51704819D02*
X194083333Y-51704819D01*
X194083333Y-51704819D02*
X193988095Y-51657200D01*
X193988095Y-51657200D02*
X193940476Y-51609580D01*
X195464285Y-50704819D02*
X194988095Y-50704819D01*
X194988095Y-50704819D02*
X194940476Y-51181009D01*
X194940476Y-51181009D02*
X194988095Y-51133390D01*
X194988095Y-51133390D02*
X195083333Y-51085771D01*
X195083333Y-51085771D02*
X195321428Y-51085771D01*
X195321428Y-51085771D02*
X195416666Y-51133390D01*
X195416666Y-51133390D02*
X195464285Y-51181009D01*
X195464285Y-51181009D02*
X195511904Y-51276247D01*
X195511904Y-51276247D02*
X195511904Y-51514342D01*
X195511904Y-51514342D02*
X195464285Y-51609580D01*
X195464285Y-51609580D02*
X195416666Y-51657200D01*
X195416666Y-51657200D02*
X195321428Y-51704819D01*
X195321428Y-51704819D02*
X195083333Y-51704819D01*
X195083333Y-51704819D02*
X194988095Y-51657200D01*
X194988095Y-51657200D02*
X194940476Y-51609580D01*
X197916666Y-88454819D02*
X197916666Y-89169104D01*
X197916666Y-89169104D02*
X197869047Y-89311961D01*
X197869047Y-89311961D02*
X197773809Y-89407200D01*
X197773809Y-89407200D02*
X197630952Y-89454819D01*
X197630952Y-89454819D02*
X197535714Y-89454819D01*
X198297619Y-88454819D02*
X198916666Y-88454819D01*
X198916666Y-88454819D02*
X198583333Y-88835771D01*
X198583333Y-88835771D02*
X198726190Y-88835771D01*
X198726190Y-88835771D02*
X198821428Y-88883390D01*
X198821428Y-88883390D02*
X198869047Y-88931009D01*
X198869047Y-88931009D02*
X198916666Y-89026247D01*
X198916666Y-89026247D02*
X198916666Y-89264342D01*
X198916666Y-89264342D02*
X198869047Y-89359580D01*
X198869047Y-89359580D02*
X198821428Y-89407200D01*
X198821428Y-89407200D02*
X198726190Y-89454819D01*
X198726190Y-89454819D02*
X198440476Y-89454819D01*
X198440476Y-89454819D02*
X198345238Y-89407200D01*
X198345238Y-89407200D02*
X198297619Y-89359580D01*
X177857142Y-90359580D02*
X177809523Y-90407200D01*
X177809523Y-90407200D02*
X177666666Y-90454819D01*
X177666666Y-90454819D02*
X177571428Y-90454819D01*
X177571428Y-90454819D02*
X177428571Y-90407200D01*
X177428571Y-90407200D02*
X177333333Y-90311961D01*
X177333333Y-90311961D02*
X177285714Y-90216723D01*
X177285714Y-90216723D02*
X177238095Y-90026247D01*
X177238095Y-90026247D02*
X177238095Y-89883390D01*
X177238095Y-89883390D02*
X177285714Y-89692914D01*
X177285714Y-89692914D02*
X177333333Y-89597676D01*
X177333333Y-89597676D02*
X177428571Y-89502438D01*
X177428571Y-89502438D02*
X177571428Y-89454819D01*
X177571428Y-89454819D02*
X177666666Y-89454819D01*
X177666666Y-89454819D02*
X177809523Y-89502438D01*
X177809523Y-89502438D02*
X177857142Y-89550057D01*
X178238095Y-89550057D02*
X178285714Y-89502438D01*
X178285714Y-89502438D02*
X178380952Y-89454819D01*
X178380952Y-89454819D02*
X178619047Y-89454819D01*
X178619047Y-89454819D02*
X178714285Y-89502438D01*
X178714285Y-89502438D02*
X178761904Y-89550057D01*
X178761904Y-89550057D02*
X178809523Y-89645295D01*
X178809523Y-89645295D02*
X178809523Y-89740533D01*
X178809523Y-89740533D02*
X178761904Y-89883390D01*
X178761904Y-89883390D02*
X178190476Y-90454819D01*
X178190476Y-90454819D02*
X178809523Y-90454819D01*
X179142857Y-89454819D02*
X179809523Y-89454819D01*
X179809523Y-89454819D02*
X179380952Y-90454819D01*
X188857142Y-82204819D02*
X188523809Y-81728628D01*
X188285714Y-82204819D02*
X188285714Y-81204819D01*
X188285714Y-81204819D02*
X188666666Y-81204819D01*
X188666666Y-81204819D02*
X188761904Y-81252438D01*
X188761904Y-81252438D02*
X188809523Y-81300057D01*
X188809523Y-81300057D02*
X188857142Y-81395295D01*
X188857142Y-81395295D02*
X188857142Y-81538152D01*
X188857142Y-81538152D02*
X188809523Y-81633390D01*
X188809523Y-81633390D02*
X188761904Y-81681009D01*
X188761904Y-81681009D02*
X188666666Y-81728628D01*
X188666666Y-81728628D02*
X188285714Y-81728628D01*
X189809523Y-82204819D02*
X189238095Y-82204819D01*
X189523809Y-82204819D02*
X189523809Y-81204819D01*
X189523809Y-81204819D02*
X189428571Y-81347676D01*
X189428571Y-81347676D02*
X189333333Y-81442914D01*
X189333333Y-81442914D02*
X189238095Y-81490533D01*
X190428571Y-81204819D02*
X190523809Y-81204819D01*
X190523809Y-81204819D02*
X190619047Y-81252438D01*
X190619047Y-81252438D02*
X190666666Y-81300057D01*
X190666666Y-81300057D02*
X190714285Y-81395295D01*
X190714285Y-81395295D02*
X190761904Y-81585771D01*
X190761904Y-81585771D02*
X190761904Y-81823866D01*
X190761904Y-81823866D02*
X190714285Y-82014342D01*
X190714285Y-82014342D02*
X190666666Y-82109580D01*
X190666666Y-82109580D02*
X190619047Y-82157200D01*
X190619047Y-82157200D02*
X190523809Y-82204819D01*
X190523809Y-82204819D02*
X190428571Y-82204819D01*
X190428571Y-82204819D02*
X190333333Y-82157200D01*
X190333333Y-82157200D02*
X190285714Y-82109580D01*
X190285714Y-82109580D02*
X190238095Y-82014342D01*
X190238095Y-82014342D02*
X190190476Y-81823866D01*
X190190476Y-81823866D02*
X190190476Y-81585771D01*
X190190476Y-81585771D02*
X190238095Y-81395295D01*
X190238095Y-81395295D02*
X190285714Y-81300057D01*
X190285714Y-81300057D02*
X190333333Y-81252438D01*
X190333333Y-81252438D02*
X190428571Y-81204819D01*
X172988095Y-71954819D02*
X172988095Y-72764342D01*
X172988095Y-72764342D02*
X173035714Y-72859580D01*
X173035714Y-72859580D02*
X173083333Y-72907200D01*
X173083333Y-72907200D02*
X173178571Y-72954819D01*
X173178571Y-72954819D02*
X173369047Y-72954819D01*
X173369047Y-72954819D02*
X173464285Y-72907200D01*
X173464285Y-72907200D02*
X173511904Y-72859580D01*
X173511904Y-72859580D02*
X173559523Y-72764342D01*
X173559523Y-72764342D02*
X173559523Y-71954819D01*
X174559523Y-72954819D02*
X173988095Y-72954819D01*
X174273809Y-72954819D02*
X174273809Y-71954819D01*
X174273809Y-71954819D02*
X174178571Y-72097676D01*
X174178571Y-72097676D02*
X174083333Y-72192914D01*
X174083333Y-72192914D02*
X173988095Y-72240533D01*
X186833333Y-59745180D02*
X186833333Y-59030895D01*
X186833333Y-59030895D02*
X186880952Y-58888038D01*
X186880952Y-58888038D02*
X186976190Y-58792800D01*
X186976190Y-58792800D02*
X187119047Y-58745180D01*
X187119047Y-58745180D02*
X187214285Y-58745180D01*
X185928571Y-59411847D02*
X185928571Y-58745180D01*
X186166666Y-59792800D02*
X186404761Y-59078514D01*
X186404761Y-59078514D02*
X185785714Y-59078514D01*
X189583333Y-77704819D02*
X189250000Y-77228628D01*
X189011905Y-77704819D02*
X189011905Y-76704819D01*
X189011905Y-76704819D02*
X189392857Y-76704819D01*
X189392857Y-76704819D02*
X189488095Y-76752438D01*
X189488095Y-76752438D02*
X189535714Y-76800057D01*
X189535714Y-76800057D02*
X189583333Y-76895295D01*
X189583333Y-76895295D02*
X189583333Y-77038152D01*
X189583333Y-77038152D02*
X189535714Y-77133390D01*
X189535714Y-77133390D02*
X189488095Y-77181009D01*
X189488095Y-77181009D02*
X189392857Y-77228628D01*
X189392857Y-77228628D02*
X189011905Y-77228628D01*
X189916667Y-76704819D02*
X190535714Y-76704819D01*
X190535714Y-76704819D02*
X190202381Y-77085771D01*
X190202381Y-77085771D02*
X190345238Y-77085771D01*
X190345238Y-77085771D02*
X190440476Y-77133390D01*
X190440476Y-77133390D02*
X190488095Y-77181009D01*
X190488095Y-77181009D02*
X190535714Y-77276247D01*
X190535714Y-77276247D02*
X190535714Y-77514342D01*
X190535714Y-77514342D02*
X190488095Y-77609580D01*
X190488095Y-77609580D02*
X190440476Y-77657200D01*
X190440476Y-77657200D02*
X190345238Y-77704819D01*
X190345238Y-77704819D02*
X190059524Y-77704819D01*
X190059524Y-77704819D02*
X189964286Y-77657200D01*
X189964286Y-77657200D02*
X189916667Y-77609580D01*
X191011905Y-84954819D02*
X191011905Y-85764342D01*
X191011905Y-85764342D02*
X191059524Y-85859580D01*
X191059524Y-85859580D02*
X191107143Y-85907200D01*
X191107143Y-85907200D02*
X191202381Y-85954819D01*
X191202381Y-85954819D02*
X191392857Y-85954819D01*
X191392857Y-85954819D02*
X191488095Y-85907200D01*
X191488095Y-85907200D02*
X191535714Y-85859580D01*
X191535714Y-85859580D02*
X191583333Y-85764342D01*
X191583333Y-85764342D02*
X191583333Y-84954819D01*
X192583333Y-85954819D02*
X192011905Y-85954819D01*
X192297619Y-85954819D02*
X192297619Y-84954819D01*
X192297619Y-84954819D02*
X192202381Y-85097676D01*
X192202381Y-85097676D02*
X192107143Y-85192914D01*
X192107143Y-85192914D02*
X192011905Y-85240533D01*
X192916667Y-84954819D02*
X193535714Y-84954819D01*
X193535714Y-84954819D02*
X193202381Y-85335771D01*
X193202381Y-85335771D02*
X193345238Y-85335771D01*
X193345238Y-85335771D02*
X193440476Y-85383390D01*
X193440476Y-85383390D02*
X193488095Y-85431009D01*
X193488095Y-85431009D02*
X193535714Y-85526247D01*
X193535714Y-85526247D02*
X193535714Y-85764342D01*
X193535714Y-85764342D02*
X193488095Y-85859580D01*
X193488095Y-85859580D02*
X193440476Y-85907200D01*
X193440476Y-85907200D02*
X193345238Y-85954819D01*
X193345238Y-85954819D02*
X193059524Y-85954819D01*
X193059524Y-85954819D02*
X192964286Y-85907200D01*
X192964286Y-85907200D02*
X192916667Y-85859580D01*
X188357142Y-70109580D02*
X188309523Y-70157200D01*
X188309523Y-70157200D02*
X188166666Y-70204819D01*
X188166666Y-70204819D02*
X188071428Y-70204819D01*
X188071428Y-70204819D02*
X187928571Y-70157200D01*
X187928571Y-70157200D02*
X187833333Y-70061961D01*
X187833333Y-70061961D02*
X187785714Y-69966723D01*
X187785714Y-69966723D02*
X187738095Y-69776247D01*
X187738095Y-69776247D02*
X187738095Y-69633390D01*
X187738095Y-69633390D02*
X187785714Y-69442914D01*
X187785714Y-69442914D02*
X187833333Y-69347676D01*
X187833333Y-69347676D02*
X187928571Y-69252438D01*
X187928571Y-69252438D02*
X188071428Y-69204819D01*
X188071428Y-69204819D02*
X188166666Y-69204819D01*
X188166666Y-69204819D02*
X188309523Y-69252438D01*
X188309523Y-69252438D02*
X188357142Y-69300057D01*
X189309523Y-70204819D02*
X188738095Y-70204819D01*
X189023809Y-70204819D02*
X189023809Y-69204819D01*
X189023809Y-69204819D02*
X188928571Y-69347676D01*
X188928571Y-69347676D02*
X188833333Y-69442914D01*
X188833333Y-69442914D02*
X188738095Y-69490533D01*
X190166666Y-69204819D02*
X189976190Y-69204819D01*
X189976190Y-69204819D02*
X189880952Y-69252438D01*
X189880952Y-69252438D02*
X189833333Y-69300057D01*
X189833333Y-69300057D02*
X189738095Y-69442914D01*
X189738095Y-69442914D02*
X189690476Y-69633390D01*
X189690476Y-69633390D02*
X189690476Y-70014342D01*
X189690476Y-70014342D02*
X189738095Y-70109580D01*
X189738095Y-70109580D02*
X189785714Y-70157200D01*
X189785714Y-70157200D02*
X189880952Y-70204819D01*
X189880952Y-70204819D02*
X190071428Y-70204819D01*
X190071428Y-70204819D02*
X190166666Y-70157200D01*
X190166666Y-70157200D02*
X190214285Y-70109580D01*
X190214285Y-70109580D02*
X190261904Y-70014342D01*
X190261904Y-70014342D02*
X190261904Y-69776247D01*
X190261904Y-69776247D02*
X190214285Y-69681009D01*
X190214285Y-69681009D02*
X190166666Y-69633390D01*
X190166666Y-69633390D02*
X190071428Y-69585771D01*
X190071428Y-69585771D02*
X189880952Y-69585771D01*
X189880952Y-69585771D02*
X189785714Y-69633390D01*
X189785714Y-69633390D02*
X189738095Y-69681009D01*
X189738095Y-69681009D02*
X189690476Y-69776247D01*
X193107142Y-65859580D02*
X193059523Y-65907200D01*
X193059523Y-65907200D02*
X192916666Y-65954819D01*
X192916666Y-65954819D02*
X192821428Y-65954819D01*
X192821428Y-65954819D02*
X192678571Y-65907200D01*
X192678571Y-65907200D02*
X192583333Y-65811961D01*
X192583333Y-65811961D02*
X192535714Y-65716723D01*
X192535714Y-65716723D02*
X192488095Y-65526247D01*
X192488095Y-65526247D02*
X192488095Y-65383390D01*
X192488095Y-65383390D02*
X192535714Y-65192914D01*
X192535714Y-65192914D02*
X192583333Y-65097676D01*
X192583333Y-65097676D02*
X192678571Y-65002438D01*
X192678571Y-65002438D02*
X192821428Y-64954819D01*
X192821428Y-64954819D02*
X192916666Y-64954819D01*
X192916666Y-64954819D02*
X193059523Y-65002438D01*
X193059523Y-65002438D02*
X193107142Y-65050057D01*
X193440476Y-64954819D02*
X194059523Y-64954819D01*
X194059523Y-64954819D02*
X193726190Y-65335771D01*
X193726190Y-65335771D02*
X193869047Y-65335771D01*
X193869047Y-65335771D02*
X193964285Y-65383390D01*
X193964285Y-65383390D02*
X194011904Y-65431009D01*
X194011904Y-65431009D02*
X194059523Y-65526247D01*
X194059523Y-65526247D02*
X194059523Y-65764342D01*
X194059523Y-65764342D02*
X194011904Y-65859580D01*
X194011904Y-65859580D02*
X193964285Y-65907200D01*
X193964285Y-65907200D02*
X193869047Y-65954819D01*
X193869047Y-65954819D02*
X193583333Y-65954819D01*
X193583333Y-65954819D02*
X193488095Y-65907200D01*
X193488095Y-65907200D02*
X193440476Y-65859580D01*
X194678571Y-64954819D02*
X194773809Y-64954819D01*
X194773809Y-64954819D02*
X194869047Y-65002438D01*
X194869047Y-65002438D02*
X194916666Y-65050057D01*
X194916666Y-65050057D02*
X194964285Y-65145295D01*
X194964285Y-65145295D02*
X195011904Y-65335771D01*
X195011904Y-65335771D02*
X195011904Y-65573866D01*
X195011904Y-65573866D02*
X194964285Y-65764342D01*
X194964285Y-65764342D02*
X194916666Y-65859580D01*
X194916666Y-65859580D02*
X194869047Y-65907200D01*
X194869047Y-65907200D02*
X194773809Y-65954819D01*
X194773809Y-65954819D02*
X194678571Y-65954819D01*
X194678571Y-65954819D02*
X194583333Y-65907200D01*
X194583333Y-65907200D02*
X194535714Y-65859580D01*
X194535714Y-65859580D02*
X194488095Y-65764342D01*
X194488095Y-65764342D02*
X194440476Y-65573866D01*
X194440476Y-65573866D02*
X194440476Y-65335771D01*
X194440476Y-65335771D02*
X194488095Y-65145295D01*
X194488095Y-65145295D02*
X194535714Y-65050057D01*
X194535714Y-65050057D02*
X194583333Y-65002438D01*
X194583333Y-65002438D02*
X194678571Y-64954819D01*
X185238095Y-92454819D02*
X185238095Y-93264342D01*
X185238095Y-93264342D02*
X185285714Y-93359580D01*
X185285714Y-93359580D02*
X185333333Y-93407200D01*
X185333333Y-93407200D02*
X185428571Y-93454819D01*
X185428571Y-93454819D02*
X185619047Y-93454819D01*
X185619047Y-93454819D02*
X185714285Y-93407200D01*
X185714285Y-93407200D02*
X185761904Y-93359580D01*
X185761904Y-93359580D02*
X185809523Y-93264342D01*
X185809523Y-93264342D02*
X185809523Y-92454819D01*
X186714285Y-92454819D02*
X186523809Y-92454819D01*
X186523809Y-92454819D02*
X186428571Y-92502438D01*
X186428571Y-92502438D02*
X186380952Y-92550057D01*
X186380952Y-92550057D02*
X186285714Y-92692914D01*
X186285714Y-92692914D02*
X186238095Y-92883390D01*
X186238095Y-92883390D02*
X186238095Y-93264342D01*
X186238095Y-93264342D02*
X186285714Y-93359580D01*
X186285714Y-93359580D02*
X186333333Y-93407200D01*
X186333333Y-93407200D02*
X186428571Y-93454819D01*
X186428571Y-93454819D02*
X186619047Y-93454819D01*
X186619047Y-93454819D02*
X186714285Y-93407200D01*
X186714285Y-93407200D02*
X186761904Y-93359580D01*
X186761904Y-93359580D02*
X186809523Y-93264342D01*
X186809523Y-93264342D02*
X186809523Y-93026247D01*
X186809523Y-93026247D02*
X186761904Y-92931009D01*
X186761904Y-92931009D02*
X186714285Y-92883390D01*
X186714285Y-92883390D02*
X186619047Y-92835771D01*
X186619047Y-92835771D02*
X186428571Y-92835771D01*
X186428571Y-92835771D02*
X186333333Y-92883390D01*
X186333333Y-92883390D02*
X186285714Y-92931009D01*
X186285714Y-92931009D02*
X186238095Y-93026247D01*
X190204819Y-76333333D02*
X190919104Y-76333333D01*
X190919104Y-76333333D02*
X191061961Y-76380952D01*
X191061961Y-76380952D02*
X191157200Y-76476190D01*
X191157200Y-76476190D02*
X191204819Y-76619047D01*
X191204819Y-76619047D02*
X191204819Y-76714285D01*
X191204819Y-75333333D02*
X191204819Y-75904761D01*
X191204819Y-75619047D02*
X190204819Y-75619047D01*
X190204819Y-75619047D02*
X190347676Y-75714285D01*
X190347676Y-75714285D02*
X190442914Y-75809523D01*
X190442914Y-75809523D02*
X190490533Y-75904761D01*
X155988095Y-72704819D02*
X155988095Y-73514342D01*
X155988095Y-73514342D02*
X156035714Y-73609580D01*
X156035714Y-73609580D02*
X156083333Y-73657200D01*
X156083333Y-73657200D02*
X156178571Y-73704819D01*
X156178571Y-73704819D02*
X156369047Y-73704819D01*
X156369047Y-73704819D02*
X156464285Y-73657200D01*
X156464285Y-73657200D02*
X156511904Y-73609580D01*
X156511904Y-73609580D02*
X156559523Y-73514342D01*
X156559523Y-73514342D02*
X156559523Y-72704819D01*
X157178571Y-73133390D02*
X157083333Y-73085771D01*
X157083333Y-73085771D02*
X157035714Y-73038152D01*
X157035714Y-73038152D02*
X156988095Y-72942914D01*
X156988095Y-72942914D02*
X156988095Y-72895295D01*
X156988095Y-72895295D02*
X157035714Y-72800057D01*
X157035714Y-72800057D02*
X157083333Y-72752438D01*
X157083333Y-72752438D02*
X157178571Y-72704819D01*
X157178571Y-72704819D02*
X157369047Y-72704819D01*
X157369047Y-72704819D02*
X157464285Y-72752438D01*
X157464285Y-72752438D02*
X157511904Y-72800057D01*
X157511904Y-72800057D02*
X157559523Y-72895295D01*
X157559523Y-72895295D02*
X157559523Y-72942914D01*
X157559523Y-72942914D02*
X157511904Y-73038152D01*
X157511904Y-73038152D02*
X157464285Y-73085771D01*
X157464285Y-73085771D02*
X157369047Y-73133390D01*
X157369047Y-73133390D02*
X157178571Y-73133390D01*
X157178571Y-73133390D02*
X157083333Y-73181009D01*
X157083333Y-73181009D02*
X157035714Y-73228628D01*
X157035714Y-73228628D02*
X156988095Y-73323866D01*
X156988095Y-73323866D02*
X156988095Y-73514342D01*
X156988095Y-73514342D02*
X157035714Y-73609580D01*
X157035714Y-73609580D02*
X157083333Y-73657200D01*
X157083333Y-73657200D02*
X157178571Y-73704819D01*
X157178571Y-73704819D02*
X157369047Y-73704819D01*
X157369047Y-73704819D02*
X157464285Y-73657200D01*
X157464285Y-73657200D02*
X157511904Y-73609580D01*
X157511904Y-73609580D02*
X157559523Y-73514342D01*
X157559523Y-73514342D02*
X157559523Y-73323866D01*
X157559523Y-73323866D02*
X157511904Y-73228628D01*
X157511904Y-73228628D02*
X157464285Y-73181009D01*
X157464285Y-73181009D02*
X157369047Y-73133390D01*
X190609580Y-63892857D02*
X190657200Y-63940476D01*
X190657200Y-63940476D02*
X190704819Y-64083333D01*
X190704819Y-64083333D02*
X190704819Y-64178571D01*
X190704819Y-64178571D02*
X190657200Y-64321428D01*
X190657200Y-64321428D02*
X190561961Y-64416666D01*
X190561961Y-64416666D02*
X190466723Y-64464285D01*
X190466723Y-64464285D02*
X190276247Y-64511904D01*
X190276247Y-64511904D02*
X190133390Y-64511904D01*
X190133390Y-64511904D02*
X189942914Y-64464285D01*
X189942914Y-64464285D02*
X189847676Y-64416666D01*
X189847676Y-64416666D02*
X189752438Y-64321428D01*
X189752438Y-64321428D02*
X189704819Y-64178571D01*
X189704819Y-64178571D02*
X189704819Y-64083333D01*
X189704819Y-64083333D02*
X189752438Y-63940476D01*
X189752438Y-63940476D02*
X189800057Y-63892857D01*
X189704819Y-63559523D02*
X189704819Y-62940476D01*
X189704819Y-62940476D02*
X190085771Y-63273809D01*
X190085771Y-63273809D02*
X190085771Y-63130952D01*
X190085771Y-63130952D02*
X190133390Y-63035714D01*
X190133390Y-63035714D02*
X190181009Y-62988095D01*
X190181009Y-62988095D02*
X190276247Y-62940476D01*
X190276247Y-62940476D02*
X190514342Y-62940476D01*
X190514342Y-62940476D02*
X190609580Y-62988095D01*
X190609580Y-62988095D02*
X190657200Y-63035714D01*
X190657200Y-63035714D02*
X190704819Y-63130952D01*
X190704819Y-63130952D02*
X190704819Y-63416666D01*
X190704819Y-63416666D02*
X190657200Y-63511904D01*
X190657200Y-63511904D02*
X190609580Y-63559523D01*
X190704819Y-61988095D02*
X190704819Y-62559523D01*
X190704819Y-62273809D02*
X189704819Y-62273809D01*
X189704819Y-62273809D02*
X189847676Y-62369047D01*
X189847676Y-62369047D02*
X189942914Y-62464285D01*
X189942914Y-62464285D02*
X189990533Y-62559523D01*
X157609580Y-64616666D02*
X157657200Y-64664285D01*
X157657200Y-64664285D02*
X157704819Y-64807142D01*
X157704819Y-64807142D02*
X157704819Y-64902380D01*
X157704819Y-64902380D02*
X157657200Y-65045237D01*
X157657200Y-65045237D02*
X157561961Y-65140475D01*
X157561961Y-65140475D02*
X157466723Y-65188094D01*
X157466723Y-65188094D02*
X157276247Y-65235713D01*
X157276247Y-65235713D02*
X157133390Y-65235713D01*
X157133390Y-65235713D02*
X156942914Y-65188094D01*
X156942914Y-65188094D02*
X156847676Y-65140475D01*
X156847676Y-65140475D02*
X156752438Y-65045237D01*
X156752438Y-65045237D02*
X156704819Y-64902380D01*
X156704819Y-64902380D02*
X156704819Y-64807142D01*
X156704819Y-64807142D02*
X156752438Y-64664285D01*
X156752438Y-64664285D02*
X156800057Y-64616666D01*
X157704819Y-63664285D02*
X157704819Y-64235713D01*
X157704819Y-63949999D02*
X156704819Y-63949999D01*
X156704819Y-63949999D02*
X156847676Y-64045237D01*
X156847676Y-64045237D02*
X156942914Y-64140475D01*
X156942914Y-64140475D02*
X156990533Y-64235713D01*
X158833333Y-61704819D02*
X158500000Y-61228628D01*
X158261905Y-61704819D02*
X158261905Y-60704819D01*
X158261905Y-60704819D02*
X158642857Y-60704819D01*
X158642857Y-60704819D02*
X158738095Y-60752438D01*
X158738095Y-60752438D02*
X158785714Y-60800057D01*
X158785714Y-60800057D02*
X158833333Y-60895295D01*
X158833333Y-60895295D02*
X158833333Y-61038152D01*
X158833333Y-61038152D02*
X158785714Y-61133390D01*
X158785714Y-61133390D02*
X158738095Y-61181009D01*
X158738095Y-61181009D02*
X158642857Y-61228628D01*
X158642857Y-61228628D02*
X158261905Y-61228628D01*
X159214286Y-60800057D02*
X159261905Y-60752438D01*
X159261905Y-60752438D02*
X159357143Y-60704819D01*
X159357143Y-60704819D02*
X159595238Y-60704819D01*
X159595238Y-60704819D02*
X159690476Y-60752438D01*
X159690476Y-60752438D02*
X159738095Y-60800057D01*
X159738095Y-60800057D02*
X159785714Y-60895295D01*
X159785714Y-60895295D02*
X159785714Y-60990533D01*
X159785714Y-60990533D02*
X159738095Y-61133390D01*
X159738095Y-61133390D02*
X159166667Y-61704819D01*
X159166667Y-61704819D02*
X159785714Y-61704819D01*
X150761905Y-91704819D02*
X150761905Y-92514342D01*
X150761905Y-92514342D02*
X150809524Y-92609580D01*
X150809524Y-92609580D02*
X150857143Y-92657200D01*
X150857143Y-92657200D02*
X150952381Y-92704819D01*
X150952381Y-92704819D02*
X151142857Y-92704819D01*
X151142857Y-92704819D02*
X151238095Y-92657200D01*
X151238095Y-92657200D02*
X151285714Y-92609580D01*
X151285714Y-92609580D02*
X151333333Y-92514342D01*
X151333333Y-92514342D02*
X151333333Y-91704819D01*
X152333333Y-92704819D02*
X151761905Y-92704819D01*
X152047619Y-92704819D02*
X152047619Y-91704819D01*
X152047619Y-91704819D02*
X151952381Y-91847676D01*
X151952381Y-91847676D02*
X151857143Y-91942914D01*
X151857143Y-91942914D02*
X151761905Y-91990533D01*
X152714286Y-91800057D02*
X152761905Y-91752438D01*
X152761905Y-91752438D02*
X152857143Y-91704819D01*
X152857143Y-91704819D02*
X153095238Y-91704819D01*
X153095238Y-91704819D02*
X153190476Y-91752438D01*
X153190476Y-91752438D02*
X153238095Y-91800057D01*
X153238095Y-91800057D02*
X153285714Y-91895295D01*
X153285714Y-91895295D02*
X153285714Y-91990533D01*
X153285714Y-91990533D02*
X153238095Y-92133390D01*
X153238095Y-92133390D02*
X152666667Y-92704819D01*
X152666667Y-92704819D02*
X153285714Y-92704819D01*
X152000000Y-87454819D02*
X152000000Y-87692914D01*
X151761905Y-87597676D02*
X152000000Y-87692914D01*
X152000000Y-87692914D02*
X152238095Y-87597676D01*
X151857143Y-87883390D02*
X152000000Y-87692914D01*
X152000000Y-87692914D02*
X152142857Y-87883390D01*
X195204819Y-64488094D02*
X196014342Y-64488094D01*
X196014342Y-64488094D02*
X196109580Y-64440475D01*
X196109580Y-64440475D02*
X196157200Y-64392856D01*
X196157200Y-64392856D02*
X196204819Y-64297618D01*
X196204819Y-64297618D02*
X196204819Y-64107142D01*
X196204819Y-64107142D02*
X196157200Y-64011904D01*
X196157200Y-64011904D02*
X196109580Y-63964285D01*
X196109580Y-63964285D02*
X196014342Y-63916666D01*
X196014342Y-63916666D02*
X195204819Y-63916666D01*
X196204819Y-62916666D02*
X196204819Y-63488094D01*
X196204819Y-63202380D02*
X195204819Y-63202380D01*
X195204819Y-63202380D02*
X195347676Y-63297618D01*
X195347676Y-63297618D02*
X195442914Y-63392856D01*
X195442914Y-63392856D02*
X195490533Y-63488094D01*
X196204819Y-61964285D02*
X196204819Y-62535713D01*
X196204819Y-62249999D02*
X195204819Y-62249999D01*
X195204819Y-62249999D02*
X195347676Y-62345237D01*
X195347676Y-62345237D02*
X195442914Y-62440475D01*
X195442914Y-62440475D02*
X195490533Y-62535713D01*
X151607142Y-78859580D02*
X151559523Y-78907200D01*
X151559523Y-78907200D02*
X151416666Y-78954819D01*
X151416666Y-78954819D02*
X151321428Y-78954819D01*
X151321428Y-78954819D02*
X151178571Y-78907200D01*
X151178571Y-78907200D02*
X151083333Y-78811961D01*
X151083333Y-78811961D02*
X151035714Y-78716723D01*
X151035714Y-78716723D02*
X150988095Y-78526247D01*
X150988095Y-78526247D02*
X150988095Y-78383390D01*
X150988095Y-78383390D02*
X151035714Y-78192914D01*
X151035714Y-78192914D02*
X151083333Y-78097676D01*
X151083333Y-78097676D02*
X151178571Y-78002438D01*
X151178571Y-78002438D02*
X151321428Y-77954819D01*
X151321428Y-77954819D02*
X151416666Y-77954819D01*
X151416666Y-77954819D02*
X151559523Y-78002438D01*
X151559523Y-78002438D02*
X151607142Y-78050057D01*
X152464285Y-78288152D02*
X152464285Y-78954819D01*
X152226190Y-77907200D02*
X151988095Y-78621485D01*
X151988095Y-78621485D02*
X152607142Y-78621485D01*
X152892857Y-77954819D02*
X153559523Y-77954819D01*
X153559523Y-77954819D02*
X153130952Y-78954819D01*
X158427887Y-83736411D02*
X158360543Y-83736411D01*
X158360543Y-83736411D02*
X158225856Y-83669067D01*
X158225856Y-83669067D02*
X158158513Y-83601724D01*
X158158513Y-83601724D02*
X158091169Y-83467037D01*
X158091169Y-83467037D02*
X158091169Y-83332350D01*
X158091169Y-83332350D02*
X158124841Y-83231335D01*
X158124841Y-83231335D02*
X158225856Y-83062976D01*
X158225856Y-83062976D02*
X158326871Y-82961961D01*
X158326871Y-82961961D02*
X158495230Y-82860945D01*
X158495230Y-82860945D02*
X158596245Y-82827274D01*
X158596245Y-82827274D02*
X158730932Y-82827274D01*
X158730932Y-82827274D02*
X158865619Y-82894617D01*
X158865619Y-82894617D02*
X158932963Y-82961961D01*
X158932963Y-82961961D02*
X159000306Y-83096648D01*
X159000306Y-83096648D02*
X159000306Y-83163991D01*
X159303352Y-83332350D02*
X159774757Y-83803754D01*
X159774757Y-83803754D02*
X158764604Y-84207815D01*
X199609580Y-84892857D02*
X199657200Y-84940476D01*
X199657200Y-84940476D02*
X199704819Y-85083333D01*
X199704819Y-85083333D02*
X199704819Y-85178571D01*
X199704819Y-85178571D02*
X199657200Y-85321428D01*
X199657200Y-85321428D02*
X199561961Y-85416666D01*
X199561961Y-85416666D02*
X199466723Y-85464285D01*
X199466723Y-85464285D02*
X199276247Y-85511904D01*
X199276247Y-85511904D02*
X199133390Y-85511904D01*
X199133390Y-85511904D02*
X198942914Y-85464285D01*
X198942914Y-85464285D02*
X198847676Y-85416666D01*
X198847676Y-85416666D02*
X198752438Y-85321428D01*
X198752438Y-85321428D02*
X198704819Y-85178571D01*
X198704819Y-85178571D02*
X198704819Y-85083333D01*
X198704819Y-85083333D02*
X198752438Y-84940476D01*
X198752438Y-84940476D02*
X198800057Y-84892857D01*
X198704819Y-84559523D02*
X198704819Y-83940476D01*
X198704819Y-83940476D02*
X199085771Y-84273809D01*
X199085771Y-84273809D02*
X199085771Y-84130952D01*
X199085771Y-84130952D02*
X199133390Y-84035714D01*
X199133390Y-84035714D02*
X199181009Y-83988095D01*
X199181009Y-83988095D02*
X199276247Y-83940476D01*
X199276247Y-83940476D02*
X199514342Y-83940476D01*
X199514342Y-83940476D02*
X199609580Y-83988095D01*
X199609580Y-83988095D02*
X199657200Y-84035714D01*
X199657200Y-84035714D02*
X199704819Y-84130952D01*
X199704819Y-84130952D02*
X199704819Y-84416666D01*
X199704819Y-84416666D02*
X199657200Y-84511904D01*
X199657200Y-84511904D02*
X199609580Y-84559523D01*
X198800057Y-83559523D02*
X198752438Y-83511904D01*
X198752438Y-83511904D02*
X198704819Y-83416666D01*
X198704819Y-83416666D02*
X198704819Y-83178571D01*
X198704819Y-83178571D02*
X198752438Y-83083333D01*
X198752438Y-83083333D02*
X198800057Y-83035714D01*
X198800057Y-83035714D02*
X198895295Y-82988095D01*
X198895295Y-82988095D02*
X198990533Y-82988095D01*
X198990533Y-82988095D02*
X199133390Y-83035714D01*
X199133390Y-83035714D02*
X199704819Y-83607142D01*
X199704819Y-83607142D02*
X199704819Y-82988095D01*
X154248095Y-82762819D02*
X154248095Y-83572342D01*
X154248095Y-83572342D02*
X154295714Y-83667580D01*
X154295714Y-83667580D02*
X154343333Y-83715200D01*
X154343333Y-83715200D02*
X154438571Y-83762819D01*
X154438571Y-83762819D02*
X154629047Y-83762819D01*
X154629047Y-83762819D02*
X154724285Y-83715200D01*
X154724285Y-83715200D02*
X154771904Y-83667580D01*
X154771904Y-83667580D02*
X154819523Y-83572342D01*
X154819523Y-83572342D02*
X154819523Y-82762819D01*
X155724285Y-83096152D02*
X155724285Y-83762819D01*
X155486190Y-82715200D02*
X155248095Y-83429485D01*
X155248095Y-83429485D02*
X155867142Y-83429485D01*
X189583333Y-85254819D02*
X189250000Y-84778628D01*
X189011905Y-85254819D02*
X189011905Y-84254819D01*
X189011905Y-84254819D02*
X189392857Y-84254819D01*
X189392857Y-84254819D02*
X189488095Y-84302438D01*
X189488095Y-84302438D02*
X189535714Y-84350057D01*
X189535714Y-84350057D02*
X189583333Y-84445295D01*
X189583333Y-84445295D02*
X189583333Y-84588152D01*
X189583333Y-84588152D02*
X189535714Y-84683390D01*
X189535714Y-84683390D02*
X189488095Y-84731009D01*
X189488095Y-84731009D02*
X189392857Y-84778628D01*
X189392857Y-84778628D02*
X189011905Y-84778628D01*
X190059524Y-85254819D02*
X190250000Y-85254819D01*
X190250000Y-85254819D02*
X190345238Y-85207200D01*
X190345238Y-85207200D02*
X190392857Y-85159580D01*
X190392857Y-85159580D02*
X190488095Y-85016723D01*
X190488095Y-85016723D02*
X190535714Y-84826247D01*
X190535714Y-84826247D02*
X190535714Y-84445295D01*
X190535714Y-84445295D02*
X190488095Y-84350057D01*
X190488095Y-84350057D02*
X190440476Y-84302438D01*
X190440476Y-84302438D02*
X190345238Y-84254819D01*
X190345238Y-84254819D02*
X190154762Y-84254819D01*
X190154762Y-84254819D02*
X190059524Y-84302438D01*
X190059524Y-84302438D02*
X190011905Y-84350057D01*
X190011905Y-84350057D02*
X189964286Y-84445295D01*
X189964286Y-84445295D02*
X189964286Y-84683390D01*
X189964286Y-84683390D02*
X190011905Y-84778628D01*
X190011905Y-84778628D02*
X190059524Y-84826247D01*
X190059524Y-84826247D02*
X190154762Y-84873866D01*
X190154762Y-84873866D02*
X190345238Y-84873866D01*
X190345238Y-84873866D02*
X190440476Y-84826247D01*
X190440476Y-84826247D02*
X190488095Y-84778628D01*
X190488095Y-84778628D02*
X190535714Y-84683390D01*
X197791169Y-55299693D02*
X197723825Y-55299693D01*
X197723825Y-55299693D02*
X197589138Y-55232349D01*
X197589138Y-55232349D02*
X197521795Y-55165006D01*
X197521795Y-55165006D02*
X197454451Y-55030319D01*
X197454451Y-55030319D02*
X197454451Y-54895632D01*
X197454451Y-54895632D02*
X197488123Y-54794617D01*
X197488123Y-54794617D02*
X197589138Y-54626258D01*
X197589138Y-54626258D02*
X197690153Y-54525243D01*
X197690153Y-54525243D02*
X197858512Y-54424227D01*
X197858512Y-54424227D02*
X197959527Y-54390556D01*
X197959527Y-54390556D02*
X198094214Y-54390556D01*
X198094214Y-54390556D02*
X198228901Y-54457899D01*
X198228901Y-54457899D02*
X198296245Y-54525243D01*
X198296245Y-54525243D02*
X198363588Y-54659930D01*
X198363588Y-54659930D02*
X198363588Y-54727273D01*
X198666634Y-54895632D02*
X199104367Y-55333365D01*
X199104367Y-55333365D02*
X198599291Y-55367036D01*
X198599291Y-55367036D02*
X198700306Y-55468052D01*
X198700306Y-55468052D02*
X198733978Y-55569067D01*
X198733978Y-55569067D02*
X198733978Y-55636410D01*
X198733978Y-55636410D02*
X198700306Y-55737426D01*
X198700306Y-55737426D02*
X198531947Y-55905784D01*
X198531947Y-55905784D02*
X198430932Y-55939456D01*
X198430932Y-55939456D02*
X198363588Y-55939456D01*
X198363588Y-55939456D02*
X198262573Y-55905784D01*
X198262573Y-55905784D02*
X198060543Y-55703754D01*
X198060543Y-55703754D02*
X198026871Y-55602739D01*
X198026871Y-55602739D02*
X198026871Y-55535395D01*
X199474756Y-56175159D02*
X199003352Y-56646563D01*
X199575772Y-55737426D02*
X198902337Y-56074143D01*
X198902337Y-56074143D02*
X199340069Y-56511876D01*
X151429580Y-81642857D02*
X151477200Y-81690476D01*
X151477200Y-81690476D02*
X151524819Y-81833333D01*
X151524819Y-81833333D02*
X151524819Y-81928571D01*
X151524819Y-81928571D02*
X151477200Y-82071428D01*
X151477200Y-82071428D02*
X151381961Y-82166666D01*
X151381961Y-82166666D02*
X151286723Y-82214285D01*
X151286723Y-82214285D02*
X151096247Y-82261904D01*
X151096247Y-82261904D02*
X150953390Y-82261904D01*
X150953390Y-82261904D02*
X150762914Y-82214285D01*
X150762914Y-82214285D02*
X150667676Y-82166666D01*
X150667676Y-82166666D02*
X150572438Y-82071428D01*
X150572438Y-82071428D02*
X150524819Y-81928571D01*
X150524819Y-81928571D02*
X150524819Y-81833333D01*
X150524819Y-81833333D02*
X150572438Y-81690476D01*
X150572438Y-81690476D02*
X150620057Y-81642857D01*
X150858152Y-80785714D02*
X151524819Y-80785714D01*
X150477200Y-81023809D02*
X151191485Y-81261904D01*
X151191485Y-81261904D02*
X151191485Y-80642857D01*
X150524819Y-79833333D02*
X150524819Y-80023809D01*
X150524819Y-80023809D02*
X150572438Y-80119047D01*
X150572438Y-80119047D02*
X150620057Y-80166666D01*
X150620057Y-80166666D02*
X150762914Y-80261904D01*
X150762914Y-80261904D02*
X150953390Y-80309523D01*
X150953390Y-80309523D02*
X151334342Y-80309523D01*
X151334342Y-80309523D02*
X151429580Y-80261904D01*
X151429580Y-80261904D02*
X151477200Y-80214285D01*
X151477200Y-80214285D02*
X151524819Y-80119047D01*
X151524819Y-80119047D02*
X151524819Y-79928571D01*
X151524819Y-79928571D02*
X151477200Y-79833333D01*
X151477200Y-79833333D02*
X151429580Y-79785714D01*
X151429580Y-79785714D02*
X151334342Y-79738095D01*
X151334342Y-79738095D02*
X151096247Y-79738095D01*
X151096247Y-79738095D02*
X151001009Y-79785714D01*
X151001009Y-79785714D02*
X150953390Y-79833333D01*
X150953390Y-79833333D02*
X150905771Y-79928571D01*
X150905771Y-79928571D02*
X150905771Y-80119047D01*
X150905771Y-80119047D02*
X150953390Y-80214285D01*
X150953390Y-80214285D02*
X151001009Y-80261904D01*
X151001009Y-80261904D02*
X151096247Y-80309523D01*
X158857142Y-94789580D02*
X158809523Y-94837200D01*
X158809523Y-94837200D02*
X158666666Y-94884819D01*
X158666666Y-94884819D02*
X158571428Y-94884819D01*
X158571428Y-94884819D02*
X158428571Y-94837200D01*
X158428571Y-94837200D02*
X158333333Y-94741961D01*
X158333333Y-94741961D02*
X158285714Y-94646723D01*
X158285714Y-94646723D02*
X158238095Y-94456247D01*
X158238095Y-94456247D02*
X158238095Y-94313390D01*
X158238095Y-94313390D02*
X158285714Y-94122914D01*
X158285714Y-94122914D02*
X158333333Y-94027676D01*
X158333333Y-94027676D02*
X158428571Y-93932438D01*
X158428571Y-93932438D02*
X158571428Y-93884819D01*
X158571428Y-93884819D02*
X158666666Y-93884819D01*
X158666666Y-93884819D02*
X158809523Y-93932438D01*
X158809523Y-93932438D02*
X158857142Y-93980057D01*
X159761904Y-93884819D02*
X159285714Y-93884819D01*
X159285714Y-93884819D02*
X159238095Y-94361009D01*
X159238095Y-94361009D02*
X159285714Y-94313390D01*
X159285714Y-94313390D02*
X159380952Y-94265771D01*
X159380952Y-94265771D02*
X159619047Y-94265771D01*
X159619047Y-94265771D02*
X159714285Y-94313390D01*
X159714285Y-94313390D02*
X159761904Y-94361009D01*
X159761904Y-94361009D02*
X159809523Y-94456247D01*
X159809523Y-94456247D02*
X159809523Y-94694342D01*
X159809523Y-94694342D02*
X159761904Y-94789580D01*
X159761904Y-94789580D02*
X159714285Y-94837200D01*
X159714285Y-94837200D02*
X159619047Y-94884819D01*
X159619047Y-94884819D02*
X159380952Y-94884819D01*
X159380952Y-94884819D02*
X159285714Y-94837200D01*
X159285714Y-94837200D02*
X159238095Y-94789580D01*
X160428571Y-93884819D02*
X160523809Y-93884819D01*
X160523809Y-93884819D02*
X160619047Y-93932438D01*
X160619047Y-93932438D02*
X160666666Y-93980057D01*
X160666666Y-93980057D02*
X160714285Y-94075295D01*
X160714285Y-94075295D02*
X160761904Y-94265771D01*
X160761904Y-94265771D02*
X160761904Y-94503866D01*
X160761904Y-94503866D02*
X160714285Y-94694342D01*
X160714285Y-94694342D02*
X160666666Y-94789580D01*
X160666666Y-94789580D02*
X160619047Y-94837200D01*
X160619047Y-94837200D02*
X160523809Y-94884819D01*
X160523809Y-94884819D02*
X160428571Y-94884819D01*
X160428571Y-94884819D02*
X160333333Y-94837200D01*
X160333333Y-94837200D02*
X160285714Y-94789580D01*
X160285714Y-94789580D02*
X160238095Y-94694342D01*
X160238095Y-94694342D02*
X160190476Y-94503866D01*
X160190476Y-94503866D02*
X160190476Y-94265771D01*
X160190476Y-94265771D02*
X160238095Y-94075295D01*
X160238095Y-94075295D02*
X160285714Y-93980057D01*
X160285714Y-93980057D02*
X160333333Y-93932438D01*
X160333333Y-93932438D02*
X160428571Y-93884819D01*
X156488095Y-91704819D02*
X156488095Y-92514342D01*
X156488095Y-92514342D02*
X156535714Y-92609580D01*
X156535714Y-92609580D02*
X156583333Y-92657200D01*
X156583333Y-92657200D02*
X156678571Y-92704819D01*
X156678571Y-92704819D02*
X156869047Y-92704819D01*
X156869047Y-92704819D02*
X156964285Y-92657200D01*
X156964285Y-92657200D02*
X157011904Y-92609580D01*
X157011904Y-92609580D02*
X157059523Y-92514342D01*
X157059523Y-92514342D02*
X157059523Y-91704819D01*
X157440476Y-91704819D02*
X158107142Y-91704819D01*
X158107142Y-91704819D02*
X157678571Y-92704819D01*
X198359580Y-84892857D02*
X198407200Y-84940476D01*
X198407200Y-84940476D02*
X198454819Y-85083333D01*
X198454819Y-85083333D02*
X198454819Y-85178571D01*
X198454819Y-85178571D02*
X198407200Y-85321428D01*
X198407200Y-85321428D02*
X198311961Y-85416666D01*
X198311961Y-85416666D02*
X198216723Y-85464285D01*
X198216723Y-85464285D02*
X198026247Y-85511904D01*
X198026247Y-85511904D02*
X197883390Y-85511904D01*
X197883390Y-85511904D02*
X197692914Y-85464285D01*
X197692914Y-85464285D02*
X197597676Y-85416666D01*
X197597676Y-85416666D02*
X197502438Y-85321428D01*
X197502438Y-85321428D02*
X197454819Y-85178571D01*
X197454819Y-85178571D02*
X197454819Y-85083333D01*
X197454819Y-85083333D02*
X197502438Y-84940476D01*
X197502438Y-84940476D02*
X197550057Y-84892857D01*
X197454819Y-84559523D02*
X197454819Y-83940476D01*
X197454819Y-83940476D02*
X197835771Y-84273809D01*
X197835771Y-84273809D02*
X197835771Y-84130952D01*
X197835771Y-84130952D02*
X197883390Y-84035714D01*
X197883390Y-84035714D02*
X197931009Y-83988095D01*
X197931009Y-83988095D02*
X198026247Y-83940476D01*
X198026247Y-83940476D02*
X198264342Y-83940476D01*
X198264342Y-83940476D02*
X198359580Y-83988095D01*
X198359580Y-83988095D02*
X198407200Y-84035714D01*
X198407200Y-84035714D02*
X198454819Y-84130952D01*
X198454819Y-84130952D02*
X198454819Y-84416666D01*
X198454819Y-84416666D02*
X198407200Y-84511904D01*
X198407200Y-84511904D02*
X198359580Y-84559523D01*
X197454819Y-83607142D02*
X197454819Y-82988095D01*
X197454819Y-82988095D02*
X197835771Y-83321428D01*
X197835771Y-83321428D02*
X197835771Y-83178571D01*
X197835771Y-83178571D02*
X197883390Y-83083333D01*
X197883390Y-83083333D02*
X197931009Y-83035714D01*
X197931009Y-83035714D02*
X198026247Y-82988095D01*
X198026247Y-82988095D02*
X198264342Y-82988095D01*
X198264342Y-82988095D02*
X198359580Y-83035714D01*
X198359580Y-83035714D02*
X198407200Y-83083333D01*
X198407200Y-83083333D02*
X198454819Y-83178571D01*
X198454819Y-83178571D02*
X198454819Y-83464285D01*
X198454819Y-83464285D02*
X198407200Y-83559523D01*
X198407200Y-83559523D02*
X198359580Y-83607142D01*
X193583333Y-58524819D02*
X193250000Y-58048628D01*
X193011905Y-58524819D02*
X193011905Y-57524819D01*
X193011905Y-57524819D02*
X193392857Y-57524819D01*
X193392857Y-57524819D02*
X193488095Y-57572438D01*
X193488095Y-57572438D02*
X193535714Y-57620057D01*
X193535714Y-57620057D02*
X193583333Y-57715295D01*
X193583333Y-57715295D02*
X193583333Y-57858152D01*
X193583333Y-57858152D02*
X193535714Y-57953390D01*
X193535714Y-57953390D02*
X193488095Y-58001009D01*
X193488095Y-58001009D02*
X193392857Y-58048628D01*
X193392857Y-58048628D02*
X193011905Y-58048628D01*
X194488095Y-57524819D02*
X194011905Y-57524819D01*
X194011905Y-57524819D02*
X193964286Y-58001009D01*
X193964286Y-58001009D02*
X194011905Y-57953390D01*
X194011905Y-57953390D02*
X194107143Y-57905771D01*
X194107143Y-57905771D02*
X194345238Y-57905771D01*
X194345238Y-57905771D02*
X194440476Y-57953390D01*
X194440476Y-57953390D02*
X194488095Y-58001009D01*
X194488095Y-58001009D02*
X194535714Y-58096247D01*
X194535714Y-58096247D02*
X194535714Y-58334342D01*
X194535714Y-58334342D02*
X194488095Y-58429580D01*
X194488095Y-58429580D02*
X194440476Y-58477200D01*
X194440476Y-58477200D02*
X194345238Y-58524819D01*
X194345238Y-58524819D02*
X194107143Y-58524819D01*
X194107143Y-58524819D02*
X194011905Y-58477200D01*
X194011905Y-58477200D02*
X193964286Y-58429580D01*
X189583333Y-73024819D02*
X189250000Y-72548628D01*
X189011905Y-73024819D02*
X189011905Y-72024819D01*
X189011905Y-72024819D02*
X189392857Y-72024819D01*
X189392857Y-72024819D02*
X189488095Y-72072438D01*
X189488095Y-72072438D02*
X189535714Y-72120057D01*
X189535714Y-72120057D02*
X189583333Y-72215295D01*
X189583333Y-72215295D02*
X189583333Y-72358152D01*
X189583333Y-72358152D02*
X189535714Y-72453390D01*
X189535714Y-72453390D02*
X189488095Y-72501009D01*
X189488095Y-72501009D02*
X189392857Y-72548628D01*
X189392857Y-72548628D02*
X189011905Y-72548628D01*
X190440476Y-72358152D02*
X190440476Y-73024819D01*
X190202381Y-71977200D02*
X189964286Y-72691485D01*
X189964286Y-72691485D02*
X190583333Y-72691485D01*
X192607142Y-99109580D02*
X192559523Y-99157200D01*
X192559523Y-99157200D02*
X192416666Y-99204819D01*
X192416666Y-99204819D02*
X192321428Y-99204819D01*
X192321428Y-99204819D02*
X192178571Y-99157200D01*
X192178571Y-99157200D02*
X192083333Y-99061961D01*
X192083333Y-99061961D02*
X192035714Y-98966723D01*
X192035714Y-98966723D02*
X191988095Y-98776247D01*
X191988095Y-98776247D02*
X191988095Y-98633390D01*
X191988095Y-98633390D02*
X192035714Y-98442914D01*
X192035714Y-98442914D02*
X192083333Y-98347676D01*
X192083333Y-98347676D02*
X192178571Y-98252438D01*
X192178571Y-98252438D02*
X192321428Y-98204819D01*
X192321428Y-98204819D02*
X192416666Y-98204819D01*
X192416666Y-98204819D02*
X192559523Y-98252438D01*
X192559523Y-98252438D02*
X192607142Y-98300057D01*
X192940476Y-98204819D02*
X193559523Y-98204819D01*
X193559523Y-98204819D02*
X193226190Y-98585771D01*
X193226190Y-98585771D02*
X193369047Y-98585771D01*
X193369047Y-98585771D02*
X193464285Y-98633390D01*
X193464285Y-98633390D02*
X193511904Y-98681009D01*
X193511904Y-98681009D02*
X193559523Y-98776247D01*
X193559523Y-98776247D02*
X193559523Y-99014342D01*
X193559523Y-99014342D02*
X193511904Y-99109580D01*
X193511904Y-99109580D02*
X193464285Y-99157200D01*
X193464285Y-99157200D02*
X193369047Y-99204819D01*
X193369047Y-99204819D02*
X193083333Y-99204819D01*
X193083333Y-99204819D02*
X192988095Y-99157200D01*
X192988095Y-99157200D02*
X192940476Y-99109580D01*
X194130952Y-98633390D02*
X194035714Y-98585771D01*
X194035714Y-98585771D02*
X193988095Y-98538152D01*
X193988095Y-98538152D02*
X193940476Y-98442914D01*
X193940476Y-98442914D02*
X193940476Y-98395295D01*
X193940476Y-98395295D02*
X193988095Y-98300057D01*
X193988095Y-98300057D02*
X194035714Y-98252438D01*
X194035714Y-98252438D02*
X194130952Y-98204819D01*
X194130952Y-98204819D02*
X194321428Y-98204819D01*
X194321428Y-98204819D02*
X194416666Y-98252438D01*
X194416666Y-98252438D02*
X194464285Y-98300057D01*
X194464285Y-98300057D02*
X194511904Y-98395295D01*
X194511904Y-98395295D02*
X194511904Y-98442914D01*
X194511904Y-98442914D02*
X194464285Y-98538152D01*
X194464285Y-98538152D02*
X194416666Y-98585771D01*
X194416666Y-98585771D02*
X194321428Y-98633390D01*
X194321428Y-98633390D02*
X194130952Y-98633390D01*
X194130952Y-98633390D02*
X194035714Y-98681009D01*
X194035714Y-98681009D02*
X193988095Y-98728628D01*
X193988095Y-98728628D02*
X193940476Y-98823866D01*
X193940476Y-98823866D02*
X193940476Y-99014342D01*
X193940476Y-99014342D02*
X193988095Y-99109580D01*
X193988095Y-99109580D02*
X194035714Y-99157200D01*
X194035714Y-99157200D02*
X194130952Y-99204819D01*
X194130952Y-99204819D02*
X194321428Y-99204819D01*
X194321428Y-99204819D02*
X194416666Y-99157200D01*
X194416666Y-99157200D02*
X194464285Y-99109580D01*
X194464285Y-99109580D02*
X194511904Y-99014342D01*
X194511904Y-99014342D02*
X194511904Y-98823866D01*
X194511904Y-98823866D02*
X194464285Y-98728628D01*
X194464285Y-98728628D02*
X194416666Y-98681009D01*
X194416666Y-98681009D02*
X194321428Y-98633390D01*
X189261904Y-63045180D02*
X189261904Y-62235657D01*
X189261904Y-62235657D02*
X189214285Y-62140419D01*
X189214285Y-62140419D02*
X189166666Y-62092800D01*
X189166666Y-62092800D02*
X189071428Y-62045180D01*
X189071428Y-62045180D02*
X188880952Y-62045180D01*
X188880952Y-62045180D02*
X188785714Y-62092800D01*
X188785714Y-62092800D02*
X188738095Y-62140419D01*
X188738095Y-62140419D02*
X188690476Y-62235657D01*
X188690476Y-62235657D02*
X188690476Y-63045180D01*
X188166666Y-62045180D02*
X187976190Y-62045180D01*
X187976190Y-62045180D02*
X187880952Y-62092800D01*
X187880952Y-62092800D02*
X187833333Y-62140419D01*
X187833333Y-62140419D02*
X187738095Y-62283276D01*
X187738095Y-62283276D02*
X187690476Y-62473752D01*
X187690476Y-62473752D02*
X187690476Y-62854704D01*
X187690476Y-62854704D02*
X187738095Y-62949942D01*
X187738095Y-62949942D02*
X187785714Y-62997561D01*
X187785714Y-62997561D02*
X187880952Y-63045180D01*
X187880952Y-63045180D02*
X188071428Y-63045180D01*
X188071428Y-63045180D02*
X188166666Y-62997561D01*
X188166666Y-62997561D02*
X188214285Y-62949942D01*
X188214285Y-62949942D02*
X188261904Y-62854704D01*
X188261904Y-62854704D02*
X188261904Y-62616609D01*
X188261904Y-62616609D02*
X188214285Y-62521371D01*
X188214285Y-62521371D02*
X188166666Y-62473752D01*
X188166666Y-62473752D02*
X188071428Y-62426133D01*
X188071428Y-62426133D02*
X187880952Y-62426133D01*
X187880952Y-62426133D02*
X187785714Y-62473752D01*
X187785714Y-62473752D02*
X187738095Y-62521371D01*
X187738095Y-62521371D02*
X187690476Y-62616609D01*
X160357142Y-87609580D02*
X160309523Y-87657200D01*
X160309523Y-87657200D02*
X160166666Y-87704819D01*
X160166666Y-87704819D02*
X160071428Y-87704819D01*
X160071428Y-87704819D02*
X159928571Y-87657200D01*
X159928571Y-87657200D02*
X159833333Y-87561961D01*
X159833333Y-87561961D02*
X159785714Y-87466723D01*
X159785714Y-87466723D02*
X159738095Y-87276247D01*
X159738095Y-87276247D02*
X159738095Y-87133390D01*
X159738095Y-87133390D02*
X159785714Y-86942914D01*
X159785714Y-86942914D02*
X159833333Y-86847676D01*
X159833333Y-86847676D02*
X159928571Y-86752438D01*
X159928571Y-86752438D02*
X160071428Y-86704819D01*
X160071428Y-86704819D02*
X160166666Y-86704819D01*
X160166666Y-86704819D02*
X160309523Y-86752438D01*
X160309523Y-86752438D02*
X160357142Y-86800057D01*
X161261904Y-86704819D02*
X160785714Y-86704819D01*
X160785714Y-86704819D02*
X160738095Y-87181009D01*
X160738095Y-87181009D02*
X160785714Y-87133390D01*
X160785714Y-87133390D02*
X160880952Y-87085771D01*
X160880952Y-87085771D02*
X161119047Y-87085771D01*
X161119047Y-87085771D02*
X161214285Y-87133390D01*
X161214285Y-87133390D02*
X161261904Y-87181009D01*
X161261904Y-87181009D02*
X161309523Y-87276247D01*
X161309523Y-87276247D02*
X161309523Y-87514342D01*
X161309523Y-87514342D02*
X161261904Y-87609580D01*
X161261904Y-87609580D02*
X161214285Y-87657200D01*
X161214285Y-87657200D02*
X161119047Y-87704819D01*
X161119047Y-87704819D02*
X160880952Y-87704819D01*
X160880952Y-87704819D02*
X160785714Y-87657200D01*
X160785714Y-87657200D02*
X160738095Y-87609580D01*
X162261904Y-87704819D02*
X161690476Y-87704819D01*
X161976190Y-87704819D02*
X161976190Y-86704819D01*
X161976190Y-86704819D02*
X161880952Y-86847676D01*
X161880952Y-86847676D02*
X161785714Y-86942914D01*
X161785714Y-86942914D02*
X161690476Y-86990533D01*
X153357142Y-86109580D02*
X153309523Y-86157200D01*
X153309523Y-86157200D02*
X153166666Y-86204819D01*
X153166666Y-86204819D02*
X153071428Y-86204819D01*
X153071428Y-86204819D02*
X152928571Y-86157200D01*
X152928571Y-86157200D02*
X152833333Y-86061961D01*
X152833333Y-86061961D02*
X152785714Y-85966723D01*
X152785714Y-85966723D02*
X152738095Y-85776247D01*
X152738095Y-85776247D02*
X152738095Y-85633390D01*
X152738095Y-85633390D02*
X152785714Y-85442914D01*
X152785714Y-85442914D02*
X152833333Y-85347676D01*
X152833333Y-85347676D02*
X152928571Y-85252438D01*
X152928571Y-85252438D02*
X153071428Y-85204819D01*
X153071428Y-85204819D02*
X153166666Y-85204819D01*
X153166666Y-85204819D02*
X153309523Y-85252438D01*
X153309523Y-85252438D02*
X153357142Y-85300057D01*
X153690476Y-85204819D02*
X154309523Y-85204819D01*
X154309523Y-85204819D02*
X153976190Y-85585771D01*
X153976190Y-85585771D02*
X154119047Y-85585771D01*
X154119047Y-85585771D02*
X154214285Y-85633390D01*
X154214285Y-85633390D02*
X154261904Y-85681009D01*
X154261904Y-85681009D02*
X154309523Y-85776247D01*
X154309523Y-85776247D02*
X154309523Y-86014342D01*
X154309523Y-86014342D02*
X154261904Y-86109580D01*
X154261904Y-86109580D02*
X154214285Y-86157200D01*
X154214285Y-86157200D02*
X154119047Y-86204819D01*
X154119047Y-86204819D02*
X153833333Y-86204819D01*
X153833333Y-86204819D02*
X153738095Y-86157200D01*
X153738095Y-86157200D02*
X153690476Y-86109580D01*
X154785714Y-86204819D02*
X154976190Y-86204819D01*
X154976190Y-86204819D02*
X155071428Y-86157200D01*
X155071428Y-86157200D02*
X155119047Y-86109580D01*
X155119047Y-86109580D02*
X155214285Y-85966723D01*
X155214285Y-85966723D02*
X155261904Y-85776247D01*
X155261904Y-85776247D02*
X155261904Y-85395295D01*
X155261904Y-85395295D02*
X155214285Y-85300057D01*
X155214285Y-85300057D02*
X155166666Y-85252438D01*
X155166666Y-85252438D02*
X155071428Y-85204819D01*
X155071428Y-85204819D02*
X154880952Y-85204819D01*
X154880952Y-85204819D02*
X154785714Y-85252438D01*
X154785714Y-85252438D02*
X154738095Y-85300057D01*
X154738095Y-85300057D02*
X154690476Y-85395295D01*
X154690476Y-85395295D02*
X154690476Y-85633390D01*
X154690476Y-85633390D02*
X154738095Y-85728628D01*
X154738095Y-85728628D02*
X154785714Y-85776247D01*
X154785714Y-85776247D02*
X154880952Y-85823866D01*
X154880952Y-85823866D02*
X155071428Y-85823866D01*
X155071428Y-85823866D02*
X155166666Y-85776247D01*
X155166666Y-85776247D02*
X155214285Y-85728628D01*
X155214285Y-85728628D02*
X155261904Y-85633390D01*
X157609580Y-67666666D02*
X157657200Y-67714285D01*
X157657200Y-67714285D02*
X157704819Y-67857142D01*
X157704819Y-67857142D02*
X157704819Y-67952380D01*
X157704819Y-67952380D02*
X157657200Y-68095237D01*
X157657200Y-68095237D02*
X157561961Y-68190475D01*
X157561961Y-68190475D02*
X157466723Y-68238094D01*
X157466723Y-68238094D02*
X157276247Y-68285713D01*
X157276247Y-68285713D02*
X157133390Y-68285713D01*
X157133390Y-68285713D02*
X156942914Y-68238094D01*
X156942914Y-68238094D02*
X156847676Y-68190475D01*
X156847676Y-68190475D02*
X156752438Y-68095237D01*
X156752438Y-68095237D02*
X156704819Y-67952380D01*
X156704819Y-67952380D02*
X156704819Y-67857142D01*
X156704819Y-67857142D02*
X156752438Y-67714285D01*
X156752438Y-67714285D02*
X156800057Y-67666666D01*
X156704819Y-67333332D02*
X156704819Y-66714285D01*
X156704819Y-66714285D02*
X157085771Y-67047618D01*
X157085771Y-67047618D02*
X157085771Y-66904761D01*
X157085771Y-66904761D02*
X157133390Y-66809523D01*
X157133390Y-66809523D02*
X157181009Y-66761904D01*
X157181009Y-66761904D02*
X157276247Y-66714285D01*
X157276247Y-66714285D02*
X157514342Y-66714285D01*
X157514342Y-66714285D02*
X157609580Y-66761904D01*
X157609580Y-66761904D02*
X157657200Y-66809523D01*
X157657200Y-66809523D02*
X157704819Y-66904761D01*
X157704819Y-66904761D02*
X157704819Y-67190475D01*
X157704819Y-67190475D02*
X157657200Y-67285713D01*
X157657200Y-67285713D02*
X157609580Y-67333332D01*
X156432142Y-51859580D02*
X156384523Y-51907200D01*
X156384523Y-51907200D02*
X156241666Y-51954819D01*
X156241666Y-51954819D02*
X156146428Y-51954819D01*
X156146428Y-51954819D02*
X156003571Y-51907200D01*
X156003571Y-51907200D02*
X155908333Y-51811961D01*
X155908333Y-51811961D02*
X155860714Y-51716723D01*
X155860714Y-51716723D02*
X155813095Y-51526247D01*
X155813095Y-51526247D02*
X155813095Y-51383390D01*
X155813095Y-51383390D02*
X155860714Y-51192914D01*
X155860714Y-51192914D02*
X155908333Y-51097676D01*
X155908333Y-51097676D02*
X156003571Y-51002438D01*
X156003571Y-51002438D02*
X156146428Y-50954819D01*
X156146428Y-50954819D02*
X156241666Y-50954819D01*
X156241666Y-50954819D02*
X156384523Y-51002438D01*
X156384523Y-51002438D02*
X156432142Y-51050057D01*
X156765476Y-50954819D02*
X157384523Y-50954819D01*
X157384523Y-50954819D02*
X157051190Y-51335771D01*
X157051190Y-51335771D02*
X157194047Y-51335771D01*
X157194047Y-51335771D02*
X157289285Y-51383390D01*
X157289285Y-51383390D02*
X157336904Y-51431009D01*
X157336904Y-51431009D02*
X157384523Y-51526247D01*
X157384523Y-51526247D02*
X157384523Y-51764342D01*
X157384523Y-51764342D02*
X157336904Y-51859580D01*
X157336904Y-51859580D02*
X157289285Y-51907200D01*
X157289285Y-51907200D02*
X157194047Y-51954819D01*
X157194047Y-51954819D02*
X156908333Y-51954819D01*
X156908333Y-51954819D02*
X156813095Y-51907200D01*
X156813095Y-51907200D02*
X156765476Y-51859580D01*
X158241666Y-50954819D02*
X158051190Y-50954819D01*
X158051190Y-50954819D02*
X157955952Y-51002438D01*
X157955952Y-51002438D02*
X157908333Y-51050057D01*
X157908333Y-51050057D02*
X157813095Y-51192914D01*
X157813095Y-51192914D02*
X157765476Y-51383390D01*
X157765476Y-51383390D02*
X157765476Y-51764342D01*
X157765476Y-51764342D02*
X157813095Y-51859580D01*
X157813095Y-51859580D02*
X157860714Y-51907200D01*
X157860714Y-51907200D02*
X157955952Y-51954819D01*
X157955952Y-51954819D02*
X158146428Y-51954819D01*
X158146428Y-51954819D02*
X158241666Y-51907200D01*
X158241666Y-51907200D02*
X158289285Y-51859580D01*
X158289285Y-51859580D02*
X158336904Y-51764342D01*
X158336904Y-51764342D02*
X158336904Y-51526247D01*
X158336904Y-51526247D02*
X158289285Y-51431009D01*
X158289285Y-51431009D02*
X158241666Y-51383390D01*
X158241666Y-51383390D02*
X158146428Y-51335771D01*
X158146428Y-51335771D02*
X157955952Y-51335771D01*
X157955952Y-51335771D02*
X157860714Y-51383390D01*
X157860714Y-51383390D02*
X157813095Y-51431009D01*
X157813095Y-51431009D02*
X157765476Y-51526247D01*
X157299693Y-57458830D02*
X157299693Y-57526174D01*
X157299693Y-57526174D02*
X157232349Y-57660861D01*
X157232349Y-57660861D02*
X157165006Y-57728204D01*
X157165006Y-57728204D02*
X157030319Y-57795548D01*
X157030319Y-57795548D02*
X156895632Y-57795548D01*
X156895632Y-57795548D02*
X156794617Y-57761876D01*
X156794617Y-57761876D02*
X156626258Y-57660861D01*
X156626258Y-57660861D02*
X156525243Y-57559846D01*
X156525243Y-57559846D02*
X156424227Y-57391487D01*
X156424227Y-57391487D02*
X156390556Y-57290472D01*
X156390556Y-57290472D02*
X156390556Y-57155785D01*
X156390556Y-57155785D02*
X156457899Y-57021098D01*
X156457899Y-57021098D02*
X156525243Y-56953754D01*
X156525243Y-56953754D02*
X156659930Y-56886411D01*
X156659930Y-56886411D02*
X156727273Y-56886411D01*
X156996647Y-56617037D02*
X156996647Y-56549693D01*
X156996647Y-56549693D02*
X157030319Y-56448678D01*
X157030319Y-56448678D02*
X157198678Y-56280319D01*
X157198678Y-56280319D02*
X157299693Y-56246647D01*
X157299693Y-56246647D02*
X157367036Y-56246647D01*
X157367036Y-56246647D02*
X157468052Y-56280319D01*
X157468052Y-56280319D02*
X157535395Y-56347663D01*
X157535395Y-56347663D02*
X157602739Y-56482350D01*
X157602739Y-56482350D02*
X157602739Y-57290472D01*
X157602739Y-57290472D02*
X158040471Y-56852739D01*
X158377189Y-56516021D02*
X158511876Y-56381334D01*
X158511876Y-56381334D02*
X158545548Y-56280319D01*
X158545548Y-56280319D02*
X158545548Y-56212975D01*
X158545548Y-56212975D02*
X158511876Y-56044617D01*
X158511876Y-56044617D02*
X158410861Y-55876258D01*
X158410861Y-55876258D02*
X158141487Y-55606884D01*
X158141487Y-55606884D02*
X158040472Y-55573212D01*
X158040472Y-55573212D02*
X157973128Y-55573212D01*
X157973128Y-55573212D02*
X157872113Y-55606884D01*
X157872113Y-55606884D02*
X157737426Y-55741571D01*
X157737426Y-55741571D02*
X157703754Y-55842586D01*
X157703754Y-55842586D02*
X157703754Y-55909930D01*
X157703754Y-55909930D02*
X157737426Y-56010945D01*
X157737426Y-56010945D02*
X157905785Y-56179304D01*
X157905785Y-56179304D02*
X158006800Y-56212975D01*
X158006800Y-56212975D02*
X158074143Y-56212975D01*
X158074143Y-56212975D02*
X158175159Y-56179304D01*
X158175159Y-56179304D02*
X158309846Y-56044617D01*
X158309846Y-56044617D02*
X158343517Y-55943601D01*
X158343517Y-55943601D02*
X158343517Y-55876258D01*
X158343517Y-55876258D02*
X158309846Y-55775243D01*
X157357142Y-85859580D02*
X157309523Y-85907200D01*
X157309523Y-85907200D02*
X157166666Y-85954819D01*
X157166666Y-85954819D02*
X157071428Y-85954819D01*
X157071428Y-85954819D02*
X156928571Y-85907200D01*
X156928571Y-85907200D02*
X156833333Y-85811961D01*
X156833333Y-85811961D02*
X156785714Y-85716723D01*
X156785714Y-85716723D02*
X156738095Y-85526247D01*
X156738095Y-85526247D02*
X156738095Y-85383390D01*
X156738095Y-85383390D02*
X156785714Y-85192914D01*
X156785714Y-85192914D02*
X156833333Y-85097676D01*
X156833333Y-85097676D02*
X156928571Y-85002438D01*
X156928571Y-85002438D02*
X157071428Y-84954819D01*
X157071428Y-84954819D02*
X157166666Y-84954819D01*
X157166666Y-84954819D02*
X157309523Y-85002438D01*
X157309523Y-85002438D02*
X157357142Y-85050057D01*
X158214285Y-85288152D02*
X158214285Y-85954819D01*
X157976190Y-84907200D02*
X157738095Y-85621485D01*
X157738095Y-85621485D02*
X158357142Y-85621485D01*
X158928571Y-84954819D02*
X159023809Y-84954819D01*
X159023809Y-84954819D02*
X159119047Y-85002438D01*
X159119047Y-85002438D02*
X159166666Y-85050057D01*
X159166666Y-85050057D02*
X159214285Y-85145295D01*
X159214285Y-85145295D02*
X159261904Y-85335771D01*
X159261904Y-85335771D02*
X159261904Y-85573866D01*
X159261904Y-85573866D02*
X159214285Y-85764342D01*
X159214285Y-85764342D02*
X159166666Y-85859580D01*
X159166666Y-85859580D02*
X159119047Y-85907200D01*
X159119047Y-85907200D02*
X159023809Y-85954819D01*
X159023809Y-85954819D02*
X158928571Y-85954819D01*
X158928571Y-85954819D02*
X158833333Y-85907200D01*
X158833333Y-85907200D02*
X158785714Y-85859580D01*
X158785714Y-85859580D02*
X158738095Y-85764342D01*
X158738095Y-85764342D02*
X158690476Y-85573866D01*
X158690476Y-85573866D02*
X158690476Y-85335771D01*
X158690476Y-85335771D02*
X158738095Y-85145295D01*
X158738095Y-85145295D02*
X158785714Y-85050057D01*
X158785714Y-85050057D02*
X158833333Y-85002438D01*
X158833333Y-85002438D02*
X158928571Y-84954819D01*
X191083333Y-66954819D02*
X190750000Y-66478628D01*
X190511905Y-66954819D02*
X190511905Y-65954819D01*
X190511905Y-65954819D02*
X190892857Y-65954819D01*
X190892857Y-65954819D02*
X190988095Y-66002438D01*
X190988095Y-66002438D02*
X191035714Y-66050057D01*
X191035714Y-66050057D02*
X191083333Y-66145295D01*
X191083333Y-66145295D02*
X191083333Y-66288152D01*
X191083333Y-66288152D02*
X191035714Y-66383390D01*
X191035714Y-66383390D02*
X190988095Y-66431009D01*
X190988095Y-66431009D02*
X190892857Y-66478628D01*
X190892857Y-66478628D02*
X190511905Y-66478628D01*
X191940476Y-65954819D02*
X191750000Y-65954819D01*
X191750000Y-65954819D02*
X191654762Y-66002438D01*
X191654762Y-66002438D02*
X191607143Y-66050057D01*
X191607143Y-66050057D02*
X191511905Y-66192914D01*
X191511905Y-66192914D02*
X191464286Y-66383390D01*
X191464286Y-66383390D02*
X191464286Y-66764342D01*
X191464286Y-66764342D02*
X191511905Y-66859580D01*
X191511905Y-66859580D02*
X191559524Y-66907200D01*
X191559524Y-66907200D02*
X191654762Y-66954819D01*
X191654762Y-66954819D02*
X191845238Y-66954819D01*
X191845238Y-66954819D02*
X191940476Y-66907200D01*
X191940476Y-66907200D02*
X191988095Y-66859580D01*
X191988095Y-66859580D02*
X192035714Y-66764342D01*
X192035714Y-66764342D02*
X192035714Y-66526247D01*
X192035714Y-66526247D02*
X191988095Y-66431009D01*
X191988095Y-66431009D02*
X191940476Y-66383390D01*
X191940476Y-66383390D02*
X191845238Y-66335771D01*
X191845238Y-66335771D02*
X191654762Y-66335771D01*
X191654762Y-66335771D02*
X191559524Y-66383390D01*
X191559524Y-66383390D02*
X191511905Y-66431009D01*
X191511905Y-66431009D02*
X191464286Y-66526247D01*
X155607142Y-98859580D02*
X155559523Y-98907200D01*
X155559523Y-98907200D02*
X155416666Y-98954819D01*
X155416666Y-98954819D02*
X155321428Y-98954819D01*
X155321428Y-98954819D02*
X155178571Y-98907200D01*
X155178571Y-98907200D02*
X155083333Y-98811961D01*
X155083333Y-98811961D02*
X155035714Y-98716723D01*
X155035714Y-98716723D02*
X154988095Y-98526247D01*
X154988095Y-98526247D02*
X154988095Y-98383390D01*
X154988095Y-98383390D02*
X155035714Y-98192914D01*
X155035714Y-98192914D02*
X155083333Y-98097676D01*
X155083333Y-98097676D02*
X155178571Y-98002438D01*
X155178571Y-98002438D02*
X155321428Y-97954819D01*
X155321428Y-97954819D02*
X155416666Y-97954819D01*
X155416666Y-97954819D02*
X155559523Y-98002438D01*
X155559523Y-98002438D02*
X155607142Y-98050057D01*
X155940476Y-97954819D02*
X156559523Y-97954819D01*
X156559523Y-97954819D02*
X156226190Y-98335771D01*
X156226190Y-98335771D02*
X156369047Y-98335771D01*
X156369047Y-98335771D02*
X156464285Y-98383390D01*
X156464285Y-98383390D02*
X156511904Y-98431009D01*
X156511904Y-98431009D02*
X156559523Y-98526247D01*
X156559523Y-98526247D02*
X156559523Y-98764342D01*
X156559523Y-98764342D02*
X156511904Y-98859580D01*
X156511904Y-98859580D02*
X156464285Y-98907200D01*
X156464285Y-98907200D02*
X156369047Y-98954819D01*
X156369047Y-98954819D02*
X156083333Y-98954819D01*
X156083333Y-98954819D02*
X155988095Y-98907200D01*
X155988095Y-98907200D02*
X155940476Y-98859580D01*
X156892857Y-97954819D02*
X157559523Y-97954819D01*
X157559523Y-97954819D02*
X157130952Y-98954819D01*
X158204819Y-72119699D02*
X158442914Y-72119699D01*
X158347676Y-72357794D02*
X158442914Y-72119699D01*
X158442914Y-72119699D02*
X158347676Y-71881604D01*
X158633390Y-72262556D02*
X158442914Y-72119699D01*
X158442914Y-72119699D02*
X158633390Y-71976842D01*
D11*
X150477600Y-64575891D02*
X150477600Y-58924107D01*
X151674140Y-58270199D02*
X152125860Y-58270199D01*
X152125860Y-65229799D02*
X151674140Y-65229799D01*
X153322400Y-58924107D02*
X153322400Y-64575891D01*
D12*
X160289970Y-59488781D02*
X160488781Y-59289970D01*
X161011219Y-60210030D02*
X161210030Y-60011219D01*
X189512742Y-85977500D02*
X189987258Y-85977500D01*
X189512742Y-87022500D02*
X189987258Y-87022500D01*
D11*
X192374400Y-67674500D02*
X192374400Y-69325500D01*
X193413260Y-67674500D02*
X192374400Y-67674500D01*
X193634240Y-69325500D02*
X194365760Y-69325500D01*
X195625600Y-67674500D02*
X194586740Y-67674500D01*
X195625600Y-69325500D02*
X195625600Y-67674500D01*
X192500000Y-70500000D02*
G75*
G02*
X192246000Y-70500000I-127000J0D01*
G01*
X192246000Y-70500000D02*
G75*
G02*
X192500000Y-70500000I127000J0D01*
G01*
D12*
X197168763Y-52917789D02*
X197095993Y-52646208D01*
X198154007Y-52653792D02*
X198081237Y-52382211D01*
D13*
X195100000Y-91700000D02*
G75*
G02*
X194900000Y-91700000I-100000J0D01*
G01*
X194900000Y-91700000D02*
G75*
G02*
X195100000Y-91700000I100000J0D01*
G01*
D12*
X178359420Y-87740000D02*
X178640580Y-87740000D01*
X178359420Y-88760000D02*
X178640580Y-88760000D01*
X189262742Y-79727500D02*
X189737258Y-79727500D01*
X189262742Y-80772500D02*
X189737258Y-80772500D01*
X161640000Y-60390000D02*
X161640000Y-61340000D01*
X161640000Y-84610000D02*
X161640000Y-83660000D01*
X162590000Y-60390000D02*
X161640000Y-60390000D01*
X162590000Y-84610000D02*
X161640000Y-84610000D01*
X184910000Y-60390000D02*
X185860000Y-60390000D01*
X184910000Y-84610000D02*
X185860000Y-84610000D01*
X185860000Y-60390000D02*
X185860000Y-61340000D01*
X185860000Y-84610000D02*
X185860000Y-83660000D01*
X161037500Y-61340000D02*
X160697500Y-60870000D01*
X161377500Y-60870000D01*
X161037500Y-61340000D01*
G36*
X161037500Y-61340000D02*
G01*
X160697500Y-60870000D01*
X161377500Y-60870000D01*
X161037500Y-61340000D01*
G37*
X181140000Y-50890000D02*
X181140000Y-51740000D01*
X181140000Y-54160000D02*
X181140000Y-57110000D01*
X181140000Y-57110000D02*
X182890000Y-57110000D01*
X190110000Y-57110000D02*
X190110000Y-58000000D01*
X191860000Y-50890000D02*
X181140000Y-50890000D01*
X191860000Y-51740000D02*
X191860000Y-50890000D01*
X191860000Y-54160000D02*
X191860000Y-57110000D01*
X191860000Y-57110000D02*
X190110000Y-57110000D01*
X189512742Y-77977500D02*
X189987258Y-77977500D01*
X189512742Y-79022500D02*
X189987258Y-79022500D01*
D11*
X191601600Y-82250000D02*
G75*
G02*
X191398400Y-82250000I-101600J0D01*
G01*
X191398400Y-82250000D02*
G75*
G02*
X191601600Y-82250000I101600J0D01*
G01*
D12*
X189140580Y-67490000D02*
X188859420Y-67490000D01*
X189140580Y-68510000D02*
X188859420Y-68510000D01*
X193890580Y-60490000D02*
X193609420Y-60490000D01*
X193890580Y-61510000D02*
X193609420Y-61510000D01*
X181040000Y-87840000D02*
X181040000Y-87990000D01*
X181040000Y-87840000D02*
X190960000Y-87840000D01*
X181040000Y-98010000D02*
X181040000Y-98160000D01*
X181040000Y-98160000D02*
X190960000Y-98160000D01*
X190960000Y-87840000D02*
X190960000Y-87990000D01*
X190960000Y-98010000D02*
X190960000Y-98160000D01*
X180570000Y-87990000D02*
X180330000Y-87660000D01*
X180810000Y-87660000D01*
X180570000Y-87990000D01*
G36*
X180570000Y-87990000D02*
G01*
X180330000Y-87660000D01*
X180810000Y-87660000D01*
X180570000Y-87990000D01*
G37*
X196150000Y-71330000D02*
X194450000Y-71330000D01*
X196150000Y-80670000D02*
X194450000Y-80670000D01*
D11*
X155619700Y-75576841D02*
X155619700Y-75923159D01*
X157880300Y-75923159D02*
X157880300Y-75576841D01*
X154851600Y-73750000D02*
G75*
G02*
X154648400Y-73750000I-101600J0D01*
G01*
X154648400Y-73750000D02*
G75*
G02*
X154851600Y-73750000I101600J0D01*
G01*
D12*
X191240000Y-63084420D02*
X191240000Y-63365580D01*
X192260000Y-63084420D02*
X192260000Y-63365580D01*
X158240000Y-64359420D02*
X158240000Y-64640580D01*
X159260000Y-64359420D02*
X159260000Y-64640580D01*
X156512742Y-60477500D02*
X156987258Y-60477500D01*
X156512742Y-61522500D02*
X156987258Y-61522500D01*
D11*
X152996700Y-91401000D02*
X155003300Y-91401000D01*
X155003300Y-88099000D02*
X152996700Y-88099000D01*
X155003300Y-90138661D02*
X155003300Y-89361339D01*
D12*
X192640000Y-64250000D02*
X192640000Y-62250000D01*
X194860000Y-64250000D02*
X194860000Y-62250000D01*
X192740000Y-64770000D02*
X192460000Y-64490000D01*
X192740000Y-64490000D01*
X192740000Y-64770000D01*
G36*
X192740000Y-64770000D02*
G01*
X192460000Y-64490000D01*
X192740000Y-64490000D01*
X192740000Y-64770000D01*
G37*
X155109420Y-77990000D02*
X155390580Y-77990000D01*
X155109420Y-79010000D02*
X155390580Y-79010000D01*
X160488781Y-85710030D02*
X160289970Y-85511219D01*
X161210030Y-84988781D02*
X161011219Y-84789970D01*
X195515000Y-83988748D02*
X195515000Y-84511252D01*
X196985000Y-83988748D02*
X196985000Y-84511252D01*
D14*
X154510000Y-79700000D02*
X153950000Y-79700000D01*
X154510000Y-82300000D02*
X153950000Y-82300000D01*
X156490000Y-82300000D02*
X157050000Y-82300000D01*
X157050000Y-79700000D02*
X156490000Y-79700000D01*
D13*
X157690000Y-81995000D02*
G75*
G02*
X157490000Y-81995000I-100000J0D01*
G01*
X157490000Y-81995000D02*
G75*
G02*
X157690000Y-81995000I100000J0D01*
G01*
D12*
X189512742Y-82727500D02*
X189987258Y-82727500D01*
X189512742Y-83772500D02*
X189987258Y-83772500D01*
X196623792Y-57336761D02*
X196993259Y-56967294D01*
X197663239Y-58376208D02*
X198032706Y-58006741D01*
X151990000Y-81140580D02*
X151990000Y-80859420D01*
X153010000Y-81140580D02*
X153010000Y-80859420D01*
X159640580Y-92490000D02*
X159359420Y-92490000D01*
X159640580Y-93510000D02*
X159359420Y-93510000D01*
D11*
X158534800Y-91057825D02*
X158534800Y-91342175D01*
D12*
X193990000Y-84109420D02*
X193990000Y-84390580D01*
X195010000Y-84109420D02*
X195010000Y-84390580D01*
X193512742Y-58977500D02*
X193987258Y-58977500D01*
X193512742Y-60022500D02*
X193987258Y-60022500D01*
X189512742Y-73477500D02*
X189987258Y-73477500D01*
X189512742Y-74522500D02*
X189987258Y-74522500D01*
X197282213Y-96893762D02*
X197553792Y-96820993D01*
X197546208Y-97879007D02*
X197817787Y-97806238D01*
D11*
X187739400Y-59424500D02*
X187739400Y-61075500D01*
X187739400Y-61075500D02*
X188778260Y-61075500D01*
X189730760Y-59424500D02*
X188999240Y-59424500D01*
X189951740Y-61075500D02*
X190990600Y-61075500D01*
X190990600Y-61075500D02*
X190990600Y-59424500D01*
X192260600Y-59005400D02*
G75*
G02*
X192006600Y-59005400I-127000J0D01*
G01*
X192006600Y-59005400D02*
G75*
G02*
X192260600Y-59005400I127000J0D01*
G01*
D12*
X158859420Y-88240000D02*
X159140580Y-88240000D01*
X158859420Y-89260000D02*
X159140580Y-89260000D01*
X154140580Y-86740000D02*
X153859420Y-86740000D01*
X154140580Y-87760000D02*
X153859420Y-87760000D01*
X158240000Y-67409420D02*
X158240000Y-67690580D01*
X159260000Y-67409420D02*
X159260000Y-67690580D01*
D15*
X198737500Y-60460000D02*
X197848500Y-60460000D01*
X198737500Y-61730000D02*
X197848500Y-61730000D01*
X198737500Y-60460000D02*
G75*
G02*
X198737500Y-61730000I0J-635000D01*
G01*
D12*
X152453792Y-52120993D02*
X152182211Y-52193763D01*
X152717789Y-53106237D02*
X152446208Y-53179007D01*
X158789970Y-58738781D02*
X158988781Y-58539970D01*
X159511219Y-59460030D02*
X159710030Y-59261219D01*
X158140580Y-86490000D02*
X157859420Y-86490000D01*
X158140580Y-87510000D02*
X157859420Y-87510000D01*
X190727500Y-68987258D02*
X190727500Y-68512742D01*
X191772500Y-68987258D02*
X191772500Y-68512742D01*
X151918763Y-97617789D02*
X151845993Y-97346208D01*
X152904007Y-97353792D02*
X152831237Y-97082211D01*
%LPC*%
D16*
X154695000Y-80475000D02*
X153985000Y-80475000D01*
X153985000Y-80025000D01*
X154695000Y-80025000D01*
X154695000Y-80475000D01*
G36*
X154695000Y-80475000D02*
G01*
X153985000Y-80475000D01*
X153985000Y-80025000D01*
X154695000Y-80025000D01*
X154695000Y-80475000D01*
G37*
X154695000Y-80975000D02*
X153985000Y-80975000D01*
X153985000Y-80525000D01*
X154695000Y-80525000D01*
X154695000Y-80975000D01*
G36*
X154695000Y-80975000D02*
G01*
X153985000Y-80975000D01*
X153985000Y-80525000D01*
X154695000Y-80525000D01*
X154695000Y-80975000D01*
G37*
X154695000Y-81475000D02*
X153985000Y-81475000D01*
X153985000Y-81025000D01*
X154695000Y-81025000D01*
X154695000Y-81475000D01*
G36*
X154695000Y-81475000D02*
G01*
X153985000Y-81475000D01*
X153985000Y-81025000D01*
X154695000Y-81025000D01*
X154695000Y-81475000D01*
G37*
X154695000Y-81975000D02*
X153985000Y-81975000D01*
X153985000Y-81525000D01*
X154695000Y-81525000D01*
X154695000Y-81975000D01*
G36*
X154695000Y-81975000D02*
G01*
X153985000Y-81975000D01*
X153985000Y-81525000D01*
X154695000Y-81525000D01*
X154695000Y-81975000D01*
G37*
X155225000Y-82270000D02*
X154775000Y-82270000D01*
X154775000Y-81560000D01*
X155225000Y-81560000D01*
X155225000Y-82270000D01*
G36*
X155225000Y-82270000D02*
G01*
X154775000Y-82270000D01*
X154775000Y-81560000D01*
X155225000Y-81560000D01*
X155225000Y-82270000D01*
G37*
X155225000Y-80440000D02*
X154775000Y-80440000D01*
X154775000Y-79730000D01*
X155225000Y-79730000D01*
X155225000Y-80440000D01*
G36*
X155225000Y-80440000D02*
G01*
X154775000Y-80440000D01*
X154775000Y-79730000D01*
X155225000Y-79730000D01*
X155225000Y-80440000D01*
G37*
X155725000Y-82270000D02*
X155275000Y-82270000D01*
X155275000Y-81560000D01*
X155725000Y-81560000D01*
X155725000Y-82270000D01*
G36*
X155725000Y-82270000D02*
G01*
X155275000Y-82270000D01*
X155275000Y-81560000D01*
X155725000Y-81560000D01*
X155725000Y-82270000D01*
G37*
X155725000Y-80440000D02*
X155275000Y-80440000D01*
X155275000Y-79730000D01*
X155725000Y-79730000D01*
X155725000Y-80440000D01*
G36*
X155725000Y-80440000D02*
G01*
X155275000Y-80440000D01*
X155275000Y-79730000D01*
X155725000Y-79730000D01*
X155725000Y-80440000D01*
G37*
X156225000Y-82270000D02*
X155775000Y-82270000D01*
X155775000Y-81560000D01*
X156225000Y-81560000D01*
X156225000Y-82270000D01*
G36*
X156225000Y-82270000D02*
G01*
X155775000Y-82270000D01*
X155775000Y-81560000D01*
X156225000Y-81560000D01*
X156225000Y-82270000D01*
G37*
X156225000Y-80440000D02*
X155775000Y-80440000D01*
X155775000Y-79730000D01*
X156225000Y-79730000D01*
X156225000Y-80440000D01*
G36*
X156225000Y-80440000D02*
G01*
X155775000Y-80440000D01*
X155775000Y-79730000D01*
X156225000Y-79730000D01*
X156225000Y-80440000D01*
G37*
X157015000Y-80475000D02*
X156305000Y-80475000D01*
X156305000Y-80025000D01*
X157015000Y-80025000D01*
X157015000Y-80475000D01*
G36*
X157015000Y-80475000D02*
G01*
X156305000Y-80475000D01*
X156305000Y-80025000D01*
X157015000Y-80025000D01*
X157015000Y-80475000D01*
G37*
X157015000Y-80975000D02*
X156305000Y-80975000D01*
X156305000Y-80525000D01*
X157015000Y-80525000D01*
X157015000Y-80975000D01*
G36*
X157015000Y-80975000D02*
G01*
X156305000Y-80975000D01*
X156305000Y-80525000D01*
X157015000Y-80525000D01*
X157015000Y-80975000D01*
G37*
X157015000Y-81475000D02*
X156305000Y-81475000D01*
X156305000Y-81025000D01*
X157015000Y-81025000D01*
X157015000Y-81475000D01*
G36*
X157015000Y-81475000D02*
G01*
X156305000Y-81475000D01*
X156305000Y-81025000D01*
X157015000Y-81025000D01*
X157015000Y-81475000D01*
G37*
X157015000Y-81975000D02*
X156305000Y-81975000D01*
X156305000Y-81525000D01*
X157015000Y-81525000D01*
X157015000Y-81975000D01*
G36*
X157015000Y-81975000D02*
G01*
X156305000Y-81975000D01*
X156305000Y-81525000D01*
X157015000Y-81525000D01*
X157015000Y-81975000D01*
G37*
D17*
X155000700Y-59499998D03*
X155000700Y-62500000D03*
X155000700Y-64000000D03*
D18*
X151900000Y-60250009D03*
X151900000Y-63250009D03*
D19*
X150935000Y-58099999D03*
X152865000Y-58099999D03*
X150935000Y-65399999D03*
X152865000Y-65399999D03*
D20*
X160201992Y-60298008D03*
X161298008Y-59201992D03*
D21*
X163250000Y-88750000D03*
D22*
X188925000Y-86500000D03*
X190575000Y-86500000D03*
D23*
X193047500Y-69389000D03*
X194952500Y-69389000D03*
X194000000Y-67611000D03*
D21*
X171000000Y-56100000D03*
X163250000Y-92250000D03*
D24*
X197825585Y-53398593D03*
X197424415Y-51901407D03*
D25*
X195000000Y-90525000D03*
D26*
X196475000Y-89000000D03*
D25*
X195000000Y-87475000D03*
D26*
X193525000Y-89000000D03*
D21*
X173750000Y-56100000D03*
D27*
X177725000Y-88250000D03*
X179275000Y-88250000D03*
D22*
X188675000Y-80250000D03*
X190325000Y-80250000D03*
D28*
X161075000Y-61750000D03*
X161075000Y-62250000D03*
X161075000Y-62750000D03*
X161075000Y-63250000D03*
X161075000Y-63750000D03*
X161075000Y-64250000D03*
X161075000Y-64750000D03*
X161075000Y-65250000D03*
X161075000Y-65750000D03*
X161075000Y-66250000D03*
X161075000Y-66750000D03*
X161075000Y-67250000D03*
X161075000Y-67750000D03*
X161075000Y-68250000D03*
X161075000Y-68750000D03*
X161075000Y-69250000D03*
X161075000Y-69750000D03*
X161075000Y-70250000D03*
X161075000Y-70750000D03*
X161075000Y-71250000D03*
X161075000Y-71750000D03*
X161075000Y-72250000D03*
X161075000Y-72750000D03*
X161075000Y-73250000D03*
X161075000Y-73750000D03*
X161075000Y-74250000D03*
X161075000Y-74750000D03*
X161075000Y-75250000D03*
X161075000Y-75750000D03*
X161075000Y-76250000D03*
X161075000Y-76750000D03*
X161075000Y-77250000D03*
X161075000Y-77750000D03*
X161075000Y-78250000D03*
X161075000Y-78750000D03*
X161075000Y-79250000D03*
X161075000Y-79750000D03*
X161075000Y-80250000D03*
X161075000Y-80750000D03*
X161075000Y-81250000D03*
X161075000Y-81750000D03*
X161075000Y-82250000D03*
X161075000Y-82750000D03*
X161075000Y-83250000D03*
D29*
X163000000Y-85175000D03*
X163500000Y-85175000D03*
X164000000Y-85175000D03*
X164500000Y-85175000D03*
X165000000Y-85175000D03*
X165500000Y-85175000D03*
X166000000Y-85175000D03*
X166500000Y-85175000D03*
X167000000Y-85175000D03*
X167500000Y-85175000D03*
X168000000Y-85175000D03*
X168500000Y-85175000D03*
X169000000Y-85175000D03*
X169500000Y-85175000D03*
X170000000Y-85175000D03*
X170500000Y-85175000D03*
X171000000Y-85175000D03*
X171500000Y-85175000D03*
X172000000Y-85175000D03*
X172500000Y-85175000D03*
X173000000Y-85175000D03*
X173500000Y-85175000D03*
X174000000Y-85175000D03*
X174500000Y-85175000D03*
X175000000Y-85175000D03*
X175500000Y-85175000D03*
X176000000Y-85175000D03*
X176500000Y-85175000D03*
X177000000Y-85175000D03*
X177500000Y-85175000D03*
X178000000Y-85175000D03*
X178500000Y-85175000D03*
X179000000Y-85175000D03*
X179500000Y-85175000D03*
X180000000Y-85175000D03*
X180500000Y-85175000D03*
X181000000Y-85175000D03*
X181500000Y-85175000D03*
X182000000Y-85175000D03*
X182500000Y-85175000D03*
X183000000Y-85175000D03*
X183500000Y-85175000D03*
X184000000Y-85175000D03*
X184500000Y-85175000D03*
D28*
X186425000Y-83250000D03*
X186425000Y-82750000D03*
X186425000Y-82250000D03*
X186425000Y-81750000D03*
X186425000Y-81250000D03*
X186425000Y-80750000D03*
X186425000Y-80250000D03*
X186425000Y-79750000D03*
X186425000Y-79250000D03*
X186425000Y-78750000D03*
X186425000Y-78250000D03*
X186425000Y-77750000D03*
X186425000Y-77250000D03*
X186425000Y-76750000D03*
X186425000Y-76250000D03*
X186425000Y-75750000D03*
X186425000Y-75250000D03*
X186425000Y-74750000D03*
X186425000Y-74250000D03*
X186425000Y-73750000D03*
X186425000Y-73250000D03*
X186425000Y-72750000D03*
X186425000Y-72250000D03*
X186425000Y-71750000D03*
X186425000Y-71250000D03*
X186425000Y-70750000D03*
X186425000Y-70250000D03*
X186425000Y-69750000D03*
X186425000Y-69250000D03*
X186425000Y-68750000D03*
X186425000Y-68250000D03*
X186425000Y-67750000D03*
X186425000Y-67250000D03*
X186425000Y-66750000D03*
X186425000Y-66250000D03*
X186425000Y-65750000D03*
X186425000Y-65250000D03*
X186425000Y-64750000D03*
X186425000Y-64250000D03*
X186425000Y-63750000D03*
X186425000Y-63250000D03*
X186425000Y-62750000D03*
X186425000Y-62250000D03*
X186425000Y-61750000D03*
D29*
X184500000Y-59825000D03*
X184000000Y-59825000D03*
X183500000Y-59825000D03*
X183000000Y-59825000D03*
X182500000Y-59825000D03*
X182000000Y-59825000D03*
X181500000Y-59825000D03*
X181000000Y-59825000D03*
X180500000Y-59825000D03*
X180000000Y-59825000D03*
X179500000Y-59825000D03*
X179000000Y-59825000D03*
X178500000Y-59825000D03*
X178000000Y-59825000D03*
X177500000Y-59825000D03*
X177000000Y-59825000D03*
X176500000Y-59825000D03*
X176000000Y-59825000D03*
X175500000Y-59825000D03*
X175000000Y-59825000D03*
X174500000Y-59825000D03*
X174000000Y-59825000D03*
X173500000Y-59825000D03*
X173000000Y-59825000D03*
X172500000Y-59825000D03*
X172000000Y-59825000D03*
X171500000Y-59825000D03*
X171000000Y-59825000D03*
X170500000Y-59825000D03*
X170000000Y-59825000D03*
X169500000Y-59825000D03*
X169000000Y-59825000D03*
X168500000Y-59825000D03*
X168000000Y-59825000D03*
X167500000Y-59825000D03*
X167000000Y-59825000D03*
X166500000Y-59825000D03*
X166000000Y-59825000D03*
X165500000Y-59825000D03*
X165000000Y-59825000D03*
X164500000Y-59825000D03*
X164000000Y-59825000D03*
X163500000Y-59825000D03*
X163000000Y-59825000D03*
D21*
X160700000Y-56100000D03*
D30*
X189500000Y-56650000D03*
X188000000Y-56650000D03*
X186500000Y-56650000D03*
X185000000Y-56650000D03*
X183500000Y-56650000D03*
D31*
X191450000Y-52950000D03*
X181550000Y-52950000D03*
D21*
X176250000Y-56100000D03*
D22*
X188925000Y-78500000D03*
X190575000Y-78500000D03*
D21*
X168500000Y-56100000D03*
X173250000Y-95800000D03*
D32*
X163200000Y-52600000D03*
D21*
X165750000Y-95750000D03*
D33*
X191927799Y-83275000D03*
X191927799Y-84225000D03*
X193072201Y-84225000D03*
X193072201Y-83275000D03*
D21*
X171000000Y-52600000D03*
D34*
X189775000Y-68000000D03*
X188225000Y-68000000D03*
X194525000Y-61000000D03*
X192975000Y-61000000D03*
D21*
X166000000Y-52600000D03*
D35*
X181250000Y-88600000D03*
D36*
X181250000Y-89700000D03*
X181250000Y-90800000D03*
X181250000Y-91900000D03*
X181250000Y-93000000D03*
X181250000Y-94100000D03*
X181250000Y-95200000D03*
X181250000Y-96300000D03*
D35*
X181250000Y-97400000D03*
X190750000Y-97400000D03*
D36*
X190750000Y-96300000D03*
X190750000Y-95200000D03*
X190750000Y-94100000D03*
X190750000Y-93000000D03*
X190750000Y-91900000D03*
X190750000Y-90800000D03*
X190750000Y-89700000D03*
D35*
X190750000Y-88600000D03*
D21*
X178750000Y-56100000D03*
D37*
X193645000Y-78890000D03*
X193645000Y-73110000D03*
D38*
X192570000Y-79200000D03*
X192570000Y-78400000D03*
D39*
X192570000Y-77250000D03*
X192570000Y-76250000D03*
X192570000Y-75750000D03*
X192570000Y-74750000D03*
D38*
X192570000Y-73600000D03*
X192570000Y-72800000D03*
D39*
X192570000Y-74250000D03*
X192570000Y-75250000D03*
X192570000Y-76750000D03*
X192570000Y-77750000D03*
D40*
X193145000Y-80320000D03*
D41*
X197325000Y-80320000D03*
D40*
X193145000Y-71680000D03*
D41*
X197325000Y-71680000D03*
D42*
X155929801Y-74825001D03*
X155929801Y-76674999D03*
X157570199Y-76674999D03*
X157570199Y-74825001D03*
D21*
X168500000Y-52600000D03*
X176250000Y-52600000D03*
X173750000Y-52600000D03*
D43*
X191750000Y-62450000D03*
X191750000Y-64000000D03*
X158750000Y-63725000D03*
X158750000Y-65275000D03*
D22*
X155925000Y-61000000D03*
X157575000Y-61000000D03*
D44*
X152736350Y-88799999D03*
X152736350Y-89750000D03*
X152736350Y-90700001D03*
X155263650Y-90700001D03*
X155263650Y-88799999D03*
D45*
X193100000Y-64137500D03*
X193750000Y-64137500D03*
X194400000Y-64137500D03*
X194400000Y-62362500D03*
X193750000Y-62362500D03*
X193100000Y-62362500D03*
D46*
X193750000Y-63250000D03*
D27*
X154475000Y-78500000D03*
X156025000Y-78500000D03*
D47*
X161298008Y-85798008D03*
X160201992Y-84701992D03*
D48*
X196250000Y-83300000D03*
X196250000Y-85200000D03*
D21*
X163200000Y-56100000D03*
D22*
X188925000Y-83250000D03*
X190575000Y-83250000D03*
D49*
X196656498Y-58343502D03*
X198000000Y-57000000D03*
D50*
X152500000Y-81775000D03*
X152500000Y-80225000D03*
D34*
X160275000Y-93000000D03*
X158725000Y-93000000D03*
D21*
X165750000Y-88750000D03*
X175750000Y-95800000D03*
X175750000Y-88800000D03*
D32*
X160700000Y-52600000D03*
D51*
X160100000Y-90400000D03*
X160100000Y-90800000D03*
X160100000Y-91200000D03*
X160100000Y-91600000D03*
X159700000Y-90400000D03*
X159700000Y-91600000D03*
X159300000Y-90400000D03*
X159300000Y-91600000D03*
X158900000Y-90400000D03*
X158900000Y-90800000D03*
X158900000Y-91600000D03*
D21*
X170750000Y-88750000D03*
D43*
X194500000Y-83475000D03*
X194500000Y-85025000D03*
D21*
X178750000Y-52600000D03*
X163250000Y-95750000D03*
D22*
X192925000Y-59500000D03*
X194575000Y-59500000D03*
D21*
X173250000Y-88800000D03*
X170750000Y-95750000D03*
X165750000Y-92250000D03*
D22*
X188925000Y-74000000D03*
X190575000Y-74000000D03*
D52*
X196801407Y-97550585D03*
X198298593Y-97149415D03*
D23*
X190317500Y-59361000D03*
X188412500Y-59361000D03*
X189365000Y-61139000D03*
D27*
X158225000Y-88750000D03*
X159775000Y-88750000D03*
D34*
X154775000Y-87250000D03*
X153225000Y-87250000D03*
D43*
X158750000Y-66775000D03*
X158750000Y-68325000D03*
D53*
X197213500Y-65540000D03*
X197213500Y-64270000D03*
X197213500Y-63000000D03*
X197213500Y-61730000D03*
X197213500Y-60460000D03*
D54*
X198368500Y-61095000D03*
X198368500Y-62365000D03*
X198368500Y-63635000D03*
X198368500Y-64905000D03*
D55*
X153198593Y-52449415D03*
X151701407Y-52850585D03*
D20*
X158701992Y-59548008D03*
X159798008Y-58451992D03*
D34*
X158775000Y-87000000D03*
X157225000Y-87000000D03*
D56*
X191250000Y-69575000D03*
X191250000Y-67925000D03*
D24*
X152575585Y-98098593D03*
X152174415Y-96601407D03*
D21*
X166000000Y-56100000D03*
%LPD*%
M02*
