G04 #@! TF.GenerationSoftware,KiCad,Pcbnew,9.0.2-9.0.2-0~ubuntu24.04.1*
G04 #@! TF.CreationDate,2025-06-08T21:46:16-05:00*
G04 #@! TF.ProjectId,FC,46432e6b-6963-4616-945f-706362585858,rev?*
G04 #@! TF.SameCoordinates,Original*
G04 #@! TF.FileFunction,Copper,L4,Inr*
G04 #@! TF.FilePolarity,Positive*
%FSLAX46Y46*%
G04 Gerber Fmt 4.6, Leading zero omitted, Abs format (unit mm)*
G04 Created by KiCad (PCBNEW 9.0.2-9.0.2-0~ubuntu24.04.1) date 2025-06-08 21:46:16*
%MOMM*%
%LPD*%
G01*
G04 APERTURE LIST*
G04 #@! TA.AperFunction,HeatsinkPad*
%ADD10C,0.500000*%
G04 #@! TD*
G04 #@! TA.AperFunction,ViaPad*
%ADD11C,0.600000*%
G04 #@! TD*
G04 #@! TA.AperFunction,ViaPad*
%ADD12C,0.500000*%
G04 #@! TD*
G04 #@! TA.AperFunction,Conductor*
%ADD13C,0.200000*%
G04 #@! TD*
G04 APERTURE END LIST*
D10*
X193200000Y-63250000D03*
X194300000Y-63250000D03*
D11*
X193525000Y-89000000D03*
D12*
X182250000Y-71500000D03*
X183000000Y-76000000D03*
X196000000Y-64000000D03*
X198000000Y-76000000D03*
X156000000Y-66000000D03*
X178000000Y-93000000D03*
X174000000Y-92000000D03*
X170000000Y-92000000D03*
X155000000Y-85000000D03*
X159000000Y-96000000D03*
X158000000Y-57000000D03*
X176000000Y-67000000D03*
X170000000Y-67000000D03*
X180000000Y-70250000D03*
X177000000Y-70250000D03*
X174000000Y-70250000D03*
X171000000Y-70000000D03*
X165000000Y-70000000D03*
X165000000Y-73000000D03*
X168000000Y-73000000D03*
X171000000Y-73000000D03*
X180000000Y-73000000D03*
X180000000Y-78000000D03*
X177000000Y-77984398D03*
X177000000Y-73000000D03*
X177000000Y-81015602D03*
X174000000Y-81000000D03*
X174000000Y-77984398D03*
X171000000Y-81000000D03*
X171000000Y-77968796D03*
X168000000Y-81000000D03*
X168000000Y-77984398D03*
X168000000Y-70030867D03*
X188750000Y-96250000D03*
X183400000Y-58500000D03*
X182550000Y-58350000D03*
X184054559Y-58486617D03*
X184577000Y-59700000D03*
X193250000Y-58250000D03*
X151759517Y-53990483D03*
X151759517Y-95000000D03*
X155000000Y-51828248D03*
X196146979Y-51828248D03*
X153912235Y-98240483D03*
X195000000Y-98240483D03*
X161298008Y-85798008D03*
X188925000Y-86500000D03*
X188362500Y-77200000D03*
X188362500Y-75300000D03*
X176250000Y-52600000D03*
X188925000Y-74000000D03*
X158701992Y-59548008D03*
X153250000Y-52500000D03*
X163200000Y-52600000D03*
X166000000Y-52600000D03*
X174000000Y-73000000D03*
X182725000Y-68500000D03*
X154475000Y-78500000D03*
X175750000Y-88800000D03*
X170500000Y-65025000D03*
X178725000Y-83000000D03*
X193175000Y-66750000D03*
X152736350Y-89750000D03*
X194525000Y-61000000D03*
X152500000Y-81775000D03*
X181725000Y-83000000D03*
X154111000Y-70344700D03*
X175750000Y-95800000D03*
X184750000Y-80225000D03*
X171975000Y-83000000D03*
X197559214Y-53240483D03*
X196250000Y-83300000D03*
X158775000Y-87000000D03*
X177725000Y-88250000D03*
X196525000Y-89000000D03*
X181250000Y-88600000D03*
X173750000Y-52600000D03*
X158750000Y-66775000D03*
X176250000Y-63975000D03*
X162750000Y-72475000D03*
X158225000Y-88750000D03*
X157136000Y-68619700D03*
X183500000Y-56650000D03*
X196759517Y-97568731D03*
X188362500Y-76250000D03*
X188925000Y-78500000D03*
X165025000Y-58000000D03*
X194800000Y-58250000D03*
X171775000Y-61500000D03*
X173775000Y-66250000D03*
X174975000Y-83000000D03*
X152586000Y-68619700D03*
X182975000Y-78500000D03*
X195000000Y-87525000D03*
X160275000Y-93000000D03*
X167750000Y-64275000D03*
X166000000Y-56100000D03*
X179250000Y-68500000D03*
X166275000Y-76000000D03*
X164000000Y-79725000D03*
X158750000Y-63725000D03*
X163250000Y-92250000D03*
X165500000Y-79725000D03*
X198269416Y-65732000D03*
X154775000Y-87250000D03*
X163700000Y-83000000D03*
X167762500Y-66237500D03*
X191250000Y-67925000D03*
X176300000Y-61500000D03*
X152431269Y-96759517D03*
X194575000Y-59500000D03*
X189775000Y-68000000D03*
X155929801Y-76674999D03*
X191750000Y-62450000D03*
X176275000Y-58250000D03*
X160201992Y-60298008D03*
X155000700Y-59499998D03*
X184250000Y-72275000D03*
X180800000Y-68500000D03*
X174725000Y-58250000D03*
X162500000Y-69350000D03*
X182250000Y-56600000D03*
X176250000Y-65525000D03*
X156360316Y-69346687D03*
X153500000Y-80850000D03*
X159799265Y-73450735D03*
X165250000Y-65750000D03*
X188199479Y-63800521D03*
X185248000Y-62250000D03*
X185250000Y-68750000D03*
X189209218Y-63913650D03*
X162184120Y-81921644D03*
X163250000Y-88750000D03*
X165750000Y-88750000D03*
X159858522Y-82296678D03*
X160700000Y-56100000D03*
X166182596Y-57526999D03*
X198084620Y-58334620D03*
X182251042Y-57526777D03*
X197566277Y-59062898D03*
X188400000Y-60770000D03*
D13*
X175025000Y-57975000D02*
X175000000Y-57975000D01*
X175500000Y-57500000D02*
X175025000Y-57975000D01*
X182250000Y-56600000D02*
X182250000Y-56750000D01*
X181500000Y-57500000D02*
X175500000Y-57500000D01*
X175000000Y-57975000D02*
X174725000Y-58250000D01*
X182250000Y-56750000D02*
X181500000Y-57500000D01*
X195994527Y-57401000D02*
X196145527Y-57250000D01*
X197000000Y-57250000D02*
X198084620Y-58334620D01*
X182251042Y-57526777D02*
X182321753Y-57526777D01*
X182321753Y-57526777D02*
X182598530Y-57250000D01*
X196145527Y-57250000D02*
X197000000Y-57250000D01*
X182598530Y-57250000D02*
X193854473Y-57250000D01*
X193854473Y-57250000D02*
X194005473Y-57401000D01*
X194005473Y-57401000D02*
X195994527Y-57401000D01*
X183400000Y-58500000D02*
X183313605Y-58586395D01*
X183313605Y-58586395D02*
X183313605Y-58762829D01*
X176551434Y-65525000D02*
X176250000Y-65525000D01*
X183313605Y-58762829D02*
X176551434Y-65525000D01*
X182600000Y-58400000D02*
X182600000Y-58626542D01*
X182600000Y-58400000D02*
X182600000Y-58650000D01*
X182550000Y-58350000D02*
X182600000Y-58400000D01*
X182600000Y-58650000D02*
X177275000Y-63975000D01*
X182375542Y-58851000D02*
X176876000Y-58851000D01*
X177275000Y-63975000D02*
X176250000Y-63975000D01*
X182600000Y-58626542D02*
X182375542Y-58851000D01*
X176876000Y-58851000D02*
X176275000Y-58250000D01*
X180800000Y-66899943D02*
X180800000Y-68500000D01*
X181649000Y-66050943D02*
X180800000Y-66899943D01*
X184054559Y-58486617D02*
X181649000Y-60892176D01*
X181649000Y-60892176D02*
X181649000Y-66050943D01*
X197566277Y-59062898D02*
X196629175Y-60000000D01*
X196629175Y-60000000D02*
X194854232Y-60000000D01*
X194854232Y-60000000D02*
X194803232Y-60051000D01*
X194803232Y-60051000D02*
X194346768Y-60051000D01*
X194346768Y-60051000D02*
X194295768Y-60000000D01*
X194295768Y-60000000D02*
X189170000Y-60000000D01*
X189170000Y-60000000D02*
X188400000Y-60770000D01*
X160700000Y-56100000D02*
X161350000Y-56750000D01*
X161350000Y-56750000D02*
X165405597Y-56750000D01*
X165405597Y-56750000D02*
X166182596Y-57526999D01*
X193250000Y-58250000D02*
X186027000Y-58250000D01*
X186027000Y-58250000D02*
X184577000Y-59700000D01*
X153912235Y-98240483D02*
X195000000Y-98240483D01*
X151759517Y-53990483D02*
X151759517Y-95000000D01*
X196146979Y-51828248D02*
X155000000Y-51828248D01*
X188362500Y-77200000D02*
X190023943Y-75538557D01*
X190023943Y-75538557D02*
X190023943Y-68726057D01*
X190649000Y-66748943D02*
X189601000Y-65700943D01*
X190023943Y-68726057D02*
X190649000Y-68101000D01*
X190649000Y-68101000D02*
X190649000Y-66748943D01*
X189601000Y-65700943D02*
X189601000Y-64305432D01*
X189601000Y-64305432D02*
X189209218Y-63913650D01*
X188362500Y-75300000D02*
X188199479Y-75136979D01*
X188199479Y-75136979D02*
X188199479Y-63800521D01*
X159799265Y-71200735D02*
X165250000Y-65750000D01*
X159799265Y-73450735D02*
X159799265Y-71200735D01*
X159799265Y-73450735D02*
X156454124Y-73450735D01*
X156454124Y-73450735D02*
X153500000Y-76404859D01*
X156360316Y-70011786D02*
X159799265Y-73450735D01*
X156360316Y-69346687D02*
X156360316Y-70011786D01*
X153500000Y-76404859D02*
X153500000Y-80850000D01*
X185250000Y-62252000D02*
X185248000Y-62250000D01*
X185250000Y-68750000D02*
X185250000Y-62252000D01*
X163250000Y-88750000D02*
X162750000Y-88250000D01*
X162750000Y-82487524D02*
X162184120Y-81921644D01*
X162750000Y-88250000D02*
X162750000Y-82487524D01*
X159600992Y-82554208D02*
X159858522Y-82296678D01*
X165750000Y-88750000D02*
X165052135Y-89447865D01*
X162947865Y-89447865D02*
X159600992Y-86100992D01*
X159600992Y-86100992D02*
X159600992Y-82554208D01*
X165052135Y-89447865D02*
X162947865Y-89447865D01*
G04 #@! TA.AperFunction,Conductor*
G36*
X188933948Y-65900105D02*
G01*
X188935931Y-65900500D01*
X188952535Y-65900500D01*
X188953855Y-65900528D01*
X188985964Y-65910700D01*
X189018264Y-65920185D01*
X189019158Y-65921216D01*
X189020462Y-65921630D01*
X189058612Y-65962500D01*
X189120477Y-66069655D01*
X189120481Y-66069660D01*
X189239349Y-66188528D01*
X189239355Y-66188533D01*
X190012181Y-66961359D01*
X190045666Y-67022682D01*
X190048500Y-67049040D01*
X190048500Y-67800902D01*
X190028815Y-67867941D01*
X190012181Y-67888583D01*
X189543424Y-68357339D01*
X189543420Y-68357344D01*
X189494619Y-68441872D01*
X189494619Y-68441873D01*
X189464366Y-68494271D01*
X189464366Y-68494272D01*
X189423442Y-68647000D01*
X189423442Y-68647002D01*
X189423442Y-68815103D01*
X189423443Y-68815116D01*
X189423443Y-75238459D01*
X189414798Y-75267899D01*
X189408275Y-75297886D01*
X189404520Y-75302901D01*
X189403758Y-75305498D01*
X189387124Y-75326140D01*
X189324681Y-75388583D01*
X189263358Y-75422068D01*
X189193666Y-75417084D01*
X189137733Y-75375212D01*
X189113316Y-75309748D01*
X189113000Y-75300902D01*
X189113000Y-75226079D01*
X189084159Y-75081092D01*
X189084158Y-75081091D01*
X189084158Y-75081087D01*
X189063517Y-75031255D01*
X189027587Y-74944511D01*
X189027580Y-74944498D01*
X188945452Y-74821585D01*
X188893319Y-74769452D01*
X188840916Y-74717049D01*
X188840913Y-74717047D01*
X188836609Y-74712743D01*
X188838555Y-74710796D01*
X188805924Y-74662738D01*
X188799979Y-74624805D01*
X188799979Y-66023922D01*
X188802900Y-66013971D01*
X188801643Y-66003676D01*
X188812577Y-65981017D01*
X188819664Y-65956883D01*
X188827500Y-65950092D01*
X188832009Y-65940750D01*
X188853459Y-65927599D01*
X188872468Y-65911128D01*
X188883256Y-65909331D01*
X188891575Y-65904231D01*
X188926609Y-65899950D01*
X188933948Y-65900105D01*
G37*
G04 #@! TD.AperFunction*
G04 #@! TA.AperFunction,Conductor*
G36*
X196811630Y-52327477D02*
G01*
X196855978Y-52355978D01*
X199463181Y-54963181D01*
X199496666Y-55024504D01*
X199499500Y-55050862D01*
X199499500Y-94949137D01*
X199479815Y-95016176D01*
X199463181Y-95036818D01*
X195931509Y-98568489D01*
X195870186Y-98601974D01*
X195800494Y-98596990D01*
X195744561Y-98555118D01*
X195720144Y-98489654D01*
X195722211Y-98456616D01*
X195750500Y-98314403D01*
X195750500Y-98166562D01*
X195721659Y-98021575D01*
X195721658Y-98021574D01*
X195721658Y-98021570D01*
X195686440Y-97936545D01*
X195665087Y-97884994D01*
X195665080Y-97884981D01*
X195582951Y-97762067D01*
X195582948Y-97762063D01*
X195474109Y-97653224D01*
X195475720Y-97651612D01*
X195442107Y-97602287D01*
X195440222Y-97532443D01*
X195476396Y-97472667D01*
X195532505Y-97443264D01*
X195693318Y-97406560D01*
X195958408Y-97313801D01*
X196211445Y-97191945D01*
X196449248Y-97042523D01*
X196668825Y-96867416D01*
X196867416Y-96668825D01*
X197042523Y-96449248D01*
X197191945Y-96211445D01*
X197313801Y-95958408D01*
X197406560Y-95693318D01*
X197469055Y-95419509D01*
X197500500Y-95140425D01*
X197500500Y-94859575D01*
X197469055Y-94580491D01*
X197406560Y-94306682D01*
X197313801Y-94041592D01*
X197191945Y-93788555D01*
X197042523Y-93550752D01*
X196867416Y-93331175D01*
X196668825Y-93132584D01*
X196449248Y-92957477D01*
X196211445Y-92808055D01*
X196211442Y-92808053D01*
X195958411Y-92686200D01*
X195693329Y-92593443D01*
X195693317Y-92593439D01*
X195419512Y-92530945D01*
X195419494Y-92530942D01*
X195140431Y-92499500D01*
X195140425Y-92499500D01*
X194859575Y-92499500D01*
X194859568Y-92499500D01*
X194580505Y-92530942D01*
X194580487Y-92530945D01*
X194306682Y-92593439D01*
X194306670Y-92593443D01*
X194041588Y-92686200D01*
X193788557Y-92808053D01*
X193550753Y-92957476D01*
X193331175Y-93132583D01*
X193132583Y-93331175D01*
X192957476Y-93550753D01*
X192808053Y-93788557D01*
X192686200Y-94041588D01*
X192593443Y-94306670D01*
X192593439Y-94306682D01*
X192530945Y-94580487D01*
X192530942Y-94580505D01*
X192499500Y-94859568D01*
X192499500Y-95140431D01*
X192530942Y-95419494D01*
X192530945Y-95419512D01*
X192593439Y-95693317D01*
X192593443Y-95693329D01*
X192686200Y-95958411D01*
X192808053Y-96211442D01*
X192808055Y-96211445D01*
X192957477Y-96449248D01*
X193132584Y-96668825D01*
X193331175Y-96867416D01*
X193550752Y-97042523D01*
X193788555Y-97191945D01*
X194041592Y-97313801D01*
X194153753Y-97353048D01*
X194284909Y-97398942D01*
X194341685Y-97439663D01*
X194367432Y-97504616D01*
X194353976Y-97573178D01*
X194305588Y-97623581D01*
X194243954Y-97639983D01*
X155756046Y-97639983D01*
X155689007Y-97620298D01*
X155643252Y-97567494D01*
X155633308Y-97498336D01*
X155662333Y-97434780D01*
X155715091Y-97398942D01*
X155818469Y-97362767D01*
X155958408Y-97313801D01*
X156211445Y-97191945D01*
X156449248Y-97042523D01*
X156668825Y-96867416D01*
X156867416Y-96668825D01*
X157042523Y-96449248D01*
X157191945Y-96211445D01*
X157313801Y-95958408D01*
X157364307Y-95814071D01*
X162599499Y-95814071D01*
X162624497Y-95939738D01*
X162624499Y-95939744D01*
X162673533Y-96058124D01*
X162673538Y-96058133D01*
X162744723Y-96164668D01*
X162744726Y-96164672D01*
X162835327Y-96255273D01*
X162835331Y-96255276D01*
X162941866Y-96326461D01*
X162941872Y-96326464D01*
X162941873Y-96326465D01*
X163060256Y-96375501D01*
X163060260Y-96375501D01*
X163060261Y-96375502D01*
X163185928Y-96400500D01*
X163185931Y-96400500D01*
X163314071Y-96400500D01*
X163398615Y-96383682D01*
X163439744Y-96375501D01*
X163558127Y-96326465D01*
X163664669Y-96255276D01*
X163755276Y-96164669D01*
X163826465Y-96058127D01*
X163875501Y-95939744D01*
X163900500Y-95814071D01*
X170099499Y-95814071D01*
X170124497Y-95939738D01*
X170124499Y-95939744D01*
X170173533Y-96058124D01*
X170173538Y-96058133D01*
X170244723Y-96164668D01*
X170244726Y-96164672D01*
X170335327Y-96255273D01*
X170335331Y-96255276D01*
X170441866Y-96326461D01*
X170441872Y-96326464D01*
X170441873Y-96326465D01*
X170560256Y-96375501D01*
X170560260Y-96375501D01*
X170560261Y-96375502D01*
X170685928Y-96400500D01*
X170685931Y-96400500D01*
X170814071Y-96400500D01*
X170898615Y-96383682D01*
X170939744Y-96375501D01*
X171058127Y-96326465D01*
X171164669Y-96255276D01*
X171255276Y-96164669D01*
X171326465Y-96058127D01*
X171375501Y-95939744D01*
X171400500Y-95814071D01*
X182349499Y-95814071D01*
X182374497Y-95939738D01*
X182374499Y-95939744D01*
X182423533Y-96058124D01*
X182423538Y-96058133D01*
X182494723Y-96164668D01*
X182494726Y-96164672D01*
X182585327Y-96255273D01*
X182585331Y-96255276D01*
X182691866Y-96326461D01*
X182691872Y-96326464D01*
X182691873Y-96326465D01*
X182810256Y-96375501D01*
X182810260Y-96375501D01*
X182810261Y-96375502D01*
X182935928Y-96400500D01*
X182935931Y-96400500D01*
X183064071Y-96400500D01*
X183148615Y-96383682D01*
X183189744Y-96375501D01*
X183308127Y-96326465D01*
X183414669Y-96255276D01*
X183505276Y-96164669D01*
X183576465Y-96058127D01*
X183625501Y-95939744D01*
X183650500Y-95814069D01*
X183650500Y-95685931D01*
X183650500Y-95685928D01*
X183625502Y-95560261D01*
X183625501Y-95560260D01*
X183625501Y-95560256D01*
X183576465Y-95441873D01*
X183576464Y-95441872D01*
X183576461Y-95441866D01*
X183505276Y-95335331D01*
X183505273Y-95335327D01*
X183414672Y-95244726D01*
X183414668Y-95244723D01*
X183308133Y-95173538D01*
X183308124Y-95173533D01*
X183189744Y-95124499D01*
X183189738Y-95124497D01*
X183064071Y-95099500D01*
X183064069Y-95099500D01*
X182935931Y-95099500D01*
X182935929Y-95099500D01*
X182810261Y-95124497D01*
X182810255Y-95124499D01*
X182691875Y-95173533D01*
X182691866Y-95173538D01*
X182585331Y-95244723D01*
X182585327Y-95244726D01*
X182494726Y-95335327D01*
X182494723Y-95335331D01*
X182423538Y-95441866D01*
X182423533Y-95441875D01*
X182374499Y-95560255D01*
X182374497Y-95560261D01*
X182349500Y-95685928D01*
X182349500Y-95685931D01*
X182349500Y-95814069D01*
X182349500Y-95814071D01*
X182349499Y-95814071D01*
X171400500Y-95814071D01*
X171400500Y-95814069D01*
X171400500Y-95685931D01*
X171400500Y-95685928D01*
X171375502Y-95560261D01*
X171375501Y-95560260D01*
X171375501Y-95560256D01*
X171326465Y-95441873D01*
X171326464Y-95441872D01*
X171326461Y-95441866D01*
X171255276Y-95335331D01*
X171255273Y-95335327D01*
X171164672Y-95244726D01*
X171164668Y-95244723D01*
X171058133Y-95173538D01*
X171058124Y-95173533D01*
X170939744Y-95124499D01*
X170939738Y-95124497D01*
X170814071Y-95099500D01*
X170814069Y-95099500D01*
X170685931Y-95099500D01*
X170685929Y-95099500D01*
X170560261Y-95124497D01*
X170560255Y-95124499D01*
X170441875Y-95173533D01*
X170441866Y-95173538D01*
X170335331Y-95244723D01*
X170335327Y-95244726D01*
X170244726Y-95335327D01*
X170244723Y-95335331D01*
X170173538Y-95441866D01*
X170173533Y-95441875D01*
X170124499Y-95560255D01*
X170124497Y-95560261D01*
X170099500Y-95685928D01*
X170099500Y-95685931D01*
X170099500Y-95814069D01*
X170099500Y-95814071D01*
X170099499Y-95814071D01*
X163900500Y-95814071D01*
X163900500Y-95814069D01*
X163900500Y-95685931D01*
X163900500Y-95685928D01*
X163875502Y-95560261D01*
X163875501Y-95560260D01*
X163875501Y-95560256D01*
X163826465Y-95441873D01*
X163826464Y-95441872D01*
X163826461Y-95441866D01*
X163755276Y-95335331D01*
X163755273Y-95335327D01*
X163664672Y-95244726D01*
X163664668Y-95244723D01*
X163558133Y-95173538D01*
X163558124Y-95173533D01*
X163439744Y-95124499D01*
X163439738Y-95124497D01*
X163314071Y-95099500D01*
X163314069Y-95099500D01*
X163185931Y-95099500D01*
X163185929Y-95099500D01*
X163060261Y-95124497D01*
X163060255Y-95124499D01*
X162941875Y-95173533D01*
X162941866Y-95173538D01*
X162835331Y-95244723D01*
X162835327Y-95244726D01*
X162744726Y-95335327D01*
X162744723Y-95335331D01*
X162673538Y-95441866D01*
X162673533Y-95441875D01*
X162624499Y-95560255D01*
X162624497Y-95560261D01*
X162599500Y-95685928D01*
X162599500Y-95685931D01*
X162599500Y-95814069D01*
X162599500Y-95814071D01*
X162599499Y-95814071D01*
X157364307Y-95814071D01*
X157406560Y-95693318D01*
X157469055Y-95419509D01*
X157500500Y-95140425D01*
X157500500Y-94859575D01*
X157469055Y-94580491D01*
X157406560Y-94306682D01*
X157313801Y-94041592D01*
X157191945Y-93788555D01*
X157042523Y-93550752D01*
X156867416Y-93331175D01*
X156668825Y-93132584D01*
X156582913Y-93064071D01*
X158074499Y-93064071D01*
X158099497Y-93189738D01*
X158099499Y-93189744D01*
X158148533Y-93308124D01*
X158148538Y-93308133D01*
X158219723Y-93414668D01*
X158219726Y-93414672D01*
X158310327Y-93505273D01*
X158310331Y-93505276D01*
X158416866Y-93576461D01*
X158416872Y-93576464D01*
X158416873Y-93576465D01*
X158535256Y-93625501D01*
X158535260Y-93625501D01*
X158535261Y-93625502D01*
X158660928Y-93650500D01*
X158660931Y-93650500D01*
X158789071Y-93650500D01*
X158873615Y-93633682D01*
X158914744Y-93625501D01*
X159033127Y-93576465D01*
X159139669Y-93505276D01*
X159230276Y-93414669D01*
X159301465Y-93308127D01*
X159350501Y-93189744D01*
X159375500Y-93064069D01*
X159375500Y-92935931D01*
X159375500Y-92935928D01*
X159350502Y-92810261D01*
X159350501Y-92810260D01*
X159350501Y-92810256D01*
X159301465Y-92691873D01*
X159301464Y-92691872D01*
X159301461Y-92691866D01*
X159230276Y-92585331D01*
X159230273Y-92585327D01*
X159139672Y-92494726D01*
X159139668Y-92494723D01*
X159033133Y-92423538D01*
X159033124Y-92423533D01*
X158914744Y-92374499D01*
X158914738Y-92374497D01*
X158789071Y-92349500D01*
X158789069Y-92349500D01*
X158660931Y-92349500D01*
X158660929Y-92349500D01*
X158535261Y-92374497D01*
X158535255Y-92374499D01*
X158416875Y-92423533D01*
X158416866Y-92423538D01*
X158310331Y-92494723D01*
X158310327Y-92494726D01*
X158219726Y-92585327D01*
X158219723Y-92585331D01*
X158148538Y-92691866D01*
X158148533Y-92691875D01*
X158099499Y-92810255D01*
X158099497Y-92810261D01*
X158074500Y-92935928D01*
X158074500Y-92935931D01*
X158074500Y-93064069D01*
X158074500Y-93064071D01*
X158074499Y-93064071D01*
X156582913Y-93064071D01*
X156449248Y-92957477D01*
X156211445Y-92808055D01*
X156211442Y-92808053D01*
X155958411Y-92686200D01*
X155693329Y-92593443D01*
X155693317Y-92593439D01*
X155419512Y-92530945D01*
X155419494Y-92530942D01*
X155140431Y-92499500D01*
X155140425Y-92499500D01*
X154859575Y-92499500D01*
X154859568Y-92499500D01*
X154580505Y-92530942D01*
X154580487Y-92530945D01*
X154306682Y-92593439D01*
X154306670Y-92593443D01*
X154041588Y-92686200D01*
X153788557Y-92808053D01*
X153550753Y-92957476D01*
X153331175Y-93132583D01*
X153132583Y-93331175D01*
X152957476Y-93550753D01*
X152808053Y-93788557D01*
X152686200Y-94041588D01*
X152601058Y-94284908D01*
X152560336Y-94341684D01*
X152495384Y-94367431D01*
X152426822Y-94353975D01*
X152376419Y-94305587D01*
X152360017Y-94243953D01*
X152360017Y-92314071D01*
X160599499Y-92314071D01*
X160624497Y-92439738D01*
X160624499Y-92439744D01*
X160673533Y-92558124D01*
X160673538Y-92558133D01*
X160744723Y-92664668D01*
X160744726Y-92664672D01*
X160835327Y-92755273D01*
X160835331Y-92755276D01*
X160941866Y-92826461D01*
X160941872Y-92826464D01*
X160941873Y-92826465D01*
X161060256Y-92875501D01*
X161060260Y-92875501D01*
X161060261Y-92875502D01*
X161185928Y-92900500D01*
X161185931Y-92900500D01*
X161314071Y-92900500D01*
X161398615Y-92883682D01*
X161439744Y-92875501D01*
X161558127Y-92826465D01*
X161664669Y-92755276D01*
X161755276Y-92664669D01*
X161826465Y-92558127D01*
X161875501Y-92439744D01*
X161883682Y-92398615D01*
X161900500Y-92314071D01*
X161900500Y-92185928D01*
X161875502Y-92060261D01*
X161875501Y-92060260D01*
X161875501Y-92060256D01*
X161826465Y-91941873D01*
X161826464Y-91941872D01*
X161826461Y-91941866D01*
X161755276Y-91835331D01*
X161755273Y-91835327D01*
X161664672Y-91744726D01*
X161664668Y-91744723D01*
X161558133Y-91673538D01*
X161558124Y-91673533D01*
X161439744Y-91624499D01*
X161439738Y-91624497D01*
X161314071Y-91599500D01*
X161314069Y-91599500D01*
X161185931Y-91599500D01*
X161185929Y-91599500D01*
X161060261Y-91624497D01*
X161060255Y-91624499D01*
X160941875Y-91673533D01*
X160941866Y-91673538D01*
X160835331Y-91744723D01*
X160835327Y-91744726D01*
X160744726Y-91835327D01*
X160744723Y-91835331D01*
X160673538Y-91941866D01*
X160673533Y-91941875D01*
X160624499Y-92060255D01*
X160624497Y-92060261D01*
X160599500Y-92185928D01*
X160599500Y-92185931D01*
X160599500Y-92314069D01*
X160599500Y-92314071D01*
X160599499Y-92314071D01*
X152360017Y-92314071D01*
X152360017Y-89564071D01*
X160099499Y-89564071D01*
X160124497Y-89689738D01*
X160124499Y-89689744D01*
X160173533Y-89808124D01*
X160173538Y-89808133D01*
X160244723Y-89914668D01*
X160244726Y-89914672D01*
X160335327Y-90005273D01*
X160335331Y-90005276D01*
X160441866Y-90076461D01*
X160441872Y-90076464D01*
X160441873Y-90076465D01*
X160560256Y-90125501D01*
X160560260Y-90125501D01*
X160560261Y-90125502D01*
X160685928Y-90150500D01*
X160685931Y-90150500D01*
X160814071Y-90150500D01*
X160898615Y-90133682D01*
X160939744Y-90125501D01*
X161058127Y-90076465D01*
X161164669Y-90005276D01*
X161255276Y-89914669D01*
X161326465Y-89808127D01*
X161375501Y-89689744D01*
X161400500Y-89564069D01*
X161400500Y-89435931D01*
X161400500Y-89435928D01*
X161375502Y-89310261D01*
X161375501Y-89310260D01*
X161375501Y-89310256D01*
X161326465Y-89191873D01*
X161326464Y-89191872D01*
X161326461Y-89191866D01*
X161255276Y-89085331D01*
X161255273Y-89085327D01*
X161164672Y-88994726D01*
X161164668Y-88994723D01*
X161058133Y-88923538D01*
X161058124Y-88923533D01*
X160939744Y-88874499D01*
X160939738Y-88874497D01*
X160814071Y-88849500D01*
X160814069Y-88849500D01*
X160685931Y-88849500D01*
X160685929Y-88849500D01*
X160560261Y-88874497D01*
X160560255Y-88874499D01*
X160441875Y-88923533D01*
X160441866Y-88923538D01*
X160335331Y-88994723D01*
X160335327Y-88994726D01*
X160244726Y-89085327D01*
X160244723Y-89085331D01*
X160173538Y-89191866D01*
X160173533Y-89191875D01*
X160124499Y-89310255D01*
X160124497Y-89310261D01*
X160099500Y-89435928D01*
X160099500Y-89435931D01*
X160099500Y-89564069D01*
X160099500Y-89564071D01*
X160099499Y-89564071D01*
X152360017Y-89564071D01*
X152360017Y-87484973D01*
X152379702Y-87417934D01*
X152432506Y-87372179D01*
X152501664Y-87362235D01*
X152565220Y-87391260D01*
X152598578Y-87437520D01*
X152648533Y-87558124D01*
X152648538Y-87558133D01*
X152719723Y-87664668D01*
X152719726Y-87664672D01*
X152810327Y-87755273D01*
X152810331Y-87755276D01*
X152916866Y-87826461D01*
X152916872Y-87826464D01*
X152916873Y-87826465D01*
X153035256Y-87875501D01*
X153035260Y-87875501D01*
X153035261Y-87875502D01*
X153160928Y-87900500D01*
X153160931Y-87900500D01*
X153289071Y-87900500D01*
X153373615Y-87883682D01*
X153414744Y-87875501D01*
X153533127Y-87826465D01*
X153639669Y-87755276D01*
X153730276Y-87664669D01*
X153801465Y-87558127D01*
X153850501Y-87439744D01*
X153875500Y-87314069D01*
X153875500Y-87185931D01*
X153875500Y-87185928D01*
X153850502Y-87060261D01*
X153850501Y-87060260D01*
X153850501Y-87060256D01*
X153801465Y-86941873D01*
X153801464Y-86941872D01*
X153801461Y-86941866D01*
X153730276Y-86835331D01*
X153730273Y-86835327D01*
X153639672Y-86744726D01*
X153639668Y-86744723D01*
X153533133Y-86673538D01*
X153533124Y-86673533D01*
X153414744Y-86624499D01*
X153414738Y-86624497D01*
X153289071Y-86599500D01*
X153289069Y-86599500D01*
X153160931Y-86599500D01*
X153160929Y-86599500D01*
X153035261Y-86624497D01*
X153035255Y-86624499D01*
X152916875Y-86673533D01*
X152916866Y-86673538D01*
X152810331Y-86744723D01*
X152810327Y-86744726D01*
X152719726Y-86835327D01*
X152719723Y-86835331D01*
X152648538Y-86941866D01*
X152648533Y-86941876D01*
X152598578Y-87062479D01*
X152554737Y-87116882D01*
X152488443Y-87138947D01*
X152420743Y-87121668D01*
X152373133Y-87070530D01*
X152360017Y-87015026D01*
X152360017Y-82890071D01*
X156099499Y-82890071D01*
X156124497Y-83015738D01*
X156124499Y-83015744D01*
X156173533Y-83134124D01*
X156173538Y-83134133D01*
X156244723Y-83240668D01*
X156244726Y-83240672D01*
X156335327Y-83331273D01*
X156335331Y-83331276D01*
X156441866Y-83402461D01*
X156441872Y-83402464D01*
X156441873Y-83402465D01*
X156560256Y-83451501D01*
X156560260Y-83451501D01*
X156560261Y-83451502D01*
X156685928Y-83476500D01*
X156685931Y-83476500D01*
X156814071Y-83476500D01*
X156898615Y-83459682D01*
X156939744Y-83451501D01*
X157058127Y-83402465D01*
X157164669Y-83331276D01*
X157255276Y-83240669D01*
X157326465Y-83134127D01*
X157375501Y-83015744D01*
X157400500Y-82890069D01*
X157400500Y-82761931D01*
X157400500Y-82761928D01*
X157375502Y-82636261D01*
X157375501Y-82636260D01*
X157375501Y-82636256D01*
X157326465Y-82517873D01*
X157326464Y-82517872D01*
X157326461Y-82517866D01*
X157255276Y-82411331D01*
X157255273Y-82411327D01*
X157169261Y-82325315D01*
X157135776Y-82263992D01*
X157140760Y-82194300D01*
X157182632Y-82138367D01*
X157248096Y-82113950D01*
X157304393Y-82123072D01*
X157310256Y-82125501D01*
X157310260Y-82125501D01*
X157310261Y-82125502D01*
X157435928Y-82150500D01*
X157435931Y-82150500D01*
X157564071Y-82150500D01*
X157658585Y-82131699D01*
X157689744Y-82125501D01*
X157808127Y-82076465D01*
X157914669Y-82005276D01*
X158005276Y-81914669D01*
X158076465Y-81808127D01*
X158125501Y-81689744D01*
X158136456Y-81634669D01*
X158150500Y-81564071D01*
X158150500Y-81435928D01*
X158125502Y-81310261D01*
X158125501Y-81310260D01*
X158125501Y-81310256D01*
X158082110Y-81205501D01*
X158076466Y-81191875D01*
X158076461Y-81191866D01*
X158005276Y-81085331D01*
X158005273Y-81085327D01*
X157984017Y-81064071D01*
X158349499Y-81064071D01*
X158374497Y-81189738D01*
X158374499Y-81189744D01*
X158423533Y-81308124D01*
X158423538Y-81308133D01*
X158494723Y-81414668D01*
X158494726Y-81414672D01*
X158585327Y-81505273D01*
X158585331Y-81505276D01*
X158691866Y-81576461D01*
X158691872Y-81576464D01*
X158691873Y-81576465D01*
X158810256Y-81625501D01*
X158810260Y-81625501D01*
X158810261Y-81625502D01*
X158935928Y-81650500D01*
X158935931Y-81650500D01*
X159064071Y-81650500D01*
X159143656Y-81634669D01*
X159213248Y-81640896D01*
X159268425Y-81683758D01*
X159291670Y-81749648D01*
X159275603Y-81817645D01*
X159270950Y-81825177D01*
X159193441Y-81941176D01*
X159193434Y-81941189D01*
X159136864Y-82077762D01*
X159136862Y-82077768D01*
X159116780Y-82178725D01*
X159115579Y-82181913D01*
X159115668Y-82183763D01*
X159102552Y-82216529D01*
X159083497Y-82249535D01*
X159041415Y-82322423D01*
X159000491Y-82475151D01*
X159000491Y-82475153D01*
X159000491Y-82643254D01*
X159000492Y-82643267D01*
X159000492Y-86014322D01*
X159000491Y-86014340D01*
X159000491Y-86180046D01*
X159000490Y-86180046D01*
X159041415Y-86332777D01*
X159070350Y-86382892D01*
X159070351Y-86382896D01*
X159070352Y-86382896D01*
X159120471Y-86469706D01*
X159120473Y-86469709D01*
X159239341Y-86588577D01*
X159239347Y-86588582D01*
X162463004Y-89812239D01*
X162463014Y-89812250D01*
X162467344Y-89816580D01*
X162467345Y-89816581D01*
X162579149Y-89928385D01*
X162665960Y-89978504D01*
X162665962Y-89978506D01*
X162704016Y-90000476D01*
X162716080Y-90007442D01*
X162868808Y-90048365D01*
X164965466Y-90048365D01*
X164965482Y-90048366D01*
X164973078Y-90048366D01*
X165131189Y-90048366D01*
X165131192Y-90048366D01*
X165283920Y-90007442D01*
X165334039Y-89978504D01*
X165420851Y-89928385D01*
X165532655Y-89816581D01*
X165532655Y-89816579D01*
X165542863Y-89806372D01*
X165542865Y-89806369D01*
X165828301Y-89520932D01*
X165889622Y-89487449D01*
X165891644Y-89487027D01*
X165968913Y-89471658D01*
X166105495Y-89415084D01*
X166228416Y-89332951D01*
X166332951Y-89228416D01*
X166415084Y-89105495D01*
X166471658Y-88968913D01*
X166490439Y-88874497D01*
X166500500Y-88823920D01*
X166500500Y-88814071D01*
X170099499Y-88814071D01*
X170124497Y-88939738D01*
X170124499Y-88939744D01*
X170173533Y-89058124D01*
X170173538Y-89058133D01*
X170244723Y-89164668D01*
X170244726Y-89164672D01*
X170335327Y-89255273D01*
X170335331Y-89255276D01*
X170441866Y-89326461D01*
X170441875Y-89326466D01*
X170468692Y-89337574D01*
X170560256Y-89375501D01*
X170560260Y-89375501D01*
X170560261Y-89375502D01*
X170685928Y-89400500D01*
X170685931Y-89400500D01*
X170814071Y-89400500D01*
X170898615Y-89383682D01*
X170939744Y-89375501D01*
X171058127Y-89326465D01*
X171164669Y-89255276D01*
X171255276Y-89164669D01*
X171326465Y-89058127D01*
X171375501Y-88939744D01*
X171383682Y-88898615D01*
X171400500Y-88814071D01*
X171400500Y-88685928D01*
X171375502Y-88560261D01*
X171375501Y-88560260D01*
X171375501Y-88560256D01*
X171326465Y-88441873D01*
X171326464Y-88441872D01*
X171326461Y-88441866D01*
X171255276Y-88335331D01*
X171255273Y-88335327D01*
X171164672Y-88244726D01*
X171164668Y-88244723D01*
X171058133Y-88173538D01*
X171058124Y-88173533D01*
X170939744Y-88124499D01*
X170939738Y-88124497D01*
X170814071Y-88099500D01*
X170814069Y-88099500D01*
X170685931Y-88099500D01*
X170685929Y-88099500D01*
X170560261Y-88124497D01*
X170560255Y-88124499D01*
X170441875Y-88173533D01*
X170441866Y-88173538D01*
X170335331Y-88244723D01*
X170335327Y-88244726D01*
X170244726Y-88335327D01*
X170244723Y-88335331D01*
X170173538Y-88441866D01*
X170173533Y-88441875D01*
X170124499Y-88560255D01*
X170124497Y-88560261D01*
X170099500Y-88685928D01*
X170099500Y-88685931D01*
X170099500Y-88814069D01*
X170099500Y-88814071D01*
X170099499Y-88814071D01*
X166500500Y-88814071D01*
X166500500Y-88676079D01*
X166471659Y-88531092D01*
X166471658Y-88531091D01*
X166471658Y-88531087D01*
X166471656Y-88531082D01*
X166415087Y-88394511D01*
X166415080Y-88394498D01*
X166332951Y-88271584D01*
X166332948Y-88271580D01*
X166228416Y-88167048D01*
X166115409Y-88091540D01*
X166070604Y-88037928D01*
X166061897Y-87968603D01*
X166092051Y-87905576D01*
X166151494Y-87868856D01*
X166184300Y-87864438D01*
X166278009Y-87864438D01*
X166362553Y-87847620D01*
X166403682Y-87839439D01*
X166522065Y-87790403D01*
X166628607Y-87719214D01*
X166719214Y-87628607D01*
X166790403Y-87522065D01*
X166839439Y-87403682D01*
X166847684Y-87362235D01*
X166864438Y-87278009D01*
X166864438Y-87149866D01*
X166839440Y-87024199D01*
X166839439Y-87024198D01*
X166839439Y-87024194D01*
X166790403Y-86905811D01*
X166790402Y-86905810D01*
X166790399Y-86905804D01*
X166719214Y-86799269D01*
X166719211Y-86799265D01*
X166628610Y-86708664D01*
X166628606Y-86708661D01*
X166522071Y-86637476D01*
X166522062Y-86637471D01*
X166403682Y-86588437D01*
X166403676Y-86588435D01*
X166278009Y-86563438D01*
X166278007Y-86563438D01*
X166149869Y-86563438D01*
X166149867Y-86563438D01*
X166024199Y-86588435D01*
X166024193Y-86588437D01*
X165905813Y-86637471D01*
X165905804Y-86637476D01*
X165799269Y-86708661D01*
X165799265Y-86708664D01*
X165708664Y-86799265D01*
X165708661Y-86799269D01*
X165637476Y-86905804D01*
X165637471Y-86905813D01*
X165588437Y-87024193D01*
X165588435Y-87024199D01*
X165563438Y-87149866D01*
X165563438Y-87149869D01*
X165563438Y-87278007D01*
X165563438Y-87278009D01*
X165563437Y-87278009D01*
X165588435Y-87403676D01*
X165588437Y-87403682D01*
X165637471Y-87522062D01*
X165637476Y-87522071D01*
X165708661Y-87628606D01*
X165708664Y-87628610D01*
X165799265Y-87719211D01*
X165799269Y-87719214D01*
X165878864Y-87772398D01*
X165923669Y-87826010D01*
X165932376Y-87895335D01*
X165902222Y-87958362D01*
X165842779Y-87995082D01*
X165809973Y-87999500D01*
X165676080Y-87999500D01*
X165531092Y-88028340D01*
X165531082Y-88028343D01*
X165394511Y-88084912D01*
X165394498Y-88084919D01*
X165271584Y-88167048D01*
X165271580Y-88167051D01*
X165167051Y-88271580D01*
X165167048Y-88271584D01*
X165084919Y-88394498D01*
X165084912Y-88394511D01*
X165028342Y-88531084D01*
X165028340Y-88531092D01*
X165013000Y-88608210D01*
X165004235Y-88624965D01*
X165000216Y-88643444D01*
X164981470Y-88668485D01*
X164980615Y-88670121D01*
X164979065Y-88671699D01*
X164839717Y-88811047D01*
X164778397Y-88844531D01*
X164752038Y-88847365D01*
X164124500Y-88847365D01*
X164057461Y-88827680D01*
X164011706Y-88774876D01*
X164000500Y-88723365D01*
X164000500Y-88676079D01*
X163971659Y-88531092D01*
X163971658Y-88531091D01*
X163971658Y-88531087D01*
X163918179Y-88401977D01*
X163910710Y-88332507D01*
X163941985Y-88270028D01*
X164002074Y-88234376D01*
X164056932Y-88232907D01*
X164132017Y-88247843D01*
X164132020Y-88247843D01*
X164260160Y-88247843D01*
X164344704Y-88231025D01*
X164385833Y-88222844D01*
X164504216Y-88173808D01*
X164610758Y-88102619D01*
X164701365Y-88012012D01*
X164772554Y-87905470D01*
X164821590Y-87787087D01*
X164845941Y-87664672D01*
X164846589Y-87661414D01*
X164846589Y-87533271D01*
X164821591Y-87407604D01*
X164821590Y-87407603D01*
X164821590Y-87407599D01*
X164772554Y-87289216D01*
X164772553Y-87289215D01*
X164772550Y-87289209D01*
X164701365Y-87182674D01*
X164701362Y-87182670D01*
X164610761Y-87092069D01*
X164610757Y-87092066D01*
X164504222Y-87020881D01*
X164504213Y-87020876D01*
X164385833Y-86971842D01*
X164385827Y-86971840D01*
X164260160Y-86946843D01*
X164260158Y-86946843D01*
X164132020Y-86946843D01*
X164132018Y-86946843D01*
X164006350Y-86971840D01*
X164006344Y-86971842D01*
X163887964Y-87020876D01*
X163887955Y-87020881D01*
X163781420Y-87092066D01*
X163781416Y-87092069D01*
X163690815Y-87182670D01*
X163690812Y-87182674D01*
X163619627Y-87289209D01*
X163619622Y-87289219D01*
X163589061Y-87363001D01*
X163545220Y-87417404D01*
X163478926Y-87439469D01*
X163411226Y-87422190D01*
X163363616Y-87371052D01*
X163350500Y-87315548D01*
X163350500Y-86378476D01*
X178618942Y-86378476D01*
X178643940Y-86504143D01*
X178643942Y-86504149D01*
X178692976Y-86622529D01*
X178692981Y-86622538D01*
X178764166Y-86729073D01*
X178764169Y-86729077D01*
X178854770Y-86819678D01*
X178854774Y-86819681D01*
X178961309Y-86890866D01*
X178961315Y-86890869D01*
X178961316Y-86890870D01*
X179079699Y-86939906D01*
X179079703Y-86939906D01*
X179079704Y-86939907D01*
X179205371Y-86964905D01*
X179205374Y-86964905D01*
X179333514Y-86964905D01*
X179449298Y-86941873D01*
X179459187Y-86939906D01*
X179577570Y-86890870D01*
X179684112Y-86819681D01*
X179774719Y-86729074D01*
X179845908Y-86622532D01*
X179894944Y-86504149D01*
X179903125Y-86463020D01*
X179919943Y-86378476D01*
X179919943Y-86250333D01*
X179894945Y-86124666D01*
X179894944Y-86124665D01*
X179894944Y-86124661D01*
X179852392Y-86021931D01*
X179845909Y-86006280D01*
X179845904Y-86006271D01*
X179774719Y-85899736D01*
X179774716Y-85899732D01*
X179684115Y-85809131D01*
X179684111Y-85809128D01*
X179577576Y-85737943D01*
X179577567Y-85737938D01*
X179459187Y-85688904D01*
X179459181Y-85688902D01*
X179333514Y-85663905D01*
X179333512Y-85663905D01*
X179205374Y-85663905D01*
X179205372Y-85663905D01*
X179079704Y-85688902D01*
X179079698Y-85688904D01*
X178961318Y-85737938D01*
X178961309Y-85737943D01*
X178854774Y-85809128D01*
X178854770Y-85809131D01*
X178764169Y-85899732D01*
X178764166Y-85899736D01*
X178692981Y-86006271D01*
X178692976Y-86006280D01*
X178643942Y-86124660D01*
X178643940Y-86124666D01*
X178618943Y-86250333D01*
X178618943Y-86250336D01*
X178618943Y-86378474D01*
X178618943Y-86378476D01*
X178618942Y-86378476D01*
X163350500Y-86378476D01*
X163350500Y-85264071D01*
X195599499Y-85264071D01*
X195624497Y-85389738D01*
X195624499Y-85389744D01*
X195673533Y-85508124D01*
X195673538Y-85508133D01*
X195744723Y-85614668D01*
X195744726Y-85614672D01*
X195835327Y-85705273D01*
X195835331Y-85705276D01*
X195941866Y-85776461D01*
X195941872Y-85776464D01*
X195941873Y-85776465D01*
X196060256Y-85825501D01*
X196060260Y-85825501D01*
X196060261Y-85825502D01*
X196185928Y-85850500D01*
X196185931Y-85850500D01*
X196314071Y-85850500D01*
X196430936Y-85827253D01*
X196439744Y-85825501D01*
X196558127Y-85776465D01*
X196664669Y-85705276D01*
X196755276Y-85614669D01*
X196826465Y-85508127D01*
X196875501Y-85389744D01*
X196900500Y-85264069D01*
X196900500Y-85135931D01*
X196900500Y-85135928D01*
X196875502Y-85010261D01*
X196875501Y-85010260D01*
X196875501Y-85010256D01*
X196826465Y-84891873D01*
X196826464Y-84891872D01*
X196826461Y-84891866D01*
X196755276Y-84785331D01*
X196755273Y-84785327D01*
X196664672Y-84694726D01*
X196664668Y-84694723D01*
X196558133Y-84623538D01*
X196558124Y-84623533D01*
X196439744Y-84574499D01*
X196439738Y-84574497D01*
X196314071Y-84549500D01*
X196314069Y-84549500D01*
X196185931Y-84549500D01*
X196185929Y-84549500D01*
X196060261Y-84574497D01*
X196060255Y-84574499D01*
X195941875Y-84623533D01*
X195941866Y-84623538D01*
X195835331Y-84694723D01*
X195835327Y-84694726D01*
X195744726Y-84785327D01*
X195744723Y-84785331D01*
X195673538Y-84891866D01*
X195673533Y-84891875D01*
X195624499Y-85010255D01*
X195624497Y-85010261D01*
X195599500Y-85135928D01*
X195599500Y-85135931D01*
X195599500Y-85264069D01*
X195599500Y-85264071D01*
X195599499Y-85264071D01*
X163350500Y-85264071D01*
X163350500Y-83064071D01*
X164599499Y-83064071D01*
X164624497Y-83189738D01*
X164624499Y-83189744D01*
X164673533Y-83308124D01*
X164673538Y-83308133D01*
X164744723Y-83414668D01*
X164744726Y-83414672D01*
X164835327Y-83505273D01*
X164835331Y-83505276D01*
X164941866Y-83576461D01*
X164941872Y-83576464D01*
X164941873Y-83576465D01*
X165060256Y-83625501D01*
X165060260Y-83625501D01*
X165060261Y-83625502D01*
X165185928Y-83650500D01*
X165185931Y-83650500D01*
X165314071Y-83650500D01*
X165398615Y-83633682D01*
X165439744Y-83625501D01*
X165558127Y-83576465D01*
X165664669Y-83505276D01*
X165755276Y-83414669D01*
X165826465Y-83308127D01*
X165875501Y-83189744D01*
X165900500Y-83064071D01*
X172874499Y-83064071D01*
X172899497Y-83189738D01*
X172899499Y-83189744D01*
X172948533Y-83308124D01*
X172948538Y-83308133D01*
X173019723Y-83414668D01*
X173019726Y-83414672D01*
X173110327Y-83505273D01*
X173110331Y-83505276D01*
X173216866Y-83576461D01*
X173216872Y-83576464D01*
X173216873Y-83576465D01*
X173335256Y-83625501D01*
X173335260Y-83625501D01*
X173335261Y-83625502D01*
X173460928Y-83650500D01*
X173460931Y-83650500D01*
X173589071Y-83650500D01*
X173673615Y-83633682D01*
X173714744Y-83625501D01*
X173833127Y-83576465D01*
X173939669Y-83505276D01*
X174030276Y-83414669D01*
X174101465Y-83308127D01*
X174150501Y-83189744D01*
X174175500Y-83064071D01*
X175874499Y-83064071D01*
X175899497Y-83189738D01*
X175899499Y-83189744D01*
X175948533Y-83308124D01*
X175948538Y-83308133D01*
X176019723Y-83414668D01*
X176019726Y-83414672D01*
X176110327Y-83505273D01*
X176110331Y-83505276D01*
X176216866Y-83576461D01*
X176216872Y-83576464D01*
X176216873Y-83576465D01*
X176335256Y-83625501D01*
X176335260Y-83625501D01*
X176335261Y-83625502D01*
X176460928Y-83650500D01*
X176460931Y-83650500D01*
X176589071Y-83650500D01*
X176673615Y-83633682D01*
X176714744Y-83625501D01*
X176833127Y-83576465D01*
X176939669Y-83505276D01*
X177030276Y-83414669D01*
X177101465Y-83308127D01*
X177150501Y-83189744D01*
X177175500Y-83064071D01*
X179624499Y-83064071D01*
X179649497Y-83189738D01*
X179649499Y-83189744D01*
X179698533Y-83308124D01*
X179698538Y-83308133D01*
X179769723Y-83414668D01*
X179769726Y-83414672D01*
X179860327Y-83505273D01*
X179860331Y-83505276D01*
X179966866Y-83576461D01*
X179966872Y-83576464D01*
X179966873Y-83576465D01*
X180085256Y-83625501D01*
X180085260Y-83625501D01*
X180085261Y-83625502D01*
X180210928Y-83650500D01*
X180210931Y-83650500D01*
X180339071Y-83650500D01*
X180423615Y-83633682D01*
X180464744Y-83625501D01*
X180583127Y-83576465D01*
X180689669Y-83505276D01*
X180780276Y-83414669D01*
X180851465Y-83308127D01*
X180900501Y-83189744D01*
X180925500Y-83064071D01*
X182624499Y-83064071D01*
X182649497Y-83189738D01*
X182649499Y-83189744D01*
X182698533Y-83308124D01*
X182698538Y-83308133D01*
X182769723Y-83414668D01*
X182769726Y-83414672D01*
X182860327Y-83505273D01*
X182860331Y-83505276D01*
X182966866Y-83576461D01*
X182966872Y-83576464D01*
X182966873Y-83576465D01*
X183085256Y-83625501D01*
X183085260Y-83625501D01*
X183085261Y-83625502D01*
X183210928Y-83650500D01*
X183210931Y-83650500D01*
X183339071Y-83650500D01*
X183423615Y-83633682D01*
X183464744Y-83625501D01*
X183583127Y-83576465D01*
X183689669Y-83505276D01*
X183780276Y-83414669D01*
X183851465Y-83308127D01*
X183900501Y-83189744D01*
X183925500Y-83064069D01*
X183925500Y-82935931D01*
X183925500Y-82935928D01*
X183900502Y-82810261D01*
X183900501Y-82810260D01*
X183900501Y-82810256D01*
X183862574Y-82718692D01*
X183851466Y-82691875D01*
X183851461Y-82691866D01*
X183780276Y-82585331D01*
X183780273Y-82585327D01*
X183689672Y-82494726D01*
X183689668Y-82494723D01*
X183583133Y-82423538D01*
X183583124Y-82423533D01*
X183464744Y-82374499D01*
X183464738Y-82374497D01*
X183339071Y-82349500D01*
X183339069Y-82349500D01*
X183210931Y-82349500D01*
X183210929Y-82349500D01*
X183085261Y-82374497D01*
X183085255Y-82374499D01*
X182966875Y-82423533D01*
X182966866Y-82423538D01*
X182860331Y-82494723D01*
X182860327Y-82494726D01*
X182769726Y-82585327D01*
X182769723Y-82585331D01*
X182698538Y-82691866D01*
X182698533Y-82691875D01*
X182649499Y-82810255D01*
X182649497Y-82810261D01*
X182624500Y-82935928D01*
X182624500Y-82935931D01*
X182624500Y-83064069D01*
X182624500Y-83064071D01*
X182624499Y-83064071D01*
X180925500Y-83064071D01*
X180925500Y-83064069D01*
X180925500Y-82935931D01*
X180925500Y-82935928D01*
X180900502Y-82810261D01*
X180900501Y-82810260D01*
X180900501Y-82810256D01*
X180862574Y-82718692D01*
X180851466Y-82691875D01*
X180851461Y-82691866D01*
X180780276Y-82585331D01*
X180780273Y-82585327D01*
X180689672Y-82494726D01*
X180689668Y-82494723D01*
X180583133Y-82423538D01*
X180583124Y-82423533D01*
X180464744Y-82374499D01*
X180464738Y-82374497D01*
X180339071Y-82349500D01*
X180339069Y-82349500D01*
X180210931Y-82349500D01*
X180210929Y-82349500D01*
X180085261Y-82374497D01*
X180085255Y-82374499D01*
X179966875Y-82423533D01*
X179966866Y-82423538D01*
X179860331Y-82494723D01*
X179860327Y-82494726D01*
X179769726Y-82585327D01*
X179769723Y-82585331D01*
X179698538Y-82691866D01*
X179698533Y-82691875D01*
X179649499Y-82810255D01*
X179649497Y-82810261D01*
X179624500Y-82935928D01*
X179624500Y-82935931D01*
X179624500Y-83064069D01*
X179624500Y-83064071D01*
X179624499Y-83064071D01*
X177175500Y-83064071D01*
X177175500Y-83064069D01*
X177175500Y-82935931D01*
X177175500Y-82935928D01*
X177150502Y-82810261D01*
X177150501Y-82810260D01*
X177150501Y-82810256D01*
X177112574Y-82718692D01*
X177101466Y-82691875D01*
X177101461Y-82691866D01*
X177030276Y-82585331D01*
X177030273Y-82585327D01*
X176939672Y-82494726D01*
X176939668Y-82494723D01*
X176833133Y-82423538D01*
X176833124Y-82423533D01*
X176714744Y-82374499D01*
X176714738Y-82374497D01*
X176589071Y-82349500D01*
X176589069Y-82349500D01*
X176460931Y-82349500D01*
X176460929Y-82349500D01*
X176335261Y-82374497D01*
X176335255Y-82374499D01*
X176216875Y-82423533D01*
X176216866Y-82423538D01*
X176110331Y-82494723D01*
X176110327Y-82494726D01*
X176019726Y-82585327D01*
X176019723Y-82585331D01*
X175948538Y-82691866D01*
X175948533Y-82691875D01*
X175899499Y-82810255D01*
X175899497Y-82810261D01*
X175874500Y-82935928D01*
X175874500Y-82935931D01*
X175874500Y-83064069D01*
X175874500Y-83064071D01*
X175874499Y-83064071D01*
X174175500Y-83064071D01*
X174175500Y-83064069D01*
X174175500Y-82935931D01*
X174175500Y-82935928D01*
X174150502Y-82810261D01*
X174150501Y-82810260D01*
X174150501Y-82810256D01*
X174112574Y-82718692D01*
X174101466Y-82691875D01*
X174101461Y-82691866D01*
X174030276Y-82585331D01*
X174030273Y-82585327D01*
X173939672Y-82494726D01*
X173939668Y-82494723D01*
X173833133Y-82423538D01*
X173833124Y-82423533D01*
X173714744Y-82374499D01*
X173714738Y-82374497D01*
X173589071Y-82349500D01*
X173589069Y-82349500D01*
X173460931Y-82349500D01*
X173460929Y-82349500D01*
X173335261Y-82374497D01*
X173335255Y-82374499D01*
X173216875Y-82423533D01*
X173216866Y-82423538D01*
X173110331Y-82494723D01*
X173110327Y-82494726D01*
X173019726Y-82585327D01*
X173019723Y-82585331D01*
X172948538Y-82691866D01*
X172948533Y-82691875D01*
X172899499Y-82810255D01*
X172899497Y-82810261D01*
X172874500Y-82935928D01*
X172874500Y-82935931D01*
X172874500Y-83064069D01*
X172874500Y-83064071D01*
X172874499Y-83064071D01*
X165900500Y-83064071D01*
X165900500Y-83064069D01*
X165900500Y-82935931D01*
X165900500Y-82935928D01*
X165875502Y-82810261D01*
X165875501Y-82810260D01*
X165875501Y-82810256D01*
X165837574Y-82718692D01*
X165826466Y-82691875D01*
X165826461Y-82691866D01*
X165755276Y-82585331D01*
X165755273Y-82585327D01*
X165664672Y-82494726D01*
X165664668Y-82494723D01*
X165558133Y-82423538D01*
X165558124Y-82423533D01*
X165439744Y-82374499D01*
X165439738Y-82374497D01*
X165314071Y-82349500D01*
X165314069Y-82349500D01*
X165185931Y-82349500D01*
X165185929Y-82349500D01*
X165060261Y-82374497D01*
X165060255Y-82374499D01*
X164941875Y-82423533D01*
X164941866Y-82423538D01*
X164835331Y-82494723D01*
X164835327Y-82494726D01*
X164744726Y-82585327D01*
X164744723Y-82585331D01*
X164673538Y-82691866D01*
X164673533Y-82691875D01*
X164624499Y-82810255D01*
X164624497Y-82810261D01*
X164599500Y-82935928D01*
X164599500Y-82935931D01*
X164599500Y-83064069D01*
X164599500Y-83064071D01*
X164599499Y-83064071D01*
X163350500Y-83064071D01*
X163350500Y-82408467D01*
X163350499Y-82408464D01*
X163348366Y-82400502D01*
X163340353Y-82370596D01*
X163309577Y-82255739D01*
X163271431Y-82189669D01*
X163271431Y-82189668D01*
X163230522Y-82118811D01*
X163230521Y-82118810D01*
X163230520Y-82118808D01*
X163118716Y-82007004D01*
X163118715Y-82007003D01*
X163114385Y-82002673D01*
X163114374Y-82002663D01*
X162955054Y-81843343D01*
X162921569Y-81782020D01*
X162921145Y-81779990D01*
X162905778Y-81702731D01*
X162877586Y-81634669D01*
X162849207Y-81566155D01*
X162849200Y-81566142D01*
X162767071Y-81443228D01*
X162767068Y-81443224D01*
X162662915Y-81339071D01*
X163349499Y-81339071D01*
X163374497Y-81464738D01*
X163374499Y-81464744D01*
X163423533Y-81583124D01*
X163423538Y-81583133D01*
X163494723Y-81689668D01*
X163494726Y-81689672D01*
X163585327Y-81780273D01*
X163585331Y-81780276D01*
X163691866Y-81851461D01*
X163691872Y-81851464D01*
X163691873Y-81851465D01*
X163810256Y-81900501D01*
X163810260Y-81900501D01*
X163810261Y-81900502D01*
X163935928Y-81925500D01*
X163935931Y-81925500D01*
X164064071Y-81925500D01*
X164148615Y-81908682D01*
X164189744Y-81900501D01*
X164308127Y-81851465D01*
X164414669Y-81780276D01*
X164505276Y-81689669D01*
X164576465Y-81583127D01*
X164625501Y-81464744D01*
X164628383Y-81450257D01*
X164660768Y-81388347D01*
X164721484Y-81353772D01*
X164791253Y-81357512D01*
X164847925Y-81398379D01*
X164871617Y-81450257D01*
X164874497Y-81464738D01*
X164874499Y-81464744D01*
X164923533Y-81583124D01*
X164923538Y-81583133D01*
X164994723Y-81689668D01*
X164994726Y-81689672D01*
X165085327Y-81780273D01*
X165085331Y-81780276D01*
X165191866Y-81851461D01*
X165191872Y-81851464D01*
X165191873Y-81851465D01*
X165310256Y-81900501D01*
X165310260Y-81900501D01*
X165310261Y-81900502D01*
X165435928Y-81925500D01*
X165435931Y-81925500D01*
X165564071Y-81925500D01*
X165648615Y-81908682D01*
X165689744Y-81900501D01*
X165808127Y-81851465D01*
X165826676Y-81839071D01*
X184099499Y-81839071D01*
X184124497Y-81964738D01*
X184124499Y-81964744D01*
X184173533Y-82083124D01*
X184173538Y-82083133D01*
X184244723Y-82189668D01*
X184244726Y-82189672D01*
X184335327Y-82280273D01*
X184335331Y-82280276D01*
X184441866Y-82351461D01*
X184441872Y-82351464D01*
X184441873Y-82351465D01*
X184560256Y-82400501D01*
X184560260Y-82400501D01*
X184560261Y-82400502D01*
X184685928Y-82425500D01*
X184685931Y-82425500D01*
X184814071Y-82425500D01*
X184899712Y-82408464D01*
X184939744Y-82400501D01*
X185058127Y-82351465D01*
X185164669Y-82280276D01*
X185255276Y-82189669D01*
X185326465Y-82083127D01*
X185375501Y-81964744D01*
X185398034Y-81851466D01*
X185400500Y-81839071D01*
X185400500Y-81710928D01*
X185375502Y-81585261D01*
X185375501Y-81585260D01*
X185375501Y-81585256D01*
X185326465Y-81466873D01*
X185326464Y-81466872D01*
X185326461Y-81466866D01*
X185255276Y-81360331D01*
X185255273Y-81360327D01*
X185164672Y-81269726D01*
X185164668Y-81269723D01*
X185058133Y-81198538D01*
X185058124Y-81198533D01*
X184939744Y-81149499D01*
X184939738Y-81149497D01*
X184814071Y-81124500D01*
X184814069Y-81124500D01*
X184685931Y-81124500D01*
X184685929Y-81124500D01*
X184560261Y-81149497D01*
X184560255Y-81149499D01*
X184441875Y-81198533D01*
X184441866Y-81198538D01*
X184335331Y-81269723D01*
X184335327Y-81269726D01*
X184244726Y-81360327D01*
X184244723Y-81360331D01*
X184173538Y-81466866D01*
X184173533Y-81466875D01*
X184124499Y-81585255D01*
X184124497Y-81585261D01*
X184099500Y-81710928D01*
X184099500Y-81710931D01*
X184099500Y-81839069D01*
X184099500Y-81839071D01*
X184099499Y-81839071D01*
X165826676Y-81839071D01*
X165914669Y-81780276D01*
X166005276Y-81689669D01*
X166031448Y-81650500D01*
X166041172Y-81635948D01*
X166041173Y-81635946D01*
X166076458Y-81583138D01*
X166076461Y-81583133D01*
X166076465Y-81583127D01*
X166125501Y-81464744D01*
X166140698Y-81388347D01*
X166150500Y-81339071D01*
X166150500Y-81210928D01*
X166125502Y-81085261D01*
X166125501Y-81085257D01*
X166125501Y-81085256D01*
X166076465Y-80966873D01*
X166076464Y-80966872D01*
X166076461Y-80966866D01*
X166005276Y-80860331D01*
X166005273Y-80860327D01*
X165914672Y-80769726D01*
X165914668Y-80769723D01*
X165808133Y-80698538D01*
X165808124Y-80698533D01*
X165689744Y-80649499D01*
X165689738Y-80649497D01*
X165564071Y-80624500D01*
X165564069Y-80624500D01*
X165435931Y-80624500D01*
X165435929Y-80624500D01*
X165310261Y-80649497D01*
X165310255Y-80649499D01*
X165191875Y-80698533D01*
X165191866Y-80698538D01*
X165085331Y-80769723D01*
X165085327Y-80769726D01*
X164994726Y-80860327D01*
X164994723Y-80860331D01*
X164923538Y-80966866D01*
X164923533Y-80966875D01*
X164874499Y-81085255D01*
X164874499Y-81085256D01*
X164873294Y-81091309D01*
X164871617Y-81099743D01*
X164839231Y-81161653D01*
X164778515Y-81196227D01*
X164708746Y-81192486D01*
X164652074Y-81151619D01*
X164628383Y-81099743D01*
X164626705Y-81091309D01*
X164625501Y-81085256D01*
X164576465Y-80966873D01*
X164576464Y-80966872D01*
X164576461Y-80966866D01*
X164505276Y-80860331D01*
X164505273Y-80860327D01*
X164414672Y-80769726D01*
X164414668Y-80769723D01*
X164308133Y-80698538D01*
X164308124Y-80698533D01*
X164189744Y-80649499D01*
X164189738Y-80649497D01*
X164064071Y-80624500D01*
X164064069Y-80624500D01*
X163935931Y-80624500D01*
X163935929Y-80624500D01*
X163810261Y-80649497D01*
X163810255Y-80649499D01*
X163691875Y-80698533D01*
X163691866Y-80698538D01*
X163585331Y-80769723D01*
X163585327Y-80769726D01*
X163494726Y-80860327D01*
X163494723Y-80860331D01*
X163423538Y-80966866D01*
X163423533Y-80966875D01*
X163374499Y-81085255D01*
X163374497Y-81085261D01*
X163349500Y-81210928D01*
X163349500Y-81210931D01*
X163349500Y-81339069D01*
X163349500Y-81339071D01*
X163349499Y-81339071D01*
X162662915Y-81339071D01*
X162662539Y-81338695D01*
X162662535Y-81338692D01*
X162616513Y-81307941D01*
X162539621Y-81256563D01*
X162539608Y-81256556D01*
X162403037Y-81199987D01*
X162403027Y-81199984D01*
X162258040Y-81171144D01*
X162258038Y-81171144D01*
X162110202Y-81171144D01*
X162110200Y-81171144D01*
X161965212Y-81199984D01*
X161965202Y-81199987D01*
X161828631Y-81256556D01*
X161828618Y-81256563D01*
X161705704Y-81338692D01*
X161705700Y-81338695D01*
X161601171Y-81443224D01*
X161601168Y-81443228D01*
X161519039Y-81566142D01*
X161519032Y-81566155D01*
X161462463Y-81702726D01*
X161462460Y-81702736D01*
X161433620Y-81847723D01*
X161433620Y-81847726D01*
X161433620Y-81995562D01*
X161433620Y-81995564D01*
X161433619Y-81995564D01*
X161462460Y-82140551D01*
X161462463Y-82140561D01*
X161519032Y-82277132D01*
X161519039Y-82277145D01*
X161601168Y-82400059D01*
X161601171Y-82400063D01*
X161705700Y-82504592D01*
X161705704Y-82504595D01*
X161828618Y-82586724D01*
X161828631Y-82586731D01*
X161965202Y-82643300D01*
X161965207Y-82643302D01*
X162042332Y-82658643D01*
X162059086Y-82667407D01*
X162077565Y-82671427D01*
X162102601Y-82690169D01*
X162104239Y-82691026D01*
X162105819Y-82692578D01*
X162113181Y-82699940D01*
X162146666Y-82761263D01*
X162149500Y-82787621D01*
X162149500Y-87500903D01*
X162129815Y-87567942D01*
X162077011Y-87613697D01*
X162007853Y-87623641D01*
X161944297Y-87594616D01*
X161937819Y-87588584D01*
X160237811Y-85888576D01*
X160204326Y-85827253D01*
X160201492Y-85800895D01*
X160201492Y-85467099D01*
X160221177Y-85400060D01*
X160273981Y-85354305D01*
X160301299Y-85345482D01*
X160391736Y-85327493D01*
X160510119Y-85278457D01*
X160616661Y-85207268D01*
X160707268Y-85116661D01*
X160778457Y-85010119D01*
X160827493Y-84891736D01*
X160852492Y-84766061D01*
X160852492Y-84637923D01*
X160852492Y-84637920D01*
X160827494Y-84512253D01*
X160827493Y-84512252D01*
X160827493Y-84512248D01*
X160778457Y-84393865D01*
X160778456Y-84393864D01*
X160778453Y-84393858D01*
X160707268Y-84287323D01*
X160707265Y-84287319D01*
X160616664Y-84196718D01*
X160616660Y-84196715D01*
X160510125Y-84125530D01*
X160510116Y-84125525D01*
X160391736Y-84076491D01*
X160391730Y-84076489D01*
X160301300Y-84058501D01*
X160239389Y-84026116D01*
X160204815Y-83965400D01*
X160201492Y-83936884D01*
X160201492Y-83036410D01*
X160221177Y-82969371D01*
X160256600Y-82933308D01*
X160336938Y-82879629D01*
X160441473Y-82775094D01*
X160523606Y-82652173D01*
X160527281Y-82643302D01*
X160579234Y-82517875D01*
X160580180Y-82515591D01*
X160609022Y-82370596D01*
X160609022Y-82222760D01*
X160609022Y-82222757D01*
X160580181Y-82077770D01*
X160580180Y-82077769D01*
X160580180Y-82077765D01*
X160550869Y-82007002D01*
X160523609Y-81941189D01*
X160523602Y-81941176D01*
X160441473Y-81818262D01*
X160441470Y-81818258D01*
X160336941Y-81713729D01*
X160336937Y-81713726D01*
X160214023Y-81631597D01*
X160214010Y-81631590D01*
X160077439Y-81575021D01*
X160077429Y-81575018D01*
X159932442Y-81546178D01*
X159932440Y-81546178D01*
X159784604Y-81546178D01*
X159784599Y-81546178D01*
X159654729Y-81572011D01*
X159585138Y-81565784D01*
X159529960Y-81522921D01*
X159506716Y-81457031D01*
X159522784Y-81389034D01*
X159527437Y-81381502D01*
X159576460Y-81308135D01*
X159576461Y-81308132D01*
X159576465Y-81308127D01*
X159625501Y-81189744D01*
X159646271Y-81085331D01*
X159650500Y-81064071D01*
X159650500Y-80935928D01*
X159625502Y-80810261D01*
X159625501Y-80810260D01*
X159625501Y-80810256D01*
X159579226Y-80698538D01*
X159576466Y-80691875D01*
X159576461Y-80691866D01*
X159505276Y-80585331D01*
X159505273Y-80585327D01*
X159414672Y-80494726D01*
X159414668Y-80494723D01*
X159308133Y-80423538D01*
X159308124Y-80423533D01*
X159189744Y-80374499D01*
X159189738Y-80374497D01*
X159064071Y-80349500D01*
X159064069Y-80349500D01*
X158935931Y-80349500D01*
X158935929Y-80349500D01*
X158810261Y-80374497D01*
X158810255Y-80374499D01*
X158691875Y-80423533D01*
X158691866Y-80423538D01*
X158585331Y-80494723D01*
X158585327Y-80494726D01*
X158494726Y-80585327D01*
X158494723Y-80585331D01*
X158423538Y-80691866D01*
X158423533Y-80691875D01*
X158374499Y-80810255D01*
X158374497Y-80810261D01*
X158349500Y-80935928D01*
X158349500Y-80935931D01*
X158349500Y-81064069D01*
X158349500Y-81064071D01*
X158349499Y-81064071D01*
X157984017Y-81064071D01*
X157914672Y-80994726D01*
X157914668Y-80994723D01*
X157808133Y-80923538D01*
X157808124Y-80923533D01*
X157689744Y-80874499D01*
X157689738Y-80874497D01*
X157564071Y-80849500D01*
X157564069Y-80849500D01*
X157435931Y-80849500D01*
X157435929Y-80849500D01*
X157310261Y-80874497D01*
X157310255Y-80874499D01*
X157191875Y-80923533D01*
X157191866Y-80923538D01*
X157085331Y-80994723D01*
X157085327Y-80994726D01*
X156994726Y-81085327D01*
X156994723Y-81085331D01*
X156923538Y-81191866D01*
X156923533Y-81191875D01*
X156874499Y-81310255D01*
X156874497Y-81310261D01*
X156849500Y-81435928D01*
X156849500Y-81435931D01*
X156849500Y-81564069D01*
X156849500Y-81564071D01*
X156849499Y-81564071D01*
X156874497Y-81689738D01*
X156874499Y-81689744D01*
X156923533Y-81808124D01*
X156923538Y-81808133D01*
X156994723Y-81914668D01*
X156994726Y-81914672D01*
X157080738Y-82000684D01*
X157114223Y-82062007D01*
X157109239Y-82131699D01*
X157067367Y-82187632D01*
X157001903Y-82212049D01*
X156945608Y-82202928D01*
X156939744Y-82200499D01*
X156939742Y-82200498D01*
X156939738Y-82200497D01*
X156814071Y-82175500D01*
X156814069Y-82175500D01*
X156685931Y-82175500D01*
X156685929Y-82175500D01*
X156560261Y-82200497D01*
X156560255Y-82200499D01*
X156441875Y-82249533D01*
X156441871Y-82249536D01*
X156335331Y-82320723D01*
X156335327Y-82320726D01*
X156244726Y-82411327D01*
X156244723Y-82411331D01*
X156173538Y-82517866D01*
X156173533Y-82517875D01*
X156124499Y-82636255D01*
X156124497Y-82636261D01*
X156099500Y-82761928D01*
X156099500Y-82761931D01*
X156099500Y-82890069D01*
X156099500Y-82890071D01*
X156099499Y-82890071D01*
X152360017Y-82890071D01*
X152360017Y-80999500D01*
X152361189Y-80995506D01*
X152360279Y-80991447D01*
X152370949Y-80962268D01*
X152379702Y-80932461D01*
X152382846Y-80929736D01*
X152384276Y-80925827D01*
X152409034Y-80907044D01*
X152432506Y-80886706D01*
X152437569Y-80885396D01*
X152439940Y-80883598D01*
X152455754Y-80880692D01*
X152474379Y-80875875D01*
X152479189Y-80875500D01*
X152564069Y-80875500D01*
X152618782Y-80864616D01*
X152626113Y-80864045D01*
X152653386Y-80869795D01*
X152681149Y-80872279D01*
X152687102Y-80876903D01*
X152694479Y-80878459D01*
X152714313Y-80898041D01*
X152736327Y-80915141D01*
X152739863Y-80923266D01*
X152744200Y-80927547D01*
X152746827Y-80939262D01*
X152757368Y-80963477D01*
X152778340Y-81068908D01*
X152778343Y-81068917D01*
X152834912Y-81205488D01*
X152834919Y-81205501D01*
X152917048Y-81328415D01*
X152917051Y-81328419D01*
X153021580Y-81432948D01*
X153021584Y-81432951D01*
X153144498Y-81515080D01*
X153144511Y-81515087D01*
X153281082Y-81571656D01*
X153281087Y-81571658D01*
X153281091Y-81571658D01*
X153281092Y-81571659D01*
X153426079Y-81600500D01*
X153426082Y-81600500D01*
X153573920Y-81600500D01*
X153702011Y-81575020D01*
X153718913Y-81571658D01*
X153855495Y-81515084D01*
X153978416Y-81432951D01*
X154082951Y-81328416D01*
X154165084Y-81205495D01*
X154167366Y-81199987D01*
X154214888Y-81085257D01*
X154221658Y-81068913D01*
X154231096Y-81021462D01*
X154250500Y-80923920D01*
X154250500Y-80776079D01*
X154221659Y-80631092D01*
X154221658Y-80631091D01*
X154221658Y-80631087D01*
X154165084Y-80494505D01*
X154121396Y-80429121D01*
X154100520Y-80362444D01*
X154100500Y-80360232D01*
X154100500Y-80314071D01*
X189674499Y-80314071D01*
X189699497Y-80439738D01*
X189699499Y-80439744D01*
X189748533Y-80558124D01*
X189748538Y-80558133D01*
X189819723Y-80664668D01*
X189819726Y-80664672D01*
X189910327Y-80755273D01*
X189910331Y-80755276D01*
X190016866Y-80826461D01*
X190016875Y-80826466D01*
X190026105Y-80830289D01*
X190135256Y-80875501D01*
X190135260Y-80875501D01*
X190135261Y-80875502D01*
X190260928Y-80900500D01*
X190260931Y-80900500D01*
X190389071Y-80900500D01*
X190474039Y-80883598D01*
X190514744Y-80875501D01*
X190633127Y-80826465D01*
X190739669Y-80755276D01*
X190830276Y-80664669D01*
X190901465Y-80558127D01*
X190950501Y-80439744D01*
X190958835Y-80397847D01*
X190975500Y-80314071D01*
X190975500Y-80241153D01*
X191794500Y-80241153D01*
X191794500Y-80398846D01*
X191825261Y-80553489D01*
X191825264Y-80553501D01*
X191885602Y-80699172D01*
X191885609Y-80699185D01*
X191973210Y-80830288D01*
X191973213Y-80830292D01*
X192084707Y-80941786D01*
X192084711Y-80941789D01*
X192215814Y-81029390D01*
X192215827Y-81029397D01*
X192350682Y-81085255D01*
X192361503Y-81089737D01*
X192516153Y-81120499D01*
X192516156Y-81120500D01*
X192516158Y-81120500D01*
X193773844Y-81120500D01*
X193773845Y-81120499D01*
X193928497Y-81089737D01*
X194074179Y-81029394D01*
X194205289Y-80941789D01*
X194316789Y-80830289D01*
X194404394Y-80699179D01*
X194464737Y-80553497D01*
X194495500Y-80398842D01*
X194495500Y-80241158D01*
X194495500Y-80241155D01*
X194495499Y-80241153D01*
X196124500Y-80241153D01*
X196124500Y-80398846D01*
X196155261Y-80553489D01*
X196155264Y-80553501D01*
X196215602Y-80699172D01*
X196215609Y-80699185D01*
X196303210Y-80830288D01*
X196303213Y-80830292D01*
X196414707Y-80941786D01*
X196414711Y-80941789D01*
X196545814Y-81029390D01*
X196545827Y-81029397D01*
X196680682Y-81085255D01*
X196691503Y-81089737D01*
X196846153Y-81120499D01*
X196846156Y-81120500D01*
X196846158Y-81120500D01*
X197803844Y-81120500D01*
X197803845Y-81120499D01*
X197958497Y-81089737D01*
X198104179Y-81029394D01*
X198235289Y-80941789D01*
X198346789Y-80830289D01*
X198434394Y-80699179D01*
X198494737Y-80553497D01*
X198525500Y-80398842D01*
X198525500Y-80241158D01*
X198525500Y-80241155D01*
X198525499Y-80241153D01*
X198494737Y-80086503D01*
X198434827Y-79941866D01*
X198434397Y-79940827D01*
X198434390Y-79940814D01*
X198346789Y-79809711D01*
X198346786Y-79809707D01*
X198235292Y-79698213D01*
X198235288Y-79698210D01*
X198104185Y-79610609D01*
X198104172Y-79610602D01*
X197958501Y-79550264D01*
X197958489Y-79550261D01*
X197803845Y-79519500D01*
X197803842Y-79519500D01*
X196846158Y-79519500D01*
X196846155Y-79519500D01*
X196691510Y-79550261D01*
X196691498Y-79550264D01*
X196545827Y-79610602D01*
X196545814Y-79610609D01*
X196414711Y-79698210D01*
X196414707Y-79698213D01*
X196303213Y-79809707D01*
X196303210Y-79809711D01*
X196215609Y-79940814D01*
X196215602Y-79940827D01*
X196155264Y-80086498D01*
X196155261Y-80086510D01*
X196124500Y-80241153D01*
X194495499Y-80241153D01*
X194464737Y-80086503D01*
X194404827Y-79941866D01*
X194404397Y-79940827D01*
X194404390Y-79940814D01*
X194316789Y-79809711D01*
X194316786Y-79809707D01*
X194205292Y-79698213D01*
X194205288Y-79698210D01*
X194074185Y-79610609D01*
X194074175Y-79610604D01*
X194000037Y-79579895D01*
X193945634Y-79536054D01*
X193923569Y-79469760D01*
X193940848Y-79402060D01*
X193985491Y-79357947D01*
X193998365Y-79350515D01*
X194105515Y-79243365D01*
X194181281Y-79112135D01*
X194220500Y-78965766D01*
X194220500Y-78814234D01*
X194181281Y-78667865D01*
X194105515Y-78536635D01*
X193998365Y-78429485D01*
X193932750Y-78391602D01*
X193867136Y-78353719D01*
X193793950Y-78334109D01*
X193720766Y-78314500D01*
X193569234Y-78314500D01*
X193422863Y-78353719D01*
X193291635Y-78429485D01*
X193291632Y-78429487D01*
X193184487Y-78536632D01*
X193184485Y-78536635D01*
X193108719Y-78667863D01*
X193069500Y-78814234D01*
X193069500Y-78965765D01*
X193108719Y-79112136D01*
X193116436Y-79125502D01*
X193184485Y-79243365D01*
X193184487Y-79243367D01*
X193248939Y-79307819D01*
X193282424Y-79369142D01*
X193277440Y-79438834D01*
X193235568Y-79494767D01*
X193170104Y-79519184D01*
X193161258Y-79519500D01*
X192516155Y-79519500D01*
X192361510Y-79550261D01*
X192361498Y-79550264D01*
X192215827Y-79610602D01*
X192215814Y-79610609D01*
X192084711Y-79698210D01*
X192084707Y-79698213D01*
X191973213Y-79809707D01*
X191973210Y-79809711D01*
X191885609Y-79940814D01*
X191885602Y-79940827D01*
X191825264Y-80086498D01*
X191825261Y-80086510D01*
X191794500Y-80241153D01*
X190975500Y-80241153D01*
X190975500Y-80185928D01*
X190950502Y-80060261D01*
X190950501Y-80060260D01*
X190950501Y-80060256D01*
X190901465Y-79941873D01*
X190901464Y-79941872D01*
X190901461Y-79941866D01*
X190830276Y-79835331D01*
X190830273Y-79835327D01*
X190739672Y-79744726D01*
X190739668Y-79744723D01*
X190633133Y-79673538D01*
X190633124Y-79673533D01*
X190514744Y-79624499D01*
X190514738Y-79624497D01*
X190389071Y-79599500D01*
X190389069Y-79599500D01*
X190260931Y-79599500D01*
X190260929Y-79599500D01*
X190135261Y-79624497D01*
X190135255Y-79624499D01*
X190016875Y-79673533D01*
X190016866Y-79673538D01*
X189910331Y-79744723D01*
X189910327Y-79744726D01*
X189819726Y-79835327D01*
X189819723Y-79835331D01*
X189748538Y-79941866D01*
X189748533Y-79941875D01*
X189699499Y-80060255D01*
X189699497Y-80060261D01*
X189674500Y-80185928D01*
X189674500Y-80185931D01*
X189674500Y-80314069D01*
X189674500Y-80314071D01*
X189674499Y-80314071D01*
X154100500Y-80314071D01*
X154100500Y-78564071D01*
X155374499Y-78564071D01*
X155399497Y-78689738D01*
X155399499Y-78689744D01*
X155448533Y-78808124D01*
X155448538Y-78808133D01*
X155519723Y-78914668D01*
X155519726Y-78914672D01*
X155610327Y-79005273D01*
X155610331Y-79005276D01*
X155716866Y-79076461D01*
X155716872Y-79076464D01*
X155716873Y-79076465D01*
X155835256Y-79125501D01*
X155835260Y-79125501D01*
X155835261Y-79125502D01*
X155960928Y-79150500D01*
X155960931Y-79150500D01*
X156089071Y-79150500D01*
X156173615Y-79133682D01*
X156214744Y-79125501D01*
X156333127Y-79076465D01*
X156439669Y-79005276D01*
X156530276Y-78914669D01*
X156601465Y-78808127D01*
X156650501Y-78689744D01*
X156675500Y-78564071D01*
X183874499Y-78564071D01*
X183899497Y-78689738D01*
X183899499Y-78689744D01*
X183948533Y-78808124D01*
X183948538Y-78808133D01*
X184019723Y-78914668D01*
X184019726Y-78914672D01*
X184110327Y-79005273D01*
X184110331Y-79005276D01*
X184216866Y-79076461D01*
X184216872Y-79076464D01*
X184216873Y-79076465D01*
X184335256Y-79125501D01*
X184335260Y-79125501D01*
X184335261Y-79125502D01*
X184460928Y-79150500D01*
X184460931Y-79150500D01*
X184589071Y-79150500D01*
X184673615Y-79133682D01*
X184714744Y-79125501D01*
X184833127Y-79076465D01*
X184939669Y-79005276D01*
X185030276Y-78914669D01*
X185101465Y-78808127D01*
X185150501Y-78689744D01*
X185175500Y-78564069D01*
X185175500Y-78435931D01*
X185175500Y-78435928D01*
X185150502Y-78310261D01*
X185150501Y-78310260D01*
X185150501Y-78310256D01*
X185101465Y-78191873D01*
X185101464Y-78191872D01*
X185101461Y-78191866D01*
X185030276Y-78085331D01*
X185030273Y-78085327D01*
X184939672Y-77994726D01*
X184939668Y-77994723D01*
X184833133Y-77923538D01*
X184833124Y-77923533D01*
X184714744Y-77874499D01*
X184714738Y-77874497D01*
X184589071Y-77849500D01*
X184589069Y-77849500D01*
X184460931Y-77849500D01*
X184460929Y-77849500D01*
X184335261Y-77874497D01*
X184335255Y-77874499D01*
X184216875Y-77923533D01*
X184216866Y-77923538D01*
X184110331Y-77994723D01*
X184110327Y-77994726D01*
X184019726Y-78085327D01*
X184019723Y-78085331D01*
X183948538Y-78191866D01*
X183948533Y-78191875D01*
X183899499Y-78310255D01*
X183899497Y-78310261D01*
X183874500Y-78435928D01*
X183874500Y-78435931D01*
X183874500Y-78564069D01*
X183874500Y-78564071D01*
X183874499Y-78564071D01*
X156675500Y-78564071D01*
X156675500Y-78564069D01*
X156675500Y-78435931D01*
X156675500Y-78435928D01*
X156650502Y-78310261D01*
X156650501Y-78310260D01*
X156650501Y-78310256D01*
X156601465Y-78191873D01*
X156601464Y-78191872D01*
X156601461Y-78191866D01*
X156530276Y-78085331D01*
X156530273Y-78085327D01*
X156439672Y-77994726D01*
X156439668Y-77994723D01*
X156333133Y-77923538D01*
X156333124Y-77923533D01*
X156214744Y-77874499D01*
X156214738Y-77874497D01*
X156089071Y-77849500D01*
X156089069Y-77849500D01*
X155960931Y-77849500D01*
X155960929Y-77849500D01*
X155835261Y-77874497D01*
X155835255Y-77874499D01*
X155716875Y-77923533D01*
X155716866Y-77923538D01*
X155610331Y-77994723D01*
X155610327Y-77994726D01*
X155519726Y-78085327D01*
X155519723Y-78085331D01*
X155448538Y-78191866D01*
X155448533Y-78191875D01*
X155399499Y-78310255D01*
X155399497Y-78310261D01*
X155374500Y-78435928D01*
X155374500Y-78435931D01*
X155374500Y-78564069D01*
X155374500Y-78564071D01*
X155374499Y-78564071D01*
X154100500Y-78564071D01*
X154100500Y-77564071D01*
X164024499Y-77564071D01*
X164049497Y-77689738D01*
X164049499Y-77689744D01*
X164098533Y-77808124D01*
X164098538Y-77808133D01*
X164169723Y-77914668D01*
X164169726Y-77914672D01*
X164260327Y-78005273D01*
X164260331Y-78005276D01*
X164366866Y-78076461D01*
X164366872Y-78076464D01*
X164366873Y-78076465D01*
X164485256Y-78125501D01*
X164485260Y-78125501D01*
X164485261Y-78125502D01*
X164610928Y-78150500D01*
X164610931Y-78150500D01*
X164739071Y-78150500D01*
X164823615Y-78133682D01*
X164864744Y-78125501D01*
X164983127Y-78076465D01*
X165089669Y-78005276D01*
X165180276Y-77914669D01*
X165251465Y-77808127D01*
X165300501Y-77689744D01*
X165325500Y-77564071D01*
X165674499Y-77564071D01*
X165699497Y-77689738D01*
X165699499Y-77689744D01*
X165748533Y-77808124D01*
X165748538Y-77808133D01*
X165819723Y-77914668D01*
X165819726Y-77914672D01*
X165910327Y-78005273D01*
X165910331Y-78005276D01*
X166016866Y-78076461D01*
X166016872Y-78076464D01*
X166016873Y-78076465D01*
X166135256Y-78125501D01*
X166135260Y-78125501D01*
X166135261Y-78125502D01*
X166260928Y-78150500D01*
X166260931Y-78150500D01*
X166389071Y-78150500D01*
X166473615Y-78133682D01*
X166514744Y-78125501D01*
X166633127Y-78076465D01*
X166739669Y-78005276D01*
X166830276Y-77914669D01*
X166901465Y-77808127D01*
X166950501Y-77689744D01*
X166975500Y-77564069D01*
X166975500Y-77435931D01*
X166975500Y-77435928D01*
X166950502Y-77310261D01*
X166950501Y-77310260D01*
X166950501Y-77310256D01*
X166901465Y-77191873D01*
X166901464Y-77191872D01*
X166901461Y-77191866D01*
X166830276Y-77085331D01*
X166830273Y-77085327D01*
X166739672Y-76994726D01*
X166739668Y-76994723D01*
X166633133Y-76923538D01*
X166633124Y-76923533D01*
X166514744Y-76874499D01*
X166514738Y-76874497D01*
X166389071Y-76849500D01*
X166389069Y-76849500D01*
X166260931Y-76849500D01*
X166260929Y-76849500D01*
X166135261Y-76874497D01*
X166135255Y-76874499D01*
X166016875Y-76923533D01*
X166016866Y-76923538D01*
X165910331Y-76994723D01*
X165910327Y-76994726D01*
X165819726Y-77085327D01*
X165819723Y-77085331D01*
X165748538Y-77191866D01*
X165748533Y-77191875D01*
X165699499Y-77310255D01*
X165699497Y-77310261D01*
X165674500Y-77435928D01*
X165674500Y-77435931D01*
X165674500Y-77564069D01*
X165674500Y-77564071D01*
X165674499Y-77564071D01*
X165325500Y-77564071D01*
X165325500Y-77564069D01*
X165325500Y-77435931D01*
X165325500Y-77435928D01*
X165300502Y-77310261D01*
X165300501Y-77310260D01*
X165300501Y-77310256D01*
X165251465Y-77191873D01*
X165251464Y-77191872D01*
X165251461Y-77191866D01*
X165180276Y-77085331D01*
X165180273Y-77085327D01*
X165089672Y-76994726D01*
X165089668Y-76994723D01*
X164983133Y-76923538D01*
X164983124Y-76923533D01*
X164864744Y-76874499D01*
X164864738Y-76874497D01*
X164739071Y-76849500D01*
X164739069Y-76849500D01*
X164610931Y-76849500D01*
X164610929Y-76849500D01*
X164485261Y-76874497D01*
X164485255Y-76874499D01*
X164366875Y-76923533D01*
X164366866Y-76923538D01*
X164260331Y-76994723D01*
X164260327Y-76994726D01*
X164169726Y-77085327D01*
X164169723Y-77085331D01*
X164098538Y-77191866D01*
X164098533Y-77191875D01*
X164049499Y-77310255D01*
X164049497Y-77310261D01*
X164024500Y-77435928D01*
X164024500Y-77435931D01*
X164024500Y-77564069D01*
X164024500Y-77564071D01*
X164024499Y-77564071D01*
X154100500Y-77564071D01*
X154100500Y-76704955D01*
X154120185Y-76637916D01*
X154136814Y-76617279D01*
X155388435Y-75365657D01*
X155449756Y-75332174D01*
X155519448Y-75337158D01*
X155545005Y-75350238D01*
X155621667Y-75401462D01*
X155621673Y-75401465D01*
X155621674Y-75401466D01*
X155740057Y-75450502D01*
X155740061Y-75450502D01*
X155740062Y-75450503D01*
X155865729Y-75475501D01*
X155865732Y-75475501D01*
X155993872Y-75475501D01*
X156078416Y-75458683D01*
X156119545Y-75450502D01*
X156237928Y-75401466D01*
X156344470Y-75330277D01*
X156435077Y-75239670D01*
X156506266Y-75133128D01*
X156555302Y-75014745D01*
X156569274Y-74944505D01*
X156580301Y-74889072D01*
X156580301Y-74760929D01*
X156555303Y-74635262D01*
X156555302Y-74635261D01*
X156555302Y-74635257D01*
X156513203Y-74533621D01*
X156506267Y-74516876D01*
X156506262Y-74516867D01*
X156455038Y-74440205D01*
X156434160Y-74373527D01*
X156452645Y-74306147D01*
X156470450Y-74283642D01*
X156666541Y-74087551D01*
X156727864Y-74054069D01*
X156754221Y-74051235D01*
X157148580Y-74051235D01*
X157215619Y-74070920D01*
X157261374Y-74123724D01*
X157271318Y-74192882D01*
X157242293Y-74256438D01*
X157217471Y-74278337D01*
X157155530Y-74319724D01*
X157155526Y-74319727D01*
X157064925Y-74410328D01*
X157064922Y-74410332D01*
X156993737Y-74516867D01*
X156993732Y-74516876D01*
X156944698Y-74635256D01*
X156944696Y-74635262D01*
X156919699Y-74760929D01*
X156919699Y-74760932D01*
X156919699Y-74889070D01*
X156919699Y-74889072D01*
X156919698Y-74889072D01*
X156944696Y-75014739D01*
X156944698Y-75014745D01*
X156993732Y-75133125D01*
X156993737Y-75133134D01*
X157064922Y-75239669D01*
X157064925Y-75239673D01*
X157155526Y-75330274D01*
X157155530Y-75330277D01*
X157262065Y-75401462D01*
X157262071Y-75401465D01*
X157262072Y-75401466D01*
X157380455Y-75450502D01*
X157380459Y-75450502D01*
X157380460Y-75450503D01*
X157506127Y-75475501D01*
X157506130Y-75475501D01*
X157634270Y-75475501D01*
X157718814Y-75458683D01*
X157759943Y-75450502D01*
X157878326Y-75401466D01*
X157984868Y-75330277D01*
X158075475Y-75239670D01*
X158146664Y-75133128D01*
X158195700Y-75014745D01*
X158209672Y-74944505D01*
X158220699Y-74889072D01*
X158220994Y-74886070D01*
X158220935Y-74885808D01*
X158221052Y-74885483D01*
X158221296Y-74883010D01*
X158221925Y-74883071D01*
X158231576Y-74856408D01*
X158240384Y-74826413D01*
X158243369Y-74823825D01*
X158244715Y-74820109D01*
X158269566Y-74801126D01*
X158293188Y-74780658D01*
X158298004Y-74779403D01*
X158300239Y-74777697D01*
X158315241Y-74774914D01*
X158334652Y-74769860D01*
X158339671Y-74769452D01*
X158458482Y-74769452D01*
X158540589Y-74753119D01*
X158547716Y-74752540D01*
X158575196Y-74758239D01*
X158603162Y-74760741D01*
X158608952Y-74765239D01*
X158616130Y-74766728D01*
X158636170Y-74786383D01*
X158658339Y-74803604D01*
X158660777Y-74810516D01*
X158666013Y-74815651D01*
X158672246Y-74843024D01*
X158681585Y-74869493D01*
X158679899Y-74876627D01*
X158681527Y-74883776D01*
X158671973Y-74910171D01*
X158665518Y-74937490D01*
X158659901Y-74943522D01*
X158657747Y-74949475D01*
X158646020Y-74958432D01*
X158626655Y-74979233D01*
X158548799Y-75031255D01*
X158548793Y-75031260D01*
X158458192Y-75121861D01*
X158458189Y-75121865D01*
X158387004Y-75228400D01*
X158386999Y-75228409D01*
X158337965Y-75346789D01*
X158337963Y-75346795D01*
X158312966Y-75472462D01*
X158312966Y-75472465D01*
X158312966Y-75600603D01*
X158312966Y-75600605D01*
X158312965Y-75600605D01*
X158337963Y-75726272D01*
X158337965Y-75726278D01*
X158386999Y-75844658D01*
X158387004Y-75844667D01*
X158458189Y-75951202D01*
X158458192Y-75951206D01*
X158548793Y-76041807D01*
X158548797Y-76041810D01*
X158655332Y-76112995D01*
X158655338Y-76112998D01*
X158655339Y-76112999D01*
X158773722Y-76162035D01*
X158773726Y-76162035D01*
X158773727Y-76162036D01*
X158899394Y-76187034D01*
X158899397Y-76187034D01*
X159027537Y-76187034D01*
X159112081Y-76170216D01*
X159153210Y-76162035D01*
X159271593Y-76112999D01*
X159378135Y-76041810D01*
X159468742Y-75951203D01*
X159539931Y-75844661D01*
X159588967Y-75726278D01*
X159603047Y-75655495D01*
X159613966Y-75600605D01*
X159613966Y-75472462D01*
X159588968Y-75346795D01*
X159588967Y-75346794D01*
X159588967Y-75346790D01*
X159539931Y-75228407D01*
X159539930Y-75228406D01*
X159539927Y-75228400D01*
X159468742Y-75121865D01*
X159468739Y-75121861D01*
X159378138Y-75031260D01*
X159378134Y-75031257D01*
X159271599Y-74960072D01*
X159271590Y-74960067D01*
X159153210Y-74911033D01*
X159153204Y-74911031D01*
X159027537Y-74886034D01*
X159027535Y-74886034D01*
X158899397Y-74886034D01*
X158899394Y-74886034D01*
X158824306Y-74900970D01*
X158754715Y-74894743D01*
X158699537Y-74851880D01*
X158676293Y-74785990D01*
X158692361Y-74717993D01*
X158731225Y-74676251D01*
X158808679Y-74624497D01*
X158809082Y-74624228D01*
X158899689Y-74533621D01*
X158970878Y-74427079D01*
X159019914Y-74308696D01*
X159042161Y-74196858D01*
X159044913Y-74183023D01*
X159044913Y-74175235D01*
X159047463Y-74166549D01*
X159046175Y-74157588D01*
X159057153Y-74133547D01*
X159064598Y-74108196D01*
X159071438Y-74102268D01*
X159075200Y-74094032D01*
X159097434Y-74079742D01*
X159117402Y-74062441D01*
X159127916Y-74060153D01*
X159133978Y-74056258D01*
X159168913Y-74051235D01*
X159309498Y-74051235D01*
X159376537Y-74070920D01*
X159378389Y-74072133D01*
X159443763Y-74115815D01*
X159443776Y-74115822D01*
X159544609Y-74157588D01*
X159580352Y-74172393D01*
X159580356Y-74172393D01*
X159580357Y-74172394D01*
X159725344Y-74201235D01*
X159725347Y-74201235D01*
X159873185Y-74201235D01*
X159997727Y-74176461D01*
X160018178Y-74172393D01*
X160154760Y-74115819D01*
X160194791Y-74089071D01*
X162099499Y-74089071D01*
X162124497Y-74214738D01*
X162124499Y-74214744D01*
X162173533Y-74333124D01*
X162173538Y-74333133D01*
X162244723Y-74439668D01*
X162244726Y-74439672D01*
X162335327Y-74530273D01*
X162335331Y-74530276D01*
X162441866Y-74601461D01*
X162441872Y-74601464D01*
X162441873Y-74601465D01*
X162560256Y-74650501D01*
X162560260Y-74650501D01*
X162560261Y-74650502D01*
X162685928Y-74675500D01*
X162685931Y-74675500D01*
X162814071Y-74675500D01*
X162898615Y-74658682D01*
X162939744Y-74650501D01*
X163058127Y-74601465D01*
X163164669Y-74530276D01*
X163255276Y-74439669D01*
X163326465Y-74333127D01*
X163375501Y-74214744D01*
X163393607Y-74123724D01*
X163400500Y-74089071D01*
X163400500Y-73960928D01*
X163375502Y-73835261D01*
X163375501Y-73835260D01*
X163375501Y-73835256D01*
X163326465Y-73716873D01*
X163326464Y-73716872D01*
X163326461Y-73716866D01*
X163255276Y-73610331D01*
X163255273Y-73610327D01*
X163164672Y-73519726D01*
X163164668Y-73519723D01*
X163058133Y-73448538D01*
X163058124Y-73448533D01*
X162939744Y-73399499D01*
X162939738Y-73399497D01*
X162814071Y-73374500D01*
X162814069Y-73374500D01*
X162685931Y-73374500D01*
X162685929Y-73374500D01*
X162560261Y-73399497D01*
X162560255Y-73399499D01*
X162441875Y-73448533D01*
X162441866Y-73448538D01*
X162335331Y-73519723D01*
X162335327Y-73519726D01*
X162244726Y-73610327D01*
X162244723Y-73610331D01*
X162173538Y-73716866D01*
X162173533Y-73716875D01*
X162124499Y-73835255D01*
X162124497Y-73835261D01*
X162099500Y-73960928D01*
X162099500Y-73960931D01*
X162099500Y-74089069D01*
X162099500Y-74089071D01*
X162099499Y-74089071D01*
X160194791Y-74089071D01*
X160277681Y-74033686D01*
X160382216Y-73929151D01*
X160396266Y-73908124D01*
X160411084Y-73885948D01*
X160464345Y-73806236D01*
X160464345Y-73806235D01*
X160464349Y-73806230D01*
X160520923Y-73669648D01*
X160539459Y-73576465D01*
X160549765Y-73524655D01*
X160549765Y-73376814D01*
X160520924Y-73231827D01*
X160520923Y-73231826D01*
X160520923Y-73231822D01*
X160464349Y-73095240D01*
X160420661Y-73029856D01*
X160399785Y-72963179D01*
X160399765Y-72960967D01*
X160399765Y-71500831D01*
X160419450Y-71433792D01*
X160436079Y-71413155D01*
X161060163Y-70789071D01*
X183599499Y-70789071D01*
X183624497Y-70914738D01*
X183624499Y-70914744D01*
X183673533Y-71033124D01*
X183673538Y-71033133D01*
X183744723Y-71139668D01*
X183744726Y-71139672D01*
X183835327Y-71230273D01*
X183835331Y-71230276D01*
X183941866Y-71301461D01*
X183941872Y-71301464D01*
X183941873Y-71301465D01*
X184060256Y-71350501D01*
X184060260Y-71350501D01*
X184060261Y-71350502D01*
X184185928Y-71375500D01*
X184185931Y-71375500D01*
X184314071Y-71375500D01*
X184398615Y-71358682D01*
X184439744Y-71350501D01*
X184558127Y-71301465D01*
X184664669Y-71230276D01*
X184755276Y-71139669D01*
X184826465Y-71033127D01*
X184875501Y-70914744D01*
X184889982Y-70841946D01*
X184900500Y-70789071D01*
X184900500Y-70660928D01*
X184875502Y-70535261D01*
X184875501Y-70535260D01*
X184875501Y-70535256D01*
X184826465Y-70416873D01*
X184826464Y-70416872D01*
X184826461Y-70416866D01*
X184755276Y-70310331D01*
X184755273Y-70310327D01*
X184664672Y-70219726D01*
X184664668Y-70219723D01*
X184558133Y-70148538D01*
X184558124Y-70148533D01*
X184439744Y-70099499D01*
X184439738Y-70099497D01*
X184314071Y-70074500D01*
X184314069Y-70074500D01*
X184185931Y-70074500D01*
X184185929Y-70074500D01*
X184060261Y-70099497D01*
X184060255Y-70099499D01*
X183941875Y-70148533D01*
X183941866Y-70148538D01*
X183835331Y-70219723D01*
X183835327Y-70219726D01*
X183744726Y-70310327D01*
X183744723Y-70310331D01*
X183673538Y-70416866D01*
X183673533Y-70416875D01*
X183624499Y-70535255D01*
X183624497Y-70535261D01*
X183599500Y-70660928D01*
X183599500Y-70660931D01*
X183599500Y-70789069D01*
X183599500Y-70789071D01*
X183599499Y-70789071D01*
X161060163Y-70789071D01*
X165328301Y-66520932D01*
X165343310Y-66512550D01*
X165354497Y-66500931D01*
X165383566Y-66490069D01*
X165387325Y-66487971D01*
X165389508Y-66487452D01*
X165468913Y-66471658D01*
X165486260Y-66464472D01*
X165495895Y-66462184D01*
X165521285Y-66463515D01*
X165546560Y-66460797D01*
X165555587Y-66465315D01*
X165565669Y-66465844D01*
X165586304Y-66480688D01*
X165609041Y-66492068D01*
X165615944Y-66502010D01*
X165622388Y-66506646D01*
X165626638Y-66517411D01*
X165639112Y-66535377D01*
X165648534Y-66558126D01*
X165648538Y-66558133D01*
X165719723Y-66664668D01*
X165719726Y-66664672D01*
X165810327Y-66755273D01*
X165810331Y-66755276D01*
X165916866Y-66826461D01*
X165916875Y-66826466D01*
X165920586Y-66828003D01*
X166035256Y-66875501D01*
X166035260Y-66875501D01*
X166035261Y-66875502D01*
X166160928Y-66900500D01*
X166160931Y-66900500D01*
X166289071Y-66900500D01*
X166373615Y-66883682D01*
X166414744Y-66875501D01*
X166533127Y-66826465D01*
X166639669Y-66755276D01*
X166730276Y-66664669D01*
X166801465Y-66558127D01*
X166850501Y-66439744D01*
X166875500Y-66314069D01*
X166875500Y-66185931D01*
X166875500Y-66185928D01*
X171574500Y-66185928D01*
X171574500Y-66314069D01*
X171599497Y-66439738D01*
X171599499Y-66439744D01*
X171648533Y-66558124D01*
X171648538Y-66558133D01*
X171719723Y-66664668D01*
X171719726Y-66664672D01*
X171810327Y-66755273D01*
X171810331Y-66755276D01*
X171916866Y-66826461D01*
X171916875Y-66826466D01*
X171920586Y-66828003D01*
X172035256Y-66875501D01*
X172035260Y-66875501D01*
X172035261Y-66875502D01*
X172160928Y-66900500D01*
X172160931Y-66900500D01*
X172289071Y-66900500D01*
X172373615Y-66883682D01*
X172414744Y-66875501D01*
X172533127Y-66826465D01*
X172639669Y-66755276D01*
X172730276Y-66664669D01*
X172801465Y-66558127D01*
X172850501Y-66439744D01*
X172875500Y-66314069D01*
X172875500Y-66185931D01*
X172875500Y-66185928D01*
X172850502Y-66060261D01*
X172850501Y-66060260D01*
X172850501Y-66060256D01*
X172807682Y-65956883D01*
X172801466Y-65941875D01*
X172801461Y-65941866D01*
X172730276Y-65835331D01*
X172730273Y-65835327D01*
X172639672Y-65744726D01*
X172639668Y-65744723D01*
X172533133Y-65673538D01*
X172533124Y-65673533D01*
X172414744Y-65624499D01*
X172414738Y-65624497D01*
X172289071Y-65599500D01*
X172289069Y-65599500D01*
X172160931Y-65599500D01*
X172160929Y-65599500D01*
X172035261Y-65624497D01*
X172035255Y-65624499D01*
X171916875Y-65673533D01*
X171916866Y-65673538D01*
X171810331Y-65744723D01*
X171810327Y-65744726D01*
X171719726Y-65835327D01*
X171719723Y-65835331D01*
X171648538Y-65941866D01*
X171648533Y-65941875D01*
X171599499Y-66060255D01*
X171599497Y-66060261D01*
X171574500Y-66185928D01*
X166875500Y-66185928D01*
X166850502Y-66060261D01*
X166850501Y-66060260D01*
X166850501Y-66060256D01*
X166807682Y-65956883D01*
X166801466Y-65941875D01*
X166801461Y-65941866D01*
X166730276Y-65835331D01*
X166730273Y-65835327D01*
X166639672Y-65744726D01*
X166639668Y-65744723D01*
X166533133Y-65673538D01*
X166533124Y-65673533D01*
X166414744Y-65624499D01*
X166414738Y-65624497D01*
X166289071Y-65599500D01*
X166289069Y-65599500D01*
X166160931Y-65599500D01*
X166112053Y-65609222D01*
X166042462Y-65602993D01*
X165987285Y-65560130D01*
X165973302Y-65535056D01*
X165915087Y-65394511D01*
X165915080Y-65394498D01*
X165832951Y-65271584D01*
X165832948Y-65271580D01*
X165728419Y-65167051D01*
X165728415Y-65167048D01*
X165605501Y-65084919D01*
X165605488Y-65084912D01*
X165468917Y-65028343D01*
X165468907Y-65028340D01*
X165323920Y-64999500D01*
X165323918Y-64999500D01*
X165176082Y-64999500D01*
X165176080Y-64999500D01*
X165031092Y-65028340D01*
X165031082Y-65028343D01*
X164894511Y-65084912D01*
X164894498Y-65084919D01*
X164771584Y-65167048D01*
X164771580Y-65167051D01*
X164667051Y-65271580D01*
X164667048Y-65271584D01*
X164584919Y-65394498D01*
X164584912Y-65394511D01*
X164528342Y-65531084D01*
X164528340Y-65531092D01*
X164513000Y-65608210D01*
X164480615Y-65670121D01*
X164479064Y-65671699D01*
X159430818Y-70719945D01*
X159430704Y-70720059D01*
X159430551Y-70720213D01*
X159430549Y-70720215D01*
X159318745Y-70832019D01*
X159317386Y-70834371D01*
X159309878Y-70841946D01*
X159285884Y-70855183D01*
X159263752Y-70871341D01*
X159255734Y-70871817D01*
X159248702Y-70875698D01*
X159221357Y-70873862D01*
X159195778Y-70875383D01*
X159195718Y-70875687D01*
X159194557Y-70875456D01*
X159194005Y-70875489D01*
X159191892Y-70874925D01*
X159064071Y-70849500D01*
X159064069Y-70849500D01*
X158935931Y-70849500D01*
X158935929Y-70849500D01*
X158810261Y-70874497D01*
X158810255Y-70874499D01*
X158691875Y-70923533D01*
X158691866Y-70923538D01*
X158585331Y-70994723D01*
X158585327Y-70994726D01*
X158494726Y-71085327D01*
X158494722Y-71085332D01*
X158493892Y-71086575D01*
X158493290Y-71087077D01*
X158490860Y-71090039D01*
X158490298Y-71089577D01*
X158440274Y-71131373D01*
X158370948Y-71140072D01*
X158307924Y-71109909D01*
X158303117Y-71105352D01*
X157046730Y-69848965D01*
X157013245Y-69787642D01*
X157018229Y-69717950D01*
X157025058Y-69702821D01*
X157025396Y-69702188D01*
X157025400Y-69702182D01*
X157081974Y-69565600D01*
X157094924Y-69500500D01*
X157110816Y-69420607D01*
X157110816Y-69272766D01*
X157081975Y-69127779D01*
X157081974Y-69127778D01*
X157081974Y-69127774D01*
X157081033Y-69125502D01*
X157025403Y-68991198D01*
X157025396Y-68991185D01*
X156943267Y-68868271D01*
X156943264Y-68868267D01*
X156838735Y-68763738D01*
X156838731Y-68763735D01*
X156715817Y-68681606D01*
X156715804Y-68681599D01*
X156579233Y-68625030D01*
X156579223Y-68625027D01*
X156434236Y-68596187D01*
X156434234Y-68596187D01*
X156286398Y-68596187D01*
X156286396Y-68596187D01*
X156141408Y-68625027D01*
X156141398Y-68625030D01*
X156004827Y-68681599D01*
X156004814Y-68681606D01*
X155881900Y-68763735D01*
X155881896Y-68763738D01*
X155777367Y-68868267D01*
X155777364Y-68868271D01*
X155695235Y-68991185D01*
X155695228Y-68991198D01*
X155638659Y-69127769D01*
X155638656Y-69127779D01*
X155609816Y-69272766D01*
X155609816Y-69272769D01*
X155609816Y-69420605D01*
X155609816Y-69420607D01*
X155609815Y-69420607D01*
X155638656Y-69565594D01*
X155638659Y-69565604D01*
X155695228Y-69702175D01*
X155695235Y-69702188D01*
X155738918Y-69767563D01*
X155744568Y-69785609D01*
X155754793Y-69801519D01*
X155759244Y-69832478D01*
X155759796Y-69834240D01*
X155759816Y-69836454D01*
X155759816Y-69925116D01*
X155759815Y-69925134D01*
X155759815Y-70090840D01*
X155759814Y-70090840D01*
X155800739Y-70243571D01*
X155829674Y-70293686D01*
X155829675Y-70293690D01*
X155829676Y-70293690D01*
X155879795Y-70380500D01*
X155879797Y-70380503D01*
X155998665Y-70499371D01*
X155998671Y-70499376D01*
X158137849Y-72638554D01*
X158171334Y-72699877D01*
X158166350Y-72769569D01*
X158124478Y-72825502D01*
X158059014Y-72849919D01*
X158050168Y-72850235D01*
X156533181Y-72850235D01*
X156375066Y-72850235D01*
X156222339Y-72891158D01*
X156222338Y-72891158D01*
X156222336Y-72891159D01*
X156222333Y-72891160D01*
X156172544Y-72919906D01*
X156172292Y-72920052D01*
X156172219Y-72920095D01*
X156085408Y-72970215D01*
X156084281Y-72971341D01*
X156076049Y-72976139D01*
X156049455Y-72982704D01*
X156023899Y-72992576D01*
X156016021Y-72990957D01*
X156008216Y-72992885D01*
X155982291Y-72984029D01*
X155955458Y-72978518D01*
X155949707Y-72972899D01*
X155942097Y-72970300D01*
X155925073Y-72948832D01*
X155905482Y-72929691D01*
X155901632Y-72919271D01*
X155898685Y-72915554D01*
X155898104Y-72909720D01*
X155891999Y-72893194D01*
X155887395Y-72870052D01*
X155875501Y-72810256D01*
X155826465Y-72691873D01*
X155826464Y-72691872D01*
X155826461Y-72691866D01*
X155755276Y-72585331D01*
X155755273Y-72585327D01*
X155664672Y-72494726D01*
X155664668Y-72494723D01*
X155558133Y-72423538D01*
X155558124Y-72423533D01*
X155439744Y-72374499D01*
X155439738Y-72374497D01*
X155314071Y-72349500D01*
X155314069Y-72349500D01*
X155185931Y-72349500D01*
X155185929Y-72349500D01*
X155060261Y-72374497D01*
X155060255Y-72374499D01*
X154941875Y-72423533D01*
X154941866Y-72423538D01*
X154835331Y-72494723D01*
X154835327Y-72494726D01*
X154744726Y-72585327D01*
X154744723Y-72585331D01*
X154673538Y-72691866D01*
X154673533Y-72691875D01*
X154624499Y-72810255D01*
X154624497Y-72810261D01*
X154599500Y-72935928D01*
X154599500Y-72935931D01*
X154599500Y-73064069D01*
X154599500Y-73064071D01*
X154599499Y-73064071D01*
X154624497Y-73189738D01*
X154624499Y-73189744D01*
X154673533Y-73308124D01*
X154673538Y-73308133D01*
X154744723Y-73414668D01*
X154744726Y-73414672D01*
X154835327Y-73505273D01*
X154835331Y-73505276D01*
X154941866Y-73576461D01*
X154941872Y-73576464D01*
X154941873Y-73576465D01*
X155060256Y-73625501D01*
X155060260Y-73625501D01*
X155060261Y-73625502D01*
X155141227Y-73641608D01*
X155203138Y-73673993D01*
X155237712Y-73734709D01*
X155233971Y-73804479D01*
X155204716Y-73850906D01*
X153131286Y-75924337D01*
X153019481Y-76036141D01*
X153019479Y-76036143D01*
X153006677Y-76058318D01*
X152983690Y-76098134D01*
X152940423Y-76173074D01*
X152899499Y-76325802D01*
X152899499Y-76325804D01*
X152899499Y-76493905D01*
X152899500Y-76493918D01*
X152899500Y-79500803D01*
X152879815Y-79567842D01*
X152827011Y-79613597D01*
X152757853Y-79623541D01*
X152728049Y-79615365D01*
X152707081Y-79606680D01*
X152689744Y-79599499D01*
X152689742Y-79599498D01*
X152689738Y-79599497D01*
X152564071Y-79574500D01*
X152564069Y-79574500D01*
X152484017Y-79574500D01*
X152416978Y-79554815D01*
X152371223Y-79502011D01*
X152360017Y-79450500D01*
X152360017Y-71958771D01*
X153460499Y-71958771D01*
X153485497Y-72084438D01*
X153485499Y-72084444D01*
X153534533Y-72202824D01*
X153534538Y-72202833D01*
X153605723Y-72309368D01*
X153605726Y-72309372D01*
X153696327Y-72399973D01*
X153696331Y-72399976D01*
X153802866Y-72471161D01*
X153802872Y-72471164D01*
X153802873Y-72471165D01*
X153921256Y-72520201D01*
X153921260Y-72520201D01*
X153921261Y-72520202D01*
X154046928Y-72545200D01*
X154046931Y-72545200D01*
X154175071Y-72545200D01*
X154259615Y-72528382D01*
X154300744Y-72520201D01*
X154419127Y-72471165D01*
X154525669Y-72399976D01*
X154616276Y-72309369D01*
X154687465Y-72202827D01*
X154736501Y-72084444D01*
X154761500Y-71958769D01*
X154761500Y-71830631D01*
X154761500Y-71830628D01*
X154736502Y-71704961D01*
X154736501Y-71704960D01*
X154736501Y-71704956D01*
X154687465Y-71586573D01*
X154687464Y-71586572D01*
X154687461Y-71586566D01*
X154616276Y-71480031D01*
X154616273Y-71480027D01*
X154525672Y-71389426D01*
X154525668Y-71389423D01*
X154419133Y-71318238D01*
X154419124Y-71318233D01*
X154300744Y-71269199D01*
X154300738Y-71269197D01*
X154175071Y-71244200D01*
X154175069Y-71244200D01*
X154046931Y-71244200D01*
X154046929Y-71244200D01*
X153921261Y-71269197D01*
X153921255Y-71269199D01*
X153802875Y-71318233D01*
X153802866Y-71318238D01*
X153696331Y-71389423D01*
X153696327Y-71389426D01*
X153605726Y-71480027D01*
X153605723Y-71480031D01*
X153534538Y-71586566D01*
X153534533Y-71586575D01*
X153485499Y-71704955D01*
X153485497Y-71704961D01*
X153460500Y-71830628D01*
X153460500Y-71830631D01*
X153460500Y-71958769D01*
X153460500Y-71958771D01*
X153460499Y-71958771D01*
X152360017Y-71958771D01*
X152360017Y-68683771D01*
X153485499Y-68683771D01*
X153510497Y-68809438D01*
X153510499Y-68809444D01*
X153559533Y-68927824D01*
X153559538Y-68927833D01*
X153630723Y-69034368D01*
X153630726Y-69034372D01*
X153721327Y-69124973D01*
X153721331Y-69124976D01*
X153827866Y-69196161D01*
X153827872Y-69196164D01*
X153827873Y-69196165D01*
X153946256Y-69245201D01*
X153946260Y-69245201D01*
X153946261Y-69245202D01*
X154071928Y-69270200D01*
X154071931Y-69270200D01*
X154200071Y-69270200D01*
X154299105Y-69250500D01*
X154325744Y-69245201D01*
X154444127Y-69196165D01*
X154550669Y-69124976D01*
X154641276Y-69034369D01*
X154712465Y-68927827D01*
X154761501Y-68809444D01*
X154775380Y-68739672D01*
X154786500Y-68683771D01*
X154786500Y-68555628D01*
X154761502Y-68429961D01*
X154761501Y-68429960D01*
X154761501Y-68429956D01*
X154744566Y-68389071D01*
X158099499Y-68389071D01*
X158124497Y-68514738D01*
X158124499Y-68514744D01*
X158173533Y-68633124D01*
X158173538Y-68633133D01*
X158244723Y-68739668D01*
X158244726Y-68739672D01*
X158335327Y-68830273D01*
X158335331Y-68830276D01*
X158441866Y-68901461D01*
X158441872Y-68901464D01*
X158441873Y-68901465D01*
X158560256Y-68950501D01*
X158560260Y-68950501D01*
X158560261Y-68950502D01*
X158685928Y-68975500D01*
X158685931Y-68975500D01*
X158814071Y-68975500D01*
X158898615Y-68958682D01*
X158939744Y-68950501D01*
X159058127Y-68901465D01*
X159164669Y-68830276D01*
X159255276Y-68739669D01*
X159326465Y-68633127D01*
X159375501Y-68514744D01*
X159392367Y-68429955D01*
X159400500Y-68389071D01*
X159400500Y-68260928D01*
X159375502Y-68135261D01*
X159375501Y-68135260D01*
X159375501Y-68135256D01*
X159326465Y-68016873D01*
X159326464Y-68016872D01*
X159326461Y-68016866D01*
X159255276Y-67910331D01*
X159255273Y-67910327D01*
X159164672Y-67819726D01*
X159164668Y-67819723D01*
X159058133Y-67748538D01*
X159058124Y-67748533D01*
X158939744Y-67699499D01*
X158939738Y-67699497D01*
X158814071Y-67674500D01*
X158814069Y-67674500D01*
X158685931Y-67674500D01*
X158685929Y-67674500D01*
X158560261Y-67699497D01*
X158560255Y-67699499D01*
X158441875Y-67748533D01*
X158441866Y-67748538D01*
X158335331Y-67819723D01*
X158335327Y-67819726D01*
X158244726Y-67910327D01*
X158244723Y-67910331D01*
X158173538Y-68016866D01*
X158173533Y-68016875D01*
X158124499Y-68135255D01*
X158124497Y-68135261D01*
X158099500Y-68260928D01*
X158099500Y-68260931D01*
X158099500Y-68389069D01*
X158099500Y-68389071D01*
X158099499Y-68389071D01*
X154744566Y-68389071D01*
X154712465Y-68311573D01*
X154712460Y-68311566D01*
X154641276Y-68205031D01*
X154641273Y-68205027D01*
X154550672Y-68114426D01*
X154550668Y-68114423D01*
X154444133Y-68043238D01*
X154444124Y-68043233D01*
X154325744Y-67994199D01*
X154325738Y-67994197D01*
X154200071Y-67969200D01*
X154200069Y-67969200D01*
X154071931Y-67969200D01*
X154071929Y-67969200D01*
X153946261Y-67994197D01*
X153946255Y-67994199D01*
X153827875Y-68043233D01*
X153827866Y-68043238D01*
X153721331Y-68114423D01*
X153721327Y-68114426D01*
X153630726Y-68205027D01*
X153630723Y-68205031D01*
X153559538Y-68311566D01*
X153559533Y-68311575D01*
X153510499Y-68429955D01*
X153510497Y-68429961D01*
X153485500Y-68555628D01*
X153485500Y-68555631D01*
X153485500Y-68683769D01*
X153485500Y-68683771D01*
X153485499Y-68683771D01*
X152360017Y-68683771D01*
X152360017Y-65339071D01*
X158099499Y-65339071D01*
X158124497Y-65464738D01*
X158124499Y-65464744D01*
X158173533Y-65583124D01*
X158173538Y-65583133D01*
X158244723Y-65689668D01*
X158244726Y-65689672D01*
X158335327Y-65780273D01*
X158335331Y-65780276D01*
X158441866Y-65851461D01*
X158441872Y-65851464D01*
X158441873Y-65851465D01*
X158560256Y-65900501D01*
X158560260Y-65900501D01*
X158560261Y-65900502D01*
X158685928Y-65925500D01*
X158685931Y-65925500D01*
X158814071Y-65925500D01*
X158898615Y-65908682D01*
X158939744Y-65900501D01*
X159058127Y-65851465D01*
X159164669Y-65780276D01*
X159255276Y-65689669D01*
X159326465Y-65583127D01*
X159375501Y-65464744D01*
X159400500Y-65339069D01*
X159400500Y-65210931D01*
X159400500Y-65210928D01*
X159375502Y-65085261D01*
X159375501Y-65085260D01*
X159375501Y-65085256D01*
X159326465Y-64966873D01*
X159326464Y-64966872D01*
X159326461Y-64966866D01*
X159255276Y-64860331D01*
X159255273Y-64860327D01*
X159164672Y-64769726D01*
X159164668Y-64769723D01*
X159058133Y-64698538D01*
X159058124Y-64698533D01*
X158939744Y-64649499D01*
X158939738Y-64649497D01*
X158814071Y-64624500D01*
X158814069Y-64624500D01*
X158685931Y-64624500D01*
X158685929Y-64624500D01*
X158560261Y-64649497D01*
X158560255Y-64649499D01*
X158441875Y-64698533D01*
X158441866Y-64698538D01*
X158335331Y-64769723D01*
X158335327Y-64769726D01*
X158244726Y-64860327D01*
X158244723Y-64860331D01*
X158173538Y-64966866D01*
X158173533Y-64966875D01*
X158124499Y-65085255D01*
X158124497Y-65085261D01*
X158099500Y-65210928D01*
X158099500Y-65210931D01*
X158099500Y-65339069D01*
X158099500Y-65339071D01*
X158099499Y-65339071D01*
X152360017Y-65339071D01*
X152360017Y-64064071D01*
X154350199Y-64064071D01*
X154375197Y-64189738D01*
X154375199Y-64189744D01*
X154424233Y-64308124D01*
X154424238Y-64308133D01*
X154495423Y-64414668D01*
X154495426Y-64414672D01*
X154586027Y-64505273D01*
X154586031Y-64505276D01*
X154692566Y-64576461D01*
X154692575Y-64576466D01*
X154715419Y-64585928D01*
X154810956Y-64625501D01*
X154810960Y-64625501D01*
X154810961Y-64625502D01*
X154936628Y-64650500D01*
X154936631Y-64650500D01*
X155064771Y-64650500D01*
X155174085Y-64628755D01*
X155190444Y-64625501D01*
X155308827Y-64576465D01*
X155415369Y-64505276D01*
X155505976Y-64414669D01*
X155577165Y-64308127D01*
X155626201Y-64189744D01*
X155641400Y-64113334D01*
X155651200Y-64064071D01*
X155651200Y-63935928D01*
X155626202Y-63810261D01*
X155626201Y-63810260D01*
X155626201Y-63810256D01*
X155577165Y-63691873D01*
X155577164Y-63691872D01*
X155577161Y-63691866D01*
X155505976Y-63585331D01*
X155505973Y-63585327D01*
X155415372Y-63494726D01*
X155415368Y-63494723D01*
X155308833Y-63423538D01*
X155308824Y-63423533D01*
X155190444Y-63374499D01*
X155190438Y-63374497D01*
X155064771Y-63349500D01*
X155064769Y-63349500D01*
X154936631Y-63349500D01*
X154936629Y-63349500D01*
X154810961Y-63374497D01*
X154810955Y-63374499D01*
X154692575Y-63423533D01*
X154692566Y-63423538D01*
X154586031Y-63494723D01*
X154586027Y-63494726D01*
X154495426Y-63585327D01*
X154495423Y-63585331D01*
X154424238Y-63691866D01*
X154424233Y-63691875D01*
X154375199Y-63810255D01*
X154375197Y-63810261D01*
X154350200Y-63935928D01*
X154350200Y-63935929D01*
X154350200Y-63935931D01*
X154350200Y-64064069D01*
X154350200Y-64064071D01*
X154350199Y-64064071D01*
X152360017Y-64064071D01*
X152360017Y-62814071D01*
X158849499Y-62814071D01*
X158874497Y-62939738D01*
X158874499Y-62939744D01*
X158923533Y-63058124D01*
X158923538Y-63058133D01*
X158994723Y-63164668D01*
X158994726Y-63164672D01*
X159085327Y-63255273D01*
X159085331Y-63255276D01*
X159191866Y-63326461D01*
X159191875Y-63326466D01*
X159211937Y-63334776D01*
X159310256Y-63375501D01*
X159310260Y-63375501D01*
X159310261Y-63375502D01*
X159435928Y-63400500D01*
X159435931Y-63400500D01*
X159564071Y-63400500D01*
X159662838Y-63380853D01*
X159689744Y-63375501D01*
X159808127Y-63326465D01*
X159914669Y-63255276D01*
X159955874Y-63214071D01*
X161825036Y-63214071D01*
X161850034Y-63339738D01*
X161850036Y-63339744D01*
X161899070Y-63458124D01*
X161899075Y-63458133D01*
X161970260Y-63564668D01*
X161970263Y-63564672D01*
X162060864Y-63655273D01*
X162060868Y-63655276D01*
X162167403Y-63726461D01*
X162167412Y-63726466D01*
X162280115Y-63773149D01*
X162334518Y-63816990D01*
X162356583Y-63883284D01*
X162354280Y-63911900D01*
X162349500Y-63935931D01*
X162349500Y-64064069D01*
X162349500Y-64064071D01*
X162349499Y-64064071D01*
X162374497Y-64189738D01*
X162374499Y-64189744D01*
X162423533Y-64308124D01*
X162423538Y-64308133D01*
X162494723Y-64414668D01*
X162494726Y-64414672D01*
X162585329Y-64505275D01*
X162591501Y-64509399D01*
X162636305Y-64563012D01*
X162645011Y-64632338D01*
X162614855Y-64695364D01*
X162591501Y-64715601D01*
X162585329Y-64719724D01*
X162494726Y-64810327D01*
X162494723Y-64810331D01*
X162423538Y-64916866D01*
X162423533Y-64916875D01*
X162374499Y-65035255D01*
X162374497Y-65035261D01*
X162349500Y-65160928D01*
X162349500Y-65160931D01*
X162349500Y-65289069D01*
X162349500Y-65289071D01*
X162349499Y-65289071D01*
X162374497Y-65414738D01*
X162374499Y-65414744D01*
X162423533Y-65533124D01*
X162423538Y-65533133D01*
X162494723Y-65639668D01*
X162494726Y-65639672D01*
X162585327Y-65730273D01*
X162585331Y-65730276D01*
X162691866Y-65801461D01*
X162691872Y-65801464D01*
X162691873Y-65801465D01*
X162810256Y-65850501D01*
X162810260Y-65850501D01*
X162810261Y-65850502D01*
X162935928Y-65875500D01*
X162935931Y-65875500D01*
X163064071Y-65875500D01*
X163148615Y-65858682D01*
X163189744Y-65850501D01*
X163308127Y-65801465D01*
X163414669Y-65730276D01*
X163505276Y-65639669D01*
X163576465Y-65533127D01*
X163625501Y-65414744D01*
X163640554Y-65339069D01*
X163650500Y-65289071D01*
X163650500Y-65160928D01*
X163625502Y-65035261D01*
X163625501Y-65035260D01*
X163625501Y-65035256D01*
X163579226Y-64923538D01*
X163576466Y-64916875D01*
X163576461Y-64916866D01*
X163551149Y-64878984D01*
X163530271Y-64812306D01*
X163548756Y-64744926D01*
X163600734Y-64698236D01*
X163669704Y-64687060D01*
X163678443Y-64688476D01*
X163735194Y-64699765D01*
X163735196Y-64699765D01*
X163863336Y-64699765D01*
X163948987Y-64682727D01*
X163989009Y-64674766D01*
X164107392Y-64625730D01*
X164213934Y-64554541D01*
X164304541Y-64463934D01*
X164375730Y-64357392D01*
X164424766Y-64239009D01*
X164443521Y-64144723D01*
X164449765Y-64113336D01*
X164449765Y-63985193D01*
X164424767Y-63859526D01*
X164424766Y-63859525D01*
X164424766Y-63859521D01*
X164376248Y-63742388D01*
X164375731Y-63741140D01*
X164375726Y-63741131D01*
X164304541Y-63634596D01*
X164304538Y-63634592D01*
X164221517Y-63551571D01*
X169861999Y-63551571D01*
X169886997Y-63677238D01*
X169886999Y-63677244D01*
X169936033Y-63795624D01*
X169936038Y-63795633D01*
X170007223Y-63902168D01*
X170007226Y-63902172D01*
X170097827Y-63992773D01*
X170097831Y-63992776D01*
X170204366Y-64063961D01*
X170204375Y-64063966D01*
X170227750Y-64073648D01*
X170322756Y-64113001D01*
X170322760Y-64113001D01*
X170322761Y-64113002D01*
X170448428Y-64138000D01*
X170448431Y-64138000D01*
X170576571Y-64138000D01*
X170661115Y-64121182D01*
X170702244Y-64113001D01*
X170820627Y-64063965D01*
X170927169Y-63992776D01*
X171017776Y-63902169D01*
X171088965Y-63795627D01*
X171138001Y-63677244D01*
X171149832Y-63617767D01*
X171160129Y-63566006D01*
X172597564Y-63566006D01*
X172622562Y-63691673D01*
X172622564Y-63691679D01*
X172671598Y-63810059D01*
X172671603Y-63810068D01*
X172742788Y-63916603D01*
X172742791Y-63916607D01*
X172833392Y-64007208D01*
X172833396Y-64007211D01*
X172939931Y-64078396D01*
X172939937Y-64078399D01*
X172939938Y-64078400D01*
X173058321Y-64127436D01*
X173058325Y-64127436D01*
X173058326Y-64127437D01*
X173183993Y-64152435D01*
X173183996Y-64152435D01*
X173312136Y-64152435D01*
X173396680Y-64135617D01*
X173437809Y-64127436D01*
X173556192Y-64078400D01*
X173662734Y-64007211D01*
X173753341Y-63916604D01*
X173824530Y-63810062D01*
X173873566Y-63691679D01*
X173887185Y-63623214D01*
X173898565Y-63566006D01*
X173898565Y-63493647D01*
X173918250Y-63426608D01*
X173971054Y-63380853D01*
X174040212Y-63370909D01*
X174058565Y-63374988D01*
X174060250Y-63375498D01*
X174060256Y-63375501D01*
X174110526Y-63385500D01*
X174185928Y-63400500D01*
X174185931Y-63400500D01*
X174314071Y-63400500D01*
X174412838Y-63380853D01*
X174439744Y-63375501D01*
X174558127Y-63326465D01*
X174664669Y-63255276D01*
X174755276Y-63164669D01*
X174826465Y-63058127D01*
X174875501Y-62939744D01*
X174887992Y-62876951D01*
X174900500Y-62814071D01*
X174900500Y-62685928D01*
X174875502Y-62560261D01*
X174875501Y-62560260D01*
X174875501Y-62560256D01*
X174826465Y-62441873D01*
X174756263Y-62336809D01*
X174735386Y-62270133D01*
X174753870Y-62202753D01*
X174805849Y-62156062D01*
X174835174Y-62146302D01*
X174882676Y-62136852D01*
X174939744Y-62125501D01*
X175058127Y-62076465D01*
X175164669Y-62005276D01*
X175255276Y-61914669D01*
X175326465Y-61808127D01*
X175375501Y-61689744D01*
X175394969Y-61591875D01*
X175400500Y-61564071D01*
X175400500Y-61435928D01*
X175375502Y-61310261D01*
X175375501Y-61310260D01*
X175375501Y-61310256D01*
X175333142Y-61207993D01*
X175326466Y-61191875D01*
X175326461Y-61191866D01*
X175255276Y-61085331D01*
X175255273Y-61085327D01*
X175164672Y-60994726D01*
X175164668Y-60994723D01*
X175058133Y-60923538D01*
X175058124Y-60923533D01*
X174939744Y-60874499D01*
X174939738Y-60874497D01*
X174814071Y-60849500D01*
X174814069Y-60849500D01*
X174685931Y-60849500D01*
X174685929Y-60849500D01*
X174560261Y-60874497D01*
X174560255Y-60874499D01*
X174441875Y-60923533D01*
X174441868Y-60923537D01*
X174363406Y-60975964D01*
X174296729Y-60996841D01*
X174229349Y-60978356D01*
X174194867Y-60945081D01*
X174194538Y-60945352D01*
X174192216Y-60942523D01*
X174191409Y-60941744D01*
X174190673Y-60940642D01*
X174100070Y-60850039D01*
X174100066Y-60850036D01*
X173993531Y-60778851D01*
X173993522Y-60778846D01*
X173875142Y-60729812D01*
X173875136Y-60729810D01*
X173749469Y-60704813D01*
X173749467Y-60704813D01*
X173621329Y-60704813D01*
X173621327Y-60704813D01*
X173495659Y-60729810D01*
X173495653Y-60729812D01*
X173377273Y-60778846D01*
X173377264Y-60778851D01*
X173270729Y-60850036D01*
X173270725Y-60850039D01*
X173180124Y-60940640D01*
X173180121Y-60940644D01*
X173108936Y-61047179D01*
X173108931Y-61047188D01*
X173059897Y-61165568D01*
X173059895Y-61165574D01*
X173034898Y-61291241D01*
X173034898Y-61419384D01*
X173059895Y-61545051D01*
X173059897Y-61545057D01*
X173108931Y-61663437D01*
X173108936Y-61663446D01*
X173180121Y-61769981D01*
X173180124Y-61769985D01*
X173270725Y-61860586D01*
X173270729Y-61860589D01*
X173377264Y-61931774D01*
X173377270Y-61931777D01*
X173377271Y-61931778D01*
X173495654Y-61980814D01*
X173495658Y-61980814D01*
X173495659Y-61980815D01*
X173621326Y-62005813D01*
X173621329Y-62005813D01*
X173749466Y-62005813D01*
X173749467Y-62005813D01*
X173769428Y-62001842D01*
X173839018Y-62008068D01*
X173894196Y-62050929D01*
X173917443Y-62116818D01*
X173901377Y-62184816D01*
X173862514Y-62226560D01*
X173835329Y-62244724D01*
X173744726Y-62335327D01*
X173744723Y-62335331D01*
X173673538Y-62441866D01*
X173673533Y-62441875D01*
X173624499Y-62560255D01*
X173624497Y-62560261D01*
X173599500Y-62685928D01*
X173599500Y-62758287D01*
X173579815Y-62825326D01*
X173527011Y-62871081D01*
X173457853Y-62881025D01*
X173439515Y-62876951D01*
X173437809Y-62876433D01*
X173312136Y-62851435D01*
X173312134Y-62851435D01*
X173183996Y-62851435D01*
X173183994Y-62851435D01*
X173058326Y-62876432D01*
X173058320Y-62876434D01*
X172939940Y-62925468D01*
X172939931Y-62925473D01*
X172833396Y-62996658D01*
X172833392Y-62996661D01*
X172742791Y-63087262D01*
X172742788Y-63087266D01*
X172671603Y-63193801D01*
X172671598Y-63193810D01*
X172622564Y-63312190D01*
X172622562Y-63312196D01*
X172597565Y-63437863D01*
X172597565Y-63437866D01*
X172597565Y-63566004D01*
X172597565Y-63566006D01*
X172597564Y-63566006D01*
X171160129Y-63566006D01*
X171163000Y-63551571D01*
X171163000Y-63423428D01*
X171138002Y-63297761D01*
X171138001Y-63297760D01*
X171138001Y-63297756D01*
X171088965Y-63179373D01*
X171088964Y-63179372D01*
X171088961Y-63179366D01*
X171017776Y-63072831D01*
X171017773Y-63072827D01*
X170927172Y-62982226D01*
X170927168Y-62982223D01*
X170820633Y-62911038D01*
X170820624Y-62911033D01*
X170702244Y-62861999D01*
X170702238Y-62861997D01*
X170576571Y-62837000D01*
X170576569Y-62837000D01*
X170448431Y-62837000D01*
X170448429Y-62837000D01*
X170322761Y-62861997D01*
X170322755Y-62861999D01*
X170204375Y-62911033D01*
X170204366Y-62911038D01*
X170097831Y-62982223D01*
X170097827Y-62982226D01*
X170007226Y-63072827D01*
X170007223Y-63072831D01*
X169936038Y-63179366D01*
X169936033Y-63179375D01*
X169886999Y-63297755D01*
X169886997Y-63297761D01*
X169862000Y-63423428D01*
X169862000Y-63423431D01*
X169862000Y-63551569D01*
X169862000Y-63551571D01*
X169861999Y-63551571D01*
X164221517Y-63551571D01*
X164213937Y-63543991D01*
X164213933Y-63543988D01*
X164107398Y-63472803D01*
X164107389Y-63472798D01*
X163989009Y-63423764D01*
X163989003Y-63423762D01*
X163863336Y-63398765D01*
X163863334Y-63398765D01*
X163735196Y-63398765D01*
X163735194Y-63398765D01*
X163609526Y-63423762D01*
X163609520Y-63423764D01*
X163554762Y-63446446D01*
X163500856Y-63468775D01*
X163485511Y-63475131D01*
X163485402Y-63474869D01*
X163484438Y-63475639D01*
X163455768Y-63478586D01*
X163427551Y-63484457D01*
X163419827Y-63482280D01*
X163414934Y-63482784D01*
X163399852Y-63476653D01*
X163381498Y-63471482D01*
X163374835Y-63468107D01*
X163308127Y-63423535D01*
X163191067Y-63375047D01*
X163186853Y-63372913D01*
X163164694Y-63352088D01*
X163141018Y-63333009D01*
X163139482Y-63328394D01*
X163135939Y-63325065D01*
X163128556Y-63295566D01*
X163118953Y-63266714D01*
X163119532Y-63259513D01*
X163118975Y-63257286D01*
X163119942Y-63254423D01*
X163121256Y-63238102D01*
X163126037Y-63214069D01*
X163126037Y-63085931D01*
X163126037Y-63085928D01*
X163101039Y-62960261D01*
X163101038Y-62960260D01*
X163101038Y-62960256D01*
X163063111Y-62868692D01*
X163052003Y-62841875D01*
X163051998Y-62841866D01*
X163016722Y-62789071D01*
X167099499Y-62789071D01*
X167124497Y-62914738D01*
X167124499Y-62914744D01*
X167173533Y-63033124D01*
X167173538Y-63033133D01*
X167244723Y-63139668D01*
X167244726Y-63139672D01*
X167335327Y-63230273D01*
X167335331Y-63230276D01*
X167441866Y-63301461D01*
X167441875Y-63301466D01*
X167466783Y-63311783D01*
X167560256Y-63350501D01*
X167560260Y-63350501D01*
X167560261Y-63350502D01*
X167685928Y-63375500D01*
X167685931Y-63375500D01*
X167814071Y-63375500D01*
X167898615Y-63358682D01*
X167939744Y-63350501D01*
X168033217Y-63311783D01*
X168054955Y-63302779D01*
X168054956Y-63302779D01*
X168056600Y-63302097D01*
X168058127Y-63301465D01*
X168164669Y-63230276D01*
X168255276Y-63139669D01*
X168326465Y-63033127D01*
X168375501Y-62914744D01*
X168393644Y-62823535D01*
X168400500Y-62789071D01*
X168400500Y-62660928D01*
X168375502Y-62535261D01*
X168375501Y-62535260D01*
X168375501Y-62535256D01*
X168326465Y-62416873D01*
X168326464Y-62416872D01*
X168326461Y-62416866D01*
X168255276Y-62310331D01*
X168255273Y-62310327D01*
X168164672Y-62219726D01*
X168164668Y-62219723D01*
X168058133Y-62148538D01*
X168058124Y-62148533D01*
X167939744Y-62099499D01*
X167939738Y-62099497D01*
X167814071Y-62074500D01*
X167814069Y-62074500D01*
X167685931Y-62074500D01*
X167685929Y-62074500D01*
X167560261Y-62099497D01*
X167560255Y-62099499D01*
X167441875Y-62148533D01*
X167441866Y-62148538D01*
X167335331Y-62219723D01*
X167335327Y-62219726D01*
X167244726Y-62310327D01*
X167244723Y-62310331D01*
X167173538Y-62416866D01*
X167173533Y-62416875D01*
X167124499Y-62535255D01*
X167124497Y-62535261D01*
X167099500Y-62660928D01*
X167099500Y-62660931D01*
X167099500Y-62789069D01*
X167099500Y-62789071D01*
X167099499Y-62789071D01*
X163016722Y-62789071D01*
X162980813Y-62735330D01*
X162890209Y-62644726D01*
X162890205Y-62644723D01*
X162783670Y-62573538D01*
X162783661Y-62573533D01*
X162665281Y-62524499D01*
X162665275Y-62524497D01*
X162539608Y-62499500D01*
X162539606Y-62499500D01*
X162411468Y-62499500D01*
X162411466Y-62499500D01*
X162285798Y-62524497D01*
X162285792Y-62524499D01*
X162167412Y-62573533D01*
X162167403Y-62573538D01*
X162060868Y-62644723D01*
X162060864Y-62644726D01*
X161970263Y-62735327D01*
X161970260Y-62735331D01*
X161899075Y-62841866D01*
X161899070Y-62841875D01*
X161850036Y-62960255D01*
X161850034Y-62960261D01*
X161825037Y-63085928D01*
X161825037Y-63085931D01*
X161825037Y-63214069D01*
X161825037Y-63214071D01*
X161825036Y-63214071D01*
X159955874Y-63214071D01*
X160005276Y-63164669D01*
X160076465Y-63058127D01*
X160125501Y-62939744D01*
X160137992Y-62876951D01*
X160150500Y-62814071D01*
X160150500Y-62685928D01*
X160125502Y-62560261D01*
X160125501Y-62560260D01*
X160125501Y-62560256D01*
X160076465Y-62441873D01*
X160076464Y-62441872D01*
X160076461Y-62441866D01*
X160005276Y-62335331D01*
X160005273Y-62335327D01*
X159914672Y-62244726D01*
X159914668Y-62244723D01*
X159808133Y-62173538D01*
X159808124Y-62173533D01*
X159689744Y-62124499D01*
X159689738Y-62124497D01*
X159564071Y-62099500D01*
X159564069Y-62099500D01*
X159435931Y-62099500D01*
X159435929Y-62099500D01*
X159310261Y-62124497D01*
X159310255Y-62124499D01*
X159191875Y-62173533D01*
X159191866Y-62173538D01*
X159085331Y-62244723D01*
X159085327Y-62244726D01*
X158994726Y-62335327D01*
X158994723Y-62335331D01*
X158923538Y-62441866D01*
X158923533Y-62441875D01*
X158874499Y-62560255D01*
X158874497Y-62560261D01*
X158849500Y-62685928D01*
X158849500Y-62685931D01*
X158849500Y-62814069D01*
X158849500Y-62814071D01*
X158849499Y-62814071D01*
X152360017Y-62814071D01*
X152360017Y-61064071D01*
X156924499Y-61064071D01*
X156949497Y-61189738D01*
X156949499Y-61189744D01*
X156998533Y-61308124D01*
X156998538Y-61308133D01*
X157069723Y-61414668D01*
X157069726Y-61414672D01*
X157160327Y-61505273D01*
X157160331Y-61505276D01*
X157266866Y-61576461D01*
X157266875Y-61576466D01*
X157287266Y-61584912D01*
X157385256Y-61625501D01*
X157385260Y-61625501D01*
X157385261Y-61625502D01*
X157510928Y-61650500D01*
X157510931Y-61650500D01*
X157639071Y-61650500D01*
X157723615Y-61633682D01*
X157764744Y-61625501D01*
X157883127Y-61576465D01*
X157989669Y-61505276D01*
X158080276Y-61414669D01*
X158151465Y-61308127D01*
X158200501Y-61189744D01*
X158213333Y-61125233D01*
X158225500Y-61064071D01*
X166849499Y-61064071D01*
X166874497Y-61189738D01*
X166874499Y-61189744D01*
X166923533Y-61308124D01*
X166923538Y-61308133D01*
X166994723Y-61414668D01*
X166994726Y-61414672D01*
X167085327Y-61505273D01*
X167085331Y-61505276D01*
X167191866Y-61576461D01*
X167191875Y-61576466D01*
X167212266Y-61584912D01*
X167310256Y-61625501D01*
X167310260Y-61625501D01*
X167310261Y-61625502D01*
X167435928Y-61650500D01*
X167435931Y-61650500D01*
X167564071Y-61650500D01*
X167648615Y-61633682D01*
X167689744Y-61625501D01*
X167808127Y-61576465D01*
X167914669Y-61505276D01*
X168005276Y-61414669D01*
X168076465Y-61308127D01*
X168125501Y-61189744D01*
X168138333Y-61125233D01*
X168150249Y-61065334D01*
X168742047Y-61065334D01*
X168767045Y-61191001D01*
X168767047Y-61191007D01*
X168816081Y-61309387D01*
X168816086Y-61309396D01*
X168887271Y-61415931D01*
X168887274Y-61415935D01*
X168977875Y-61506536D01*
X168977879Y-61506539D01*
X169084414Y-61577724D01*
X169084423Y-61577729D01*
X169103293Y-61585545D01*
X169202804Y-61626764D01*
X169202808Y-61626764D01*
X169202809Y-61626765D01*
X169328476Y-61651763D01*
X169328479Y-61651763D01*
X169456617Y-61651763D01*
X169474277Y-61648250D01*
X169543868Y-61654476D01*
X169599046Y-61697338D01*
X169613031Y-61722414D01*
X169648533Y-61808123D01*
X169648538Y-61808133D01*
X169719723Y-61914668D01*
X169719726Y-61914672D01*
X169810327Y-62005273D01*
X169810331Y-62005276D01*
X169916866Y-62076461D01*
X169916872Y-62076464D01*
X169916873Y-62076465D01*
X170035256Y-62125501D01*
X170035260Y-62125501D01*
X170035261Y-62125502D01*
X170160928Y-62150500D01*
X170160931Y-62150500D01*
X170289071Y-62150500D01*
X170373615Y-62133682D01*
X170414744Y-62125501D01*
X170533127Y-62076465D01*
X170639669Y-62005276D01*
X170730276Y-61914669D01*
X170801465Y-61808127D01*
X170850501Y-61689744D01*
X170869969Y-61591875D01*
X170875500Y-61564071D01*
X170875500Y-61435928D01*
X170850502Y-61310261D01*
X170850501Y-61310260D01*
X170850501Y-61310256D01*
X170808142Y-61207993D01*
X170801466Y-61191875D01*
X170801461Y-61191866D01*
X170730276Y-61085331D01*
X170730273Y-61085327D01*
X170639672Y-60994726D01*
X170639668Y-60994723D01*
X170533133Y-60923538D01*
X170533124Y-60923533D01*
X170414744Y-60874499D01*
X170414738Y-60874497D01*
X170289071Y-60849500D01*
X170289069Y-60849500D01*
X170160931Y-60849500D01*
X170160929Y-60849500D01*
X170143265Y-60853013D01*
X170073673Y-60846784D01*
X170018497Y-60803919D01*
X170004516Y-60778847D01*
X169969016Y-60693142D01*
X169969009Y-60693129D01*
X169897824Y-60586594D01*
X169897821Y-60586590D01*
X169807220Y-60495989D01*
X169807216Y-60495986D01*
X169700681Y-60424801D01*
X169700672Y-60424796D01*
X169582292Y-60375762D01*
X169582286Y-60375760D01*
X169456619Y-60350763D01*
X169456617Y-60350763D01*
X169328479Y-60350763D01*
X169328477Y-60350763D01*
X169202809Y-60375760D01*
X169202803Y-60375762D01*
X169084423Y-60424796D01*
X169084414Y-60424801D01*
X168977879Y-60495986D01*
X168977875Y-60495989D01*
X168887274Y-60586590D01*
X168887271Y-60586594D01*
X168816086Y-60693129D01*
X168816081Y-60693138D01*
X168767047Y-60811518D01*
X168767045Y-60811524D01*
X168742048Y-60937191D01*
X168742048Y-60937194D01*
X168742048Y-61065332D01*
X168742048Y-61065334D01*
X168742047Y-61065334D01*
X168150249Y-61065334D01*
X168150500Y-61064071D01*
X168150500Y-60935928D01*
X168125502Y-60810261D01*
X168125501Y-60810260D01*
X168125501Y-60810256D01*
X168081825Y-60704813D01*
X168076466Y-60691875D01*
X168076461Y-60691866D01*
X168005276Y-60585331D01*
X168005273Y-60585327D01*
X167914672Y-60494726D01*
X167914668Y-60494723D01*
X167808133Y-60423538D01*
X167808124Y-60423533D01*
X167689744Y-60374499D01*
X167689738Y-60374497D01*
X167564071Y-60349500D01*
X167564069Y-60349500D01*
X167435931Y-60349500D01*
X167435929Y-60349500D01*
X167310261Y-60374497D01*
X167310255Y-60374499D01*
X167191875Y-60423533D01*
X167191866Y-60423538D01*
X167085331Y-60494723D01*
X167085327Y-60494726D01*
X166994726Y-60585327D01*
X166994723Y-60585331D01*
X166923538Y-60691866D01*
X166923533Y-60691875D01*
X166874499Y-60810255D01*
X166874497Y-60810261D01*
X166849500Y-60935928D01*
X166849500Y-60935931D01*
X166849500Y-61064069D01*
X166849500Y-61064071D01*
X166849499Y-61064071D01*
X158225500Y-61064071D01*
X158225500Y-60935928D01*
X158200502Y-60810261D01*
X158200501Y-60810260D01*
X158200501Y-60810256D01*
X158156825Y-60704813D01*
X158151466Y-60691875D01*
X158151461Y-60691866D01*
X158080276Y-60585331D01*
X158080273Y-60585327D01*
X157989672Y-60494726D01*
X157989668Y-60494723D01*
X157883133Y-60423538D01*
X157883124Y-60423533D01*
X157764744Y-60374499D01*
X157764738Y-60374497D01*
X157639071Y-60349500D01*
X157639069Y-60349500D01*
X157510931Y-60349500D01*
X157510929Y-60349500D01*
X157385261Y-60374497D01*
X157385255Y-60374499D01*
X157266875Y-60423533D01*
X157266866Y-60423538D01*
X157160331Y-60494723D01*
X157160327Y-60494726D01*
X157069726Y-60585327D01*
X157069723Y-60585331D01*
X156998538Y-60691866D01*
X156998533Y-60691875D01*
X156949499Y-60810255D01*
X156949497Y-60810261D01*
X156924500Y-60935928D01*
X156924500Y-60935931D01*
X156924500Y-61064069D01*
X156924500Y-61064071D01*
X156924499Y-61064071D01*
X152360017Y-61064071D01*
X152360017Y-55756046D01*
X152379702Y-55689007D01*
X152432506Y-55643252D01*
X152501664Y-55633308D01*
X152565220Y-55662333D01*
X152601058Y-55715091D01*
X152686200Y-55958411D01*
X152808053Y-56211442D01*
X152808055Y-56211445D01*
X152957477Y-56449248D01*
X153081903Y-56605273D01*
X153101474Y-56629815D01*
X153132584Y-56668825D01*
X153331175Y-56867416D01*
X153550752Y-57042523D01*
X153788555Y-57191945D01*
X154041592Y-57313801D01*
X154240680Y-57383465D01*
X154306670Y-57406556D01*
X154306682Y-57406560D01*
X154580491Y-57469055D01*
X154580497Y-57469055D01*
X154580505Y-57469057D01*
X154766547Y-57490018D01*
X154859569Y-57500499D01*
X154859572Y-57500500D01*
X154859575Y-57500500D01*
X155140428Y-57500500D01*
X155140429Y-57500499D01*
X155283055Y-57484429D01*
X155419494Y-57469057D01*
X155419499Y-57469056D01*
X155419509Y-57469055D01*
X155693318Y-57406560D01*
X155958408Y-57313801D01*
X156211445Y-57191945D01*
X156449248Y-57042523D01*
X156668825Y-56867416D01*
X156867416Y-56668825D01*
X157042523Y-56449248D01*
X157191945Y-56211445D01*
X157210016Y-56173920D01*
X159949499Y-56173920D01*
X159978340Y-56318907D01*
X159978343Y-56318917D01*
X160034912Y-56455488D01*
X160034919Y-56455501D01*
X160117048Y-56578415D01*
X160117051Y-56578419D01*
X160221580Y-56682948D01*
X160221584Y-56682951D01*
X160344498Y-56765080D01*
X160344511Y-56765087D01*
X160441689Y-56805339D01*
X160481087Y-56821658D01*
X160558212Y-56836999D01*
X160620119Y-56869382D01*
X160621699Y-56870934D01*
X160865139Y-57114374D01*
X160865149Y-57114385D01*
X160869479Y-57118715D01*
X160869480Y-57118716D01*
X160981284Y-57230520D01*
X161046576Y-57268216D01*
X161118215Y-57309577D01*
X161270943Y-57350501D01*
X161270946Y-57350501D01*
X161436653Y-57350501D01*
X161436669Y-57350500D01*
X163202648Y-57350500D01*
X163269687Y-57370185D01*
X163315442Y-57422989D01*
X163325386Y-57492147D01*
X163296361Y-57555703D01*
X163250100Y-57589061D01*
X163166879Y-57623531D01*
X163166866Y-57623538D01*
X163060331Y-57694723D01*
X163060327Y-57694726D01*
X162969726Y-57785327D01*
X162969723Y-57785331D01*
X162898538Y-57891866D01*
X162898533Y-57891876D01*
X162854205Y-57998893D01*
X162810363Y-58053297D01*
X162744069Y-58075361D01*
X162676370Y-58058081D01*
X162628760Y-58006944D01*
X162625084Y-57998894D01*
X162616898Y-57979131D01*
X162601468Y-57941878D01*
X162601461Y-57941866D01*
X162530276Y-57835331D01*
X162530273Y-57835327D01*
X162439672Y-57744726D01*
X162439668Y-57744723D01*
X162333133Y-57673538D01*
X162333124Y-57673533D01*
X162214744Y-57624499D01*
X162214738Y-57624497D01*
X162089071Y-57599500D01*
X162089069Y-57599500D01*
X161960931Y-57599500D01*
X161960929Y-57599500D01*
X161835261Y-57624497D01*
X161835255Y-57624499D01*
X161716875Y-57673533D01*
X161716866Y-57673538D01*
X161610331Y-57744723D01*
X161610327Y-57744726D01*
X161519726Y-57835327D01*
X161519723Y-57835331D01*
X161448538Y-57941866D01*
X161448533Y-57941875D01*
X161399499Y-58060255D01*
X161399497Y-58060261D01*
X161374500Y-58185928D01*
X161374500Y-58185931D01*
X161374500Y-58314069D01*
X161374500Y-58314071D01*
X161374499Y-58314071D01*
X161392249Y-58403300D01*
X161386022Y-58472892D01*
X161343159Y-58528069D01*
X161277269Y-58551314D01*
X161270632Y-58551492D01*
X161233937Y-58551492D01*
X161108269Y-58576489D01*
X161108263Y-58576491D01*
X160989883Y-58625525D01*
X160989874Y-58625530D01*
X160883339Y-58696715D01*
X160883335Y-58696718D01*
X160792734Y-58787319D01*
X160792731Y-58787323D01*
X160721546Y-58893858D01*
X160721541Y-58893867D01*
X160672507Y-59012247D01*
X160672505Y-59012253D01*
X160647508Y-59137920D01*
X160647508Y-59137923D01*
X160647508Y-59266061D01*
X160647508Y-59266063D01*
X160647507Y-59266063D01*
X160672505Y-59391730D01*
X160672507Y-59391736D01*
X160721541Y-59510116D01*
X160721546Y-59510125D01*
X160792731Y-59616660D01*
X160792734Y-59616664D01*
X160883335Y-59707265D01*
X160883339Y-59707268D01*
X160989874Y-59778453D01*
X160989880Y-59778456D01*
X160989881Y-59778457D01*
X161108264Y-59827493D01*
X161108268Y-59827493D01*
X161108269Y-59827494D01*
X161233936Y-59852492D01*
X161233939Y-59852492D01*
X161362079Y-59852492D01*
X161446623Y-59835674D01*
X161487752Y-59827493D01*
X161606135Y-59778457D01*
X161712677Y-59707268D01*
X161803284Y-59616661D01*
X161874473Y-59510119D01*
X161923509Y-59391736D01*
X161931690Y-59350607D01*
X161948508Y-59266063D01*
X161948508Y-59137920D01*
X161930759Y-59048692D01*
X161936986Y-58979100D01*
X161979849Y-58923923D01*
X162045739Y-58900678D01*
X162052376Y-58900500D01*
X162089071Y-58900500D01*
X162183671Y-58881682D01*
X162214744Y-58875501D01*
X162333127Y-58826465D01*
X162439669Y-58755276D01*
X162530276Y-58664669D01*
X162601465Y-58558127D01*
X162645794Y-58451106D01*
X162689634Y-58396703D01*
X162755928Y-58374638D01*
X162823628Y-58391917D01*
X162871239Y-58443054D01*
X162874916Y-58451106D01*
X162898533Y-58508124D01*
X162898538Y-58508133D01*
X162969723Y-58614668D01*
X162969726Y-58614672D01*
X163060327Y-58705273D01*
X163060331Y-58705276D01*
X163166866Y-58776461D01*
X163166872Y-58776464D01*
X163166873Y-58776465D01*
X163285256Y-58825501D01*
X163285260Y-58825501D01*
X163285261Y-58825502D01*
X163410928Y-58850500D01*
X163410931Y-58850500D01*
X163539071Y-58850500D01*
X163627306Y-58832948D01*
X163664744Y-58825501D01*
X163783127Y-58776465D01*
X163889669Y-58705276D01*
X163980276Y-58614669D01*
X164051465Y-58508127D01*
X164100501Y-58389744D01*
X164115554Y-58314069D01*
X164125500Y-58264071D01*
X164125500Y-58135928D01*
X164100502Y-58010261D01*
X164100501Y-58010260D01*
X164100501Y-58010256D01*
X164051465Y-57891873D01*
X164051464Y-57891872D01*
X164051461Y-57891866D01*
X163980276Y-57785331D01*
X163980273Y-57785327D01*
X163889672Y-57694726D01*
X163889668Y-57694723D01*
X163783133Y-57623538D01*
X163783120Y-57623531D01*
X163699900Y-57589061D01*
X163645496Y-57545220D01*
X163623431Y-57478926D01*
X163640710Y-57411227D01*
X163691847Y-57363616D01*
X163747352Y-57350500D01*
X165105500Y-57350500D01*
X165172539Y-57370185D01*
X165193180Y-57386818D01*
X165304270Y-57497909D01*
X165411660Y-57605299D01*
X165445145Y-57666622D01*
X165445596Y-57668788D01*
X165460936Y-57745906D01*
X165460938Y-57745914D01*
X165517508Y-57882487D01*
X165517515Y-57882500D01*
X165599644Y-58005414D01*
X165599647Y-58005418D01*
X165704176Y-58109947D01*
X165704180Y-58109950D01*
X165827094Y-58192079D01*
X165827107Y-58192086D01*
X165963142Y-58248433D01*
X165963683Y-58248657D01*
X165963687Y-58248657D01*
X165963688Y-58248658D01*
X166108675Y-58277499D01*
X166108678Y-58277499D01*
X166256516Y-58277499D01*
X166365564Y-58255807D01*
X166401509Y-58248657D01*
X166538091Y-58192083D01*
X166661012Y-58109950D01*
X166765547Y-58005415D01*
X166847680Y-57882494D01*
X166848084Y-57881520D01*
X166860932Y-57850500D01*
X166904254Y-57745912D01*
X166914436Y-57694723D01*
X166933096Y-57600919D01*
X166933096Y-57453078D01*
X166904255Y-57308091D01*
X166904254Y-57308090D01*
X166904254Y-57308086D01*
X166904252Y-57308081D01*
X166847683Y-57171510D01*
X166847676Y-57171497D01*
X166765547Y-57048583D01*
X166765544Y-57048579D01*
X166661015Y-56944050D01*
X166661011Y-56944047D01*
X166538097Y-56861918D01*
X166538084Y-56861911D01*
X166401511Y-56805341D01*
X166401503Y-56805339D01*
X166324385Y-56789999D01*
X166262474Y-56757614D01*
X166260896Y-56756063D01*
X165893187Y-56388355D01*
X165893185Y-56388352D01*
X165774314Y-56269481D01*
X165774309Y-56269477D01*
X165684368Y-56217550D01*
X165684366Y-56217549D01*
X165673793Y-56211445D01*
X165637382Y-56190423D01*
X165539037Y-56164071D01*
X170349499Y-56164071D01*
X170374497Y-56289738D01*
X170374499Y-56289744D01*
X170423533Y-56408124D01*
X170423538Y-56408133D01*
X170494723Y-56514668D01*
X170494726Y-56514672D01*
X170585327Y-56605273D01*
X170585331Y-56605276D01*
X170691866Y-56676461D01*
X170691875Y-56676466D01*
X170718692Y-56687574D01*
X170810256Y-56725501D01*
X170810260Y-56725501D01*
X170810261Y-56725502D01*
X170935928Y-56750500D01*
X170935931Y-56750500D01*
X171064071Y-56750500D01*
X171148615Y-56733682D01*
X171189744Y-56725501D01*
X171308127Y-56676465D01*
X171414669Y-56605276D01*
X171505276Y-56514669D01*
X171576465Y-56408127D01*
X171625501Y-56289744D01*
X171645258Y-56190423D01*
X171650500Y-56164071D01*
X171650500Y-56035928D01*
X171625502Y-55910261D01*
X171625501Y-55910260D01*
X171625501Y-55910256D01*
X171576465Y-55791873D01*
X171576464Y-55791872D01*
X171576461Y-55791866D01*
X171505276Y-55685331D01*
X171505273Y-55685327D01*
X171414672Y-55594726D01*
X171414668Y-55594723D01*
X171308133Y-55523538D01*
X171308124Y-55523533D01*
X171189744Y-55474499D01*
X171189738Y-55474497D01*
X171064071Y-55449500D01*
X171064069Y-55449500D01*
X170935931Y-55449500D01*
X170935929Y-55449500D01*
X170810261Y-55474497D01*
X170810255Y-55474499D01*
X170691875Y-55523533D01*
X170691866Y-55523538D01*
X170585331Y-55594723D01*
X170585327Y-55594726D01*
X170494726Y-55685327D01*
X170494723Y-55685331D01*
X170423538Y-55791866D01*
X170423533Y-55791875D01*
X170374499Y-55910255D01*
X170374497Y-55910261D01*
X170349500Y-56035928D01*
X170349500Y-56035931D01*
X170349500Y-56164069D01*
X170349500Y-56164071D01*
X170349499Y-56164071D01*
X165539037Y-56164071D01*
X165484654Y-56149499D01*
X165326540Y-56149499D01*
X165326536Y-56149500D01*
X161650097Y-56149500D01*
X161583058Y-56129815D01*
X161562416Y-56113181D01*
X161470934Y-56021699D01*
X161437449Y-55960376D01*
X161437025Y-55958346D01*
X161421658Y-55881087D01*
X161408574Y-55849500D01*
X161365087Y-55744511D01*
X161365080Y-55744498D01*
X161282951Y-55621584D01*
X161282948Y-55621580D01*
X161178419Y-55517051D01*
X161178415Y-55517048D01*
X161055501Y-55434919D01*
X161055488Y-55434912D01*
X160918917Y-55378343D01*
X160918907Y-55378340D01*
X160773920Y-55349500D01*
X160773918Y-55349500D01*
X160626082Y-55349500D01*
X160626080Y-55349500D01*
X160481092Y-55378340D01*
X160481082Y-55378343D01*
X160344511Y-55434912D01*
X160344498Y-55434919D01*
X160221584Y-55517048D01*
X160221580Y-55517051D01*
X160117051Y-55621580D01*
X160117048Y-55621584D01*
X160034919Y-55744498D01*
X160034912Y-55744511D01*
X159978343Y-55881082D01*
X159978340Y-55881092D01*
X159949500Y-56026079D01*
X159949500Y-56026082D01*
X159949500Y-56173918D01*
X159949500Y-56173920D01*
X159949499Y-56173920D01*
X157210016Y-56173920D01*
X157240169Y-56111304D01*
X157310055Y-55966188D01*
X157313799Y-55958412D01*
X157313801Y-55958408D01*
X157406560Y-55693318D01*
X157469055Y-55419509D01*
X157469601Y-55414669D01*
X157500499Y-55140431D01*
X157500500Y-55140427D01*
X157500500Y-55064071D01*
X176849499Y-55064071D01*
X176874497Y-55189738D01*
X176874499Y-55189744D01*
X176923533Y-55308124D01*
X176923538Y-55308133D01*
X176994723Y-55414668D01*
X176994726Y-55414672D01*
X177085327Y-55505273D01*
X177085331Y-55505276D01*
X177191866Y-55576461D01*
X177191872Y-55576464D01*
X177191873Y-55576465D01*
X177310256Y-55625501D01*
X177310260Y-55625501D01*
X177310261Y-55625502D01*
X177435928Y-55650500D01*
X177435931Y-55650500D01*
X177564071Y-55650500D01*
X177650497Y-55633308D01*
X177689744Y-55625501D01*
X177808127Y-55576465D01*
X177914669Y-55505276D01*
X178005276Y-55414669D01*
X178076465Y-55308127D01*
X178125501Y-55189744D01*
X178150500Y-55064069D01*
X178150500Y-54935931D01*
X178150500Y-54935928D01*
X178125502Y-54810261D01*
X178125501Y-54810260D01*
X178125501Y-54810256D01*
X178076465Y-54691873D01*
X178076464Y-54691872D01*
X178076461Y-54691866D01*
X178005276Y-54585331D01*
X178005273Y-54585327D01*
X177914672Y-54494726D01*
X177914668Y-54494723D01*
X177808133Y-54423538D01*
X177808124Y-54423533D01*
X177689744Y-54374499D01*
X177689738Y-54374497D01*
X177564071Y-54349500D01*
X177564069Y-54349500D01*
X177435931Y-54349500D01*
X177435929Y-54349500D01*
X177310261Y-54374497D01*
X177310255Y-54374499D01*
X177191875Y-54423533D01*
X177191866Y-54423538D01*
X177085331Y-54494723D01*
X177085327Y-54494726D01*
X176994726Y-54585327D01*
X176994723Y-54585331D01*
X176923538Y-54691866D01*
X176923533Y-54691875D01*
X176874499Y-54810255D01*
X176874497Y-54810261D01*
X176849500Y-54935928D01*
X176849500Y-54935931D01*
X176849500Y-55064069D01*
X176849500Y-55064071D01*
X176849499Y-55064071D01*
X157500500Y-55064071D01*
X157500500Y-54859572D01*
X157500499Y-54859568D01*
X157469057Y-54580505D01*
X157469054Y-54580487D01*
X157406560Y-54306682D01*
X157406556Y-54306670D01*
X157375763Y-54218670D01*
X157313801Y-54041592D01*
X157191945Y-53788555D01*
X157042523Y-53550752D01*
X156867416Y-53331175D01*
X156668825Y-53132584D01*
X156449248Y-52957477D01*
X156211445Y-52808055D01*
X156211442Y-52808053D01*
X155958411Y-52686200D01*
X155911511Y-52669789D01*
X155854735Y-52629067D01*
X155828988Y-52564115D01*
X155842444Y-52495553D01*
X155890832Y-52445150D01*
X155952466Y-52428748D01*
X159925500Y-52428748D01*
X159992539Y-52448433D01*
X160038294Y-52501237D01*
X160049500Y-52552748D01*
X160049500Y-52664069D01*
X160049500Y-52664071D01*
X160049499Y-52664071D01*
X160074497Y-52789738D01*
X160074499Y-52789744D01*
X160123533Y-52908124D01*
X160123538Y-52908133D01*
X160194723Y-53014668D01*
X160194726Y-53014672D01*
X160285327Y-53105273D01*
X160285331Y-53105276D01*
X160391866Y-53176461D01*
X160391872Y-53176464D01*
X160391873Y-53176465D01*
X160510256Y-53225501D01*
X160510260Y-53225501D01*
X160510261Y-53225502D01*
X160635928Y-53250500D01*
X160635931Y-53250500D01*
X160764071Y-53250500D01*
X160848615Y-53233682D01*
X160889744Y-53225501D01*
X161008127Y-53176465D01*
X161114669Y-53105276D01*
X161205276Y-53014669D01*
X161276465Y-52908127D01*
X161325501Y-52789744D01*
X161333682Y-52748615D01*
X161350500Y-52664071D01*
X161350500Y-52552748D01*
X161370185Y-52485709D01*
X161422989Y-52439954D01*
X161474500Y-52428748D01*
X170225500Y-52428748D01*
X170292539Y-52448433D01*
X170338294Y-52501237D01*
X170349500Y-52552748D01*
X170349500Y-52664069D01*
X170349500Y-52664071D01*
X170349499Y-52664071D01*
X170374497Y-52789738D01*
X170374499Y-52789744D01*
X170423533Y-52908124D01*
X170423538Y-52908133D01*
X170494723Y-53014668D01*
X170494726Y-53014672D01*
X170585327Y-53105273D01*
X170585331Y-53105276D01*
X170691866Y-53176461D01*
X170691872Y-53176464D01*
X170691873Y-53176465D01*
X170810256Y-53225501D01*
X170810260Y-53225501D01*
X170810261Y-53225502D01*
X170935928Y-53250500D01*
X170935931Y-53250500D01*
X171064071Y-53250500D01*
X171148615Y-53233682D01*
X171189744Y-53225501D01*
X171308127Y-53176465D01*
X171414669Y-53105276D01*
X171505276Y-53014669D01*
X171576465Y-52908127D01*
X171625501Y-52789744D01*
X171633682Y-52748615D01*
X171650500Y-52664071D01*
X171650500Y-52552748D01*
X171670185Y-52485709D01*
X171722989Y-52439954D01*
X171774500Y-52428748D01*
X194047534Y-52428748D01*
X194114573Y-52448433D01*
X194160328Y-52501237D01*
X194170272Y-52570395D01*
X194141247Y-52633951D01*
X194088489Y-52669789D01*
X194041588Y-52686200D01*
X193788557Y-52808053D01*
X193550753Y-52957476D01*
X193331175Y-53132583D01*
X193132583Y-53331175D01*
X192957476Y-53550753D01*
X192808053Y-53788557D01*
X192686200Y-54041588D01*
X192593443Y-54306670D01*
X192593439Y-54306682D01*
X192530945Y-54580487D01*
X192530942Y-54580505D01*
X192499500Y-54859568D01*
X192499500Y-55140431D01*
X192530942Y-55419494D01*
X192530945Y-55419512D01*
X192593439Y-55693317D01*
X192593443Y-55693329D01*
X192686200Y-55958411D01*
X192808053Y-56211442D01*
X192957478Y-56449250D01*
X192959487Y-56452081D01*
X192958504Y-56452777D01*
X192983040Y-56512874D01*
X192970283Y-56581570D01*
X192922412Y-56632463D01*
X192859684Y-56649500D01*
X188764909Y-56649500D01*
X188697870Y-56629815D01*
X188652115Y-56577011D01*
X188643292Y-56549692D01*
X188625502Y-56460261D01*
X188625501Y-56460260D01*
X188625501Y-56460256D01*
X188576465Y-56341873D01*
X188576464Y-56341872D01*
X188576461Y-56341866D01*
X188505276Y-56235331D01*
X188505273Y-56235327D01*
X188414672Y-56144726D01*
X188414668Y-56144723D01*
X188308133Y-56073538D01*
X188308124Y-56073533D01*
X188189744Y-56024499D01*
X188189738Y-56024497D01*
X188064071Y-55999500D01*
X188064069Y-55999500D01*
X187935931Y-55999500D01*
X187935929Y-55999500D01*
X187810261Y-56024497D01*
X187810255Y-56024499D01*
X187691875Y-56073533D01*
X187691866Y-56073538D01*
X187585331Y-56144723D01*
X187585327Y-56144726D01*
X187494726Y-56235327D01*
X187494723Y-56235331D01*
X187423538Y-56341866D01*
X187423533Y-56341875D01*
X187374499Y-56460255D01*
X187374497Y-56460260D01*
X187371617Y-56474743D01*
X187339231Y-56536653D01*
X187278515Y-56571227D01*
X187208746Y-56567486D01*
X187152074Y-56526619D01*
X187128383Y-56474743D01*
X187125502Y-56460260D01*
X187125501Y-56460258D01*
X187125501Y-56460256D01*
X187076465Y-56341873D01*
X187076464Y-56341872D01*
X187076461Y-56341866D01*
X187005276Y-56235331D01*
X187005273Y-56235327D01*
X186914672Y-56144726D01*
X186914668Y-56144723D01*
X186808133Y-56073538D01*
X186808124Y-56073533D01*
X186689744Y-56024499D01*
X186689738Y-56024497D01*
X186564071Y-55999500D01*
X186564069Y-55999500D01*
X186435931Y-55999500D01*
X186435929Y-55999500D01*
X186310261Y-56024497D01*
X186310255Y-56024499D01*
X186191875Y-56073533D01*
X186191866Y-56073538D01*
X186085331Y-56144723D01*
X186085327Y-56144726D01*
X185994726Y-56235327D01*
X185994723Y-56235331D01*
X185923538Y-56341866D01*
X185923533Y-56341875D01*
X185874499Y-56460255D01*
X185874497Y-56460261D01*
X185856708Y-56549692D01*
X185824323Y-56611603D01*
X185763607Y-56646177D01*
X185735091Y-56649500D01*
X183124500Y-56649500D01*
X183057461Y-56629815D01*
X183011706Y-56577011D01*
X183001927Y-56532060D01*
X183001097Y-56532142D01*
X183000500Y-56526079D01*
X182971659Y-56381092D01*
X182971658Y-56381091D01*
X182971658Y-56381087D01*
X182955412Y-56341866D01*
X182915087Y-56244511D01*
X182915080Y-56244498D01*
X182832951Y-56121584D01*
X182832948Y-56121580D01*
X182728419Y-56017051D01*
X182728415Y-56017048D01*
X182605501Y-55934919D01*
X182605488Y-55934912D01*
X182468917Y-55878343D01*
X182468907Y-55878340D01*
X182323920Y-55849500D01*
X182323918Y-55849500D01*
X182176082Y-55849500D01*
X182176080Y-55849500D01*
X182031092Y-55878340D01*
X182031082Y-55878343D01*
X181894511Y-55934912D01*
X181894498Y-55934919D01*
X181771584Y-56017048D01*
X181771580Y-56017051D01*
X181667051Y-56121580D01*
X181667048Y-56121584D01*
X181584919Y-56244498D01*
X181584912Y-56244511D01*
X181528343Y-56381082D01*
X181528340Y-56381092D01*
X181499500Y-56526079D01*
X181499500Y-56599903D01*
X181490855Y-56629343D01*
X181484332Y-56659330D01*
X181480577Y-56664345D01*
X181479815Y-56666942D01*
X181463181Y-56687584D01*
X181287584Y-56863181D01*
X181226261Y-56896666D01*
X181199903Y-56899500D01*
X175420940Y-56899500D01*
X175380019Y-56910464D01*
X175380019Y-56910465D01*
X175348226Y-56918984D01*
X175268214Y-56940423D01*
X175268209Y-56940426D01*
X175131290Y-57019475D01*
X175131282Y-57019481D01*
X175019478Y-57131286D01*
X174701980Y-57448783D01*
X174676301Y-57468488D01*
X174625344Y-57497909D01*
X174587534Y-57512140D01*
X174506092Y-57528340D01*
X174506084Y-57528342D01*
X174369511Y-57584912D01*
X174369498Y-57584919D01*
X174246584Y-57667048D01*
X174246580Y-57667051D01*
X174142051Y-57771580D01*
X174142048Y-57771584D01*
X174059919Y-57894498D01*
X174059912Y-57894511D01*
X174003343Y-58031082D01*
X174003340Y-58031092D01*
X173974500Y-58176079D01*
X173974500Y-58176082D01*
X173974500Y-58323918D01*
X173974500Y-58323920D01*
X173974499Y-58323920D01*
X174003340Y-58468907D01*
X174003343Y-58468917D01*
X174059912Y-58605488D01*
X174059919Y-58605501D01*
X174142048Y-58728415D01*
X174142051Y-58728419D01*
X174246580Y-58832948D01*
X174246584Y-58832951D01*
X174369498Y-58915080D01*
X174369511Y-58915087D01*
X174506082Y-58971656D01*
X174506087Y-58971658D01*
X174506091Y-58971658D01*
X174506092Y-58971659D01*
X174651079Y-59000500D01*
X174651082Y-59000500D01*
X174798920Y-59000500D01*
X174906500Y-58979100D01*
X174943913Y-58971658D01*
X175080495Y-58915084D01*
X175203416Y-58832951D01*
X175307951Y-58728416D01*
X175390084Y-58605495D01*
X175446658Y-58468913D01*
X175455790Y-58422998D01*
X175464553Y-58406245D01*
X175468573Y-58387767D01*
X175487315Y-58362728D01*
X175488173Y-58361090D01*
X175489635Y-58359600D01*
X175505520Y-58343716D01*
X175505521Y-58343713D01*
X175712417Y-58136816D01*
X175773740Y-58103334D01*
X175800097Y-58100500D01*
X178975500Y-58100500D01*
X179042539Y-58120185D01*
X179088294Y-58172989D01*
X179099500Y-58224500D01*
X179099500Y-58314069D01*
X179099500Y-58314071D01*
X179099499Y-58314071D01*
X179124497Y-58439738D01*
X179124499Y-58439744D01*
X179173533Y-58558124D01*
X179173538Y-58558133D01*
X179244723Y-58664668D01*
X179244726Y-58664672D01*
X179335327Y-58755273D01*
X179335331Y-58755276D01*
X179441866Y-58826461D01*
X179441875Y-58826466D01*
X179468692Y-58837574D01*
X179560256Y-58875501D01*
X179560260Y-58875501D01*
X179560261Y-58875502D01*
X179685928Y-58900500D01*
X179685931Y-58900500D01*
X179814071Y-58900500D01*
X179908671Y-58881682D01*
X179939744Y-58875501D01*
X180058127Y-58826465D01*
X180164669Y-58755276D01*
X180255276Y-58664669D01*
X180326465Y-58558127D01*
X180375501Y-58439744D01*
X180394603Y-58343716D01*
X180400500Y-58314071D01*
X180400500Y-58224500D01*
X180420185Y-58157461D01*
X180472989Y-58111706D01*
X180524500Y-58100500D01*
X181413331Y-58100500D01*
X181413347Y-58100501D01*
X181420943Y-58100501D01*
X181579056Y-58100501D01*
X181579057Y-58100501D01*
X181655289Y-58080074D01*
X181725138Y-58081735D01*
X181766850Y-58107160D01*
X181767916Y-58105863D01*
X181772626Y-58109728D01*
X181895540Y-58191857D01*
X181895553Y-58191864D01*
X182032124Y-58248433D01*
X182032129Y-58248435D01*
X182032133Y-58248435D01*
X182032134Y-58248436D01*
X182177121Y-58277277D01*
X182177124Y-58277277D01*
X182324962Y-58277277D01*
X182432894Y-58255807D01*
X182469955Y-58248435D01*
X182489803Y-58240213D01*
X182491893Y-58239988D01*
X182493573Y-58238724D01*
X182526461Y-58236272D01*
X182559269Y-58232745D01*
X182561149Y-58233686D01*
X182563249Y-58233530D01*
X182592246Y-58249251D01*
X182621749Y-58264019D01*
X182622823Y-58265829D01*
X182624672Y-58266832D01*
X182640566Y-58295733D01*
X182657402Y-58324108D01*
X182657646Y-58326790D01*
X182658341Y-58328054D01*
X182658415Y-58335249D01*
X182660964Y-58363251D01*
X182660420Y-58371181D01*
X182649500Y-58426082D01*
X182649500Y-58530579D01*
X182649210Y-58534812D01*
X182638509Y-58563766D01*
X182629815Y-58593375D01*
X182625661Y-58598529D01*
X182624989Y-58600349D01*
X182622968Y-58601870D01*
X182613181Y-58614017D01*
X176478198Y-64748999D01*
X176416875Y-64782484D01*
X176366325Y-64782935D01*
X176323920Y-64774500D01*
X176323918Y-64774500D01*
X176176082Y-64774500D01*
X176176080Y-64774500D01*
X176031092Y-64803340D01*
X176031082Y-64803343D01*
X175894511Y-64859912D01*
X175894498Y-64859919D01*
X175771584Y-64942048D01*
X175771580Y-64942051D01*
X175667051Y-65046580D01*
X175667048Y-65046584D01*
X175584919Y-65169498D01*
X175584912Y-65169511D01*
X175528343Y-65306082D01*
X175528340Y-65306092D01*
X175499500Y-65451079D01*
X175499500Y-65451082D01*
X175499500Y-65598918D01*
X175499500Y-65598920D01*
X175499499Y-65598920D01*
X175528340Y-65743907D01*
X175528343Y-65743917D01*
X175584912Y-65880488D01*
X175584919Y-65880501D01*
X175667048Y-66003415D01*
X175667051Y-66003419D01*
X175771580Y-66107948D01*
X175771584Y-66107951D01*
X175894498Y-66190080D01*
X175894511Y-66190087D01*
X175996428Y-66232302D01*
X176031087Y-66246658D01*
X176031091Y-66246658D01*
X176031092Y-66246659D01*
X176176079Y-66275500D01*
X176176082Y-66275500D01*
X176323920Y-66275500D01*
X176421462Y-66256096D01*
X176468913Y-66246658D01*
X176605495Y-66190084D01*
X176605500Y-66190080D01*
X176605503Y-66190079D01*
X176653322Y-66158127D01*
X176728416Y-66107951D01*
X176728419Y-66107947D01*
X176733103Y-66104818D01*
X176748250Y-66096171D01*
X176758691Y-66091148D01*
X176783219Y-66084577D01*
X176833338Y-66055639D01*
X176920150Y-66005520D01*
X177031954Y-65893716D01*
X177031954Y-65893714D01*
X177042162Y-65883507D01*
X177042163Y-65883504D01*
X180836821Y-62088847D01*
X180898142Y-62055364D01*
X180967834Y-62060348D01*
X181023767Y-62102220D01*
X181048184Y-62167684D01*
X181048500Y-62176530D01*
X181048500Y-63244744D01*
X181028815Y-63311783D01*
X180976011Y-63357538D01*
X180906853Y-63367482D01*
X180900309Y-63366361D01*
X180815543Y-63349500D01*
X180815539Y-63349500D01*
X180687401Y-63349500D01*
X180687399Y-63349500D01*
X180561731Y-63374497D01*
X180561725Y-63374499D01*
X180443345Y-63423533D01*
X180443336Y-63423538D01*
X180336801Y-63494723D01*
X180336797Y-63494726D01*
X180246196Y-63585327D01*
X180246193Y-63585331D01*
X180175008Y-63691866D01*
X180175003Y-63691875D01*
X180125969Y-63810255D01*
X180125967Y-63810261D01*
X180100970Y-63935928D01*
X180100970Y-63935929D01*
X180100970Y-63935931D01*
X180100970Y-64064069D01*
X180100970Y-64064071D01*
X180100969Y-64064071D01*
X180125967Y-64189738D01*
X180125969Y-64189744D01*
X180175003Y-64308124D01*
X180175008Y-64308133D01*
X180249578Y-64419734D01*
X180247479Y-64421136D01*
X180270468Y-64475308D01*
X180258656Y-64544172D01*
X180211488Y-64595718D01*
X180143940Y-64613581D01*
X180123105Y-64611243D01*
X180064071Y-64599500D01*
X180064069Y-64599500D01*
X179935931Y-64599500D01*
X179935929Y-64599500D01*
X179810261Y-64624497D01*
X179810255Y-64624499D01*
X179691875Y-64673533D01*
X179691866Y-64673538D01*
X179585331Y-64744723D01*
X179585327Y-64744726D01*
X179494726Y-64835327D01*
X179494723Y-64835331D01*
X179423538Y-64941866D01*
X179423533Y-64941875D01*
X179374499Y-65060255D01*
X179374497Y-65060261D01*
X179349500Y-65185928D01*
X179349500Y-65185931D01*
X179349500Y-65314069D01*
X179349500Y-65314071D01*
X179349499Y-65314071D01*
X179374497Y-65439738D01*
X179374499Y-65439744D01*
X179423533Y-65558124D01*
X179423538Y-65558133D01*
X179494723Y-65664668D01*
X179494726Y-65664672D01*
X179585327Y-65755273D01*
X179585331Y-65755276D01*
X179691866Y-65826461D01*
X179691872Y-65826464D01*
X179691873Y-65826465D01*
X179810256Y-65875501D01*
X179810260Y-65875501D01*
X179810261Y-65875502D01*
X179935928Y-65900500D01*
X179935931Y-65900500D01*
X180064071Y-65900500D01*
X180164673Y-65880488D01*
X180189744Y-65875501D01*
X180190657Y-65875122D01*
X180191172Y-65875067D01*
X180195571Y-65873733D01*
X180195824Y-65874567D01*
X180260124Y-65867653D01*
X180322604Y-65898926D01*
X180358258Y-65959014D01*
X180359728Y-65965491D01*
X180374497Y-66039738D01*
X180374499Y-66039744D01*
X180423533Y-66158124D01*
X180423537Y-66158131D01*
X180474762Y-66234795D01*
X180484248Y-66265092D01*
X180495343Y-66294837D01*
X180494612Y-66298194D01*
X180495639Y-66301472D01*
X180487240Y-66332084D01*
X180480492Y-66363110D01*
X180477709Y-66366827D01*
X180477154Y-66368852D01*
X180459342Y-66391365D01*
X180431286Y-66419421D01*
X180319481Y-66531225D01*
X180319475Y-66531233D01*
X180273701Y-66610518D01*
X180273701Y-66610519D01*
X180240423Y-66668157D01*
X180240423Y-66668158D01*
X180199499Y-66820886D01*
X180199499Y-66820888D01*
X180199499Y-66988989D01*
X180199500Y-66989002D01*
X180199500Y-68010232D01*
X180179815Y-68077271D01*
X180178603Y-68079122D01*
X180134914Y-68144508D01*
X180078343Y-68281082D01*
X180078340Y-68281092D01*
X180049500Y-68426079D01*
X180049500Y-68426082D01*
X180049500Y-68573918D01*
X180049500Y-68573920D01*
X180049499Y-68573920D01*
X180078340Y-68718907D01*
X180078343Y-68718917D01*
X180134912Y-68855488D01*
X180134919Y-68855501D01*
X180217048Y-68978415D01*
X180217051Y-68978419D01*
X180321580Y-69082948D01*
X180321584Y-69082951D01*
X180444498Y-69165080D01*
X180444511Y-69165087D01*
X180581082Y-69221656D01*
X180581087Y-69221658D01*
X180581091Y-69221658D01*
X180581092Y-69221659D01*
X180726079Y-69250500D01*
X180726082Y-69250500D01*
X180873920Y-69250500D01*
X180984944Y-69228415D01*
X181018913Y-69221658D01*
X181155495Y-69165084D01*
X181278416Y-69082951D01*
X181382951Y-68978416D01*
X181465084Y-68855495D01*
X181521658Y-68718913D01*
X181540334Y-68625027D01*
X181550500Y-68573920D01*
X181550500Y-68564071D01*
X183624499Y-68564071D01*
X183649497Y-68689738D01*
X183649499Y-68689744D01*
X183698533Y-68808124D01*
X183698538Y-68808133D01*
X183769723Y-68914668D01*
X183769726Y-68914672D01*
X183860327Y-69005273D01*
X183860331Y-69005276D01*
X183966866Y-69076461D01*
X183966875Y-69076466D01*
X183993692Y-69087574D01*
X184085256Y-69125501D01*
X184085260Y-69125501D01*
X184085261Y-69125502D01*
X184210928Y-69150500D01*
X184210931Y-69150500D01*
X184339071Y-69150500D01*
X184464739Y-69125502D01*
X184464739Y-69125501D01*
X184464744Y-69125501D01*
X184475313Y-69121122D01*
X184544782Y-69113651D01*
X184607262Y-69144924D01*
X184625872Y-69166791D01*
X184667048Y-69228415D01*
X184667051Y-69228419D01*
X184771580Y-69332948D01*
X184771584Y-69332951D01*
X184894498Y-69415080D01*
X184894511Y-69415087D01*
X185031082Y-69471656D01*
X185031087Y-69471658D01*
X185031091Y-69471658D01*
X185031092Y-69471659D01*
X185176079Y-69500500D01*
X185176082Y-69500500D01*
X185323920Y-69500500D01*
X185421462Y-69481096D01*
X185468913Y-69471658D01*
X185605495Y-69415084D01*
X185728416Y-69332951D01*
X185832951Y-69228416D01*
X185915084Y-69105495D01*
X185971658Y-68968913D01*
X185985075Y-68901461D01*
X186000500Y-68823920D01*
X186000500Y-68676079D01*
X185971659Y-68531092D01*
X185971658Y-68531091D01*
X185971658Y-68531087D01*
X185915084Y-68394505D01*
X185871396Y-68329121D01*
X185850520Y-68262444D01*
X185850500Y-68260232D01*
X185850500Y-63874441D01*
X187448978Y-63874441D01*
X187477819Y-64019428D01*
X187477822Y-64019438D01*
X187534391Y-64156009D01*
X187534398Y-64156022D01*
X187578081Y-64221397D01*
X187598959Y-64288074D01*
X187598979Y-64290288D01*
X187598979Y-75057918D01*
X187598978Y-75057922D01*
X187598978Y-75216036D01*
X187611082Y-75261209D01*
X187611803Y-75273970D01*
X187611340Y-75275951D01*
X187612000Y-75280959D01*
X187612000Y-75373918D01*
X187612000Y-75373920D01*
X187611999Y-75373920D01*
X187640840Y-75518907D01*
X187640843Y-75518917D01*
X187697412Y-75655488D01*
X187697419Y-75655501D01*
X187779548Y-75778415D01*
X187779551Y-75778419D01*
X187884080Y-75882948D01*
X187884084Y-75882951D01*
X188006998Y-75965080D01*
X188007011Y-75965087D01*
X188103279Y-76004962D01*
X188143587Y-76021658D01*
X188143591Y-76021658D01*
X188143592Y-76021659D01*
X188288579Y-76050500D01*
X188363402Y-76050500D01*
X188384647Y-76056738D01*
X188406736Y-76058318D01*
X188417519Y-76066390D01*
X188430441Y-76070185D01*
X188444940Y-76086918D01*
X188462669Y-76100190D01*
X188467376Y-76112810D01*
X188476196Y-76122989D01*
X188479347Y-76144906D01*
X188487086Y-76165654D01*
X188484223Y-76178814D01*
X188486140Y-76192147D01*
X188476940Y-76212290D01*
X188472234Y-76233927D01*
X188458964Y-76251653D01*
X188457115Y-76255703D01*
X188451096Y-76262167D01*
X188298596Y-76414668D01*
X188284199Y-76429065D01*
X188222876Y-76462549D01*
X188220710Y-76463000D01*
X188143592Y-76478340D01*
X188143584Y-76478342D01*
X188007011Y-76534912D01*
X188006998Y-76534919D01*
X187884084Y-76617048D01*
X187884080Y-76617051D01*
X187779551Y-76721580D01*
X187779548Y-76721584D01*
X187697419Y-76844498D01*
X187697412Y-76844511D01*
X187640843Y-76981082D01*
X187640840Y-76981092D01*
X187612000Y-77126079D01*
X187612000Y-77126082D01*
X187612000Y-77273918D01*
X187612000Y-77273920D01*
X187611999Y-77273920D01*
X187640840Y-77418907D01*
X187640843Y-77418917D01*
X187697412Y-77555488D01*
X187697419Y-77555501D01*
X187779548Y-77678415D01*
X187779551Y-77678419D01*
X187884080Y-77782948D01*
X187884084Y-77782951D01*
X188006998Y-77865080D01*
X188007011Y-77865087D01*
X188126714Y-77914669D01*
X188143587Y-77921658D01*
X188143591Y-77921658D01*
X188143592Y-77921659D01*
X188288579Y-77950500D01*
X188288582Y-77950500D01*
X188436420Y-77950500D01*
X188533962Y-77931096D01*
X188581413Y-77921658D01*
X188717995Y-77865084D01*
X188840916Y-77782951D01*
X188945451Y-77678416D01*
X189027584Y-77555495D01*
X189084158Y-77418913D01*
X189099499Y-77341786D01*
X189131881Y-77279879D01*
X189133376Y-77278357D01*
X189147662Y-77264071D01*
X189986999Y-77264071D01*
X190011997Y-77389738D01*
X190011999Y-77389744D01*
X190061033Y-77508124D01*
X190061038Y-77508133D01*
X190132223Y-77614668D01*
X190132226Y-77614672D01*
X190222827Y-77705273D01*
X190222831Y-77705276D01*
X190329366Y-77776461D01*
X190329375Y-77776466D01*
X190356192Y-77787574D01*
X190447756Y-77825501D01*
X190447760Y-77825501D01*
X190447761Y-77825502D01*
X190573428Y-77850500D01*
X190573431Y-77850500D01*
X190701571Y-77850500D01*
X190786115Y-77833682D01*
X190827244Y-77825501D01*
X190945627Y-77776465D01*
X191052169Y-77705276D01*
X191142776Y-77614669D01*
X191213965Y-77508127D01*
X191263001Y-77389744D01*
X191284855Y-77279879D01*
X191288000Y-77264071D01*
X191288000Y-77135928D01*
X191263002Y-77010261D01*
X191263001Y-77010260D01*
X191263001Y-77010256D01*
X191213965Y-76891873D01*
X191213964Y-76891872D01*
X191213961Y-76891866D01*
X191142776Y-76785331D01*
X191142773Y-76785327D01*
X191052172Y-76694726D01*
X191052168Y-76694723D01*
X190945633Y-76623538D01*
X190945624Y-76623533D01*
X190827244Y-76574499D01*
X190827238Y-76574497D01*
X190701571Y-76549500D01*
X190701569Y-76549500D01*
X190573431Y-76549500D01*
X190573429Y-76549500D01*
X190447761Y-76574497D01*
X190447755Y-76574499D01*
X190329375Y-76623533D01*
X190329366Y-76623538D01*
X190222831Y-76694723D01*
X190222827Y-76694726D01*
X190132226Y-76785327D01*
X190132223Y-76785331D01*
X190061038Y-76891866D01*
X190061033Y-76891875D01*
X190011999Y-77010255D01*
X190011997Y-77010261D01*
X189987000Y-77135928D01*
X189987000Y-77135931D01*
X189987000Y-77264069D01*
X189987000Y-77264071D01*
X189986999Y-77264071D01*
X189147662Y-77264071D01*
X190347663Y-76064071D01*
X192922499Y-76064071D01*
X192947497Y-76189738D01*
X192947499Y-76189744D01*
X192996533Y-76308124D01*
X192996538Y-76308133D01*
X193067723Y-76414668D01*
X193067726Y-76414672D01*
X193158327Y-76505273D01*
X193158331Y-76505276D01*
X193264866Y-76576461D01*
X193264872Y-76576464D01*
X193264873Y-76576465D01*
X193383256Y-76625501D01*
X193383260Y-76625501D01*
X193383261Y-76625502D01*
X193508928Y-76650500D01*
X193508931Y-76650500D01*
X193637071Y-76650500D01*
X193721615Y-76633682D01*
X193762744Y-76625501D01*
X193881127Y-76576465D01*
X193987669Y-76505276D01*
X194078276Y-76414669D01*
X194149465Y-76308127D01*
X194198501Y-76189744D01*
X194218955Y-76086918D01*
X194223500Y-76064071D01*
X194223500Y-76004962D01*
X194243185Y-75937923D01*
X194295989Y-75892168D01*
X194323300Y-75883346D01*
X194362744Y-75875501D01*
X194481127Y-75826465D01*
X194587669Y-75755276D01*
X194678276Y-75664669D01*
X194749465Y-75558127D01*
X194798501Y-75439744D01*
X194811338Y-75375212D01*
X194823500Y-75314071D01*
X194823500Y-75185928D01*
X194798502Y-75060261D01*
X194798501Y-75060260D01*
X194798501Y-75060256D01*
X194749465Y-74941873D01*
X194749464Y-74941872D01*
X194749461Y-74941866D01*
X194678276Y-74835331D01*
X194678273Y-74835327D01*
X194587672Y-74744726D01*
X194587668Y-74744723D01*
X194481133Y-74673538D01*
X194481124Y-74673533D01*
X194362744Y-74624499D01*
X194362738Y-74624497D01*
X194237071Y-74599500D01*
X194237069Y-74599500D01*
X194108931Y-74599500D01*
X194108929Y-74599500D01*
X193983261Y-74624497D01*
X193983255Y-74624499D01*
X193864875Y-74673533D01*
X193864866Y-74673538D01*
X193758331Y-74744723D01*
X193758327Y-74744726D01*
X193667726Y-74835327D01*
X193667723Y-74835331D01*
X193596538Y-74941866D01*
X193596533Y-74941875D01*
X193547499Y-75060255D01*
X193547497Y-75060261D01*
X193522500Y-75185928D01*
X193522500Y-75245037D01*
X193502815Y-75312076D01*
X193450011Y-75357831D01*
X193422692Y-75366654D01*
X193383261Y-75374497D01*
X193383255Y-75374499D01*
X193264875Y-75423533D01*
X193264866Y-75423538D01*
X193158331Y-75494723D01*
X193158327Y-75494726D01*
X193067726Y-75585327D01*
X193067723Y-75585331D01*
X192996538Y-75691866D01*
X192996533Y-75691875D01*
X192947499Y-75810255D01*
X192947497Y-75810261D01*
X192922500Y-75935928D01*
X192922500Y-75935931D01*
X192922500Y-76064069D01*
X192922500Y-76064071D01*
X192922499Y-76064071D01*
X190347663Y-76064071D01*
X190392656Y-76019078D01*
X190392659Y-76019077D01*
X190432987Y-75978748D01*
X190468380Y-75959423D01*
X190494306Y-75945267D01*
X190494309Y-75945266D01*
X190494322Y-75945266D01*
X190544856Y-75944816D01*
X190573431Y-75950500D01*
X190701571Y-75950500D01*
X190795150Y-75931885D01*
X190827244Y-75925501D01*
X190945627Y-75876465D01*
X190947071Y-75875500D01*
X191020051Y-75826737D01*
X191044708Y-75810261D01*
X191052169Y-75805276D01*
X191142776Y-75714669D01*
X191213965Y-75608127D01*
X191263001Y-75489744D01*
X191276463Y-75422068D01*
X191288000Y-75364071D01*
X191288000Y-75235928D01*
X191263002Y-75110261D01*
X191263001Y-75110260D01*
X191263001Y-75110256D01*
X191213965Y-74991873D01*
X191213964Y-74991872D01*
X191213961Y-74991866D01*
X191142776Y-74885331D01*
X191142773Y-74885327D01*
X191052172Y-74794726D01*
X191052168Y-74794723D01*
X190945633Y-74723538D01*
X190945624Y-74723533D01*
X190827244Y-74674499D01*
X190827238Y-74674497D01*
X190724251Y-74654011D01*
X190662340Y-74621625D01*
X190627766Y-74560909D01*
X190624443Y-74532394D01*
X190624443Y-71601153D01*
X191794500Y-71601153D01*
X191794500Y-71758846D01*
X191825261Y-71913489D01*
X191825264Y-71913501D01*
X191885602Y-72059172D01*
X191885609Y-72059185D01*
X191973210Y-72190288D01*
X191973213Y-72190292D01*
X192084707Y-72301786D01*
X192084711Y-72301789D01*
X192215814Y-72389390D01*
X192215827Y-72389397D01*
X192361498Y-72449735D01*
X192361503Y-72449737D01*
X192516153Y-72480499D01*
X192516156Y-72480500D01*
X193161258Y-72480500D01*
X193228297Y-72500185D01*
X193274052Y-72552989D01*
X193283996Y-72622147D01*
X193254971Y-72685703D01*
X193248939Y-72692181D01*
X193184487Y-72756632D01*
X193184485Y-72756635D01*
X193108719Y-72887865D01*
X193089132Y-72960967D01*
X193087658Y-72966468D01*
X193051293Y-73026128D01*
X192988446Y-73056657D01*
X192919070Y-73048362D01*
X192898992Y-73037476D01*
X192878133Y-73023538D01*
X192878124Y-73023533D01*
X192759744Y-72974499D01*
X192759738Y-72974497D01*
X192634071Y-72949500D01*
X192634069Y-72949500D01*
X192505931Y-72949500D01*
X192505929Y-72949500D01*
X192380261Y-72974497D01*
X192380255Y-72974499D01*
X192261875Y-73023533D01*
X192261866Y-73023538D01*
X192155331Y-73094723D01*
X192155327Y-73094726D01*
X192064726Y-73185327D01*
X192064723Y-73185331D01*
X191993538Y-73291866D01*
X191993533Y-73291875D01*
X191944499Y-73410255D01*
X191944497Y-73410261D01*
X191919500Y-73535928D01*
X191919500Y-73535931D01*
X191919500Y-73664069D01*
X191919500Y-73664071D01*
X191919499Y-73664071D01*
X191944497Y-73789738D01*
X191944499Y-73789744D01*
X191993533Y-73908124D01*
X191993538Y-73908133D01*
X192064723Y-74014668D01*
X192064726Y-74014672D01*
X192155327Y-74105273D01*
X192155331Y-74105276D01*
X192261866Y-74176461D01*
X192261875Y-74176466D01*
X192277705Y-74183023D01*
X192380256Y-74225501D01*
X192380260Y-74225501D01*
X192380261Y-74225502D01*
X192505928Y-74250500D01*
X192505931Y-74250500D01*
X192634071Y-74250500D01*
X192718615Y-74233682D01*
X192759744Y-74225501D01*
X192878127Y-74176465D01*
X192984669Y-74105276D01*
X193075276Y-74014669D01*
X193146465Y-73908127D01*
X193195501Y-73789744D01*
X193209996Y-73716875D01*
X193210761Y-73713030D01*
X193243146Y-73651119D01*
X193303862Y-73616545D01*
X193373631Y-73620284D01*
X193394379Y-73629835D01*
X193422859Y-73646278D01*
X193422860Y-73646278D01*
X193422865Y-73646281D01*
X193569234Y-73685500D01*
X193569236Y-73685500D01*
X193720764Y-73685500D01*
X193720766Y-73685500D01*
X193867135Y-73646281D01*
X193998365Y-73570515D01*
X194105515Y-73463365D01*
X194181281Y-73332135D01*
X194220500Y-73185766D01*
X194220500Y-73034234D01*
X194181281Y-72887865D01*
X194105515Y-72756635D01*
X193998365Y-72649485D01*
X193985489Y-72642051D01*
X193937275Y-72591487D01*
X193924051Y-72522880D01*
X193950018Y-72458015D01*
X194000038Y-72420104D01*
X194074173Y-72389397D01*
X194074176Y-72389395D01*
X194074179Y-72389394D01*
X194205289Y-72301789D01*
X194316789Y-72190289D01*
X194404394Y-72059179D01*
X194464737Y-71913497D01*
X194495500Y-71758842D01*
X194495500Y-71601158D01*
X194495500Y-71601155D01*
X194495499Y-71601153D01*
X196124500Y-71601153D01*
X196124500Y-71758846D01*
X196155261Y-71913489D01*
X196155264Y-71913501D01*
X196215602Y-72059172D01*
X196215609Y-72059185D01*
X196303210Y-72190288D01*
X196303213Y-72190292D01*
X196414707Y-72301786D01*
X196414711Y-72301789D01*
X196545814Y-72389390D01*
X196545827Y-72389397D01*
X196691498Y-72449735D01*
X196691503Y-72449737D01*
X196846153Y-72480499D01*
X196846156Y-72480500D01*
X196846158Y-72480500D01*
X197803844Y-72480500D01*
X197803845Y-72480499D01*
X197958497Y-72449737D01*
X198104179Y-72389394D01*
X198235289Y-72301789D01*
X198346789Y-72190289D01*
X198434394Y-72059179D01*
X198494737Y-71913497D01*
X198525500Y-71758842D01*
X198525500Y-71601158D01*
X198525500Y-71601155D01*
X198525499Y-71601153D01*
X198522597Y-71586566D01*
X198494737Y-71446503D01*
X198471095Y-71389426D01*
X198434397Y-71300827D01*
X198434390Y-71300814D01*
X198346789Y-71169711D01*
X198346786Y-71169707D01*
X198235292Y-71058213D01*
X198235288Y-71058210D01*
X198104185Y-70970609D01*
X198104172Y-70970602D01*
X197958501Y-70910264D01*
X197958489Y-70910261D01*
X197803845Y-70879500D01*
X197803842Y-70879500D01*
X196846158Y-70879500D01*
X196846155Y-70879500D01*
X196691510Y-70910261D01*
X196691498Y-70910264D01*
X196545827Y-70970602D01*
X196545814Y-70970609D01*
X196414711Y-71058210D01*
X196414707Y-71058213D01*
X196303213Y-71169707D01*
X196303210Y-71169711D01*
X196215609Y-71300814D01*
X196215602Y-71300827D01*
X196155264Y-71446498D01*
X196155261Y-71446510D01*
X196124500Y-71601153D01*
X194495499Y-71601153D01*
X194492597Y-71586566D01*
X194464737Y-71446503D01*
X194441095Y-71389426D01*
X194404397Y-71300827D01*
X194404390Y-71300814D01*
X194316789Y-71169711D01*
X194316786Y-71169707D01*
X194205292Y-71058213D01*
X194205288Y-71058210D01*
X194074185Y-70970609D01*
X194074172Y-70970602D01*
X193928501Y-70910264D01*
X193928489Y-70910261D01*
X193773845Y-70879500D01*
X193773842Y-70879500D01*
X192516158Y-70879500D01*
X192516155Y-70879500D01*
X192361510Y-70910261D01*
X192361498Y-70910264D01*
X192215827Y-70970602D01*
X192215814Y-70970609D01*
X192084711Y-71058210D01*
X192084707Y-71058213D01*
X191973213Y-71169707D01*
X191973210Y-71169711D01*
X191885609Y-71300814D01*
X191885602Y-71300827D01*
X191825264Y-71446498D01*
X191825261Y-71446510D01*
X191794500Y-71601153D01*
X190624443Y-71601153D01*
X190624443Y-69026153D01*
X190644128Y-68959114D01*
X190660758Y-68938476D01*
X191007506Y-68591727D01*
X191007511Y-68591724D01*
X191017714Y-68581520D01*
X191017716Y-68581520D01*
X191129520Y-68469716D01*
X191207107Y-68335331D01*
X191208577Y-68332785D01*
X191249500Y-68180057D01*
X191249500Y-68021943D01*
X191249500Y-66838002D01*
X191249501Y-66837989D01*
X191249501Y-66669888D01*
X191249501Y-66669886D01*
X191208577Y-66517158D01*
X191156215Y-66426465D01*
X191129520Y-66380227D01*
X191017716Y-66268423D01*
X191017713Y-66268421D01*
X190790658Y-66041366D01*
X190757173Y-65980043D01*
X190762157Y-65910351D01*
X190775238Y-65884793D01*
X190776098Y-65883507D01*
X190826465Y-65808127D01*
X190875501Y-65689744D01*
X190885462Y-65639668D01*
X190900500Y-65564071D01*
X190900500Y-65435928D01*
X190876260Y-65314071D01*
X192524499Y-65314071D01*
X192549497Y-65439738D01*
X192549499Y-65439744D01*
X192598533Y-65558124D01*
X192598538Y-65558133D01*
X192669723Y-65664668D01*
X192669726Y-65664672D01*
X192760327Y-65755273D01*
X192760331Y-65755276D01*
X192866866Y-65826461D01*
X192866872Y-65826464D01*
X192866873Y-65826465D01*
X192985256Y-65875501D01*
X192985260Y-65875501D01*
X192985261Y-65875502D01*
X193110928Y-65900500D01*
X193110931Y-65900500D01*
X193239071Y-65900500D01*
X193339673Y-65880488D01*
X193364744Y-65875501D01*
X193483127Y-65826465D01*
X193589669Y-65755276D01*
X193680276Y-65664669D01*
X193751465Y-65558127D01*
X193800501Y-65439744D01*
X193820527Y-65339069D01*
X193825500Y-65314071D01*
X194174499Y-65314071D01*
X194199497Y-65439738D01*
X194199499Y-65439744D01*
X194248533Y-65558124D01*
X194248538Y-65558133D01*
X194319723Y-65664668D01*
X194319726Y-65664672D01*
X194410327Y-65755273D01*
X194410331Y-65755276D01*
X194516866Y-65826461D01*
X194516872Y-65826464D01*
X194516873Y-65826465D01*
X194635256Y-65875501D01*
X194635260Y-65875501D01*
X194635261Y-65875502D01*
X194760928Y-65900500D01*
X194760931Y-65900500D01*
X194889071Y-65900500D01*
X194989673Y-65880488D01*
X195014744Y-65875501D01*
X195133127Y-65826465D01*
X195239669Y-65755276D01*
X195330276Y-65664669D01*
X195401465Y-65558127D01*
X195450501Y-65439744D01*
X195470527Y-65339069D01*
X195475500Y-65314071D01*
X195475500Y-65185928D01*
X195450502Y-65060261D01*
X195450501Y-65060260D01*
X195450501Y-65060256D01*
X195401538Y-64942049D01*
X195401466Y-64941875D01*
X195401461Y-64941866D01*
X195330276Y-64835331D01*
X195330273Y-64835327D01*
X195239672Y-64744726D01*
X195239668Y-64744723D01*
X195133133Y-64673538D01*
X195133124Y-64673533D01*
X195014744Y-64624499D01*
X195014738Y-64624497D01*
X194889071Y-64599500D01*
X194889069Y-64599500D01*
X194760931Y-64599500D01*
X194760929Y-64599500D01*
X194635261Y-64624497D01*
X194635255Y-64624499D01*
X194516875Y-64673533D01*
X194516866Y-64673538D01*
X194410331Y-64744723D01*
X194410327Y-64744726D01*
X194319726Y-64835327D01*
X194319723Y-64835331D01*
X194248538Y-64941866D01*
X194248533Y-64941875D01*
X194199499Y-65060255D01*
X194199497Y-65060261D01*
X194174500Y-65185928D01*
X194174500Y-65185931D01*
X194174500Y-65314069D01*
X194174500Y-65314071D01*
X194174499Y-65314071D01*
X193825500Y-65314071D01*
X193825500Y-65185928D01*
X193800502Y-65060261D01*
X193800501Y-65060260D01*
X193800501Y-65060256D01*
X193751538Y-64942049D01*
X193751466Y-64941875D01*
X193751461Y-64941866D01*
X193680276Y-64835331D01*
X193680273Y-64835327D01*
X193589672Y-64744726D01*
X193589668Y-64744723D01*
X193483133Y-64673538D01*
X193483124Y-64673533D01*
X193364744Y-64624499D01*
X193364738Y-64624497D01*
X193239071Y-64599500D01*
X193239069Y-64599500D01*
X193110931Y-64599500D01*
X193110929Y-64599500D01*
X192985261Y-64624497D01*
X192985255Y-64624499D01*
X192866875Y-64673533D01*
X192866866Y-64673538D01*
X192760331Y-64744723D01*
X192760327Y-64744726D01*
X192669726Y-64835327D01*
X192669723Y-64835331D01*
X192598538Y-64941866D01*
X192598533Y-64941875D01*
X192549499Y-65060255D01*
X192549497Y-65060261D01*
X192524500Y-65185928D01*
X192524500Y-65185931D01*
X192524500Y-65314069D01*
X192524500Y-65314071D01*
X192524499Y-65314071D01*
X190876260Y-65314071D01*
X190875502Y-65310261D01*
X190875501Y-65310260D01*
X190875501Y-65310256D01*
X190834358Y-65210928D01*
X190826468Y-65191879D01*
X190826461Y-65191866D01*
X190755276Y-65085331D01*
X190755273Y-65085327D01*
X190664672Y-64994726D01*
X190664668Y-64994723D01*
X190558133Y-64923538D01*
X190558124Y-64923533D01*
X190439744Y-64874499D01*
X190439738Y-64874497D01*
X190314068Y-64849499D01*
X190313334Y-64849427D01*
X190312974Y-64849281D01*
X190308094Y-64848311D01*
X190308278Y-64847384D01*
X190248550Y-64823260D01*
X190208196Y-64766222D01*
X190201500Y-64726025D01*
X190201500Y-64226377D01*
X190201500Y-64226375D01*
X190160577Y-64073648D01*
X190155048Y-64064071D01*
X191099499Y-64064071D01*
X191124497Y-64189738D01*
X191124499Y-64189744D01*
X191173533Y-64308124D01*
X191173538Y-64308133D01*
X191244723Y-64414668D01*
X191244726Y-64414672D01*
X191335327Y-64505273D01*
X191335331Y-64505276D01*
X191441866Y-64576461D01*
X191441875Y-64576466D01*
X191464719Y-64585928D01*
X191560256Y-64625501D01*
X191560260Y-64625501D01*
X191560261Y-64625502D01*
X191685928Y-64650500D01*
X191685931Y-64650500D01*
X191814071Y-64650500D01*
X191923385Y-64628755D01*
X191939744Y-64625501D01*
X192058127Y-64576465D01*
X192164669Y-64505276D01*
X192255276Y-64414669D01*
X192326465Y-64308127D01*
X192375501Y-64189744D01*
X192390700Y-64113334D01*
X192400500Y-64064071D01*
X192400500Y-63935929D01*
X192398838Y-63927577D01*
X192875975Y-63927577D01*
X192981236Y-63971178D01*
X192981240Y-63971179D01*
X193126126Y-63999999D01*
X193126129Y-64000000D01*
X193273871Y-64000000D01*
X193273873Y-63999999D01*
X193418760Y-63971179D01*
X193418775Y-63971175D01*
X193524024Y-63927578D01*
X193524024Y-63927577D01*
X193975975Y-63927577D01*
X194081236Y-63971178D01*
X194081240Y-63971179D01*
X194226126Y-63999999D01*
X194226129Y-64000000D01*
X194373871Y-64000000D01*
X194373873Y-63999999D01*
X194518760Y-63971179D01*
X194518775Y-63971175D01*
X194624024Y-63927578D01*
X194624024Y-63927577D01*
X194300001Y-63603554D01*
X194300000Y-63603554D01*
X193975975Y-63927577D01*
X193524024Y-63927577D01*
X193200001Y-63603554D01*
X193200000Y-63603554D01*
X192875975Y-63927577D01*
X192398838Y-63927577D01*
X192375501Y-63810256D01*
X192341876Y-63729078D01*
X192339990Y-63722625D01*
X192340025Y-63694144D01*
X192336981Y-63665824D01*
X192340069Y-63659654D01*
X192340071Y-63657799D01*
X192334934Y-63657616D01*
X192277542Y-63617767D01*
X192270992Y-63608852D01*
X192265411Y-63600500D01*
X192255276Y-63585331D01*
X192255274Y-63585328D01*
X192164672Y-63494726D01*
X192164668Y-63494723D01*
X192058133Y-63423538D01*
X192058124Y-63423533D01*
X191939744Y-63374499D01*
X191939738Y-63374497D01*
X191814071Y-63349500D01*
X191814069Y-63349500D01*
X191685931Y-63349500D01*
X191685929Y-63349500D01*
X191560261Y-63374497D01*
X191560255Y-63374499D01*
X191441875Y-63423533D01*
X191441866Y-63423538D01*
X191335331Y-63494723D01*
X191335327Y-63494726D01*
X191244726Y-63585327D01*
X191244723Y-63585331D01*
X191173538Y-63691866D01*
X191173533Y-63691875D01*
X191124499Y-63810255D01*
X191124497Y-63810261D01*
X191099500Y-63935928D01*
X191099500Y-63935929D01*
X191099500Y-63935931D01*
X191099500Y-64064069D01*
X191099500Y-64064071D01*
X191099499Y-64064071D01*
X190155048Y-64064071D01*
X190081520Y-63936716D01*
X189976331Y-63831527D01*
X189972853Y-63827383D01*
X189960924Y-63800136D01*
X189946667Y-63774024D01*
X189946235Y-63771952D01*
X189930876Y-63694737D01*
X189905963Y-63634592D01*
X189874305Y-63558161D01*
X189874298Y-63558148D01*
X189792169Y-63435234D01*
X189792166Y-63435230D01*
X189687637Y-63330701D01*
X189687633Y-63330698D01*
X189564719Y-63248569D01*
X189564706Y-63248562D01*
X189428135Y-63191993D01*
X189428125Y-63191990D01*
X189348372Y-63176126D01*
X192450000Y-63176126D01*
X192450000Y-63323873D01*
X192478820Y-63468759D01*
X192478822Y-63468766D01*
X192488657Y-63492511D01*
X192496124Y-63561980D01*
X192493022Y-63568176D01*
X192522421Y-63574024D01*
X192846446Y-63250000D01*
X192846446Y-63249999D01*
X192826556Y-63230109D01*
X193100000Y-63230109D01*
X193100000Y-63269891D01*
X193115224Y-63306645D01*
X193143355Y-63334776D01*
X193180109Y-63350000D01*
X193219891Y-63350000D01*
X193256645Y-63334776D01*
X193284776Y-63306645D01*
X193300000Y-63269891D01*
X193300000Y-63250000D01*
X193553554Y-63250000D01*
X193750000Y-63446446D01*
X193946446Y-63250000D01*
X193926555Y-63230109D01*
X194200000Y-63230109D01*
X194200000Y-63269891D01*
X194215224Y-63306645D01*
X194243355Y-63334776D01*
X194280109Y-63350000D01*
X194319891Y-63350000D01*
X194356645Y-63334776D01*
X194384776Y-63306645D01*
X194400000Y-63269891D01*
X194400000Y-63249999D01*
X194653554Y-63249999D01*
X194653554Y-63250001D01*
X194977577Y-63574024D01*
X194977578Y-63574024D01*
X195021175Y-63468775D01*
X195021179Y-63468760D01*
X195049999Y-63323873D01*
X195050000Y-63323871D01*
X195050000Y-63176128D01*
X195049999Y-63176126D01*
X195021179Y-63031240D01*
X195021178Y-63031236D01*
X194977577Y-62925975D01*
X194653554Y-63249999D01*
X194400000Y-63249999D01*
X194400000Y-63230109D01*
X194384776Y-63193355D01*
X194356645Y-63165224D01*
X194319891Y-63150000D01*
X194280109Y-63150000D01*
X194243355Y-63165224D01*
X194215224Y-63193355D01*
X194200000Y-63230109D01*
X193926555Y-63230109D01*
X193750000Y-63053554D01*
X193553554Y-63250000D01*
X193300000Y-63250000D01*
X193300000Y-63230109D01*
X193284776Y-63193355D01*
X193256645Y-63165224D01*
X193219891Y-63150000D01*
X193180109Y-63150000D01*
X193143355Y-63165224D01*
X193115224Y-63193355D01*
X193100000Y-63230109D01*
X192826556Y-63230109D01*
X192522421Y-62925974D01*
X192522420Y-62925974D01*
X192478823Y-63031228D01*
X192478820Y-63031240D01*
X192450000Y-63176126D01*
X189348372Y-63176126D01*
X189283138Y-63163150D01*
X189283136Y-63163150D01*
X189135300Y-63163150D01*
X189135298Y-63163150D01*
X188990310Y-63191990D01*
X188990304Y-63191992D01*
X188853726Y-63248564D01*
X188853716Y-63248570D01*
X188851509Y-63250045D01*
X188850177Y-63250461D01*
X188848349Y-63251439D01*
X188848163Y-63251092D01*
X188784830Y-63270918D01*
X188717451Y-63252429D01*
X188694942Y-63234617D01*
X188677897Y-63217571D01*
X188677894Y-63217569D01*
X188554980Y-63135440D01*
X188554967Y-63135433D01*
X188418396Y-63078864D01*
X188418386Y-63078861D01*
X188273399Y-63050021D01*
X188273397Y-63050021D01*
X188125561Y-63050021D01*
X188125559Y-63050021D01*
X187980571Y-63078861D01*
X187980561Y-63078864D01*
X187843990Y-63135433D01*
X187843977Y-63135440D01*
X187721063Y-63217569D01*
X187721059Y-63217572D01*
X187616530Y-63322101D01*
X187616527Y-63322105D01*
X187534398Y-63445019D01*
X187534391Y-63445032D01*
X187477822Y-63581603D01*
X187477819Y-63581613D01*
X187448979Y-63726600D01*
X187448979Y-63726603D01*
X187448979Y-63874439D01*
X187448979Y-63874441D01*
X187448978Y-63874441D01*
X185850500Y-63874441D01*
X185850500Y-62736772D01*
X185854445Y-62721730D01*
X185853693Y-62708812D01*
X185864213Y-62684491D01*
X185866464Y-62675910D01*
X185868774Y-62671807D01*
X185913084Y-62605495D01*
X185926784Y-62572420D01*
X192875974Y-62572420D01*
X192875974Y-62572421D01*
X193200000Y-62896446D01*
X193200001Y-62896446D01*
X193524024Y-62572421D01*
X193524022Y-62572420D01*
X193975974Y-62572420D01*
X193975974Y-62572421D01*
X194300000Y-62896446D01*
X194300001Y-62896446D01*
X194624024Y-62572421D01*
X194518767Y-62528822D01*
X194518759Y-62528820D01*
X194373872Y-62500000D01*
X194226128Y-62500000D01*
X194081240Y-62528820D01*
X194081228Y-62528823D01*
X193975974Y-62572420D01*
X193524022Y-62572420D01*
X193418767Y-62528822D01*
X193418759Y-62528820D01*
X193273872Y-62500000D01*
X193126128Y-62500000D01*
X192981240Y-62528820D01*
X192981228Y-62528823D01*
X192875974Y-62572420D01*
X185926784Y-62572420D01*
X185969658Y-62468913D01*
X185981114Y-62411321D01*
X185998500Y-62323920D01*
X185998500Y-62176079D01*
X185969659Y-62031092D01*
X185969658Y-62031091D01*
X185969658Y-62031087D01*
X185958966Y-62005273D01*
X185913087Y-61894511D01*
X185913080Y-61894498D01*
X185830951Y-61771584D01*
X185830948Y-61771580D01*
X185726419Y-61667051D01*
X185726415Y-61667048D01*
X185603501Y-61584919D01*
X185603488Y-61584912D01*
X185466917Y-61528343D01*
X185466907Y-61528340D01*
X185321920Y-61499500D01*
X185321918Y-61499500D01*
X185174082Y-61499500D01*
X185174080Y-61499500D01*
X185029092Y-61528340D01*
X185029082Y-61528343D01*
X184892511Y-61584912D01*
X184892498Y-61584919D01*
X184769584Y-61667048D01*
X184769580Y-61667051D01*
X184665051Y-61771580D01*
X184665048Y-61771584D01*
X184582919Y-61894498D01*
X184582912Y-61894511D01*
X184526343Y-62031082D01*
X184526340Y-62031092D01*
X184497500Y-62176079D01*
X184497500Y-62176082D01*
X184497500Y-62323918D01*
X184497500Y-62323920D01*
X184497499Y-62323920D01*
X184526340Y-62468907D01*
X184526343Y-62468917D01*
X184582912Y-62605488D01*
X184582919Y-62605500D01*
X184628602Y-62673869D01*
X184649480Y-62740546D01*
X184649500Y-62742760D01*
X184649500Y-63875500D01*
X184629815Y-63942539D01*
X184577011Y-63988294D01*
X184525500Y-63999500D01*
X184437402Y-63999500D01*
X184311734Y-64024497D01*
X184311728Y-64024499D01*
X184193348Y-64073533D01*
X184193339Y-64073538D01*
X184086804Y-64144723D01*
X184086800Y-64144726D01*
X183996199Y-64235327D01*
X183996196Y-64235331D01*
X183925011Y-64341866D01*
X183925006Y-64341875D01*
X183875972Y-64460255D01*
X183875970Y-64460261D01*
X183850973Y-64585928D01*
X183850973Y-64585931D01*
X183850973Y-64714069D01*
X183850973Y-64714071D01*
X183850972Y-64714071D01*
X183875970Y-64839738D01*
X183875972Y-64839744D01*
X183925006Y-64958124D01*
X183925011Y-64958133D01*
X183996196Y-65064668D01*
X183996199Y-65064672D01*
X184086800Y-65155273D01*
X184086804Y-65155276D01*
X184193339Y-65226461D01*
X184193348Y-65226466D01*
X184205859Y-65231648D01*
X184311729Y-65275501D01*
X184311733Y-65275501D01*
X184311734Y-65275502D01*
X184437401Y-65300500D01*
X184525500Y-65300500D01*
X184592539Y-65320185D01*
X184638294Y-65372989D01*
X184649500Y-65424500D01*
X184649500Y-67765448D01*
X184629815Y-67832487D01*
X184577011Y-67878242D01*
X184507853Y-67888186D01*
X184478050Y-67880010D01*
X184464748Y-67874500D01*
X184464738Y-67874497D01*
X184339071Y-67849500D01*
X184339069Y-67849500D01*
X184210931Y-67849500D01*
X184210929Y-67849500D01*
X184085261Y-67874497D01*
X184085255Y-67874499D01*
X183966875Y-67923533D01*
X183966866Y-67923538D01*
X183860331Y-67994723D01*
X183860327Y-67994726D01*
X183769726Y-68085327D01*
X183769723Y-68085331D01*
X183698538Y-68191866D01*
X183698533Y-68191875D01*
X183649499Y-68310255D01*
X183649497Y-68310261D01*
X183624500Y-68435928D01*
X183624500Y-68435931D01*
X183624500Y-68564069D01*
X183624500Y-68564071D01*
X183624499Y-68564071D01*
X181550500Y-68564071D01*
X181550500Y-68426079D01*
X181521659Y-68281092D01*
X181521658Y-68281091D01*
X181521658Y-68281087D01*
X181465084Y-68144505D01*
X181421396Y-68079121D01*
X181400520Y-68012444D01*
X181400500Y-68010232D01*
X181400500Y-67200039D01*
X181420185Y-67133000D01*
X181436815Y-67112362D01*
X182007506Y-66541670D01*
X182007511Y-66541667D01*
X182017714Y-66531463D01*
X182017716Y-66531463D01*
X182129520Y-66419659D01*
X182190482Y-66314069D01*
X182208577Y-66282728D01*
X182249500Y-66130001D01*
X182249500Y-65971886D01*
X182249500Y-65415107D01*
X182269185Y-65348068D01*
X182321989Y-65302313D01*
X182349307Y-65293490D01*
X182439744Y-65275501D01*
X182558127Y-65226465D01*
X182664669Y-65155276D01*
X182755276Y-65064669D01*
X182826465Y-64958127D01*
X182875501Y-64839744D01*
X182889429Y-64769724D01*
X182900500Y-64714071D01*
X182900500Y-64585928D01*
X182875502Y-64460261D01*
X182875501Y-64460260D01*
X182875501Y-64460256D01*
X182826465Y-64341873D01*
X182756263Y-64236809D01*
X182735386Y-64170133D01*
X182753870Y-64102753D01*
X182805849Y-64056062D01*
X182835174Y-64046302D01*
X182882676Y-64036852D01*
X182939744Y-64025501D01*
X183058127Y-63976465D01*
X183164669Y-63905276D01*
X183255276Y-63814669D01*
X183326465Y-63708127D01*
X183375501Y-63589744D01*
X183384602Y-63543991D01*
X183385779Y-63538075D01*
X183418164Y-63476164D01*
X183478879Y-63441590D01*
X183497303Y-63439442D01*
X183497246Y-63438863D01*
X183503308Y-63438266D01*
X183587852Y-63421448D01*
X183628981Y-63413267D01*
X183747364Y-63364231D01*
X183853906Y-63293042D01*
X183944513Y-63202435D01*
X184015702Y-63095893D01*
X184064738Y-62977510D01*
X184077223Y-62914744D01*
X184089737Y-62851837D01*
X184089737Y-62723694D01*
X184064739Y-62598027D01*
X184064738Y-62598026D01*
X184064738Y-62598022D01*
X184015702Y-62479639D01*
X184015701Y-62479638D01*
X184015698Y-62479632D01*
X183944513Y-62373097D01*
X183944510Y-62373093D01*
X183871309Y-62299892D01*
X183837824Y-62238569D01*
X183842808Y-62168877D01*
X183844429Y-62164758D01*
X183850335Y-62150500D01*
X183875501Y-62089744D01*
X183891748Y-62008068D01*
X183900500Y-61964071D01*
X183900500Y-61835928D01*
X183875502Y-61710261D01*
X183875501Y-61710260D01*
X183875501Y-61710256D01*
X183826465Y-61591873D01*
X183826464Y-61591872D01*
X183826461Y-61591866D01*
X183755276Y-61485331D01*
X183755273Y-61485327D01*
X183664672Y-61394726D01*
X183664668Y-61394723D01*
X183558133Y-61323538D01*
X183558124Y-61323533D01*
X183439744Y-61274499D01*
X183439738Y-61274497D01*
X183314071Y-61249500D01*
X183314069Y-61249500D01*
X183185931Y-61249500D01*
X183185929Y-61249500D01*
X183060261Y-61274497D01*
X183060255Y-61274499D01*
X182941875Y-61323533D01*
X182941866Y-61323538D01*
X182835331Y-61394723D01*
X182835327Y-61394726D01*
X182744726Y-61485327D01*
X182744723Y-61485331D01*
X182673538Y-61591866D01*
X182673533Y-61591875D01*
X182624499Y-61710255D01*
X182624497Y-61710261D01*
X182599500Y-61835928D01*
X182599500Y-61835931D01*
X182599500Y-61964069D01*
X182599500Y-61964071D01*
X182599499Y-61964071D01*
X182624497Y-62089738D01*
X182624499Y-62089744D01*
X182673533Y-62208124D01*
X182673538Y-62208133D01*
X182744723Y-62314668D01*
X182744726Y-62314672D01*
X182817928Y-62387874D01*
X182825165Y-62401129D01*
X182836313Y-62411321D01*
X182841571Y-62431173D01*
X182851413Y-62449197D01*
X182850620Y-62465337D01*
X182854203Y-62478861D01*
X182848684Y-62504791D01*
X182848250Y-62513649D01*
X182846714Y-62518403D01*
X182813736Y-62598022D01*
X182802054Y-62656745D01*
X182799844Y-62663594D01*
X182784065Y-62686763D01*
X182771073Y-62711602D01*
X182764666Y-62715250D01*
X182760516Y-62721345D01*
X182734713Y-62732306D01*
X182710358Y-62746176D01*
X182698933Y-62747507D01*
X182696209Y-62748665D01*
X182693289Y-62748165D01*
X182691933Y-62748323D01*
X182691991Y-62748903D01*
X182685928Y-62749499D01*
X182560261Y-62774497D01*
X182560255Y-62774499D01*
X182441875Y-62823533D01*
X182436498Y-62826408D01*
X182435868Y-62825230D01*
X182375709Y-62844066D01*
X182308330Y-62825579D01*
X182261641Y-62773599D01*
X182249500Y-62720086D01*
X182249500Y-61192272D01*
X182269185Y-61125233D01*
X182285814Y-61104596D01*
X183627619Y-59762790D01*
X183688940Y-59729307D01*
X183758632Y-59734291D01*
X183814565Y-59776163D01*
X183836915Y-59826281D01*
X183855340Y-59918907D01*
X183855343Y-59918917D01*
X183911912Y-60055488D01*
X183911919Y-60055501D01*
X183994048Y-60178415D01*
X183994051Y-60178419D01*
X184098580Y-60282948D01*
X184098584Y-60282951D01*
X184221498Y-60365080D01*
X184221511Y-60365087D01*
X184358082Y-60421656D01*
X184358087Y-60421658D01*
X184358091Y-60421658D01*
X184358092Y-60421659D01*
X184503079Y-60450500D01*
X184503082Y-60450500D01*
X184650920Y-60450500D01*
X184780112Y-60424801D01*
X184795913Y-60421658D01*
X184932495Y-60365084D01*
X185055416Y-60282951D01*
X185159951Y-60178416D01*
X185242084Y-60055495D01*
X185298658Y-59918913D01*
X185313999Y-59841786D01*
X185346381Y-59779879D01*
X185347873Y-59778360D01*
X186239417Y-58886819D01*
X186300740Y-58853334D01*
X186327098Y-58850500D01*
X192760233Y-58850500D01*
X192827272Y-58870185D01*
X192829124Y-58871398D01*
X192894498Y-58915080D01*
X192894511Y-58915087D01*
X193031082Y-58971656D01*
X193031087Y-58971658D01*
X193031091Y-58971658D01*
X193031092Y-58971659D01*
X193176079Y-59000500D01*
X193176082Y-59000500D01*
X193323920Y-59000500D01*
X193431500Y-58979100D01*
X193468913Y-58971658D01*
X193605495Y-58915084D01*
X193728416Y-58832951D01*
X193832951Y-58728416D01*
X193915084Y-58605495D01*
X193971658Y-58468913D01*
X193993106Y-58361090D01*
X194000500Y-58323920D01*
X194000500Y-58176079D01*
X193995251Y-58149692D01*
X194001478Y-58080100D01*
X194044341Y-58024923D01*
X194110230Y-58001678D01*
X194116868Y-58001500D01*
X195907858Y-58001500D01*
X195907874Y-58001501D01*
X195915470Y-58001501D01*
X196073581Y-58001501D01*
X196073584Y-58001501D01*
X196226312Y-57960577D01*
X196313650Y-57910152D01*
X196363243Y-57881520D01*
X196368251Y-57876511D01*
X196380663Y-57868878D01*
X196400880Y-57863373D01*
X196419267Y-57853334D01*
X196445625Y-57850500D01*
X196699903Y-57850500D01*
X196766942Y-57870185D01*
X196787584Y-57886819D01*
X197156572Y-58255807D01*
X197190057Y-58317130D01*
X197185073Y-58386822D01*
X197143201Y-58442755D01*
X197137782Y-58446590D01*
X197087861Y-58479946D01*
X197087857Y-58479949D01*
X196983328Y-58584478D01*
X196983325Y-58584482D01*
X196901196Y-58707396D01*
X196901189Y-58707409D01*
X196844619Y-58843982D01*
X196844617Y-58843990D01*
X196829277Y-58921108D01*
X196796892Y-58983019D01*
X196795341Y-58984597D01*
X196416759Y-59363181D01*
X196355436Y-59396666D01*
X196329078Y-59399500D01*
X194940901Y-59399500D01*
X194940885Y-59399499D01*
X194933289Y-59399499D01*
X194775175Y-59399499D01*
X194622447Y-59440423D01*
X194622445Y-59440424D01*
X194614597Y-59442527D01*
X194614268Y-59441302D01*
X194552972Y-59447887D01*
X194527558Y-59440425D01*
X194527557Y-59440424D01*
X194515031Y-59437067D01*
X194374825Y-59399499D01*
X194216711Y-59399499D01*
X194209115Y-59399499D01*
X194209099Y-59399500D01*
X189090940Y-59399500D01*
X189050019Y-59410464D01*
X189050019Y-59410465D01*
X189012751Y-59420451D01*
X188938214Y-59440423D01*
X188938209Y-59440426D01*
X188801290Y-59519475D01*
X188801282Y-59519481D01*
X188689478Y-59631286D01*
X188321699Y-59999064D01*
X188260376Y-60032549D01*
X188258210Y-60033000D01*
X188181092Y-60048340D01*
X188181084Y-60048342D01*
X188044511Y-60104912D01*
X188044498Y-60104919D01*
X187921584Y-60187048D01*
X187921580Y-60187051D01*
X187817051Y-60291580D01*
X187817048Y-60291584D01*
X187734919Y-60414498D01*
X187734912Y-60414511D01*
X187678343Y-60551082D01*
X187678340Y-60551092D01*
X187649500Y-60696079D01*
X187649500Y-60696082D01*
X187649500Y-60843918D01*
X187649500Y-60843920D01*
X187649499Y-60843920D01*
X187678340Y-60988907D01*
X187678343Y-60988917D01*
X187734912Y-61125488D01*
X187734919Y-61125500D01*
X187817048Y-61248415D01*
X187817051Y-61248419D01*
X187921580Y-61352948D01*
X187921584Y-61352951D01*
X188044498Y-61435080D01*
X188044511Y-61435087D01*
X188165812Y-61485331D01*
X188181087Y-61491658D01*
X188181091Y-61491658D01*
X188181092Y-61491659D01*
X188326079Y-61520500D01*
X188326082Y-61520500D01*
X188473920Y-61520500D01*
X188571462Y-61501096D01*
X188618913Y-61491658D01*
X188753450Y-61435931D01*
X188755488Y-61435087D01*
X188755488Y-61435086D01*
X188755495Y-61435084D01*
X188878416Y-61352951D01*
X188982951Y-61248416D01*
X189047494Y-61151821D01*
X189065081Y-61125500D01*
X189065082Y-61125497D01*
X189065084Y-61125495D01*
X189121658Y-60988913D01*
X189136999Y-60911786D01*
X189169381Y-60849879D01*
X189170817Y-60848416D01*
X189382417Y-60636816D01*
X189443739Y-60603334D01*
X189470097Y-60600500D01*
X191121232Y-60600500D01*
X191188271Y-60620185D01*
X191234026Y-60672989D01*
X191243970Y-60742147D01*
X191224334Y-60793391D01*
X191215118Y-60807183D01*
X191215111Y-60807195D01*
X191162311Y-60934667D01*
X191162308Y-60934677D01*
X191135390Y-61070004D01*
X191135390Y-61070007D01*
X191135390Y-61207993D01*
X191135390Y-61207995D01*
X191135389Y-61207995D01*
X191162308Y-61343322D01*
X191162311Y-61343332D01*
X191215111Y-61470804D01*
X191215118Y-61470817D01*
X191291775Y-61585541D01*
X191291778Y-61585545D01*
X191389344Y-61683111D01*
X191389348Y-61683114D01*
X191504072Y-61759771D01*
X191504085Y-61759778D01*
X191631557Y-61812578D01*
X191631562Y-61812580D01*
X191631566Y-61812580D01*
X191631567Y-61812581D01*
X191766894Y-61839500D01*
X191766897Y-61839500D01*
X191904885Y-61839500D01*
X191995931Y-61821389D01*
X192040218Y-61812580D01*
X192167701Y-61759775D01*
X192282432Y-61683114D01*
X192380004Y-61585542D01*
X192456665Y-61470811D01*
X192509470Y-61343328D01*
X192523161Y-61274499D01*
X192536390Y-61207995D01*
X192536390Y-61070004D01*
X192509471Y-60934677D01*
X192509470Y-60934676D01*
X192509470Y-60934672D01*
X192504856Y-60923533D01*
X192456668Y-60807195D01*
X192456666Y-60807191D01*
X192456665Y-60807189D01*
X192454480Y-60803919D01*
X192447446Y-60793391D01*
X192426568Y-60726714D01*
X192445052Y-60659334D01*
X192497031Y-60612643D01*
X192550548Y-60600500D01*
X194065990Y-60600500D01*
X194107079Y-60608672D01*
X194107133Y-60608473D01*
X194110181Y-60609289D01*
X194113440Y-60609938D01*
X194114978Y-60610575D01*
X194114980Y-60610575D01*
X194114983Y-60610577D01*
X194267711Y-60651501D01*
X194267714Y-60651501D01*
X194433421Y-60651501D01*
X194433437Y-60651500D01*
X194716563Y-60651500D01*
X194716579Y-60651501D01*
X194724175Y-60651501D01*
X194882286Y-60651501D01*
X194882289Y-60651501D01*
X195035017Y-60610577D01*
X195035020Y-60610575D01*
X195035021Y-60610575D01*
X195036560Y-60609938D01*
X195039818Y-60609289D01*
X195042867Y-60608473D01*
X195042920Y-60608672D01*
X195084010Y-60600500D01*
X195525804Y-60600500D01*
X195592843Y-60620185D01*
X195638598Y-60672989D01*
X195648542Y-60742147D01*
X195640365Y-60771950D01*
X195633359Y-60788864D01*
X195624499Y-60810255D01*
X195624497Y-60810261D01*
X195599500Y-60935928D01*
X195599500Y-60935931D01*
X195599500Y-61064069D01*
X195599500Y-61064071D01*
X195599499Y-61064071D01*
X195624497Y-61189738D01*
X195624499Y-61189744D01*
X195673533Y-61308124D01*
X195673538Y-61308133D01*
X195744723Y-61414668D01*
X195744726Y-61414672D01*
X195835327Y-61505273D01*
X195835331Y-61505276D01*
X195941866Y-61576461D01*
X195941875Y-61576466D01*
X195962266Y-61584912D01*
X196060256Y-61625501D01*
X196060260Y-61625501D01*
X196060261Y-61625502D01*
X196185928Y-61650500D01*
X196185931Y-61650500D01*
X196314071Y-61650500D01*
X196364611Y-61640446D01*
X196439744Y-61625501D01*
X196441539Y-61624757D01*
X196442554Y-61624648D01*
X196445571Y-61623733D01*
X196445744Y-61624304D01*
X196511003Y-61617282D01*
X196573486Y-61648550D01*
X196609145Y-61708634D01*
X196613000Y-61739314D01*
X196613000Y-61809057D01*
X196641300Y-61914672D01*
X196653923Y-61961783D01*
X196653926Y-61961790D01*
X196732975Y-62098709D01*
X196732979Y-62098714D01*
X196732980Y-62098716D01*
X196844784Y-62210520D01*
X196844785Y-62210521D01*
X196844787Y-62210522D01*
X196926351Y-62257613D01*
X196974567Y-62308180D01*
X196987790Y-62376787D01*
X196961822Y-62441652D01*
X196926351Y-62472387D01*
X196844787Y-62519477D01*
X196844782Y-62519481D01*
X196732981Y-62631282D01*
X196732975Y-62631290D01*
X196653926Y-62768209D01*
X196653923Y-62768216D01*
X196613000Y-62920943D01*
X196613000Y-63079057D01*
X196650115Y-63217570D01*
X196653923Y-63231783D01*
X196653926Y-63231790D01*
X196732975Y-63368709D01*
X196732979Y-63368714D01*
X196732980Y-63368716D01*
X196844784Y-63480520D01*
X196844785Y-63480521D01*
X196844787Y-63480522D01*
X196926351Y-63527613D01*
X196974567Y-63578180D01*
X196987790Y-63646787D01*
X196961822Y-63711652D01*
X196926351Y-63742387D01*
X196844787Y-63789477D01*
X196844782Y-63789481D01*
X196732981Y-63901282D01*
X196732975Y-63901290D01*
X196653926Y-64038209D01*
X196653923Y-64038216D01*
X196613000Y-64190943D01*
X196613000Y-64349057D01*
X196642796Y-64460255D01*
X196653923Y-64501783D01*
X196653926Y-64501790D01*
X196732975Y-64638709D01*
X196732979Y-64638714D01*
X196732980Y-64638716D01*
X196844784Y-64750520D01*
X196844785Y-64750521D01*
X196844787Y-64750522D01*
X196926351Y-64797613D01*
X196974567Y-64848180D01*
X196987790Y-64916787D01*
X196961822Y-64981652D01*
X196926351Y-65012387D01*
X196844787Y-65059477D01*
X196844782Y-65059481D01*
X196732981Y-65171282D01*
X196732975Y-65171290D01*
X196653926Y-65308209D01*
X196653923Y-65308216D01*
X196613000Y-65460943D01*
X196613000Y-65619057D01*
X196646673Y-65744724D01*
X196653923Y-65771783D01*
X196653926Y-65771790D01*
X196732975Y-65908709D01*
X196732979Y-65908714D01*
X196732980Y-65908716D01*
X196844784Y-66020520D01*
X196844785Y-66020521D01*
X196844787Y-66020522D01*
X196847028Y-66021816D01*
X196848540Y-66023402D01*
X196851235Y-66025470D01*
X196850912Y-66025890D01*
X196895242Y-66072384D01*
X196908464Y-66140991D01*
X196882495Y-66205855D01*
X196853919Y-66232302D01*
X196835336Y-66244719D01*
X196835327Y-66244726D01*
X196744726Y-66335327D01*
X196744723Y-66335331D01*
X196673538Y-66441866D01*
X196673533Y-66441875D01*
X196624499Y-66560255D01*
X196624497Y-66560261D01*
X196599500Y-66685928D01*
X196599500Y-66685931D01*
X196599500Y-66814069D01*
X196599500Y-66814071D01*
X196599499Y-66814071D01*
X196624497Y-66939738D01*
X196624499Y-66939744D01*
X196673533Y-67058124D01*
X196673538Y-67058133D01*
X196744723Y-67164668D01*
X196744726Y-67164672D01*
X196835327Y-67255273D01*
X196835331Y-67255276D01*
X196941866Y-67326461D01*
X196941872Y-67326464D01*
X196941873Y-67326465D01*
X197060256Y-67375501D01*
X197060260Y-67375501D01*
X197060261Y-67375502D01*
X197185928Y-67400500D01*
X197185931Y-67400500D01*
X197314071Y-67400500D01*
X197398615Y-67383682D01*
X197439744Y-67375501D01*
X197558127Y-67326465D01*
X197664669Y-67255276D01*
X197755276Y-67164669D01*
X197826465Y-67058127D01*
X197875501Y-66939744D01*
X197888280Y-66875500D01*
X197900500Y-66814071D01*
X197900500Y-66685928D01*
X197875502Y-66560261D01*
X197875501Y-66560260D01*
X197875501Y-66560256D01*
X197826465Y-66441873D01*
X197826464Y-66441872D01*
X197826461Y-66441866D01*
X197755276Y-66335331D01*
X197755273Y-66335327D01*
X197664672Y-66244726D01*
X197664668Y-66244723D01*
X197606471Y-66205837D01*
X197561666Y-66152225D01*
X197552959Y-66082900D01*
X197583113Y-66019873D01*
X197587644Y-66015091D01*
X197694020Y-65908716D01*
X197773077Y-65771784D01*
X197814000Y-65619057D01*
X197814000Y-65460943D01*
X197773077Y-65308216D01*
X197751928Y-65271584D01*
X197694024Y-65171290D01*
X197694018Y-65171282D01*
X197582217Y-65059481D01*
X197582216Y-65059480D01*
X197500648Y-65012387D01*
X197452433Y-64961821D01*
X197439209Y-64893214D01*
X197465177Y-64828349D01*
X197500647Y-64797612D01*
X197582216Y-64750520D01*
X197694020Y-64638716D01*
X197773077Y-64501784D01*
X197814000Y-64349057D01*
X197814000Y-64190943D01*
X197773077Y-64038216D01*
X197765736Y-64025501D01*
X197694024Y-63901290D01*
X197694018Y-63901282D01*
X197582217Y-63789481D01*
X197582216Y-63789480D01*
X197500648Y-63742387D01*
X197452433Y-63691821D01*
X197439209Y-63623214D01*
X197465177Y-63558349D01*
X197500647Y-63527612D01*
X197582216Y-63480520D01*
X197694020Y-63368716D01*
X197773077Y-63231784D01*
X197814000Y-63079057D01*
X197814000Y-62920943D01*
X197773077Y-62768216D01*
X197767345Y-62758287D01*
X197694024Y-62631290D01*
X197694018Y-62631282D01*
X197582217Y-62519481D01*
X197582216Y-62519480D01*
X197500648Y-62472387D01*
X197452433Y-62421821D01*
X197439209Y-62353214D01*
X197465177Y-62288349D01*
X197500647Y-62257612D01*
X197582216Y-62210520D01*
X197694020Y-62098716D01*
X197773077Y-61961784D01*
X197814000Y-61809057D01*
X197814000Y-61650943D01*
X197773077Y-61498216D01*
X197737117Y-61435931D01*
X197694024Y-61361290D01*
X197694018Y-61361282D01*
X197582217Y-61249481D01*
X197582216Y-61249480D01*
X197500648Y-61202387D01*
X197452433Y-61151821D01*
X197439209Y-61083214D01*
X197465177Y-61018349D01*
X197500647Y-60987612D01*
X197582216Y-60940520D01*
X197694020Y-60828716D01*
X197773077Y-60691784D01*
X197814000Y-60539057D01*
X197814000Y-60380943D01*
X197773077Y-60228216D01*
X197749311Y-60187051D01*
X197694024Y-60091290D01*
X197694018Y-60091282D01*
X197628253Y-60025517D01*
X197623914Y-60017571D01*
X197616667Y-60012146D01*
X197607432Y-59987386D01*
X197594768Y-59964194D01*
X197595413Y-59955164D01*
X197592250Y-59946682D01*
X197597866Y-59920861D01*
X197599752Y-59894502D01*
X197605570Y-59885448D01*
X197607102Y-59878409D01*
X197628250Y-59850158D01*
X197644578Y-59833830D01*
X197705899Y-59800347D01*
X197707921Y-59799925D01*
X197785190Y-59784556D01*
X197921772Y-59727982D01*
X198044693Y-59645849D01*
X198149228Y-59541314D01*
X198231361Y-59418393D01*
X198287935Y-59281811D01*
X198316557Y-59137923D01*
X198316777Y-59136818D01*
X198316777Y-59133646D01*
X198317247Y-59132045D01*
X198317374Y-59130756D01*
X198317618Y-59130780D01*
X198336462Y-59066607D01*
X198389266Y-59020852D01*
X198393280Y-59019103D01*
X198440115Y-58999704D01*
X198563036Y-58917571D01*
X198667571Y-58813036D01*
X198749704Y-58690115D01*
X198806278Y-58553533D01*
X198823110Y-58468917D01*
X198835120Y-58408540D01*
X198835120Y-58260699D01*
X198806279Y-58115712D01*
X198806278Y-58115711D01*
X198806278Y-58115707D01*
X198803892Y-58109947D01*
X198749707Y-57979131D01*
X198749700Y-57979118D01*
X198682520Y-57878576D01*
X198661642Y-57811898D01*
X198680127Y-57744518D01*
X198697937Y-57722007D01*
X198755276Y-57664669D01*
X198826465Y-57558127D01*
X198875501Y-57439744D01*
X198900500Y-57314069D01*
X198900500Y-57185931D01*
X198900500Y-57185928D01*
X198875502Y-57060261D01*
X198875501Y-57060260D01*
X198875501Y-57060256D01*
X198827366Y-56944047D01*
X198826466Y-56941875D01*
X198826461Y-56941866D01*
X198755276Y-56835331D01*
X198755273Y-56835327D01*
X198664672Y-56744726D01*
X198664668Y-56744723D01*
X198558133Y-56673538D01*
X198558124Y-56673533D01*
X198439744Y-56624499D01*
X198439738Y-56624497D01*
X198314071Y-56599500D01*
X198314069Y-56599500D01*
X198185931Y-56599500D01*
X198185929Y-56599500D01*
X198060261Y-56624497D01*
X198060255Y-56624499D01*
X197941875Y-56673533D01*
X197941866Y-56673538D01*
X197835331Y-56744723D01*
X197835327Y-56744726D01*
X197744726Y-56835327D01*
X197744723Y-56835331D01*
X197704435Y-56895627D01*
X197688268Y-56909137D01*
X197675643Y-56926003D01*
X197661998Y-56931092D01*
X197650823Y-56940432D01*
X197629918Y-56943057D01*
X197610179Y-56950420D01*
X197595947Y-56947324D01*
X197581498Y-56949139D01*
X197562493Y-56940046D01*
X197541906Y-56935568D01*
X197522024Y-56920684D01*
X197518470Y-56918984D01*
X197513652Y-56914417D01*
X197487590Y-56888355D01*
X197487588Y-56888352D01*
X197368717Y-56769481D01*
X197368716Y-56769480D01*
X197281904Y-56719360D01*
X197231785Y-56690423D01*
X197095194Y-56653823D01*
X197090202Y-56652016D01*
X197066137Y-56634363D01*
X197040650Y-56618828D01*
X197038265Y-56613918D01*
X197033864Y-56610690D01*
X197023162Y-56582827D01*
X197010122Y-56555981D01*
X197010770Y-56550561D01*
X197008813Y-56545466D01*
X197014873Y-56516243D01*
X197018417Y-56486606D01*
X197022401Y-56479942D01*
X197023001Y-56477052D01*
X197025893Y-56474103D01*
X197035457Y-56458107D01*
X197042523Y-56449248D01*
X197191945Y-56211445D01*
X197313801Y-55958408D01*
X197406560Y-55693318D01*
X197469055Y-55419509D01*
X197469601Y-55414669D01*
X197500499Y-55140431D01*
X197500500Y-55140427D01*
X197500500Y-54859572D01*
X197500499Y-54859568D01*
X197469057Y-54580505D01*
X197469054Y-54580487D01*
X197406560Y-54306682D01*
X197406556Y-54306670D01*
X197375763Y-54218670D01*
X197313801Y-54041592D01*
X197191945Y-53788555D01*
X197042523Y-53550752D01*
X196867416Y-53331175D01*
X196668825Y-53132584D01*
X196449248Y-52957477D01*
X196211445Y-52808055D01*
X196211446Y-52808055D01*
X196211439Y-52808051D01*
X196208397Y-52806370D01*
X196208794Y-52805650D01*
X196159612Y-52761241D01*
X196141303Y-52693813D01*
X196162354Y-52627190D01*
X196216083Y-52582525D01*
X196241086Y-52574732D01*
X196365892Y-52549906D01*
X196502474Y-52493332D01*
X196625395Y-52411199D01*
X196680617Y-52355976D01*
X196741938Y-52322493D01*
X196811630Y-52327477D01*
G37*
G04 #@! TD.AperFunction*
G04 #@! TA.AperFunction,Conductor*
G36*
X152527302Y-95476364D02*
G01*
X152556735Y-95532505D01*
X152593440Y-95693320D01*
X152593443Y-95693329D01*
X152686200Y-95958411D01*
X152808053Y-96211442D01*
X152808055Y-96211445D01*
X152957477Y-96449248D01*
X153132584Y-96668825D01*
X153331175Y-96867416D01*
X153550752Y-97042523D01*
X153788555Y-97191945D01*
X153788557Y-97191946D01*
X153917959Y-97254263D01*
X153969818Y-97301085D01*
X153988131Y-97368512D01*
X153967083Y-97435136D01*
X153913357Y-97479805D01*
X153864157Y-97489983D01*
X153838315Y-97489983D01*
X153693327Y-97518823D01*
X153693317Y-97518826D01*
X153556746Y-97575395D01*
X153556733Y-97575402D01*
X153433819Y-97657531D01*
X153433815Y-97657534D01*
X153383356Y-97707994D01*
X153322033Y-97741479D01*
X153252341Y-97736495D01*
X153207994Y-97707994D01*
X151431508Y-95931508D01*
X151398023Y-95870185D01*
X151403007Y-95800493D01*
X151444879Y-95744560D01*
X151510343Y-95720143D01*
X151543378Y-95722209D01*
X151614061Y-95736269D01*
X151685597Y-95750500D01*
X151685599Y-95750500D01*
X151833437Y-95750500D01*
X151930979Y-95731096D01*
X151978430Y-95721658D01*
X152115012Y-95665084D01*
X152237933Y-95582951D01*
X152288379Y-95532505D01*
X152346776Y-95474109D01*
X152348393Y-95475726D01*
X152397670Y-95442120D01*
X152467514Y-95440210D01*
X152527302Y-95476364D01*
G37*
G04 #@! TD.AperFunction*
G04 #@! TA.AperFunction,Conductor*
G36*
X154242683Y-51359829D02*
G01*
X154298616Y-51401701D01*
X154323033Y-51467165D01*
X154313911Y-51523463D01*
X154278342Y-51609335D01*
X154278341Y-51609338D01*
X154278341Y-51609339D01*
X154278340Y-51609340D01*
X154249500Y-51754327D01*
X154249500Y-51754330D01*
X154249500Y-51902166D01*
X154249500Y-51902168D01*
X154249499Y-51902168D01*
X154278340Y-52047155D01*
X154278343Y-52047165D01*
X154334912Y-52183736D01*
X154334919Y-52183749D01*
X154417048Y-52306663D01*
X154417051Y-52306667D01*
X154471376Y-52360992D01*
X154504861Y-52422315D01*
X154499877Y-52492007D01*
X154458005Y-52547940D01*
X154411288Y-52569564D01*
X154306679Y-52593440D01*
X154306670Y-52593443D01*
X154041588Y-52686200D01*
X153788557Y-52808053D01*
X153550753Y-52957476D01*
X153331175Y-53132583D01*
X153132583Y-53331175D01*
X152957476Y-53550753D01*
X152808053Y-53788557D01*
X152740078Y-53929708D01*
X152693255Y-53981568D01*
X152625828Y-53999880D01*
X152559204Y-53978832D01*
X152514536Y-53925105D01*
X152506741Y-53900097D01*
X152481175Y-53771570D01*
X152481173Y-53771565D01*
X152424604Y-53634994D01*
X152424597Y-53634981D01*
X152342468Y-53512067D01*
X152342465Y-53512063D01*
X152252881Y-53422479D01*
X152219396Y-53361156D01*
X152224380Y-53291464D01*
X152252877Y-53247122D01*
X154111672Y-51388327D01*
X154172991Y-51354845D01*
X154242683Y-51359829D01*
G37*
G04 #@! TD.AperFunction*
M02*
