%TF.GenerationSoftware,KiCad,Pcbnew,9.0.2-9.0.2-0~ubuntu24.04.1*%
%TF.CreationDate,2025-06-08T21:46:48-05:00*%
%TF.ProjectId,FC,46432e6b-6963-4616-945f-706362585858,rev?*%
%TF.SameCoordinates,Original*%
%TF.FileFunction,Drillmap*%
%TF.FilePolarity,Positive*%
%FSLAX45Y45*%
G04 Gerber Fmt 4.5, Leading zero omitted, Abs format (unit mm)*
G04 Created by KiCad (PCBNEW 9.0.2-9.0.2-0~ubuntu24.04.1) date 2025-06-08 21:46:48*
%MOMM*%
%LPD*%
G01*
G04 APERTURE LIST*
%ADD10C,0.050000*%
%ADD11C,0.200000*%
%ADD12C,0.100000*%
G04 APERTURE END LIST*
D10*
X19500000Y-5000000D02*
G75*
G02*
X20000000Y-5500000I0J-500000D01*
G01*
X20000000Y-9500000D02*
X20000000Y-5500000D01*
X19700000Y-9500000D02*
G75*
G02*
X19300000Y-9500000I-200000J0D01*
G01*
X19300000Y-9500000D02*
G75*
G02*
X19700000Y-9500000I200000J0D01*
G01*
X15000000Y-5500000D02*
G75*
G02*
X15500000Y-5000000I500000J0D01*
G01*
X15500000Y-10000000D02*
G75*
G02*
X15000000Y-9500000I0J500000D01*
G01*
X15500000Y-10000000D02*
X19500000Y-10000000D01*
X15500000Y-5000000D02*
X19500000Y-5000000D01*
X15700000Y-5500000D02*
G75*
G02*
X15300000Y-5500000I-200000J0D01*
G01*
X15300000Y-5500000D02*
G75*
G02*
X15700000Y-5500000I200000J0D01*
G01*
X15700000Y-9500000D02*
G75*
G02*
X15300000Y-9500000I-200000J0D01*
G01*
X15300000Y-9500000D02*
G75*
G02*
X15700000Y-9500000I200000J0D01*
G01*
X20000000Y-9500000D02*
G75*
G02*
X19500000Y-10000000I-500000J0D01*
G01*
X19700000Y-5500000D02*
G75*
G02*
X19300000Y-5500000I-200000J0D01*
G01*
X19300000Y-5500000D02*
G75*
G02*
X19700000Y-5500000I200000J0D01*
G01*
X15000000Y-5500000D02*
X15000000Y-9500000D01*
D11*
D12*
X19310000Y-6315000D02*
X19330000Y-6335000D01*
X19330000Y-6315000D02*
X19310000Y-6335000D01*
X19420000Y-6315000D02*
X19440000Y-6335000D01*
X19440000Y-6315000D02*
X19420000Y-6335000D01*
X15190952Y-5399048D02*
G75*
G02*
X15160952Y-5399048I-15000J0D01*
G01*
X15160952Y-5399048D02*
G75*
G02*
X15190952Y-5399048I15000J0D01*
G01*
X15190952Y-9500000D02*
G75*
G02*
X15160952Y-9500000I-15000J0D01*
G01*
X15160952Y-9500000D02*
G75*
G02*
X15190952Y-9500000I15000J0D01*
G01*
X15191903Y-5263746D02*
G75*
G02*
X15161903Y-5263746I-15000J0D01*
G01*
X15161903Y-5263746D02*
G75*
G02*
X15191903Y-5263746I15000J0D01*
G01*
X15258127Y-9675952D02*
G75*
G02*
X15228127Y-9675952I-15000J0D01*
G01*
X15228127Y-9675952D02*
G75*
G02*
X15258127Y-9675952I15000J0D01*
G01*
X15265000Y-8022500D02*
G75*
G02*
X15235000Y-8022500I-15000J0D01*
G01*
X15235000Y-8022500D02*
G75*
G02*
X15265000Y-8022500I15000J0D01*
G01*
X15265000Y-8177500D02*
G75*
G02*
X15235000Y-8177500I-15000J0D01*
G01*
X15235000Y-8177500D02*
G75*
G02*
X15265000Y-8177500I15000J0D01*
G01*
X15271873Y-9824048D02*
G75*
G02*
X15241873Y-9824048I-15000J0D01*
G01*
X15241873Y-9824048D02*
G75*
G02*
X15271873Y-9824048I15000J0D01*
G01*
X15273600Y-6861970D02*
G75*
G02*
X15243600Y-6861970I-15000J0D01*
G01*
X15243600Y-6861970D02*
G75*
G02*
X15273600Y-6861970I15000J0D01*
G01*
X15288635Y-8975000D02*
G75*
G02*
X15258635Y-8975000I-15000J0D01*
G01*
X15258635Y-8975000D02*
G75*
G02*
X15288635Y-8975000I15000J0D01*
G01*
X15337500Y-8725000D02*
G75*
G02*
X15307500Y-8725000I-15000J0D01*
G01*
X15307500Y-8725000D02*
G75*
G02*
X15337500Y-8725000I15000J0D01*
G01*
X15340000Y-5250000D02*
G75*
G02*
X15310000Y-5250000I-15000J0D01*
G01*
X15310000Y-5250000D02*
G75*
G02*
X15340000Y-5250000I15000J0D01*
G01*
X15365000Y-8085000D02*
G75*
G02*
X15335000Y-8085000I-15000J0D01*
G01*
X15335000Y-8085000D02*
G75*
G02*
X15365000Y-8085000I15000J0D01*
G01*
X15406223Y-9824048D02*
G75*
G02*
X15376223Y-9824048I-15000J0D01*
G01*
X15376223Y-9824048D02*
G75*
G02*
X15406223Y-9824048I15000J0D01*
G01*
X15426100Y-7034470D02*
G75*
G02*
X15396100Y-7034470I-15000J0D01*
G01*
X15396100Y-7034470D02*
G75*
G02*
X15426100Y-7034470I15000J0D01*
G01*
X15426100Y-7189470D02*
G75*
G02*
X15396100Y-7189470I-15000J0D01*
G01*
X15396100Y-7189470D02*
G75*
G02*
X15426100Y-7189470I15000J0D01*
G01*
X15428600Y-6861970D02*
G75*
G02*
X15398600Y-6861970I-15000J0D01*
G01*
X15398600Y-6861970D02*
G75*
G02*
X15428600Y-6861970I15000J0D01*
G01*
X15462500Y-7850000D02*
G75*
G02*
X15432500Y-7850000I-15000J0D01*
G01*
X15432500Y-7850000D02*
G75*
G02*
X15462500Y-7850000I15000J0D01*
G01*
X15492500Y-8725000D02*
G75*
G02*
X15462500Y-8725000I-15000J0D01*
G01*
X15462500Y-8725000D02*
G75*
G02*
X15492500Y-8725000I15000J0D01*
G01*
X15515000Y-5182825D02*
G75*
G02*
X15485000Y-5182825I-15000J0D01*
G01*
X15485000Y-5182825D02*
G75*
G02*
X15515000Y-5182825I15000J0D01*
G01*
X15515000Y-8500000D02*
G75*
G02*
X15485000Y-8500000I-15000J0D01*
G01*
X15485000Y-8500000D02*
G75*
G02*
X15515000Y-8500000I15000J0D01*
G01*
X15515070Y-5950000D02*
G75*
G02*
X15485070Y-5950000I-15000J0D01*
G01*
X15485070Y-5950000D02*
G75*
G02*
X15515070Y-5950000I15000J0D01*
G01*
X15515070Y-6400000D02*
G75*
G02*
X15485070Y-6400000I-15000J0D01*
G01*
X15485070Y-6400000D02*
G75*
G02*
X15515070Y-6400000I15000J0D01*
G01*
X15540000Y-7300000D02*
G75*
G02*
X15510000Y-7300000I-15000J0D01*
G01*
X15510000Y-7300000D02*
G75*
G02*
X15540000Y-7300000I15000J0D01*
G01*
X15607980Y-7482500D02*
G75*
G02*
X15577980Y-7482500I-15000J0D01*
G01*
X15577980Y-7482500D02*
G75*
G02*
X15607980Y-7482500I15000J0D01*
G01*
X15607980Y-7667500D02*
G75*
G02*
X15577980Y-7667500I-15000J0D01*
G01*
X15577980Y-7667500D02*
G75*
G02*
X15607980Y-7667500I15000J0D01*
G01*
X15615000Y-6600000D02*
G75*
G02*
X15585000Y-6600000I-15000J0D01*
G01*
X15585000Y-6600000D02*
G75*
G02*
X15615000Y-6600000I15000J0D01*
G01*
X15617500Y-7850000D02*
G75*
G02*
X15587500Y-7850000I-15000J0D01*
G01*
X15587500Y-7850000D02*
G75*
G02*
X15617500Y-7850000I15000J0D01*
G01*
X15651032Y-6934669D02*
G75*
G02*
X15621032Y-6934669I-15000J0D01*
G01*
X15621032Y-6934669D02*
G75*
G02*
X15651032Y-6934669I15000J0D01*
G01*
X15690000Y-8282600D02*
G75*
G02*
X15660000Y-8282600I-15000J0D01*
G01*
X15660000Y-8282600D02*
G75*
G02*
X15690000Y-8282600I15000J0D01*
G01*
X15728600Y-6861970D02*
G75*
G02*
X15698600Y-6861970I-15000J0D01*
G01*
X15698600Y-6861970D02*
G75*
G02*
X15728600Y-6861970I15000J0D01*
G01*
X15765000Y-8150000D02*
G75*
G02*
X15735000Y-8150000I-15000J0D01*
G01*
X15735000Y-8150000D02*
G75*
G02*
X15765000Y-8150000I15000J0D01*
G01*
X15772020Y-7482500D02*
G75*
G02*
X15742020Y-7482500I-15000J0D01*
G01*
X15742020Y-7482500D02*
G75*
G02*
X15772020Y-7482500I15000J0D01*
G01*
X15772500Y-6100000D02*
G75*
G02*
X15742500Y-6100000I-15000J0D01*
G01*
X15742500Y-6100000D02*
G75*
G02*
X15772500Y-6100000I15000J0D01*
G01*
X15815000Y-5700000D02*
G75*
G02*
X15785000Y-5700000I-15000J0D01*
G01*
X15785000Y-5700000D02*
G75*
G02*
X15815000Y-5700000I15000J0D01*
G01*
X15837500Y-8875000D02*
G75*
G02*
X15807500Y-8875000I-15000J0D01*
G01*
X15807500Y-8875000D02*
G75*
G02*
X15837500Y-8875000I15000J0D01*
G01*
X15854441Y-7411895D02*
G75*
G02*
X15824441Y-7411895I-15000J0D01*
G01*
X15824441Y-7411895D02*
G75*
G02*
X15854441Y-7411895I15000J0D01*
G01*
X15885199Y-5954801D02*
G75*
G02*
X15855199Y-5954801I-15000J0D01*
G01*
X15855199Y-5954801D02*
G75*
G02*
X15885199Y-5954801I15000J0D01*
G01*
X15887500Y-9300000D02*
G75*
G02*
X15857500Y-9300000I-15000J0D01*
G01*
X15857500Y-9300000D02*
G75*
G02*
X15887500Y-9300000I15000J0D01*
G01*
X15890000Y-6372500D02*
G75*
G02*
X15860000Y-6372500I-15000J0D01*
G01*
X15860000Y-6372500D02*
G75*
G02*
X15890000Y-6372500I15000J0D01*
G01*
X15890000Y-6527500D02*
G75*
G02*
X15860000Y-6527500I-15000J0D01*
G01*
X15860000Y-6527500D02*
G75*
G02*
X15890000Y-6527500I15000J0D01*
G01*
X15890000Y-6677500D02*
G75*
G02*
X15860000Y-6677500I-15000J0D01*
G01*
X15860000Y-6677500D02*
G75*
G02*
X15890000Y-6677500I15000J0D01*
G01*
X15890000Y-6832500D02*
G75*
G02*
X15860000Y-6832500I-15000J0D01*
G01*
X15860000Y-6832500D02*
G75*
G02*
X15890000Y-6832500I15000J0D01*
G01*
X15892500Y-8700000D02*
G75*
G02*
X15862500Y-8700000I-15000J0D01*
G01*
X15862500Y-8700000D02*
G75*
G02*
X15892500Y-8700000I15000J0D01*
G01*
X15911347Y-7553653D02*
G75*
G02*
X15881347Y-7553653I-15000J0D01*
G01*
X15881347Y-7553653D02*
G75*
G02*
X15911347Y-7553653I15000J0D01*
G01*
X15915000Y-7150000D02*
G75*
G02*
X15885000Y-7150000I-15000J0D01*
G01*
X15885000Y-7150000D02*
G75*
G02*
X15915000Y-7150000I15000J0D01*
G01*
X15915000Y-8100000D02*
G75*
G02*
X15885000Y-8100000I-15000J0D01*
G01*
X15885000Y-8100000D02*
G75*
G02*
X15915000Y-8100000I15000J0D01*
G01*
X15915000Y-9600000D02*
G75*
G02*
X15885000Y-9600000I-15000J0D01*
G01*
X15885000Y-9600000D02*
G75*
G02*
X15915000Y-9600000I15000J0D01*
G01*
X15965000Y-6275000D02*
G75*
G02*
X15935000Y-6275000I-15000J0D01*
G01*
X15935000Y-6275000D02*
G75*
G02*
X15965000Y-6275000I15000J0D01*
G01*
X15994926Y-7345073D02*
G75*
G02*
X15964926Y-7345073I-15000J0D01*
G01*
X15964926Y-7345073D02*
G75*
G02*
X15994926Y-7345073I15000J0D01*
G01*
X16000852Y-8229668D02*
G75*
G02*
X15970852Y-8229668I-15000J0D01*
G01*
X15970852Y-8229668D02*
G75*
G02*
X16000852Y-8229668I15000J0D01*
G01*
X16035199Y-6029801D02*
G75*
G02*
X16005199Y-6029801I-15000J0D01*
G01*
X16005199Y-6029801D02*
G75*
G02*
X16035199Y-6029801I15000J0D01*
G01*
X16035199Y-8470199D02*
G75*
G02*
X16005199Y-8470199I-15000J0D01*
G01*
X16005199Y-8470199D02*
G75*
G02*
X16035199Y-8470199I15000J0D01*
G01*
X16042500Y-9300000D02*
G75*
G02*
X16012500Y-9300000I-15000J0D01*
G01*
X16012500Y-9300000D02*
G75*
G02*
X16042500Y-9300000I15000J0D01*
G01*
X16085000Y-5260000D02*
G75*
G02*
X16055000Y-5260000I-15000J0D01*
G01*
X16055000Y-5260000D02*
G75*
G02*
X16085000Y-5260000I15000J0D01*
G01*
X16085000Y-5610000D02*
G75*
G02*
X16055000Y-5610000I-15000J0D01*
G01*
X16055000Y-5610000D02*
G75*
G02*
X16085000Y-5610000I15000J0D01*
G01*
X16090000Y-8950000D02*
G75*
G02*
X16060000Y-8950000I-15000J0D01*
G01*
X16060000Y-8950000D02*
G75*
G02*
X16090000Y-8950000I15000J0D01*
G01*
X16140000Y-9225000D02*
G75*
G02*
X16110000Y-9225000I-15000J0D01*
G01*
X16110000Y-9225000D02*
G75*
G02*
X16140000Y-9225000I15000J0D01*
G01*
X16144801Y-5920199D02*
G75*
G02*
X16114801Y-5920199I-15000J0D01*
G01*
X16114801Y-5920199D02*
G75*
G02*
X16144801Y-5920199I15000J0D01*
G01*
X16144801Y-8579801D02*
G75*
G02*
X16114801Y-8579801I-15000J0D01*
G01*
X16114801Y-8579801D02*
G75*
G02*
X16144801Y-8579801I15000J0D01*
G01*
X16217500Y-5825000D02*
G75*
G02*
X16187500Y-5825000I-15000J0D01*
G01*
X16187500Y-5825000D02*
G75*
G02*
X16217500Y-5825000I15000J0D01*
G01*
X16233412Y-8192164D02*
G75*
G02*
X16203412Y-8192164I-15000J0D01*
G01*
X16203412Y-8192164D02*
G75*
G02*
X16233412Y-8192164I15000J0D01*
G01*
X16262554Y-6315000D02*
G75*
G02*
X16232554Y-6315000I-15000J0D01*
G01*
X16232554Y-6315000D02*
G75*
G02*
X16262554Y-6315000I15000J0D01*
G01*
X16265000Y-6935000D02*
G75*
G02*
X16235000Y-6935000I-15000J0D01*
G01*
X16235000Y-6935000D02*
G75*
G02*
X16265000Y-6935000I15000J0D01*
G01*
X16290000Y-7247500D02*
G75*
G02*
X16260000Y-7247500I-15000J0D01*
G01*
X16260000Y-7247500D02*
G75*
G02*
X16290000Y-7247500I15000J0D01*
G01*
X16290000Y-7402500D02*
G75*
G02*
X16260000Y-7402500I-15000J0D01*
G01*
X16260000Y-7402500D02*
G75*
G02*
X16290000Y-7402500I15000J0D01*
G01*
X16315000Y-6400000D02*
G75*
G02*
X16285000Y-6400000I-15000J0D01*
G01*
X16285000Y-6400000D02*
G75*
G02*
X16315000Y-6400000I15000J0D01*
G01*
X16315000Y-6522500D02*
G75*
G02*
X16285000Y-6522500I-15000J0D01*
G01*
X16285000Y-6522500D02*
G75*
G02*
X16315000Y-6522500I15000J0D01*
G01*
X16335000Y-5260000D02*
G75*
G02*
X16305000Y-5260000I-15000J0D01*
G01*
X16305000Y-5260000D02*
G75*
G02*
X16335000Y-5260000I15000J0D01*
G01*
X16340000Y-8875000D02*
G75*
G02*
X16310000Y-8875000I-15000J0D01*
G01*
X16310000Y-8875000D02*
G75*
G02*
X16340000Y-8875000I15000J0D01*
G01*
X16340000Y-9225000D02*
G75*
G02*
X16310000Y-9225000I-15000J0D01*
G01*
X16310000Y-9225000D02*
G75*
G02*
X16340000Y-9225000I15000J0D01*
G01*
X16340000Y-9575000D02*
G75*
G02*
X16310000Y-9575000I-15000J0D01*
G01*
X16310000Y-9575000D02*
G75*
G02*
X16340000Y-9575000I15000J0D01*
G01*
X16362500Y-5820000D02*
G75*
G02*
X16332500Y-5820000I-15000J0D01*
G01*
X16332500Y-5820000D02*
G75*
G02*
X16362500Y-5820000I15000J0D01*
G01*
X16385000Y-8300000D02*
G75*
G02*
X16355000Y-8300000I-15000J0D01*
G01*
X16355000Y-8300000D02*
G75*
G02*
X16385000Y-8300000I15000J0D01*
G01*
X16394926Y-6404926D02*
G75*
G02*
X16364926Y-6404926I-15000J0D01*
G01*
X16364926Y-6404926D02*
G75*
G02*
X16394926Y-6404926I15000J0D01*
G01*
X16415000Y-7972500D02*
G75*
G02*
X16385000Y-7972500I-15000J0D01*
G01*
X16385000Y-7972500D02*
G75*
G02*
X16415000Y-7972500I15000J0D01*
G01*
X16415000Y-8127500D02*
G75*
G02*
X16385000Y-8127500I-15000J0D01*
G01*
X16385000Y-8127500D02*
G75*
G02*
X16415000Y-8127500I15000J0D01*
G01*
X16434609Y-8759734D02*
G75*
G02*
X16404609Y-8759734I-15000J0D01*
G01*
X16404609Y-8759734D02*
G75*
G02*
X16434609Y-8759734I15000J0D01*
G01*
X16482500Y-7750000D02*
G75*
G02*
X16452500Y-7750000I-15000J0D01*
G01*
X16452500Y-7750000D02*
G75*
G02*
X16482500Y-7750000I15000J0D01*
G01*
X16515000Y-7000000D02*
G75*
G02*
X16485000Y-7000000I-15000J0D01*
G01*
X16485000Y-7000000D02*
G75*
G02*
X16515000Y-7000000I15000J0D01*
G01*
X16515000Y-7300000D02*
G75*
G02*
X16485000Y-7300000I-15000J0D01*
G01*
X16485000Y-7300000D02*
G75*
G02*
X16515000Y-7300000I15000J0D01*
G01*
X16517500Y-5800000D02*
G75*
G02*
X16487500Y-5800000I-15000J0D01*
G01*
X16487500Y-5800000D02*
G75*
G02*
X16517500Y-5800000I15000J0D01*
G01*
X16540000Y-6575000D02*
G75*
G02*
X16510000Y-6575000I-15000J0D01*
G01*
X16510000Y-6575000D02*
G75*
G02*
X16540000Y-6575000I15000J0D01*
G01*
X16540000Y-8300000D02*
G75*
G02*
X16510000Y-8300000I-15000J0D01*
G01*
X16510000Y-8300000D02*
G75*
G02*
X16540000Y-8300000I15000J0D01*
G01*
X16565000Y-7972500D02*
G75*
G02*
X16535000Y-7972500I-15000J0D01*
G01*
X16535000Y-7972500D02*
G75*
G02*
X16565000Y-7972500I15000J0D01*
G01*
X16565000Y-8127500D02*
G75*
G02*
X16535000Y-8127500I-15000J0D01*
G01*
X16535000Y-8127500D02*
G75*
G02*
X16565000Y-8127500I15000J0D01*
G01*
X16590000Y-8875000D02*
G75*
G02*
X16560000Y-8875000I-15000J0D01*
G01*
X16560000Y-8875000D02*
G75*
G02*
X16590000Y-8875000I15000J0D01*
G01*
X16615000Y-5260000D02*
G75*
G02*
X16585000Y-5260000I-15000J0D01*
G01*
X16585000Y-5260000D02*
G75*
G02*
X16615000Y-5260000I15000J0D01*
G01*
X16615000Y-5610000D02*
G75*
G02*
X16585000Y-5610000I-15000J0D01*
G01*
X16585000Y-5610000D02*
G75*
G02*
X16615000Y-5610000I15000J0D01*
G01*
X16633260Y-5752700D02*
G75*
G02*
X16603260Y-5752700I-15000J0D01*
G01*
X16603260Y-5752700D02*
G75*
G02*
X16633260Y-5752700I15000J0D01*
G01*
X16636394Y-8721394D02*
G75*
G02*
X16606394Y-8721394I-15000J0D01*
G01*
X16606394Y-8721394D02*
G75*
G02*
X16636394Y-8721394I15000J0D01*
G01*
X16637500Y-6625000D02*
G75*
G02*
X16607500Y-6625000I-15000J0D01*
G01*
X16607500Y-6625000D02*
G75*
G02*
X16637500Y-6625000I15000J0D01*
G01*
X16642500Y-7600000D02*
G75*
G02*
X16612500Y-7600000I-15000J0D01*
G01*
X16612500Y-7600000D02*
G75*
G02*
X16642500Y-7600000I15000J0D01*
G01*
X16647500Y-7750000D02*
G75*
G02*
X16617500Y-7750000I-15000J0D01*
G01*
X16617500Y-7750000D02*
G75*
G02*
X16647500Y-7750000I15000J0D01*
G01*
X16765000Y-6100000D02*
G75*
G02*
X16735000Y-6100000I-15000J0D01*
G01*
X16735000Y-6100000D02*
G75*
G02*
X16765000Y-6100000I15000J0D01*
G01*
X16790000Y-6272500D02*
G75*
G02*
X16760000Y-6272500I-15000J0D01*
G01*
X16760000Y-6272500D02*
G75*
G02*
X16790000Y-6272500I15000J0D01*
G01*
X16790000Y-6427500D02*
G75*
G02*
X16760000Y-6427500I-15000J0D01*
G01*
X16760000Y-6427500D02*
G75*
G02*
X16790000Y-6427500I15000J0D01*
G01*
X16791250Y-6623750D02*
G75*
G02*
X16761250Y-6623750I-15000J0D01*
G01*
X16761250Y-6623750D02*
G75*
G02*
X16791250Y-6623750I15000J0D01*
G01*
X16815000Y-7003087D02*
G75*
G02*
X16785000Y-7003087I-15000J0D01*
G01*
X16785000Y-7003087D02*
G75*
G02*
X16815000Y-7003087I15000J0D01*
G01*
X16815000Y-7300000D02*
G75*
G02*
X16785000Y-7300000I-15000J0D01*
G01*
X16785000Y-7300000D02*
G75*
G02*
X16815000Y-7300000I15000J0D01*
G01*
X16815000Y-7798440D02*
G75*
G02*
X16785000Y-7798440I-15000J0D01*
G01*
X16785000Y-7798440D02*
G75*
G02*
X16815000Y-7798440I15000J0D01*
G01*
X16815000Y-8100000D02*
G75*
G02*
X16785000Y-8100000I-15000J0D01*
G01*
X16785000Y-8100000D02*
G75*
G02*
X16815000Y-8100000I15000J0D01*
G01*
X16954255Y-6100126D02*
G75*
G02*
X16924255Y-6100126I-15000J0D01*
G01*
X16924255Y-6100126D02*
G75*
G02*
X16954255Y-6100126I15000J0D01*
G01*
X17015000Y-6700000D02*
G75*
G02*
X16985000Y-6700000I-15000J0D01*
G01*
X16985000Y-6700000D02*
G75*
G02*
X17015000Y-6700000I15000J0D01*
G01*
X17015000Y-9200000D02*
G75*
G02*
X16985000Y-9200000I-15000J0D01*
G01*
X16985000Y-9200000D02*
G75*
G02*
X17015000Y-9200000I15000J0D01*
G01*
X17037500Y-6150000D02*
G75*
G02*
X17007500Y-6150000I-15000J0D01*
G01*
X17007500Y-6150000D02*
G75*
G02*
X17037500Y-6150000I15000J0D01*
G01*
X17065000Y-6502500D02*
G75*
G02*
X17035000Y-6502500I-15000J0D01*
G01*
X17035000Y-6502500D02*
G75*
G02*
X17065000Y-6502500I15000J0D01*
G01*
X17066250Y-6348750D02*
G75*
G02*
X17036250Y-6348750I-15000J0D01*
G01*
X17036250Y-6348750D02*
G75*
G02*
X17066250Y-6348750I15000J0D01*
G01*
X17090000Y-8875000D02*
G75*
G02*
X17060000Y-8875000I-15000J0D01*
G01*
X17060000Y-8875000D02*
G75*
G02*
X17090000Y-8875000I15000J0D01*
G01*
X17090000Y-9575000D02*
G75*
G02*
X17060000Y-9575000I-15000J0D01*
G01*
X17060000Y-9575000D02*
G75*
G02*
X17090000Y-9575000I15000J0D01*
G01*
X17115000Y-5260000D02*
G75*
G02*
X17085000Y-5260000I-15000J0D01*
G01*
X17085000Y-5260000D02*
G75*
G02*
X17115000Y-5260000I15000J0D01*
G01*
X17115000Y-5610000D02*
G75*
G02*
X17085000Y-5610000I-15000J0D01*
G01*
X17085000Y-5610000D02*
G75*
G02*
X17115000Y-5610000I15000J0D01*
G01*
X17115000Y-7000000D02*
G75*
G02*
X17085000Y-7000000I-15000J0D01*
G01*
X17085000Y-7000000D02*
G75*
G02*
X17115000Y-7000000I15000J0D01*
G01*
X17115000Y-7300000D02*
G75*
G02*
X17085000Y-7300000I-15000J0D01*
G01*
X17085000Y-7300000D02*
G75*
G02*
X17115000Y-7300000I15000J0D01*
G01*
X17115000Y-7796880D02*
G75*
G02*
X17085000Y-7796880I-15000J0D01*
G01*
X17085000Y-7796880D02*
G75*
G02*
X17115000Y-7796880I15000J0D01*
G01*
X17115000Y-8100000D02*
G75*
G02*
X17085000Y-8100000I-15000J0D01*
G01*
X17085000Y-8100000D02*
G75*
G02*
X17115000Y-8100000I15000J0D01*
G01*
X17192500Y-6150000D02*
G75*
G02*
X17162500Y-6150000I-15000J0D01*
G01*
X17162500Y-6150000D02*
G75*
G02*
X17192500Y-6150000I15000J0D01*
G01*
X17212500Y-8300000D02*
G75*
G02*
X17182500Y-8300000I-15000J0D01*
G01*
X17182500Y-8300000D02*
G75*
G02*
X17212500Y-8300000I15000J0D01*
G01*
X17237500Y-6625000D02*
G75*
G02*
X17207500Y-6625000I-15000J0D01*
G01*
X17207500Y-6625000D02*
G75*
G02*
X17237500Y-6625000I15000J0D01*
G01*
X17339807Y-6350193D02*
G75*
G02*
X17309807Y-6350193I-15000J0D01*
G01*
X17309807Y-6350193D02*
G75*
G02*
X17339807Y-6350193I15000J0D01*
G01*
X17367500Y-8300000D02*
G75*
G02*
X17337500Y-8300000I-15000J0D01*
G01*
X17337500Y-8300000D02*
G75*
G02*
X17367500Y-8300000I15000J0D01*
G01*
X17383540Y-6135531D02*
G75*
G02*
X17353540Y-6135531I-15000J0D01*
G01*
X17353540Y-6135531D02*
G75*
G02*
X17383540Y-6135531I15000J0D01*
G01*
X17390000Y-5260000D02*
G75*
G02*
X17360000Y-5260000I-15000J0D01*
G01*
X17360000Y-5260000D02*
G75*
G02*
X17390000Y-5260000I15000J0D01*
G01*
X17392500Y-6625000D02*
G75*
G02*
X17362500Y-6625000I-15000J0D01*
G01*
X17362500Y-6625000D02*
G75*
G02*
X17392500Y-6625000I15000J0D01*
G01*
X17415000Y-7025000D02*
G75*
G02*
X17385000Y-7025000I-15000J0D01*
G01*
X17385000Y-7025000D02*
G75*
G02*
X17415000Y-7025000I15000J0D01*
G01*
X17415000Y-7300000D02*
G75*
G02*
X17385000Y-7300000I-15000J0D01*
G01*
X17385000Y-7300000D02*
G75*
G02*
X17415000Y-7300000I15000J0D01*
G01*
X17415000Y-7798440D02*
G75*
G02*
X17385000Y-7798440I-15000J0D01*
G01*
X17385000Y-7798440D02*
G75*
G02*
X17415000Y-7798440I15000J0D01*
G01*
X17415000Y-8100000D02*
G75*
G02*
X17385000Y-8100000I-15000J0D01*
G01*
X17385000Y-8100000D02*
G75*
G02*
X17415000Y-8100000I15000J0D01*
G01*
X17415000Y-9200000D02*
G75*
G02*
X17385000Y-9200000I-15000J0D01*
G01*
X17385000Y-9200000D02*
G75*
G02*
X17415000Y-9200000I15000J0D01*
G01*
X17440000Y-6275000D02*
G75*
G02*
X17410000Y-6275000I-15000J0D01*
G01*
X17410000Y-6275000D02*
G75*
G02*
X17440000Y-6275000I15000J0D01*
G01*
X17487500Y-5825000D02*
G75*
G02*
X17457500Y-5825000I-15000J0D01*
G01*
X17457500Y-5825000D02*
G75*
G02*
X17487500Y-5825000I15000J0D01*
G01*
X17490000Y-6150000D02*
G75*
G02*
X17460000Y-6150000I-15000J0D01*
G01*
X17460000Y-6150000D02*
G75*
G02*
X17490000Y-6150000I15000J0D01*
G01*
X17512500Y-8300000D02*
G75*
G02*
X17482500Y-8300000I-15000J0D01*
G01*
X17482500Y-8300000D02*
G75*
G02*
X17512500Y-8300000I15000J0D01*
G01*
X17590000Y-8880000D02*
G75*
G02*
X17560000Y-8880000I-15000J0D01*
G01*
X17560000Y-8880000D02*
G75*
G02*
X17590000Y-8880000I15000J0D01*
G01*
X17590000Y-9580000D02*
G75*
G02*
X17560000Y-9580000I-15000J0D01*
G01*
X17560000Y-9580000D02*
G75*
G02*
X17590000Y-9580000I15000J0D01*
G01*
X17615000Y-6700000D02*
G75*
G02*
X17585000Y-6700000I-15000J0D01*
G01*
X17585000Y-6700000D02*
G75*
G02*
X17615000Y-6700000I15000J0D01*
G01*
X17640000Y-5260000D02*
G75*
G02*
X17610000Y-5260000I-15000J0D01*
G01*
X17610000Y-5260000D02*
G75*
G02*
X17640000Y-5260000I15000J0D01*
G01*
X17640000Y-6397500D02*
G75*
G02*
X17610000Y-6397500I-15000J0D01*
G01*
X17610000Y-6397500D02*
G75*
G02*
X17640000Y-6397500I15000J0D01*
G01*
X17640000Y-6552500D02*
G75*
G02*
X17610000Y-6552500I-15000J0D01*
G01*
X17610000Y-6552500D02*
G75*
G02*
X17640000Y-6552500I15000J0D01*
G01*
X17642500Y-5825000D02*
G75*
G02*
X17612500Y-5825000I-15000J0D01*
G01*
X17612500Y-5825000D02*
G75*
G02*
X17642500Y-5825000I15000J0D01*
G01*
X17645000Y-6150000D02*
G75*
G02*
X17615000Y-6150000I-15000J0D01*
G01*
X17615000Y-6150000D02*
G75*
G02*
X17645000Y-6150000I15000J0D01*
G01*
X17667500Y-8300000D02*
G75*
G02*
X17637500Y-8300000I-15000J0D01*
G01*
X17637500Y-8300000D02*
G75*
G02*
X17667500Y-8300000I15000J0D01*
G01*
X17715000Y-7025000D02*
G75*
G02*
X17685000Y-7025000I-15000J0D01*
G01*
X17685000Y-7025000D02*
G75*
G02*
X17715000Y-7025000I15000J0D01*
G01*
X17715000Y-7300000D02*
G75*
G02*
X17685000Y-7300000I-15000J0D01*
G01*
X17685000Y-7300000D02*
G75*
G02*
X17715000Y-7300000I15000J0D01*
G01*
X17715000Y-7798440D02*
G75*
G02*
X17685000Y-7798440I-15000J0D01*
G01*
X17685000Y-7798440D02*
G75*
G02*
X17715000Y-7798440I15000J0D01*
G01*
X17715000Y-8101560D02*
G75*
G02*
X17685000Y-8101560I-15000J0D01*
G01*
X17685000Y-8101560D02*
G75*
G02*
X17715000Y-8101560I15000J0D01*
G01*
X17765000Y-5500000D02*
G75*
G02*
X17735000Y-5500000I-15000J0D01*
G01*
X17735000Y-5500000D02*
G75*
G02*
X17765000Y-5500000I15000J0D01*
G01*
X17787500Y-8825000D02*
G75*
G02*
X17757500Y-8825000I-15000J0D01*
G01*
X17757500Y-8825000D02*
G75*
G02*
X17787500Y-8825000I15000J0D01*
G01*
X17815000Y-9300000D02*
G75*
G02*
X17785000Y-9300000I-15000J0D01*
G01*
X17785000Y-9300000D02*
G75*
G02*
X17815000Y-9300000I15000J0D01*
G01*
X17887500Y-8300000D02*
G75*
G02*
X17857500Y-8300000I-15000J0D01*
G01*
X17857500Y-8300000D02*
G75*
G02*
X17887500Y-8300000I15000J0D01*
G01*
X17940000Y-6850000D02*
G75*
G02*
X17910000Y-6850000I-15000J0D01*
G01*
X17910000Y-6850000D02*
G75*
G02*
X17940000Y-6850000I15000J0D01*
G01*
X17941944Y-8631441D02*
G75*
G02*
X17911944Y-8631441I-15000J0D01*
G01*
X17911944Y-8631441D02*
G75*
G02*
X17941944Y-8631441I15000J0D01*
G01*
X17990000Y-5825000D02*
G75*
G02*
X17960000Y-5825000I-15000J0D01*
G01*
X17960000Y-5825000D02*
G75*
G02*
X17990000Y-5825000I15000J0D01*
G01*
X18015000Y-6525000D02*
G75*
G02*
X17985000Y-6525000I-15000J0D01*
G01*
X17985000Y-6525000D02*
G75*
G02*
X18015000Y-6525000I15000J0D01*
G01*
X18015000Y-7025000D02*
G75*
G02*
X17985000Y-7025000I-15000J0D01*
G01*
X17985000Y-7025000D02*
G75*
G02*
X18015000Y-7025000I15000J0D01*
G01*
X18015000Y-7300000D02*
G75*
G02*
X17985000Y-7300000I-15000J0D01*
G01*
X17985000Y-7300000D02*
G75*
G02*
X18015000Y-7300000I15000J0D01*
G01*
X18015000Y-7800000D02*
G75*
G02*
X17985000Y-7800000I-15000J0D01*
G01*
X17985000Y-7800000D02*
G75*
G02*
X18015000Y-7800000I15000J0D01*
G01*
X18042500Y-8300000D02*
G75*
G02*
X18012500Y-8300000I-15000J0D01*
G01*
X18012500Y-8300000D02*
G75*
G02*
X18042500Y-8300000I15000J0D01*
G01*
X18090147Y-6400000D02*
G75*
G02*
X18060147Y-6400000I-15000J0D01*
G01*
X18060147Y-6400000D02*
G75*
G02*
X18090147Y-6400000I15000J0D01*
G01*
X18095000Y-6850000D02*
G75*
G02*
X18065000Y-6850000I-15000J0D01*
G01*
X18065000Y-6850000D02*
G75*
G02*
X18095000Y-6850000I15000J0D01*
G01*
X18115000Y-6585000D02*
G75*
G02*
X18085000Y-6585000I-15000J0D01*
G01*
X18085000Y-6585000D02*
G75*
G02*
X18115000Y-6585000I15000J0D01*
G01*
X18140000Y-8860000D02*
G75*
G02*
X18110000Y-8860000I-15000J0D01*
G01*
X18110000Y-8860000D02*
G75*
G02*
X18140000Y-8860000I15000J0D01*
G01*
X18187500Y-8300000D02*
G75*
G02*
X18157500Y-8300000I-15000J0D01*
G01*
X18157500Y-8300000D02*
G75*
G02*
X18187500Y-8300000I15000J0D01*
G01*
X18240000Y-5660000D02*
G75*
G02*
X18210000Y-5660000I-15000J0D01*
G01*
X18210000Y-5660000D02*
G75*
G02*
X18240000Y-5660000I15000J0D01*
G01*
X18240000Y-6465000D02*
G75*
G02*
X18210000Y-6465000I-15000J0D01*
G01*
X18210000Y-6465000D02*
G75*
G02*
X18240000Y-6465000I15000J0D01*
G01*
X18240000Y-7150000D02*
G75*
G02*
X18210000Y-7150000I-15000J0D01*
G01*
X18210000Y-7150000D02*
G75*
G02*
X18240000Y-7150000I15000J0D01*
G01*
X18240104Y-5752678D02*
G75*
G02*
X18210104Y-5752678I-15000J0D01*
G01*
X18210104Y-5752678D02*
G75*
G02*
X18240104Y-5752678I15000J0D01*
G01*
X18270000Y-5835000D02*
G75*
G02*
X18240000Y-5835000I-15000J0D01*
G01*
X18240000Y-5835000D02*
G75*
G02*
X18270000Y-5835000I15000J0D01*
G01*
X18287500Y-6850000D02*
G75*
G02*
X18257500Y-6850000I-15000J0D01*
G01*
X18257500Y-6850000D02*
G75*
G02*
X18287500Y-6850000I15000J0D01*
G01*
X18290000Y-6340000D02*
G75*
G02*
X18260000Y-6340000I-15000J0D01*
G01*
X18260000Y-6340000D02*
G75*
G02*
X18290000Y-6340000I15000J0D01*
G01*
X18312500Y-7850000D02*
G75*
G02*
X18282500Y-7850000I-15000J0D01*
G01*
X18282500Y-7850000D02*
G75*
G02*
X18312500Y-7850000I15000J0D01*
G01*
X18315000Y-7600000D02*
G75*
G02*
X18285000Y-7600000I-15000J0D01*
G01*
X18285000Y-7600000D02*
G75*
G02*
X18315000Y-7600000I15000J0D01*
G01*
X18315000Y-9575000D02*
G75*
G02*
X18285000Y-9575000I-15000J0D01*
G01*
X18285000Y-9575000D02*
G75*
G02*
X18315000Y-9575000I15000J0D01*
G01*
X18340000Y-6190000D02*
G75*
G02*
X18310000Y-6190000I-15000J0D01*
G01*
X18310000Y-6190000D02*
G75*
G02*
X18340000Y-6190000I15000J0D01*
G01*
X18342500Y-8300000D02*
G75*
G02*
X18312500Y-8300000I-15000J0D01*
G01*
X18312500Y-8300000D02*
G75*
G02*
X18342500Y-8300000I15000J0D01*
G01*
X18355000Y-5850000D02*
G75*
G02*
X18325000Y-5850000I-15000J0D01*
G01*
X18325000Y-5850000D02*
G75*
G02*
X18355000Y-5850000I15000J0D01*
G01*
X18358924Y-6278777D02*
G75*
G02*
X18328924Y-6278777I-15000J0D01*
G01*
X18328924Y-6278777D02*
G75*
G02*
X18358924Y-6278777I15000J0D01*
G01*
X18365000Y-5665000D02*
G75*
G02*
X18335000Y-5665000I-15000J0D01*
G01*
X18335000Y-5665000D02*
G75*
G02*
X18365000Y-5665000I15000J0D01*
G01*
X18420456Y-5848662D02*
G75*
G02*
X18390456Y-5848662I-15000J0D01*
G01*
X18390456Y-5848662D02*
G75*
G02*
X18420456Y-5848662I15000J0D01*
G01*
X18440000Y-7072500D02*
G75*
G02*
X18410000Y-7072500I-15000J0D01*
G01*
X18410000Y-7072500D02*
G75*
G02*
X18440000Y-7072500I15000J0D01*
G01*
X18440000Y-7227500D02*
G75*
G02*
X18410000Y-7227500I-15000J0D01*
G01*
X18410000Y-7227500D02*
G75*
G02*
X18440000Y-7227500I15000J0D01*
G01*
X18442500Y-6850000D02*
G75*
G02*
X18412500Y-6850000I-15000J0D01*
G01*
X18412500Y-6850000D02*
G75*
G02*
X18442500Y-6850000I15000J0D01*
G01*
X18465147Y-6465000D02*
G75*
G02*
X18435147Y-6465000I-15000J0D01*
G01*
X18435147Y-6465000D02*
G75*
G02*
X18465147Y-6465000I15000J0D01*
G01*
X18467500Y-7850000D02*
G75*
G02*
X18437500Y-7850000I-15000J0D01*
G01*
X18437500Y-7850000D02*
G75*
G02*
X18467500Y-7850000I15000J0D01*
G01*
X18472700Y-5970000D02*
G75*
G02*
X18442700Y-5970000I-15000J0D01*
G01*
X18442700Y-5970000D02*
G75*
G02*
X18472700Y-5970000I15000J0D01*
G01*
X18490000Y-8022500D02*
G75*
G02*
X18460000Y-8022500I-15000J0D01*
G01*
X18460000Y-8022500D02*
G75*
G02*
X18490000Y-8022500I15000J0D01*
G01*
X18490000Y-8177500D02*
G75*
G02*
X18460000Y-8177500I-15000J0D01*
G01*
X18460000Y-8177500D02*
G75*
G02*
X18490000Y-8177500I15000J0D01*
G01*
X18539800Y-6225000D02*
G75*
G02*
X18509800Y-6225000I-15000J0D01*
G01*
X18509800Y-6225000D02*
G75*
G02*
X18539800Y-6225000I15000J0D01*
G01*
X18540000Y-6875000D02*
G75*
G02*
X18510000Y-6875000I-15000J0D01*
G01*
X18510000Y-6875000D02*
G75*
G02*
X18540000Y-6875000I15000J0D01*
G01*
X18665000Y-5665000D02*
G75*
G02*
X18635000Y-5665000I-15000J0D01*
G01*
X18635000Y-5665000D02*
G75*
G02*
X18665000Y-5665000I15000J0D01*
G01*
X18815000Y-5665000D02*
G75*
G02*
X18785000Y-5665000I-15000J0D01*
G01*
X18785000Y-5665000D02*
G75*
G02*
X18815000Y-5665000I15000J0D01*
G01*
X18834948Y-6380052D02*
G75*
G02*
X18804948Y-6380052I-15000J0D01*
G01*
X18804948Y-6380052D02*
G75*
G02*
X18834948Y-6380052I15000J0D01*
G01*
X18851250Y-7530000D02*
G75*
G02*
X18821250Y-7530000I-15000J0D01*
G01*
X18821250Y-7530000D02*
G75*
G02*
X18851250Y-7530000I15000J0D01*
G01*
X18851250Y-7625000D02*
G75*
G02*
X18821250Y-7625000I-15000J0D01*
G01*
X18821250Y-7625000D02*
G75*
G02*
X18851250Y-7625000I15000J0D01*
G01*
X18851250Y-7720000D02*
G75*
G02*
X18821250Y-7720000I-15000J0D01*
G01*
X18821250Y-7720000D02*
G75*
G02*
X18851250Y-7720000I15000J0D01*
G01*
X18855000Y-6077000D02*
G75*
G02*
X18825000Y-6077000I-15000J0D01*
G01*
X18825000Y-6077000D02*
G75*
G02*
X18855000Y-6077000I15000J0D01*
G01*
X18890000Y-9625000D02*
G75*
G02*
X18860000Y-9625000I-15000J0D01*
G01*
X18860000Y-9625000D02*
G75*
G02*
X18890000Y-9625000I15000J0D01*
G01*
X18907500Y-7400000D02*
G75*
G02*
X18877500Y-7400000I-15000J0D01*
G01*
X18877500Y-7400000D02*
G75*
G02*
X18907500Y-7400000I15000J0D01*
G01*
X18907500Y-7850000D02*
G75*
G02*
X18877500Y-7850000I-15000J0D01*
G01*
X18877500Y-7850000D02*
G75*
G02*
X18907500Y-7850000I15000J0D01*
G01*
X18907500Y-8650000D02*
G75*
G02*
X18877500Y-8650000I-15000J0D01*
G01*
X18877500Y-8650000D02*
G75*
G02*
X18907500Y-8650000I15000J0D01*
G01*
X18915000Y-6525000D02*
G75*
G02*
X18885000Y-6525000I-15000J0D01*
G01*
X18885000Y-6525000D02*
G75*
G02*
X18915000Y-6525000I15000J0D01*
G01*
X18935922Y-6391365D02*
G75*
G02*
X18905922Y-6391365I-15000J0D01*
G01*
X18905922Y-6391365D02*
G75*
G02*
X18935922Y-6391365I15000J0D01*
G01*
X18992500Y-6800000D02*
G75*
G02*
X18962500Y-6800000I-15000J0D01*
G01*
X18962500Y-6800000D02*
G75*
G02*
X18992500Y-6800000I15000J0D01*
G01*
X19040000Y-6550000D02*
G75*
G02*
X19010000Y-6550000I-15000J0D01*
G01*
X19010000Y-6550000D02*
G75*
G02*
X19040000Y-6550000I15000J0D01*
G01*
X19047500Y-8025000D02*
G75*
G02*
X19017500Y-8025000I-15000J0D01*
G01*
X19017500Y-8025000D02*
G75*
G02*
X19047500Y-8025000I15000J0D01*
G01*
X19078750Y-7530000D02*
G75*
G02*
X19048750Y-7530000I-15000J0D01*
G01*
X19048750Y-7530000D02*
G75*
G02*
X19078750Y-7530000I15000J0D01*
G01*
X19078750Y-7720000D02*
G75*
G02*
X19048750Y-7720000I-15000J0D01*
G01*
X19048750Y-7720000D02*
G75*
G02*
X19078750Y-7720000I15000J0D01*
G01*
X19140000Y-6792500D02*
G75*
G02*
X19110000Y-6792500I-15000J0D01*
G01*
X19110000Y-6792500D02*
G75*
G02*
X19140000Y-6792500I15000J0D01*
G01*
X19190000Y-6245000D02*
G75*
G02*
X19160000Y-6245000I-15000J0D01*
G01*
X19160000Y-6245000D02*
G75*
G02*
X19190000Y-6245000I15000J0D01*
G01*
X19190000Y-6400000D02*
G75*
G02*
X19160000Y-6400000I-15000J0D01*
G01*
X19160000Y-6400000D02*
G75*
G02*
X19190000Y-6400000I15000J0D01*
G01*
X19272000Y-7360000D02*
G75*
G02*
X19242000Y-7360000I-15000J0D01*
G01*
X19242000Y-7360000D02*
G75*
G02*
X19272000Y-7360000I15000J0D01*
G01*
X19332500Y-6525000D02*
G75*
G02*
X19302500Y-6525000I-15000J0D01*
G01*
X19302500Y-6525000D02*
G75*
G02*
X19332500Y-6525000I15000J0D01*
G01*
X19332500Y-6675000D02*
G75*
G02*
X19302500Y-6675000I-15000J0D01*
G01*
X19302500Y-6675000D02*
G75*
G02*
X19332500Y-6675000I15000J0D01*
G01*
X19340000Y-5825000D02*
G75*
G02*
X19310000Y-5825000I-15000J0D01*
G01*
X19310000Y-5825000D02*
G75*
G02*
X19340000Y-5825000I15000J0D01*
G01*
X19367500Y-8900000D02*
G75*
G02*
X19337500Y-8900000I-15000J0D01*
G01*
X19337500Y-8900000D02*
G75*
G02*
X19367500Y-8900000I15000J0D01*
G01*
X19372300Y-7600000D02*
G75*
G02*
X19342300Y-7600000I-15000J0D01*
G01*
X19342300Y-7600000D02*
G75*
G02*
X19372300Y-7600000I15000J0D01*
G01*
X19432300Y-7525000D02*
G75*
G02*
X19402300Y-7525000I-15000J0D01*
G01*
X19402300Y-7525000D02*
G75*
G02*
X19432300Y-7525000I15000J0D01*
G01*
X19467500Y-6100000D02*
G75*
G02*
X19437500Y-6100000I-15000J0D01*
G01*
X19437500Y-6100000D02*
G75*
G02*
X19467500Y-6100000I15000J0D01*
G01*
X19472500Y-5950000D02*
G75*
G02*
X19442500Y-5950000I-15000J0D01*
G01*
X19442500Y-5950000D02*
G75*
G02*
X19472500Y-5950000I15000J0D01*
G01*
X19495000Y-5825000D02*
G75*
G02*
X19465000Y-5825000I-15000J0D01*
G01*
X19465000Y-5825000D02*
G75*
G02*
X19495000Y-5825000I15000J0D01*
G01*
X19497500Y-6525000D02*
G75*
G02*
X19467500Y-6525000I-15000J0D01*
G01*
X19467500Y-6525000D02*
G75*
G02*
X19497500Y-6525000I15000J0D01*
G01*
X19515000Y-8752500D02*
G75*
G02*
X19485000Y-8752500I-15000J0D01*
G01*
X19485000Y-8752500D02*
G75*
G02*
X19515000Y-8752500I15000J0D01*
G01*
X19515000Y-9824048D02*
G75*
G02*
X19485000Y-9824048I-15000J0D01*
G01*
X19485000Y-9824048D02*
G75*
G02*
X19515000Y-9824048I15000J0D01*
G01*
X19615000Y-6400000D02*
G75*
G02*
X19585000Y-6400000I-15000J0D01*
G01*
X19585000Y-6400000D02*
G75*
G02*
X19615000Y-6400000I15000J0D01*
G01*
X19629698Y-5182825D02*
G75*
G02*
X19599698Y-5182825I-15000J0D01*
G01*
X19599698Y-5182825D02*
G75*
G02*
X19629698Y-5182825I15000J0D01*
G01*
X19640000Y-6100000D02*
G75*
G02*
X19610000Y-6100000I-15000J0D01*
G01*
X19610000Y-6100000D02*
G75*
G02*
X19640000Y-6100000I15000J0D01*
G01*
X19640000Y-8330000D02*
G75*
G02*
X19610000Y-8330000I-15000J0D01*
G01*
X19610000Y-8330000D02*
G75*
G02*
X19640000Y-8330000I15000J0D01*
G01*
X19640000Y-8520000D02*
G75*
G02*
X19610000Y-8520000I-15000J0D01*
G01*
X19610000Y-8520000D02*
G75*
G02*
X19640000Y-8520000I15000J0D01*
G01*
X19667500Y-8900000D02*
G75*
G02*
X19637500Y-8900000I-15000J0D01*
G01*
X19637500Y-8900000D02*
G75*
G02*
X19667500Y-8900000I15000J0D01*
G01*
X19690952Y-9756873D02*
G75*
G02*
X19660952Y-9756873I-15000J0D01*
G01*
X19660952Y-9756873D02*
G75*
G02*
X19690952Y-9756873I15000J0D01*
G01*
X19740000Y-6675000D02*
G75*
G02*
X19710000Y-6675000I-15000J0D01*
G01*
X19710000Y-6675000D02*
G75*
G02*
X19740000Y-6675000I15000J0D01*
G01*
X19757175Y-5175952D02*
G75*
G02*
X19727175Y-5175952I-15000J0D01*
G01*
X19727175Y-5175952D02*
G75*
G02*
X19757175Y-5175952I15000J0D01*
G01*
X19770921Y-5324048D02*
G75*
G02*
X19740921Y-5324048I-15000J0D01*
G01*
X19740921Y-5324048D02*
G75*
G02*
X19770921Y-5324048I15000J0D01*
G01*
X19771628Y-5906290D02*
G75*
G02*
X19741628Y-5906290I-15000J0D01*
G01*
X19741628Y-5906290D02*
G75*
G02*
X19771628Y-5906290I15000J0D01*
G01*
X19815000Y-7600000D02*
G75*
G02*
X19785000Y-7600000I-15000J0D01*
G01*
X19785000Y-7600000D02*
G75*
G02*
X19815000Y-7600000I15000J0D01*
G01*
X19823462Y-5833462D02*
G75*
G02*
X19793462Y-5833462I-15000J0D01*
G01*
X19793462Y-5833462D02*
G75*
G02*
X19823462Y-5833462I15000J0D01*
G01*
X19839048Y-9743127D02*
G75*
G02*
X19809048Y-9743127I-15000J0D01*
G01*
X19809048Y-9743127D02*
G75*
G02*
X19839048Y-9743127I15000J0D01*
G01*
X19840000Y-5725000D02*
G75*
G02*
X19810000Y-5725000I-15000J0D01*
G01*
X19810000Y-5725000D02*
G75*
G02*
X19840000Y-5725000I15000J0D01*
G01*
X19841942Y-6573200D02*
G75*
G02*
X19811942Y-6573200I-15000J0D01*
G01*
X19811942Y-6573200D02*
G75*
G02*
X19841942Y-6573200I15000J0D01*
G01*
X19183589Y-6093900D02*
X19183589Y-6133900D01*
X19163589Y-6113900D02*
X19203589Y-6113900D01*
X19335713Y-7189213D02*
X19335713Y-7146787D01*
X19293287Y-7146787D01*
X19293287Y-7189213D01*
X19335713Y-7189213D01*
X19259500Y-7198000D02*
X19369500Y-7198000D01*
X19369500Y-7138000D02*
G75*
G02*
X19369500Y-7198000I0J-30000D01*
G01*
X19369500Y-7138000D02*
X19259500Y-7138000D01*
X19259500Y-7138000D02*
G75*
G03*
X19259500Y-7198000I0J-30000D01*
G01*
X19335713Y-8053213D02*
X19335713Y-8010787D01*
X19293287Y-8010787D01*
X19293287Y-8053213D01*
X19335713Y-8053213D01*
X19259500Y-8062000D02*
X19369500Y-8062000D01*
X19369500Y-8002000D02*
G75*
G02*
X19369500Y-8062000I0J-30000D01*
G01*
X19369500Y-8002000D02*
X19259500Y-8002000D01*
X19259500Y-8002000D02*
G75*
G03*
X19259500Y-8062000I0J-30000D01*
G01*
X19753713Y-7189213D02*
X19753713Y-7146787D01*
X19711287Y-7146787D01*
X19711287Y-7189213D01*
X19753713Y-7189213D01*
X19692500Y-7198000D02*
X19772500Y-7198000D01*
X19772500Y-7138000D02*
G75*
G02*
X19772500Y-7198000I0J-30000D01*
G01*
X19772500Y-7138000D02*
X19692500Y-7138000D01*
X19692500Y-7138000D02*
G75*
G03*
X19692500Y-7198000I0J-30000D01*
G01*
X19753713Y-8053213D02*
X19753713Y-8010787D01*
X19711287Y-8010787D01*
X19711287Y-8053213D01*
X19753713Y-8053213D01*
X19692500Y-8062000D02*
X19772500Y-8062000D01*
X19772500Y-8002000D02*
G75*
G02*
X19772500Y-8062000I0J-30000D01*
G01*
X19772500Y-8002000D02*
X19692500Y-8002000D01*
X19692500Y-8002000D02*
G75*
G03*
X19692500Y-8062000I0J-30000D01*
G01*
D11*
X15258277Y-10313984D02*
X15258277Y-10113984D01*
X15258277Y-10113984D02*
X15305896Y-10113984D01*
X15305896Y-10113984D02*
X15334467Y-10123508D01*
X15334467Y-10123508D02*
X15353515Y-10142555D01*
X15353515Y-10142555D02*
X15363039Y-10161603D01*
X15363039Y-10161603D02*
X15372562Y-10199698D01*
X15372562Y-10199698D02*
X15372562Y-10228270D01*
X15372562Y-10228270D02*
X15363039Y-10266365D01*
X15363039Y-10266365D02*
X15353515Y-10285412D01*
X15353515Y-10285412D02*
X15334467Y-10304460D01*
X15334467Y-10304460D02*
X15305896Y-10313984D01*
X15305896Y-10313984D02*
X15258277Y-10313984D01*
X15458277Y-10313984D02*
X15458277Y-10180650D01*
X15458277Y-10218746D02*
X15467801Y-10199698D01*
X15467801Y-10199698D02*
X15477324Y-10190174D01*
X15477324Y-10190174D02*
X15496372Y-10180650D01*
X15496372Y-10180650D02*
X15515420Y-10180650D01*
X15582086Y-10313984D02*
X15582086Y-10180650D01*
X15582086Y-10113984D02*
X15572562Y-10123508D01*
X15572562Y-10123508D02*
X15582086Y-10133031D01*
X15582086Y-10133031D02*
X15591610Y-10123508D01*
X15591610Y-10123508D02*
X15582086Y-10113984D01*
X15582086Y-10113984D02*
X15582086Y-10133031D01*
X15705896Y-10313984D02*
X15686848Y-10304460D01*
X15686848Y-10304460D02*
X15677324Y-10285412D01*
X15677324Y-10285412D02*
X15677324Y-10113984D01*
X15810658Y-10313984D02*
X15791610Y-10304460D01*
X15791610Y-10304460D02*
X15782086Y-10285412D01*
X15782086Y-10285412D02*
X15782086Y-10113984D01*
X16039229Y-10313984D02*
X16039229Y-10113984D01*
X16039229Y-10113984D02*
X16105896Y-10256841D01*
X16105896Y-10256841D02*
X16172562Y-10113984D01*
X16172562Y-10113984D02*
X16172562Y-10313984D01*
X16353515Y-10313984D02*
X16353515Y-10209222D01*
X16353515Y-10209222D02*
X16343991Y-10190174D01*
X16343991Y-10190174D02*
X16324943Y-10180650D01*
X16324943Y-10180650D02*
X16286848Y-10180650D01*
X16286848Y-10180650D02*
X16267801Y-10190174D01*
X16353515Y-10304460D02*
X16334467Y-10313984D01*
X16334467Y-10313984D02*
X16286848Y-10313984D01*
X16286848Y-10313984D02*
X16267801Y-10304460D01*
X16267801Y-10304460D02*
X16258277Y-10285412D01*
X16258277Y-10285412D02*
X16258277Y-10266365D01*
X16258277Y-10266365D02*
X16267801Y-10247317D01*
X16267801Y-10247317D02*
X16286848Y-10237793D01*
X16286848Y-10237793D02*
X16334467Y-10237793D01*
X16334467Y-10237793D02*
X16353515Y-10228270D01*
X16448753Y-10180650D02*
X16448753Y-10380650D01*
X16448753Y-10190174D02*
X16467801Y-10180650D01*
X16467801Y-10180650D02*
X16505896Y-10180650D01*
X16505896Y-10180650D02*
X16524943Y-10190174D01*
X16524943Y-10190174D02*
X16534467Y-10199698D01*
X16534467Y-10199698D02*
X16543991Y-10218746D01*
X16543991Y-10218746D02*
X16543991Y-10275889D01*
X16543991Y-10275889D02*
X16534467Y-10294936D01*
X16534467Y-10294936D02*
X16524943Y-10304460D01*
X16524943Y-10304460D02*
X16505896Y-10313984D01*
X16505896Y-10313984D02*
X16467801Y-10313984D01*
X16467801Y-10313984D02*
X16448753Y-10304460D01*
X16629705Y-10294936D02*
X16639229Y-10304460D01*
X16639229Y-10304460D02*
X16629705Y-10313984D01*
X16629705Y-10313984D02*
X16620182Y-10304460D01*
X16620182Y-10304460D02*
X16629705Y-10294936D01*
X16629705Y-10294936D02*
X16629705Y-10313984D01*
X16629705Y-10190174D02*
X16639229Y-10199698D01*
X16639229Y-10199698D02*
X16629705Y-10209222D01*
X16629705Y-10209222D02*
X16620182Y-10199698D01*
X16620182Y-10199698D02*
X16629705Y-10190174D01*
X16629705Y-10190174D02*
X16629705Y-10209222D01*
D12*
X14977500Y-10632500D02*
X14997500Y-10652500D01*
X14997500Y-10632500D02*
X14977500Y-10652500D01*
D11*
X15296372Y-10533984D02*
X15315420Y-10533984D01*
X15315420Y-10533984D02*
X15334467Y-10543508D01*
X15334467Y-10543508D02*
X15343991Y-10553031D01*
X15343991Y-10553031D02*
X15353515Y-10572079D01*
X15353515Y-10572079D02*
X15363039Y-10610174D01*
X15363039Y-10610174D02*
X15363039Y-10657793D01*
X15363039Y-10657793D02*
X15353515Y-10695889D01*
X15353515Y-10695889D02*
X15343991Y-10714936D01*
X15343991Y-10714936D02*
X15334467Y-10724460D01*
X15334467Y-10724460D02*
X15315420Y-10733984D01*
X15315420Y-10733984D02*
X15296372Y-10733984D01*
X15296372Y-10733984D02*
X15277324Y-10724460D01*
X15277324Y-10724460D02*
X15267801Y-10714936D01*
X15267801Y-10714936D02*
X15258277Y-10695889D01*
X15258277Y-10695889D02*
X15248753Y-10657793D01*
X15248753Y-10657793D02*
X15248753Y-10610174D01*
X15248753Y-10610174D02*
X15258277Y-10572079D01*
X15258277Y-10572079D02*
X15267801Y-10553031D01*
X15267801Y-10553031D02*
X15277324Y-10543508D01*
X15277324Y-10543508D02*
X15296372Y-10533984D01*
X15448753Y-10714936D02*
X15458277Y-10724460D01*
X15458277Y-10724460D02*
X15448753Y-10733984D01*
X15448753Y-10733984D02*
X15439229Y-10724460D01*
X15439229Y-10724460D02*
X15448753Y-10714936D01*
X15448753Y-10714936D02*
X15448753Y-10733984D01*
X15534467Y-10553031D02*
X15543991Y-10543508D01*
X15543991Y-10543508D02*
X15563039Y-10533984D01*
X15563039Y-10533984D02*
X15610658Y-10533984D01*
X15610658Y-10533984D02*
X15629705Y-10543508D01*
X15629705Y-10543508D02*
X15639229Y-10553031D01*
X15639229Y-10553031D02*
X15648753Y-10572079D01*
X15648753Y-10572079D02*
X15648753Y-10591127D01*
X15648753Y-10591127D02*
X15639229Y-10619698D01*
X15639229Y-10619698D02*
X15524943Y-10733984D01*
X15524943Y-10733984D02*
X15648753Y-10733984D01*
X15772562Y-10533984D02*
X15791610Y-10533984D01*
X15791610Y-10533984D02*
X15810658Y-10543508D01*
X15810658Y-10543508D02*
X15820182Y-10553031D01*
X15820182Y-10553031D02*
X15829705Y-10572079D01*
X15829705Y-10572079D02*
X15839229Y-10610174D01*
X15839229Y-10610174D02*
X15839229Y-10657793D01*
X15839229Y-10657793D02*
X15829705Y-10695889D01*
X15829705Y-10695889D02*
X15820182Y-10714936D01*
X15820182Y-10714936D02*
X15810658Y-10724460D01*
X15810658Y-10724460D02*
X15791610Y-10733984D01*
X15791610Y-10733984D02*
X15772562Y-10733984D01*
X15772562Y-10733984D02*
X15753515Y-10724460D01*
X15753515Y-10724460D02*
X15743991Y-10714936D01*
X15743991Y-10714936D02*
X15734467Y-10695889D01*
X15734467Y-10695889D02*
X15724943Y-10657793D01*
X15724943Y-10657793D02*
X15724943Y-10610174D01*
X15724943Y-10610174D02*
X15734467Y-10572079D01*
X15734467Y-10572079D02*
X15743991Y-10553031D01*
X15743991Y-10553031D02*
X15753515Y-10543508D01*
X15753515Y-10543508D02*
X15772562Y-10533984D01*
X15963039Y-10533984D02*
X15982086Y-10533984D01*
X15982086Y-10533984D02*
X16001134Y-10543508D01*
X16001134Y-10543508D02*
X16010658Y-10553031D01*
X16010658Y-10553031D02*
X16020182Y-10572079D01*
X16020182Y-10572079D02*
X16029705Y-10610174D01*
X16029705Y-10610174D02*
X16029705Y-10657793D01*
X16029705Y-10657793D02*
X16020182Y-10695889D01*
X16020182Y-10695889D02*
X16010658Y-10714936D01*
X16010658Y-10714936D02*
X16001134Y-10724460D01*
X16001134Y-10724460D02*
X15982086Y-10733984D01*
X15982086Y-10733984D02*
X15963039Y-10733984D01*
X15963039Y-10733984D02*
X15943991Y-10724460D01*
X15943991Y-10724460D02*
X15934467Y-10714936D01*
X15934467Y-10714936D02*
X15924943Y-10695889D01*
X15924943Y-10695889D02*
X15915420Y-10657793D01*
X15915420Y-10657793D02*
X15915420Y-10610174D01*
X15915420Y-10610174D02*
X15924943Y-10572079D01*
X15924943Y-10572079D02*
X15934467Y-10553031D01*
X15934467Y-10553031D02*
X15943991Y-10543508D01*
X15943991Y-10543508D02*
X15963039Y-10533984D01*
X16115420Y-10733984D02*
X16115420Y-10600650D01*
X16115420Y-10619698D02*
X16124943Y-10610174D01*
X16124943Y-10610174D02*
X16143991Y-10600650D01*
X16143991Y-10600650D02*
X16172563Y-10600650D01*
X16172563Y-10600650D02*
X16191610Y-10610174D01*
X16191610Y-10610174D02*
X16201134Y-10629222D01*
X16201134Y-10629222D02*
X16201134Y-10733984D01*
X16201134Y-10629222D02*
X16210658Y-10610174D01*
X16210658Y-10610174D02*
X16229705Y-10600650D01*
X16229705Y-10600650D02*
X16258277Y-10600650D01*
X16258277Y-10600650D02*
X16277324Y-10610174D01*
X16277324Y-10610174D02*
X16286848Y-10629222D01*
X16286848Y-10629222D02*
X16286848Y-10733984D01*
X16382086Y-10733984D02*
X16382086Y-10600650D01*
X16382086Y-10619698D02*
X16391610Y-10610174D01*
X16391610Y-10610174D02*
X16410658Y-10600650D01*
X16410658Y-10600650D02*
X16439229Y-10600650D01*
X16439229Y-10600650D02*
X16458277Y-10610174D01*
X16458277Y-10610174D02*
X16467801Y-10629222D01*
X16467801Y-10629222D02*
X16467801Y-10733984D01*
X16467801Y-10629222D02*
X16477324Y-10610174D01*
X16477324Y-10610174D02*
X16496372Y-10600650D01*
X16496372Y-10600650D02*
X16524943Y-10600650D01*
X16524943Y-10600650D02*
X16543991Y-10610174D01*
X16543991Y-10610174D02*
X16553515Y-10629222D01*
X16553515Y-10629222D02*
X16553515Y-10733984D01*
X16943991Y-10524460D02*
X16772563Y-10781603D01*
X17201134Y-10533984D02*
X17220182Y-10533984D01*
X17220182Y-10533984D02*
X17239229Y-10543508D01*
X17239229Y-10543508D02*
X17248753Y-10553031D01*
X17248753Y-10553031D02*
X17258277Y-10572079D01*
X17258277Y-10572079D02*
X17267801Y-10610174D01*
X17267801Y-10610174D02*
X17267801Y-10657793D01*
X17267801Y-10657793D02*
X17258277Y-10695889D01*
X17258277Y-10695889D02*
X17248753Y-10714936D01*
X17248753Y-10714936D02*
X17239229Y-10724460D01*
X17239229Y-10724460D02*
X17220182Y-10733984D01*
X17220182Y-10733984D02*
X17201134Y-10733984D01*
X17201134Y-10733984D02*
X17182087Y-10724460D01*
X17182087Y-10724460D02*
X17172563Y-10714936D01*
X17172563Y-10714936D02*
X17163039Y-10695889D01*
X17163039Y-10695889D02*
X17153515Y-10657793D01*
X17153515Y-10657793D02*
X17153515Y-10610174D01*
X17153515Y-10610174D02*
X17163039Y-10572079D01*
X17163039Y-10572079D02*
X17172563Y-10553031D01*
X17172563Y-10553031D02*
X17182087Y-10543508D01*
X17182087Y-10543508D02*
X17201134Y-10533984D01*
X17353515Y-10714936D02*
X17363039Y-10724460D01*
X17363039Y-10724460D02*
X17353515Y-10733984D01*
X17353515Y-10733984D02*
X17343991Y-10724460D01*
X17343991Y-10724460D02*
X17353515Y-10714936D01*
X17353515Y-10714936D02*
X17353515Y-10733984D01*
X17486848Y-10533984D02*
X17505896Y-10533984D01*
X17505896Y-10533984D02*
X17524944Y-10543508D01*
X17524944Y-10543508D02*
X17534468Y-10553031D01*
X17534468Y-10553031D02*
X17543991Y-10572079D01*
X17543991Y-10572079D02*
X17553515Y-10610174D01*
X17553515Y-10610174D02*
X17553515Y-10657793D01*
X17553515Y-10657793D02*
X17543991Y-10695889D01*
X17543991Y-10695889D02*
X17534468Y-10714936D01*
X17534468Y-10714936D02*
X17524944Y-10724460D01*
X17524944Y-10724460D02*
X17505896Y-10733984D01*
X17505896Y-10733984D02*
X17486848Y-10733984D01*
X17486848Y-10733984D02*
X17467801Y-10724460D01*
X17467801Y-10724460D02*
X17458277Y-10714936D01*
X17458277Y-10714936D02*
X17448753Y-10695889D01*
X17448753Y-10695889D02*
X17439229Y-10657793D01*
X17439229Y-10657793D02*
X17439229Y-10610174D01*
X17439229Y-10610174D02*
X17448753Y-10572079D01*
X17448753Y-10572079D02*
X17458277Y-10553031D01*
X17458277Y-10553031D02*
X17467801Y-10543508D01*
X17467801Y-10543508D02*
X17486848Y-10533984D01*
X17677325Y-10533984D02*
X17696372Y-10533984D01*
X17696372Y-10533984D02*
X17715420Y-10543508D01*
X17715420Y-10543508D02*
X17724944Y-10553031D01*
X17724944Y-10553031D02*
X17734468Y-10572079D01*
X17734468Y-10572079D02*
X17743991Y-10610174D01*
X17743991Y-10610174D02*
X17743991Y-10657793D01*
X17743991Y-10657793D02*
X17734468Y-10695889D01*
X17734468Y-10695889D02*
X17724944Y-10714936D01*
X17724944Y-10714936D02*
X17715420Y-10724460D01*
X17715420Y-10724460D02*
X17696372Y-10733984D01*
X17696372Y-10733984D02*
X17677325Y-10733984D01*
X17677325Y-10733984D02*
X17658277Y-10724460D01*
X17658277Y-10724460D02*
X17648753Y-10714936D01*
X17648753Y-10714936D02*
X17639229Y-10695889D01*
X17639229Y-10695889D02*
X17629706Y-10657793D01*
X17629706Y-10657793D02*
X17629706Y-10610174D01*
X17629706Y-10610174D02*
X17639229Y-10572079D01*
X17639229Y-10572079D02*
X17648753Y-10553031D01*
X17648753Y-10553031D02*
X17658277Y-10543508D01*
X17658277Y-10543508D02*
X17677325Y-10533984D01*
X17810658Y-10533984D02*
X17943991Y-10533984D01*
X17943991Y-10533984D02*
X17858277Y-10733984D01*
X18029706Y-10733984D02*
X18067801Y-10733984D01*
X18067801Y-10733984D02*
X18086849Y-10724460D01*
X18086849Y-10724460D02*
X18096372Y-10714936D01*
X18096372Y-10714936D02*
X18115420Y-10686365D01*
X18115420Y-10686365D02*
X18124944Y-10648270D01*
X18124944Y-10648270D02*
X18124944Y-10572079D01*
X18124944Y-10572079D02*
X18115420Y-10553031D01*
X18115420Y-10553031D02*
X18105896Y-10543508D01*
X18105896Y-10543508D02*
X18086849Y-10533984D01*
X18086849Y-10533984D02*
X18048753Y-10533984D01*
X18048753Y-10533984D02*
X18029706Y-10543508D01*
X18029706Y-10543508D02*
X18020182Y-10553031D01*
X18020182Y-10553031D02*
X18010658Y-10572079D01*
X18010658Y-10572079D02*
X18010658Y-10619698D01*
X18010658Y-10619698D02*
X18020182Y-10638746D01*
X18020182Y-10638746D02*
X18029706Y-10648270D01*
X18029706Y-10648270D02*
X18048753Y-10657793D01*
X18048753Y-10657793D02*
X18086849Y-10657793D01*
X18086849Y-10657793D02*
X18105896Y-10648270D01*
X18105896Y-10648270D02*
X18115420Y-10638746D01*
X18115420Y-10638746D02*
X18124944Y-10619698D01*
X18201134Y-10533984D02*
X18201134Y-10572079D01*
X18277325Y-10533984D02*
X18277325Y-10572079D01*
X18572563Y-10810174D02*
X18563039Y-10800650D01*
X18563039Y-10800650D02*
X18543991Y-10772079D01*
X18543991Y-10772079D02*
X18534468Y-10753031D01*
X18534468Y-10753031D02*
X18524944Y-10724460D01*
X18524944Y-10724460D02*
X18515420Y-10676841D01*
X18515420Y-10676841D02*
X18515420Y-10638746D01*
X18515420Y-10638746D02*
X18524944Y-10591127D01*
X18524944Y-10591127D02*
X18534468Y-10562555D01*
X18534468Y-10562555D02*
X18543991Y-10543508D01*
X18543991Y-10543508D02*
X18563039Y-10514936D01*
X18563039Y-10514936D02*
X18572563Y-10505412D01*
X18639230Y-10553031D02*
X18648753Y-10543508D01*
X18648753Y-10543508D02*
X18667801Y-10533984D01*
X18667801Y-10533984D02*
X18715420Y-10533984D01*
X18715420Y-10533984D02*
X18734468Y-10543508D01*
X18734468Y-10543508D02*
X18743991Y-10553031D01*
X18743991Y-10553031D02*
X18753515Y-10572079D01*
X18753515Y-10572079D02*
X18753515Y-10591127D01*
X18753515Y-10591127D02*
X18743991Y-10619698D01*
X18743991Y-10619698D02*
X18629706Y-10733984D01*
X18629706Y-10733984D02*
X18753515Y-10733984D01*
X18991611Y-10733984D02*
X18991611Y-10533984D01*
X19077325Y-10733984D02*
X19077325Y-10629222D01*
X19077325Y-10629222D02*
X19067801Y-10610174D01*
X19067801Y-10610174D02*
X19048753Y-10600650D01*
X19048753Y-10600650D02*
X19020182Y-10600650D01*
X19020182Y-10600650D02*
X19001134Y-10610174D01*
X19001134Y-10610174D02*
X18991611Y-10619698D01*
X19201134Y-10733984D02*
X19182087Y-10724460D01*
X19182087Y-10724460D02*
X19172563Y-10714936D01*
X19172563Y-10714936D02*
X19163039Y-10695889D01*
X19163039Y-10695889D02*
X19163039Y-10638746D01*
X19163039Y-10638746D02*
X19172563Y-10619698D01*
X19172563Y-10619698D02*
X19182087Y-10610174D01*
X19182087Y-10610174D02*
X19201134Y-10600650D01*
X19201134Y-10600650D02*
X19229706Y-10600650D01*
X19229706Y-10600650D02*
X19248753Y-10610174D01*
X19248753Y-10610174D02*
X19258277Y-10619698D01*
X19258277Y-10619698D02*
X19267801Y-10638746D01*
X19267801Y-10638746D02*
X19267801Y-10695889D01*
X19267801Y-10695889D02*
X19258277Y-10714936D01*
X19258277Y-10714936D02*
X19248753Y-10724460D01*
X19248753Y-10724460D02*
X19229706Y-10733984D01*
X19229706Y-10733984D02*
X19201134Y-10733984D01*
X19382087Y-10733984D02*
X19363039Y-10724460D01*
X19363039Y-10724460D02*
X19353515Y-10705412D01*
X19353515Y-10705412D02*
X19353515Y-10533984D01*
X19534468Y-10724460D02*
X19515420Y-10733984D01*
X19515420Y-10733984D02*
X19477325Y-10733984D01*
X19477325Y-10733984D02*
X19458277Y-10724460D01*
X19458277Y-10724460D02*
X19448753Y-10705412D01*
X19448753Y-10705412D02*
X19448753Y-10629222D01*
X19448753Y-10629222D02*
X19458277Y-10610174D01*
X19458277Y-10610174D02*
X19477325Y-10600650D01*
X19477325Y-10600650D02*
X19515420Y-10600650D01*
X19515420Y-10600650D02*
X19534468Y-10610174D01*
X19534468Y-10610174D02*
X19543992Y-10629222D01*
X19543992Y-10629222D02*
X19543992Y-10648270D01*
X19543992Y-10648270D02*
X19448753Y-10667317D01*
X19620182Y-10724460D02*
X19639230Y-10733984D01*
X19639230Y-10733984D02*
X19677325Y-10733984D01*
X19677325Y-10733984D02*
X19696373Y-10724460D01*
X19696373Y-10724460D02*
X19705896Y-10705412D01*
X19705896Y-10705412D02*
X19705896Y-10695889D01*
X19705896Y-10695889D02*
X19696373Y-10676841D01*
X19696373Y-10676841D02*
X19677325Y-10667317D01*
X19677325Y-10667317D02*
X19648753Y-10667317D01*
X19648753Y-10667317D02*
X19629706Y-10657793D01*
X19629706Y-10657793D02*
X19620182Y-10638746D01*
X19620182Y-10638746D02*
X19620182Y-10629222D01*
X19620182Y-10629222D02*
X19629706Y-10610174D01*
X19629706Y-10610174D02*
X19648753Y-10600650D01*
X19648753Y-10600650D02*
X19677325Y-10600650D01*
X19677325Y-10600650D02*
X19696373Y-10610174D01*
X19772563Y-10810174D02*
X19782087Y-10800650D01*
X19782087Y-10800650D02*
X19801134Y-10772079D01*
X19801134Y-10772079D02*
X19810658Y-10753031D01*
X19810658Y-10753031D02*
X19820182Y-10724460D01*
X19820182Y-10724460D02*
X19829706Y-10676841D01*
X19829706Y-10676841D02*
X19829706Y-10638746D01*
X19829706Y-10638746D02*
X19820182Y-10591127D01*
X19820182Y-10591127D02*
X19810658Y-10562555D01*
X19810658Y-10562555D02*
X19801134Y-10543508D01*
X19801134Y-10543508D02*
X19782087Y-10514936D01*
X19782087Y-10514936D02*
X19772563Y-10505412D01*
D12*
X14997500Y-10906500D02*
G75*
G02*
X14967500Y-10906500I-15000J0D01*
G01*
X14967500Y-10906500D02*
G75*
G02*
X14997500Y-10906500I15000J0D01*
G01*
D11*
X15296372Y-10797984D02*
X15315420Y-10797984D01*
X15315420Y-10797984D02*
X15334467Y-10807508D01*
X15334467Y-10807508D02*
X15343991Y-10817031D01*
X15343991Y-10817031D02*
X15353515Y-10836079D01*
X15353515Y-10836079D02*
X15363039Y-10874174D01*
X15363039Y-10874174D02*
X15363039Y-10921793D01*
X15363039Y-10921793D02*
X15353515Y-10959889D01*
X15353515Y-10959889D02*
X15343991Y-10978936D01*
X15343991Y-10978936D02*
X15334467Y-10988460D01*
X15334467Y-10988460D02*
X15315420Y-10997984D01*
X15315420Y-10997984D02*
X15296372Y-10997984D01*
X15296372Y-10997984D02*
X15277324Y-10988460D01*
X15277324Y-10988460D02*
X15267801Y-10978936D01*
X15267801Y-10978936D02*
X15258277Y-10959889D01*
X15258277Y-10959889D02*
X15248753Y-10921793D01*
X15248753Y-10921793D02*
X15248753Y-10874174D01*
X15248753Y-10874174D02*
X15258277Y-10836079D01*
X15258277Y-10836079D02*
X15267801Y-10817031D01*
X15267801Y-10817031D02*
X15277324Y-10807508D01*
X15277324Y-10807508D02*
X15296372Y-10797984D01*
X15448753Y-10978936D02*
X15458277Y-10988460D01*
X15458277Y-10988460D02*
X15448753Y-10997984D01*
X15448753Y-10997984D02*
X15439229Y-10988460D01*
X15439229Y-10988460D02*
X15448753Y-10978936D01*
X15448753Y-10978936D02*
X15448753Y-10997984D01*
X15524943Y-10797984D02*
X15648753Y-10797984D01*
X15648753Y-10797984D02*
X15582086Y-10874174D01*
X15582086Y-10874174D02*
X15610658Y-10874174D01*
X15610658Y-10874174D02*
X15629705Y-10883698D01*
X15629705Y-10883698D02*
X15639229Y-10893222D01*
X15639229Y-10893222D02*
X15648753Y-10912270D01*
X15648753Y-10912270D02*
X15648753Y-10959889D01*
X15648753Y-10959889D02*
X15639229Y-10978936D01*
X15639229Y-10978936D02*
X15629705Y-10988460D01*
X15629705Y-10988460D02*
X15610658Y-10997984D01*
X15610658Y-10997984D02*
X15553515Y-10997984D01*
X15553515Y-10997984D02*
X15534467Y-10988460D01*
X15534467Y-10988460D02*
X15524943Y-10978936D01*
X15772562Y-10797984D02*
X15791610Y-10797984D01*
X15791610Y-10797984D02*
X15810658Y-10807508D01*
X15810658Y-10807508D02*
X15820182Y-10817031D01*
X15820182Y-10817031D02*
X15829705Y-10836079D01*
X15829705Y-10836079D02*
X15839229Y-10874174D01*
X15839229Y-10874174D02*
X15839229Y-10921793D01*
X15839229Y-10921793D02*
X15829705Y-10959889D01*
X15829705Y-10959889D02*
X15820182Y-10978936D01*
X15820182Y-10978936D02*
X15810658Y-10988460D01*
X15810658Y-10988460D02*
X15791610Y-10997984D01*
X15791610Y-10997984D02*
X15772562Y-10997984D01*
X15772562Y-10997984D02*
X15753515Y-10988460D01*
X15753515Y-10988460D02*
X15743991Y-10978936D01*
X15743991Y-10978936D02*
X15734467Y-10959889D01*
X15734467Y-10959889D02*
X15724943Y-10921793D01*
X15724943Y-10921793D02*
X15724943Y-10874174D01*
X15724943Y-10874174D02*
X15734467Y-10836079D01*
X15734467Y-10836079D02*
X15743991Y-10817031D01*
X15743991Y-10817031D02*
X15753515Y-10807508D01*
X15753515Y-10807508D02*
X15772562Y-10797984D01*
X15963039Y-10797984D02*
X15982086Y-10797984D01*
X15982086Y-10797984D02*
X16001134Y-10807508D01*
X16001134Y-10807508D02*
X16010658Y-10817031D01*
X16010658Y-10817031D02*
X16020182Y-10836079D01*
X16020182Y-10836079D02*
X16029705Y-10874174D01*
X16029705Y-10874174D02*
X16029705Y-10921793D01*
X16029705Y-10921793D02*
X16020182Y-10959889D01*
X16020182Y-10959889D02*
X16010658Y-10978936D01*
X16010658Y-10978936D02*
X16001134Y-10988460D01*
X16001134Y-10988460D02*
X15982086Y-10997984D01*
X15982086Y-10997984D02*
X15963039Y-10997984D01*
X15963039Y-10997984D02*
X15943991Y-10988460D01*
X15943991Y-10988460D02*
X15934467Y-10978936D01*
X15934467Y-10978936D02*
X15924943Y-10959889D01*
X15924943Y-10959889D02*
X15915420Y-10921793D01*
X15915420Y-10921793D02*
X15915420Y-10874174D01*
X15915420Y-10874174D02*
X15924943Y-10836079D01*
X15924943Y-10836079D02*
X15934467Y-10817031D01*
X15934467Y-10817031D02*
X15943991Y-10807508D01*
X15943991Y-10807508D02*
X15963039Y-10797984D01*
X16115420Y-10997984D02*
X16115420Y-10864650D01*
X16115420Y-10883698D02*
X16124943Y-10874174D01*
X16124943Y-10874174D02*
X16143991Y-10864650D01*
X16143991Y-10864650D02*
X16172563Y-10864650D01*
X16172563Y-10864650D02*
X16191610Y-10874174D01*
X16191610Y-10874174D02*
X16201134Y-10893222D01*
X16201134Y-10893222D02*
X16201134Y-10997984D01*
X16201134Y-10893222D02*
X16210658Y-10874174D01*
X16210658Y-10874174D02*
X16229705Y-10864650D01*
X16229705Y-10864650D02*
X16258277Y-10864650D01*
X16258277Y-10864650D02*
X16277324Y-10874174D01*
X16277324Y-10874174D02*
X16286848Y-10893222D01*
X16286848Y-10893222D02*
X16286848Y-10997984D01*
X16382086Y-10997984D02*
X16382086Y-10864650D01*
X16382086Y-10883698D02*
X16391610Y-10874174D01*
X16391610Y-10874174D02*
X16410658Y-10864650D01*
X16410658Y-10864650D02*
X16439229Y-10864650D01*
X16439229Y-10864650D02*
X16458277Y-10874174D01*
X16458277Y-10874174D02*
X16467801Y-10893222D01*
X16467801Y-10893222D02*
X16467801Y-10997984D01*
X16467801Y-10893222D02*
X16477324Y-10874174D01*
X16477324Y-10874174D02*
X16496372Y-10864650D01*
X16496372Y-10864650D02*
X16524943Y-10864650D01*
X16524943Y-10864650D02*
X16543991Y-10874174D01*
X16543991Y-10874174D02*
X16553515Y-10893222D01*
X16553515Y-10893222D02*
X16553515Y-10997984D01*
X16943991Y-10788460D02*
X16772563Y-11045603D01*
X17201134Y-10797984D02*
X17220182Y-10797984D01*
X17220182Y-10797984D02*
X17239229Y-10807508D01*
X17239229Y-10807508D02*
X17248753Y-10817031D01*
X17248753Y-10817031D02*
X17258277Y-10836079D01*
X17258277Y-10836079D02*
X17267801Y-10874174D01*
X17267801Y-10874174D02*
X17267801Y-10921793D01*
X17267801Y-10921793D02*
X17258277Y-10959889D01*
X17258277Y-10959889D02*
X17248753Y-10978936D01*
X17248753Y-10978936D02*
X17239229Y-10988460D01*
X17239229Y-10988460D02*
X17220182Y-10997984D01*
X17220182Y-10997984D02*
X17201134Y-10997984D01*
X17201134Y-10997984D02*
X17182087Y-10988460D01*
X17182087Y-10988460D02*
X17172563Y-10978936D01*
X17172563Y-10978936D02*
X17163039Y-10959889D01*
X17163039Y-10959889D02*
X17153515Y-10921793D01*
X17153515Y-10921793D02*
X17153515Y-10874174D01*
X17153515Y-10874174D02*
X17163039Y-10836079D01*
X17163039Y-10836079D02*
X17172563Y-10817031D01*
X17172563Y-10817031D02*
X17182087Y-10807508D01*
X17182087Y-10807508D02*
X17201134Y-10797984D01*
X17353515Y-10978936D02*
X17363039Y-10988460D01*
X17363039Y-10988460D02*
X17353515Y-10997984D01*
X17353515Y-10997984D02*
X17343991Y-10988460D01*
X17343991Y-10988460D02*
X17353515Y-10978936D01*
X17353515Y-10978936D02*
X17353515Y-10997984D01*
X17486848Y-10797984D02*
X17505896Y-10797984D01*
X17505896Y-10797984D02*
X17524944Y-10807508D01*
X17524944Y-10807508D02*
X17534468Y-10817031D01*
X17534468Y-10817031D02*
X17543991Y-10836079D01*
X17543991Y-10836079D02*
X17553515Y-10874174D01*
X17553515Y-10874174D02*
X17553515Y-10921793D01*
X17553515Y-10921793D02*
X17543991Y-10959889D01*
X17543991Y-10959889D02*
X17534468Y-10978936D01*
X17534468Y-10978936D02*
X17524944Y-10988460D01*
X17524944Y-10988460D02*
X17505896Y-10997984D01*
X17505896Y-10997984D02*
X17486848Y-10997984D01*
X17486848Y-10997984D02*
X17467801Y-10988460D01*
X17467801Y-10988460D02*
X17458277Y-10978936D01*
X17458277Y-10978936D02*
X17448753Y-10959889D01*
X17448753Y-10959889D02*
X17439229Y-10921793D01*
X17439229Y-10921793D02*
X17439229Y-10874174D01*
X17439229Y-10874174D02*
X17448753Y-10836079D01*
X17448753Y-10836079D02*
X17458277Y-10817031D01*
X17458277Y-10817031D02*
X17467801Y-10807508D01*
X17467801Y-10807508D02*
X17486848Y-10797984D01*
X17743991Y-10997984D02*
X17629706Y-10997984D01*
X17686848Y-10997984D02*
X17686848Y-10797984D01*
X17686848Y-10797984D02*
X17667801Y-10826555D01*
X17667801Y-10826555D02*
X17648753Y-10845603D01*
X17648753Y-10845603D02*
X17629706Y-10855127D01*
X17934468Y-10997984D02*
X17820182Y-10997984D01*
X17877325Y-10997984D02*
X17877325Y-10797984D01*
X17877325Y-10797984D02*
X17858277Y-10826555D01*
X17858277Y-10826555D02*
X17839229Y-10845603D01*
X17839229Y-10845603D02*
X17820182Y-10855127D01*
X18048753Y-10883698D02*
X18029706Y-10874174D01*
X18029706Y-10874174D02*
X18020182Y-10864650D01*
X18020182Y-10864650D02*
X18010658Y-10845603D01*
X18010658Y-10845603D02*
X18010658Y-10836079D01*
X18010658Y-10836079D02*
X18020182Y-10817031D01*
X18020182Y-10817031D02*
X18029706Y-10807508D01*
X18029706Y-10807508D02*
X18048753Y-10797984D01*
X18048753Y-10797984D02*
X18086849Y-10797984D01*
X18086849Y-10797984D02*
X18105896Y-10807508D01*
X18105896Y-10807508D02*
X18115420Y-10817031D01*
X18115420Y-10817031D02*
X18124944Y-10836079D01*
X18124944Y-10836079D02*
X18124944Y-10845603D01*
X18124944Y-10845603D02*
X18115420Y-10864650D01*
X18115420Y-10864650D02*
X18105896Y-10874174D01*
X18105896Y-10874174D02*
X18086849Y-10883698D01*
X18086849Y-10883698D02*
X18048753Y-10883698D01*
X18048753Y-10883698D02*
X18029706Y-10893222D01*
X18029706Y-10893222D02*
X18020182Y-10902746D01*
X18020182Y-10902746D02*
X18010658Y-10921793D01*
X18010658Y-10921793D02*
X18010658Y-10959889D01*
X18010658Y-10959889D02*
X18020182Y-10978936D01*
X18020182Y-10978936D02*
X18029706Y-10988460D01*
X18029706Y-10988460D02*
X18048753Y-10997984D01*
X18048753Y-10997984D02*
X18086849Y-10997984D01*
X18086849Y-10997984D02*
X18105896Y-10988460D01*
X18105896Y-10988460D02*
X18115420Y-10978936D01*
X18115420Y-10978936D02*
X18124944Y-10959889D01*
X18124944Y-10959889D02*
X18124944Y-10921793D01*
X18124944Y-10921793D02*
X18115420Y-10902746D01*
X18115420Y-10902746D02*
X18105896Y-10893222D01*
X18105896Y-10893222D02*
X18086849Y-10883698D01*
X18201134Y-10797984D02*
X18201134Y-10836079D01*
X18277325Y-10797984D02*
X18277325Y-10836079D01*
X18572563Y-11074174D02*
X18563039Y-11064650D01*
X18563039Y-11064650D02*
X18543991Y-11036079D01*
X18543991Y-11036079D02*
X18534468Y-11017031D01*
X18534468Y-11017031D02*
X18524944Y-10988460D01*
X18524944Y-10988460D02*
X18515420Y-10940841D01*
X18515420Y-10940841D02*
X18515420Y-10902746D01*
X18515420Y-10902746D02*
X18524944Y-10855127D01*
X18524944Y-10855127D02*
X18534468Y-10826555D01*
X18534468Y-10826555D02*
X18543991Y-10807508D01*
X18543991Y-10807508D02*
X18563039Y-10778936D01*
X18563039Y-10778936D02*
X18572563Y-10769412D01*
X18639230Y-10817031D02*
X18648753Y-10807508D01*
X18648753Y-10807508D02*
X18667801Y-10797984D01*
X18667801Y-10797984D02*
X18715420Y-10797984D01*
X18715420Y-10797984D02*
X18734468Y-10807508D01*
X18734468Y-10807508D02*
X18743991Y-10817031D01*
X18743991Y-10817031D02*
X18753515Y-10836079D01*
X18753515Y-10836079D02*
X18753515Y-10855127D01*
X18753515Y-10855127D02*
X18743991Y-10883698D01*
X18743991Y-10883698D02*
X18629706Y-10997984D01*
X18629706Y-10997984D02*
X18753515Y-10997984D01*
X18820182Y-10797984D02*
X18943991Y-10797984D01*
X18943991Y-10797984D02*
X18877325Y-10874174D01*
X18877325Y-10874174D02*
X18905896Y-10874174D01*
X18905896Y-10874174D02*
X18924944Y-10883698D01*
X18924944Y-10883698D02*
X18934468Y-10893222D01*
X18934468Y-10893222D02*
X18943991Y-10912270D01*
X18943991Y-10912270D02*
X18943991Y-10959889D01*
X18943991Y-10959889D02*
X18934468Y-10978936D01*
X18934468Y-10978936D02*
X18924944Y-10988460D01*
X18924944Y-10988460D02*
X18905896Y-10997984D01*
X18905896Y-10997984D02*
X18848753Y-10997984D01*
X18848753Y-10997984D02*
X18829706Y-10988460D01*
X18829706Y-10988460D02*
X18820182Y-10978936D01*
X19058277Y-10883698D02*
X19039230Y-10874174D01*
X19039230Y-10874174D02*
X19029706Y-10864650D01*
X19029706Y-10864650D02*
X19020182Y-10845603D01*
X19020182Y-10845603D02*
X19020182Y-10836079D01*
X19020182Y-10836079D02*
X19029706Y-10817031D01*
X19029706Y-10817031D02*
X19039230Y-10807508D01*
X19039230Y-10807508D02*
X19058277Y-10797984D01*
X19058277Y-10797984D02*
X19096372Y-10797984D01*
X19096372Y-10797984D02*
X19115420Y-10807508D01*
X19115420Y-10807508D02*
X19124944Y-10817031D01*
X19124944Y-10817031D02*
X19134468Y-10836079D01*
X19134468Y-10836079D02*
X19134468Y-10845603D01*
X19134468Y-10845603D02*
X19124944Y-10864650D01*
X19124944Y-10864650D02*
X19115420Y-10874174D01*
X19115420Y-10874174D02*
X19096372Y-10883698D01*
X19096372Y-10883698D02*
X19058277Y-10883698D01*
X19058277Y-10883698D02*
X19039230Y-10893222D01*
X19039230Y-10893222D02*
X19029706Y-10902746D01*
X19029706Y-10902746D02*
X19020182Y-10921793D01*
X19020182Y-10921793D02*
X19020182Y-10959889D01*
X19020182Y-10959889D02*
X19029706Y-10978936D01*
X19029706Y-10978936D02*
X19039230Y-10988460D01*
X19039230Y-10988460D02*
X19058277Y-10997984D01*
X19058277Y-10997984D02*
X19096372Y-10997984D01*
X19096372Y-10997984D02*
X19115420Y-10988460D01*
X19115420Y-10988460D02*
X19124944Y-10978936D01*
X19124944Y-10978936D02*
X19134468Y-10959889D01*
X19134468Y-10959889D02*
X19134468Y-10921793D01*
X19134468Y-10921793D02*
X19124944Y-10902746D01*
X19124944Y-10902746D02*
X19115420Y-10893222D01*
X19115420Y-10893222D02*
X19096372Y-10883698D01*
X19372563Y-10997984D02*
X19372563Y-10797984D01*
X19458277Y-10997984D02*
X19458277Y-10893222D01*
X19458277Y-10893222D02*
X19448753Y-10874174D01*
X19448753Y-10874174D02*
X19429706Y-10864650D01*
X19429706Y-10864650D02*
X19401134Y-10864650D01*
X19401134Y-10864650D02*
X19382087Y-10874174D01*
X19382087Y-10874174D02*
X19372563Y-10883698D01*
X19582087Y-10997984D02*
X19563039Y-10988460D01*
X19563039Y-10988460D02*
X19553515Y-10978936D01*
X19553515Y-10978936D02*
X19543992Y-10959889D01*
X19543992Y-10959889D02*
X19543992Y-10902746D01*
X19543992Y-10902746D02*
X19553515Y-10883698D01*
X19553515Y-10883698D02*
X19563039Y-10874174D01*
X19563039Y-10874174D02*
X19582087Y-10864650D01*
X19582087Y-10864650D02*
X19610658Y-10864650D01*
X19610658Y-10864650D02*
X19629706Y-10874174D01*
X19629706Y-10874174D02*
X19639230Y-10883698D01*
X19639230Y-10883698D02*
X19648753Y-10902746D01*
X19648753Y-10902746D02*
X19648753Y-10959889D01*
X19648753Y-10959889D02*
X19639230Y-10978936D01*
X19639230Y-10978936D02*
X19629706Y-10988460D01*
X19629706Y-10988460D02*
X19610658Y-10997984D01*
X19610658Y-10997984D02*
X19582087Y-10997984D01*
X19763039Y-10997984D02*
X19743992Y-10988460D01*
X19743992Y-10988460D02*
X19734468Y-10969412D01*
X19734468Y-10969412D02*
X19734468Y-10797984D01*
X19915420Y-10988460D02*
X19896373Y-10997984D01*
X19896373Y-10997984D02*
X19858277Y-10997984D01*
X19858277Y-10997984D02*
X19839230Y-10988460D01*
X19839230Y-10988460D02*
X19829706Y-10969412D01*
X19829706Y-10969412D02*
X19829706Y-10893222D01*
X19829706Y-10893222D02*
X19839230Y-10874174D01*
X19839230Y-10874174D02*
X19858277Y-10864650D01*
X19858277Y-10864650D02*
X19896373Y-10864650D01*
X19896373Y-10864650D02*
X19915420Y-10874174D01*
X19915420Y-10874174D02*
X19924944Y-10893222D01*
X19924944Y-10893222D02*
X19924944Y-10912270D01*
X19924944Y-10912270D02*
X19829706Y-10931317D01*
X20001134Y-10988460D02*
X20020182Y-10997984D01*
X20020182Y-10997984D02*
X20058277Y-10997984D01*
X20058277Y-10997984D02*
X20077325Y-10988460D01*
X20077325Y-10988460D02*
X20086849Y-10969412D01*
X20086849Y-10969412D02*
X20086849Y-10959889D01*
X20086849Y-10959889D02*
X20077325Y-10940841D01*
X20077325Y-10940841D02*
X20058277Y-10931317D01*
X20058277Y-10931317D02*
X20029706Y-10931317D01*
X20029706Y-10931317D02*
X20010658Y-10921793D01*
X20010658Y-10921793D02*
X20001134Y-10902746D01*
X20001134Y-10902746D02*
X20001134Y-10893222D01*
X20001134Y-10893222D02*
X20010658Y-10874174D01*
X20010658Y-10874174D02*
X20029706Y-10864650D01*
X20029706Y-10864650D02*
X20058277Y-10864650D01*
X20058277Y-10864650D02*
X20077325Y-10874174D01*
X20153515Y-11074174D02*
X20163039Y-11064650D01*
X20163039Y-11064650D02*
X20182087Y-11036079D01*
X20182087Y-11036079D02*
X20191611Y-11017031D01*
X20191611Y-11017031D02*
X20201134Y-10988460D01*
X20201134Y-10988460D02*
X20210658Y-10940841D01*
X20210658Y-10940841D02*
X20210658Y-10902746D01*
X20210658Y-10902746D02*
X20201134Y-10855127D01*
X20201134Y-10855127D02*
X20191611Y-10826555D01*
X20191611Y-10826555D02*
X20182087Y-10807508D01*
X20182087Y-10807508D02*
X20163039Y-10778936D01*
X20163039Y-10778936D02*
X20153515Y-10769412D01*
D12*
X14977500Y-11150500D02*
X14977500Y-11190500D01*
X14957500Y-11170500D02*
X14997500Y-11170500D01*
D11*
X15296372Y-11061984D02*
X15315420Y-11061984D01*
X15315420Y-11061984D02*
X15334467Y-11071508D01*
X15334467Y-11071508D02*
X15343991Y-11081031D01*
X15343991Y-11081031D02*
X15353515Y-11100079D01*
X15353515Y-11100079D02*
X15363039Y-11138174D01*
X15363039Y-11138174D02*
X15363039Y-11185793D01*
X15363039Y-11185793D02*
X15353515Y-11223888D01*
X15353515Y-11223888D02*
X15343991Y-11242936D01*
X15343991Y-11242936D02*
X15334467Y-11252460D01*
X15334467Y-11252460D02*
X15315420Y-11261984D01*
X15315420Y-11261984D02*
X15296372Y-11261984D01*
X15296372Y-11261984D02*
X15277324Y-11252460D01*
X15277324Y-11252460D02*
X15267801Y-11242936D01*
X15267801Y-11242936D02*
X15258277Y-11223888D01*
X15258277Y-11223888D02*
X15248753Y-11185793D01*
X15248753Y-11185793D02*
X15248753Y-11138174D01*
X15248753Y-11138174D02*
X15258277Y-11100079D01*
X15258277Y-11100079D02*
X15267801Y-11081031D01*
X15267801Y-11081031D02*
X15277324Y-11071508D01*
X15277324Y-11071508D02*
X15296372Y-11061984D01*
X15448753Y-11242936D02*
X15458277Y-11252460D01*
X15458277Y-11252460D02*
X15448753Y-11261984D01*
X15448753Y-11261984D02*
X15439229Y-11252460D01*
X15439229Y-11252460D02*
X15448753Y-11242936D01*
X15448753Y-11242936D02*
X15448753Y-11261984D01*
X15629705Y-11128650D02*
X15629705Y-11261984D01*
X15582086Y-11052460D02*
X15534467Y-11195317D01*
X15534467Y-11195317D02*
X15658277Y-11195317D01*
X15772562Y-11061984D02*
X15791610Y-11061984D01*
X15791610Y-11061984D02*
X15810658Y-11071508D01*
X15810658Y-11071508D02*
X15820182Y-11081031D01*
X15820182Y-11081031D02*
X15829705Y-11100079D01*
X15829705Y-11100079D02*
X15839229Y-11138174D01*
X15839229Y-11138174D02*
X15839229Y-11185793D01*
X15839229Y-11185793D02*
X15829705Y-11223888D01*
X15829705Y-11223888D02*
X15820182Y-11242936D01*
X15820182Y-11242936D02*
X15810658Y-11252460D01*
X15810658Y-11252460D02*
X15791610Y-11261984D01*
X15791610Y-11261984D02*
X15772562Y-11261984D01*
X15772562Y-11261984D02*
X15753515Y-11252460D01*
X15753515Y-11252460D02*
X15743991Y-11242936D01*
X15743991Y-11242936D02*
X15734467Y-11223888D01*
X15734467Y-11223888D02*
X15724943Y-11185793D01*
X15724943Y-11185793D02*
X15724943Y-11138174D01*
X15724943Y-11138174D02*
X15734467Y-11100079D01*
X15734467Y-11100079D02*
X15743991Y-11081031D01*
X15743991Y-11081031D02*
X15753515Y-11071508D01*
X15753515Y-11071508D02*
X15772562Y-11061984D01*
X15963039Y-11061984D02*
X15982086Y-11061984D01*
X15982086Y-11061984D02*
X16001134Y-11071508D01*
X16001134Y-11071508D02*
X16010658Y-11081031D01*
X16010658Y-11081031D02*
X16020182Y-11100079D01*
X16020182Y-11100079D02*
X16029705Y-11138174D01*
X16029705Y-11138174D02*
X16029705Y-11185793D01*
X16029705Y-11185793D02*
X16020182Y-11223888D01*
X16020182Y-11223888D02*
X16010658Y-11242936D01*
X16010658Y-11242936D02*
X16001134Y-11252460D01*
X16001134Y-11252460D02*
X15982086Y-11261984D01*
X15982086Y-11261984D02*
X15963039Y-11261984D01*
X15963039Y-11261984D02*
X15943991Y-11252460D01*
X15943991Y-11252460D02*
X15934467Y-11242936D01*
X15934467Y-11242936D02*
X15924943Y-11223888D01*
X15924943Y-11223888D02*
X15915420Y-11185793D01*
X15915420Y-11185793D02*
X15915420Y-11138174D01*
X15915420Y-11138174D02*
X15924943Y-11100079D01*
X15924943Y-11100079D02*
X15934467Y-11081031D01*
X15934467Y-11081031D02*
X15943991Y-11071508D01*
X15943991Y-11071508D02*
X15963039Y-11061984D01*
X16115420Y-11261984D02*
X16115420Y-11128650D01*
X16115420Y-11147698D02*
X16124943Y-11138174D01*
X16124943Y-11138174D02*
X16143991Y-11128650D01*
X16143991Y-11128650D02*
X16172563Y-11128650D01*
X16172563Y-11128650D02*
X16191610Y-11138174D01*
X16191610Y-11138174D02*
X16201134Y-11157222D01*
X16201134Y-11157222D02*
X16201134Y-11261984D01*
X16201134Y-11157222D02*
X16210658Y-11138174D01*
X16210658Y-11138174D02*
X16229705Y-11128650D01*
X16229705Y-11128650D02*
X16258277Y-11128650D01*
X16258277Y-11128650D02*
X16277324Y-11138174D01*
X16277324Y-11138174D02*
X16286848Y-11157222D01*
X16286848Y-11157222D02*
X16286848Y-11261984D01*
X16382086Y-11261984D02*
X16382086Y-11128650D01*
X16382086Y-11147698D02*
X16391610Y-11138174D01*
X16391610Y-11138174D02*
X16410658Y-11128650D01*
X16410658Y-11128650D02*
X16439229Y-11128650D01*
X16439229Y-11128650D02*
X16458277Y-11138174D01*
X16458277Y-11138174D02*
X16467801Y-11157222D01*
X16467801Y-11157222D02*
X16467801Y-11261984D01*
X16467801Y-11157222D02*
X16477324Y-11138174D01*
X16477324Y-11138174D02*
X16496372Y-11128650D01*
X16496372Y-11128650D02*
X16524943Y-11128650D01*
X16524943Y-11128650D02*
X16543991Y-11138174D01*
X16543991Y-11138174D02*
X16553515Y-11157222D01*
X16553515Y-11157222D02*
X16553515Y-11261984D01*
X16943991Y-11052460D02*
X16772563Y-11309603D01*
X17201134Y-11061984D02*
X17220182Y-11061984D01*
X17220182Y-11061984D02*
X17239229Y-11071508D01*
X17239229Y-11071508D02*
X17248753Y-11081031D01*
X17248753Y-11081031D02*
X17258277Y-11100079D01*
X17258277Y-11100079D02*
X17267801Y-11138174D01*
X17267801Y-11138174D02*
X17267801Y-11185793D01*
X17267801Y-11185793D02*
X17258277Y-11223888D01*
X17258277Y-11223888D02*
X17248753Y-11242936D01*
X17248753Y-11242936D02*
X17239229Y-11252460D01*
X17239229Y-11252460D02*
X17220182Y-11261984D01*
X17220182Y-11261984D02*
X17201134Y-11261984D01*
X17201134Y-11261984D02*
X17182087Y-11252460D01*
X17182087Y-11252460D02*
X17172563Y-11242936D01*
X17172563Y-11242936D02*
X17163039Y-11223888D01*
X17163039Y-11223888D02*
X17153515Y-11185793D01*
X17153515Y-11185793D02*
X17153515Y-11138174D01*
X17153515Y-11138174D02*
X17163039Y-11100079D01*
X17163039Y-11100079D02*
X17172563Y-11081031D01*
X17172563Y-11081031D02*
X17182087Y-11071508D01*
X17182087Y-11071508D02*
X17201134Y-11061984D01*
X17353515Y-11242936D02*
X17363039Y-11252460D01*
X17363039Y-11252460D02*
X17353515Y-11261984D01*
X17353515Y-11261984D02*
X17343991Y-11252460D01*
X17343991Y-11252460D02*
X17353515Y-11242936D01*
X17353515Y-11242936D02*
X17353515Y-11261984D01*
X17486848Y-11061984D02*
X17505896Y-11061984D01*
X17505896Y-11061984D02*
X17524944Y-11071508D01*
X17524944Y-11071508D02*
X17534468Y-11081031D01*
X17534468Y-11081031D02*
X17543991Y-11100079D01*
X17543991Y-11100079D02*
X17553515Y-11138174D01*
X17553515Y-11138174D02*
X17553515Y-11185793D01*
X17553515Y-11185793D02*
X17543991Y-11223888D01*
X17543991Y-11223888D02*
X17534468Y-11242936D01*
X17534468Y-11242936D02*
X17524944Y-11252460D01*
X17524944Y-11252460D02*
X17505896Y-11261984D01*
X17505896Y-11261984D02*
X17486848Y-11261984D01*
X17486848Y-11261984D02*
X17467801Y-11252460D01*
X17467801Y-11252460D02*
X17458277Y-11242936D01*
X17458277Y-11242936D02*
X17448753Y-11223888D01*
X17448753Y-11223888D02*
X17439229Y-11185793D01*
X17439229Y-11185793D02*
X17439229Y-11138174D01*
X17439229Y-11138174D02*
X17448753Y-11100079D01*
X17448753Y-11100079D02*
X17458277Y-11081031D01*
X17458277Y-11081031D02*
X17467801Y-11071508D01*
X17467801Y-11071508D02*
X17486848Y-11061984D01*
X17743991Y-11261984D02*
X17629706Y-11261984D01*
X17686848Y-11261984D02*
X17686848Y-11061984D01*
X17686848Y-11061984D02*
X17667801Y-11090555D01*
X17667801Y-11090555D02*
X17648753Y-11109603D01*
X17648753Y-11109603D02*
X17629706Y-11119127D01*
X17924944Y-11061984D02*
X17829706Y-11061984D01*
X17829706Y-11061984D02*
X17820182Y-11157222D01*
X17820182Y-11157222D02*
X17829706Y-11147698D01*
X17829706Y-11147698D02*
X17848753Y-11138174D01*
X17848753Y-11138174D02*
X17896372Y-11138174D01*
X17896372Y-11138174D02*
X17915420Y-11147698D01*
X17915420Y-11147698D02*
X17924944Y-11157222D01*
X17924944Y-11157222D02*
X17934468Y-11176270D01*
X17934468Y-11176270D02*
X17934468Y-11223888D01*
X17934468Y-11223888D02*
X17924944Y-11242936D01*
X17924944Y-11242936D02*
X17915420Y-11252460D01*
X17915420Y-11252460D02*
X17896372Y-11261984D01*
X17896372Y-11261984D02*
X17848753Y-11261984D01*
X17848753Y-11261984D02*
X17829706Y-11252460D01*
X17829706Y-11252460D02*
X17820182Y-11242936D01*
X18001134Y-11061984D02*
X18134468Y-11061984D01*
X18134468Y-11061984D02*
X18048753Y-11261984D01*
X18201134Y-11061984D02*
X18201134Y-11100079D01*
X18277325Y-11061984D02*
X18277325Y-11100079D01*
X18572563Y-11338174D02*
X18563039Y-11328650D01*
X18563039Y-11328650D02*
X18543991Y-11300079D01*
X18543991Y-11300079D02*
X18534468Y-11281031D01*
X18534468Y-11281031D02*
X18524944Y-11252460D01*
X18524944Y-11252460D02*
X18515420Y-11204841D01*
X18515420Y-11204841D02*
X18515420Y-11166746D01*
X18515420Y-11166746D02*
X18524944Y-11119127D01*
X18524944Y-11119127D02*
X18534468Y-11090555D01*
X18534468Y-11090555D02*
X18543991Y-11071508D01*
X18543991Y-11071508D02*
X18563039Y-11042936D01*
X18563039Y-11042936D02*
X18572563Y-11033412D01*
X18753515Y-11261984D02*
X18639230Y-11261984D01*
X18696372Y-11261984D02*
X18696372Y-11061984D01*
X18696372Y-11061984D02*
X18677325Y-11090555D01*
X18677325Y-11090555D02*
X18658277Y-11109603D01*
X18658277Y-11109603D02*
X18639230Y-11119127D01*
X18991611Y-11261984D02*
X18991611Y-11061984D01*
X19077325Y-11261984D02*
X19077325Y-11157222D01*
X19077325Y-11157222D02*
X19067801Y-11138174D01*
X19067801Y-11138174D02*
X19048753Y-11128650D01*
X19048753Y-11128650D02*
X19020182Y-11128650D01*
X19020182Y-11128650D02*
X19001134Y-11138174D01*
X19001134Y-11138174D02*
X18991611Y-11147698D01*
X19201134Y-11261984D02*
X19182087Y-11252460D01*
X19182087Y-11252460D02*
X19172563Y-11242936D01*
X19172563Y-11242936D02*
X19163039Y-11223888D01*
X19163039Y-11223888D02*
X19163039Y-11166746D01*
X19163039Y-11166746D02*
X19172563Y-11147698D01*
X19172563Y-11147698D02*
X19182087Y-11138174D01*
X19182087Y-11138174D02*
X19201134Y-11128650D01*
X19201134Y-11128650D02*
X19229706Y-11128650D01*
X19229706Y-11128650D02*
X19248753Y-11138174D01*
X19248753Y-11138174D02*
X19258277Y-11147698D01*
X19258277Y-11147698D02*
X19267801Y-11166746D01*
X19267801Y-11166746D02*
X19267801Y-11223888D01*
X19267801Y-11223888D02*
X19258277Y-11242936D01*
X19258277Y-11242936D02*
X19248753Y-11252460D01*
X19248753Y-11252460D02*
X19229706Y-11261984D01*
X19229706Y-11261984D02*
X19201134Y-11261984D01*
X19382087Y-11261984D02*
X19363039Y-11252460D01*
X19363039Y-11252460D02*
X19353515Y-11233412D01*
X19353515Y-11233412D02*
X19353515Y-11061984D01*
X19534468Y-11252460D02*
X19515420Y-11261984D01*
X19515420Y-11261984D02*
X19477325Y-11261984D01*
X19477325Y-11261984D02*
X19458277Y-11252460D01*
X19458277Y-11252460D02*
X19448753Y-11233412D01*
X19448753Y-11233412D02*
X19448753Y-11157222D01*
X19448753Y-11157222D02*
X19458277Y-11138174D01*
X19458277Y-11138174D02*
X19477325Y-11128650D01*
X19477325Y-11128650D02*
X19515420Y-11128650D01*
X19515420Y-11128650D02*
X19534468Y-11138174D01*
X19534468Y-11138174D02*
X19543992Y-11157222D01*
X19543992Y-11157222D02*
X19543992Y-11176270D01*
X19543992Y-11176270D02*
X19448753Y-11195317D01*
X19610658Y-11338174D02*
X19620182Y-11328650D01*
X19620182Y-11328650D02*
X19639230Y-11300079D01*
X19639230Y-11300079D02*
X19648753Y-11281031D01*
X19648753Y-11281031D02*
X19658277Y-11252460D01*
X19658277Y-11252460D02*
X19667801Y-11204841D01*
X19667801Y-11204841D02*
X19667801Y-11166746D01*
X19667801Y-11166746D02*
X19658277Y-11119127D01*
X19658277Y-11119127D02*
X19648753Y-11090555D01*
X19648753Y-11090555D02*
X19639230Y-11071508D01*
X19639230Y-11071508D02*
X19620182Y-11042936D01*
X19620182Y-11042936D02*
X19610658Y-11033412D01*
D12*
X14988713Y-11455713D02*
X14988713Y-11413287D01*
X14946287Y-11413287D01*
X14946287Y-11455713D01*
X14988713Y-11455713D01*
D11*
X15296372Y-11325984D02*
X15315420Y-11325984D01*
X15315420Y-11325984D02*
X15334467Y-11335508D01*
X15334467Y-11335508D02*
X15343991Y-11345031D01*
X15343991Y-11345031D02*
X15353515Y-11364079D01*
X15353515Y-11364079D02*
X15363039Y-11402174D01*
X15363039Y-11402174D02*
X15363039Y-11449793D01*
X15363039Y-11449793D02*
X15353515Y-11487888D01*
X15353515Y-11487888D02*
X15343991Y-11506936D01*
X15343991Y-11506936D02*
X15334467Y-11516460D01*
X15334467Y-11516460D02*
X15315420Y-11525984D01*
X15315420Y-11525984D02*
X15296372Y-11525984D01*
X15296372Y-11525984D02*
X15277324Y-11516460D01*
X15277324Y-11516460D02*
X15267801Y-11506936D01*
X15267801Y-11506936D02*
X15258277Y-11487888D01*
X15258277Y-11487888D02*
X15248753Y-11449793D01*
X15248753Y-11449793D02*
X15248753Y-11402174D01*
X15248753Y-11402174D02*
X15258277Y-11364079D01*
X15258277Y-11364079D02*
X15267801Y-11345031D01*
X15267801Y-11345031D02*
X15277324Y-11335508D01*
X15277324Y-11335508D02*
X15296372Y-11325984D01*
X15448753Y-11506936D02*
X15458277Y-11516460D01*
X15458277Y-11516460D02*
X15448753Y-11525984D01*
X15448753Y-11525984D02*
X15439229Y-11516460D01*
X15439229Y-11516460D02*
X15448753Y-11506936D01*
X15448753Y-11506936D02*
X15448753Y-11525984D01*
X15629705Y-11325984D02*
X15591610Y-11325984D01*
X15591610Y-11325984D02*
X15572562Y-11335508D01*
X15572562Y-11335508D02*
X15563039Y-11345031D01*
X15563039Y-11345031D02*
X15543991Y-11373603D01*
X15543991Y-11373603D02*
X15534467Y-11411698D01*
X15534467Y-11411698D02*
X15534467Y-11487888D01*
X15534467Y-11487888D02*
X15543991Y-11506936D01*
X15543991Y-11506936D02*
X15553515Y-11516460D01*
X15553515Y-11516460D02*
X15572562Y-11525984D01*
X15572562Y-11525984D02*
X15610658Y-11525984D01*
X15610658Y-11525984D02*
X15629705Y-11516460D01*
X15629705Y-11516460D02*
X15639229Y-11506936D01*
X15639229Y-11506936D02*
X15648753Y-11487888D01*
X15648753Y-11487888D02*
X15648753Y-11440269D01*
X15648753Y-11440269D02*
X15639229Y-11421222D01*
X15639229Y-11421222D02*
X15629705Y-11411698D01*
X15629705Y-11411698D02*
X15610658Y-11402174D01*
X15610658Y-11402174D02*
X15572562Y-11402174D01*
X15572562Y-11402174D02*
X15553515Y-11411698D01*
X15553515Y-11411698D02*
X15543991Y-11421222D01*
X15543991Y-11421222D02*
X15534467Y-11440269D01*
X15772562Y-11325984D02*
X15791610Y-11325984D01*
X15791610Y-11325984D02*
X15810658Y-11335508D01*
X15810658Y-11335508D02*
X15820182Y-11345031D01*
X15820182Y-11345031D02*
X15829705Y-11364079D01*
X15829705Y-11364079D02*
X15839229Y-11402174D01*
X15839229Y-11402174D02*
X15839229Y-11449793D01*
X15839229Y-11449793D02*
X15829705Y-11487888D01*
X15829705Y-11487888D02*
X15820182Y-11506936D01*
X15820182Y-11506936D02*
X15810658Y-11516460D01*
X15810658Y-11516460D02*
X15791610Y-11525984D01*
X15791610Y-11525984D02*
X15772562Y-11525984D01*
X15772562Y-11525984D02*
X15753515Y-11516460D01*
X15753515Y-11516460D02*
X15743991Y-11506936D01*
X15743991Y-11506936D02*
X15734467Y-11487888D01*
X15734467Y-11487888D02*
X15724943Y-11449793D01*
X15724943Y-11449793D02*
X15724943Y-11402174D01*
X15724943Y-11402174D02*
X15734467Y-11364079D01*
X15734467Y-11364079D02*
X15743991Y-11345031D01*
X15743991Y-11345031D02*
X15753515Y-11335508D01*
X15753515Y-11335508D02*
X15772562Y-11325984D01*
X15963039Y-11325984D02*
X15982086Y-11325984D01*
X15982086Y-11325984D02*
X16001134Y-11335508D01*
X16001134Y-11335508D02*
X16010658Y-11345031D01*
X16010658Y-11345031D02*
X16020182Y-11364079D01*
X16020182Y-11364079D02*
X16029705Y-11402174D01*
X16029705Y-11402174D02*
X16029705Y-11449793D01*
X16029705Y-11449793D02*
X16020182Y-11487888D01*
X16020182Y-11487888D02*
X16010658Y-11506936D01*
X16010658Y-11506936D02*
X16001134Y-11516460D01*
X16001134Y-11516460D02*
X15982086Y-11525984D01*
X15982086Y-11525984D02*
X15963039Y-11525984D01*
X15963039Y-11525984D02*
X15943991Y-11516460D01*
X15943991Y-11516460D02*
X15934467Y-11506936D01*
X15934467Y-11506936D02*
X15924943Y-11487888D01*
X15924943Y-11487888D02*
X15915420Y-11449793D01*
X15915420Y-11449793D02*
X15915420Y-11402174D01*
X15915420Y-11402174D02*
X15924943Y-11364079D01*
X15924943Y-11364079D02*
X15934467Y-11345031D01*
X15934467Y-11345031D02*
X15943991Y-11335508D01*
X15943991Y-11335508D02*
X15963039Y-11325984D01*
X16115420Y-11525984D02*
X16115420Y-11392650D01*
X16115420Y-11411698D02*
X16124943Y-11402174D01*
X16124943Y-11402174D02*
X16143991Y-11392650D01*
X16143991Y-11392650D02*
X16172563Y-11392650D01*
X16172563Y-11392650D02*
X16191610Y-11402174D01*
X16191610Y-11402174D02*
X16201134Y-11421222D01*
X16201134Y-11421222D02*
X16201134Y-11525984D01*
X16201134Y-11421222D02*
X16210658Y-11402174D01*
X16210658Y-11402174D02*
X16229705Y-11392650D01*
X16229705Y-11392650D02*
X16258277Y-11392650D01*
X16258277Y-11392650D02*
X16277324Y-11402174D01*
X16277324Y-11402174D02*
X16286848Y-11421222D01*
X16286848Y-11421222D02*
X16286848Y-11525984D01*
X16382086Y-11525984D02*
X16382086Y-11392650D01*
X16382086Y-11411698D02*
X16391610Y-11402174D01*
X16391610Y-11402174D02*
X16410658Y-11392650D01*
X16410658Y-11392650D02*
X16439229Y-11392650D01*
X16439229Y-11392650D02*
X16458277Y-11402174D01*
X16458277Y-11402174D02*
X16467801Y-11421222D01*
X16467801Y-11421222D02*
X16467801Y-11525984D01*
X16467801Y-11421222D02*
X16477324Y-11402174D01*
X16477324Y-11402174D02*
X16496372Y-11392650D01*
X16496372Y-11392650D02*
X16524943Y-11392650D01*
X16524943Y-11392650D02*
X16543991Y-11402174D01*
X16543991Y-11402174D02*
X16553515Y-11421222D01*
X16553515Y-11421222D02*
X16553515Y-11525984D01*
X16943991Y-11316460D02*
X16772563Y-11573603D01*
X17201134Y-11325984D02*
X17220182Y-11325984D01*
X17220182Y-11325984D02*
X17239229Y-11335508D01*
X17239229Y-11335508D02*
X17248753Y-11345031D01*
X17248753Y-11345031D02*
X17258277Y-11364079D01*
X17258277Y-11364079D02*
X17267801Y-11402174D01*
X17267801Y-11402174D02*
X17267801Y-11449793D01*
X17267801Y-11449793D02*
X17258277Y-11487888D01*
X17258277Y-11487888D02*
X17248753Y-11506936D01*
X17248753Y-11506936D02*
X17239229Y-11516460D01*
X17239229Y-11516460D02*
X17220182Y-11525984D01*
X17220182Y-11525984D02*
X17201134Y-11525984D01*
X17201134Y-11525984D02*
X17182087Y-11516460D01*
X17182087Y-11516460D02*
X17172563Y-11506936D01*
X17172563Y-11506936D02*
X17163039Y-11487888D01*
X17163039Y-11487888D02*
X17153515Y-11449793D01*
X17153515Y-11449793D02*
X17153515Y-11402174D01*
X17153515Y-11402174D02*
X17163039Y-11364079D01*
X17163039Y-11364079D02*
X17172563Y-11345031D01*
X17172563Y-11345031D02*
X17182087Y-11335508D01*
X17182087Y-11335508D02*
X17201134Y-11325984D01*
X17353515Y-11506936D02*
X17363039Y-11516460D01*
X17363039Y-11516460D02*
X17353515Y-11525984D01*
X17353515Y-11525984D02*
X17343991Y-11516460D01*
X17343991Y-11516460D02*
X17353515Y-11506936D01*
X17353515Y-11506936D02*
X17353515Y-11525984D01*
X17486848Y-11325984D02*
X17505896Y-11325984D01*
X17505896Y-11325984D02*
X17524944Y-11335508D01*
X17524944Y-11335508D02*
X17534468Y-11345031D01*
X17534468Y-11345031D02*
X17543991Y-11364079D01*
X17543991Y-11364079D02*
X17553515Y-11402174D01*
X17553515Y-11402174D02*
X17553515Y-11449793D01*
X17553515Y-11449793D02*
X17543991Y-11487888D01*
X17543991Y-11487888D02*
X17534468Y-11506936D01*
X17534468Y-11506936D02*
X17524944Y-11516460D01*
X17524944Y-11516460D02*
X17505896Y-11525984D01*
X17505896Y-11525984D02*
X17486848Y-11525984D01*
X17486848Y-11525984D02*
X17467801Y-11516460D01*
X17467801Y-11516460D02*
X17458277Y-11506936D01*
X17458277Y-11506936D02*
X17448753Y-11487888D01*
X17448753Y-11487888D02*
X17439229Y-11449793D01*
X17439229Y-11449793D02*
X17439229Y-11402174D01*
X17439229Y-11402174D02*
X17448753Y-11364079D01*
X17448753Y-11364079D02*
X17458277Y-11345031D01*
X17458277Y-11345031D02*
X17467801Y-11335508D01*
X17467801Y-11335508D02*
X17486848Y-11325984D01*
X17629706Y-11345031D02*
X17639229Y-11335508D01*
X17639229Y-11335508D02*
X17658277Y-11325984D01*
X17658277Y-11325984D02*
X17705896Y-11325984D01*
X17705896Y-11325984D02*
X17724944Y-11335508D01*
X17724944Y-11335508D02*
X17734468Y-11345031D01*
X17734468Y-11345031D02*
X17743991Y-11364079D01*
X17743991Y-11364079D02*
X17743991Y-11383127D01*
X17743991Y-11383127D02*
X17734468Y-11411698D01*
X17734468Y-11411698D02*
X17620182Y-11525984D01*
X17620182Y-11525984D02*
X17743991Y-11525984D01*
X17810658Y-11325984D02*
X17934468Y-11325984D01*
X17934468Y-11325984D02*
X17867801Y-11402174D01*
X17867801Y-11402174D02*
X17896372Y-11402174D01*
X17896372Y-11402174D02*
X17915420Y-11411698D01*
X17915420Y-11411698D02*
X17924944Y-11421222D01*
X17924944Y-11421222D02*
X17934468Y-11440269D01*
X17934468Y-11440269D02*
X17934468Y-11487888D01*
X17934468Y-11487888D02*
X17924944Y-11506936D01*
X17924944Y-11506936D02*
X17915420Y-11516460D01*
X17915420Y-11516460D02*
X17896372Y-11525984D01*
X17896372Y-11525984D02*
X17839229Y-11525984D01*
X17839229Y-11525984D02*
X17820182Y-11516460D01*
X17820182Y-11516460D02*
X17810658Y-11506936D01*
X18105896Y-11325984D02*
X18067801Y-11325984D01*
X18067801Y-11325984D02*
X18048753Y-11335508D01*
X18048753Y-11335508D02*
X18039229Y-11345031D01*
X18039229Y-11345031D02*
X18020182Y-11373603D01*
X18020182Y-11373603D02*
X18010658Y-11411698D01*
X18010658Y-11411698D02*
X18010658Y-11487888D01*
X18010658Y-11487888D02*
X18020182Y-11506936D01*
X18020182Y-11506936D02*
X18029706Y-11516460D01*
X18029706Y-11516460D02*
X18048753Y-11525984D01*
X18048753Y-11525984D02*
X18086849Y-11525984D01*
X18086849Y-11525984D02*
X18105896Y-11516460D01*
X18105896Y-11516460D02*
X18115420Y-11506936D01*
X18115420Y-11506936D02*
X18124944Y-11487888D01*
X18124944Y-11487888D02*
X18124944Y-11440269D01*
X18124944Y-11440269D02*
X18115420Y-11421222D01*
X18115420Y-11421222D02*
X18105896Y-11411698D01*
X18105896Y-11411698D02*
X18086849Y-11402174D01*
X18086849Y-11402174D02*
X18048753Y-11402174D01*
X18048753Y-11402174D02*
X18029706Y-11411698D01*
X18029706Y-11411698D02*
X18020182Y-11421222D01*
X18020182Y-11421222D02*
X18010658Y-11440269D01*
X18201134Y-11325984D02*
X18201134Y-11364079D01*
X18277325Y-11325984D02*
X18277325Y-11364079D01*
X18572563Y-11602174D02*
X18563039Y-11592650D01*
X18563039Y-11592650D02*
X18543991Y-11564079D01*
X18543991Y-11564079D02*
X18534468Y-11545031D01*
X18534468Y-11545031D02*
X18524944Y-11516460D01*
X18524944Y-11516460D02*
X18515420Y-11468841D01*
X18515420Y-11468841D02*
X18515420Y-11430746D01*
X18515420Y-11430746D02*
X18524944Y-11383127D01*
X18524944Y-11383127D02*
X18534468Y-11354555D01*
X18534468Y-11354555D02*
X18543991Y-11335508D01*
X18543991Y-11335508D02*
X18563039Y-11306936D01*
X18563039Y-11306936D02*
X18572563Y-11297412D01*
X18686849Y-11325984D02*
X18705896Y-11325984D01*
X18705896Y-11325984D02*
X18724944Y-11335508D01*
X18724944Y-11335508D02*
X18734468Y-11345031D01*
X18734468Y-11345031D02*
X18743991Y-11364079D01*
X18743991Y-11364079D02*
X18753515Y-11402174D01*
X18753515Y-11402174D02*
X18753515Y-11449793D01*
X18753515Y-11449793D02*
X18743991Y-11487888D01*
X18743991Y-11487888D02*
X18734468Y-11506936D01*
X18734468Y-11506936D02*
X18724944Y-11516460D01*
X18724944Y-11516460D02*
X18705896Y-11525984D01*
X18705896Y-11525984D02*
X18686849Y-11525984D01*
X18686849Y-11525984D02*
X18667801Y-11516460D01*
X18667801Y-11516460D02*
X18658277Y-11506936D01*
X18658277Y-11506936D02*
X18648753Y-11487888D01*
X18648753Y-11487888D02*
X18639230Y-11449793D01*
X18639230Y-11449793D02*
X18639230Y-11402174D01*
X18639230Y-11402174D02*
X18648753Y-11364079D01*
X18648753Y-11364079D02*
X18658277Y-11345031D01*
X18658277Y-11345031D02*
X18667801Y-11335508D01*
X18667801Y-11335508D02*
X18686849Y-11325984D01*
X18991611Y-11525984D02*
X18991611Y-11325984D01*
X19077325Y-11525984D02*
X19077325Y-11421222D01*
X19077325Y-11421222D02*
X19067801Y-11402174D01*
X19067801Y-11402174D02*
X19048753Y-11392650D01*
X19048753Y-11392650D02*
X19020182Y-11392650D01*
X19020182Y-11392650D02*
X19001134Y-11402174D01*
X19001134Y-11402174D02*
X18991611Y-11411698D01*
X19201134Y-11525984D02*
X19182087Y-11516460D01*
X19182087Y-11516460D02*
X19172563Y-11506936D01*
X19172563Y-11506936D02*
X19163039Y-11487888D01*
X19163039Y-11487888D02*
X19163039Y-11430746D01*
X19163039Y-11430746D02*
X19172563Y-11411698D01*
X19172563Y-11411698D02*
X19182087Y-11402174D01*
X19182087Y-11402174D02*
X19201134Y-11392650D01*
X19201134Y-11392650D02*
X19229706Y-11392650D01*
X19229706Y-11392650D02*
X19248753Y-11402174D01*
X19248753Y-11402174D02*
X19258277Y-11411698D01*
X19258277Y-11411698D02*
X19267801Y-11430746D01*
X19267801Y-11430746D02*
X19267801Y-11487888D01*
X19267801Y-11487888D02*
X19258277Y-11506936D01*
X19258277Y-11506936D02*
X19248753Y-11516460D01*
X19248753Y-11516460D02*
X19229706Y-11525984D01*
X19229706Y-11525984D02*
X19201134Y-11525984D01*
X19382087Y-11525984D02*
X19363039Y-11516460D01*
X19363039Y-11516460D02*
X19353515Y-11497412D01*
X19353515Y-11497412D02*
X19353515Y-11325984D01*
X19534468Y-11516460D02*
X19515420Y-11525984D01*
X19515420Y-11525984D02*
X19477325Y-11525984D01*
X19477325Y-11525984D02*
X19458277Y-11516460D01*
X19458277Y-11516460D02*
X19448753Y-11497412D01*
X19448753Y-11497412D02*
X19448753Y-11421222D01*
X19448753Y-11421222D02*
X19458277Y-11402174D01*
X19458277Y-11402174D02*
X19477325Y-11392650D01*
X19477325Y-11392650D02*
X19515420Y-11392650D01*
X19515420Y-11392650D02*
X19534468Y-11402174D01*
X19534468Y-11402174D02*
X19543992Y-11421222D01*
X19543992Y-11421222D02*
X19543992Y-11440269D01*
X19543992Y-11440269D02*
X19448753Y-11459317D01*
X19620182Y-11516460D02*
X19639230Y-11525984D01*
X19639230Y-11525984D02*
X19677325Y-11525984D01*
X19677325Y-11525984D02*
X19696373Y-11516460D01*
X19696373Y-11516460D02*
X19705896Y-11497412D01*
X19705896Y-11497412D02*
X19705896Y-11487888D01*
X19705896Y-11487888D02*
X19696373Y-11468841D01*
X19696373Y-11468841D02*
X19677325Y-11459317D01*
X19677325Y-11459317D02*
X19648753Y-11459317D01*
X19648753Y-11459317D02*
X19629706Y-11449793D01*
X19629706Y-11449793D02*
X19620182Y-11430746D01*
X19620182Y-11430746D02*
X19620182Y-11421222D01*
X19620182Y-11421222D02*
X19629706Y-11402174D01*
X19629706Y-11402174D02*
X19648753Y-11392650D01*
X19648753Y-11392650D02*
X19677325Y-11392650D01*
X19677325Y-11392650D02*
X19696373Y-11402174D01*
X19943992Y-11449793D02*
X20096373Y-11449793D01*
X20020182Y-11525984D02*
X20020182Y-11373603D01*
X20429706Y-11392650D02*
X20429706Y-11525984D01*
X20382087Y-11316460D02*
X20334468Y-11459317D01*
X20334468Y-11459317D02*
X20458277Y-11459317D01*
X20677325Y-11516460D02*
X20696373Y-11525984D01*
X20696373Y-11525984D02*
X20734468Y-11525984D01*
X20734468Y-11525984D02*
X20753516Y-11516460D01*
X20753516Y-11516460D02*
X20763039Y-11497412D01*
X20763039Y-11497412D02*
X20763039Y-11487888D01*
X20763039Y-11487888D02*
X20753516Y-11468841D01*
X20753516Y-11468841D02*
X20734468Y-11459317D01*
X20734468Y-11459317D02*
X20705896Y-11459317D01*
X20705896Y-11459317D02*
X20686849Y-11449793D01*
X20686849Y-11449793D02*
X20677325Y-11430746D01*
X20677325Y-11430746D02*
X20677325Y-11421222D01*
X20677325Y-11421222D02*
X20686849Y-11402174D01*
X20686849Y-11402174D02*
X20705896Y-11392650D01*
X20705896Y-11392650D02*
X20734468Y-11392650D01*
X20734468Y-11392650D02*
X20753516Y-11402174D01*
X20877325Y-11525984D02*
X20858277Y-11516460D01*
X20858277Y-11516460D02*
X20848754Y-11497412D01*
X20848754Y-11497412D02*
X20848754Y-11325984D01*
X20982087Y-11525984D02*
X20963039Y-11516460D01*
X20963039Y-11516460D02*
X20953516Y-11506936D01*
X20953516Y-11506936D02*
X20943992Y-11487888D01*
X20943992Y-11487888D02*
X20943992Y-11430746D01*
X20943992Y-11430746D02*
X20953516Y-11411698D01*
X20953516Y-11411698D02*
X20963039Y-11402174D01*
X20963039Y-11402174D02*
X20982087Y-11392650D01*
X20982087Y-11392650D02*
X21010658Y-11392650D01*
X21010658Y-11392650D02*
X21029706Y-11402174D01*
X21029706Y-11402174D02*
X21039230Y-11411698D01*
X21039230Y-11411698D02*
X21048754Y-11430746D01*
X21048754Y-11430746D02*
X21048754Y-11487888D01*
X21048754Y-11487888D02*
X21039230Y-11506936D01*
X21039230Y-11506936D02*
X21029706Y-11516460D01*
X21029706Y-11516460D02*
X21010658Y-11525984D01*
X21010658Y-11525984D02*
X20982087Y-11525984D01*
X21105897Y-11392650D02*
X21182087Y-11392650D01*
X21134468Y-11325984D02*
X21134468Y-11497412D01*
X21134468Y-11497412D02*
X21143992Y-11516460D01*
X21143992Y-11516460D02*
X21163039Y-11525984D01*
X21163039Y-11525984D02*
X21182087Y-11525984D01*
X21239230Y-11516460D02*
X21258277Y-11525984D01*
X21258277Y-11525984D02*
X21296373Y-11525984D01*
X21296373Y-11525984D02*
X21315420Y-11516460D01*
X21315420Y-11516460D02*
X21324944Y-11497412D01*
X21324944Y-11497412D02*
X21324944Y-11487888D01*
X21324944Y-11487888D02*
X21315420Y-11468841D01*
X21315420Y-11468841D02*
X21296373Y-11459317D01*
X21296373Y-11459317D02*
X21267801Y-11459317D01*
X21267801Y-11459317D02*
X21248754Y-11449793D01*
X21248754Y-11449793D02*
X21239230Y-11430746D01*
X21239230Y-11430746D02*
X21239230Y-11421222D01*
X21239230Y-11421222D02*
X21248754Y-11402174D01*
X21248754Y-11402174D02*
X21267801Y-11392650D01*
X21267801Y-11392650D02*
X21296373Y-11392650D01*
X21296373Y-11392650D02*
X21315420Y-11402174D01*
X21391611Y-11602174D02*
X21401135Y-11592650D01*
X21401135Y-11592650D02*
X21420182Y-11564079D01*
X21420182Y-11564079D02*
X21429706Y-11545031D01*
X21429706Y-11545031D02*
X21439230Y-11516460D01*
X21439230Y-11516460D02*
X21448754Y-11468841D01*
X21448754Y-11468841D02*
X21448754Y-11430746D01*
X21448754Y-11430746D02*
X21439230Y-11383127D01*
X21439230Y-11383127D02*
X21429706Y-11354555D01*
X21429706Y-11354555D02*
X21420182Y-11335508D01*
X21420182Y-11335508D02*
X21401135Y-11306936D01*
X21401135Y-11306936D02*
X21391611Y-11297412D01*
M02*
