M48
; DRILL file {KiCad 9.0.2-9.0.2-0~ubuntu24.04.1} date 2025-06-10T13:01:34-0500
; FORMAT={-:-/ absolute / metric / decimal}
; #@! TF.CreationDate,2025-06-10T13:01:34-05:00
; #@! TF.GenerationSoftware,Kicad,Pcbnew,9.0.2-9.0.2-0~ubuntu24.04.1
; #@! TF.FileFunction,Plated,1,6,PTH
FMAT,2
METRIC
; #@! TA.AperFunction,Plated,PTH,ComponentDrill
T1C0.200
; #@! TA.AperFunction,Plated,PTH,ViaDrill
T2C0.300
; #@! TA.AperFunction,Plated,PTH,ViaDrill
T3C0.400
; #@! TA.AperFunction,Plated,PTH,ComponentDrill
T4C0.600
%
G90
G05
T1
X193.2Y-63.25
X194.3Y-63.25
T2
X151.76Y-53.99
X151.76Y-95.0
X151.769Y-52.637
X152.431Y-96.76
X152.5Y-80.225
X152.5Y-81.775
X152.569Y-98.24
X152.586Y-68.62
X152.736Y-89.75
X153.225Y-87.25
X153.25Y-52.5
X153.5Y-80.85
X153.912Y-98.24
X154.111Y-70.345
X154.111Y-71.895
X154.136Y-68.62
X154.475Y-78.5
X154.775Y-87.25
X155.0Y-51.828
X155.0Y-85.0
X155.001Y-59.5
X155.001Y-64.0
X155.25Y-73.0
X155.93Y-74.825
X155.93Y-76.675
X156.0Y-66.0
X156.025Y-78.5
X156.36Y-69.347
X156.75Y-82.826
X157.136Y-68.62
X157.5Y-81.5
X157.57Y-74.825
X157.575Y-61.0
X158.0Y-57.0
X158.225Y-88.75
X158.394Y-74.119
X158.702Y-59.548
X158.725Y-93.0
X158.75Y-63.725
X158.75Y-65.275
X158.75Y-66.775
X158.75Y-68.325
X158.775Y-87.0
X158.963Y-75.537
X159.0Y-71.5
X159.0Y-81.0
X159.0Y-96.0
X159.5Y-62.75
X159.799Y-73.451
X159.859Y-82.297
X160.202Y-60.298
X160.202Y-84.702
X160.275Y-93.0
X160.7Y-52.6
X160.7Y-56.1
X160.75Y-89.5
X161.25Y-92.25
X161.298Y-59.202
X161.298Y-85.798
X162.025Y-58.25
X162.184Y-81.922
X162.476Y-63.15
X162.5Y-69.35
X162.75Y-72.475
X162.75Y-74.025
X163.0Y-64.0
X163.0Y-65.225
X163.2Y-52.6
X163.25Y-88.75
X163.25Y-92.25
X163.25Y-95.75
X163.475Y-58.2
X163.7Y-83.0
X163.799Y-64.049
X164.0Y-79.725
X164.0Y-81.275
X164.196Y-87.597
X164.675Y-77.5
X165.0Y-70.0
X165.0Y-73.0
X165.025Y-58.0
X165.25Y-65.75
X165.25Y-83.0
X165.5Y-79.725
X165.5Y-81.275
X165.75Y-88.75
X166.0Y-52.6
X166.0Y-56.1
X166.183Y-57.527
X166.214Y-87.214
X166.225Y-66.25
X166.275Y-76.0
X166.325Y-77.5
X167.5Y-61.0
X167.75Y-62.725
X167.75Y-64.275
X167.762Y-66.237
X168.0Y-70.031
X168.0Y-73.0
X168.0Y-77.984
X168.0Y-81.0
X169.393Y-61.001
X170.0Y-67.0
X170.0Y-92.0
X170.225Y-61.5
X170.5Y-65.025
X170.512Y-63.487
X170.75Y-88.75
X170.75Y-95.75
X171.0Y-52.6
X171.0Y-56.1
X171.0Y-70.0
X171.0Y-73.0
X171.0Y-77.969
X171.0Y-81.0
X171.775Y-61.5
X171.975Y-83.0
X172.225Y-66.25
X173.248Y-63.502
X173.525Y-83.0
X173.685Y-61.355
X173.75Y-52.6
X173.775Y-66.25
X174.0Y-70.25
X174.0Y-73.0
X174.0Y-77.984
X174.0Y-81.0
X174.0Y-92.0
X174.25Y-62.75
X174.725Y-58.25
X174.75Y-61.5
X174.975Y-83.0
X175.75Y-88.8
X175.75Y-95.8
X176.0Y-67.0
X176.25Y-52.6
X176.25Y-63.975
X176.25Y-65.525
X176.275Y-58.25
X176.3Y-61.5
X176.525Y-83.0
X177.0Y-70.25
X177.0Y-73.0
X177.0Y-77.984
X177.0Y-81.016
X177.5Y-55.0
X177.725Y-88.25
X178.0Y-93.0
X178.725Y-83.0
X179.25Y-68.5
X179.269Y-86.314
X179.75Y-58.25
X180.0Y-65.25
X180.0Y-70.25
X180.0Y-73.0
X180.0Y-78.0
X180.275Y-83.0
X180.751Y-64.0
X180.8Y-68.5
X181.0Y-65.85
X181.25Y-88.6
X181.725Y-83.0
X182.25Y-56.6
X182.25Y-64.65
X182.25Y-71.5
X182.251Y-57.527
X182.55Y-58.35
X182.725Y-68.5
X182.75Y-63.4
X182.975Y-78.5
X183.0Y-76.0
X183.0Y-95.75
X183.25Y-61.9
X183.275Y-83.0
X183.4Y-58.5
X183.439Y-62.788
X183.5Y-56.65
X184.055Y-58.487
X184.25Y-70.725
X184.25Y-72.275
X184.275Y-68.5
X184.501Y-64.65
X184.525Y-78.5
X184.577Y-59.7
X184.75Y-80.225
X184.75Y-81.775
X185.248Y-62.25
X185.25Y-68.75
X186.5Y-56.65
X188.0Y-56.65
X188.199Y-63.801
X188.362Y-75.3
X188.362Y-76.25
X188.362Y-77.2
X188.4Y-60.77
X188.75Y-96.25
X188.925Y-74.0
X188.925Y-78.5
X188.925Y-86.5
X189.0Y-65.25
X189.209Y-63.914
X189.775Y-68.0
X190.25Y-65.5
X190.325Y-80.25
X190.637Y-75.3
X190.637Y-77.2
X191.25Y-67.925
X191.75Y-62.45
X191.75Y-64.0
X192.57Y-73.6
X193.175Y-65.25
X193.175Y-66.75
X193.25Y-58.25
X193.525Y-89.0
X193.573Y-76.0
X194.173Y-75.25
X194.525Y-61.0
X194.575Y-59.5
X194.8Y-58.25
X194.825Y-65.25
X195.0Y-87.525
X195.0Y-98.24
X196.0Y-64.0
X196.147Y-51.828
X196.25Y-61.0
X196.25Y-83.3
X196.25Y-85.2
X196.525Y-89.0
X196.76Y-97.569
X197.25Y-66.75
X197.422Y-51.76
X197.559Y-53.24
X197.566Y-59.063
X198.0Y-76.0
X198.085Y-58.335
X198.24Y-97.431
X198.25Y-57.25
X198.269Y-65.732
T3
X191.836Y-61.139
T4
X192.595Y-71.68G85X193.695Y-71.68
G05
X192.595Y-80.32G85X193.695Y-80.32
G05
X196.925Y-71.68G85X197.725Y-71.68
G05
X196.925Y-80.32G85X197.725Y-80.32
G05
M30
