%TF.GenerationSoftware,KiCad,Pcbnew,9.0.1-9.0.1-0~ubuntu24.04.1*%
%TF.CreationDate,2025-06-01T23:52:21-05:00*%
%TF.ProjectId,FC,46432e6b-6963-4616-945f-706362585858,rev?*%
%TF.SameCoordinates,Original*%
%TF.FileFunction,Legend,Bot*%
%TF.FilePolarity,Positive*%
%FSLAX46Y46*%
G04 Gerber Fmt 4.6, Leading zero omitted, Abs format (unit mm)*
G04 Created by KiCad (PCBNEW 9.0.1-9.0.1-0~ubuntu24.04.1) date 2025-06-01 23:52:21*
%MOMM*%
%LPD*%
G01*
G04 APERTURE LIST*
G04 Aperture macros list*
%AMRoundRect*
0 Rectangle with rounded corners*
0 $1 Rounding radius*
0 $2 $3 $4 $5 $6 $7 $8 $9 X,Y pos of 4 corners*
0 Add a 4 corners polygon primitive as box body*
4,1,4,$2,$3,$4,$5,$6,$7,$8,$9,$2,$3,0*
0 Add four circle primitives for the rounded corners*
1,1,$1+$1,$2,$3*
1,1,$1+$1,$4,$5*
1,1,$1+$1,$6,$7*
1,1,$1+$1,$8,$9*
0 Add four rect primitives between the rounded corners*
20,1,$1+$1,$2,$3,$4,$5,0*
20,1,$1+$1,$4,$5,$6,$7,0*
20,1,$1+$1,$6,$7,$8,$9,0*
20,1,$1+$1,$8,$9,$2,$3,0*%
G04 Aperture macros list end*
%ADD10C,0.150000*%
%ADD11C,0.120000*%
%ADD12C,0.152400*%
%ADD13C,0.127000*%
%ADD14C,0.200000*%
%ADD15O,1.800000X1.000000*%
%ADD16O,2.100000X1.000000*%
%ADD17C,0.650000*%
%ADD18RoundRect,0.225000X-0.225000X-0.250000X0.225000X-0.250000X0.225000X0.250000X-0.225000X0.250000X0*%
%ADD19C,0.700000*%
%ADD20O,1.500000X0.800000*%
%ADD21RoundRect,0.218750X-0.218750X-0.256250X0.218750X-0.256250X0.218750X0.256250X-0.218750X0.256250X0*%
%ADD22RoundRect,0.225000X-0.250000X0.225000X-0.250000X-0.225000X0.250000X-0.225000X0.250000X0.225000X0*%
%ADD23RoundRect,0.225000X0.250000X-0.225000X0.250000X0.225000X-0.250000X0.225000X-0.250000X-0.225000X0*%
%ADD24RoundRect,0.225000X0.225000X0.250000X-0.225000X0.250000X-0.225000X-0.250000X0.225000X-0.250000X0*%
%ADD25R,0.685800X0.711200*%
%ADD26RoundRect,0.200000X-0.200000X-0.275000X0.200000X-0.275000X0.200000X0.275000X-0.200000X0.275000X0*%
%ADD27RoundRect,0.200000X0.200000X0.275000X-0.200000X0.275000X-0.200000X-0.275000X0.200000X-0.275000X0*%
%ADD28RoundRect,0.102000X-0.350000X-0.600000X0.350000X-0.600000X0.350000X0.600000X-0.350000X0.600000X0*%
%ADD29RoundRect,0.102000X-0.500000X-0.600000X0.500000X-0.600000X0.500000X0.600000X-0.500000X0.600000X0*%
%ADD30RoundRect,0.102000X-0.500000X-1.400000X0.500000X-1.400000X0.500000X1.400000X-0.500000X1.400000X0*%
%ADD31RoundRect,0.102000X-0.650000X-0.950000X0.650000X-0.950000X0.650000X0.950000X-0.650000X0.950000X0*%
%ADD32RoundRect,0.102000X-0.500000X-0.400000X0.500000X-0.400000X0.500000X0.400000X-0.500000X0.400000X0*%
%ADD33RoundRect,0.250000X-0.475000X0.250000X-0.475000X-0.250000X0.475000X-0.250000X0.475000X0.250000X0*%
%ADD34RoundRect,0.200000X0.275000X-0.200000X0.275000X0.200000X-0.275000X0.200000X-0.275000X-0.200000X0*%
G04 APERTURE END LIST*
D10*
X155867857Y-59789580D02*
X155915476Y-59837200D01*
X155915476Y-59837200D02*
X156058333Y-59884819D01*
X156058333Y-59884819D02*
X156153571Y-59884819D01*
X156153571Y-59884819D02*
X156296428Y-59837200D01*
X156296428Y-59837200D02*
X156391666Y-59741961D01*
X156391666Y-59741961D02*
X156439285Y-59646723D01*
X156439285Y-59646723D02*
X156486904Y-59456247D01*
X156486904Y-59456247D02*
X156486904Y-59313390D01*
X156486904Y-59313390D02*
X156439285Y-59122914D01*
X156439285Y-59122914D02*
X156391666Y-59027676D01*
X156391666Y-59027676D02*
X156296428Y-58932438D01*
X156296428Y-58932438D02*
X156153571Y-58884819D01*
X156153571Y-58884819D02*
X156058333Y-58884819D01*
X156058333Y-58884819D02*
X155915476Y-58932438D01*
X155915476Y-58932438D02*
X155867857Y-58980057D01*
X155010714Y-59218152D02*
X155010714Y-59884819D01*
X155248809Y-58837200D02*
X155486904Y-59551485D01*
X155486904Y-59551485D02*
X154867857Y-59551485D01*
X154439285Y-59884819D02*
X154248809Y-59884819D01*
X154248809Y-59884819D02*
X154153571Y-59837200D01*
X154153571Y-59837200D02*
X154105952Y-59789580D01*
X154105952Y-59789580D02*
X154010714Y-59646723D01*
X154010714Y-59646723D02*
X153963095Y-59456247D01*
X153963095Y-59456247D02*
X153963095Y-59075295D01*
X153963095Y-59075295D02*
X154010714Y-58980057D01*
X154010714Y-58980057D02*
X154058333Y-58932438D01*
X154058333Y-58932438D02*
X154153571Y-58884819D01*
X154153571Y-58884819D02*
X154344047Y-58884819D01*
X154344047Y-58884819D02*
X154439285Y-58932438D01*
X154439285Y-58932438D02*
X154486904Y-58980057D01*
X154486904Y-58980057D02*
X154534523Y-59075295D01*
X154534523Y-59075295D02*
X154534523Y-59313390D01*
X154534523Y-59313390D02*
X154486904Y-59408628D01*
X154486904Y-59408628D02*
X154439285Y-59456247D01*
X154439285Y-59456247D02*
X154344047Y-59503866D01*
X154344047Y-59503866D02*
X154153571Y-59503866D01*
X154153571Y-59503866D02*
X154058333Y-59456247D01*
X154058333Y-59456247D02*
X154010714Y-59408628D01*
X154010714Y-59408628D02*
X153963095Y-59313390D01*
X159142857Y-58289580D02*
X159190476Y-58337200D01*
X159190476Y-58337200D02*
X159333333Y-58384819D01*
X159333333Y-58384819D02*
X159428571Y-58384819D01*
X159428571Y-58384819D02*
X159571428Y-58337200D01*
X159571428Y-58337200D02*
X159666666Y-58241961D01*
X159666666Y-58241961D02*
X159714285Y-58146723D01*
X159714285Y-58146723D02*
X159761904Y-57956247D01*
X159761904Y-57956247D02*
X159761904Y-57813390D01*
X159761904Y-57813390D02*
X159714285Y-57622914D01*
X159714285Y-57622914D02*
X159666666Y-57527676D01*
X159666666Y-57527676D02*
X159571428Y-57432438D01*
X159571428Y-57432438D02*
X159428571Y-57384819D01*
X159428571Y-57384819D02*
X159333333Y-57384819D01*
X159333333Y-57384819D02*
X159190476Y-57432438D01*
X159190476Y-57432438D02*
X159142857Y-57480057D01*
X158285714Y-57718152D02*
X158285714Y-58384819D01*
X158523809Y-57337200D02*
X158761904Y-58051485D01*
X158761904Y-58051485D02*
X158142857Y-58051485D01*
X157857142Y-57384819D02*
X157190476Y-57384819D01*
X157190476Y-57384819D02*
X157619047Y-58384819D01*
X183117857Y-70289580D02*
X183165476Y-70337200D01*
X183165476Y-70337200D02*
X183308333Y-70384819D01*
X183308333Y-70384819D02*
X183403571Y-70384819D01*
X183403571Y-70384819D02*
X183546428Y-70337200D01*
X183546428Y-70337200D02*
X183641666Y-70241961D01*
X183641666Y-70241961D02*
X183689285Y-70146723D01*
X183689285Y-70146723D02*
X183736904Y-69956247D01*
X183736904Y-69956247D02*
X183736904Y-69813390D01*
X183736904Y-69813390D02*
X183689285Y-69622914D01*
X183689285Y-69622914D02*
X183641666Y-69527676D01*
X183641666Y-69527676D02*
X183546428Y-69432438D01*
X183546428Y-69432438D02*
X183403571Y-69384819D01*
X183403571Y-69384819D02*
X183308333Y-69384819D01*
X183308333Y-69384819D02*
X183165476Y-69432438D01*
X183165476Y-69432438D02*
X183117857Y-69480057D01*
X182165476Y-70384819D02*
X182736904Y-70384819D01*
X182451190Y-70384819D02*
X182451190Y-69384819D01*
X182451190Y-69384819D02*
X182546428Y-69527676D01*
X182546428Y-69527676D02*
X182641666Y-69622914D01*
X182641666Y-69622914D02*
X182736904Y-69670533D01*
X181594047Y-69813390D02*
X181689285Y-69765771D01*
X181689285Y-69765771D02*
X181736904Y-69718152D01*
X181736904Y-69718152D02*
X181784523Y-69622914D01*
X181784523Y-69622914D02*
X181784523Y-69575295D01*
X181784523Y-69575295D02*
X181736904Y-69480057D01*
X181736904Y-69480057D02*
X181689285Y-69432438D01*
X181689285Y-69432438D02*
X181594047Y-69384819D01*
X181594047Y-69384819D02*
X181403571Y-69384819D01*
X181403571Y-69384819D02*
X181308333Y-69432438D01*
X181308333Y-69432438D02*
X181260714Y-69480057D01*
X181260714Y-69480057D02*
X181213095Y-69575295D01*
X181213095Y-69575295D02*
X181213095Y-69622914D01*
X181213095Y-69622914D02*
X181260714Y-69718152D01*
X181260714Y-69718152D02*
X181308333Y-69765771D01*
X181308333Y-69765771D02*
X181403571Y-69813390D01*
X181403571Y-69813390D02*
X181594047Y-69813390D01*
X181594047Y-69813390D02*
X181689285Y-69861009D01*
X181689285Y-69861009D02*
X181736904Y-69908628D01*
X181736904Y-69908628D02*
X181784523Y-70003866D01*
X181784523Y-70003866D02*
X181784523Y-70194342D01*
X181784523Y-70194342D02*
X181736904Y-70289580D01*
X181736904Y-70289580D02*
X181689285Y-70337200D01*
X181689285Y-70337200D02*
X181594047Y-70384819D01*
X181594047Y-70384819D02*
X181403571Y-70384819D01*
X181403571Y-70384819D02*
X181308333Y-70337200D01*
X181308333Y-70337200D02*
X181260714Y-70289580D01*
X181260714Y-70289580D02*
X181213095Y-70194342D01*
X181213095Y-70194342D02*
X181213095Y-70003866D01*
X181213095Y-70003866D02*
X181260714Y-69908628D01*
X181260714Y-69908628D02*
X181308333Y-69861009D01*
X181308333Y-69861009D02*
X181403571Y-69813390D01*
X158916666Y-95589580D02*
X158964285Y-95637200D01*
X158964285Y-95637200D02*
X159107142Y-95684819D01*
X159107142Y-95684819D02*
X159202380Y-95684819D01*
X159202380Y-95684819D02*
X159345237Y-95637200D01*
X159345237Y-95637200D02*
X159440475Y-95541961D01*
X159440475Y-95541961D02*
X159488094Y-95446723D01*
X159488094Y-95446723D02*
X159535713Y-95256247D01*
X159535713Y-95256247D02*
X159535713Y-95113390D01*
X159535713Y-95113390D02*
X159488094Y-94922914D01*
X159488094Y-94922914D02*
X159440475Y-94827676D01*
X159440475Y-94827676D02*
X159345237Y-94732438D01*
X159345237Y-94732438D02*
X159202380Y-94684819D01*
X159202380Y-94684819D02*
X159107142Y-94684819D01*
X159107142Y-94684819D02*
X158964285Y-94732438D01*
X158964285Y-94732438D02*
X158916666Y-94780057D01*
X158583332Y-94684819D02*
X157964285Y-94684819D01*
X157964285Y-94684819D02*
X158297618Y-95065771D01*
X158297618Y-95065771D02*
X158154761Y-95065771D01*
X158154761Y-95065771D02*
X158059523Y-95113390D01*
X158059523Y-95113390D02*
X158011904Y-95161009D01*
X158011904Y-95161009D02*
X157964285Y-95256247D01*
X157964285Y-95256247D02*
X157964285Y-95494342D01*
X157964285Y-95494342D02*
X158011904Y-95589580D01*
X158011904Y-95589580D02*
X158059523Y-95637200D01*
X158059523Y-95637200D02*
X158154761Y-95684819D01*
X158154761Y-95684819D02*
X158440475Y-95684819D01*
X158440475Y-95684819D02*
X158535713Y-95637200D01*
X158535713Y-95637200D02*
X158583332Y-95589580D01*
X163916666Y-70634819D02*
X164392856Y-70634819D01*
X164392856Y-70634819D02*
X164392856Y-69634819D01*
X163059523Y-70634819D02*
X163630951Y-70634819D01*
X163345237Y-70634819D02*
X163345237Y-69634819D01*
X163345237Y-69634819D02*
X163440475Y-69777676D01*
X163440475Y-69777676D02*
X163535713Y-69872914D01*
X163535713Y-69872914D02*
X163630951Y-69920533D01*
X183179580Y-80857142D02*
X183227200Y-80809523D01*
X183227200Y-80809523D02*
X183274819Y-80666666D01*
X183274819Y-80666666D02*
X183274819Y-80571428D01*
X183274819Y-80571428D02*
X183227200Y-80428571D01*
X183227200Y-80428571D02*
X183131961Y-80333333D01*
X183131961Y-80333333D02*
X183036723Y-80285714D01*
X183036723Y-80285714D02*
X182846247Y-80238095D01*
X182846247Y-80238095D02*
X182703390Y-80238095D01*
X182703390Y-80238095D02*
X182512914Y-80285714D01*
X182512914Y-80285714D02*
X182417676Y-80333333D01*
X182417676Y-80333333D02*
X182322438Y-80428571D01*
X182322438Y-80428571D02*
X182274819Y-80571428D01*
X182274819Y-80571428D02*
X182274819Y-80666666D01*
X182274819Y-80666666D02*
X182322438Y-80809523D01*
X182322438Y-80809523D02*
X182370057Y-80857142D01*
X182370057Y-81238095D02*
X182322438Y-81285714D01*
X182322438Y-81285714D02*
X182274819Y-81380952D01*
X182274819Y-81380952D02*
X182274819Y-81619047D01*
X182274819Y-81619047D02*
X182322438Y-81714285D01*
X182322438Y-81714285D02*
X182370057Y-81761904D01*
X182370057Y-81761904D02*
X182465295Y-81809523D01*
X182465295Y-81809523D02*
X182560533Y-81809523D01*
X182560533Y-81809523D02*
X182703390Y-81761904D01*
X182703390Y-81761904D02*
X183274819Y-81190476D01*
X183274819Y-81190476D02*
X183274819Y-81809523D01*
X183274819Y-82761904D02*
X183274819Y-82190476D01*
X183274819Y-82476190D02*
X182274819Y-82476190D01*
X182274819Y-82476190D02*
X182417676Y-82380952D01*
X182417676Y-82380952D02*
X182512914Y-82285714D01*
X182512914Y-82285714D02*
X182560533Y-82190476D01*
X166929580Y-67357142D02*
X166977200Y-67309523D01*
X166977200Y-67309523D02*
X167024819Y-67166666D01*
X167024819Y-67166666D02*
X167024819Y-67071428D01*
X167024819Y-67071428D02*
X166977200Y-66928571D01*
X166977200Y-66928571D02*
X166881961Y-66833333D01*
X166881961Y-66833333D02*
X166786723Y-66785714D01*
X166786723Y-66785714D02*
X166596247Y-66738095D01*
X166596247Y-66738095D02*
X166453390Y-66738095D01*
X166453390Y-66738095D02*
X166262914Y-66785714D01*
X166262914Y-66785714D02*
X166167676Y-66833333D01*
X166167676Y-66833333D02*
X166072438Y-66928571D01*
X166072438Y-66928571D02*
X166024819Y-67071428D01*
X166024819Y-67071428D02*
X166024819Y-67166666D01*
X166024819Y-67166666D02*
X166072438Y-67309523D01*
X166072438Y-67309523D02*
X166120057Y-67357142D01*
X166358152Y-68214285D02*
X167024819Y-68214285D01*
X165977200Y-67976190D02*
X166691485Y-67738095D01*
X166691485Y-67738095D02*
X166691485Y-68357142D01*
X166358152Y-69166666D02*
X167024819Y-69166666D01*
X165977200Y-68928571D02*
X166691485Y-68690476D01*
X166691485Y-68690476D02*
X166691485Y-69309523D01*
X176892857Y-84789580D02*
X176940476Y-84837200D01*
X176940476Y-84837200D02*
X177083333Y-84884819D01*
X177083333Y-84884819D02*
X177178571Y-84884819D01*
X177178571Y-84884819D02*
X177321428Y-84837200D01*
X177321428Y-84837200D02*
X177416666Y-84741961D01*
X177416666Y-84741961D02*
X177464285Y-84646723D01*
X177464285Y-84646723D02*
X177511904Y-84456247D01*
X177511904Y-84456247D02*
X177511904Y-84313390D01*
X177511904Y-84313390D02*
X177464285Y-84122914D01*
X177464285Y-84122914D02*
X177416666Y-84027676D01*
X177416666Y-84027676D02*
X177321428Y-83932438D01*
X177321428Y-83932438D02*
X177178571Y-83884819D01*
X177178571Y-83884819D02*
X177083333Y-83884819D01*
X177083333Y-83884819D02*
X176940476Y-83932438D01*
X176940476Y-83932438D02*
X176892857Y-83980057D01*
X176511904Y-83980057D02*
X176464285Y-83932438D01*
X176464285Y-83932438D02*
X176369047Y-83884819D01*
X176369047Y-83884819D02*
X176130952Y-83884819D01*
X176130952Y-83884819D02*
X176035714Y-83932438D01*
X176035714Y-83932438D02*
X175988095Y-83980057D01*
X175988095Y-83980057D02*
X175940476Y-84075295D01*
X175940476Y-84075295D02*
X175940476Y-84170533D01*
X175940476Y-84170533D02*
X175988095Y-84313390D01*
X175988095Y-84313390D02*
X176559523Y-84884819D01*
X176559523Y-84884819D02*
X175940476Y-84884819D01*
X175607142Y-83884819D02*
X174988095Y-83884819D01*
X174988095Y-83884819D02*
X175321428Y-84265771D01*
X175321428Y-84265771D02*
X175178571Y-84265771D01*
X175178571Y-84265771D02*
X175083333Y-84313390D01*
X175083333Y-84313390D02*
X175035714Y-84361009D01*
X175035714Y-84361009D02*
X174988095Y-84456247D01*
X174988095Y-84456247D02*
X174988095Y-84694342D01*
X174988095Y-84694342D02*
X175035714Y-84789580D01*
X175035714Y-84789580D02*
X175083333Y-84837200D01*
X175083333Y-84837200D02*
X175178571Y-84884819D01*
X175178571Y-84884819D02*
X175464285Y-84884819D01*
X175464285Y-84884819D02*
X175559523Y-84837200D01*
X175559523Y-84837200D02*
X175607142Y-84789580D01*
X164039580Y-61357142D02*
X164087200Y-61309523D01*
X164087200Y-61309523D02*
X164134819Y-61166666D01*
X164134819Y-61166666D02*
X164134819Y-61071428D01*
X164134819Y-61071428D02*
X164087200Y-60928571D01*
X164087200Y-60928571D02*
X163991961Y-60833333D01*
X163991961Y-60833333D02*
X163896723Y-60785714D01*
X163896723Y-60785714D02*
X163706247Y-60738095D01*
X163706247Y-60738095D02*
X163563390Y-60738095D01*
X163563390Y-60738095D02*
X163372914Y-60785714D01*
X163372914Y-60785714D02*
X163277676Y-60833333D01*
X163277676Y-60833333D02*
X163182438Y-60928571D01*
X163182438Y-60928571D02*
X163134819Y-61071428D01*
X163134819Y-61071428D02*
X163134819Y-61166666D01*
X163134819Y-61166666D02*
X163182438Y-61309523D01*
X163182438Y-61309523D02*
X163230057Y-61357142D01*
X163468152Y-62214285D02*
X164134819Y-62214285D01*
X163087200Y-61976190D02*
X163801485Y-61738095D01*
X163801485Y-61738095D02*
X163801485Y-62357142D01*
X163134819Y-63166666D02*
X163134819Y-62976190D01*
X163134819Y-62976190D02*
X163182438Y-62880952D01*
X163182438Y-62880952D02*
X163230057Y-62833333D01*
X163230057Y-62833333D02*
X163372914Y-62738095D01*
X163372914Y-62738095D02*
X163563390Y-62690476D01*
X163563390Y-62690476D02*
X163944342Y-62690476D01*
X163944342Y-62690476D02*
X164039580Y-62738095D01*
X164039580Y-62738095D02*
X164087200Y-62785714D01*
X164087200Y-62785714D02*
X164134819Y-62880952D01*
X164134819Y-62880952D02*
X164134819Y-63071428D01*
X164134819Y-63071428D02*
X164087200Y-63166666D01*
X164087200Y-63166666D02*
X164039580Y-63214285D01*
X164039580Y-63214285D02*
X163944342Y-63261904D01*
X163944342Y-63261904D02*
X163706247Y-63261904D01*
X163706247Y-63261904D02*
X163611009Y-63214285D01*
X163611009Y-63214285D02*
X163563390Y-63166666D01*
X163563390Y-63166666D02*
X163515771Y-63071428D01*
X163515771Y-63071428D02*
X163515771Y-62880952D01*
X163515771Y-62880952D02*
X163563390Y-62785714D01*
X163563390Y-62785714D02*
X163611009Y-62738095D01*
X163611009Y-62738095D02*
X163706247Y-62690476D01*
X179642857Y-67429580D02*
X179690476Y-67477200D01*
X179690476Y-67477200D02*
X179833333Y-67524819D01*
X179833333Y-67524819D02*
X179928571Y-67524819D01*
X179928571Y-67524819D02*
X180071428Y-67477200D01*
X180071428Y-67477200D02*
X180166666Y-67381961D01*
X180166666Y-67381961D02*
X180214285Y-67286723D01*
X180214285Y-67286723D02*
X180261904Y-67096247D01*
X180261904Y-67096247D02*
X180261904Y-66953390D01*
X180261904Y-66953390D02*
X180214285Y-66762914D01*
X180214285Y-66762914D02*
X180166666Y-66667676D01*
X180166666Y-66667676D02*
X180071428Y-66572438D01*
X180071428Y-66572438D02*
X179928571Y-66524819D01*
X179928571Y-66524819D02*
X179833333Y-66524819D01*
X179833333Y-66524819D02*
X179690476Y-66572438D01*
X179690476Y-66572438D02*
X179642857Y-66620057D01*
X179309523Y-66524819D02*
X178690476Y-66524819D01*
X178690476Y-66524819D02*
X179023809Y-66905771D01*
X179023809Y-66905771D02*
X178880952Y-66905771D01*
X178880952Y-66905771D02*
X178785714Y-66953390D01*
X178785714Y-66953390D02*
X178738095Y-67001009D01*
X178738095Y-67001009D02*
X178690476Y-67096247D01*
X178690476Y-67096247D02*
X178690476Y-67334342D01*
X178690476Y-67334342D02*
X178738095Y-67429580D01*
X178738095Y-67429580D02*
X178785714Y-67477200D01*
X178785714Y-67477200D02*
X178880952Y-67524819D01*
X178880952Y-67524819D02*
X179166666Y-67524819D01*
X179166666Y-67524819D02*
X179261904Y-67477200D01*
X179261904Y-67477200D02*
X179309523Y-67429580D01*
X178309523Y-66620057D02*
X178261904Y-66572438D01*
X178261904Y-66572438D02*
X178166666Y-66524819D01*
X178166666Y-66524819D02*
X177928571Y-66524819D01*
X177928571Y-66524819D02*
X177833333Y-66572438D01*
X177833333Y-66572438D02*
X177785714Y-66620057D01*
X177785714Y-66620057D02*
X177738095Y-66715295D01*
X177738095Y-66715295D02*
X177738095Y-66810533D01*
X177738095Y-66810533D02*
X177785714Y-66953390D01*
X177785714Y-66953390D02*
X178357142Y-67524819D01*
X178357142Y-67524819D02*
X177738095Y-67524819D01*
X158916666Y-97339580D02*
X158964285Y-97387200D01*
X158964285Y-97387200D02*
X159107142Y-97434819D01*
X159107142Y-97434819D02*
X159202380Y-97434819D01*
X159202380Y-97434819D02*
X159345237Y-97387200D01*
X159345237Y-97387200D02*
X159440475Y-97291961D01*
X159440475Y-97291961D02*
X159488094Y-97196723D01*
X159488094Y-97196723D02*
X159535713Y-97006247D01*
X159535713Y-97006247D02*
X159535713Y-96863390D01*
X159535713Y-96863390D02*
X159488094Y-96672914D01*
X159488094Y-96672914D02*
X159440475Y-96577676D01*
X159440475Y-96577676D02*
X159345237Y-96482438D01*
X159345237Y-96482438D02*
X159202380Y-96434819D01*
X159202380Y-96434819D02*
X159107142Y-96434819D01*
X159107142Y-96434819D02*
X158964285Y-96482438D01*
X158964285Y-96482438D02*
X158916666Y-96530057D01*
X158535713Y-96530057D02*
X158488094Y-96482438D01*
X158488094Y-96482438D02*
X158392856Y-96434819D01*
X158392856Y-96434819D02*
X158154761Y-96434819D01*
X158154761Y-96434819D02*
X158059523Y-96482438D01*
X158059523Y-96482438D02*
X158011904Y-96530057D01*
X158011904Y-96530057D02*
X157964285Y-96625295D01*
X157964285Y-96625295D02*
X157964285Y-96720533D01*
X157964285Y-96720533D02*
X158011904Y-96863390D01*
X158011904Y-96863390D02*
X158583332Y-97434819D01*
X158583332Y-97434819D02*
X157964285Y-97434819D01*
X180892857Y-81929580D02*
X180940476Y-81977200D01*
X180940476Y-81977200D02*
X181083333Y-82024819D01*
X181083333Y-82024819D02*
X181178571Y-82024819D01*
X181178571Y-82024819D02*
X181321428Y-81977200D01*
X181321428Y-81977200D02*
X181416666Y-81881961D01*
X181416666Y-81881961D02*
X181464285Y-81786723D01*
X181464285Y-81786723D02*
X181511904Y-81596247D01*
X181511904Y-81596247D02*
X181511904Y-81453390D01*
X181511904Y-81453390D02*
X181464285Y-81262914D01*
X181464285Y-81262914D02*
X181416666Y-81167676D01*
X181416666Y-81167676D02*
X181321428Y-81072438D01*
X181321428Y-81072438D02*
X181178571Y-81024819D01*
X181178571Y-81024819D02*
X181083333Y-81024819D01*
X181083333Y-81024819D02*
X180940476Y-81072438D01*
X180940476Y-81072438D02*
X180892857Y-81120057D01*
X180035714Y-81358152D02*
X180035714Y-82024819D01*
X180273809Y-80977200D02*
X180511904Y-81691485D01*
X180511904Y-81691485D02*
X179892857Y-81691485D01*
X179321428Y-81024819D02*
X179226190Y-81024819D01*
X179226190Y-81024819D02*
X179130952Y-81072438D01*
X179130952Y-81072438D02*
X179083333Y-81120057D01*
X179083333Y-81120057D02*
X179035714Y-81215295D01*
X179035714Y-81215295D02*
X178988095Y-81405771D01*
X178988095Y-81405771D02*
X178988095Y-81643866D01*
X178988095Y-81643866D02*
X179035714Y-81834342D01*
X179035714Y-81834342D02*
X179083333Y-81929580D01*
X179083333Y-81929580D02*
X179130952Y-81977200D01*
X179130952Y-81977200D02*
X179226190Y-82024819D01*
X179226190Y-82024819D02*
X179321428Y-82024819D01*
X179321428Y-82024819D02*
X179416666Y-81977200D01*
X179416666Y-81977200D02*
X179464285Y-81929580D01*
X179464285Y-81929580D02*
X179511904Y-81834342D01*
X179511904Y-81834342D02*
X179559523Y-81643866D01*
X179559523Y-81643866D02*
X179559523Y-81405771D01*
X179559523Y-81405771D02*
X179511904Y-81215295D01*
X179511904Y-81215295D02*
X179464285Y-81120057D01*
X179464285Y-81120057D02*
X179416666Y-81072438D01*
X179416666Y-81072438D02*
X179321428Y-81024819D01*
X164789580Y-81857142D02*
X164837200Y-81809523D01*
X164837200Y-81809523D02*
X164884819Y-81666666D01*
X164884819Y-81666666D02*
X164884819Y-81571428D01*
X164884819Y-81571428D02*
X164837200Y-81428571D01*
X164837200Y-81428571D02*
X164741961Y-81333333D01*
X164741961Y-81333333D02*
X164646723Y-81285714D01*
X164646723Y-81285714D02*
X164456247Y-81238095D01*
X164456247Y-81238095D02*
X164313390Y-81238095D01*
X164313390Y-81238095D02*
X164122914Y-81285714D01*
X164122914Y-81285714D02*
X164027676Y-81333333D01*
X164027676Y-81333333D02*
X163932438Y-81428571D01*
X163932438Y-81428571D02*
X163884819Y-81571428D01*
X163884819Y-81571428D02*
X163884819Y-81666666D01*
X163884819Y-81666666D02*
X163932438Y-81809523D01*
X163932438Y-81809523D02*
X163980057Y-81857142D01*
X163980057Y-82238095D02*
X163932438Y-82285714D01*
X163932438Y-82285714D02*
X163884819Y-82380952D01*
X163884819Y-82380952D02*
X163884819Y-82619047D01*
X163884819Y-82619047D02*
X163932438Y-82714285D01*
X163932438Y-82714285D02*
X163980057Y-82761904D01*
X163980057Y-82761904D02*
X164075295Y-82809523D01*
X164075295Y-82809523D02*
X164170533Y-82809523D01*
X164170533Y-82809523D02*
X164313390Y-82761904D01*
X164313390Y-82761904D02*
X164884819Y-82190476D01*
X164884819Y-82190476D02*
X164884819Y-82809523D01*
X163884819Y-83666666D02*
X163884819Y-83476190D01*
X163884819Y-83476190D02*
X163932438Y-83380952D01*
X163932438Y-83380952D02*
X163980057Y-83333333D01*
X163980057Y-83333333D02*
X164122914Y-83238095D01*
X164122914Y-83238095D02*
X164313390Y-83190476D01*
X164313390Y-83190476D02*
X164694342Y-83190476D01*
X164694342Y-83190476D02*
X164789580Y-83238095D01*
X164789580Y-83238095D02*
X164837200Y-83285714D01*
X164837200Y-83285714D02*
X164884819Y-83380952D01*
X164884819Y-83380952D02*
X164884819Y-83571428D01*
X164884819Y-83571428D02*
X164837200Y-83666666D01*
X164837200Y-83666666D02*
X164789580Y-83714285D01*
X164789580Y-83714285D02*
X164694342Y-83761904D01*
X164694342Y-83761904D02*
X164456247Y-83761904D01*
X164456247Y-83761904D02*
X164361009Y-83714285D01*
X164361009Y-83714285D02*
X164313390Y-83666666D01*
X164313390Y-83666666D02*
X164265771Y-83571428D01*
X164265771Y-83571428D02*
X164265771Y-83380952D01*
X164265771Y-83380952D02*
X164313390Y-83285714D01*
X164313390Y-83285714D02*
X164361009Y-83238095D01*
X164361009Y-83238095D02*
X164456247Y-83190476D01*
X161929580Y-72607142D02*
X161977200Y-72559523D01*
X161977200Y-72559523D02*
X162024819Y-72416666D01*
X162024819Y-72416666D02*
X162024819Y-72321428D01*
X162024819Y-72321428D02*
X161977200Y-72178571D01*
X161977200Y-72178571D02*
X161881961Y-72083333D01*
X161881961Y-72083333D02*
X161786723Y-72035714D01*
X161786723Y-72035714D02*
X161596247Y-71988095D01*
X161596247Y-71988095D02*
X161453390Y-71988095D01*
X161453390Y-71988095D02*
X161262914Y-72035714D01*
X161262914Y-72035714D02*
X161167676Y-72083333D01*
X161167676Y-72083333D02*
X161072438Y-72178571D01*
X161072438Y-72178571D02*
X161024819Y-72321428D01*
X161024819Y-72321428D02*
X161024819Y-72416666D01*
X161024819Y-72416666D02*
X161072438Y-72559523D01*
X161072438Y-72559523D02*
X161120057Y-72607142D01*
X161120057Y-72988095D02*
X161072438Y-73035714D01*
X161072438Y-73035714D02*
X161024819Y-73130952D01*
X161024819Y-73130952D02*
X161024819Y-73369047D01*
X161024819Y-73369047D02*
X161072438Y-73464285D01*
X161072438Y-73464285D02*
X161120057Y-73511904D01*
X161120057Y-73511904D02*
X161215295Y-73559523D01*
X161215295Y-73559523D02*
X161310533Y-73559523D01*
X161310533Y-73559523D02*
X161453390Y-73511904D01*
X161453390Y-73511904D02*
X162024819Y-72940476D01*
X162024819Y-72940476D02*
X162024819Y-73559523D01*
X161024819Y-73892857D02*
X161024819Y-74559523D01*
X161024819Y-74559523D02*
X162024819Y-74130952D01*
X194704819Y-66738795D02*
X195514342Y-66738795D01*
X195514342Y-66738795D02*
X195609580Y-66786414D01*
X195609580Y-66786414D02*
X195657200Y-66834033D01*
X195657200Y-66834033D02*
X195704819Y-66929271D01*
X195704819Y-66929271D02*
X195704819Y-67119747D01*
X195704819Y-67119747D02*
X195657200Y-67214985D01*
X195657200Y-67214985D02*
X195609580Y-67262604D01*
X195609580Y-67262604D02*
X195514342Y-67310223D01*
X195514342Y-67310223D02*
X194704819Y-67310223D01*
X194704819Y-67691176D02*
X194704819Y-68357842D01*
X194704819Y-68357842D02*
X195704819Y-67929271D01*
X173142857Y-84789580D02*
X173190476Y-84837200D01*
X173190476Y-84837200D02*
X173333333Y-84884819D01*
X173333333Y-84884819D02*
X173428571Y-84884819D01*
X173428571Y-84884819D02*
X173571428Y-84837200D01*
X173571428Y-84837200D02*
X173666666Y-84741961D01*
X173666666Y-84741961D02*
X173714285Y-84646723D01*
X173714285Y-84646723D02*
X173761904Y-84456247D01*
X173761904Y-84456247D02*
X173761904Y-84313390D01*
X173761904Y-84313390D02*
X173714285Y-84122914D01*
X173714285Y-84122914D02*
X173666666Y-84027676D01*
X173666666Y-84027676D02*
X173571428Y-83932438D01*
X173571428Y-83932438D02*
X173428571Y-83884819D01*
X173428571Y-83884819D02*
X173333333Y-83884819D01*
X173333333Y-83884819D02*
X173190476Y-83932438D01*
X173190476Y-83932438D02*
X173142857Y-83980057D01*
X172761904Y-83980057D02*
X172714285Y-83932438D01*
X172714285Y-83932438D02*
X172619047Y-83884819D01*
X172619047Y-83884819D02*
X172380952Y-83884819D01*
X172380952Y-83884819D02*
X172285714Y-83932438D01*
X172285714Y-83932438D02*
X172238095Y-83980057D01*
X172238095Y-83980057D02*
X172190476Y-84075295D01*
X172190476Y-84075295D02*
X172190476Y-84170533D01*
X172190476Y-84170533D02*
X172238095Y-84313390D01*
X172238095Y-84313390D02*
X172809523Y-84884819D01*
X172809523Y-84884819D02*
X172190476Y-84884819D01*
X171333333Y-84218152D02*
X171333333Y-84884819D01*
X171571428Y-83837200D02*
X171809523Y-84551485D01*
X171809523Y-84551485D02*
X171190476Y-84551485D01*
X167539580Y-61357142D02*
X167587200Y-61309523D01*
X167587200Y-61309523D02*
X167634819Y-61166666D01*
X167634819Y-61166666D02*
X167634819Y-61071428D01*
X167634819Y-61071428D02*
X167587200Y-60928571D01*
X167587200Y-60928571D02*
X167491961Y-60833333D01*
X167491961Y-60833333D02*
X167396723Y-60785714D01*
X167396723Y-60785714D02*
X167206247Y-60738095D01*
X167206247Y-60738095D02*
X167063390Y-60738095D01*
X167063390Y-60738095D02*
X166872914Y-60785714D01*
X166872914Y-60785714D02*
X166777676Y-60833333D01*
X166777676Y-60833333D02*
X166682438Y-60928571D01*
X166682438Y-60928571D02*
X166634819Y-61071428D01*
X166634819Y-61071428D02*
X166634819Y-61166666D01*
X166634819Y-61166666D02*
X166682438Y-61309523D01*
X166682438Y-61309523D02*
X166730057Y-61357142D01*
X167634819Y-62309523D02*
X167634819Y-61738095D01*
X167634819Y-62023809D02*
X166634819Y-62023809D01*
X166634819Y-62023809D02*
X166777676Y-61928571D01*
X166777676Y-61928571D02*
X166872914Y-61833333D01*
X166872914Y-61833333D02*
X166920533Y-61738095D01*
X166968152Y-63166666D02*
X167634819Y-63166666D01*
X166587200Y-62928571D02*
X167301485Y-62690476D01*
X167301485Y-62690476D02*
X167301485Y-63309523D01*
X159539580Y-71058333D02*
X159587200Y-71010714D01*
X159587200Y-71010714D02*
X159634819Y-70867857D01*
X159634819Y-70867857D02*
X159634819Y-70772619D01*
X159634819Y-70772619D02*
X159587200Y-70629762D01*
X159587200Y-70629762D02*
X159491961Y-70534524D01*
X159491961Y-70534524D02*
X159396723Y-70486905D01*
X159396723Y-70486905D02*
X159206247Y-70439286D01*
X159206247Y-70439286D02*
X159063390Y-70439286D01*
X159063390Y-70439286D02*
X158872914Y-70486905D01*
X158872914Y-70486905D02*
X158777676Y-70534524D01*
X158777676Y-70534524D02*
X158682438Y-70629762D01*
X158682438Y-70629762D02*
X158634819Y-70772619D01*
X158634819Y-70772619D02*
X158634819Y-70867857D01*
X158634819Y-70867857D02*
X158682438Y-71010714D01*
X158682438Y-71010714D02*
X158730057Y-71058333D01*
X158634819Y-71391667D02*
X158634819Y-72058333D01*
X158634819Y-72058333D02*
X159634819Y-71629762D01*
X189916666Y-77134819D02*
X190249999Y-76658628D01*
X190488094Y-77134819D02*
X190488094Y-76134819D01*
X190488094Y-76134819D02*
X190107142Y-76134819D01*
X190107142Y-76134819D02*
X190011904Y-76182438D01*
X190011904Y-76182438D02*
X189964285Y-76230057D01*
X189964285Y-76230057D02*
X189916666Y-76325295D01*
X189916666Y-76325295D02*
X189916666Y-76468152D01*
X189916666Y-76468152D02*
X189964285Y-76563390D01*
X189964285Y-76563390D02*
X190011904Y-76611009D01*
X190011904Y-76611009D02*
X190107142Y-76658628D01*
X190107142Y-76658628D02*
X190488094Y-76658628D01*
X189535713Y-76230057D02*
X189488094Y-76182438D01*
X189488094Y-76182438D02*
X189392856Y-76134819D01*
X189392856Y-76134819D02*
X189154761Y-76134819D01*
X189154761Y-76134819D02*
X189059523Y-76182438D01*
X189059523Y-76182438D02*
X189011904Y-76230057D01*
X189011904Y-76230057D02*
X188964285Y-76325295D01*
X188964285Y-76325295D02*
X188964285Y-76420533D01*
X188964285Y-76420533D02*
X189011904Y-76563390D01*
X189011904Y-76563390D02*
X189583332Y-77134819D01*
X189583332Y-77134819D02*
X188964285Y-77134819D01*
X186039580Y-70582142D02*
X186087200Y-70534523D01*
X186087200Y-70534523D02*
X186134819Y-70391666D01*
X186134819Y-70391666D02*
X186134819Y-70296428D01*
X186134819Y-70296428D02*
X186087200Y-70153571D01*
X186087200Y-70153571D02*
X185991961Y-70058333D01*
X185991961Y-70058333D02*
X185896723Y-70010714D01*
X185896723Y-70010714D02*
X185706247Y-69963095D01*
X185706247Y-69963095D02*
X185563390Y-69963095D01*
X185563390Y-69963095D02*
X185372914Y-70010714D01*
X185372914Y-70010714D02*
X185277676Y-70058333D01*
X185277676Y-70058333D02*
X185182438Y-70153571D01*
X185182438Y-70153571D02*
X185134819Y-70296428D01*
X185134819Y-70296428D02*
X185134819Y-70391666D01*
X185134819Y-70391666D02*
X185182438Y-70534523D01*
X185182438Y-70534523D02*
X185230057Y-70582142D01*
X186134819Y-71534523D02*
X186134819Y-70963095D01*
X186134819Y-71248809D02*
X185134819Y-71248809D01*
X185134819Y-71248809D02*
X185277676Y-71153571D01*
X185277676Y-71153571D02*
X185372914Y-71058333D01*
X185372914Y-71058333D02*
X185420533Y-70963095D01*
X186134819Y-72010714D02*
X186134819Y-72201190D01*
X186134819Y-72201190D02*
X186087200Y-72296428D01*
X186087200Y-72296428D02*
X186039580Y-72344047D01*
X186039580Y-72344047D02*
X185896723Y-72439285D01*
X185896723Y-72439285D02*
X185706247Y-72486904D01*
X185706247Y-72486904D02*
X185325295Y-72486904D01*
X185325295Y-72486904D02*
X185230057Y-72439285D01*
X185230057Y-72439285D02*
X185182438Y-72391666D01*
X185182438Y-72391666D02*
X185134819Y-72296428D01*
X185134819Y-72296428D02*
X185134819Y-72105952D01*
X185134819Y-72105952D02*
X185182438Y-72010714D01*
X185182438Y-72010714D02*
X185230057Y-71963095D01*
X185230057Y-71963095D02*
X185325295Y-71915476D01*
X185325295Y-71915476D02*
X185563390Y-71915476D01*
X185563390Y-71915476D02*
X185658628Y-71963095D01*
X185658628Y-71963095D02*
X185706247Y-72010714D01*
X185706247Y-72010714D02*
X185753866Y-72105952D01*
X185753866Y-72105952D02*
X185753866Y-72296428D01*
X185753866Y-72296428D02*
X185706247Y-72391666D01*
X185706247Y-72391666D02*
X185658628Y-72439285D01*
X185658628Y-72439285D02*
X185563390Y-72486904D01*
X164179580Y-78107142D02*
X164227200Y-78059523D01*
X164227200Y-78059523D02*
X164274819Y-77916666D01*
X164274819Y-77916666D02*
X164274819Y-77821428D01*
X164274819Y-77821428D02*
X164227200Y-77678571D01*
X164227200Y-77678571D02*
X164131961Y-77583333D01*
X164131961Y-77583333D02*
X164036723Y-77535714D01*
X164036723Y-77535714D02*
X163846247Y-77488095D01*
X163846247Y-77488095D02*
X163703390Y-77488095D01*
X163703390Y-77488095D02*
X163512914Y-77535714D01*
X163512914Y-77535714D02*
X163417676Y-77583333D01*
X163417676Y-77583333D02*
X163322438Y-77678571D01*
X163322438Y-77678571D02*
X163274819Y-77821428D01*
X163274819Y-77821428D02*
X163274819Y-77916666D01*
X163274819Y-77916666D02*
X163322438Y-78059523D01*
X163322438Y-78059523D02*
X163370057Y-78107142D01*
X163274819Y-78440476D02*
X163274819Y-79059523D01*
X163274819Y-79059523D02*
X163655771Y-78726190D01*
X163655771Y-78726190D02*
X163655771Y-78869047D01*
X163655771Y-78869047D02*
X163703390Y-78964285D01*
X163703390Y-78964285D02*
X163751009Y-79011904D01*
X163751009Y-79011904D02*
X163846247Y-79059523D01*
X163846247Y-79059523D02*
X164084342Y-79059523D01*
X164084342Y-79059523D02*
X164179580Y-79011904D01*
X164179580Y-79011904D02*
X164227200Y-78964285D01*
X164227200Y-78964285D02*
X164274819Y-78869047D01*
X164274819Y-78869047D02*
X164274819Y-78583333D01*
X164274819Y-78583333D02*
X164227200Y-78488095D01*
X164227200Y-78488095D02*
X164179580Y-78440476D01*
X163274819Y-79392857D02*
X163274819Y-80059523D01*
X163274819Y-80059523D02*
X164274819Y-79630952D01*
X165179580Y-67357142D02*
X165227200Y-67309523D01*
X165227200Y-67309523D02*
X165274819Y-67166666D01*
X165274819Y-67166666D02*
X165274819Y-67071428D01*
X165274819Y-67071428D02*
X165227200Y-66928571D01*
X165227200Y-66928571D02*
X165131961Y-66833333D01*
X165131961Y-66833333D02*
X165036723Y-66785714D01*
X165036723Y-66785714D02*
X164846247Y-66738095D01*
X164846247Y-66738095D02*
X164703390Y-66738095D01*
X164703390Y-66738095D02*
X164512914Y-66785714D01*
X164512914Y-66785714D02*
X164417676Y-66833333D01*
X164417676Y-66833333D02*
X164322438Y-66928571D01*
X164322438Y-66928571D02*
X164274819Y-67071428D01*
X164274819Y-67071428D02*
X164274819Y-67166666D01*
X164274819Y-67166666D02*
X164322438Y-67309523D01*
X164322438Y-67309523D02*
X164370057Y-67357142D01*
X164608152Y-68214285D02*
X165274819Y-68214285D01*
X164227200Y-67976190D02*
X164941485Y-67738095D01*
X164941485Y-67738095D02*
X164941485Y-68357142D01*
X164274819Y-69214285D02*
X164274819Y-68738095D01*
X164274819Y-68738095D02*
X164751009Y-68690476D01*
X164751009Y-68690476D02*
X164703390Y-68738095D01*
X164703390Y-68738095D02*
X164655771Y-68833333D01*
X164655771Y-68833333D02*
X164655771Y-69071428D01*
X164655771Y-69071428D02*
X164703390Y-69166666D01*
X164703390Y-69166666D02*
X164751009Y-69214285D01*
X164751009Y-69214285D02*
X164846247Y-69261904D01*
X164846247Y-69261904D02*
X165084342Y-69261904D01*
X165084342Y-69261904D02*
X165179580Y-69214285D01*
X165179580Y-69214285D02*
X165227200Y-69166666D01*
X165227200Y-69166666D02*
X165274819Y-69071428D01*
X165274819Y-69071428D02*
X165274819Y-68833333D01*
X165274819Y-68833333D02*
X165227200Y-68738095D01*
X165227200Y-68738095D02*
X165179580Y-68690476D01*
X163916666Y-74774819D02*
X164249999Y-74298628D01*
X164488094Y-74774819D02*
X164488094Y-73774819D01*
X164488094Y-73774819D02*
X164107142Y-73774819D01*
X164107142Y-73774819D02*
X164011904Y-73822438D01*
X164011904Y-73822438D02*
X163964285Y-73870057D01*
X163964285Y-73870057D02*
X163916666Y-73965295D01*
X163916666Y-73965295D02*
X163916666Y-74108152D01*
X163916666Y-74108152D02*
X163964285Y-74203390D01*
X163964285Y-74203390D02*
X164011904Y-74251009D01*
X164011904Y-74251009D02*
X164107142Y-74298628D01*
X164107142Y-74298628D02*
X164488094Y-74298628D01*
X163583332Y-73774819D02*
X162916666Y-73774819D01*
X162916666Y-73774819D02*
X163345237Y-74774819D01*
X195166666Y-74784819D02*
X195499999Y-74308628D01*
X195738094Y-74784819D02*
X195738094Y-73784819D01*
X195738094Y-73784819D02*
X195357142Y-73784819D01*
X195357142Y-73784819D02*
X195261904Y-73832438D01*
X195261904Y-73832438D02*
X195214285Y-73880057D01*
X195214285Y-73880057D02*
X195166666Y-73975295D01*
X195166666Y-73975295D02*
X195166666Y-74118152D01*
X195166666Y-74118152D02*
X195214285Y-74213390D01*
X195214285Y-74213390D02*
X195261904Y-74261009D01*
X195261904Y-74261009D02*
X195357142Y-74308628D01*
X195357142Y-74308628D02*
X195738094Y-74308628D01*
X194309523Y-74118152D02*
X194309523Y-74784819D01*
X194547618Y-73737200D02*
X194785713Y-74451485D01*
X194785713Y-74451485D02*
X194166666Y-74451485D01*
X171892857Y-60679580D02*
X171940476Y-60727200D01*
X171940476Y-60727200D02*
X172083333Y-60774819D01*
X172083333Y-60774819D02*
X172178571Y-60774819D01*
X172178571Y-60774819D02*
X172321428Y-60727200D01*
X172321428Y-60727200D02*
X172416666Y-60631961D01*
X172416666Y-60631961D02*
X172464285Y-60536723D01*
X172464285Y-60536723D02*
X172511904Y-60346247D01*
X172511904Y-60346247D02*
X172511904Y-60203390D01*
X172511904Y-60203390D02*
X172464285Y-60012914D01*
X172464285Y-60012914D02*
X172416666Y-59917676D01*
X172416666Y-59917676D02*
X172321428Y-59822438D01*
X172321428Y-59822438D02*
X172178571Y-59774819D01*
X172178571Y-59774819D02*
X172083333Y-59774819D01*
X172083333Y-59774819D02*
X171940476Y-59822438D01*
X171940476Y-59822438D02*
X171892857Y-59870057D01*
X170940476Y-60774819D02*
X171511904Y-60774819D01*
X171226190Y-60774819D02*
X171226190Y-59774819D01*
X171226190Y-59774819D02*
X171321428Y-59917676D01*
X171321428Y-59917676D02*
X171416666Y-60012914D01*
X171416666Y-60012914D02*
X171511904Y-60060533D01*
X170035714Y-59774819D02*
X170511904Y-59774819D01*
X170511904Y-59774819D02*
X170559523Y-60251009D01*
X170559523Y-60251009D02*
X170511904Y-60203390D01*
X170511904Y-60203390D02*
X170416666Y-60155771D01*
X170416666Y-60155771D02*
X170178571Y-60155771D01*
X170178571Y-60155771D02*
X170083333Y-60203390D01*
X170083333Y-60203390D02*
X170035714Y-60251009D01*
X170035714Y-60251009D02*
X169988095Y-60346247D01*
X169988095Y-60346247D02*
X169988095Y-60584342D01*
X169988095Y-60584342D02*
X170035714Y-60679580D01*
X170035714Y-60679580D02*
X170083333Y-60727200D01*
X170083333Y-60727200D02*
X170178571Y-60774819D01*
X170178571Y-60774819D02*
X170416666Y-60774819D01*
X170416666Y-60774819D02*
X170511904Y-60727200D01*
X170511904Y-60727200D02*
X170559523Y-60679580D01*
X188416666Y-90384819D02*
X188749999Y-89908628D01*
X188988094Y-90384819D02*
X188988094Y-89384819D01*
X188988094Y-89384819D02*
X188607142Y-89384819D01*
X188607142Y-89384819D02*
X188511904Y-89432438D01*
X188511904Y-89432438D02*
X188464285Y-89480057D01*
X188464285Y-89480057D02*
X188416666Y-89575295D01*
X188416666Y-89575295D02*
X188416666Y-89718152D01*
X188416666Y-89718152D02*
X188464285Y-89813390D01*
X188464285Y-89813390D02*
X188511904Y-89861009D01*
X188511904Y-89861009D02*
X188607142Y-89908628D01*
X188607142Y-89908628D02*
X188988094Y-89908628D01*
X187559523Y-89384819D02*
X187749999Y-89384819D01*
X187749999Y-89384819D02*
X187845237Y-89432438D01*
X187845237Y-89432438D02*
X187892856Y-89480057D01*
X187892856Y-89480057D02*
X187988094Y-89622914D01*
X187988094Y-89622914D02*
X188035713Y-89813390D01*
X188035713Y-89813390D02*
X188035713Y-90194342D01*
X188035713Y-90194342D02*
X187988094Y-90289580D01*
X187988094Y-90289580D02*
X187940475Y-90337200D01*
X187940475Y-90337200D02*
X187845237Y-90384819D01*
X187845237Y-90384819D02*
X187654761Y-90384819D01*
X187654761Y-90384819D02*
X187559523Y-90337200D01*
X187559523Y-90337200D02*
X187511904Y-90289580D01*
X187511904Y-90289580D02*
X187464285Y-90194342D01*
X187464285Y-90194342D02*
X187464285Y-89956247D01*
X187464285Y-89956247D02*
X187511904Y-89861009D01*
X187511904Y-89861009D02*
X187559523Y-89813390D01*
X187559523Y-89813390D02*
X187654761Y-89765771D01*
X187654761Y-89765771D02*
X187845237Y-89765771D01*
X187845237Y-89765771D02*
X187940475Y-89813390D01*
X187940475Y-89813390D02*
X187988094Y-89861009D01*
X187988094Y-89861009D02*
X188035713Y-89956247D01*
X183916666Y-96204819D02*
X184249999Y-95728628D01*
X184488094Y-96204819D02*
X184488094Y-95204819D01*
X184488094Y-95204819D02*
X184107142Y-95204819D01*
X184107142Y-95204819D02*
X184011904Y-95252438D01*
X184011904Y-95252438D02*
X183964285Y-95300057D01*
X183964285Y-95300057D02*
X183916666Y-95395295D01*
X183916666Y-95395295D02*
X183916666Y-95538152D01*
X183916666Y-95538152D02*
X183964285Y-95633390D01*
X183964285Y-95633390D02*
X184011904Y-95681009D01*
X184011904Y-95681009D02*
X184107142Y-95728628D01*
X184107142Y-95728628D02*
X184488094Y-95728628D01*
X183011904Y-95204819D02*
X183488094Y-95204819D01*
X183488094Y-95204819D02*
X183535713Y-95681009D01*
X183535713Y-95681009D02*
X183488094Y-95633390D01*
X183488094Y-95633390D02*
X183392856Y-95585771D01*
X183392856Y-95585771D02*
X183154761Y-95585771D01*
X183154761Y-95585771D02*
X183059523Y-95633390D01*
X183059523Y-95633390D02*
X183011904Y-95681009D01*
X183011904Y-95681009D02*
X182964285Y-95776247D01*
X182964285Y-95776247D02*
X182964285Y-96014342D01*
X182964285Y-96014342D02*
X183011904Y-96109580D01*
X183011904Y-96109580D02*
X183059523Y-96157200D01*
X183059523Y-96157200D02*
X183154761Y-96204819D01*
X183154761Y-96204819D02*
X183392856Y-96204819D01*
X183392856Y-96204819D02*
X183488094Y-96157200D01*
X183488094Y-96157200D02*
X183535713Y-96109580D01*
X175642857Y-56039580D02*
X175690476Y-56087200D01*
X175690476Y-56087200D02*
X175833333Y-56134819D01*
X175833333Y-56134819D02*
X175928571Y-56134819D01*
X175928571Y-56134819D02*
X176071428Y-56087200D01*
X176071428Y-56087200D02*
X176166666Y-55991961D01*
X176166666Y-55991961D02*
X176214285Y-55896723D01*
X176214285Y-55896723D02*
X176261904Y-55706247D01*
X176261904Y-55706247D02*
X176261904Y-55563390D01*
X176261904Y-55563390D02*
X176214285Y-55372914D01*
X176214285Y-55372914D02*
X176166666Y-55277676D01*
X176166666Y-55277676D02*
X176071428Y-55182438D01*
X176071428Y-55182438D02*
X175928571Y-55134819D01*
X175928571Y-55134819D02*
X175833333Y-55134819D01*
X175833333Y-55134819D02*
X175690476Y-55182438D01*
X175690476Y-55182438D02*
X175642857Y-55230057D01*
X174690476Y-56134819D02*
X175261904Y-56134819D01*
X174976190Y-56134819D02*
X174976190Y-55134819D01*
X174976190Y-55134819D02*
X175071428Y-55277676D01*
X175071428Y-55277676D02*
X175166666Y-55372914D01*
X175166666Y-55372914D02*
X175261904Y-55420533D01*
X174357142Y-55134819D02*
X173690476Y-55134819D01*
X173690476Y-55134819D02*
X174119047Y-56134819D01*
X164892857Y-59789580D02*
X164940476Y-59837200D01*
X164940476Y-59837200D02*
X165083333Y-59884819D01*
X165083333Y-59884819D02*
X165178571Y-59884819D01*
X165178571Y-59884819D02*
X165321428Y-59837200D01*
X165321428Y-59837200D02*
X165416666Y-59741961D01*
X165416666Y-59741961D02*
X165464285Y-59646723D01*
X165464285Y-59646723D02*
X165511904Y-59456247D01*
X165511904Y-59456247D02*
X165511904Y-59313390D01*
X165511904Y-59313390D02*
X165464285Y-59122914D01*
X165464285Y-59122914D02*
X165416666Y-59027676D01*
X165416666Y-59027676D02*
X165321428Y-58932438D01*
X165321428Y-58932438D02*
X165178571Y-58884819D01*
X165178571Y-58884819D02*
X165083333Y-58884819D01*
X165083333Y-58884819D02*
X164940476Y-58932438D01*
X164940476Y-58932438D02*
X164892857Y-58980057D01*
X164035714Y-59218152D02*
X164035714Y-59884819D01*
X164273809Y-58837200D02*
X164511904Y-59551485D01*
X164511904Y-59551485D02*
X163892857Y-59551485D01*
X163559523Y-58980057D02*
X163511904Y-58932438D01*
X163511904Y-58932438D02*
X163416666Y-58884819D01*
X163416666Y-58884819D02*
X163178571Y-58884819D01*
X163178571Y-58884819D02*
X163083333Y-58932438D01*
X163083333Y-58932438D02*
X163035714Y-58980057D01*
X163035714Y-58980057D02*
X162988095Y-59075295D01*
X162988095Y-59075295D02*
X162988095Y-59170533D01*
X162988095Y-59170533D02*
X163035714Y-59313390D01*
X163035714Y-59313390D02*
X163607142Y-59884819D01*
X163607142Y-59884819D02*
X162988095Y-59884819D01*
X161929580Y-78107142D02*
X161977200Y-78059523D01*
X161977200Y-78059523D02*
X162024819Y-77916666D01*
X162024819Y-77916666D02*
X162024819Y-77821428D01*
X162024819Y-77821428D02*
X161977200Y-77678571D01*
X161977200Y-77678571D02*
X161881961Y-77583333D01*
X161881961Y-77583333D02*
X161786723Y-77535714D01*
X161786723Y-77535714D02*
X161596247Y-77488095D01*
X161596247Y-77488095D02*
X161453390Y-77488095D01*
X161453390Y-77488095D02*
X161262914Y-77535714D01*
X161262914Y-77535714D02*
X161167676Y-77583333D01*
X161167676Y-77583333D02*
X161072438Y-77678571D01*
X161072438Y-77678571D02*
X161024819Y-77821428D01*
X161024819Y-77821428D02*
X161024819Y-77916666D01*
X161024819Y-77916666D02*
X161072438Y-78059523D01*
X161072438Y-78059523D02*
X161120057Y-78107142D01*
X161024819Y-78440476D02*
X161024819Y-79059523D01*
X161024819Y-79059523D02*
X161405771Y-78726190D01*
X161405771Y-78726190D02*
X161405771Y-78869047D01*
X161405771Y-78869047D02*
X161453390Y-78964285D01*
X161453390Y-78964285D02*
X161501009Y-79011904D01*
X161501009Y-79011904D02*
X161596247Y-79059523D01*
X161596247Y-79059523D02*
X161834342Y-79059523D01*
X161834342Y-79059523D02*
X161929580Y-79011904D01*
X161929580Y-79011904D02*
X161977200Y-78964285D01*
X161977200Y-78964285D02*
X162024819Y-78869047D01*
X162024819Y-78869047D02*
X162024819Y-78583333D01*
X162024819Y-78583333D02*
X161977200Y-78488095D01*
X161977200Y-78488095D02*
X161929580Y-78440476D01*
X161453390Y-79630952D02*
X161405771Y-79535714D01*
X161405771Y-79535714D02*
X161358152Y-79488095D01*
X161358152Y-79488095D02*
X161262914Y-79440476D01*
X161262914Y-79440476D02*
X161215295Y-79440476D01*
X161215295Y-79440476D02*
X161120057Y-79488095D01*
X161120057Y-79488095D02*
X161072438Y-79535714D01*
X161072438Y-79535714D02*
X161024819Y-79630952D01*
X161024819Y-79630952D02*
X161024819Y-79821428D01*
X161024819Y-79821428D02*
X161072438Y-79916666D01*
X161072438Y-79916666D02*
X161120057Y-79964285D01*
X161120057Y-79964285D02*
X161215295Y-80011904D01*
X161215295Y-80011904D02*
X161262914Y-80011904D01*
X161262914Y-80011904D02*
X161358152Y-79964285D01*
X161358152Y-79964285D02*
X161405771Y-79916666D01*
X161405771Y-79916666D02*
X161453390Y-79821428D01*
X161453390Y-79821428D02*
X161453390Y-79630952D01*
X161453390Y-79630952D02*
X161501009Y-79535714D01*
X161501009Y-79535714D02*
X161548628Y-79488095D01*
X161548628Y-79488095D02*
X161643866Y-79440476D01*
X161643866Y-79440476D02*
X161834342Y-79440476D01*
X161834342Y-79440476D02*
X161929580Y-79488095D01*
X161929580Y-79488095D02*
X161977200Y-79535714D01*
X161977200Y-79535714D02*
X162024819Y-79630952D01*
X162024819Y-79630952D02*
X162024819Y-79821428D01*
X162024819Y-79821428D02*
X161977200Y-79916666D01*
X161977200Y-79916666D02*
X161929580Y-79964285D01*
X161929580Y-79964285D02*
X161834342Y-80011904D01*
X161834342Y-80011904D02*
X161643866Y-80011904D01*
X161643866Y-80011904D02*
X161548628Y-79964285D01*
X161548628Y-79964285D02*
X161501009Y-79916666D01*
X161501009Y-79916666D02*
X161453390Y-79821428D01*
X164392857Y-69679580D02*
X164440476Y-69727200D01*
X164440476Y-69727200D02*
X164583333Y-69774819D01*
X164583333Y-69774819D02*
X164678571Y-69774819D01*
X164678571Y-69774819D02*
X164821428Y-69727200D01*
X164821428Y-69727200D02*
X164916666Y-69631961D01*
X164916666Y-69631961D02*
X164964285Y-69536723D01*
X164964285Y-69536723D02*
X165011904Y-69346247D01*
X165011904Y-69346247D02*
X165011904Y-69203390D01*
X165011904Y-69203390D02*
X164964285Y-69012914D01*
X164964285Y-69012914D02*
X164916666Y-68917676D01*
X164916666Y-68917676D02*
X164821428Y-68822438D01*
X164821428Y-68822438D02*
X164678571Y-68774819D01*
X164678571Y-68774819D02*
X164583333Y-68774819D01*
X164583333Y-68774819D02*
X164440476Y-68822438D01*
X164440476Y-68822438D02*
X164392857Y-68870057D01*
X163535714Y-69108152D02*
X163535714Y-69774819D01*
X163773809Y-68727200D02*
X164011904Y-69441485D01*
X164011904Y-69441485D02*
X163392857Y-69441485D01*
X163107142Y-68774819D02*
X162488095Y-68774819D01*
X162488095Y-68774819D02*
X162821428Y-69155771D01*
X162821428Y-69155771D02*
X162678571Y-69155771D01*
X162678571Y-69155771D02*
X162583333Y-69203390D01*
X162583333Y-69203390D02*
X162535714Y-69251009D01*
X162535714Y-69251009D02*
X162488095Y-69346247D01*
X162488095Y-69346247D02*
X162488095Y-69584342D01*
X162488095Y-69584342D02*
X162535714Y-69679580D01*
X162535714Y-69679580D02*
X162583333Y-69727200D01*
X162583333Y-69727200D02*
X162678571Y-69774819D01*
X162678571Y-69774819D02*
X162964285Y-69774819D01*
X162964285Y-69774819D02*
X163059523Y-69727200D01*
X163059523Y-69727200D02*
X163107142Y-69679580D01*
X152916666Y-76929580D02*
X152964285Y-76977200D01*
X152964285Y-76977200D02*
X153107142Y-77024819D01*
X153107142Y-77024819D02*
X153202380Y-77024819D01*
X153202380Y-77024819D02*
X153345237Y-76977200D01*
X153345237Y-76977200D02*
X153440475Y-76881961D01*
X153440475Y-76881961D02*
X153488094Y-76786723D01*
X153488094Y-76786723D02*
X153535713Y-76596247D01*
X153535713Y-76596247D02*
X153535713Y-76453390D01*
X153535713Y-76453390D02*
X153488094Y-76262914D01*
X153488094Y-76262914D02*
X153440475Y-76167676D01*
X153440475Y-76167676D02*
X153345237Y-76072438D01*
X153345237Y-76072438D02*
X153202380Y-76024819D01*
X153202380Y-76024819D02*
X153107142Y-76024819D01*
X153107142Y-76024819D02*
X152964285Y-76072438D01*
X152964285Y-76072438D02*
X152916666Y-76120057D01*
X152440475Y-77024819D02*
X152249999Y-77024819D01*
X152249999Y-77024819D02*
X152154761Y-76977200D01*
X152154761Y-76977200D02*
X152107142Y-76929580D01*
X152107142Y-76929580D02*
X152011904Y-76786723D01*
X152011904Y-76786723D02*
X151964285Y-76596247D01*
X151964285Y-76596247D02*
X151964285Y-76215295D01*
X151964285Y-76215295D02*
X152011904Y-76120057D01*
X152011904Y-76120057D02*
X152059523Y-76072438D01*
X152059523Y-76072438D02*
X152154761Y-76024819D01*
X152154761Y-76024819D02*
X152345237Y-76024819D01*
X152345237Y-76024819D02*
X152440475Y-76072438D01*
X152440475Y-76072438D02*
X152488094Y-76120057D01*
X152488094Y-76120057D02*
X152535713Y-76215295D01*
X152535713Y-76215295D02*
X152535713Y-76453390D01*
X152535713Y-76453390D02*
X152488094Y-76548628D01*
X152488094Y-76548628D02*
X152440475Y-76596247D01*
X152440475Y-76596247D02*
X152345237Y-76643866D01*
X152345237Y-76643866D02*
X152154761Y-76643866D01*
X152154761Y-76643866D02*
X152059523Y-76596247D01*
X152059523Y-76596247D02*
X152011904Y-76548628D01*
X152011904Y-76548628D02*
X151964285Y-76453390D01*
X180747072Y-71029968D02*
X180747072Y-71745345D01*
X180747072Y-71745345D02*
X180794763Y-71888421D01*
X180794763Y-71888421D02*
X180890147Y-71983805D01*
X180890147Y-71983805D02*
X181033222Y-72031496D01*
X181033222Y-72031496D02*
X181128606Y-72031496D01*
X180317845Y-71125352D02*
X180270153Y-71077660D01*
X180270153Y-71077660D02*
X180174770Y-71029968D01*
X180174770Y-71029968D02*
X179936311Y-71029968D01*
X179936311Y-71029968D02*
X179840927Y-71077660D01*
X179840927Y-71077660D02*
X179793235Y-71125352D01*
X179793235Y-71125352D02*
X179745544Y-71220736D01*
X179745544Y-71220736D02*
X179745544Y-71316119D01*
X179745544Y-71316119D02*
X179793235Y-71459195D01*
X179793235Y-71459195D02*
X180365537Y-72031496D01*
X180365537Y-72031496D02*
X179745544Y-72031496D01*
X166392857Y-84789580D02*
X166440476Y-84837200D01*
X166440476Y-84837200D02*
X166583333Y-84884819D01*
X166583333Y-84884819D02*
X166678571Y-84884819D01*
X166678571Y-84884819D02*
X166821428Y-84837200D01*
X166821428Y-84837200D02*
X166916666Y-84741961D01*
X166916666Y-84741961D02*
X166964285Y-84646723D01*
X166964285Y-84646723D02*
X167011904Y-84456247D01*
X167011904Y-84456247D02*
X167011904Y-84313390D01*
X167011904Y-84313390D02*
X166964285Y-84122914D01*
X166964285Y-84122914D02*
X166916666Y-84027676D01*
X166916666Y-84027676D02*
X166821428Y-83932438D01*
X166821428Y-83932438D02*
X166678571Y-83884819D01*
X166678571Y-83884819D02*
X166583333Y-83884819D01*
X166583333Y-83884819D02*
X166440476Y-83932438D01*
X166440476Y-83932438D02*
X166392857Y-83980057D01*
X166011904Y-83980057D02*
X165964285Y-83932438D01*
X165964285Y-83932438D02*
X165869047Y-83884819D01*
X165869047Y-83884819D02*
X165630952Y-83884819D01*
X165630952Y-83884819D02*
X165535714Y-83932438D01*
X165535714Y-83932438D02*
X165488095Y-83980057D01*
X165488095Y-83980057D02*
X165440476Y-84075295D01*
X165440476Y-84075295D02*
X165440476Y-84170533D01*
X165440476Y-84170533D02*
X165488095Y-84313390D01*
X165488095Y-84313390D02*
X166059523Y-84884819D01*
X166059523Y-84884819D02*
X165440476Y-84884819D01*
X164535714Y-83884819D02*
X165011904Y-83884819D01*
X165011904Y-83884819D02*
X165059523Y-84361009D01*
X165059523Y-84361009D02*
X165011904Y-84313390D01*
X165011904Y-84313390D02*
X164916666Y-84265771D01*
X164916666Y-84265771D02*
X164678571Y-84265771D01*
X164678571Y-84265771D02*
X164583333Y-84313390D01*
X164583333Y-84313390D02*
X164535714Y-84361009D01*
X164535714Y-84361009D02*
X164488095Y-84456247D01*
X164488095Y-84456247D02*
X164488095Y-84694342D01*
X164488095Y-84694342D02*
X164535714Y-84789580D01*
X164535714Y-84789580D02*
X164583333Y-84837200D01*
X164583333Y-84837200D02*
X164678571Y-84884819D01*
X164678571Y-84884819D02*
X164916666Y-84884819D01*
X164916666Y-84884819D02*
X165011904Y-84837200D01*
X165011904Y-84837200D02*
X165059523Y-84789580D01*
X158892857Y-64039580D02*
X158940476Y-64087200D01*
X158940476Y-64087200D02*
X159083333Y-64134819D01*
X159083333Y-64134819D02*
X159178571Y-64134819D01*
X159178571Y-64134819D02*
X159321428Y-64087200D01*
X159321428Y-64087200D02*
X159416666Y-63991961D01*
X159416666Y-63991961D02*
X159464285Y-63896723D01*
X159464285Y-63896723D02*
X159511904Y-63706247D01*
X159511904Y-63706247D02*
X159511904Y-63563390D01*
X159511904Y-63563390D02*
X159464285Y-63372914D01*
X159464285Y-63372914D02*
X159416666Y-63277676D01*
X159416666Y-63277676D02*
X159321428Y-63182438D01*
X159321428Y-63182438D02*
X159178571Y-63134819D01*
X159178571Y-63134819D02*
X159083333Y-63134819D01*
X159083333Y-63134819D02*
X158940476Y-63182438D01*
X158940476Y-63182438D02*
X158892857Y-63230057D01*
X157940476Y-64134819D02*
X158511904Y-64134819D01*
X158226190Y-64134819D02*
X158226190Y-63134819D01*
X158226190Y-63134819D02*
X158321428Y-63277676D01*
X158321428Y-63277676D02*
X158416666Y-63372914D01*
X158416666Y-63372914D02*
X158511904Y-63420533D01*
X157607142Y-63134819D02*
X156988095Y-63134819D01*
X156988095Y-63134819D02*
X157321428Y-63515771D01*
X157321428Y-63515771D02*
X157178571Y-63515771D01*
X157178571Y-63515771D02*
X157083333Y-63563390D01*
X157083333Y-63563390D02*
X157035714Y-63611009D01*
X157035714Y-63611009D02*
X156988095Y-63706247D01*
X156988095Y-63706247D02*
X156988095Y-63944342D01*
X156988095Y-63944342D02*
X157035714Y-64039580D01*
X157035714Y-64039580D02*
X157083333Y-64087200D01*
X157083333Y-64087200D02*
X157178571Y-64134819D01*
X157178571Y-64134819D02*
X157464285Y-64134819D01*
X157464285Y-64134819D02*
X157559523Y-64087200D01*
X157559523Y-64087200D02*
X157607142Y-64039580D01*
X190039580Y-69107142D02*
X190087200Y-69059523D01*
X190087200Y-69059523D02*
X190134819Y-68916666D01*
X190134819Y-68916666D02*
X190134819Y-68821428D01*
X190134819Y-68821428D02*
X190087200Y-68678571D01*
X190087200Y-68678571D02*
X189991961Y-68583333D01*
X189991961Y-68583333D02*
X189896723Y-68535714D01*
X189896723Y-68535714D02*
X189706247Y-68488095D01*
X189706247Y-68488095D02*
X189563390Y-68488095D01*
X189563390Y-68488095D02*
X189372914Y-68535714D01*
X189372914Y-68535714D02*
X189277676Y-68583333D01*
X189277676Y-68583333D02*
X189182438Y-68678571D01*
X189182438Y-68678571D02*
X189134819Y-68821428D01*
X189134819Y-68821428D02*
X189134819Y-68916666D01*
X189134819Y-68916666D02*
X189182438Y-69059523D01*
X189182438Y-69059523D02*
X189230057Y-69107142D01*
X189134819Y-69440476D02*
X189134819Y-70059523D01*
X189134819Y-70059523D02*
X189515771Y-69726190D01*
X189515771Y-69726190D02*
X189515771Y-69869047D01*
X189515771Y-69869047D02*
X189563390Y-69964285D01*
X189563390Y-69964285D02*
X189611009Y-70011904D01*
X189611009Y-70011904D02*
X189706247Y-70059523D01*
X189706247Y-70059523D02*
X189944342Y-70059523D01*
X189944342Y-70059523D02*
X190039580Y-70011904D01*
X190039580Y-70011904D02*
X190087200Y-69964285D01*
X190087200Y-69964285D02*
X190134819Y-69869047D01*
X190134819Y-69869047D02*
X190134819Y-69583333D01*
X190134819Y-69583333D02*
X190087200Y-69488095D01*
X190087200Y-69488095D02*
X190039580Y-69440476D01*
X190134819Y-70535714D02*
X190134819Y-70726190D01*
X190134819Y-70726190D02*
X190087200Y-70821428D01*
X190087200Y-70821428D02*
X190039580Y-70869047D01*
X190039580Y-70869047D02*
X189896723Y-70964285D01*
X189896723Y-70964285D02*
X189706247Y-71011904D01*
X189706247Y-71011904D02*
X189325295Y-71011904D01*
X189325295Y-71011904D02*
X189230057Y-70964285D01*
X189230057Y-70964285D02*
X189182438Y-70916666D01*
X189182438Y-70916666D02*
X189134819Y-70821428D01*
X189134819Y-70821428D02*
X189134819Y-70630952D01*
X189134819Y-70630952D02*
X189182438Y-70535714D01*
X189182438Y-70535714D02*
X189230057Y-70488095D01*
X189230057Y-70488095D02*
X189325295Y-70440476D01*
X189325295Y-70440476D02*
X189563390Y-70440476D01*
X189563390Y-70440476D02*
X189658628Y-70488095D01*
X189658628Y-70488095D02*
X189706247Y-70535714D01*
X189706247Y-70535714D02*
X189753866Y-70630952D01*
X189753866Y-70630952D02*
X189753866Y-70821428D01*
X189753866Y-70821428D02*
X189706247Y-70916666D01*
X189706247Y-70916666D02*
X189658628Y-70964285D01*
X189658628Y-70964285D02*
X189563390Y-71011904D01*
X195091666Y-93884819D02*
X195424999Y-93408628D01*
X195663094Y-93884819D02*
X195663094Y-92884819D01*
X195663094Y-92884819D02*
X195282142Y-92884819D01*
X195282142Y-92884819D02*
X195186904Y-92932438D01*
X195186904Y-92932438D02*
X195139285Y-92980057D01*
X195139285Y-92980057D02*
X195091666Y-93075295D01*
X195091666Y-93075295D02*
X195091666Y-93218152D01*
X195091666Y-93218152D02*
X195139285Y-93313390D01*
X195139285Y-93313390D02*
X195186904Y-93361009D01*
X195186904Y-93361009D02*
X195282142Y-93408628D01*
X195282142Y-93408628D02*
X195663094Y-93408628D01*
X194615475Y-93884819D02*
X194424999Y-93884819D01*
X194424999Y-93884819D02*
X194329761Y-93837200D01*
X194329761Y-93837200D02*
X194282142Y-93789580D01*
X194282142Y-93789580D02*
X194186904Y-93646723D01*
X194186904Y-93646723D02*
X194139285Y-93456247D01*
X194139285Y-93456247D02*
X194139285Y-93075295D01*
X194139285Y-93075295D02*
X194186904Y-92980057D01*
X194186904Y-92980057D02*
X194234523Y-92932438D01*
X194234523Y-92932438D02*
X194329761Y-92884819D01*
X194329761Y-92884819D02*
X194520237Y-92884819D01*
X194520237Y-92884819D02*
X194615475Y-92932438D01*
X194615475Y-92932438D02*
X194663094Y-92980057D01*
X194663094Y-92980057D02*
X194710713Y-93075295D01*
X194710713Y-93075295D02*
X194710713Y-93313390D01*
X194710713Y-93313390D02*
X194663094Y-93408628D01*
X194663094Y-93408628D02*
X194615475Y-93456247D01*
X194615475Y-93456247D02*
X194520237Y-93503866D01*
X194520237Y-93503866D02*
X194329761Y-93503866D01*
X194329761Y-93503866D02*
X194234523Y-93456247D01*
X194234523Y-93456247D02*
X194186904Y-93408628D01*
X194186904Y-93408628D02*
X194139285Y-93313390D01*
X175179580Y-63832142D02*
X175227200Y-63784523D01*
X175227200Y-63784523D02*
X175274819Y-63641666D01*
X175274819Y-63641666D02*
X175274819Y-63546428D01*
X175274819Y-63546428D02*
X175227200Y-63403571D01*
X175227200Y-63403571D02*
X175131961Y-63308333D01*
X175131961Y-63308333D02*
X175036723Y-63260714D01*
X175036723Y-63260714D02*
X174846247Y-63213095D01*
X174846247Y-63213095D02*
X174703390Y-63213095D01*
X174703390Y-63213095D02*
X174512914Y-63260714D01*
X174512914Y-63260714D02*
X174417676Y-63308333D01*
X174417676Y-63308333D02*
X174322438Y-63403571D01*
X174322438Y-63403571D02*
X174274819Y-63546428D01*
X174274819Y-63546428D02*
X174274819Y-63641666D01*
X174274819Y-63641666D02*
X174322438Y-63784523D01*
X174322438Y-63784523D02*
X174370057Y-63832142D01*
X174274819Y-64165476D02*
X174274819Y-64784523D01*
X174274819Y-64784523D02*
X174655771Y-64451190D01*
X174655771Y-64451190D02*
X174655771Y-64594047D01*
X174655771Y-64594047D02*
X174703390Y-64689285D01*
X174703390Y-64689285D02*
X174751009Y-64736904D01*
X174751009Y-64736904D02*
X174846247Y-64784523D01*
X174846247Y-64784523D02*
X175084342Y-64784523D01*
X175084342Y-64784523D02*
X175179580Y-64736904D01*
X175179580Y-64736904D02*
X175227200Y-64689285D01*
X175227200Y-64689285D02*
X175274819Y-64594047D01*
X175274819Y-64594047D02*
X175274819Y-64308333D01*
X175274819Y-64308333D02*
X175227200Y-64213095D01*
X175227200Y-64213095D02*
X175179580Y-64165476D01*
X174608152Y-65641666D02*
X175274819Y-65641666D01*
X174227200Y-65403571D02*
X174941485Y-65165476D01*
X174941485Y-65165476D02*
X174941485Y-65784523D01*
X153916666Y-70789580D02*
X153964285Y-70837200D01*
X153964285Y-70837200D02*
X154107142Y-70884819D01*
X154107142Y-70884819D02*
X154202380Y-70884819D01*
X154202380Y-70884819D02*
X154345237Y-70837200D01*
X154345237Y-70837200D02*
X154440475Y-70741961D01*
X154440475Y-70741961D02*
X154488094Y-70646723D01*
X154488094Y-70646723D02*
X154535713Y-70456247D01*
X154535713Y-70456247D02*
X154535713Y-70313390D01*
X154535713Y-70313390D02*
X154488094Y-70122914D01*
X154488094Y-70122914D02*
X154440475Y-70027676D01*
X154440475Y-70027676D02*
X154345237Y-69932438D01*
X154345237Y-69932438D02*
X154202380Y-69884819D01*
X154202380Y-69884819D02*
X154107142Y-69884819D01*
X154107142Y-69884819D02*
X153964285Y-69932438D01*
X153964285Y-69932438D02*
X153916666Y-69980057D01*
X153011904Y-69884819D02*
X153488094Y-69884819D01*
X153488094Y-69884819D02*
X153535713Y-70361009D01*
X153535713Y-70361009D02*
X153488094Y-70313390D01*
X153488094Y-70313390D02*
X153392856Y-70265771D01*
X153392856Y-70265771D02*
X153154761Y-70265771D01*
X153154761Y-70265771D02*
X153059523Y-70313390D01*
X153059523Y-70313390D02*
X153011904Y-70361009D01*
X153011904Y-70361009D02*
X152964285Y-70456247D01*
X152964285Y-70456247D02*
X152964285Y-70694342D01*
X152964285Y-70694342D02*
X153011904Y-70789580D01*
X153011904Y-70789580D02*
X153059523Y-70837200D01*
X153059523Y-70837200D02*
X153154761Y-70884819D01*
X153154761Y-70884819D02*
X153392856Y-70884819D01*
X153392856Y-70884819D02*
X153488094Y-70837200D01*
X153488094Y-70837200D02*
X153535713Y-70789580D01*
X156941666Y-67579580D02*
X156989285Y-67627200D01*
X156989285Y-67627200D02*
X157132142Y-67674819D01*
X157132142Y-67674819D02*
X157227380Y-67674819D01*
X157227380Y-67674819D02*
X157370237Y-67627200D01*
X157370237Y-67627200D02*
X157465475Y-67531961D01*
X157465475Y-67531961D02*
X157513094Y-67436723D01*
X157513094Y-67436723D02*
X157560713Y-67246247D01*
X157560713Y-67246247D02*
X157560713Y-67103390D01*
X157560713Y-67103390D02*
X157513094Y-66912914D01*
X157513094Y-66912914D02*
X157465475Y-66817676D01*
X157465475Y-66817676D02*
X157370237Y-66722438D01*
X157370237Y-66722438D02*
X157227380Y-66674819D01*
X157227380Y-66674819D02*
X157132142Y-66674819D01*
X157132142Y-66674819D02*
X156989285Y-66722438D01*
X156989285Y-66722438D02*
X156941666Y-66770057D01*
X156084523Y-67008152D02*
X156084523Y-67674819D01*
X156322618Y-66627200D02*
X156560713Y-67341485D01*
X156560713Y-67341485D02*
X155941666Y-67341485D01*
X165789580Y-61357142D02*
X165837200Y-61309523D01*
X165837200Y-61309523D02*
X165884819Y-61166666D01*
X165884819Y-61166666D02*
X165884819Y-61071428D01*
X165884819Y-61071428D02*
X165837200Y-60928571D01*
X165837200Y-60928571D02*
X165741961Y-60833333D01*
X165741961Y-60833333D02*
X165646723Y-60785714D01*
X165646723Y-60785714D02*
X165456247Y-60738095D01*
X165456247Y-60738095D02*
X165313390Y-60738095D01*
X165313390Y-60738095D02*
X165122914Y-60785714D01*
X165122914Y-60785714D02*
X165027676Y-60833333D01*
X165027676Y-60833333D02*
X164932438Y-60928571D01*
X164932438Y-60928571D02*
X164884819Y-61071428D01*
X164884819Y-61071428D02*
X164884819Y-61166666D01*
X164884819Y-61166666D02*
X164932438Y-61309523D01*
X164932438Y-61309523D02*
X164980057Y-61357142D01*
X164884819Y-61690476D02*
X164884819Y-62309523D01*
X164884819Y-62309523D02*
X165265771Y-61976190D01*
X165265771Y-61976190D02*
X165265771Y-62119047D01*
X165265771Y-62119047D02*
X165313390Y-62214285D01*
X165313390Y-62214285D02*
X165361009Y-62261904D01*
X165361009Y-62261904D02*
X165456247Y-62309523D01*
X165456247Y-62309523D02*
X165694342Y-62309523D01*
X165694342Y-62309523D02*
X165789580Y-62261904D01*
X165789580Y-62261904D02*
X165837200Y-62214285D01*
X165837200Y-62214285D02*
X165884819Y-62119047D01*
X165884819Y-62119047D02*
X165884819Y-61833333D01*
X165884819Y-61833333D02*
X165837200Y-61738095D01*
X165837200Y-61738095D02*
X165789580Y-61690476D01*
X164884819Y-63214285D02*
X164884819Y-62738095D01*
X164884819Y-62738095D02*
X165361009Y-62690476D01*
X165361009Y-62690476D02*
X165313390Y-62738095D01*
X165313390Y-62738095D02*
X165265771Y-62833333D01*
X165265771Y-62833333D02*
X165265771Y-63071428D01*
X165265771Y-63071428D02*
X165313390Y-63166666D01*
X165313390Y-63166666D02*
X165361009Y-63214285D01*
X165361009Y-63214285D02*
X165456247Y-63261904D01*
X165456247Y-63261904D02*
X165694342Y-63261904D01*
X165694342Y-63261904D02*
X165789580Y-63214285D01*
X165789580Y-63214285D02*
X165837200Y-63166666D01*
X165837200Y-63166666D02*
X165884819Y-63071428D01*
X165884819Y-63071428D02*
X165884819Y-62833333D01*
X165884819Y-62833333D02*
X165837200Y-62738095D01*
X165837200Y-62738095D02*
X165789580Y-62690476D01*
X155416666Y-90609580D02*
X155464285Y-90657200D01*
X155464285Y-90657200D02*
X155607142Y-90704819D01*
X155607142Y-90704819D02*
X155702380Y-90704819D01*
X155702380Y-90704819D02*
X155845237Y-90657200D01*
X155845237Y-90657200D02*
X155940475Y-90561961D01*
X155940475Y-90561961D02*
X155988094Y-90466723D01*
X155988094Y-90466723D02*
X156035713Y-90276247D01*
X156035713Y-90276247D02*
X156035713Y-90133390D01*
X156035713Y-90133390D02*
X155988094Y-89942914D01*
X155988094Y-89942914D02*
X155940475Y-89847676D01*
X155940475Y-89847676D02*
X155845237Y-89752438D01*
X155845237Y-89752438D02*
X155702380Y-89704819D01*
X155702380Y-89704819D02*
X155607142Y-89704819D01*
X155607142Y-89704819D02*
X155464285Y-89752438D01*
X155464285Y-89752438D02*
X155416666Y-89800057D01*
X154464285Y-90704819D02*
X155035713Y-90704819D01*
X154749999Y-90704819D02*
X154749999Y-89704819D01*
X154749999Y-89704819D02*
X154845237Y-89847676D01*
X154845237Y-89847676D02*
X154940475Y-89942914D01*
X154940475Y-89942914D02*
X155035713Y-89990533D01*
X182142857Y-88789580D02*
X182190476Y-88837200D01*
X182190476Y-88837200D02*
X182333333Y-88884819D01*
X182333333Y-88884819D02*
X182428571Y-88884819D01*
X182428571Y-88884819D02*
X182571428Y-88837200D01*
X182571428Y-88837200D02*
X182666666Y-88741961D01*
X182666666Y-88741961D02*
X182714285Y-88646723D01*
X182714285Y-88646723D02*
X182761904Y-88456247D01*
X182761904Y-88456247D02*
X182761904Y-88313390D01*
X182761904Y-88313390D02*
X182714285Y-88122914D01*
X182714285Y-88122914D02*
X182666666Y-88027676D01*
X182666666Y-88027676D02*
X182571428Y-87932438D01*
X182571428Y-87932438D02*
X182428571Y-87884819D01*
X182428571Y-87884819D02*
X182333333Y-87884819D01*
X182333333Y-87884819D02*
X182190476Y-87932438D01*
X182190476Y-87932438D02*
X182142857Y-87980057D01*
X181761904Y-87980057D02*
X181714285Y-87932438D01*
X181714285Y-87932438D02*
X181619047Y-87884819D01*
X181619047Y-87884819D02*
X181380952Y-87884819D01*
X181380952Y-87884819D02*
X181285714Y-87932438D01*
X181285714Y-87932438D02*
X181238095Y-87980057D01*
X181238095Y-87980057D02*
X181190476Y-88075295D01*
X181190476Y-88075295D02*
X181190476Y-88170533D01*
X181190476Y-88170533D02*
X181238095Y-88313390D01*
X181238095Y-88313390D02*
X181809523Y-88884819D01*
X181809523Y-88884819D02*
X181190476Y-88884819D01*
X180809523Y-87980057D02*
X180761904Y-87932438D01*
X180761904Y-87932438D02*
X180666666Y-87884819D01*
X180666666Y-87884819D02*
X180428571Y-87884819D01*
X180428571Y-87884819D02*
X180333333Y-87932438D01*
X180333333Y-87932438D02*
X180285714Y-87980057D01*
X180285714Y-87980057D02*
X180238095Y-88075295D01*
X180238095Y-88075295D02*
X180238095Y-88170533D01*
X180238095Y-88170533D02*
X180285714Y-88313390D01*
X180285714Y-88313390D02*
X180857142Y-88884819D01*
X180857142Y-88884819D02*
X180238095Y-88884819D01*
X154789580Y-71333333D02*
X154837200Y-71285714D01*
X154837200Y-71285714D02*
X154884819Y-71142857D01*
X154884819Y-71142857D02*
X154884819Y-71047619D01*
X154884819Y-71047619D02*
X154837200Y-70904762D01*
X154837200Y-70904762D02*
X154741961Y-70809524D01*
X154741961Y-70809524D02*
X154646723Y-70761905D01*
X154646723Y-70761905D02*
X154456247Y-70714286D01*
X154456247Y-70714286D02*
X154313390Y-70714286D01*
X154313390Y-70714286D02*
X154122914Y-70761905D01*
X154122914Y-70761905D02*
X154027676Y-70809524D01*
X154027676Y-70809524D02*
X153932438Y-70904762D01*
X153932438Y-70904762D02*
X153884819Y-71047619D01*
X153884819Y-71047619D02*
X153884819Y-71142857D01*
X153884819Y-71142857D02*
X153932438Y-71285714D01*
X153932438Y-71285714D02*
X153980057Y-71333333D01*
X153884819Y-72190476D02*
X153884819Y-72000000D01*
X153884819Y-72000000D02*
X153932438Y-71904762D01*
X153932438Y-71904762D02*
X153980057Y-71857143D01*
X153980057Y-71857143D02*
X154122914Y-71761905D01*
X154122914Y-71761905D02*
X154313390Y-71714286D01*
X154313390Y-71714286D02*
X154694342Y-71714286D01*
X154694342Y-71714286D02*
X154789580Y-71761905D01*
X154789580Y-71761905D02*
X154837200Y-71809524D01*
X154837200Y-71809524D02*
X154884819Y-71904762D01*
X154884819Y-71904762D02*
X154884819Y-72095238D01*
X154884819Y-72095238D02*
X154837200Y-72190476D01*
X154837200Y-72190476D02*
X154789580Y-72238095D01*
X154789580Y-72238095D02*
X154694342Y-72285714D01*
X154694342Y-72285714D02*
X154456247Y-72285714D01*
X154456247Y-72285714D02*
X154361009Y-72238095D01*
X154361009Y-72238095D02*
X154313390Y-72190476D01*
X154313390Y-72190476D02*
X154265771Y-72095238D01*
X154265771Y-72095238D02*
X154265771Y-71904762D01*
X154265771Y-71904762D02*
X154313390Y-71809524D01*
X154313390Y-71809524D02*
X154361009Y-71761905D01*
X154361009Y-71761905D02*
X154456247Y-71714286D01*
X183179580Y-77357142D02*
X183227200Y-77309523D01*
X183227200Y-77309523D02*
X183274819Y-77166666D01*
X183274819Y-77166666D02*
X183274819Y-77071428D01*
X183274819Y-77071428D02*
X183227200Y-76928571D01*
X183227200Y-76928571D02*
X183131961Y-76833333D01*
X183131961Y-76833333D02*
X183036723Y-76785714D01*
X183036723Y-76785714D02*
X182846247Y-76738095D01*
X182846247Y-76738095D02*
X182703390Y-76738095D01*
X182703390Y-76738095D02*
X182512914Y-76785714D01*
X182512914Y-76785714D02*
X182417676Y-76833333D01*
X182417676Y-76833333D02*
X182322438Y-76928571D01*
X182322438Y-76928571D02*
X182274819Y-77071428D01*
X182274819Y-77071428D02*
X182274819Y-77166666D01*
X182274819Y-77166666D02*
X182322438Y-77309523D01*
X182322438Y-77309523D02*
X182370057Y-77357142D01*
X182370057Y-77738095D02*
X182322438Y-77785714D01*
X182322438Y-77785714D02*
X182274819Y-77880952D01*
X182274819Y-77880952D02*
X182274819Y-78119047D01*
X182274819Y-78119047D02*
X182322438Y-78214285D01*
X182322438Y-78214285D02*
X182370057Y-78261904D01*
X182370057Y-78261904D02*
X182465295Y-78309523D01*
X182465295Y-78309523D02*
X182560533Y-78309523D01*
X182560533Y-78309523D02*
X182703390Y-78261904D01*
X182703390Y-78261904D02*
X183274819Y-77690476D01*
X183274819Y-77690476D02*
X183274819Y-78309523D01*
X182274819Y-78928571D02*
X182274819Y-79023809D01*
X182274819Y-79023809D02*
X182322438Y-79119047D01*
X182322438Y-79119047D02*
X182370057Y-79166666D01*
X182370057Y-79166666D02*
X182465295Y-79214285D01*
X182465295Y-79214285D02*
X182655771Y-79261904D01*
X182655771Y-79261904D02*
X182893866Y-79261904D01*
X182893866Y-79261904D02*
X183084342Y-79214285D01*
X183084342Y-79214285D02*
X183179580Y-79166666D01*
X183179580Y-79166666D02*
X183227200Y-79119047D01*
X183227200Y-79119047D02*
X183274819Y-79023809D01*
X183274819Y-79023809D02*
X183274819Y-78928571D01*
X183274819Y-78928571D02*
X183227200Y-78833333D01*
X183227200Y-78833333D02*
X183179580Y-78785714D01*
X183179580Y-78785714D02*
X183084342Y-78738095D01*
X183084342Y-78738095D02*
X182893866Y-78690476D01*
X182893866Y-78690476D02*
X182655771Y-78690476D01*
X182655771Y-78690476D02*
X182465295Y-78738095D01*
X182465295Y-78738095D02*
X182370057Y-78785714D01*
X182370057Y-78785714D02*
X182322438Y-78833333D01*
X182322438Y-78833333D02*
X182274819Y-78928571D01*
X161289580Y-69857142D02*
X161337200Y-69809523D01*
X161337200Y-69809523D02*
X161384819Y-69666666D01*
X161384819Y-69666666D02*
X161384819Y-69571428D01*
X161384819Y-69571428D02*
X161337200Y-69428571D01*
X161337200Y-69428571D02*
X161241961Y-69333333D01*
X161241961Y-69333333D02*
X161146723Y-69285714D01*
X161146723Y-69285714D02*
X160956247Y-69238095D01*
X160956247Y-69238095D02*
X160813390Y-69238095D01*
X160813390Y-69238095D02*
X160622914Y-69285714D01*
X160622914Y-69285714D02*
X160527676Y-69333333D01*
X160527676Y-69333333D02*
X160432438Y-69428571D01*
X160432438Y-69428571D02*
X160384819Y-69571428D01*
X160384819Y-69571428D02*
X160384819Y-69666666D01*
X160384819Y-69666666D02*
X160432438Y-69809523D01*
X160432438Y-69809523D02*
X160480057Y-69857142D01*
X160384819Y-70190476D02*
X160384819Y-70809523D01*
X160384819Y-70809523D02*
X160765771Y-70476190D01*
X160765771Y-70476190D02*
X160765771Y-70619047D01*
X160765771Y-70619047D02*
X160813390Y-70714285D01*
X160813390Y-70714285D02*
X160861009Y-70761904D01*
X160861009Y-70761904D02*
X160956247Y-70809523D01*
X160956247Y-70809523D02*
X161194342Y-70809523D01*
X161194342Y-70809523D02*
X161289580Y-70761904D01*
X161289580Y-70761904D02*
X161337200Y-70714285D01*
X161337200Y-70714285D02*
X161384819Y-70619047D01*
X161384819Y-70619047D02*
X161384819Y-70333333D01*
X161384819Y-70333333D02*
X161337200Y-70238095D01*
X161337200Y-70238095D02*
X161289580Y-70190476D01*
X160384819Y-71666666D02*
X160384819Y-71476190D01*
X160384819Y-71476190D02*
X160432438Y-71380952D01*
X160432438Y-71380952D02*
X160480057Y-71333333D01*
X160480057Y-71333333D02*
X160622914Y-71238095D01*
X160622914Y-71238095D02*
X160813390Y-71190476D01*
X160813390Y-71190476D02*
X161194342Y-71190476D01*
X161194342Y-71190476D02*
X161289580Y-71238095D01*
X161289580Y-71238095D02*
X161337200Y-71285714D01*
X161337200Y-71285714D02*
X161384819Y-71380952D01*
X161384819Y-71380952D02*
X161384819Y-71571428D01*
X161384819Y-71571428D02*
X161337200Y-71666666D01*
X161337200Y-71666666D02*
X161289580Y-71714285D01*
X161289580Y-71714285D02*
X161194342Y-71761904D01*
X161194342Y-71761904D02*
X160956247Y-71761904D01*
X160956247Y-71761904D02*
X160861009Y-71714285D01*
X160861009Y-71714285D02*
X160813390Y-71666666D01*
X160813390Y-71666666D02*
X160765771Y-71571428D01*
X160765771Y-71571428D02*
X160765771Y-71380952D01*
X160765771Y-71380952D02*
X160813390Y-71285714D01*
X160813390Y-71285714D02*
X160861009Y-71238095D01*
X160861009Y-71238095D02*
X160956247Y-71190476D01*
X152916666Y-78429580D02*
X152964285Y-78477200D01*
X152964285Y-78477200D02*
X153107142Y-78524819D01*
X153107142Y-78524819D02*
X153202380Y-78524819D01*
X153202380Y-78524819D02*
X153345237Y-78477200D01*
X153345237Y-78477200D02*
X153440475Y-78381961D01*
X153440475Y-78381961D02*
X153488094Y-78286723D01*
X153488094Y-78286723D02*
X153535713Y-78096247D01*
X153535713Y-78096247D02*
X153535713Y-77953390D01*
X153535713Y-77953390D02*
X153488094Y-77762914D01*
X153488094Y-77762914D02*
X153440475Y-77667676D01*
X153440475Y-77667676D02*
X153345237Y-77572438D01*
X153345237Y-77572438D02*
X153202380Y-77524819D01*
X153202380Y-77524819D02*
X153107142Y-77524819D01*
X153107142Y-77524819D02*
X152964285Y-77572438D01*
X152964285Y-77572438D02*
X152916666Y-77620057D01*
X152345237Y-77953390D02*
X152440475Y-77905771D01*
X152440475Y-77905771D02*
X152488094Y-77858152D01*
X152488094Y-77858152D02*
X152535713Y-77762914D01*
X152535713Y-77762914D02*
X152535713Y-77715295D01*
X152535713Y-77715295D02*
X152488094Y-77620057D01*
X152488094Y-77620057D02*
X152440475Y-77572438D01*
X152440475Y-77572438D02*
X152345237Y-77524819D01*
X152345237Y-77524819D02*
X152154761Y-77524819D01*
X152154761Y-77524819D02*
X152059523Y-77572438D01*
X152059523Y-77572438D02*
X152011904Y-77620057D01*
X152011904Y-77620057D02*
X151964285Y-77715295D01*
X151964285Y-77715295D02*
X151964285Y-77762914D01*
X151964285Y-77762914D02*
X152011904Y-77858152D01*
X152011904Y-77858152D02*
X152059523Y-77905771D01*
X152059523Y-77905771D02*
X152154761Y-77953390D01*
X152154761Y-77953390D02*
X152345237Y-77953390D01*
X152345237Y-77953390D02*
X152440475Y-78001009D01*
X152440475Y-78001009D02*
X152488094Y-78048628D01*
X152488094Y-78048628D02*
X152535713Y-78143866D01*
X152535713Y-78143866D02*
X152535713Y-78334342D01*
X152535713Y-78334342D02*
X152488094Y-78429580D01*
X152488094Y-78429580D02*
X152440475Y-78477200D01*
X152440475Y-78477200D02*
X152345237Y-78524819D01*
X152345237Y-78524819D02*
X152154761Y-78524819D01*
X152154761Y-78524819D02*
X152059523Y-78477200D01*
X152059523Y-78477200D02*
X152011904Y-78429580D01*
X152011904Y-78429580D02*
X151964285Y-78334342D01*
X151964285Y-78334342D02*
X151964285Y-78143866D01*
X151964285Y-78143866D02*
X152011904Y-78048628D01*
X152011904Y-78048628D02*
X152059523Y-78001009D01*
X152059523Y-78001009D02*
X152154761Y-77953390D01*
X190392857Y-85134819D02*
X190726190Y-84658628D01*
X190964285Y-85134819D02*
X190964285Y-84134819D01*
X190964285Y-84134819D02*
X190583333Y-84134819D01*
X190583333Y-84134819D02*
X190488095Y-84182438D01*
X190488095Y-84182438D02*
X190440476Y-84230057D01*
X190440476Y-84230057D02*
X190392857Y-84325295D01*
X190392857Y-84325295D02*
X190392857Y-84468152D01*
X190392857Y-84468152D02*
X190440476Y-84563390D01*
X190440476Y-84563390D02*
X190488095Y-84611009D01*
X190488095Y-84611009D02*
X190583333Y-84658628D01*
X190583333Y-84658628D02*
X190964285Y-84658628D01*
X189440476Y-85134819D02*
X190011904Y-85134819D01*
X189726190Y-85134819D02*
X189726190Y-84134819D01*
X189726190Y-84134819D02*
X189821428Y-84277676D01*
X189821428Y-84277676D02*
X189916666Y-84372914D01*
X189916666Y-84372914D02*
X190011904Y-84420533D01*
X188821428Y-84134819D02*
X188726190Y-84134819D01*
X188726190Y-84134819D02*
X188630952Y-84182438D01*
X188630952Y-84182438D02*
X188583333Y-84230057D01*
X188583333Y-84230057D02*
X188535714Y-84325295D01*
X188535714Y-84325295D02*
X188488095Y-84515771D01*
X188488095Y-84515771D02*
X188488095Y-84753866D01*
X188488095Y-84753866D02*
X188535714Y-84944342D01*
X188535714Y-84944342D02*
X188583333Y-85039580D01*
X188583333Y-85039580D02*
X188630952Y-85087200D01*
X188630952Y-85087200D02*
X188726190Y-85134819D01*
X188726190Y-85134819D02*
X188821428Y-85134819D01*
X188821428Y-85134819D02*
X188916666Y-85087200D01*
X188916666Y-85087200D02*
X188964285Y-85039580D01*
X188964285Y-85039580D02*
X189011904Y-84944342D01*
X189011904Y-84944342D02*
X189059523Y-84753866D01*
X189059523Y-84753866D02*
X189059523Y-84515771D01*
X189059523Y-84515771D02*
X189011904Y-84325295D01*
X189011904Y-84325295D02*
X188964285Y-84230057D01*
X188964285Y-84230057D02*
X188916666Y-84182438D01*
X188916666Y-84182438D02*
X188821428Y-84134819D01*
X194045180Y-61762604D02*
X193235657Y-61762604D01*
X193235657Y-61762604D02*
X193140419Y-61714985D01*
X193140419Y-61714985D02*
X193092800Y-61667366D01*
X193092800Y-61667366D02*
X193045180Y-61572128D01*
X193045180Y-61572128D02*
X193045180Y-61381652D01*
X193045180Y-61381652D02*
X193092800Y-61286414D01*
X193092800Y-61286414D02*
X193140419Y-61238795D01*
X193140419Y-61238795D02*
X193235657Y-61191176D01*
X193235657Y-61191176D02*
X194045180Y-61191176D01*
X193616609Y-60572128D02*
X193664228Y-60667366D01*
X193664228Y-60667366D02*
X193711847Y-60714985D01*
X193711847Y-60714985D02*
X193807085Y-60762604D01*
X193807085Y-60762604D02*
X193854704Y-60762604D01*
X193854704Y-60762604D02*
X193949942Y-60714985D01*
X193949942Y-60714985D02*
X193997561Y-60667366D01*
X193997561Y-60667366D02*
X194045180Y-60572128D01*
X194045180Y-60572128D02*
X194045180Y-60381652D01*
X194045180Y-60381652D02*
X193997561Y-60286414D01*
X193997561Y-60286414D02*
X193949942Y-60238795D01*
X193949942Y-60238795D02*
X193854704Y-60191176D01*
X193854704Y-60191176D02*
X193807085Y-60191176D01*
X193807085Y-60191176D02*
X193711847Y-60238795D01*
X193711847Y-60238795D02*
X193664228Y-60286414D01*
X193664228Y-60286414D02*
X193616609Y-60381652D01*
X193616609Y-60381652D02*
X193616609Y-60572128D01*
X193616609Y-60572128D02*
X193568990Y-60667366D01*
X193568990Y-60667366D02*
X193521371Y-60714985D01*
X193521371Y-60714985D02*
X193426133Y-60762604D01*
X193426133Y-60762604D02*
X193235657Y-60762604D01*
X193235657Y-60762604D02*
X193140419Y-60714985D01*
X193140419Y-60714985D02*
X193092800Y-60667366D01*
X193092800Y-60667366D02*
X193045180Y-60572128D01*
X193045180Y-60572128D02*
X193045180Y-60381652D01*
X193045180Y-60381652D02*
X193092800Y-60286414D01*
X193092800Y-60286414D02*
X193140419Y-60238795D01*
X193140419Y-60238795D02*
X193235657Y-60191176D01*
X193235657Y-60191176D02*
X193426133Y-60191176D01*
X193426133Y-60191176D02*
X193521371Y-60238795D01*
X193521371Y-60238795D02*
X193568990Y-60286414D01*
X193568990Y-60286414D02*
X193616609Y-60381652D01*
X175642857Y-59789580D02*
X175690476Y-59837200D01*
X175690476Y-59837200D02*
X175833333Y-59884819D01*
X175833333Y-59884819D02*
X175928571Y-59884819D01*
X175928571Y-59884819D02*
X176071428Y-59837200D01*
X176071428Y-59837200D02*
X176166666Y-59741961D01*
X176166666Y-59741961D02*
X176214285Y-59646723D01*
X176214285Y-59646723D02*
X176261904Y-59456247D01*
X176261904Y-59456247D02*
X176261904Y-59313390D01*
X176261904Y-59313390D02*
X176214285Y-59122914D01*
X176214285Y-59122914D02*
X176166666Y-59027676D01*
X176166666Y-59027676D02*
X176071428Y-58932438D01*
X176071428Y-58932438D02*
X175928571Y-58884819D01*
X175928571Y-58884819D02*
X175833333Y-58884819D01*
X175833333Y-58884819D02*
X175690476Y-58932438D01*
X175690476Y-58932438D02*
X175642857Y-58980057D01*
X174785714Y-59218152D02*
X174785714Y-59884819D01*
X175023809Y-58837200D02*
X175261904Y-59551485D01*
X175261904Y-59551485D02*
X174642857Y-59551485D01*
X173738095Y-59884819D02*
X174309523Y-59884819D01*
X174023809Y-59884819D02*
X174023809Y-58884819D01*
X174023809Y-58884819D02*
X174119047Y-59027676D01*
X174119047Y-59027676D02*
X174214285Y-59122914D01*
X174214285Y-59122914D02*
X174309523Y-59170533D01*
X197179580Y-55357142D02*
X197227200Y-55309523D01*
X197227200Y-55309523D02*
X197274819Y-55166666D01*
X197274819Y-55166666D02*
X197274819Y-55071428D01*
X197274819Y-55071428D02*
X197227200Y-54928571D01*
X197227200Y-54928571D02*
X197131961Y-54833333D01*
X197131961Y-54833333D02*
X197036723Y-54785714D01*
X197036723Y-54785714D02*
X196846247Y-54738095D01*
X196846247Y-54738095D02*
X196703390Y-54738095D01*
X196703390Y-54738095D02*
X196512914Y-54785714D01*
X196512914Y-54785714D02*
X196417676Y-54833333D01*
X196417676Y-54833333D02*
X196322438Y-54928571D01*
X196322438Y-54928571D02*
X196274819Y-55071428D01*
X196274819Y-55071428D02*
X196274819Y-55166666D01*
X196274819Y-55166666D02*
X196322438Y-55309523D01*
X196322438Y-55309523D02*
X196370057Y-55357142D01*
X196608152Y-56214285D02*
X197274819Y-56214285D01*
X196227200Y-55976190D02*
X196941485Y-55738095D01*
X196941485Y-55738095D02*
X196941485Y-56357142D01*
X196703390Y-56880952D02*
X196655771Y-56785714D01*
X196655771Y-56785714D02*
X196608152Y-56738095D01*
X196608152Y-56738095D02*
X196512914Y-56690476D01*
X196512914Y-56690476D02*
X196465295Y-56690476D01*
X196465295Y-56690476D02*
X196370057Y-56738095D01*
X196370057Y-56738095D02*
X196322438Y-56785714D01*
X196322438Y-56785714D02*
X196274819Y-56880952D01*
X196274819Y-56880952D02*
X196274819Y-57071428D01*
X196274819Y-57071428D02*
X196322438Y-57166666D01*
X196322438Y-57166666D02*
X196370057Y-57214285D01*
X196370057Y-57214285D02*
X196465295Y-57261904D01*
X196465295Y-57261904D02*
X196512914Y-57261904D01*
X196512914Y-57261904D02*
X196608152Y-57214285D01*
X196608152Y-57214285D02*
X196655771Y-57166666D01*
X196655771Y-57166666D02*
X196703390Y-57071428D01*
X196703390Y-57071428D02*
X196703390Y-56880952D01*
X196703390Y-56880952D02*
X196751009Y-56785714D01*
X196751009Y-56785714D02*
X196798628Y-56738095D01*
X196798628Y-56738095D02*
X196893866Y-56690476D01*
X196893866Y-56690476D02*
X197084342Y-56690476D01*
X197084342Y-56690476D02*
X197179580Y-56738095D01*
X197179580Y-56738095D02*
X197227200Y-56785714D01*
X197227200Y-56785714D02*
X197274819Y-56880952D01*
X197274819Y-56880952D02*
X197274819Y-57071428D01*
X197274819Y-57071428D02*
X197227200Y-57166666D01*
X197227200Y-57166666D02*
X197179580Y-57214285D01*
X197179580Y-57214285D02*
X197084342Y-57261904D01*
X197084342Y-57261904D02*
X196893866Y-57261904D01*
X196893866Y-57261904D02*
X196798628Y-57214285D01*
X196798628Y-57214285D02*
X196751009Y-57166666D01*
X196751009Y-57166666D02*
X196703390Y-57071428D01*
X175892857Y-60679580D02*
X175940476Y-60727200D01*
X175940476Y-60727200D02*
X176083333Y-60774819D01*
X176083333Y-60774819D02*
X176178571Y-60774819D01*
X176178571Y-60774819D02*
X176321428Y-60727200D01*
X176321428Y-60727200D02*
X176416666Y-60631961D01*
X176416666Y-60631961D02*
X176464285Y-60536723D01*
X176464285Y-60536723D02*
X176511904Y-60346247D01*
X176511904Y-60346247D02*
X176511904Y-60203390D01*
X176511904Y-60203390D02*
X176464285Y-60012914D01*
X176464285Y-60012914D02*
X176416666Y-59917676D01*
X176416666Y-59917676D02*
X176321428Y-59822438D01*
X176321428Y-59822438D02*
X176178571Y-59774819D01*
X176178571Y-59774819D02*
X176083333Y-59774819D01*
X176083333Y-59774819D02*
X175940476Y-59822438D01*
X175940476Y-59822438D02*
X175892857Y-59870057D01*
X174940476Y-60774819D02*
X175511904Y-60774819D01*
X175226190Y-60774819D02*
X175226190Y-59774819D01*
X175226190Y-59774819D02*
X175321428Y-59917676D01*
X175321428Y-59917676D02*
X175416666Y-60012914D01*
X175416666Y-60012914D02*
X175511904Y-60060533D01*
X174083333Y-59774819D02*
X174273809Y-59774819D01*
X174273809Y-59774819D02*
X174369047Y-59822438D01*
X174369047Y-59822438D02*
X174416666Y-59870057D01*
X174416666Y-59870057D02*
X174511904Y-60012914D01*
X174511904Y-60012914D02*
X174559523Y-60203390D01*
X174559523Y-60203390D02*
X174559523Y-60584342D01*
X174559523Y-60584342D02*
X174511904Y-60679580D01*
X174511904Y-60679580D02*
X174464285Y-60727200D01*
X174464285Y-60727200D02*
X174369047Y-60774819D01*
X174369047Y-60774819D02*
X174178571Y-60774819D01*
X174178571Y-60774819D02*
X174083333Y-60727200D01*
X174083333Y-60727200D02*
X174035714Y-60679580D01*
X174035714Y-60679580D02*
X173988095Y-60584342D01*
X173988095Y-60584342D02*
X173988095Y-60346247D01*
X173988095Y-60346247D02*
X174035714Y-60251009D01*
X174035714Y-60251009D02*
X174083333Y-60203390D01*
X174083333Y-60203390D02*
X174178571Y-60155771D01*
X174178571Y-60155771D02*
X174369047Y-60155771D01*
X174369047Y-60155771D02*
X174464285Y-60203390D01*
X174464285Y-60203390D02*
X174511904Y-60251009D01*
X174511904Y-60251009D02*
X174559523Y-60346247D01*
X161929580Y-64607142D02*
X161977200Y-64559523D01*
X161977200Y-64559523D02*
X162024819Y-64416666D01*
X162024819Y-64416666D02*
X162024819Y-64321428D01*
X162024819Y-64321428D02*
X161977200Y-64178571D01*
X161977200Y-64178571D02*
X161881961Y-64083333D01*
X161881961Y-64083333D02*
X161786723Y-64035714D01*
X161786723Y-64035714D02*
X161596247Y-63988095D01*
X161596247Y-63988095D02*
X161453390Y-63988095D01*
X161453390Y-63988095D02*
X161262914Y-64035714D01*
X161262914Y-64035714D02*
X161167676Y-64083333D01*
X161167676Y-64083333D02*
X161072438Y-64178571D01*
X161072438Y-64178571D02*
X161024819Y-64321428D01*
X161024819Y-64321428D02*
X161024819Y-64416666D01*
X161024819Y-64416666D02*
X161072438Y-64559523D01*
X161072438Y-64559523D02*
X161120057Y-64607142D01*
X161120057Y-64988095D02*
X161072438Y-65035714D01*
X161072438Y-65035714D02*
X161024819Y-65130952D01*
X161024819Y-65130952D02*
X161024819Y-65369047D01*
X161024819Y-65369047D02*
X161072438Y-65464285D01*
X161072438Y-65464285D02*
X161120057Y-65511904D01*
X161120057Y-65511904D02*
X161215295Y-65559523D01*
X161215295Y-65559523D02*
X161310533Y-65559523D01*
X161310533Y-65559523D02*
X161453390Y-65511904D01*
X161453390Y-65511904D02*
X162024819Y-64940476D01*
X162024819Y-64940476D02*
X162024819Y-65559523D01*
X162024819Y-66035714D02*
X162024819Y-66226190D01*
X162024819Y-66226190D02*
X161977200Y-66321428D01*
X161977200Y-66321428D02*
X161929580Y-66369047D01*
X161929580Y-66369047D02*
X161786723Y-66464285D01*
X161786723Y-66464285D02*
X161596247Y-66511904D01*
X161596247Y-66511904D02*
X161215295Y-66511904D01*
X161215295Y-66511904D02*
X161120057Y-66464285D01*
X161120057Y-66464285D02*
X161072438Y-66416666D01*
X161072438Y-66416666D02*
X161024819Y-66321428D01*
X161024819Y-66321428D02*
X161024819Y-66130952D01*
X161024819Y-66130952D02*
X161072438Y-66035714D01*
X161072438Y-66035714D02*
X161120057Y-65988095D01*
X161120057Y-65988095D02*
X161215295Y-65940476D01*
X161215295Y-65940476D02*
X161453390Y-65940476D01*
X161453390Y-65940476D02*
X161548628Y-65988095D01*
X161548628Y-65988095D02*
X161596247Y-66035714D01*
X161596247Y-66035714D02*
X161643866Y-66130952D01*
X161643866Y-66130952D02*
X161643866Y-66321428D01*
X161643866Y-66321428D02*
X161596247Y-66416666D01*
X161596247Y-66416666D02*
X161548628Y-66464285D01*
X161548628Y-66464285D02*
X161453390Y-66511904D01*
X156884819Y-61333333D02*
X156408628Y-61000000D01*
X156884819Y-60761905D02*
X155884819Y-60761905D01*
X155884819Y-60761905D02*
X155884819Y-61142857D01*
X155884819Y-61142857D02*
X155932438Y-61238095D01*
X155932438Y-61238095D02*
X155980057Y-61285714D01*
X155980057Y-61285714D02*
X156075295Y-61333333D01*
X156075295Y-61333333D02*
X156218152Y-61333333D01*
X156218152Y-61333333D02*
X156313390Y-61285714D01*
X156313390Y-61285714D02*
X156361009Y-61238095D01*
X156361009Y-61238095D02*
X156408628Y-61142857D01*
X156408628Y-61142857D02*
X156408628Y-60761905D01*
X156313390Y-61904762D02*
X156265771Y-61809524D01*
X156265771Y-61809524D02*
X156218152Y-61761905D01*
X156218152Y-61761905D02*
X156122914Y-61714286D01*
X156122914Y-61714286D02*
X156075295Y-61714286D01*
X156075295Y-61714286D02*
X155980057Y-61761905D01*
X155980057Y-61761905D02*
X155932438Y-61809524D01*
X155932438Y-61809524D02*
X155884819Y-61904762D01*
X155884819Y-61904762D02*
X155884819Y-62095238D01*
X155884819Y-62095238D02*
X155932438Y-62190476D01*
X155932438Y-62190476D02*
X155980057Y-62238095D01*
X155980057Y-62238095D02*
X156075295Y-62285714D01*
X156075295Y-62285714D02*
X156122914Y-62285714D01*
X156122914Y-62285714D02*
X156218152Y-62238095D01*
X156218152Y-62238095D02*
X156265771Y-62190476D01*
X156265771Y-62190476D02*
X156313390Y-62095238D01*
X156313390Y-62095238D02*
X156313390Y-61904762D01*
X156313390Y-61904762D02*
X156361009Y-61809524D01*
X156361009Y-61809524D02*
X156408628Y-61761905D01*
X156408628Y-61761905D02*
X156503866Y-61714286D01*
X156503866Y-61714286D02*
X156694342Y-61714286D01*
X156694342Y-61714286D02*
X156789580Y-61761905D01*
X156789580Y-61761905D02*
X156837200Y-61809524D01*
X156837200Y-61809524D02*
X156884819Y-61904762D01*
X156884819Y-61904762D02*
X156884819Y-62095238D01*
X156884819Y-62095238D02*
X156837200Y-62190476D01*
X156837200Y-62190476D02*
X156789580Y-62238095D01*
X156789580Y-62238095D02*
X156694342Y-62285714D01*
X156694342Y-62285714D02*
X156503866Y-62285714D01*
X156503866Y-62285714D02*
X156408628Y-62238095D01*
X156408628Y-62238095D02*
X156361009Y-62190476D01*
X156361009Y-62190476D02*
X156313390Y-62095238D01*
X158429580Y-66857142D02*
X158477200Y-66809523D01*
X158477200Y-66809523D02*
X158524819Y-66666666D01*
X158524819Y-66666666D02*
X158524819Y-66571428D01*
X158524819Y-66571428D02*
X158477200Y-66428571D01*
X158477200Y-66428571D02*
X158381961Y-66333333D01*
X158381961Y-66333333D02*
X158286723Y-66285714D01*
X158286723Y-66285714D02*
X158096247Y-66238095D01*
X158096247Y-66238095D02*
X157953390Y-66238095D01*
X157953390Y-66238095D02*
X157762914Y-66285714D01*
X157762914Y-66285714D02*
X157667676Y-66333333D01*
X157667676Y-66333333D02*
X157572438Y-66428571D01*
X157572438Y-66428571D02*
X157524819Y-66571428D01*
X157524819Y-66571428D02*
X157524819Y-66666666D01*
X157524819Y-66666666D02*
X157572438Y-66809523D01*
X157572438Y-66809523D02*
X157620057Y-66857142D01*
X157620057Y-67238095D02*
X157572438Y-67285714D01*
X157572438Y-67285714D02*
X157524819Y-67380952D01*
X157524819Y-67380952D02*
X157524819Y-67619047D01*
X157524819Y-67619047D02*
X157572438Y-67714285D01*
X157572438Y-67714285D02*
X157620057Y-67761904D01*
X157620057Y-67761904D02*
X157715295Y-67809523D01*
X157715295Y-67809523D02*
X157810533Y-67809523D01*
X157810533Y-67809523D02*
X157953390Y-67761904D01*
X157953390Y-67761904D02*
X158524819Y-67190476D01*
X158524819Y-67190476D02*
X158524819Y-67809523D01*
X157953390Y-68380952D02*
X157905771Y-68285714D01*
X157905771Y-68285714D02*
X157858152Y-68238095D01*
X157858152Y-68238095D02*
X157762914Y-68190476D01*
X157762914Y-68190476D02*
X157715295Y-68190476D01*
X157715295Y-68190476D02*
X157620057Y-68238095D01*
X157620057Y-68238095D02*
X157572438Y-68285714D01*
X157572438Y-68285714D02*
X157524819Y-68380952D01*
X157524819Y-68380952D02*
X157524819Y-68571428D01*
X157524819Y-68571428D02*
X157572438Y-68666666D01*
X157572438Y-68666666D02*
X157620057Y-68714285D01*
X157620057Y-68714285D02*
X157715295Y-68761904D01*
X157715295Y-68761904D02*
X157762914Y-68761904D01*
X157762914Y-68761904D02*
X157858152Y-68714285D01*
X157858152Y-68714285D02*
X157905771Y-68666666D01*
X157905771Y-68666666D02*
X157953390Y-68571428D01*
X157953390Y-68571428D02*
X157953390Y-68380952D01*
X157953390Y-68380952D02*
X158001009Y-68285714D01*
X158001009Y-68285714D02*
X158048628Y-68238095D01*
X158048628Y-68238095D02*
X158143866Y-68190476D01*
X158143866Y-68190476D02*
X158334342Y-68190476D01*
X158334342Y-68190476D02*
X158429580Y-68238095D01*
X158429580Y-68238095D02*
X158477200Y-68285714D01*
X158477200Y-68285714D02*
X158524819Y-68380952D01*
X158524819Y-68380952D02*
X158524819Y-68571428D01*
X158524819Y-68571428D02*
X158477200Y-68666666D01*
X158477200Y-68666666D02*
X158429580Y-68714285D01*
X158429580Y-68714285D02*
X158334342Y-68761904D01*
X158334342Y-68761904D02*
X158143866Y-68761904D01*
X158143866Y-68761904D02*
X158048628Y-68714285D01*
X158048628Y-68714285D02*
X158001009Y-68666666D01*
X158001009Y-68666666D02*
X157953390Y-68571428D01*
X195166666Y-72274819D02*
X195499999Y-71798628D01*
X195738094Y-72274819D02*
X195738094Y-71274819D01*
X195738094Y-71274819D02*
X195357142Y-71274819D01*
X195357142Y-71274819D02*
X195261904Y-71322438D01*
X195261904Y-71322438D02*
X195214285Y-71370057D01*
X195214285Y-71370057D02*
X195166666Y-71465295D01*
X195166666Y-71465295D02*
X195166666Y-71608152D01*
X195166666Y-71608152D02*
X195214285Y-71703390D01*
X195214285Y-71703390D02*
X195261904Y-71751009D01*
X195261904Y-71751009D02*
X195357142Y-71798628D01*
X195357142Y-71798628D02*
X195738094Y-71798628D01*
X194833332Y-71274819D02*
X194214285Y-71274819D01*
X194214285Y-71274819D02*
X194547618Y-71655771D01*
X194547618Y-71655771D02*
X194404761Y-71655771D01*
X194404761Y-71655771D02*
X194309523Y-71703390D01*
X194309523Y-71703390D02*
X194261904Y-71751009D01*
X194261904Y-71751009D02*
X194214285Y-71846247D01*
X194214285Y-71846247D02*
X194214285Y-72084342D01*
X194214285Y-72084342D02*
X194261904Y-72179580D01*
X194261904Y-72179580D02*
X194309523Y-72227200D01*
X194309523Y-72227200D02*
X194404761Y-72274819D01*
X194404761Y-72274819D02*
X194690475Y-72274819D01*
X194690475Y-72274819D02*
X194785713Y-72227200D01*
X194785713Y-72227200D02*
X194833332Y-72179580D01*
X181429580Y-81607142D02*
X181477200Y-81559523D01*
X181477200Y-81559523D02*
X181524819Y-81416666D01*
X181524819Y-81416666D02*
X181524819Y-81321428D01*
X181524819Y-81321428D02*
X181477200Y-81178571D01*
X181477200Y-81178571D02*
X181381961Y-81083333D01*
X181381961Y-81083333D02*
X181286723Y-81035714D01*
X181286723Y-81035714D02*
X181096247Y-80988095D01*
X181096247Y-80988095D02*
X180953390Y-80988095D01*
X180953390Y-80988095D02*
X180762914Y-81035714D01*
X180762914Y-81035714D02*
X180667676Y-81083333D01*
X180667676Y-81083333D02*
X180572438Y-81178571D01*
X180572438Y-81178571D02*
X180524819Y-81321428D01*
X180524819Y-81321428D02*
X180524819Y-81416666D01*
X180524819Y-81416666D02*
X180572438Y-81559523D01*
X180572438Y-81559523D02*
X180620057Y-81607142D01*
X180524819Y-81940476D02*
X180524819Y-82559523D01*
X180524819Y-82559523D02*
X180905771Y-82226190D01*
X180905771Y-82226190D02*
X180905771Y-82369047D01*
X180905771Y-82369047D02*
X180953390Y-82464285D01*
X180953390Y-82464285D02*
X181001009Y-82511904D01*
X181001009Y-82511904D02*
X181096247Y-82559523D01*
X181096247Y-82559523D02*
X181334342Y-82559523D01*
X181334342Y-82559523D02*
X181429580Y-82511904D01*
X181429580Y-82511904D02*
X181477200Y-82464285D01*
X181477200Y-82464285D02*
X181524819Y-82369047D01*
X181524819Y-82369047D02*
X181524819Y-82083333D01*
X181524819Y-82083333D02*
X181477200Y-81988095D01*
X181477200Y-81988095D02*
X181429580Y-81940476D01*
X180524819Y-82892857D02*
X180524819Y-83511904D01*
X180524819Y-83511904D02*
X180905771Y-83178571D01*
X180905771Y-83178571D02*
X180905771Y-83321428D01*
X180905771Y-83321428D02*
X180953390Y-83416666D01*
X180953390Y-83416666D02*
X181001009Y-83464285D01*
X181001009Y-83464285D02*
X181096247Y-83511904D01*
X181096247Y-83511904D02*
X181334342Y-83511904D01*
X181334342Y-83511904D02*
X181429580Y-83464285D01*
X181429580Y-83464285D02*
X181477200Y-83416666D01*
X181477200Y-83416666D02*
X181524819Y-83321428D01*
X181524819Y-83321428D02*
X181524819Y-83035714D01*
X181524819Y-83035714D02*
X181477200Y-82940476D01*
X181477200Y-82940476D02*
X181429580Y-82892857D01*
X189916666Y-75634819D02*
X190249999Y-75158628D01*
X190488094Y-75634819D02*
X190488094Y-74634819D01*
X190488094Y-74634819D02*
X190107142Y-74634819D01*
X190107142Y-74634819D02*
X190011904Y-74682438D01*
X190011904Y-74682438D02*
X189964285Y-74730057D01*
X189964285Y-74730057D02*
X189916666Y-74825295D01*
X189916666Y-74825295D02*
X189916666Y-74968152D01*
X189916666Y-74968152D02*
X189964285Y-75063390D01*
X189964285Y-75063390D02*
X190011904Y-75111009D01*
X190011904Y-75111009D02*
X190107142Y-75158628D01*
X190107142Y-75158628D02*
X190488094Y-75158628D01*
X188964285Y-75634819D02*
X189535713Y-75634819D01*
X189249999Y-75634819D02*
X189249999Y-74634819D01*
X189249999Y-74634819D02*
X189345237Y-74777676D01*
X189345237Y-74777676D02*
X189440475Y-74872914D01*
X189440475Y-74872914D02*
X189535713Y-74920533D01*
X153789580Y-82357142D02*
X153837200Y-82309523D01*
X153837200Y-82309523D02*
X153884819Y-82166666D01*
X153884819Y-82166666D02*
X153884819Y-82071428D01*
X153884819Y-82071428D02*
X153837200Y-81928571D01*
X153837200Y-81928571D02*
X153741961Y-81833333D01*
X153741961Y-81833333D02*
X153646723Y-81785714D01*
X153646723Y-81785714D02*
X153456247Y-81738095D01*
X153456247Y-81738095D02*
X153313390Y-81738095D01*
X153313390Y-81738095D02*
X153122914Y-81785714D01*
X153122914Y-81785714D02*
X153027676Y-81833333D01*
X153027676Y-81833333D02*
X152932438Y-81928571D01*
X152932438Y-81928571D02*
X152884819Y-82071428D01*
X152884819Y-82071428D02*
X152884819Y-82166666D01*
X152884819Y-82166666D02*
X152932438Y-82309523D01*
X152932438Y-82309523D02*
X152980057Y-82357142D01*
X153884819Y-83309523D02*
X153884819Y-82738095D01*
X153884819Y-83023809D02*
X152884819Y-83023809D01*
X152884819Y-83023809D02*
X153027676Y-82928571D01*
X153027676Y-82928571D02*
X153122914Y-82833333D01*
X153122914Y-82833333D02*
X153170533Y-82738095D01*
X152884819Y-83928571D02*
X152884819Y-84023809D01*
X152884819Y-84023809D02*
X152932438Y-84119047D01*
X152932438Y-84119047D02*
X152980057Y-84166666D01*
X152980057Y-84166666D02*
X153075295Y-84214285D01*
X153075295Y-84214285D02*
X153265771Y-84261904D01*
X153265771Y-84261904D02*
X153503866Y-84261904D01*
X153503866Y-84261904D02*
X153694342Y-84214285D01*
X153694342Y-84214285D02*
X153789580Y-84166666D01*
X153789580Y-84166666D02*
X153837200Y-84119047D01*
X153837200Y-84119047D02*
X153884819Y-84023809D01*
X153884819Y-84023809D02*
X153884819Y-83928571D01*
X153884819Y-83928571D02*
X153837200Y-83833333D01*
X153837200Y-83833333D02*
X153789580Y-83785714D01*
X153789580Y-83785714D02*
X153694342Y-83738095D01*
X153694342Y-83738095D02*
X153503866Y-83690476D01*
X153503866Y-83690476D02*
X153265771Y-83690476D01*
X153265771Y-83690476D02*
X153075295Y-83738095D01*
X153075295Y-83738095D02*
X152980057Y-83785714D01*
X152980057Y-83785714D02*
X152932438Y-83833333D01*
X152932438Y-83833333D02*
X152884819Y-83928571D01*
D11*
%TO.C,C49*%
X155084420Y-58510000D02*
X155365580Y-58510000D01*
X155084420Y-57490000D02*
X155365580Y-57490000D01*
%TO.C,C47*%
X158359420Y-57010000D02*
X158640580Y-57010000D01*
X158359420Y-55990000D02*
X158640580Y-55990000D01*
%TO.C,C18*%
X182334420Y-69010000D02*
X182615580Y-69010000D01*
X182334420Y-67990000D02*
X182615580Y-67990000D01*
%TO.C,C3*%
X158609420Y-93290000D02*
X158890580Y-93290000D01*
X158609420Y-94310000D02*
X158890580Y-94310000D01*
%TO.C,L1*%
X163587221Y-68240000D02*
X163912779Y-68240000D01*
X163587221Y-69260000D02*
X163912779Y-69260000D01*
%TO.C,C21*%
X183740000Y-81359420D02*
X183740000Y-81640580D01*
X184760000Y-81359420D02*
X184760000Y-81640580D01*
%TO.C,C44*%
X167490000Y-67859420D02*
X167490000Y-68140580D01*
X168510000Y-67859420D02*
X168510000Y-68140580D01*
%TO.C,C23*%
X176109420Y-82490000D02*
X176390580Y-82490000D01*
X176109420Y-83510000D02*
X176390580Y-83510000D01*
%TO.C,C46*%
X161740000Y-62140580D02*
X161740000Y-61859420D01*
X162760000Y-62140580D02*
X162760000Y-61859420D01*
%TO.C,C32*%
X179140580Y-69010000D02*
X178859420Y-69010000D01*
X179140580Y-67990000D02*
X178859420Y-67990000D01*
%TO.C,C2*%
X158609420Y-95040000D02*
X158890580Y-95040000D01*
X158609420Y-96060000D02*
X158890580Y-96060000D01*
%TO.C,C40*%
X180390580Y-82490000D02*
X180109420Y-82490000D01*
X180390580Y-83510000D02*
X180109420Y-83510000D01*
%TO.C,C26*%
X162490000Y-82640580D02*
X162490000Y-82359420D01*
X163510000Y-82640580D02*
X163510000Y-82359420D01*
%TO.C,C27*%
X162490000Y-73109420D02*
X162490000Y-73390580D01*
X163510000Y-73109420D02*
X163510000Y-73390580D01*
D12*
%TO.C,U7*%
X194627700Y-67713703D02*
X194627700Y-67287697D01*
X195872300Y-67287697D02*
X195872300Y-67713703D01*
D11*
%TO.C,C24*%
X172359420Y-82490000D02*
X172640580Y-82490000D01*
X172359420Y-83510000D02*
X172640580Y-83510000D01*
%TO.C,C14*%
X165240000Y-62140580D02*
X165240000Y-61859420D01*
X166260000Y-62140580D02*
X166260000Y-61859420D01*
%TO.C,C7*%
X157240000Y-71365580D02*
X157240000Y-71084420D01*
X158260000Y-71365580D02*
X158260000Y-71084420D01*
%TO.C,R2*%
X189512742Y-74727500D02*
X189987258Y-74727500D01*
X189512742Y-75772500D02*
X189987258Y-75772500D01*
%TO.C,C19*%
X183740000Y-71365580D02*
X183740000Y-71084420D01*
X184760000Y-71365580D02*
X184760000Y-71084420D01*
%TO.C,C37*%
X164740000Y-78609420D02*
X164740000Y-78890580D01*
X165760000Y-78609420D02*
X165760000Y-78890580D01*
%TO.C,C45*%
X165740000Y-67859420D02*
X165740000Y-68140580D01*
X166760000Y-67859420D02*
X166760000Y-68140580D01*
%TO.C,R7*%
X163987258Y-75227500D02*
X163512742Y-75227500D01*
X163987258Y-76272500D02*
X163512742Y-76272500D01*
%TO.C,R4*%
X195237258Y-75237500D02*
X194762742Y-75237500D01*
X195237258Y-76282500D02*
X194762742Y-76282500D01*
%TO.C,C15*%
X171390580Y-61240000D02*
X171109420Y-61240000D01*
X171390580Y-62260000D02*
X171109420Y-62260000D01*
%TO.C,R6*%
X188012742Y-87977500D02*
X188487258Y-87977500D01*
X188012742Y-89022500D02*
X188487258Y-89022500D01*
%TO.C,R5*%
X184162258Y-96727500D02*
X183687742Y-96727500D01*
X184162258Y-97772500D02*
X183687742Y-97772500D01*
%TO.C,C17*%
X174859420Y-53740000D02*
X175140580Y-53740000D01*
X174859420Y-54760000D02*
X175140580Y-54760000D01*
%TO.C,C42*%
X164109420Y-57490000D02*
X164390580Y-57490000D01*
X164109420Y-58510000D02*
X164390580Y-58510000D01*
%TO.C,C38*%
X162490000Y-78609420D02*
X162490000Y-78890580D01*
X163510000Y-78609420D02*
X163510000Y-78890580D01*
%TO.C,C43*%
X163890580Y-70240000D02*
X163609420Y-70240000D01*
X163890580Y-71260000D02*
X163609420Y-71260000D01*
%TO.C,C9*%
X152890580Y-77490000D02*
X152609420Y-77490000D01*
X152890580Y-78510000D02*
X152609420Y-78510000D01*
D13*
%TO.C,J2*%
X177900000Y-53700000D02*
X177900000Y-55300000D01*
X177900000Y-63220000D02*
X177900000Y-66700000D01*
X177900000Y-66700000D02*
X178280000Y-66700000D01*
X178820000Y-50550000D02*
X190530000Y-50550000D01*
X189970000Y-66700000D02*
X191750000Y-66700000D01*
X191750000Y-66700000D02*
X191750000Y-52770000D01*
D14*
X187700000Y-68200000D02*
G75*
G02*
X187500000Y-68200000I-100000J0D01*
G01*
X187500000Y-68200000D02*
G75*
G02*
X187700000Y-68200000I100000J0D01*
G01*
D11*
%TO.C,C25*%
X165609420Y-82490000D02*
X165890580Y-82490000D01*
X165609420Y-83510000D02*
X165890580Y-83510000D01*
%TO.C,C13*%
X158109420Y-61740000D02*
X158390580Y-61740000D01*
X158109420Y-62760000D02*
X158390580Y-62760000D01*
%TO.C,C39*%
X187740000Y-69890580D02*
X187740000Y-69609420D01*
X188760000Y-69890580D02*
X188760000Y-69609420D01*
%TO.C,R9*%
X194687742Y-91477500D02*
X195162258Y-91477500D01*
X194687742Y-92522500D02*
X195162258Y-92522500D01*
%TO.C,C34*%
X176760000Y-64334420D02*
X176760000Y-64615580D01*
X175740000Y-64334420D02*
X175740000Y-64615580D01*
%TO.C,C5*%
X153609420Y-68490000D02*
X153890580Y-68490000D01*
X153609420Y-69510000D02*
X153890580Y-69510000D01*
%TO.C,C4*%
X156890580Y-68490000D02*
X156609420Y-68490000D01*
X156890580Y-69510000D02*
X156609420Y-69510000D01*
%TO.C,C35*%
X163490000Y-62140580D02*
X163490000Y-61859420D01*
X164510000Y-62140580D02*
X164510000Y-61859420D01*
%TO.C,C1*%
X155109420Y-91240000D02*
X155390580Y-91240000D01*
X155109420Y-92260000D02*
X155390580Y-92260000D01*
%TO.C,C22*%
X181359420Y-86490000D02*
X181640580Y-86490000D01*
X181359420Y-87510000D02*
X181640580Y-87510000D01*
%TO.C,C6*%
X152490000Y-71640580D02*
X152490000Y-71359420D01*
X153510000Y-71640580D02*
X153510000Y-71359420D01*
%TO.C,C20*%
X183740000Y-77859420D02*
X183740000Y-78140580D01*
X184760000Y-77859420D02*
X184760000Y-78140580D01*
%TO.C,C36*%
X158990000Y-70640580D02*
X158990000Y-70359420D01*
X160010000Y-70640580D02*
X160010000Y-70359420D01*
%TO.C,C8*%
X152890580Y-78990000D02*
X152609420Y-78990000D01*
X152890580Y-80010000D02*
X152609420Y-80010000D01*
%TO.C,R10*%
X189512742Y-82727500D02*
X189987258Y-82727500D01*
X189512742Y-83772500D02*
X189987258Y-83772500D01*
D12*
%TO.C,U8*%
X192877700Y-61213703D02*
X192877700Y-60787697D01*
X194122300Y-60787697D02*
X194122300Y-61213703D01*
D11*
%TO.C,C41*%
X174859420Y-58510000D02*
X175140580Y-58510000D01*
X174859420Y-57490000D02*
X175140580Y-57490000D01*
%TO.C,C48*%
X197765000Y-55738748D02*
X197765000Y-56261252D01*
X199235000Y-55738748D02*
X199235000Y-56261252D01*
%TO.C,C16*%
X175390580Y-61240000D02*
X175109420Y-61240000D01*
X175390580Y-62260000D02*
X175109420Y-62260000D01*
%TO.C,C29*%
X162490000Y-65109420D02*
X162490000Y-65390580D01*
X163510000Y-65109420D02*
X163510000Y-65390580D01*
%TO.C,R8*%
X154477500Y-61737258D02*
X154477500Y-61262742D01*
X155522500Y-61737258D02*
X155522500Y-61262742D01*
%TO.C,C28*%
X158990000Y-67359420D02*
X158990000Y-67640580D01*
X160010000Y-67359420D02*
X160010000Y-67640580D01*
%TO.C,R3*%
X195237258Y-72727500D02*
X194762742Y-72727500D01*
X195237258Y-73772500D02*
X194762742Y-73772500D01*
%TO.C,C33*%
X183010000Y-82109420D02*
X183010000Y-82390580D01*
X181990000Y-82109420D02*
X181990000Y-82390580D01*
%TO.C,R1*%
X189512742Y-73227500D02*
X189987258Y-73227500D01*
X189512742Y-74272500D02*
X189987258Y-74272500D01*
%TO.C,C10*%
X151490000Y-83140580D02*
X151490000Y-82859420D01*
X152510000Y-83140580D02*
X152510000Y-82859420D01*
%TD*%
%LPC*%
D15*
%TO.C,J1*%
X197325000Y-70430000D03*
D16*
X193145000Y-70430000D03*
D15*
X197325000Y-79070000D03*
D16*
X193145000Y-79070000D03*
D17*
X193645000Y-71860000D03*
X193645000Y-77640000D03*
%TD*%
D18*
%TO.C,C49*%
X154450000Y-58000000D03*
X156000000Y-58000000D03*
%TD*%
%TO.C,C47*%
X157725000Y-56500000D03*
X159275000Y-56500000D03*
%TD*%
D19*
%TO.C,J34*%
X197213500Y-65540000D03*
X197213500Y-64270000D03*
X197213500Y-63000000D03*
X197213500Y-61730000D03*
X197213500Y-60460000D03*
D20*
X198368500Y-64905000D03*
X198368500Y-63635000D03*
X198368500Y-62365000D03*
X198368500Y-61095000D03*
%TD*%
D18*
%TO.C,C18*%
X181700000Y-68500000D03*
X183250000Y-68500000D03*
%TD*%
%TO.C,C3*%
X157975000Y-93800000D03*
X159525000Y-93800000D03*
%TD*%
D21*
%TO.C,L1*%
X162962500Y-68750000D03*
X164537500Y-68750000D03*
%TD*%
D22*
%TO.C,C21*%
X184250000Y-80725000D03*
X184250000Y-82275000D03*
%TD*%
%TO.C,C44*%
X168000000Y-67225000D03*
X168000000Y-68775000D03*
%TD*%
D18*
%TO.C,C23*%
X175475000Y-83000000D03*
X177025000Y-83000000D03*
%TD*%
D23*
%TO.C,C46*%
X162250000Y-62775000D03*
X162250000Y-61225000D03*
%TD*%
D24*
%TO.C,C32*%
X179775000Y-68500000D03*
X178225000Y-68500000D03*
%TD*%
D18*
%TO.C,C2*%
X157975000Y-95550000D03*
X159525000Y-95550000D03*
%TD*%
D24*
%TO.C,C40*%
X181025000Y-83000000D03*
X179475000Y-83000000D03*
%TD*%
D23*
%TO.C,C26*%
X163000000Y-83275000D03*
X163000000Y-81725000D03*
%TD*%
D22*
%TO.C,C27*%
X163000000Y-72475000D03*
X163000000Y-74025000D03*
%TD*%
D25*
%TO.C,U7*%
X195250000Y-66751400D03*
X195250000Y-68250000D03*
%TD*%
D18*
%TO.C,C24*%
X171725000Y-83000000D03*
X173275000Y-83000000D03*
%TD*%
D23*
%TO.C,C14*%
X165750000Y-62775000D03*
X165750000Y-61225000D03*
%TD*%
%TO.C,C7*%
X157750000Y-72000000D03*
X157750000Y-70450000D03*
%TD*%
D26*
%TO.C,R2*%
X188925000Y-75250000D03*
X190575000Y-75250000D03*
%TD*%
D23*
%TO.C,C19*%
X184250000Y-72000000D03*
X184250000Y-70450000D03*
%TD*%
D22*
%TO.C,C37*%
X165250000Y-77975000D03*
X165250000Y-79525000D03*
%TD*%
%TO.C,C45*%
X166250000Y-67225000D03*
X166250000Y-68775000D03*
%TD*%
D27*
%TO.C,R7*%
X164575000Y-75750000D03*
X162925000Y-75750000D03*
%TD*%
%TO.C,R4*%
X195825000Y-75760000D03*
X194175000Y-75760000D03*
%TD*%
D24*
%TO.C,C15*%
X172025000Y-61750000D03*
X170475000Y-61750000D03*
%TD*%
D26*
%TO.C,R6*%
X187425000Y-88500000D03*
X189075000Y-88500000D03*
%TD*%
D27*
%TO.C,R5*%
X184750000Y-97250000D03*
X183100000Y-97250000D03*
%TD*%
D18*
%TO.C,C17*%
X174225000Y-54250000D03*
X175775000Y-54250000D03*
%TD*%
%TO.C,C42*%
X163475000Y-58000000D03*
X165025000Y-58000000D03*
%TD*%
D22*
%TO.C,C38*%
X163000000Y-77975000D03*
X163000000Y-79525000D03*
%TD*%
D24*
%TO.C,C43*%
X164525000Y-70750000D03*
X162975000Y-70750000D03*
%TD*%
%TO.C,C9*%
X153525000Y-78000000D03*
X151975000Y-78000000D03*
%TD*%
D28*
%TO.C,J2*%
X187600000Y-66600000D03*
X186500000Y-66600000D03*
X185400000Y-66600000D03*
X184300000Y-66600000D03*
X183200000Y-66600000D03*
X182100000Y-66600000D03*
X181000000Y-66600000D03*
X179900000Y-66600000D03*
D29*
X178000000Y-62300000D03*
D30*
X178000000Y-51950000D03*
D31*
X191500000Y-51500000D03*
D29*
X189150000Y-66600000D03*
D32*
X178000000Y-56100000D03*
D28*
X178950000Y-66600000D03*
%TD*%
D18*
%TO.C,C25*%
X164975000Y-83000000D03*
X166525000Y-83000000D03*
%TD*%
%TO.C,C13*%
X157475000Y-62250000D03*
X159025000Y-62250000D03*
%TD*%
D23*
%TO.C,C39*%
X188250000Y-70525000D03*
X188250000Y-68975000D03*
%TD*%
D26*
%TO.C,R9*%
X194100000Y-92000000D03*
X195750000Y-92000000D03*
%TD*%
D22*
%TO.C,C34*%
X176250000Y-63700000D03*
X176250000Y-65250000D03*
%TD*%
D18*
%TO.C,C5*%
X152975000Y-69000000D03*
X154525000Y-69000000D03*
%TD*%
D24*
%TO.C,C4*%
X157525000Y-69000000D03*
X155975000Y-69000000D03*
%TD*%
D23*
%TO.C,C35*%
X164000000Y-62775000D03*
X164000000Y-61225000D03*
%TD*%
D18*
%TO.C,C1*%
X154475000Y-91750000D03*
X156025000Y-91750000D03*
%TD*%
%TO.C,C22*%
X180725000Y-87000000D03*
X182275000Y-87000000D03*
%TD*%
D23*
%TO.C,C6*%
X153000000Y-72275000D03*
X153000000Y-70725000D03*
%TD*%
D22*
%TO.C,C20*%
X184250000Y-77225000D03*
X184250000Y-78775000D03*
%TD*%
D23*
%TO.C,C36*%
X159500000Y-71275000D03*
X159500000Y-69725000D03*
%TD*%
D24*
%TO.C,C8*%
X153525000Y-79500000D03*
X151975000Y-79500000D03*
%TD*%
D26*
%TO.C,R10*%
X188925000Y-83250000D03*
X190575000Y-83250000D03*
%TD*%
D25*
%TO.C,U8*%
X193500000Y-61750000D03*
X193500000Y-60251400D03*
%TD*%
D18*
%TO.C,C41*%
X174225000Y-58000000D03*
X175775000Y-58000000D03*
%TD*%
D33*
%TO.C,C48*%
X198500000Y-55050000D03*
X198500000Y-56950000D03*
%TD*%
D24*
%TO.C,C16*%
X176025000Y-61750000D03*
X174475000Y-61750000D03*
%TD*%
D22*
%TO.C,C29*%
X163000000Y-64475000D03*
X163000000Y-66025000D03*
%TD*%
D34*
%TO.C,R8*%
X155000000Y-62325000D03*
X155000000Y-60675000D03*
%TD*%
D22*
%TO.C,C28*%
X159500000Y-66725000D03*
X159500000Y-68275000D03*
%TD*%
D27*
%TO.C,R3*%
X195825000Y-73250000D03*
X194175000Y-73250000D03*
%TD*%
D22*
%TO.C,C33*%
X182500000Y-81475000D03*
X182500000Y-83025000D03*
%TD*%
D26*
%TO.C,R1*%
X188925000Y-73750000D03*
X190575000Y-73750000D03*
%TD*%
D23*
%TO.C,C10*%
X152000000Y-83775000D03*
X152000000Y-82225000D03*
%TD*%
%LPD*%
M02*
