%TF.GenerationSoftware,KiCad,Pcbnew,9.0.1-9.0.1-0~ubuntu24.04.1*%
%TF.CreationDate,2025-06-01T23:52:21-05:00*%
%TF.ProjectId,FC,46432e6b-6963-4616-945f-706362585858,rev?*%
%TF.SameCoordinates,Original*%
%TF.FileFunction,Copper,L6,Bot*%
%TF.FilePolarity,Positive*%
%FSLAX46Y46*%
G04 Gerber Fmt 4.6, Leading zero omitted, Abs format (unit mm)*
G04 Created by KiCad (PCBNEW 9.0.1-9.0.1-0~ubuntu24.04.1) date 2025-06-01 23:52:21*
%MOMM*%
%LPD*%
G01*
G04 APERTURE LIST*
G04 Aperture macros list*
%AMRoundRect*
0 Rectangle with rounded corners*
0 $1 Rounding radius*
0 $2 $3 $4 $5 $6 $7 $8 $9 X,Y pos of 4 corners*
0 Add a 4 corners polygon primitive as box body*
4,1,4,$2,$3,$4,$5,$6,$7,$8,$9,$2,$3,0*
0 Add four circle primitives for the rounded corners*
1,1,$1+$1,$2,$3*
1,1,$1+$1,$4,$5*
1,1,$1+$1,$6,$7*
1,1,$1+$1,$8,$9*
0 Add four rect primitives between the rounded corners*
20,1,$1+$1,$2,$3,$4,$5,0*
20,1,$1+$1,$4,$5,$6,$7,0*
20,1,$1+$1,$6,$7,$8,$9,0*
20,1,$1+$1,$8,$9,$2,$3,0*%
G04 Aperture macros list end*
%TA.AperFunction,HeatsinkPad*%
%ADD10O,1.800000X1.000000*%
%TD*%
%TA.AperFunction,HeatsinkPad*%
%ADD11O,2.100000X1.000000*%
%TD*%
%TA.AperFunction,SMDPad,CuDef*%
%ADD12RoundRect,0.225000X-0.225000X-0.250000X0.225000X-0.250000X0.225000X0.250000X-0.225000X0.250000X0*%
%TD*%
%TA.AperFunction,HeatsinkPad*%
%ADD13C,0.500000*%
%TD*%
%TA.AperFunction,HeatsinkPad*%
%ADD14R,1.600000X0.500000*%
%TD*%
%TA.AperFunction,SMDPad,CuDef*%
%ADD15O,1.500000X0.800000*%
%TD*%
%TA.AperFunction,SMDPad,CuDef*%
%ADD16RoundRect,0.218750X-0.218750X-0.256250X0.218750X-0.256250X0.218750X0.256250X-0.218750X0.256250X0*%
%TD*%
%TA.AperFunction,SMDPad,CuDef*%
%ADD17RoundRect,0.225000X-0.250000X0.225000X-0.250000X-0.225000X0.250000X-0.225000X0.250000X0.225000X0*%
%TD*%
%TA.AperFunction,SMDPad,CuDef*%
%ADD18RoundRect,0.225000X0.250000X-0.225000X0.250000X0.225000X-0.250000X0.225000X-0.250000X-0.225000X0*%
%TD*%
%TA.AperFunction,SMDPad,CuDef*%
%ADD19RoundRect,0.225000X0.225000X0.250000X-0.225000X0.250000X-0.225000X-0.250000X0.225000X-0.250000X0*%
%TD*%
%TA.AperFunction,SMDPad,CuDef*%
%ADD20R,0.685800X0.711200*%
%TD*%
%TA.AperFunction,SMDPad,CuDef*%
%ADD21RoundRect,0.200000X-0.200000X-0.275000X0.200000X-0.275000X0.200000X0.275000X-0.200000X0.275000X0*%
%TD*%
%TA.AperFunction,SMDPad,CuDef*%
%ADD22RoundRect,0.200000X0.200000X0.275000X-0.200000X0.275000X-0.200000X-0.275000X0.200000X-0.275000X0*%
%TD*%
%TA.AperFunction,SMDPad,CuDef*%
%ADD23R,0.700000X1.200000*%
%TD*%
%TA.AperFunction,SMDPad,CuDef*%
%ADD24R,1.000000X1.200000*%
%TD*%
%TA.AperFunction,SMDPad,CuDef*%
%ADD25R,1.000000X2.800000*%
%TD*%
%TA.AperFunction,SMDPad,CuDef*%
%ADD26R,1.300000X1.900000*%
%TD*%
%TA.AperFunction,SMDPad,CuDef*%
%ADD27R,1.000000X0.800000*%
%TD*%
%TA.AperFunction,SMDPad,CuDef*%
%ADD28RoundRect,0.250000X-0.475000X0.250000X-0.475000X-0.250000X0.475000X-0.250000X0.475000X0.250000X0*%
%TD*%
%TA.AperFunction,SMDPad,CuDef*%
%ADD29RoundRect,0.200000X0.275000X-0.200000X0.275000X0.200000X-0.275000X0.200000X-0.275000X-0.200000X0*%
%TD*%
%TA.AperFunction,ViaPad*%
%ADD30C,0.600000*%
%TD*%
%TA.AperFunction,ViaPad*%
%ADD31C,0.800000*%
%TD*%
%TA.AperFunction,Conductor*%
%ADD32C,0.200000*%
%TD*%
G04 APERTURE END LIST*
D10*
%TO.P,J1,S1,GND*%
%TO.N,GND*%
X197325000Y-70430000D03*
D11*
X193145000Y-70430000D03*
D10*
X197325000Y-79070000D03*
D11*
X193145000Y-79070000D03*
%TD*%
D12*
%TO.P,C49,1*%
%TO.N,GND*%
X154450000Y-58000000D03*
%TO.P,C49,2*%
%TO.N,+3.3V*%
X156000000Y-58000000D03*
%TD*%
%TO.P,C47,1*%
%TO.N,GND*%
X157725000Y-56500000D03*
%TO.P,C47,2*%
%TO.N,+3.3V*%
X159275000Y-56500000D03*
%TD*%
D13*
%TO.P,U1,7,PAD*%
%TO.N,GND*%
X192300000Y-65750000D03*
D14*
X192850000Y-65750000D03*
D13*
X193400000Y-65750000D03*
%TD*%
D15*
%TO.P,J34,5,Pin_5*%
%TO.N,unconnected-(J34-Pin_5-Pad5)*%
X198368500Y-64905000D03*
%TO.P,J34,6,Pin_6*%
%TO.N,/NRST*%
X198368500Y-63635000D03*
%TO.P,J34,7,Pin_7*%
%TO.N,+3.3V*%
X198368500Y-62365000D03*
%TO.P,J34,8,Pin_8*%
%TO.N,unconnected-(J34-Pin_8-Pad8)*%
X198368500Y-61095000D03*
%TD*%
D12*
%TO.P,C18,1*%
%TO.N,GND*%
X181700000Y-68500000D03*
%TO.P,C18,2*%
%TO.N,+3.3V*%
X183250000Y-68500000D03*
%TD*%
%TO.P,C3,1*%
%TO.N,GND*%
X157975000Y-93800000D03*
%TO.P,C3,2*%
%TO.N,+3.3V*%
X159525000Y-93800000D03*
%TD*%
D16*
%TO.P,L1,1*%
%TO.N,Net-(U10-VFBSMPS)*%
X162962500Y-68750000D03*
%TO.P,L1,2*%
%TO.N,Net-(U10-VLXSMPS)*%
X164537500Y-68750000D03*
%TD*%
D17*
%TO.P,C21,1*%
%TO.N,GND*%
X184250000Y-80725000D03*
%TO.P,C21,2*%
%TO.N,+3.3V*%
X184250000Y-82275000D03*
%TD*%
%TO.P,C44,1*%
%TO.N,GND*%
X168000000Y-67225000D03*
%TO.P,C44,2*%
%TO.N,Net-(U10-VFBSMPS)*%
X168000000Y-68775000D03*
%TD*%
D12*
%TO.P,C23,1*%
%TO.N,GND*%
X175475000Y-83000000D03*
%TO.P,C23,2*%
%TO.N,+3.3V*%
X177025000Y-83000000D03*
%TD*%
D18*
%TO.P,C46,1*%
%TO.N,GND*%
X162250000Y-62775000D03*
%TO.P,C46,2*%
%TO.N,+3.3V*%
X162250000Y-61225000D03*
%TD*%
D19*
%TO.P,C32,1*%
%TO.N,GND*%
X179775000Y-68500000D03*
%TO.P,C32,2*%
%TO.N,+3.3V*%
X178225000Y-68500000D03*
%TD*%
D12*
%TO.P,C2,1*%
%TO.N,GND*%
X157975000Y-95550000D03*
%TO.P,C2,2*%
%TO.N,+3.3V*%
X159525000Y-95550000D03*
%TD*%
D19*
%TO.P,C40,1*%
%TO.N,GND*%
X181025000Y-83000000D03*
%TO.P,C40,2*%
%TO.N,Net-(C40-Pad2)*%
X179475000Y-83000000D03*
%TD*%
D18*
%TO.P,C26,1*%
%TO.N,GND*%
X163000000Y-83275000D03*
%TO.P,C26,2*%
%TO.N,+3.3V*%
X163000000Y-81725000D03*
%TD*%
D17*
%TO.P,C27,1*%
%TO.N,GND*%
X163000000Y-72475000D03*
%TO.P,C27,2*%
%TO.N,+3.3V*%
X163000000Y-74025000D03*
%TD*%
D20*
%TO.P,U7,1*%
%TO.N,+5V*%
X195250000Y-66751400D03*
%TO.P,U7,2*%
%TO.N,Net-(J1-VBUS-PadA4)*%
X195250000Y-68250000D03*
%TD*%
D12*
%TO.P,C24,1*%
%TO.N,GND*%
X171725000Y-83000000D03*
%TO.P,C24,2*%
%TO.N,+3.3V*%
X173275000Y-83000000D03*
%TD*%
D18*
%TO.P,C14,1*%
%TO.N,GND*%
X165750000Y-62775000D03*
%TO.P,C14,2*%
%TO.N,+3.3V*%
X165750000Y-61225000D03*
%TD*%
%TO.P,C7,1*%
%TO.N,GND*%
X157750000Y-72000000D03*
%TO.P,C7,2*%
%TO.N,+3.3V*%
X157750000Y-70450000D03*
%TD*%
D21*
%TO.P,R2,1*%
%TO.N,/USB_DP*%
X188925000Y-75250000D03*
%TO.P,R2,2*%
%TO.N,Net-(J1-DP1)*%
X190575000Y-75250000D03*
%TD*%
D18*
%TO.P,C19,1*%
%TO.N,GND*%
X184250000Y-72000000D03*
%TO.P,C19,2*%
%TO.N,+3.3V*%
X184250000Y-70450000D03*
%TD*%
D17*
%TO.P,C37,1*%
%TO.N,GND*%
X165250000Y-77975000D03*
%TO.P,C37,2*%
%TO.N,+3.3V*%
X165250000Y-79525000D03*
%TD*%
%TO.P,C45,1*%
%TO.N,GND*%
X166250000Y-67225000D03*
%TO.P,C45,2*%
%TO.N,Net-(U10-VFBSMPS)*%
X166250000Y-68775000D03*
%TD*%
D22*
%TO.P,R7,1*%
%TO.N,+3.3V*%
X164575000Y-75750000D03*
%TO.P,R7,2*%
%TO.N,/NRST*%
X162925000Y-75750000D03*
%TD*%
%TO.P,R4,1*%
%TO.N,GND*%
X195825000Y-75760000D03*
%TO.P,R4,2*%
%TO.N,Net-(J1-CC1)*%
X194175000Y-75760000D03*
%TD*%
D19*
%TO.P,C15,1*%
%TO.N,GND*%
X172025000Y-61750000D03*
%TO.P,C15,2*%
%TO.N,+3.3V*%
X170475000Y-61750000D03*
%TD*%
D21*
%TO.P,R6,1*%
%TO.N,+3.3V*%
X187425000Y-88500000D03*
%TO.P,R6,2*%
%TO.N,Net-(U9-~{SAFEBOOT})*%
X189075000Y-88500000D03*
%TD*%
D22*
%TO.P,R5,1*%
%TO.N,+3.3V*%
X184750000Y-97250000D03*
%TO.P,R5,2*%
%TO.N,Net-(U9-~{RESET})*%
X183100000Y-97250000D03*
%TD*%
D12*
%TO.P,C17,1*%
%TO.N,GND*%
X174225000Y-54250000D03*
%TO.P,C17,2*%
%TO.N,+3.3V*%
X175775000Y-54250000D03*
%TD*%
%TO.P,C42,1*%
%TO.N,GND*%
X163475000Y-58000000D03*
%TO.P,C42,2*%
%TO.N,Net-(C42-Pad2)*%
X165025000Y-58000000D03*
%TD*%
D17*
%TO.P,C38,1*%
%TO.N,GND*%
X163000000Y-77975000D03*
%TO.P,C38,2*%
%TO.N,+3.3V*%
X163000000Y-79525000D03*
%TD*%
D19*
%TO.P,C43,1*%
%TO.N,Net-(U10-VLXSMPS)*%
X164525000Y-70750000D03*
%TO.P,C43,2*%
%TO.N,GND*%
X162975000Y-70750000D03*
%TD*%
%TO.P,C9,1*%
%TO.N,GND*%
X153525000Y-78000000D03*
%TO.P,C9,2*%
%TO.N,+3.3V*%
X151975000Y-78000000D03*
%TD*%
D23*
%TO.P,J2,1,DAT2*%
%TO.N,/SD_DAT2*%
X187600000Y-66600000D03*
%TO.P,J2,2,CD/DAT3*%
%TO.N,/SD_DAT3*%
X186500000Y-66600000D03*
%TO.P,J2,3,CMD*%
%TO.N,/SD_CMD*%
X185400000Y-66600000D03*
%TO.P,J2,4,VDD*%
%TO.N,+3.3V*%
X184300000Y-66600000D03*
%TO.P,J2,5,CLK*%
%TO.N,/SD_CLK*%
X183200000Y-66600000D03*
%TO.P,J2,6,VSS*%
%TO.N,GND*%
X182100000Y-66600000D03*
%TO.P,J2,7,DAT0*%
%TO.N,/SD_DAT0*%
X181000000Y-66600000D03*
%TO.P,J2,8,DAT1*%
%TO.N,/SD_DAT1*%
X179900000Y-66600000D03*
D24*
%TO.P,J2,P1,SHIELD*%
%TO.N,GND*%
X178000000Y-62300000D03*
D25*
%TO.P,J2,P2,SHIELD__1*%
X178000000Y-51950000D03*
D26*
%TO.P,J2,P3,SHIELD__2*%
X191500000Y-51500000D03*
D24*
%TO.P,J2,P4,SHIELD__3*%
X189150000Y-66600000D03*
D27*
%TO.P,J2,SWA,A*%
%TO.N,unconnected-(J2-A-PadSWA)*%
X178000000Y-56100000D03*
D23*
%TO.P,J2,SWB,B*%
%TO.N,unconnected-(J2-B-PadSWB)*%
X178950000Y-66600000D03*
%TD*%
D12*
%TO.P,C25,1*%
%TO.N,GND*%
X164975000Y-83000000D03*
%TO.P,C25,2*%
%TO.N,+3.3V*%
X166525000Y-83000000D03*
%TD*%
%TO.P,C13,1*%
%TO.N,GND*%
X157475000Y-62250000D03*
%TO.P,C13,2*%
%TO.N,+3.3V*%
X159025000Y-62250000D03*
%TD*%
D18*
%TO.P,C39,1*%
%TO.N,GND*%
X188250000Y-70525000D03*
%TO.P,C39,2*%
%TO.N,+5V*%
X188250000Y-68975000D03*
%TD*%
D21*
%TO.P,R9,1*%
%TO.N,/LEDC_PWM*%
X194100000Y-92000000D03*
%TO.P,R9,2*%
%TO.N,Net-(U15-DIN)*%
X195750000Y-92000000D03*
%TD*%
D17*
%TO.P,C34,1*%
%TO.N,GND*%
X176250000Y-63700000D03*
%TO.P,C34,2*%
%TO.N,+3.3V*%
X176250000Y-65250000D03*
%TD*%
D12*
%TO.P,C5,1*%
%TO.N,GND*%
X152975000Y-69000000D03*
%TO.P,C5,2*%
%TO.N,+3.3V*%
X154525000Y-69000000D03*
%TD*%
D19*
%TO.P,C4,1*%
%TO.N,GND*%
X157525000Y-69000000D03*
%TO.P,C4,2*%
%TO.N,+3.3V*%
X155975000Y-69000000D03*
%TD*%
D18*
%TO.P,C35,1*%
%TO.N,GND*%
X164000000Y-62775000D03*
%TO.P,C35,2*%
%TO.N,+3.3V*%
X164000000Y-61225000D03*
%TD*%
D12*
%TO.P,C1,1*%
%TO.N,GND*%
X154475000Y-91750000D03*
%TO.P,C1,2*%
%TO.N,Net-(U6-C1)*%
X156025000Y-91750000D03*
%TD*%
%TO.P,C22,1*%
%TO.N,GND*%
X180725000Y-87000000D03*
%TO.P,C22,2*%
%TO.N,+3.3V*%
X182275000Y-87000000D03*
%TD*%
D18*
%TO.P,C6,1*%
%TO.N,GND*%
X153000000Y-72275000D03*
%TO.P,C6,2*%
%TO.N,+3.3V*%
X153000000Y-70725000D03*
%TD*%
D17*
%TO.P,C20,1*%
%TO.N,GND*%
X184250000Y-77225000D03*
%TO.P,C20,2*%
%TO.N,+3.3V*%
X184250000Y-78775000D03*
%TD*%
D18*
%TO.P,C36,1*%
%TO.N,GND*%
X159500000Y-71275000D03*
%TO.P,C36,2*%
%TO.N,+3.3V*%
X159500000Y-69725000D03*
%TD*%
D19*
%TO.P,C8,1*%
%TO.N,GND*%
X153525000Y-79500000D03*
%TO.P,C8,2*%
%TO.N,+3.3V*%
X151975000Y-79500000D03*
%TD*%
D21*
%TO.P,R10,1*%
%TO.N,/LEDB_PWM*%
X188925000Y-83250000D03*
%TO.P,R10,2*%
%TO.N,Net-(U16-DIN)*%
X190575000Y-83250000D03*
%TD*%
D20*
%TO.P,U8,1*%
%TO.N,+5V*%
X193500000Y-61750000D03*
%TO.P,U8,2*%
%TO.N,/ESC_5V*%
X193500000Y-60251400D03*
%TD*%
D12*
%TO.P,C41,1*%
%TO.N,GND*%
X174225000Y-58000000D03*
%TO.P,C41,2*%
%TO.N,Net-(C41-Pad2)*%
X175775000Y-58000000D03*
%TD*%
D28*
%TO.P,C48,1*%
%TO.N,GND*%
X198500000Y-55050000D03*
%TO.P,C48,2*%
%TO.N,+5V*%
X198500000Y-56950000D03*
%TD*%
D19*
%TO.P,C16,1*%
%TO.N,GND*%
X176025000Y-61750000D03*
%TO.P,C16,2*%
%TO.N,+3.3V*%
X174475000Y-61750000D03*
%TD*%
D17*
%TO.P,C29,1*%
%TO.N,GND*%
X163000000Y-64475000D03*
%TO.P,C29,2*%
%TO.N,+3.3V*%
X163000000Y-66025000D03*
%TD*%
D29*
%TO.P,R8,1*%
%TO.N,Net-(R8-Pad1)*%
X155000000Y-62325000D03*
%TO.P,R8,2*%
%TO.N,Net-(U10-BOOT0)*%
X155000000Y-60675000D03*
%TD*%
D17*
%TO.P,C28,1*%
%TO.N,GND*%
X159500000Y-66725000D03*
%TO.P,C28,2*%
%TO.N,+3.3V*%
X159500000Y-68275000D03*
%TD*%
D22*
%TO.P,R3,1*%
%TO.N,GND*%
X195825000Y-73250000D03*
%TO.P,R3,2*%
%TO.N,Net-(J1-CC2)*%
X194175000Y-73250000D03*
%TD*%
D17*
%TO.P,C33,1*%
%TO.N,GND*%
X182500000Y-81475000D03*
%TO.P,C33,2*%
%TO.N,+3.3V*%
X182500000Y-83025000D03*
%TD*%
D21*
%TO.P,R1,1*%
%TO.N,/USB_DN*%
X188925000Y-73750000D03*
%TO.P,R1,2*%
%TO.N,Net-(J1-DN1)*%
X190575000Y-73750000D03*
%TD*%
D18*
%TO.P,C10,1*%
%TO.N,GND*%
X152000000Y-83775000D03*
%TO.P,C10,2*%
%TO.N,+3.3V*%
X152000000Y-82225000D03*
%TD*%
D30*
%TO.N,Net-(J1-VBUS-PadA4)*%
X195000000Y-71500000D03*
%TO.N,+3.3V*%
X188000000Y-64250000D03*
X184300000Y-66600000D03*
%TO.N,FSYNC*%
X159250000Y-72750000D03*
%TO.N,GND*%
X154475000Y-91750000D03*
%TO.N,Net-(U6-C1)*%
X156025000Y-91750000D03*
%TO.N,+3.3V*%
X175775000Y-54250000D03*
%TO.N,Net-(C41-Pad2)*%
X185500000Y-59250000D03*
X178000000Y-57800000D03*
%TO.N,GND*%
X174225000Y-58000000D03*
%TO.N,+3.3V*%
X176250000Y-67750000D03*
%TO.N,GND*%
X180750000Y-68500000D03*
%TO.N,IMU2_SCL*%
X155750000Y-68000000D03*
%TO.N,GND*%
X160750000Y-60250000D03*
%TO.N,+3.3V*%
X159025000Y-62250000D03*
%TO.N,IMU3_MISO*%
X173100000Y-61150000D03*
%TO.N,IMU3_MOSI*%
X171900000Y-58600000D03*
%TO.N,IMU3_SCL*%
X172500000Y-58000000D03*
%TO.N,IMU3_MISO*%
X158222909Y-61322154D03*
%TO.N,IMU3_MOSI*%
X159059598Y-59466239D03*
%TO.N,IMU3_SCL*%
X158445998Y-58936402D03*
%TO.N,FSYNC*%
X160101251Y-58101251D03*
X152374000Y-67626000D03*
%TO.N,Net-(U10-BOOT0)*%
X167250000Y-62250000D03*
%TO.N,GND*%
X163200000Y-52600000D03*
X164975000Y-83000000D03*
X181025000Y-83000000D03*
X181250000Y-88600000D03*
X155250000Y-65000000D03*
X156429801Y-77424999D03*
X165250000Y-77975000D03*
X154475000Y-58000000D03*
X153525000Y-79500000D03*
X157700000Y-56500000D03*
X189000000Y-97000000D03*
X157975000Y-93800000D03*
X166000000Y-56100000D03*
X182100000Y-66600000D03*
X195000000Y-87525000D03*
X159500000Y-66725000D03*
X163250000Y-92250000D03*
X166000000Y-54400000D03*
X175475000Y-83000000D03*
X152000000Y-83775000D03*
X153000000Y-72275000D03*
X180725000Y-87000000D03*
X195447500Y-80947500D03*
X157525000Y-69000000D03*
X165750000Y-62775000D03*
X184250000Y-80725000D03*
X175750000Y-88800000D03*
X184250000Y-72000000D03*
X152578248Y-51828248D03*
X192570000Y-71550000D03*
X189250000Y-53500000D03*
X162975000Y-70750000D03*
X166000000Y-52750000D03*
X172025000Y-61750000D03*
X176250000Y-52600000D03*
X173750000Y-52600000D03*
X171725000Y-83000000D03*
X151759517Y-97431269D03*
X175750000Y-95800000D03*
X198500000Y-55050000D03*
X163000000Y-72475000D03*
X196525000Y-89000000D03*
X157975000Y-95550000D03*
X157475000Y-62250000D03*
X166250000Y-67225000D03*
X183500000Y-56650000D03*
X164000000Y-62775000D03*
X158250000Y-54750000D03*
X163000000Y-77975000D03*
X152975000Y-69000000D03*
X195000000Y-90475000D03*
X192570000Y-77950000D03*
X168000000Y-67225000D03*
X153525000Y-78000000D03*
X190750000Y-95200000D03*
X189150000Y-66600000D03*
X176025000Y-61750000D03*
X163475000Y-58000000D03*
X155836765Y-72913235D03*
X154500000Y-59499998D03*
X163000000Y-64475000D03*
X198331117Y-52668883D03*
X196500000Y-67750000D03*
X188250000Y-70525000D03*
X194500000Y-58500000D03*
X159500000Y-71275000D03*
X184250000Y-77225000D03*
%TO.N,+3.3V*%
X182500000Y-83025000D03*
%TO.N,GND*%
X163000000Y-83275000D03*
X157750000Y-72000000D03*
%TO.N,Net-(J1-DP1)*%
X190575000Y-75250000D03*
X194250000Y-74238220D03*
%TO.N,Net-(J1-DN1)*%
X190575000Y-73750000D03*
%TO.N,Net-(J1-CC2)*%
X194175000Y-73250000D03*
%TO.N,Net-(J1-CC1)*%
X194175000Y-75760000D03*
%TO.N,/SD_CLK*%
X181500000Y-64250000D03*
%TO.N,/SD_DAT1*%
X180000000Y-65500000D03*
%TO.N,+3.3V*%
X163000000Y-81725000D03*
X154500000Y-64000000D03*
X163000000Y-74025000D03*
X162250000Y-61225000D03*
X181250000Y-96300000D03*
X195750000Y-58900000D03*
X153000000Y-70725000D03*
X174475000Y-61750000D03*
X159500000Y-69725000D03*
X183500000Y-61900000D03*
%TO.N,GND*%
X182500000Y-81475000D03*
%TO.N,+3.3V*%
X164000000Y-61225000D03*
X154525000Y-69000000D03*
X177025000Y-83000000D03*
X164575000Y-75750000D03*
X156025000Y-58000000D03*
X159525000Y-93800000D03*
X170750000Y-95750000D03*
X166525000Y-83000000D03*
X152000000Y-82225000D03*
X184750000Y-97250000D03*
X173275000Y-83000000D03*
X170475000Y-61750000D03*
X163250000Y-95750000D03*
X151987500Y-79512500D03*
X171000000Y-54400000D03*
X156429801Y-75575001D03*
X170750000Y-88750000D03*
X181250000Y-95200000D03*
X159250000Y-56500000D03*
X151975000Y-78000000D03*
X159500000Y-68275000D03*
X190750000Y-93000000D03*
X155124264Y-80250735D03*
X184250000Y-70450000D03*
X165750000Y-61225000D03*
X163000000Y-79525000D03*
X182275000Y-87000000D03*
X157750000Y-70450000D03*
X187425000Y-88500000D03*
D31*
X193275000Y-68500000D03*
D30*
X165250000Y-79525000D03*
X184250000Y-82275000D03*
X184250000Y-78775000D03*
X158070199Y-75575001D03*
X163000000Y-66025000D03*
%TO.N,/SD_CMD*%
X179400000Y-61900000D03*
%TO.N,/SD_DAT2*%
X183250000Y-62750000D03*
%TO.N,/SD_DAT0*%
X181250000Y-65500000D03*
%TO.N,/SD_DAT3*%
X184250000Y-63500000D03*
%TO.N,+5V*%
X197568731Y-96759517D03*
X152440786Y-53309214D03*
X161945650Y-51350000D03*
X188250000Y-68250000D03*
X153240483Y-97568731D03*
X184500000Y-67750000D03*
X198500000Y-56950000D03*
X180000000Y-56000000D03*
X196750000Y-52431269D03*
X198625000Y-85375000D03*
X194500000Y-61750000D03*
%TO.N,IMU1_MISO*%
X157250000Y-82250000D03*
X159000000Y-80500000D03*
%TO.N,IMU1_SCL*%
X155728520Y-84798379D03*
X179000000Y-87000000D03*
%TO.N,BARO_SCL*%
X154488235Y-73261765D03*
X159299265Y-73950735D03*
%TO.N,MAG_MISO*%
X164500000Y-87000000D03*
X161750000Y-91500000D03*
%TO.N,MAG_INT*%
X161750000Y-92250000D03*
X167500000Y-87000000D03*
%TO.N,MAG_SCL*%
X164174874Y-86349749D03*
X158250000Y-89750000D03*
%TO.N,Net-(C40-Pad2)*%
X179500000Y-83000000D03*
%TO.N,Net-(U9-~{RESET})*%
X183100000Y-97250000D03*
%TO.N,Net-(U9-~{SAFEBOOT})*%
X189075000Y-88500000D03*
%TO.N,/USB_DN*%
X187750000Y-63000000D03*
%TO.N,Net-(U15-DIN)*%
X195750000Y-92000000D03*
%TO.N,Net-(C42-Pad2)*%
X165025000Y-58000000D03*
%TO.N,Net-(U10-VFBSMPS)*%
X162962500Y-68750000D03*
X166250000Y-68775000D03*
%TO.N,/USB_DP*%
X187750000Y-61900000D03*
%TO.N,Net-(U10-VLXSMPS)*%
X164250000Y-67850000D03*
%TO.N,/EXT_VTX_IRC*%
X173750000Y-56100000D03*
X185074265Y-62425735D03*
%TO.N,/ESC_5V*%
X185000000Y-56650000D03*
X193500000Y-60251400D03*
%TO.N,/LEDC_PWM*%
X187750000Y-80250000D03*
%TO.N,Net-(U16-DIN)*%
X191927799Y-83275000D03*
%TO.N,/LEDB_PWM*%
X188925000Y-83250000D03*
X178750000Y-83750000D03*
%TO.N,/ELRS_UART_RX*%
X166750000Y-61500000D03*
X162035616Y-60348000D03*
%TO.N,Net-(R8-Pad1)*%
X155000700Y-62500000D03*
%TO.N,/SWO*%
X169672696Y-61191207D03*
X198600000Y-66650000D03*
%TO.N,/NRST*%
X162925000Y-75750000D03*
X199200000Y-67250000D03*
%TO.N,/SWCLK*%
X199000000Y-58250000D03*
X181900000Y-58250000D03*
%TO.N,/SDWIO*%
X186500000Y-59700000D03*
X198250000Y-59750000D03*
%TO.N,Net-(J1-VBUS-PadA4)*%
X195000000Y-76750000D03*
%TO.N,FSYNC*%
X152750000Y-83000000D03*
%TO.N,IMU2_SCL*%
X163086736Y-62086736D03*
%TO.N,GND*%
X197431269Y-98240483D03*
%TD*%
D32*
%TO.N,+5V*%
X195250000Y-66751400D02*
X195250000Y-62500000D01*
X195250000Y-62500000D02*
X194500000Y-61750000D01*
%TO.N,+3.3V*%
X184300000Y-66600000D02*
X183899000Y-67001000D01*
X183899000Y-67001000D02*
X183899000Y-67851000D01*
X183899000Y-67851000D02*
X183250000Y-68500000D01*
%TO.N,GND*%
X174225000Y-54250000D02*
X174225000Y-53075000D01*
X174225000Y-53075000D02*
X173750000Y-52600000D01*
%TO.N,Net-(C41-Pad2)*%
X177800000Y-58000000D02*
X178000000Y-57800000D01*
X175775000Y-58000000D02*
X177800000Y-58000000D01*
%TO.N,+3.3V*%
X178225000Y-68500000D02*
X177000000Y-68500000D01*
X177000000Y-68500000D02*
X176250000Y-67750000D01*
X176250000Y-65250000D02*
X176250000Y-67750000D01*
X183250000Y-68500000D02*
X183250000Y-69450000D01*
X183250000Y-69450000D02*
X184250000Y-70450000D01*
%TO.N,GND*%
X179775000Y-68500000D02*
X180750000Y-68500000D01*
X181700000Y-68500000D02*
X180750000Y-68500000D01*
X195825000Y-75760000D02*
X195825000Y-77570000D01*
X195825000Y-77570000D02*
X197325000Y-79070000D01*
X195825000Y-73250000D02*
X195825000Y-71930000D01*
X195825000Y-71930000D02*
X197325000Y-70430000D01*
X189250000Y-66400000D02*
X189250000Y-66500000D01*
X176250000Y-52600000D02*
X177350000Y-52600000D01*
X168000000Y-67225000D02*
X166250000Y-67225000D01*
X153525000Y-78000000D02*
X153525000Y-79500000D01*
X177350000Y-52600000D02*
X178000000Y-51950000D01*
X189250000Y-53500000D02*
X191250000Y-51500000D01*
X178000000Y-62300000D02*
X176575000Y-62300000D01*
X162250000Y-62775000D02*
X164000000Y-62775000D01*
X176575000Y-62300000D02*
X176025000Y-61750000D01*
X189250000Y-66500000D02*
X189150000Y-66600000D01*
X191250000Y-51500000D02*
X191500000Y-51500000D01*
X163000000Y-77975000D02*
X165250000Y-77975000D01*
%TO.N,Net-(J1-DP1)*%
X192000000Y-75750000D02*
X191500000Y-75250000D01*
X194250000Y-74750000D02*
X194016000Y-74984000D01*
X193474000Y-75276000D02*
X193000000Y-75750000D01*
X193474000Y-75271936D02*
X193474000Y-75276000D01*
X193761936Y-74984000D02*
X193474000Y-75271936D01*
X193000000Y-75750000D02*
X192000000Y-75750000D01*
X194250000Y-74238220D02*
X194250000Y-74750000D01*
X191500000Y-75250000D02*
X190575000Y-75250000D01*
X194016000Y-74984000D02*
X193761936Y-74984000D01*
%TO.N,/SD_CLK*%
X183200000Y-65950000D02*
X183200000Y-66600000D01*
X181500000Y-64250000D02*
X183200000Y-65950000D01*
%TO.N,/SD_DAT1*%
X180000000Y-65500000D02*
X180000000Y-66500000D01*
X180000000Y-66500000D02*
X179900000Y-66600000D01*
%TO.N,+3.3V*%
X165250000Y-79525000D02*
X163000000Y-79525000D01*
X195750000Y-58900000D02*
X198900000Y-58900000D01*
X152000000Y-79525000D02*
X151975000Y-79500000D01*
X151987500Y-79512500D02*
X151975000Y-79500000D01*
X151975000Y-78000000D02*
X151975000Y-79500000D01*
X152751000Y-80276000D02*
X151987500Y-79512500D01*
X198718500Y-62365000D02*
X198368500Y-62365000D01*
X199419500Y-59419500D02*
X199419500Y-61664000D01*
X155124264Y-80250735D02*
X155098999Y-80276000D01*
X198900000Y-58900000D02*
X199419500Y-59419500D01*
X155098999Y-80276000D02*
X152751000Y-80276000D01*
X152000000Y-82225000D02*
X152000000Y-79525000D01*
X199419500Y-61664000D02*
X198718500Y-62365000D01*
X154525000Y-69000000D02*
X155975000Y-69000000D01*
X159525000Y-95550000D02*
X159525000Y-93800000D01*
%TO.N,/SD_CMD*%
X183749986Y-64149986D02*
X185400000Y-65800000D01*
X180400000Y-61900000D02*
X182649986Y-64149986D01*
X182649986Y-64149986D02*
X183749986Y-64149986D01*
X179400000Y-61900000D02*
X180400000Y-61900000D01*
X185400000Y-65800000D02*
X185400000Y-66600000D01*
%TO.N,/SD_DAT2*%
X184550000Y-62750000D02*
X187600000Y-65800000D01*
X187600000Y-65800000D02*
X187600000Y-66600000D01*
X183250000Y-62750000D02*
X184550000Y-62750000D01*
%TO.N,/SD_DAT0*%
X181250000Y-66350000D02*
X181000000Y-66600000D01*
X181250000Y-65500000D02*
X181250000Y-66350000D01*
%TO.N,/SD_DAT3*%
X186500000Y-65750000D02*
X186500000Y-66600000D01*
X184250000Y-63500000D02*
X186500000Y-65750000D01*
%TO.N,+5V*%
X188250000Y-68250000D02*
X185000000Y-68250000D01*
X193500000Y-61750000D02*
X194500000Y-61750000D01*
X185000000Y-68250000D02*
X184500000Y-67750000D01*
X188250000Y-68975000D02*
X188250000Y-68250000D01*
%TO.N,IMU1_MISO*%
X157250000Y-82250000D02*
X159000000Y-80500000D01*
%TO.N,BARO_SCL*%
X159299265Y-73950735D02*
X155177205Y-73950735D01*
X155177205Y-73950735D02*
X154488235Y-73261765D01*
%TO.N,MAG_MISO*%
X164500000Y-88750000D02*
X164500000Y-87000000D01*
X161750000Y-91500000D02*
X164500000Y-88750000D01*
%TO.N,MAG_INT*%
X166500000Y-90750000D02*
X167500000Y-89750000D01*
X163500000Y-90750000D02*
X166500000Y-90750000D01*
X167500000Y-89750000D02*
X167500000Y-87000000D01*
X161750000Y-92250000D02*
X162000000Y-92250000D01*
X162000000Y-92250000D02*
X163500000Y-90750000D01*
%TO.N,MAG_SCL*%
X158250000Y-89750000D02*
X161650251Y-86349749D01*
X161650251Y-86349749D02*
X164174874Y-86349749D01*
%TO.N,Net-(C40-Pad2)*%
X179475000Y-83000000D02*
X179500000Y-83000000D01*
%TO.N,/USB_DN*%
X190275000Y-65061397D02*
X188213603Y-63000000D01*
X188925000Y-73574568D02*
X190275000Y-72224568D01*
X188213603Y-63000000D02*
X187750000Y-63000000D01*
X188925000Y-73750000D02*
X188925000Y-73574568D01*
X190275000Y-72224568D02*
X190275000Y-65061397D01*
%TO.N,Net-(U10-VFBSMPS)*%
X166250000Y-68775000D02*
X168000000Y-68775000D01*
%TO.N,/USB_DP*%
X187750000Y-61900000D02*
X190725000Y-64875000D01*
X190725000Y-72186104D02*
X189626000Y-73285104D01*
X189626000Y-74549000D02*
X188925000Y-75250000D01*
X189626000Y-73285104D02*
X189626000Y-74549000D01*
X190725000Y-64875000D02*
X190725000Y-72186104D01*
%TO.N,Net-(U10-VLXSMPS)*%
X164537500Y-68750000D02*
X164537500Y-68137500D01*
X164537500Y-70737500D02*
X164525000Y-70750000D01*
X164537500Y-68750000D02*
X164537500Y-70737500D01*
X164537500Y-68137500D02*
X164250000Y-67850000D01*
%TO.N,/LEDC_PWM*%
X190514064Y-85250000D02*
X191500000Y-86235936D01*
X189149095Y-85250000D02*
X190514064Y-85250000D01*
X191500000Y-86235936D02*
X191500000Y-87600905D01*
X194100000Y-92000000D02*
X194100000Y-90200905D01*
X191500000Y-87600905D02*
X194100000Y-90200905D01*
X187750000Y-83850905D02*
X187750000Y-80250000D01*
X187750000Y-83850905D02*
X189149095Y-85250000D01*
%TO.N,Net-(U16-DIN)*%
X191927799Y-83275000D02*
X190600000Y-83275000D01*
X190600000Y-83275000D02*
X190575000Y-83250000D01*
X190602799Y-83277799D02*
X190575000Y-83250000D01*
%TO.N,/ELRS_UART_RX*%
X162000000Y-60474000D02*
X162000000Y-60383616D01*
X166224110Y-60474000D02*
X162000000Y-60474000D01*
X166750000Y-60999890D02*
X166224110Y-60474000D01*
X166750000Y-61500000D02*
X166750000Y-60999890D01*
X162000000Y-60383616D02*
X162035616Y-60348000D01*
%TO.N,/NRST*%
X198718500Y-63635000D02*
X198368500Y-63635000D01*
X199419500Y-66330500D02*
X199200000Y-66550000D01*
X199419500Y-66330500D02*
X199419500Y-64336000D01*
X199419500Y-64336000D02*
X198718500Y-63635000D01*
X199200000Y-66550000D02*
X199200000Y-67250000D01*
%TO.N,/SDWIO*%
X186500000Y-59700000D02*
X186700000Y-59500000D01*
X198000000Y-59500000D02*
X198250000Y-59750000D01*
X186700000Y-59500000D02*
X198000000Y-59500000D01*
%TO.N,Net-(U10-BOOT0)*%
X155000000Y-60675000D02*
X155000000Y-60750000D01*
X155000000Y-60750000D02*
X156500000Y-62250000D01*
X156500000Y-62250000D02*
X156500000Y-62750000D01*
X157276000Y-63526000D02*
X166724000Y-63526000D01*
X156500000Y-62750000D02*
X157276000Y-63526000D01*
X166724000Y-63526000D02*
X167250000Y-63000000D01*
X167250000Y-63000000D02*
X167250000Y-62250000D01*
%TO.N,GND*%
X176025000Y-63475000D02*
X176250000Y-63700000D01*
X176025000Y-61750000D02*
X176025000Y-63475000D01*
%TO.N,Net-(J1-VBUS-PadA4)*%
X195000000Y-71500000D02*
X195250000Y-71250000D01*
X195000000Y-71500000D02*
X195000000Y-76750000D01*
X195250000Y-71250000D02*
X195250000Y-68250000D01*
%TD*%
M02*
