%TF.GenerationSoftware,KiCad,Pcbnew,9.0.1-9.0.1-0~ubuntu24.04.1*%
%TF.CreationDate,2025-06-01T18:05:04-05:00*%
%TF.ProjectId,FC,46432e6b-6963-4616-945f-706362585858,rev?*%
%TF.SameCoordinates,Original*%
%TF.FileFunction,Legend,Bot*%
%TF.FilePolarity,Positive*%
%FSLAX46Y46*%
G04 Gerber Fmt 4.6, Leading zero omitted, Abs format (unit mm)*
G04 Created by KiCad (PCBNEW 9.0.1-9.0.1-0~ubuntu24.04.1) date 2025-06-01 18:05:04*
%MOMM*%
%LPD*%
G01*
G04 APERTURE LIST*
%ADD10C,0.150000*%
%ADD11C,0.152400*%
%ADD12C,0.120000*%
%ADD13C,0.127000*%
%ADD14C,0.200000*%
G04 APERTURE END LIST*
D10*
X194704819Y-66738795D02*
X195514342Y-66738795D01*
X195514342Y-66738795D02*
X195609580Y-66786414D01*
X195609580Y-66786414D02*
X195657200Y-66834033D01*
X195657200Y-66834033D02*
X195704819Y-66929271D01*
X195704819Y-66929271D02*
X195704819Y-67119747D01*
X195704819Y-67119747D02*
X195657200Y-67214985D01*
X195657200Y-67214985D02*
X195609580Y-67262604D01*
X195609580Y-67262604D02*
X195514342Y-67310223D01*
X195514342Y-67310223D02*
X194704819Y-67310223D01*
X194704819Y-67691176D02*
X194704819Y-68357842D01*
X194704819Y-68357842D02*
X195704819Y-67929271D01*
X227047857Y-62559580D02*
X227095476Y-62607200D01*
X227095476Y-62607200D02*
X227238333Y-62654819D01*
X227238333Y-62654819D02*
X227333571Y-62654819D01*
X227333571Y-62654819D02*
X227476428Y-62607200D01*
X227476428Y-62607200D02*
X227571666Y-62511961D01*
X227571666Y-62511961D02*
X227619285Y-62416723D01*
X227619285Y-62416723D02*
X227666904Y-62226247D01*
X227666904Y-62226247D02*
X227666904Y-62083390D01*
X227666904Y-62083390D02*
X227619285Y-61892914D01*
X227619285Y-61892914D02*
X227571666Y-61797676D01*
X227571666Y-61797676D02*
X227476428Y-61702438D01*
X227476428Y-61702438D02*
X227333571Y-61654819D01*
X227333571Y-61654819D02*
X227238333Y-61654819D01*
X227238333Y-61654819D02*
X227095476Y-61702438D01*
X227095476Y-61702438D02*
X227047857Y-61750057D01*
X226095476Y-62654819D02*
X226666904Y-62654819D01*
X226381190Y-62654819D02*
X226381190Y-61654819D01*
X226381190Y-61654819D02*
X226476428Y-61797676D01*
X226476428Y-61797676D02*
X226571666Y-61892914D01*
X226571666Y-61892914D02*
X226666904Y-61940533D01*
X225524047Y-62083390D02*
X225619285Y-62035771D01*
X225619285Y-62035771D02*
X225666904Y-61988152D01*
X225666904Y-61988152D02*
X225714523Y-61892914D01*
X225714523Y-61892914D02*
X225714523Y-61845295D01*
X225714523Y-61845295D02*
X225666904Y-61750057D01*
X225666904Y-61750057D02*
X225619285Y-61702438D01*
X225619285Y-61702438D02*
X225524047Y-61654819D01*
X225524047Y-61654819D02*
X225333571Y-61654819D01*
X225333571Y-61654819D02*
X225238333Y-61702438D01*
X225238333Y-61702438D02*
X225190714Y-61750057D01*
X225190714Y-61750057D02*
X225143095Y-61845295D01*
X225143095Y-61845295D02*
X225143095Y-61892914D01*
X225143095Y-61892914D02*
X225190714Y-61988152D01*
X225190714Y-61988152D02*
X225238333Y-62035771D01*
X225238333Y-62035771D02*
X225333571Y-62083390D01*
X225333571Y-62083390D02*
X225524047Y-62083390D01*
X225524047Y-62083390D02*
X225619285Y-62131009D01*
X225619285Y-62131009D02*
X225666904Y-62178628D01*
X225666904Y-62178628D02*
X225714523Y-62273866D01*
X225714523Y-62273866D02*
X225714523Y-62464342D01*
X225714523Y-62464342D02*
X225666904Y-62559580D01*
X225666904Y-62559580D02*
X225619285Y-62607200D01*
X225619285Y-62607200D02*
X225524047Y-62654819D01*
X225524047Y-62654819D02*
X225333571Y-62654819D01*
X225333571Y-62654819D02*
X225238333Y-62607200D01*
X225238333Y-62607200D02*
X225190714Y-62559580D01*
X225190714Y-62559580D02*
X225143095Y-62464342D01*
X225143095Y-62464342D02*
X225143095Y-62273866D01*
X225143095Y-62273866D02*
X225190714Y-62178628D01*
X225190714Y-62178628D02*
X225238333Y-62131009D01*
X225238333Y-62131009D02*
X225333571Y-62083390D01*
X235067857Y-70089580D02*
X235115476Y-70137200D01*
X235115476Y-70137200D02*
X235258333Y-70184819D01*
X235258333Y-70184819D02*
X235353571Y-70184819D01*
X235353571Y-70184819D02*
X235496428Y-70137200D01*
X235496428Y-70137200D02*
X235591666Y-70041961D01*
X235591666Y-70041961D02*
X235639285Y-69946723D01*
X235639285Y-69946723D02*
X235686904Y-69756247D01*
X235686904Y-69756247D02*
X235686904Y-69613390D01*
X235686904Y-69613390D02*
X235639285Y-69422914D01*
X235639285Y-69422914D02*
X235591666Y-69327676D01*
X235591666Y-69327676D02*
X235496428Y-69232438D01*
X235496428Y-69232438D02*
X235353571Y-69184819D01*
X235353571Y-69184819D02*
X235258333Y-69184819D01*
X235258333Y-69184819D02*
X235115476Y-69232438D01*
X235115476Y-69232438D02*
X235067857Y-69280057D01*
X234734523Y-69184819D02*
X234115476Y-69184819D01*
X234115476Y-69184819D02*
X234448809Y-69565771D01*
X234448809Y-69565771D02*
X234305952Y-69565771D01*
X234305952Y-69565771D02*
X234210714Y-69613390D01*
X234210714Y-69613390D02*
X234163095Y-69661009D01*
X234163095Y-69661009D02*
X234115476Y-69756247D01*
X234115476Y-69756247D02*
X234115476Y-69994342D01*
X234115476Y-69994342D02*
X234163095Y-70089580D01*
X234163095Y-70089580D02*
X234210714Y-70137200D01*
X234210714Y-70137200D02*
X234305952Y-70184819D01*
X234305952Y-70184819D02*
X234591666Y-70184819D01*
X234591666Y-70184819D02*
X234686904Y-70137200D01*
X234686904Y-70137200D02*
X234734523Y-70089580D01*
X233782142Y-69184819D02*
X233163095Y-69184819D01*
X233163095Y-69184819D02*
X233496428Y-69565771D01*
X233496428Y-69565771D02*
X233353571Y-69565771D01*
X233353571Y-69565771D02*
X233258333Y-69613390D01*
X233258333Y-69613390D02*
X233210714Y-69661009D01*
X233210714Y-69661009D02*
X233163095Y-69756247D01*
X233163095Y-69756247D02*
X233163095Y-69994342D01*
X233163095Y-69994342D02*
X233210714Y-70089580D01*
X233210714Y-70089580D02*
X233258333Y-70137200D01*
X233258333Y-70137200D02*
X233353571Y-70184819D01*
X233353571Y-70184819D02*
X233639285Y-70184819D01*
X233639285Y-70184819D02*
X233734523Y-70137200D01*
X233734523Y-70137200D02*
X233782142Y-70089580D01*
X253071666Y-67579580D02*
X253119285Y-67627200D01*
X253119285Y-67627200D02*
X253262142Y-67674819D01*
X253262142Y-67674819D02*
X253357380Y-67674819D01*
X253357380Y-67674819D02*
X253500237Y-67627200D01*
X253500237Y-67627200D02*
X253595475Y-67531961D01*
X253595475Y-67531961D02*
X253643094Y-67436723D01*
X253643094Y-67436723D02*
X253690713Y-67246247D01*
X253690713Y-67246247D02*
X253690713Y-67103390D01*
X253690713Y-67103390D02*
X253643094Y-66912914D01*
X253643094Y-66912914D02*
X253595475Y-66817676D01*
X253595475Y-66817676D02*
X253500237Y-66722438D01*
X253500237Y-66722438D02*
X253357380Y-66674819D01*
X253357380Y-66674819D02*
X253262142Y-66674819D01*
X253262142Y-66674819D02*
X253119285Y-66722438D01*
X253119285Y-66722438D02*
X253071666Y-66770057D01*
X252738332Y-66674819D02*
X252119285Y-66674819D01*
X252119285Y-66674819D02*
X252452618Y-67055771D01*
X252452618Y-67055771D02*
X252309761Y-67055771D01*
X252309761Y-67055771D02*
X252214523Y-67103390D01*
X252214523Y-67103390D02*
X252166904Y-67151009D01*
X252166904Y-67151009D02*
X252119285Y-67246247D01*
X252119285Y-67246247D02*
X252119285Y-67484342D01*
X252119285Y-67484342D02*
X252166904Y-67579580D01*
X252166904Y-67579580D02*
X252214523Y-67627200D01*
X252214523Y-67627200D02*
X252309761Y-67674819D01*
X252309761Y-67674819D02*
X252595475Y-67674819D01*
X252595475Y-67674819D02*
X252690713Y-67627200D01*
X252690713Y-67627200D02*
X252738332Y-67579580D01*
X238601666Y-57634819D02*
X239077856Y-57634819D01*
X239077856Y-57634819D02*
X239077856Y-56634819D01*
X237744523Y-57634819D02*
X238315951Y-57634819D01*
X238030237Y-57634819D02*
X238030237Y-56634819D01*
X238030237Y-56634819D02*
X238125475Y-56777676D01*
X238125475Y-56777676D02*
X238220713Y-56872914D01*
X238220713Y-56872914D02*
X238315951Y-56920533D01*
X227047857Y-55029580D02*
X227095476Y-55077200D01*
X227095476Y-55077200D02*
X227238333Y-55124819D01*
X227238333Y-55124819D02*
X227333571Y-55124819D01*
X227333571Y-55124819D02*
X227476428Y-55077200D01*
X227476428Y-55077200D02*
X227571666Y-54981961D01*
X227571666Y-54981961D02*
X227619285Y-54886723D01*
X227619285Y-54886723D02*
X227666904Y-54696247D01*
X227666904Y-54696247D02*
X227666904Y-54553390D01*
X227666904Y-54553390D02*
X227619285Y-54362914D01*
X227619285Y-54362914D02*
X227571666Y-54267676D01*
X227571666Y-54267676D02*
X227476428Y-54172438D01*
X227476428Y-54172438D02*
X227333571Y-54124819D01*
X227333571Y-54124819D02*
X227238333Y-54124819D01*
X227238333Y-54124819D02*
X227095476Y-54172438D01*
X227095476Y-54172438D02*
X227047857Y-54220057D01*
X226666904Y-54220057D02*
X226619285Y-54172438D01*
X226619285Y-54172438D02*
X226524047Y-54124819D01*
X226524047Y-54124819D02*
X226285952Y-54124819D01*
X226285952Y-54124819D02*
X226190714Y-54172438D01*
X226190714Y-54172438D02*
X226143095Y-54220057D01*
X226143095Y-54220057D02*
X226095476Y-54315295D01*
X226095476Y-54315295D02*
X226095476Y-54410533D01*
X226095476Y-54410533D02*
X226143095Y-54553390D01*
X226143095Y-54553390D02*
X226714523Y-55124819D01*
X226714523Y-55124819D02*
X226095476Y-55124819D01*
X225143095Y-55124819D02*
X225714523Y-55124819D01*
X225428809Y-55124819D02*
X225428809Y-54124819D01*
X225428809Y-54124819D02*
X225524047Y-54267676D01*
X225524047Y-54267676D02*
X225619285Y-54362914D01*
X225619285Y-54362914D02*
X225714523Y-54410533D01*
X239077857Y-65069580D02*
X239125476Y-65117200D01*
X239125476Y-65117200D02*
X239268333Y-65164819D01*
X239268333Y-65164819D02*
X239363571Y-65164819D01*
X239363571Y-65164819D02*
X239506428Y-65117200D01*
X239506428Y-65117200D02*
X239601666Y-65021961D01*
X239601666Y-65021961D02*
X239649285Y-64926723D01*
X239649285Y-64926723D02*
X239696904Y-64736247D01*
X239696904Y-64736247D02*
X239696904Y-64593390D01*
X239696904Y-64593390D02*
X239649285Y-64402914D01*
X239649285Y-64402914D02*
X239601666Y-64307676D01*
X239601666Y-64307676D02*
X239506428Y-64212438D01*
X239506428Y-64212438D02*
X239363571Y-64164819D01*
X239363571Y-64164819D02*
X239268333Y-64164819D01*
X239268333Y-64164819D02*
X239125476Y-64212438D01*
X239125476Y-64212438D02*
X239077857Y-64260057D01*
X238220714Y-64498152D02*
X238220714Y-65164819D01*
X238458809Y-64117200D02*
X238696904Y-64831485D01*
X238696904Y-64831485D02*
X238077857Y-64831485D01*
X237268333Y-64498152D02*
X237268333Y-65164819D01*
X237506428Y-64117200D02*
X237744523Y-64831485D01*
X237744523Y-64831485D02*
X237125476Y-64831485D01*
X231057857Y-72599580D02*
X231105476Y-72647200D01*
X231105476Y-72647200D02*
X231248333Y-72694819D01*
X231248333Y-72694819D02*
X231343571Y-72694819D01*
X231343571Y-72694819D02*
X231486428Y-72647200D01*
X231486428Y-72647200D02*
X231581666Y-72551961D01*
X231581666Y-72551961D02*
X231629285Y-72456723D01*
X231629285Y-72456723D02*
X231676904Y-72266247D01*
X231676904Y-72266247D02*
X231676904Y-72123390D01*
X231676904Y-72123390D02*
X231629285Y-71932914D01*
X231629285Y-71932914D02*
X231581666Y-71837676D01*
X231581666Y-71837676D02*
X231486428Y-71742438D01*
X231486428Y-71742438D02*
X231343571Y-71694819D01*
X231343571Y-71694819D02*
X231248333Y-71694819D01*
X231248333Y-71694819D02*
X231105476Y-71742438D01*
X231105476Y-71742438D02*
X231057857Y-71790057D01*
X230676904Y-71790057D02*
X230629285Y-71742438D01*
X230629285Y-71742438D02*
X230534047Y-71694819D01*
X230534047Y-71694819D02*
X230295952Y-71694819D01*
X230295952Y-71694819D02*
X230200714Y-71742438D01*
X230200714Y-71742438D02*
X230153095Y-71790057D01*
X230153095Y-71790057D02*
X230105476Y-71885295D01*
X230105476Y-71885295D02*
X230105476Y-71980533D01*
X230105476Y-71980533D02*
X230153095Y-72123390D01*
X230153095Y-72123390D02*
X230724523Y-72694819D01*
X230724523Y-72694819D02*
X230105476Y-72694819D01*
X229772142Y-71694819D02*
X229153095Y-71694819D01*
X229153095Y-71694819D02*
X229486428Y-72075771D01*
X229486428Y-72075771D02*
X229343571Y-72075771D01*
X229343571Y-72075771D02*
X229248333Y-72123390D01*
X229248333Y-72123390D02*
X229200714Y-72171009D01*
X229200714Y-72171009D02*
X229153095Y-72266247D01*
X229153095Y-72266247D02*
X229153095Y-72504342D01*
X229153095Y-72504342D02*
X229200714Y-72599580D01*
X229200714Y-72599580D02*
X229248333Y-72647200D01*
X229248333Y-72647200D02*
X229343571Y-72694819D01*
X229343571Y-72694819D02*
X229629285Y-72694819D01*
X229629285Y-72694819D02*
X229724523Y-72647200D01*
X229724523Y-72647200D02*
X229772142Y-72599580D01*
X239077857Y-60049580D02*
X239125476Y-60097200D01*
X239125476Y-60097200D02*
X239268333Y-60144819D01*
X239268333Y-60144819D02*
X239363571Y-60144819D01*
X239363571Y-60144819D02*
X239506428Y-60097200D01*
X239506428Y-60097200D02*
X239601666Y-60001961D01*
X239601666Y-60001961D02*
X239649285Y-59906723D01*
X239649285Y-59906723D02*
X239696904Y-59716247D01*
X239696904Y-59716247D02*
X239696904Y-59573390D01*
X239696904Y-59573390D02*
X239649285Y-59382914D01*
X239649285Y-59382914D02*
X239601666Y-59287676D01*
X239601666Y-59287676D02*
X239506428Y-59192438D01*
X239506428Y-59192438D02*
X239363571Y-59144819D01*
X239363571Y-59144819D02*
X239268333Y-59144819D01*
X239268333Y-59144819D02*
X239125476Y-59192438D01*
X239125476Y-59192438D02*
X239077857Y-59240057D01*
X238220714Y-59478152D02*
X238220714Y-60144819D01*
X238458809Y-59097200D02*
X238696904Y-59811485D01*
X238696904Y-59811485D02*
X238077857Y-59811485D01*
X237268333Y-59144819D02*
X237458809Y-59144819D01*
X237458809Y-59144819D02*
X237554047Y-59192438D01*
X237554047Y-59192438D02*
X237601666Y-59240057D01*
X237601666Y-59240057D02*
X237696904Y-59382914D01*
X237696904Y-59382914D02*
X237744523Y-59573390D01*
X237744523Y-59573390D02*
X237744523Y-59954342D01*
X237744523Y-59954342D02*
X237696904Y-60049580D01*
X237696904Y-60049580D02*
X237649285Y-60097200D01*
X237649285Y-60097200D02*
X237554047Y-60144819D01*
X237554047Y-60144819D02*
X237363571Y-60144819D01*
X237363571Y-60144819D02*
X237268333Y-60097200D01*
X237268333Y-60097200D02*
X237220714Y-60049580D01*
X237220714Y-60049580D02*
X237173095Y-59954342D01*
X237173095Y-59954342D02*
X237173095Y-59716247D01*
X237173095Y-59716247D02*
X237220714Y-59621009D01*
X237220714Y-59621009D02*
X237268333Y-59573390D01*
X237268333Y-59573390D02*
X237363571Y-59525771D01*
X237363571Y-59525771D02*
X237554047Y-59525771D01*
X237554047Y-59525771D02*
X237649285Y-59573390D01*
X237649285Y-59573390D02*
X237696904Y-59621009D01*
X237696904Y-59621009D02*
X237744523Y-59716247D01*
X257557857Y-62559580D02*
X257605476Y-62607200D01*
X257605476Y-62607200D02*
X257748333Y-62654819D01*
X257748333Y-62654819D02*
X257843571Y-62654819D01*
X257843571Y-62654819D02*
X257986428Y-62607200D01*
X257986428Y-62607200D02*
X258081666Y-62511961D01*
X258081666Y-62511961D02*
X258129285Y-62416723D01*
X258129285Y-62416723D02*
X258176904Y-62226247D01*
X258176904Y-62226247D02*
X258176904Y-62083390D01*
X258176904Y-62083390D02*
X258129285Y-61892914D01*
X258129285Y-61892914D02*
X258081666Y-61797676D01*
X258081666Y-61797676D02*
X257986428Y-61702438D01*
X257986428Y-61702438D02*
X257843571Y-61654819D01*
X257843571Y-61654819D02*
X257748333Y-61654819D01*
X257748333Y-61654819D02*
X257605476Y-61702438D01*
X257605476Y-61702438D02*
X257557857Y-61750057D01*
X256605476Y-62654819D02*
X257176904Y-62654819D01*
X256891190Y-62654819D02*
X256891190Y-61654819D01*
X256891190Y-61654819D02*
X256986428Y-61797676D01*
X256986428Y-61797676D02*
X257081666Y-61892914D01*
X257081666Y-61892914D02*
X257176904Y-61940533D01*
X255653095Y-62654819D02*
X256224523Y-62654819D01*
X255938809Y-62654819D02*
X255938809Y-61654819D01*
X255938809Y-61654819D02*
X256034047Y-61797676D01*
X256034047Y-61797676D02*
X256129285Y-61892914D01*
X256129285Y-61892914D02*
X256224523Y-61940533D01*
X235067857Y-72599580D02*
X235115476Y-72647200D01*
X235115476Y-72647200D02*
X235258333Y-72694819D01*
X235258333Y-72694819D02*
X235353571Y-72694819D01*
X235353571Y-72694819D02*
X235496428Y-72647200D01*
X235496428Y-72647200D02*
X235591666Y-72551961D01*
X235591666Y-72551961D02*
X235639285Y-72456723D01*
X235639285Y-72456723D02*
X235686904Y-72266247D01*
X235686904Y-72266247D02*
X235686904Y-72123390D01*
X235686904Y-72123390D02*
X235639285Y-71932914D01*
X235639285Y-71932914D02*
X235591666Y-71837676D01*
X235591666Y-71837676D02*
X235496428Y-71742438D01*
X235496428Y-71742438D02*
X235353571Y-71694819D01*
X235353571Y-71694819D02*
X235258333Y-71694819D01*
X235258333Y-71694819D02*
X235115476Y-71742438D01*
X235115476Y-71742438D02*
X235067857Y-71790057D01*
X234734523Y-71694819D02*
X234115476Y-71694819D01*
X234115476Y-71694819D02*
X234448809Y-72075771D01*
X234448809Y-72075771D02*
X234305952Y-72075771D01*
X234305952Y-72075771D02*
X234210714Y-72123390D01*
X234210714Y-72123390D02*
X234163095Y-72171009D01*
X234163095Y-72171009D02*
X234115476Y-72266247D01*
X234115476Y-72266247D02*
X234115476Y-72504342D01*
X234115476Y-72504342D02*
X234163095Y-72599580D01*
X234163095Y-72599580D02*
X234210714Y-72647200D01*
X234210714Y-72647200D02*
X234305952Y-72694819D01*
X234305952Y-72694819D02*
X234591666Y-72694819D01*
X234591666Y-72694819D02*
X234686904Y-72647200D01*
X234686904Y-72647200D02*
X234734523Y-72599580D01*
X233734523Y-71790057D02*
X233686904Y-71742438D01*
X233686904Y-71742438D02*
X233591666Y-71694819D01*
X233591666Y-71694819D02*
X233353571Y-71694819D01*
X233353571Y-71694819D02*
X233258333Y-71742438D01*
X233258333Y-71742438D02*
X233210714Y-71790057D01*
X233210714Y-71790057D02*
X233163095Y-71885295D01*
X233163095Y-71885295D02*
X233163095Y-71980533D01*
X233163095Y-71980533D02*
X233210714Y-72123390D01*
X233210714Y-72123390D02*
X233782142Y-72694819D01*
X233782142Y-72694819D02*
X233163095Y-72694819D01*
X253071666Y-70089580D02*
X253119285Y-70137200D01*
X253119285Y-70137200D02*
X253262142Y-70184819D01*
X253262142Y-70184819D02*
X253357380Y-70184819D01*
X253357380Y-70184819D02*
X253500237Y-70137200D01*
X253500237Y-70137200D02*
X253595475Y-70041961D01*
X253595475Y-70041961D02*
X253643094Y-69946723D01*
X253643094Y-69946723D02*
X253690713Y-69756247D01*
X253690713Y-69756247D02*
X253690713Y-69613390D01*
X253690713Y-69613390D02*
X253643094Y-69422914D01*
X253643094Y-69422914D02*
X253595475Y-69327676D01*
X253595475Y-69327676D02*
X253500237Y-69232438D01*
X253500237Y-69232438D02*
X253357380Y-69184819D01*
X253357380Y-69184819D02*
X253262142Y-69184819D01*
X253262142Y-69184819D02*
X253119285Y-69232438D01*
X253119285Y-69232438D02*
X253071666Y-69280057D01*
X252690713Y-69280057D02*
X252643094Y-69232438D01*
X252643094Y-69232438D02*
X252547856Y-69184819D01*
X252547856Y-69184819D02*
X252309761Y-69184819D01*
X252309761Y-69184819D02*
X252214523Y-69232438D01*
X252214523Y-69232438D02*
X252166904Y-69280057D01*
X252166904Y-69280057D02*
X252119285Y-69375295D01*
X252119285Y-69375295D02*
X252119285Y-69470533D01*
X252119285Y-69470533D02*
X252166904Y-69613390D01*
X252166904Y-69613390D02*
X252738332Y-70184819D01*
X252738332Y-70184819D02*
X252119285Y-70184819D01*
X178929580Y-82107142D02*
X178977200Y-82059523D01*
X178977200Y-82059523D02*
X179024819Y-81916666D01*
X179024819Y-81916666D02*
X179024819Y-81821428D01*
X179024819Y-81821428D02*
X178977200Y-81678571D01*
X178977200Y-81678571D02*
X178881961Y-81583333D01*
X178881961Y-81583333D02*
X178786723Y-81535714D01*
X178786723Y-81535714D02*
X178596247Y-81488095D01*
X178596247Y-81488095D02*
X178453390Y-81488095D01*
X178453390Y-81488095D02*
X178262914Y-81535714D01*
X178262914Y-81535714D02*
X178167676Y-81583333D01*
X178167676Y-81583333D02*
X178072438Y-81678571D01*
X178072438Y-81678571D02*
X178024819Y-81821428D01*
X178024819Y-81821428D02*
X178024819Y-81916666D01*
X178024819Y-81916666D02*
X178072438Y-82059523D01*
X178072438Y-82059523D02*
X178120057Y-82107142D01*
X178358152Y-82964285D02*
X179024819Y-82964285D01*
X177977200Y-82726190D02*
X178691485Y-82488095D01*
X178691485Y-82488095D02*
X178691485Y-83107142D01*
X178024819Y-83678571D02*
X178024819Y-83773809D01*
X178024819Y-83773809D02*
X178072438Y-83869047D01*
X178072438Y-83869047D02*
X178120057Y-83916666D01*
X178120057Y-83916666D02*
X178215295Y-83964285D01*
X178215295Y-83964285D02*
X178405771Y-84011904D01*
X178405771Y-84011904D02*
X178643866Y-84011904D01*
X178643866Y-84011904D02*
X178834342Y-83964285D01*
X178834342Y-83964285D02*
X178929580Y-83916666D01*
X178929580Y-83916666D02*
X178977200Y-83869047D01*
X178977200Y-83869047D02*
X179024819Y-83773809D01*
X179024819Y-83773809D02*
X179024819Y-83678571D01*
X179024819Y-83678571D02*
X178977200Y-83583333D01*
X178977200Y-83583333D02*
X178929580Y-83535714D01*
X178929580Y-83535714D02*
X178834342Y-83488095D01*
X178834342Y-83488095D02*
X178643866Y-83440476D01*
X178643866Y-83440476D02*
X178405771Y-83440476D01*
X178405771Y-83440476D02*
X178215295Y-83488095D01*
X178215295Y-83488095D02*
X178120057Y-83535714D01*
X178120057Y-83535714D02*
X178072438Y-83583333D01*
X178072438Y-83583333D02*
X178024819Y-83678571D01*
X231057857Y-65069580D02*
X231105476Y-65117200D01*
X231105476Y-65117200D02*
X231248333Y-65164819D01*
X231248333Y-65164819D02*
X231343571Y-65164819D01*
X231343571Y-65164819D02*
X231486428Y-65117200D01*
X231486428Y-65117200D02*
X231581666Y-65021961D01*
X231581666Y-65021961D02*
X231629285Y-64926723D01*
X231629285Y-64926723D02*
X231676904Y-64736247D01*
X231676904Y-64736247D02*
X231676904Y-64593390D01*
X231676904Y-64593390D02*
X231629285Y-64402914D01*
X231629285Y-64402914D02*
X231581666Y-64307676D01*
X231581666Y-64307676D02*
X231486428Y-64212438D01*
X231486428Y-64212438D02*
X231343571Y-64164819D01*
X231343571Y-64164819D02*
X231248333Y-64164819D01*
X231248333Y-64164819D02*
X231105476Y-64212438D01*
X231105476Y-64212438D02*
X231057857Y-64260057D01*
X230676904Y-64260057D02*
X230629285Y-64212438D01*
X230629285Y-64212438D02*
X230534047Y-64164819D01*
X230534047Y-64164819D02*
X230295952Y-64164819D01*
X230295952Y-64164819D02*
X230200714Y-64212438D01*
X230200714Y-64212438D02*
X230153095Y-64260057D01*
X230153095Y-64260057D02*
X230105476Y-64355295D01*
X230105476Y-64355295D02*
X230105476Y-64450533D01*
X230105476Y-64450533D02*
X230153095Y-64593390D01*
X230153095Y-64593390D02*
X230724523Y-65164819D01*
X230724523Y-65164819D02*
X230105476Y-65164819D01*
X229248333Y-64164819D02*
X229438809Y-64164819D01*
X229438809Y-64164819D02*
X229534047Y-64212438D01*
X229534047Y-64212438D02*
X229581666Y-64260057D01*
X229581666Y-64260057D02*
X229676904Y-64402914D01*
X229676904Y-64402914D02*
X229724523Y-64593390D01*
X229724523Y-64593390D02*
X229724523Y-64974342D01*
X229724523Y-64974342D02*
X229676904Y-65069580D01*
X229676904Y-65069580D02*
X229629285Y-65117200D01*
X229629285Y-65117200D02*
X229534047Y-65164819D01*
X229534047Y-65164819D02*
X229343571Y-65164819D01*
X229343571Y-65164819D02*
X229248333Y-65117200D01*
X229248333Y-65117200D02*
X229200714Y-65069580D01*
X229200714Y-65069580D02*
X229153095Y-64974342D01*
X229153095Y-64974342D02*
X229153095Y-64736247D01*
X229153095Y-64736247D02*
X229200714Y-64641009D01*
X229200714Y-64641009D02*
X229248333Y-64593390D01*
X229248333Y-64593390D02*
X229343571Y-64545771D01*
X229343571Y-64545771D02*
X229534047Y-64545771D01*
X229534047Y-64545771D02*
X229629285Y-64593390D01*
X229629285Y-64593390D02*
X229676904Y-64641009D01*
X229676904Y-64641009D02*
X229724523Y-64736247D01*
X231057857Y-62559580D02*
X231105476Y-62607200D01*
X231105476Y-62607200D02*
X231248333Y-62654819D01*
X231248333Y-62654819D02*
X231343571Y-62654819D01*
X231343571Y-62654819D02*
X231486428Y-62607200D01*
X231486428Y-62607200D02*
X231581666Y-62511961D01*
X231581666Y-62511961D02*
X231629285Y-62416723D01*
X231629285Y-62416723D02*
X231676904Y-62226247D01*
X231676904Y-62226247D02*
X231676904Y-62083390D01*
X231676904Y-62083390D02*
X231629285Y-61892914D01*
X231629285Y-61892914D02*
X231581666Y-61797676D01*
X231581666Y-61797676D02*
X231486428Y-61702438D01*
X231486428Y-61702438D02*
X231343571Y-61654819D01*
X231343571Y-61654819D02*
X231248333Y-61654819D01*
X231248333Y-61654819D02*
X231105476Y-61702438D01*
X231105476Y-61702438D02*
X231057857Y-61750057D01*
X230676904Y-61750057D02*
X230629285Y-61702438D01*
X230629285Y-61702438D02*
X230534047Y-61654819D01*
X230534047Y-61654819D02*
X230295952Y-61654819D01*
X230295952Y-61654819D02*
X230200714Y-61702438D01*
X230200714Y-61702438D02*
X230153095Y-61750057D01*
X230153095Y-61750057D02*
X230105476Y-61845295D01*
X230105476Y-61845295D02*
X230105476Y-61940533D01*
X230105476Y-61940533D02*
X230153095Y-62083390D01*
X230153095Y-62083390D02*
X230724523Y-62654819D01*
X230724523Y-62654819D02*
X230105476Y-62654819D01*
X229772142Y-61654819D02*
X229105476Y-61654819D01*
X229105476Y-61654819D02*
X229534047Y-62654819D01*
X231057857Y-70089580D02*
X231105476Y-70137200D01*
X231105476Y-70137200D02*
X231248333Y-70184819D01*
X231248333Y-70184819D02*
X231343571Y-70184819D01*
X231343571Y-70184819D02*
X231486428Y-70137200D01*
X231486428Y-70137200D02*
X231581666Y-70041961D01*
X231581666Y-70041961D02*
X231629285Y-69946723D01*
X231629285Y-69946723D02*
X231676904Y-69756247D01*
X231676904Y-69756247D02*
X231676904Y-69613390D01*
X231676904Y-69613390D02*
X231629285Y-69422914D01*
X231629285Y-69422914D02*
X231581666Y-69327676D01*
X231581666Y-69327676D02*
X231486428Y-69232438D01*
X231486428Y-69232438D02*
X231343571Y-69184819D01*
X231343571Y-69184819D02*
X231248333Y-69184819D01*
X231248333Y-69184819D02*
X231105476Y-69232438D01*
X231105476Y-69232438D02*
X231057857Y-69280057D01*
X230676904Y-69280057D02*
X230629285Y-69232438D01*
X230629285Y-69232438D02*
X230534047Y-69184819D01*
X230534047Y-69184819D02*
X230295952Y-69184819D01*
X230295952Y-69184819D02*
X230200714Y-69232438D01*
X230200714Y-69232438D02*
X230153095Y-69280057D01*
X230153095Y-69280057D02*
X230105476Y-69375295D01*
X230105476Y-69375295D02*
X230105476Y-69470533D01*
X230105476Y-69470533D02*
X230153095Y-69613390D01*
X230153095Y-69613390D02*
X230724523Y-70184819D01*
X230724523Y-70184819D02*
X230105476Y-70184819D01*
X229248333Y-69518152D02*
X229248333Y-70184819D01*
X229486428Y-69137200D02*
X229724523Y-69851485D01*
X229724523Y-69851485D02*
X229105476Y-69851485D01*
X227047857Y-72599580D02*
X227095476Y-72647200D01*
X227095476Y-72647200D02*
X227238333Y-72694819D01*
X227238333Y-72694819D02*
X227333571Y-72694819D01*
X227333571Y-72694819D02*
X227476428Y-72647200D01*
X227476428Y-72647200D02*
X227571666Y-72551961D01*
X227571666Y-72551961D02*
X227619285Y-72456723D01*
X227619285Y-72456723D02*
X227666904Y-72266247D01*
X227666904Y-72266247D02*
X227666904Y-72123390D01*
X227666904Y-72123390D02*
X227619285Y-71932914D01*
X227619285Y-71932914D02*
X227571666Y-71837676D01*
X227571666Y-71837676D02*
X227476428Y-71742438D01*
X227476428Y-71742438D02*
X227333571Y-71694819D01*
X227333571Y-71694819D02*
X227238333Y-71694819D01*
X227238333Y-71694819D02*
X227095476Y-71742438D01*
X227095476Y-71742438D02*
X227047857Y-71790057D01*
X226095476Y-72694819D02*
X226666904Y-72694819D01*
X226381190Y-72694819D02*
X226381190Y-71694819D01*
X226381190Y-71694819D02*
X226476428Y-71837676D01*
X226476428Y-71837676D02*
X226571666Y-71932914D01*
X226571666Y-71932914D02*
X226666904Y-71980533D01*
X225238333Y-72028152D02*
X225238333Y-72694819D01*
X225476428Y-71647200D02*
X225714523Y-72361485D01*
X225714523Y-72361485D02*
X225095476Y-72361485D01*
X257081666Y-72599580D02*
X257129285Y-72647200D01*
X257129285Y-72647200D02*
X257272142Y-72694819D01*
X257272142Y-72694819D02*
X257367380Y-72694819D01*
X257367380Y-72694819D02*
X257510237Y-72647200D01*
X257510237Y-72647200D02*
X257605475Y-72551961D01*
X257605475Y-72551961D02*
X257653094Y-72456723D01*
X257653094Y-72456723D02*
X257700713Y-72266247D01*
X257700713Y-72266247D02*
X257700713Y-72123390D01*
X257700713Y-72123390D02*
X257653094Y-71932914D01*
X257653094Y-71932914D02*
X257605475Y-71837676D01*
X257605475Y-71837676D02*
X257510237Y-71742438D01*
X257510237Y-71742438D02*
X257367380Y-71694819D01*
X257367380Y-71694819D02*
X257272142Y-71694819D01*
X257272142Y-71694819D02*
X257129285Y-71742438D01*
X257129285Y-71742438D02*
X257081666Y-71790057D01*
X256748332Y-71694819D02*
X256081666Y-71694819D01*
X256081666Y-71694819D02*
X256510237Y-72694819D01*
X238601666Y-52614819D02*
X238934999Y-52138628D01*
X239173094Y-52614819D02*
X239173094Y-51614819D01*
X239173094Y-51614819D02*
X238792142Y-51614819D01*
X238792142Y-51614819D02*
X238696904Y-51662438D01*
X238696904Y-51662438D02*
X238649285Y-51710057D01*
X238649285Y-51710057D02*
X238601666Y-51805295D01*
X238601666Y-51805295D02*
X238601666Y-51948152D01*
X238601666Y-51948152D02*
X238649285Y-52043390D01*
X238649285Y-52043390D02*
X238696904Y-52091009D01*
X238696904Y-52091009D02*
X238792142Y-52138628D01*
X238792142Y-52138628D02*
X239173094Y-52138628D01*
X238220713Y-51710057D02*
X238173094Y-51662438D01*
X238173094Y-51662438D02*
X238077856Y-51614819D01*
X238077856Y-51614819D02*
X237839761Y-51614819D01*
X237839761Y-51614819D02*
X237744523Y-51662438D01*
X237744523Y-51662438D02*
X237696904Y-51710057D01*
X237696904Y-51710057D02*
X237649285Y-51805295D01*
X237649285Y-51805295D02*
X237649285Y-51900533D01*
X237649285Y-51900533D02*
X237696904Y-52043390D01*
X237696904Y-52043390D02*
X238268332Y-52614819D01*
X238268332Y-52614819D02*
X237649285Y-52614819D01*
X190289580Y-70857142D02*
X190337200Y-70809523D01*
X190337200Y-70809523D02*
X190384819Y-70666666D01*
X190384819Y-70666666D02*
X190384819Y-70571428D01*
X190384819Y-70571428D02*
X190337200Y-70428571D01*
X190337200Y-70428571D02*
X190241961Y-70333333D01*
X190241961Y-70333333D02*
X190146723Y-70285714D01*
X190146723Y-70285714D02*
X189956247Y-70238095D01*
X189956247Y-70238095D02*
X189813390Y-70238095D01*
X189813390Y-70238095D02*
X189622914Y-70285714D01*
X189622914Y-70285714D02*
X189527676Y-70333333D01*
X189527676Y-70333333D02*
X189432438Y-70428571D01*
X189432438Y-70428571D02*
X189384819Y-70571428D01*
X189384819Y-70571428D02*
X189384819Y-70666666D01*
X189384819Y-70666666D02*
X189432438Y-70809523D01*
X189432438Y-70809523D02*
X189480057Y-70857142D01*
X190384819Y-71809523D02*
X190384819Y-71238095D01*
X190384819Y-71523809D02*
X189384819Y-71523809D01*
X189384819Y-71523809D02*
X189527676Y-71428571D01*
X189527676Y-71428571D02*
X189622914Y-71333333D01*
X189622914Y-71333333D02*
X189670533Y-71238095D01*
X190384819Y-72285714D02*
X190384819Y-72476190D01*
X190384819Y-72476190D02*
X190337200Y-72571428D01*
X190337200Y-72571428D02*
X190289580Y-72619047D01*
X190289580Y-72619047D02*
X190146723Y-72714285D01*
X190146723Y-72714285D02*
X189956247Y-72761904D01*
X189956247Y-72761904D02*
X189575295Y-72761904D01*
X189575295Y-72761904D02*
X189480057Y-72714285D01*
X189480057Y-72714285D02*
X189432438Y-72666666D01*
X189432438Y-72666666D02*
X189384819Y-72571428D01*
X189384819Y-72571428D02*
X189384819Y-72380952D01*
X189384819Y-72380952D02*
X189432438Y-72285714D01*
X189432438Y-72285714D02*
X189480057Y-72238095D01*
X189480057Y-72238095D02*
X189575295Y-72190476D01*
X189575295Y-72190476D02*
X189813390Y-72190476D01*
X189813390Y-72190476D02*
X189908628Y-72238095D01*
X189908628Y-72238095D02*
X189956247Y-72285714D01*
X189956247Y-72285714D02*
X190003866Y-72380952D01*
X190003866Y-72380952D02*
X190003866Y-72571428D01*
X190003866Y-72571428D02*
X189956247Y-72666666D01*
X189956247Y-72666666D02*
X189908628Y-72714285D01*
X189908628Y-72714285D02*
X189813390Y-72761904D01*
X235067857Y-60049580D02*
X235115476Y-60097200D01*
X235115476Y-60097200D02*
X235258333Y-60144819D01*
X235258333Y-60144819D02*
X235353571Y-60144819D01*
X235353571Y-60144819D02*
X235496428Y-60097200D01*
X235496428Y-60097200D02*
X235591666Y-60001961D01*
X235591666Y-60001961D02*
X235639285Y-59906723D01*
X235639285Y-59906723D02*
X235686904Y-59716247D01*
X235686904Y-59716247D02*
X235686904Y-59573390D01*
X235686904Y-59573390D02*
X235639285Y-59382914D01*
X235639285Y-59382914D02*
X235591666Y-59287676D01*
X235591666Y-59287676D02*
X235496428Y-59192438D01*
X235496428Y-59192438D02*
X235353571Y-59144819D01*
X235353571Y-59144819D02*
X235258333Y-59144819D01*
X235258333Y-59144819D02*
X235115476Y-59192438D01*
X235115476Y-59192438D02*
X235067857Y-59240057D01*
X234734523Y-59144819D02*
X234115476Y-59144819D01*
X234115476Y-59144819D02*
X234448809Y-59525771D01*
X234448809Y-59525771D02*
X234305952Y-59525771D01*
X234305952Y-59525771D02*
X234210714Y-59573390D01*
X234210714Y-59573390D02*
X234163095Y-59621009D01*
X234163095Y-59621009D02*
X234115476Y-59716247D01*
X234115476Y-59716247D02*
X234115476Y-59954342D01*
X234115476Y-59954342D02*
X234163095Y-60049580D01*
X234163095Y-60049580D02*
X234210714Y-60097200D01*
X234210714Y-60097200D02*
X234305952Y-60144819D01*
X234305952Y-60144819D02*
X234591666Y-60144819D01*
X234591666Y-60144819D02*
X234686904Y-60097200D01*
X234686904Y-60097200D02*
X234734523Y-60049580D01*
X233782142Y-59144819D02*
X233115476Y-59144819D01*
X233115476Y-59144819D02*
X233544047Y-60144819D01*
X239077857Y-62559580D02*
X239125476Y-62607200D01*
X239125476Y-62607200D02*
X239268333Y-62654819D01*
X239268333Y-62654819D02*
X239363571Y-62654819D01*
X239363571Y-62654819D02*
X239506428Y-62607200D01*
X239506428Y-62607200D02*
X239601666Y-62511961D01*
X239601666Y-62511961D02*
X239649285Y-62416723D01*
X239649285Y-62416723D02*
X239696904Y-62226247D01*
X239696904Y-62226247D02*
X239696904Y-62083390D01*
X239696904Y-62083390D02*
X239649285Y-61892914D01*
X239649285Y-61892914D02*
X239601666Y-61797676D01*
X239601666Y-61797676D02*
X239506428Y-61702438D01*
X239506428Y-61702438D02*
X239363571Y-61654819D01*
X239363571Y-61654819D02*
X239268333Y-61654819D01*
X239268333Y-61654819D02*
X239125476Y-61702438D01*
X239125476Y-61702438D02*
X239077857Y-61750057D01*
X238220714Y-61988152D02*
X238220714Y-62654819D01*
X238458809Y-61607200D02*
X238696904Y-62321485D01*
X238696904Y-62321485D02*
X238077857Y-62321485D01*
X237220714Y-61654819D02*
X237696904Y-61654819D01*
X237696904Y-61654819D02*
X237744523Y-62131009D01*
X237744523Y-62131009D02*
X237696904Y-62083390D01*
X237696904Y-62083390D02*
X237601666Y-62035771D01*
X237601666Y-62035771D02*
X237363571Y-62035771D01*
X237363571Y-62035771D02*
X237268333Y-62083390D01*
X237268333Y-62083390D02*
X237220714Y-62131009D01*
X237220714Y-62131009D02*
X237173095Y-62226247D01*
X237173095Y-62226247D02*
X237173095Y-62464342D01*
X237173095Y-62464342D02*
X237220714Y-62559580D01*
X237220714Y-62559580D02*
X237268333Y-62607200D01*
X237268333Y-62607200D02*
X237363571Y-62654819D01*
X237363571Y-62654819D02*
X237601666Y-62654819D01*
X237601666Y-62654819D02*
X237696904Y-62607200D01*
X237696904Y-62607200D02*
X237744523Y-62559580D01*
X242611666Y-67674819D02*
X242944999Y-67198628D01*
X243183094Y-67674819D02*
X243183094Y-66674819D01*
X243183094Y-66674819D02*
X242802142Y-66674819D01*
X242802142Y-66674819D02*
X242706904Y-66722438D01*
X242706904Y-66722438D02*
X242659285Y-66770057D01*
X242659285Y-66770057D02*
X242611666Y-66865295D01*
X242611666Y-66865295D02*
X242611666Y-67008152D01*
X242611666Y-67008152D02*
X242659285Y-67103390D01*
X242659285Y-67103390D02*
X242706904Y-67151009D01*
X242706904Y-67151009D02*
X242802142Y-67198628D01*
X242802142Y-67198628D02*
X243183094Y-67198628D01*
X242278332Y-66674819D02*
X241611666Y-66674819D01*
X241611666Y-66674819D02*
X242040237Y-67674819D01*
X242611666Y-70184819D02*
X242944999Y-69708628D01*
X243183094Y-70184819D02*
X243183094Y-69184819D01*
X243183094Y-69184819D02*
X242802142Y-69184819D01*
X242802142Y-69184819D02*
X242706904Y-69232438D01*
X242706904Y-69232438D02*
X242659285Y-69280057D01*
X242659285Y-69280057D02*
X242611666Y-69375295D01*
X242611666Y-69375295D02*
X242611666Y-69518152D01*
X242611666Y-69518152D02*
X242659285Y-69613390D01*
X242659285Y-69613390D02*
X242706904Y-69661009D01*
X242706904Y-69661009D02*
X242802142Y-69708628D01*
X242802142Y-69708628D02*
X243183094Y-69708628D01*
X241754523Y-69518152D02*
X241754523Y-70184819D01*
X241992618Y-69137200D02*
X242230713Y-69851485D01*
X242230713Y-69851485D02*
X241611666Y-69851485D01*
X231057857Y-52519580D02*
X231105476Y-52567200D01*
X231105476Y-52567200D02*
X231248333Y-52614819D01*
X231248333Y-52614819D02*
X231343571Y-52614819D01*
X231343571Y-52614819D02*
X231486428Y-52567200D01*
X231486428Y-52567200D02*
X231581666Y-52471961D01*
X231581666Y-52471961D02*
X231629285Y-52376723D01*
X231629285Y-52376723D02*
X231676904Y-52186247D01*
X231676904Y-52186247D02*
X231676904Y-52043390D01*
X231676904Y-52043390D02*
X231629285Y-51852914D01*
X231629285Y-51852914D02*
X231581666Y-51757676D01*
X231581666Y-51757676D02*
X231486428Y-51662438D01*
X231486428Y-51662438D02*
X231343571Y-51614819D01*
X231343571Y-51614819D02*
X231248333Y-51614819D01*
X231248333Y-51614819D02*
X231105476Y-51662438D01*
X231105476Y-51662438D02*
X231057857Y-51710057D01*
X230724523Y-51614819D02*
X230105476Y-51614819D01*
X230105476Y-51614819D02*
X230438809Y-51995771D01*
X230438809Y-51995771D02*
X230295952Y-51995771D01*
X230295952Y-51995771D02*
X230200714Y-52043390D01*
X230200714Y-52043390D02*
X230153095Y-52091009D01*
X230153095Y-52091009D02*
X230105476Y-52186247D01*
X230105476Y-52186247D02*
X230105476Y-52424342D01*
X230105476Y-52424342D02*
X230153095Y-52519580D01*
X230153095Y-52519580D02*
X230200714Y-52567200D01*
X230200714Y-52567200D02*
X230295952Y-52614819D01*
X230295952Y-52614819D02*
X230581666Y-52614819D01*
X230581666Y-52614819D02*
X230676904Y-52567200D01*
X230676904Y-52567200D02*
X230724523Y-52519580D01*
X229153095Y-52614819D02*
X229724523Y-52614819D01*
X229438809Y-52614819D02*
X229438809Y-51614819D01*
X229438809Y-51614819D02*
X229534047Y-51757676D01*
X229534047Y-51757676D02*
X229629285Y-51852914D01*
X229629285Y-51852914D02*
X229724523Y-51900533D01*
X227047857Y-70089580D02*
X227095476Y-70137200D01*
X227095476Y-70137200D02*
X227238333Y-70184819D01*
X227238333Y-70184819D02*
X227333571Y-70184819D01*
X227333571Y-70184819D02*
X227476428Y-70137200D01*
X227476428Y-70137200D02*
X227571666Y-70041961D01*
X227571666Y-70041961D02*
X227619285Y-69946723D01*
X227619285Y-69946723D02*
X227666904Y-69756247D01*
X227666904Y-69756247D02*
X227666904Y-69613390D01*
X227666904Y-69613390D02*
X227619285Y-69422914D01*
X227619285Y-69422914D02*
X227571666Y-69327676D01*
X227571666Y-69327676D02*
X227476428Y-69232438D01*
X227476428Y-69232438D02*
X227333571Y-69184819D01*
X227333571Y-69184819D02*
X227238333Y-69184819D01*
X227238333Y-69184819D02*
X227095476Y-69232438D01*
X227095476Y-69232438D02*
X227047857Y-69280057D01*
X226095476Y-70184819D02*
X226666904Y-70184819D01*
X226381190Y-70184819D02*
X226381190Y-69184819D01*
X226381190Y-69184819D02*
X226476428Y-69327676D01*
X226476428Y-69327676D02*
X226571666Y-69422914D01*
X226571666Y-69422914D02*
X226666904Y-69470533D01*
X225190714Y-69184819D02*
X225666904Y-69184819D01*
X225666904Y-69184819D02*
X225714523Y-69661009D01*
X225714523Y-69661009D02*
X225666904Y-69613390D01*
X225666904Y-69613390D02*
X225571666Y-69565771D01*
X225571666Y-69565771D02*
X225333571Y-69565771D01*
X225333571Y-69565771D02*
X225238333Y-69613390D01*
X225238333Y-69613390D02*
X225190714Y-69661009D01*
X225190714Y-69661009D02*
X225143095Y-69756247D01*
X225143095Y-69756247D02*
X225143095Y-69994342D01*
X225143095Y-69994342D02*
X225190714Y-70089580D01*
X225190714Y-70089580D02*
X225238333Y-70137200D01*
X225238333Y-70137200D02*
X225333571Y-70184819D01*
X225333571Y-70184819D02*
X225571666Y-70184819D01*
X225571666Y-70184819D02*
X225666904Y-70137200D01*
X225666904Y-70137200D02*
X225714523Y-70089580D01*
X261091666Y-67674819D02*
X261424999Y-67198628D01*
X261663094Y-67674819D02*
X261663094Y-66674819D01*
X261663094Y-66674819D02*
X261282142Y-66674819D01*
X261282142Y-66674819D02*
X261186904Y-66722438D01*
X261186904Y-66722438D02*
X261139285Y-66770057D01*
X261139285Y-66770057D02*
X261091666Y-66865295D01*
X261091666Y-66865295D02*
X261091666Y-67008152D01*
X261091666Y-67008152D02*
X261139285Y-67103390D01*
X261139285Y-67103390D02*
X261186904Y-67151009D01*
X261186904Y-67151009D02*
X261282142Y-67198628D01*
X261282142Y-67198628D02*
X261663094Y-67198628D01*
X260234523Y-66674819D02*
X260424999Y-66674819D01*
X260424999Y-66674819D02*
X260520237Y-66722438D01*
X260520237Y-66722438D02*
X260567856Y-66770057D01*
X260567856Y-66770057D02*
X260663094Y-66912914D01*
X260663094Y-66912914D02*
X260710713Y-67103390D01*
X260710713Y-67103390D02*
X260710713Y-67484342D01*
X260710713Y-67484342D02*
X260663094Y-67579580D01*
X260663094Y-67579580D02*
X260615475Y-67627200D01*
X260615475Y-67627200D02*
X260520237Y-67674819D01*
X260520237Y-67674819D02*
X260329761Y-67674819D01*
X260329761Y-67674819D02*
X260234523Y-67627200D01*
X260234523Y-67627200D02*
X260186904Y-67579580D01*
X260186904Y-67579580D02*
X260139285Y-67484342D01*
X260139285Y-67484342D02*
X260139285Y-67246247D01*
X260139285Y-67246247D02*
X260186904Y-67151009D01*
X260186904Y-67151009D02*
X260234523Y-67103390D01*
X260234523Y-67103390D02*
X260329761Y-67055771D01*
X260329761Y-67055771D02*
X260520237Y-67055771D01*
X260520237Y-67055771D02*
X260615475Y-67103390D01*
X260615475Y-67103390D02*
X260663094Y-67151009D01*
X260663094Y-67151009D02*
X260710713Y-67246247D01*
X261091666Y-70184819D02*
X261424999Y-69708628D01*
X261663094Y-70184819D02*
X261663094Y-69184819D01*
X261663094Y-69184819D02*
X261282142Y-69184819D01*
X261282142Y-69184819D02*
X261186904Y-69232438D01*
X261186904Y-69232438D02*
X261139285Y-69280057D01*
X261139285Y-69280057D02*
X261091666Y-69375295D01*
X261091666Y-69375295D02*
X261091666Y-69518152D01*
X261091666Y-69518152D02*
X261139285Y-69613390D01*
X261139285Y-69613390D02*
X261186904Y-69661009D01*
X261186904Y-69661009D02*
X261282142Y-69708628D01*
X261282142Y-69708628D02*
X261663094Y-69708628D01*
X260186904Y-69184819D02*
X260663094Y-69184819D01*
X260663094Y-69184819D02*
X260710713Y-69661009D01*
X260710713Y-69661009D02*
X260663094Y-69613390D01*
X260663094Y-69613390D02*
X260567856Y-69565771D01*
X260567856Y-69565771D02*
X260329761Y-69565771D01*
X260329761Y-69565771D02*
X260234523Y-69613390D01*
X260234523Y-69613390D02*
X260186904Y-69661009D01*
X260186904Y-69661009D02*
X260139285Y-69756247D01*
X260139285Y-69756247D02*
X260139285Y-69994342D01*
X260139285Y-69994342D02*
X260186904Y-70089580D01*
X260186904Y-70089580D02*
X260234523Y-70137200D01*
X260234523Y-70137200D02*
X260329761Y-70184819D01*
X260329761Y-70184819D02*
X260567856Y-70184819D01*
X260567856Y-70184819D02*
X260663094Y-70137200D01*
X260663094Y-70137200D02*
X260710713Y-70089580D01*
X227047857Y-65069580D02*
X227095476Y-65117200D01*
X227095476Y-65117200D02*
X227238333Y-65164819D01*
X227238333Y-65164819D02*
X227333571Y-65164819D01*
X227333571Y-65164819D02*
X227476428Y-65117200D01*
X227476428Y-65117200D02*
X227571666Y-65021961D01*
X227571666Y-65021961D02*
X227619285Y-64926723D01*
X227619285Y-64926723D02*
X227666904Y-64736247D01*
X227666904Y-64736247D02*
X227666904Y-64593390D01*
X227666904Y-64593390D02*
X227619285Y-64402914D01*
X227619285Y-64402914D02*
X227571666Y-64307676D01*
X227571666Y-64307676D02*
X227476428Y-64212438D01*
X227476428Y-64212438D02*
X227333571Y-64164819D01*
X227333571Y-64164819D02*
X227238333Y-64164819D01*
X227238333Y-64164819D02*
X227095476Y-64212438D01*
X227095476Y-64212438D02*
X227047857Y-64260057D01*
X226095476Y-65164819D02*
X226666904Y-65164819D01*
X226381190Y-65164819D02*
X226381190Y-64164819D01*
X226381190Y-64164819D02*
X226476428Y-64307676D01*
X226476428Y-64307676D02*
X226571666Y-64402914D01*
X226571666Y-64402914D02*
X226666904Y-64450533D01*
X225762142Y-64164819D02*
X225095476Y-64164819D01*
X225095476Y-64164819D02*
X225524047Y-65164819D01*
X247317857Y-72599580D02*
X247365476Y-72647200D01*
X247365476Y-72647200D02*
X247508333Y-72694819D01*
X247508333Y-72694819D02*
X247603571Y-72694819D01*
X247603571Y-72694819D02*
X247746428Y-72647200D01*
X247746428Y-72647200D02*
X247841666Y-72551961D01*
X247841666Y-72551961D02*
X247889285Y-72456723D01*
X247889285Y-72456723D02*
X247936904Y-72266247D01*
X247936904Y-72266247D02*
X247936904Y-72123390D01*
X247936904Y-72123390D02*
X247889285Y-71932914D01*
X247889285Y-71932914D02*
X247841666Y-71837676D01*
X247841666Y-71837676D02*
X247746428Y-71742438D01*
X247746428Y-71742438D02*
X247603571Y-71694819D01*
X247603571Y-71694819D02*
X247508333Y-71694819D01*
X247508333Y-71694819D02*
X247365476Y-71742438D01*
X247365476Y-71742438D02*
X247317857Y-71790057D01*
X246460714Y-72028152D02*
X246460714Y-72694819D01*
X246698809Y-71647200D02*
X246936904Y-72361485D01*
X246936904Y-72361485D02*
X246317857Y-72361485D01*
X246032142Y-71694819D02*
X245365476Y-71694819D01*
X245365476Y-71694819D02*
X245794047Y-72694819D01*
X167289580Y-62357142D02*
X167337200Y-62309523D01*
X167337200Y-62309523D02*
X167384819Y-62166666D01*
X167384819Y-62166666D02*
X167384819Y-62071428D01*
X167384819Y-62071428D02*
X167337200Y-61928571D01*
X167337200Y-61928571D02*
X167241961Y-61833333D01*
X167241961Y-61833333D02*
X167146723Y-61785714D01*
X167146723Y-61785714D02*
X166956247Y-61738095D01*
X166956247Y-61738095D02*
X166813390Y-61738095D01*
X166813390Y-61738095D02*
X166622914Y-61785714D01*
X166622914Y-61785714D02*
X166527676Y-61833333D01*
X166527676Y-61833333D02*
X166432438Y-61928571D01*
X166432438Y-61928571D02*
X166384819Y-62071428D01*
X166384819Y-62071428D02*
X166384819Y-62166666D01*
X166384819Y-62166666D02*
X166432438Y-62309523D01*
X166432438Y-62309523D02*
X166480057Y-62357142D01*
X166718152Y-63214285D02*
X167384819Y-63214285D01*
X166337200Y-62976190D02*
X167051485Y-62738095D01*
X167051485Y-62738095D02*
X167051485Y-63357142D01*
X166480057Y-63690476D02*
X166432438Y-63738095D01*
X166432438Y-63738095D02*
X166384819Y-63833333D01*
X166384819Y-63833333D02*
X166384819Y-64071428D01*
X166384819Y-64071428D02*
X166432438Y-64166666D01*
X166432438Y-64166666D02*
X166480057Y-64214285D01*
X166480057Y-64214285D02*
X166575295Y-64261904D01*
X166575295Y-64261904D02*
X166670533Y-64261904D01*
X166670533Y-64261904D02*
X166813390Y-64214285D01*
X166813390Y-64214285D02*
X167384819Y-63642857D01*
X167384819Y-63642857D02*
X167384819Y-64261904D01*
X235067857Y-57539580D02*
X235115476Y-57587200D01*
X235115476Y-57587200D02*
X235258333Y-57634819D01*
X235258333Y-57634819D02*
X235353571Y-57634819D01*
X235353571Y-57634819D02*
X235496428Y-57587200D01*
X235496428Y-57587200D02*
X235591666Y-57491961D01*
X235591666Y-57491961D02*
X235639285Y-57396723D01*
X235639285Y-57396723D02*
X235686904Y-57206247D01*
X235686904Y-57206247D02*
X235686904Y-57063390D01*
X235686904Y-57063390D02*
X235639285Y-56872914D01*
X235639285Y-56872914D02*
X235591666Y-56777676D01*
X235591666Y-56777676D02*
X235496428Y-56682438D01*
X235496428Y-56682438D02*
X235353571Y-56634819D01*
X235353571Y-56634819D02*
X235258333Y-56634819D01*
X235258333Y-56634819D02*
X235115476Y-56682438D01*
X235115476Y-56682438D02*
X235067857Y-56730057D01*
X234734523Y-56634819D02*
X234115476Y-56634819D01*
X234115476Y-56634819D02*
X234448809Y-57015771D01*
X234448809Y-57015771D02*
X234305952Y-57015771D01*
X234305952Y-57015771D02*
X234210714Y-57063390D01*
X234210714Y-57063390D02*
X234163095Y-57111009D01*
X234163095Y-57111009D02*
X234115476Y-57206247D01*
X234115476Y-57206247D02*
X234115476Y-57444342D01*
X234115476Y-57444342D02*
X234163095Y-57539580D01*
X234163095Y-57539580D02*
X234210714Y-57587200D01*
X234210714Y-57587200D02*
X234305952Y-57634819D01*
X234305952Y-57634819D02*
X234591666Y-57634819D01*
X234591666Y-57634819D02*
X234686904Y-57587200D01*
X234686904Y-57587200D02*
X234734523Y-57539580D01*
X233544047Y-57063390D02*
X233639285Y-57015771D01*
X233639285Y-57015771D02*
X233686904Y-56968152D01*
X233686904Y-56968152D02*
X233734523Y-56872914D01*
X233734523Y-56872914D02*
X233734523Y-56825295D01*
X233734523Y-56825295D02*
X233686904Y-56730057D01*
X233686904Y-56730057D02*
X233639285Y-56682438D01*
X233639285Y-56682438D02*
X233544047Y-56634819D01*
X233544047Y-56634819D02*
X233353571Y-56634819D01*
X233353571Y-56634819D02*
X233258333Y-56682438D01*
X233258333Y-56682438D02*
X233210714Y-56730057D01*
X233210714Y-56730057D02*
X233163095Y-56825295D01*
X233163095Y-56825295D02*
X233163095Y-56872914D01*
X233163095Y-56872914D02*
X233210714Y-56968152D01*
X233210714Y-56968152D02*
X233258333Y-57015771D01*
X233258333Y-57015771D02*
X233353571Y-57063390D01*
X233353571Y-57063390D02*
X233544047Y-57063390D01*
X233544047Y-57063390D02*
X233639285Y-57111009D01*
X233639285Y-57111009D02*
X233686904Y-57158628D01*
X233686904Y-57158628D02*
X233734523Y-57253866D01*
X233734523Y-57253866D02*
X233734523Y-57444342D01*
X233734523Y-57444342D02*
X233686904Y-57539580D01*
X233686904Y-57539580D02*
X233639285Y-57587200D01*
X233639285Y-57587200D02*
X233544047Y-57634819D01*
X233544047Y-57634819D02*
X233353571Y-57634819D01*
X233353571Y-57634819D02*
X233258333Y-57587200D01*
X233258333Y-57587200D02*
X233210714Y-57539580D01*
X233210714Y-57539580D02*
X233163095Y-57444342D01*
X233163095Y-57444342D02*
X233163095Y-57253866D01*
X233163095Y-57253866D02*
X233210714Y-57158628D01*
X233210714Y-57158628D02*
X233258333Y-57111009D01*
X233258333Y-57111009D02*
X233353571Y-57063390D01*
X239077857Y-67579580D02*
X239125476Y-67627200D01*
X239125476Y-67627200D02*
X239268333Y-67674819D01*
X239268333Y-67674819D02*
X239363571Y-67674819D01*
X239363571Y-67674819D02*
X239506428Y-67627200D01*
X239506428Y-67627200D02*
X239601666Y-67531961D01*
X239601666Y-67531961D02*
X239649285Y-67436723D01*
X239649285Y-67436723D02*
X239696904Y-67246247D01*
X239696904Y-67246247D02*
X239696904Y-67103390D01*
X239696904Y-67103390D02*
X239649285Y-66912914D01*
X239649285Y-66912914D02*
X239601666Y-66817676D01*
X239601666Y-66817676D02*
X239506428Y-66722438D01*
X239506428Y-66722438D02*
X239363571Y-66674819D01*
X239363571Y-66674819D02*
X239268333Y-66674819D01*
X239268333Y-66674819D02*
X239125476Y-66722438D01*
X239125476Y-66722438D02*
X239077857Y-66770057D01*
X238220714Y-67008152D02*
X238220714Y-67674819D01*
X238458809Y-66627200D02*
X238696904Y-67341485D01*
X238696904Y-67341485D02*
X238077857Y-67341485D01*
X237792142Y-66674819D02*
X237173095Y-66674819D01*
X237173095Y-66674819D02*
X237506428Y-67055771D01*
X237506428Y-67055771D02*
X237363571Y-67055771D01*
X237363571Y-67055771D02*
X237268333Y-67103390D01*
X237268333Y-67103390D02*
X237220714Y-67151009D01*
X237220714Y-67151009D02*
X237173095Y-67246247D01*
X237173095Y-67246247D02*
X237173095Y-67484342D01*
X237173095Y-67484342D02*
X237220714Y-67579580D01*
X237220714Y-67579580D02*
X237268333Y-67627200D01*
X237268333Y-67627200D02*
X237363571Y-67674819D01*
X237363571Y-67674819D02*
X237649285Y-67674819D01*
X237649285Y-67674819D02*
X237744523Y-67627200D01*
X237744523Y-67627200D02*
X237792142Y-67579580D01*
X257081666Y-67579580D02*
X257129285Y-67627200D01*
X257129285Y-67627200D02*
X257272142Y-67674819D01*
X257272142Y-67674819D02*
X257367380Y-67674819D01*
X257367380Y-67674819D02*
X257510237Y-67627200D01*
X257510237Y-67627200D02*
X257605475Y-67531961D01*
X257605475Y-67531961D02*
X257653094Y-67436723D01*
X257653094Y-67436723D02*
X257700713Y-67246247D01*
X257700713Y-67246247D02*
X257700713Y-67103390D01*
X257700713Y-67103390D02*
X257653094Y-66912914D01*
X257653094Y-66912914D02*
X257605475Y-66817676D01*
X257605475Y-66817676D02*
X257510237Y-66722438D01*
X257510237Y-66722438D02*
X257367380Y-66674819D01*
X257367380Y-66674819D02*
X257272142Y-66674819D01*
X257272142Y-66674819D02*
X257129285Y-66722438D01*
X257129285Y-66722438D02*
X257081666Y-66770057D01*
X256605475Y-67674819D02*
X256414999Y-67674819D01*
X256414999Y-67674819D02*
X256319761Y-67627200D01*
X256319761Y-67627200D02*
X256272142Y-67579580D01*
X256272142Y-67579580D02*
X256176904Y-67436723D01*
X256176904Y-67436723D02*
X256129285Y-67246247D01*
X256129285Y-67246247D02*
X256129285Y-66865295D01*
X256129285Y-66865295D02*
X256176904Y-66770057D01*
X256176904Y-66770057D02*
X256224523Y-66722438D01*
X256224523Y-66722438D02*
X256319761Y-66674819D01*
X256319761Y-66674819D02*
X256510237Y-66674819D01*
X256510237Y-66674819D02*
X256605475Y-66722438D01*
X256605475Y-66722438D02*
X256653094Y-66770057D01*
X256653094Y-66770057D02*
X256700713Y-66865295D01*
X256700713Y-66865295D02*
X256700713Y-67103390D01*
X256700713Y-67103390D02*
X256653094Y-67198628D01*
X256653094Y-67198628D02*
X256605475Y-67246247D01*
X256605475Y-67246247D02*
X256510237Y-67293866D01*
X256510237Y-67293866D02*
X256319761Y-67293866D01*
X256319761Y-67293866D02*
X256224523Y-67246247D01*
X256224523Y-67246247D02*
X256176904Y-67198628D01*
X256176904Y-67198628D02*
X256129285Y-67103390D01*
X231057857Y-67579580D02*
X231105476Y-67627200D01*
X231105476Y-67627200D02*
X231248333Y-67674819D01*
X231248333Y-67674819D02*
X231343571Y-67674819D01*
X231343571Y-67674819D02*
X231486428Y-67627200D01*
X231486428Y-67627200D02*
X231581666Y-67531961D01*
X231581666Y-67531961D02*
X231629285Y-67436723D01*
X231629285Y-67436723D02*
X231676904Y-67246247D01*
X231676904Y-67246247D02*
X231676904Y-67103390D01*
X231676904Y-67103390D02*
X231629285Y-66912914D01*
X231629285Y-66912914D02*
X231581666Y-66817676D01*
X231581666Y-66817676D02*
X231486428Y-66722438D01*
X231486428Y-66722438D02*
X231343571Y-66674819D01*
X231343571Y-66674819D02*
X231248333Y-66674819D01*
X231248333Y-66674819D02*
X231105476Y-66722438D01*
X231105476Y-66722438D02*
X231057857Y-66770057D01*
X230676904Y-66770057D02*
X230629285Y-66722438D01*
X230629285Y-66722438D02*
X230534047Y-66674819D01*
X230534047Y-66674819D02*
X230295952Y-66674819D01*
X230295952Y-66674819D02*
X230200714Y-66722438D01*
X230200714Y-66722438D02*
X230153095Y-66770057D01*
X230153095Y-66770057D02*
X230105476Y-66865295D01*
X230105476Y-66865295D02*
X230105476Y-66960533D01*
X230105476Y-66960533D02*
X230153095Y-67103390D01*
X230153095Y-67103390D02*
X230724523Y-67674819D01*
X230724523Y-67674819D02*
X230105476Y-67674819D01*
X229200714Y-66674819D02*
X229676904Y-66674819D01*
X229676904Y-66674819D02*
X229724523Y-67151009D01*
X229724523Y-67151009D02*
X229676904Y-67103390D01*
X229676904Y-67103390D02*
X229581666Y-67055771D01*
X229581666Y-67055771D02*
X229343571Y-67055771D01*
X229343571Y-67055771D02*
X229248333Y-67103390D01*
X229248333Y-67103390D02*
X229200714Y-67151009D01*
X229200714Y-67151009D02*
X229153095Y-67246247D01*
X229153095Y-67246247D02*
X229153095Y-67484342D01*
X229153095Y-67484342D02*
X229200714Y-67579580D01*
X229200714Y-67579580D02*
X229248333Y-67627200D01*
X229248333Y-67627200D02*
X229343571Y-67674819D01*
X229343571Y-67674819D02*
X229581666Y-67674819D01*
X229581666Y-67674819D02*
X229676904Y-67627200D01*
X229676904Y-67627200D02*
X229724523Y-67579580D01*
X261567857Y-72599580D02*
X261615476Y-72647200D01*
X261615476Y-72647200D02*
X261758333Y-72694819D01*
X261758333Y-72694819D02*
X261853571Y-72694819D01*
X261853571Y-72694819D02*
X261996428Y-72647200D01*
X261996428Y-72647200D02*
X262091666Y-72551961D01*
X262091666Y-72551961D02*
X262139285Y-72456723D01*
X262139285Y-72456723D02*
X262186904Y-72266247D01*
X262186904Y-72266247D02*
X262186904Y-72123390D01*
X262186904Y-72123390D02*
X262139285Y-71932914D01*
X262139285Y-71932914D02*
X262091666Y-71837676D01*
X262091666Y-71837676D02*
X261996428Y-71742438D01*
X261996428Y-71742438D02*
X261853571Y-71694819D01*
X261853571Y-71694819D02*
X261758333Y-71694819D01*
X261758333Y-71694819D02*
X261615476Y-71742438D01*
X261615476Y-71742438D02*
X261567857Y-71790057D01*
X260615476Y-72694819D02*
X261186904Y-72694819D01*
X260901190Y-72694819D02*
X260901190Y-71694819D01*
X260901190Y-71694819D02*
X260996428Y-71837676D01*
X260996428Y-71837676D02*
X261091666Y-71932914D01*
X261091666Y-71932914D02*
X261186904Y-71980533D01*
X260282142Y-71694819D02*
X259663095Y-71694819D01*
X259663095Y-71694819D02*
X259996428Y-72075771D01*
X259996428Y-72075771D02*
X259853571Y-72075771D01*
X259853571Y-72075771D02*
X259758333Y-72123390D01*
X259758333Y-72123390D02*
X259710714Y-72171009D01*
X259710714Y-72171009D02*
X259663095Y-72266247D01*
X259663095Y-72266247D02*
X259663095Y-72504342D01*
X259663095Y-72504342D02*
X259710714Y-72599580D01*
X259710714Y-72599580D02*
X259758333Y-72647200D01*
X259758333Y-72647200D02*
X259853571Y-72694819D01*
X259853571Y-72694819D02*
X260139285Y-72694819D01*
X260139285Y-72694819D02*
X260234523Y-72647200D01*
X260234523Y-72647200D02*
X260282142Y-72599580D01*
X189892857Y-71039580D02*
X189940476Y-71087200D01*
X189940476Y-71087200D02*
X190083333Y-71134819D01*
X190083333Y-71134819D02*
X190178571Y-71134819D01*
X190178571Y-71134819D02*
X190321428Y-71087200D01*
X190321428Y-71087200D02*
X190416666Y-70991961D01*
X190416666Y-70991961D02*
X190464285Y-70896723D01*
X190464285Y-70896723D02*
X190511904Y-70706247D01*
X190511904Y-70706247D02*
X190511904Y-70563390D01*
X190511904Y-70563390D02*
X190464285Y-70372914D01*
X190464285Y-70372914D02*
X190416666Y-70277676D01*
X190416666Y-70277676D02*
X190321428Y-70182438D01*
X190321428Y-70182438D02*
X190178571Y-70134819D01*
X190178571Y-70134819D02*
X190083333Y-70134819D01*
X190083333Y-70134819D02*
X189940476Y-70182438D01*
X189940476Y-70182438D02*
X189892857Y-70230057D01*
X189559523Y-70134819D02*
X188940476Y-70134819D01*
X188940476Y-70134819D02*
X189273809Y-70515771D01*
X189273809Y-70515771D02*
X189130952Y-70515771D01*
X189130952Y-70515771D02*
X189035714Y-70563390D01*
X189035714Y-70563390D02*
X188988095Y-70611009D01*
X188988095Y-70611009D02*
X188940476Y-70706247D01*
X188940476Y-70706247D02*
X188940476Y-70944342D01*
X188940476Y-70944342D02*
X188988095Y-71039580D01*
X188988095Y-71039580D02*
X189035714Y-71087200D01*
X189035714Y-71087200D02*
X189130952Y-71134819D01*
X189130952Y-71134819D02*
X189416666Y-71134819D01*
X189416666Y-71134819D02*
X189511904Y-71087200D01*
X189511904Y-71087200D02*
X189559523Y-71039580D01*
X188464285Y-71134819D02*
X188273809Y-71134819D01*
X188273809Y-71134819D02*
X188178571Y-71087200D01*
X188178571Y-71087200D02*
X188130952Y-71039580D01*
X188130952Y-71039580D02*
X188035714Y-70896723D01*
X188035714Y-70896723D02*
X187988095Y-70706247D01*
X187988095Y-70706247D02*
X187988095Y-70325295D01*
X187988095Y-70325295D02*
X188035714Y-70230057D01*
X188035714Y-70230057D02*
X188083333Y-70182438D01*
X188083333Y-70182438D02*
X188178571Y-70134819D01*
X188178571Y-70134819D02*
X188369047Y-70134819D01*
X188369047Y-70134819D02*
X188464285Y-70182438D01*
X188464285Y-70182438D02*
X188511904Y-70230057D01*
X188511904Y-70230057D02*
X188559523Y-70325295D01*
X188559523Y-70325295D02*
X188559523Y-70563390D01*
X188559523Y-70563390D02*
X188511904Y-70658628D01*
X188511904Y-70658628D02*
X188464285Y-70706247D01*
X188464285Y-70706247D02*
X188369047Y-70753866D01*
X188369047Y-70753866D02*
X188178571Y-70753866D01*
X188178571Y-70753866D02*
X188083333Y-70706247D01*
X188083333Y-70706247D02*
X188035714Y-70658628D01*
X188035714Y-70658628D02*
X187988095Y-70563390D01*
X242611666Y-62654819D02*
X242944999Y-62178628D01*
X243183094Y-62654819D02*
X243183094Y-61654819D01*
X243183094Y-61654819D02*
X242802142Y-61654819D01*
X242802142Y-61654819D02*
X242706904Y-61702438D01*
X242706904Y-61702438D02*
X242659285Y-61750057D01*
X242659285Y-61750057D02*
X242611666Y-61845295D01*
X242611666Y-61845295D02*
X242611666Y-61988152D01*
X242611666Y-61988152D02*
X242659285Y-62083390D01*
X242659285Y-62083390D02*
X242706904Y-62131009D01*
X242706904Y-62131009D02*
X242802142Y-62178628D01*
X242802142Y-62178628D02*
X243183094Y-62178628D01*
X242135475Y-62654819D02*
X241944999Y-62654819D01*
X241944999Y-62654819D02*
X241849761Y-62607200D01*
X241849761Y-62607200D02*
X241802142Y-62559580D01*
X241802142Y-62559580D02*
X241706904Y-62416723D01*
X241706904Y-62416723D02*
X241659285Y-62226247D01*
X241659285Y-62226247D02*
X241659285Y-61845295D01*
X241659285Y-61845295D02*
X241706904Y-61750057D01*
X241706904Y-61750057D02*
X241754523Y-61702438D01*
X241754523Y-61702438D02*
X241849761Y-61654819D01*
X241849761Y-61654819D02*
X242040237Y-61654819D01*
X242040237Y-61654819D02*
X242135475Y-61702438D01*
X242135475Y-61702438D02*
X242183094Y-61750057D01*
X242183094Y-61750057D02*
X242230713Y-61845295D01*
X242230713Y-61845295D02*
X242230713Y-62083390D01*
X242230713Y-62083390D02*
X242183094Y-62178628D01*
X242183094Y-62178628D02*
X242135475Y-62226247D01*
X242135475Y-62226247D02*
X242040237Y-62273866D01*
X242040237Y-62273866D02*
X241849761Y-62273866D01*
X241849761Y-62273866D02*
X241754523Y-62226247D01*
X241754523Y-62226247D02*
X241706904Y-62178628D01*
X241706904Y-62178628D02*
X241659285Y-62083390D01*
X235067857Y-67579580D02*
X235115476Y-67627200D01*
X235115476Y-67627200D02*
X235258333Y-67674819D01*
X235258333Y-67674819D02*
X235353571Y-67674819D01*
X235353571Y-67674819D02*
X235496428Y-67627200D01*
X235496428Y-67627200D02*
X235591666Y-67531961D01*
X235591666Y-67531961D02*
X235639285Y-67436723D01*
X235639285Y-67436723D02*
X235686904Y-67246247D01*
X235686904Y-67246247D02*
X235686904Y-67103390D01*
X235686904Y-67103390D02*
X235639285Y-66912914D01*
X235639285Y-66912914D02*
X235591666Y-66817676D01*
X235591666Y-66817676D02*
X235496428Y-66722438D01*
X235496428Y-66722438D02*
X235353571Y-66674819D01*
X235353571Y-66674819D02*
X235258333Y-66674819D01*
X235258333Y-66674819D02*
X235115476Y-66722438D01*
X235115476Y-66722438D02*
X235067857Y-66770057D01*
X234734523Y-66674819D02*
X234115476Y-66674819D01*
X234115476Y-66674819D02*
X234448809Y-67055771D01*
X234448809Y-67055771D02*
X234305952Y-67055771D01*
X234305952Y-67055771D02*
X234210714Y-67103390D01*
X234210714Y-67103390D02*
X234163095Y-67151009D01*
X234163095Y-67151009D02*
X234115476Y-67246247D01*
X234115476Y-67246247D02*
X234115476Y-67484342D01*
X234115476Y-67484342D02*
X234163095Y-67579580D01*
X234163095Y-67579580D02*
X234210714Y-67627200D01*
X234210714Y-67627200D02*
X234305952Y-67674819D01*
X234305952Y-67674819D02*
X234591666Y-67674819D01*
X234591666Y-67674819D02*
X234686904Y-67627200D01*
X234686904Y-67627200D02*
X234734523Y-67579580D01*
X233258333Y-67008152D02*
X233258333Y-67674819D01*
X233496428Y-66627200D02*
X233734523Y-67341485D01*
X233734523Y-67341485D02*
X233115476Y-67341485D01*
X253071666Y-62559580D02*
X253119285Y-62607200D01*
X253119285Y-62607200D02*
X253262142Y-62654819D01*
X253262142Y-62654819D02*
X253357380Y-62654819D01*
X253357380Y-62654819D02*
X253500237Y-62607200D01*
X253500237Y-62607200D02*
X253595475Y-62511961D01*
X253595475Y-62511961D02*
X253643094Y-62416723D01*
X253643094Y-62416723D02*
X253690713Y-62226247D01*
X253690713Y-62226247D02*
X253690713Y-62083390D01*
X253690713Y-62083390D02*
X253643094Y-61892914D01*
X253643094Y-61892914D02*
X253595475Y-61797676D01*
X253595475Y-61797676D02*
X253500237Y-61702438D01*
X253500237Y-61702438D02*
X253357380Y-61654819D01*
X253357380Y-61654819D02*
X253262142Y-61654819D01*
X253262142Y-61654819D02*
X253119285Y-61702438D01*
X253119285Y-61702438D02*
X253071666Y-61750057D01*
X252166904Y-61654819D02*
X252643094Y-61654819D01*
X252643094Y-61654819D02*
X252690713Y-62131009D01*
X252690713Y-62131009D02*
X252643094Y-62083390D01*
X252643094Y-62083390D02*
X252547856Y-62035771D01*
X252547856Y-62035771D02*
X252309761Y-62035771D01*
X252309761Y-62035771D02*
X252214523Y-62083390D01*
X252214523Y-62083390D02*
X252166904Y-62131009D01*
X252166904Y-62131009D02*
X252119285Y-62226247D01*
X252119285Y-62226247D02*
X252119285Y-62464342D01*
X252119285Y-62464342D02*
X252166904Y-62559580D01*
X252166904Y-62559580D02*
X252214523Y-62607200D01*
X252214523Y-62607200D02*
X252309761Y-62654819D01*
X252309761Y-62654819D02*
X252547856Y-62654819D01*
X252547856Y-62654819D02*
X252643094Y-62607200D01*
X252643094Y-62607200D02*
X252690713Y-62559580D01*
X253071666Y-65069580D02*
X253119285Y-65117200D01*
X253119285Y-65117200D02*
X253262142Y-65164819D01*
X253262142Y-65164819D02*
X253357380Y-65164819D01*
X253357380Y-65164819D02*
X253500237Y-65117200D01*
X253500237Y-65117200D02*
X253595475Y-65021961D01*
X253595475Y-65021961D02*
X253643094Y-64926723D01*
X253643094Y-64926723D02*
X253690713Y-64736247D01*
X253690713Y-64736247D02*
X253690713Y-64593390D01*
X253690713Y-64593390D02*
X253643094Y-64402914D01*
X253643094Y-64402914D02*
X253595475Y-64307676D01*
X253595475Y-64307676D02*
X253500237Y-64212438D01*
X253500237Y-64212438D02*
X253357380Y-64164819D01*
X253357380Y-64164819D02*
X253262142Y-64164819D01*
X253262142Y-64164819D02*
X253119285Y-64212438D01*
X253119285Y-64212438D02*
X253071666Y-64260057D01*
X252214523Y-64498152D02*
X252214523Y-65164819D01*
X252452618Y-64117200D02*
X252690713Y-64831485D01*
X252690713Y-64831485D02*
X252071666Y-64831485D01*
X235067857Y-65069580D02*
X235115476Y-65117200D01*
X235115476Y-65117200D02*
X235258333Y-65164819D01*
X235258333Y-65164819D02*
X235353571Y-65164819D01*
X235353571Y-65164819D02*
X235496428Y-65117200D01*
X235496428Y-65117200D02*
X235591666Y-65021961D01*
X235591666Y-65021961D02*
X235639285Y-64926723D01*
X235639285Y-64926723D02*
X235686904Y-64736247D01*
X235686904Y-64736247D02*
X235686904Y-64593390D01*
X235686904Y-64593390D02*
X235639285Y-64402914D01*
X235639285Y-64402914D02*
X235591666Y-64307676D01*
X235591666Y-64307676D02*
X235496428Y-64212438D01*
X235496428Y-64212438D02*
X235353571Y-64164819D01*
X235353571Y-64164819D02*
X235258333Y-64164819D01*
X235258333Y-64164819D02*
X235115476Y-64212438D01*
X235115476Y-64212438D02*
X235067857Y-64260057D01*
X234734523Y-64164819D02*
X234115476Y-64164819D01*
X234115476Y-64164819D02*
X234448809Y-64545771D01*
X234448809Y-64545771D02*
X234305952Y-64545771D01*
X234305952Y-64545771D02*
X234210714Y-64593390D01*
X234210714Y-64593390D02*
X234163095Y-64641009D01*
X234163095Y-64641009D02*
X234115476Y-64736247D01*
X234115476Y-64736247D02*
X234115476Y-64974342D01*
X234115476Y-64974342D02*
X234163095Y-65069580D01*
X234163095Y-65069580D02*
X234210714Y-65117200D01*
X234210714Y-65117200D02*
X234305952Y-65164819D01*
X234305952Y-65164819D02*
X234591666Y-65164819D01*
X234591666Y-65164819D02*
X234686904Y-65117200D01*
X234686904Y-65117200D02*
X234734523Y-65069580D01*
X233210714Y-64164819D02*
X233686904Y-64164819D01*
X233686904Y-64164819D02*
X233734523Y-64641009D01*
X233734523Y-64641009D02*
X233686904Y-64593390D01*
X233686904Y-64593390D02*
X233591666Y-64545771D01*
X233591666Y-64545771D02*
X233353571Y-64545771D01*
X233353571Y-64545771D02*
X233258333Y-64593390D01*
X233258333Y-64593390D02*
X233210714Y-64641009D01*
X233210714Y-64641009D02*
X233163095Y-64736247D01*
X233163095Y-64736247D02*
X233163095Y-64974342D01*
X233163095Y-64974342D02*
X233210714Y-65069580D01*
X233210714Y-65069580D02*
X233258333Y-65117200D01*
X233258333Y-65117200D02*
X233353571Y-65164819D01*
X233353571Y-65164819D02*
X233591666Y-65164819D01*
X233591666Y-65164819D02*
X233686904Y-65117200D01*
X233686904Y-65117200D02*
X233734523Y-65069580D01*
X253071666Y-72599580D02*
X253119285Y-72647200D01*
X253119285Y-72647200D02*
X253262142Y-72694819D01*
X253262142Y-72694819D02*
X253357380Y-72694819D01*
X253357380Y-72694819D02*
X253500237Y-72647200D01*
X253500237Y-72647200D02*
X253595475Y-72551961D01*
X253595475Y-72551961D02*
X253643094Y-72456723D01*
X253643094Y-72456723D02*
X253690713Y-72266247D01*
X253690713Y-72266247D02*
X253690713Y-72123390D01*
X253690713Y-72123390D02*
X253643094Y-71932914D01*
X253643094Y-71932914D02*
X253595475Y-71837676D01*
X253595475Y-71837676D02*
X253500237Y-71742438D01*
X253500237Y-71742438D02*
X253357380Y-71694819D01*
X253357380Y-71694819D02*
X253262142Y-71694819D01*
X253262142Y-71694819D02*
X253119285Y-71742438D01*
X253119285Y-71742438D02*
X253071666Y-71790057D01*
X252119285Y-72694819D02*
X252690713Y-72694819D01*
X252404999Y-72694819D02*
X252404999Y-71694819D01*
X252404999Y-71694819D02*
X252500237Y-71837676D01*
X252500237Y-71837676D02*
X252595475Y-71932914D01*
X252595475Y-71932914D02*
X252690713Y-71980533D01*
X182892857Y-89039580D02*
X182940476Y-89087200D01*
X182940476Y-89087200D02*
X183083333Y-89134819D01*
X183083333Y-89134819D02*
X183178571Y-89134819D01*
X183178571Y-89134819D02*
X183321428Y-89087200D01*
X183321428Y-89087200D02*
X183416666Y-88991961D01*
X183416666Y-88991961D02*
X183464285Y-88896723D01*
X183464285Y-88896723D02*
X183511904Y-88706247D01*
X183511904Y-88706247D02*
X183511904Y-88563390D01*
X183511904Y-88563390D02*
X183464285Y-88372914D01*
X183464285Y-88372914D02*
X183416666Y-88277676D01*
X183416666Y-88277676D02*
X183321428Y-88182438D01*
X183321428Y-88182438D02*
X183178571Y-88134819D01*
X183178571Y-88134819D02*
X183083333Y-88134819D01*
X183083333Y-88134819D02*
X182940476Y-88182438D01*
X182940476Y-88182438D02*
X182892857Y-88230057D01*
X182511904Y-88230057D02*
X182464285Y-88182438D01*
X182464285Y-88182438D02*
X182369047Y-88134819D01*
X182369047Y-88134819D02*
X182130952Y-88134819D01*
X182130952Y-88134819D02*
X182035714Y-88182438D01*
X182035714Y-88182438D02*
X181988095Y-88230057D01*
X181988095Y-88230057D02*
X181940476Y-88325295D01*
X181940476Y-88325295D02*
X181940476Y-88420533D01*
X181940476Y-88420533D02*
X181988095Y-88563390D01*
X181988095Y-88563390D02*
X182559523Y-89134819D01*
X182559523Y-89134819D02*
X181940476Y-89134819D01*
X181559523Y-88230057D02*
X181511904Y-88182438D01*
X181511904Y-88182438D02*
X181416666Y-88134819D01*
X181416666Y-88134819D02*
X181178571Y-88134819D01*
X181178571Y-88134819D02*
X181083333Y-88182438D01*
X181083333Y-88182438D02*
X181035714Y-88230057D01*
X181035714Y-88230057D02*
X180988095Y-88325295D01*
X180988095Y-88325295D02*
X180988095Y-88420533D01*
X180988095Y-88420533D02*
X181035714Y-88563390D01*
X181035714Y-88563390D02*
X181607142Y-89134819D01*
X181607142Y-89134819D02*
X180988095Y-89134819D01*
X253071666Y-60049580D02*
X253119285Y-60097200D01*
X253119285Y-60097200D02*
X253262142Y-60144819D01*
X253262142Y-60144819D02*
X253357380Y-60144819D01*
X253357380Y-60144819D02*
X253500237Y-60097200D01*
X253500237Y-60097200D02*
X253595475Y-60001961D01*
X253595475Y-60001961D02*
X253643094Y-59906723D01*
X253643094Y-59906723D02*
X253690713Y-59716247D01*
X253690713Y-59716247D02*
X253690713Y-59573390D01*
X253690713Y-59573390D02*
X253643094Y-59382914D01*
X253643094Y-59382914D02*
X253595475Y-59287676D01*
X253595475Y-59287676D02*
X253500237Y-59192438D01*
X253500237Y-59192438D02*
X253357380Y-59144819D01*
X253357380Y-59144819D02*
X253262142Y-59144819D01*
X253262142Y-59144819D02*
X253119285Y-59192438D01*
X253119285Y-59192438D02*
X253071666Y-59240057D01*
X252214523Y-59144819D02*
X252404999Y-59144819D01*
X252404999Y-59144819D02*
X252500237Y-59192438D01*
X252500237Y-59192438D02*
X252547856Y-59240057D01*
X252547856Y-59240057D02*
X252643094Y-59382914D01*
X252643094Y-59382914D02*
X252690713Y-59573390D01*
X252690713Y-59573390D02*
X252690713Y-59954342D01*
X252690713Y-59954342D02*
X252643094Y-60049580D01*
X252643094Y-60049580D02*
X252595475Y-60097200D01*
X252595475Y-60097200D02*
X252500237Y-60144819D01*
X252500237Y-60144819D02*
X252309761Y-60144819D01*
X252309761Y-60144819D02*
X252214523Y-60097200D01*
X252214523Y-60097200D02*
X252166904Y-60049580D01*
X252166904Y-60049580D02*
X252119285Y-59954342D01*
X252119285Y-59954342D02*
X252119285Y-59716247D01*
X252119285Y-59716247D02*
X252166904Y-59621009D01*
X252166904Y-59621009D02*
X252214523Y-59573390D01*
X252214523Y-59573390D02*
X252309761Y-59525771D01*
X252309761Y-59525771D02*
X252500237Y-59525771D01*
X252500237Y-59525771D02*
X252595475Y-59573390D01*
X252595475Y-59573390D02*
X252643094Y-59621009D01*
X252643094Y-59621009D02*
X252690713Y-59716247D01*
X227047857Y-57539580D02*
X227095476Y-57587200D01*
X227095476Y-57587200D02*
X227238333Y-57634819D01*
X227238333Y-57634819D02*
X227333571Y-57634819D01*
X227333571Y-57634819D02*
X227476428Y-57587200D01*
X227476428Y-57587200D02*
X227571666Y-57491961D01*
X227571666Y-57491961D02*
X227619285Y-57396723D01*
X227619285Y-57396723D02*
X227666904Y-57206247D01*
X227666904Y-57206247D02*
X227666904Y-57063390D01*
X227666904Y-57063390D02*
X227619285Y-56872914D01*
X227619285Y-56872914D02*
X227571666Y-56777676D01*
X227571666Y-56777676D02*
X227476428Y-56682438D01*
X227476428Y-56682438D02*
X227333571Y-56634819D01*
X227333571Y-56634819D02*
X227238333Y-56634819D01*
X227238333Y-56634819D02*
X227095476Y-56682438D01*
X227095476Y-56682438D02*
X227047857Y-56730057D01*
X226666904Y-56730057D02*
X226619285Y-56682438D01*
X226619285Y-56682438D02*
X226524047Y-56634819D01*
X226524047Y-56634819D02*
X226285952Y-56634819D01*
X226285952Y-56634819D02*
X226190714Y-56682438D01*
X226190714Y-56682438D02*
X226143095Y-56730057D01*
X226143095Y-56730057D02*
X226095476Y-56825295D01*
X226095476Y-56825295D02*
X226095476Y-56920533D01*
X226095476Y-56920533D02*
X226143095Y-57063390D01*
X226143095Y-57063390D02*
X226714523Y-57634819D01*
X226714523Y-57634819D02*
X226095476Y-57634819D01*
X225476428Y-56634819D02*
X225381190Y-56634819D01*
X225381190Y-56634819D02*
X225285952Y-56682438D01*
X225285952Y-56682438D02*
X225238333Y-56730057D01*
X225238333Y-56730057D02*
X225190714Y-56825295D01*
X225190714Y-56825295D02*
X225143095Y-57015771D01*
X225143095Y-57015771D02*
X225143095Y-57253866D01*
X225143095Y-57253866D02*
X225190714Y-57444342D01*
X225190714Y-57444342D02*
X225238333Y-57539580D01*
X225238333Y-57539580D02*
X225285952Y-57587200D01*
X225285952Y-57587200D02*
X225381190Y-57634819D01*
X225381190Y-57634819D02*
X225476428Y-57634819D01*
X225476428Y-57634819D02*
X225571666Y-57587200D01*
X225571666Y-57587200D02*
X225619285Y-57539580D01*
X225619285Y-57539580D02*
X225666904Y-57444342D01*
X225666904Y-57444342D02*
X225714523Y-57253866D01*
X225714523Y-57253866D02*
X225714523Y-57015771D01*
X225714523Y-57015771D02*
X225666904Y-56825295D01*
X225666904Y-56825295D02*
X225619285Y-56730057D01*
X225619285Y-56730057D02*
X225571666Y-56682438D01*
X225571666Y-56682438D02*
X225476428Y-56634819D01*
X235067857Y-62559580D02*
X235115476Y-62607200D01*
X235115476Y-62607200D02*
X235258333Y-62654819D01*
X235258333Y-62654819D02*
X235353571Y-62654819D01*
X235353571Y-62654819D02*
X235496428Y-62607200D01*
X235496428Y-62607200D02*
X235591666Y-62511961D01*
X235591666Y-62511961D02*
X235639285Y-62416723D01*
X235639285Y-62416723D02*
X235686904Y-62226247D01*
X235686904Y-62226247D02*
X235686904Y-62083390D01*
X235686904Y-62083390D02*
X235639285Y-61892914D01*
X235639285Y-61892914D02*
X235591666Y-61797676D01*
X235591666Y-61797676D02*
X235496428Y-61702438D01*
X235496428Y-61702438D02*
X235353571Y-61654819D01*
X235353571Y-61654819D02*
X235258333Y-61654819D01*
X235258333Y-61654819D02*
X235115476Y-61702438D01*
X235115476Y-61702438D02*
X235067857Y-61750057D01*
X234734523Y-61654819D02*
X234115476Y-61654819D01*
X234115476Y-61654819D02*
X234448809Y-62035771D01*
X234448809Y-62035771D02*
X234305952Y-62035771D01*
X234305952Y-62035771D02*
X234210714Y-62083390D01*
X234210714Y-62083390D02*
X234163095Y-62131009D01*
X234163095Y-62131009D02*
X234115476Y-62226247D01*
X234115476Y-62226247D02*
X234115476Y-62464342D01*
X234115476Y-62464342D02*
X234163095Y-62559580D01*
X234163095Y-62559580D02*
X234210714Y-62607200D01*
X234210714Y-62607200D02*
X234305952Y-62654819D01*
X234305952Y-62654819D02*
X234591666Y-62654819D01*
X234591666Y-62654819D02*
X234686904Y-62607200D01*
X234686904Y-62607200D02*
X234734523Y-62559580D01*
X233258333Y-61654819D02*
X233448809Y-61654819D01*
X233448809Y-61654819D02*
X233544047Y-61702438D01*
X233544047Y-61702438D02*
X233591666Y-61750057D01*
X233591666Y-61750057D02*
X233686904Y-61892914D01*
X233686904Y-61892914D02*
X233734523Y-62083390D01*
X233734523Y-62083390D02*
X233734523Y-62464342D01*
X233734523Y-62464342D02*
X233686904Y-62559580D01*
X233686904Y-62559580D02*
X233639285Y-62607200D01*
X233639285Y-62607200D02*
X233544047Y-62654819D01*
X233544047Y-62654819D02*
X233353571Y-62654819D01*
X233353571Y-62654819D02*
X233258333Y-62607200D01*
X233258333Y-62607200D02*
X233210714Y-62559580D01*
X233210714Y-62559580D02*
X233163095Y-62464342D01*
X233163095Y-62464342D02*
X233163095Y-62226247D01*
X233163095Y-62226247D02*
X233210714Y-62131009D01*
X233210714Y-62131009D02*
X233258333Y-62083390D01*
X233258333Y-62083390D02*
X233353571Y-62035771D01*
X233353571Y-62035771D02*
X233544047Y-62035771D01*
X233544047Y-62035771D02*
X233639285Y-62083390D01*
X233639285Y-62083390D02*
X233686904Y-62131009D01*
X233686904Y-62131009D02*
X233734523Y-62226247D01*
X257081666Y-70089580D02*
X257129285Y-70137200D01*
X257129285Y-70137200D02*
X257272142Y-70184819D01*
X257272142Y-70184819D02*
X257367380Y-70184819D01*
X257367380Y-70184819D02*
X257510237Y-70137200D01*
X257510237Y-70137200D02*
X257605475Y-70041961D01*
X257605475Y-70041961D02*
X257653094Y-69946723D01*
X257653094Y-69946723D02*
X257700713Y-69756247D01*
X257700713Y-69756247D02*
X257700713Y-69613390D01*
X257700713Y-69613390D02*
X257653094Y-69422914D01*
X257653094Y-69422914D02*
X257605475Y-69327676D01*
X257605475Y-69327676D02*
X257510237Y-69232438D01*
X257510237Y-69232438D02*
X257367380Y-69184819D01*
X257367380Y-69184819D02*
X257272142Y-69184819D01*
X257272142Y-69184819D02*
X257129285Y-69232438D01*
X257129285Y-69232438D02*
X257081666Y-69280057D01*
X256510237Y-69613390D02*
X256605475Y-69565771D01*
X256605475Y-69565771D02*
X256653094Y-69518152D01*
X256653094Y-69518152D02*
X256700713Y-69422914D01*
X256700713Y-69422914D02*
X256700713Y-69375295D01*
X256700713Y-69375295D02*
X256653094Y-69280057D01*
X256653094Y-69280057D02*
X256605475Y-69232438D01*
X256605475Y-69232438D02*
X256510237Y-69184819D01*
X256510237Y-69184819D02*
X256319761Y-69184819D01*
X256319761Y-69184819D02*
X256224523Y-69232438D01*
X256224523Y-69232438D02*
X256176904Y-69280057D01*
X256176904Y-69280057D02*
X256129285Y-69375295D01*
X256129285Y-69375295D02*
X256129285Y-69422914D01*
X256129285Y-69422914D02*
X256176904Y-69518152D01*
X256176904Y-69518152D02*
X256224523Y-69565771D01*
X256224523Y-69565771D02*
X256319761Y-69613390D01*
X256319761Y-69613390D02*
X256510237Y-69613390D01*
X256510237Y-69613390D02*
X256605475Y-69661009D01*
X256605475Y-69661009D02*
X256653094Y-69708628D01*
X256653094Y-69708628D02*
X256700713Y-69803866D01*
X256700713Y-69803866D02*
X256700713Y-69994342D01*
X256700713Y-69994342D02*
X256653094Y-70089580D01*
X256653094Y-70089580D02*
X256605475Y-70137200D01*
X256605475Y-70137200D02*
X256510237Y-70184819D01*
X256510237Y-70184819D02*
X256319761Y-70184819D01*
X256319761Y-70184819D02*
X256224523Y-70137200D01*
X256224523Y-70137200D02*
X256176904Y-70089580D01*
X256176904Y-70089580D02*
X256129285Y-69994342D01*
X256129285Y-69994342D02*
X256129285Y-69803866D01*
X256129285Y-69803866D02*
X256176904Y-69708628D01*
X256176904Y-69708628D02*
X256224523Y-69661009D01*
X256224523Y-69661009D02*
X256319761Y-69613390D01*
X243087857Y-60144819D02*
X243421190Y-59668628D01*
X243659285Y-60144819D02*
X243659285Y-59144819D01*
X243659285Y-59144819D02*
X243278333Y-59144819D01*
X243278333Y-59144819D02*
X243183095Y-59192438D01*
X243183095Y-59192438D02*
X243135476Y-59240057D01*
X243135476Y-59240057D02*
X243087857Y-59335295D01*
X243087857Y-59335295D02*
X243087857Y-59478152D01*
X243087857Y-59478152D02*
X243135476Y-59573390D01*
X243135476Y-59573390D02*
X243183095Y-59621009D01*
X243183095Y-59621009D02*
X243278333Y-59668628D01*
X243278333Y-59668628D02*
X243659285Y-59668628D01*
X242135476Y-60144819D02*
X242706904Y-60144819D01*
X242421190Y-60144819D02*
X242421190Y-59144819D01*
X242421190Y-59144819D02*
X242516428Y-59287676D01*
X242516428Y-59287676D02*
X242611666Y-59382914D01*
X242611666Y-59382914D02*
X242706904Y-59430533D01*
X241516428Y-59144819D02*
X241421190Y-59144819D01*
X241421190Y-59144819D02*
X241325952Y-59192438D01*
X241325952Y-59192438D02*
X241278333Y-59240057D01*
X241278333Y-59240057D02*
X241230714Y-59335295D01*
X241230714Y-59335295D02*
X241183095Y-59525771D01*
X241183095Y-59525771D02*
X241183095Y-59763866D01*
X241183095Y-59763866D02*
X241230714Y-59954342D01*
X241230714Y-59954342D02*
X241278333Y-60049580D01*
X241278333Y-60049580D02*
X241325952Y-60097200D01*
X241325952Y-60097200D02*
X241421190Y-60144819D01*
X241421190Y-60144819D02*
X241516428Y-60144819D01*
X241516428Y-60144819D02*
X241611666Y-60097200D01*
X241611666Y-60097200D02*
X241659285Y-60049580D01*
X241659285Y-60049580D02*
X241706904Y-59954342D01*
X241706904Y-59954342D02*
X241754523Y-59763866D01*
X241754523Y-59763866D02*
X241754523Y-59525771D01*
X241754523Y-59525771D02*
X241706904Y-59335295D01*
X241706904Y-59335295D02*
X241659285Y-59240057D01*
X241659285Y-59240057D02*
X241611666Y-59192438D01*
X241611666Y-59192438D02*
X241516428Y-59144819D01*
X194045180Y-61762604D02*
X193235657Y-61762604D01*
X193235657Y-61762604D02*
X193140419Y-61714985D01*
X193140419Y-61714985D02*
X193092800Y-61667366D01*
X193092800Y-61667366D02*
X193045180Y-61572128D01*
X193045180Y-61572128D02*
X193045180Y-61381652D01*
X193045180Y-61381652D02*
X193092800Y-61286414D01*
X193092800Y-61286414D02*
X193140419Y-61238795D01*
X193140419Y-61238795D02*
X193235657Y-61191176D01*
X193235657Y-61191176D02*
X194045180Y-61191176D01*
X193616609Y-60572128D02*
X193664228Y-60667366D01*
X193664228Y-60667366D02*
X193711847Y-60714985D01*
X193711847Y-60714985D02*
X193807085Y-60762604D01*
X193807085Y-60762604D02*
X193854704Y-60762604D01*
X193854704Y-60762604D02*
X193949942Y-60714985D01*
X193949942Y-60714985D02*
X193997561Y-60667366D01*
X193997561Y-60667366D02*
X194045180Y-60572128D01*
X194045180Y-60572128D02*
X194045180Y-60381652D01*
X194045180Y-60381652D02*
X193997561Y-60286414D01*
X193997561Y-60286414D02*
X193949942Y-60238795D01*
X193949942Y-60238795D02*
X193854704Y-60191176D01*
X193854704Y-60191176D02*
X193807085Y-60191176D01*
X193807085Y-60191176D02*
X193711847Y-60238795D01*
X193711847Y-60238795D02*
X193664228Y-60286414D01*
X193664228Y-60286414D02*
X193616609Y-60381652D01*
X193616609Y-60381652D02*
X193616609Y-60572128D01*
X193616609Y-60572128D02*
X193568990Y-60667366D01*
X193568990Y-60667366D02*
X193521371Y-60714985D01*
X193521371Y-60714985D02*
X193426133Y-60762604D01*
X193426133Y-60762604D02*
X193235657Y-60762604D01*
X193235657Y-60762604D02*
X193140419Y-60714985D01*
X193140419Y-60714985D02*
X193092800Y-60667366D01*
X193092800Y-60667366D02*
X193045180Y-60572128D01*
X193045180Y-60572128D02*
X193045180Y-60381652D01*
X193045180Y-60381652D02*
X193092800Y-60286414D01*
X193092800Y-60286414D02*
X193140419Y-60238795D01*
X193140419Y-60238795D02*
X193235657Y-60191176D01*
X193235657Y-60191176D02*
X193426133Y-60191176D01*
X193426133Y-60191176D02*
X193521371Y-60238795D01*
X193521371Y-60238795D02*
X193568990Y-60286414D01*
X193568990Y-60286414D02*
X193616609Y-60381652D01*
X194892857Y-57429580D02*
X194940476Y-57477200D01*
X194940476Y-57477200D02*
X195083333Y-57524819D01*
X195083333Y-57524819D02*
X195178571Y-57524819D01*
X195178571Y-57524819D02*
X195321428Y-57477200D01*
X195321428Y-57477200D02*
X195416666Y-57381961D01*
X195416666Y-57381961D02*
X195464285Y-57286723D01*
X195464285Y-57286723D02*
X195511904Y-57096247D01*
X195511904Y-57096247D02*
X195511904Y-56953390D01*
X195511904Y-56953390D02*
X195464285Y-56762914D01*
X195464285Y-56762914D02*
X195416666Y-56667676D01*
X195416666Y-56667676D02*
X195321428Y-56572438D01*
X195321428Y-56572438D02*
X195178571Y-56524819D01*
X195178571Y-56524819D02*
X195083333Y-56524819D01*
X195083333Y-56524819D02*
X194940476Y-56572438D01*
X194940476Y-56572438D02*
X194892857Y-56620057D01*
X194035714Y-56858152D02*
X194035714Y-57524819D01*
X194273809Y-56477200D02*
X194511904Y-57191485D01*
X194511904Y-57191485D02*
X193892857Y-57191485D01*
X192988095Y-57524819D02*
X193559523Y-57524819D01*
X193273809Y-57524819D02*
X193273809Y-56524819D01*
X193273809Y-56524819D02*
X193369047Y-56667676D01*
X193369047Y-56667676D02*
X193464285Y-56762914D01*
X193464285Y-56762914D02*
X193559523Y-56810533D01*
X247317857Y-69589580D02*
X247365476Y-69637200D01*
X247365476Y-69637200D02*
X247508333Y-69684819D01*
X247508333Y-69684819D02*
X247603571Y-69684819D01*
X247603571Y-69684819D02*
X247746428Y-69637200D01*
X247746428Y-69637200D02*
X247841666Y-69541961D01*
X247841666Y-69541961D02*
X247889285Y-69446723D01*
X247889285Y-69446723D02*
X247936904Y-69256247D01*
X247936904Y-69256247D02*
X247936904Y-69113390D01*
X247936904Y-69113390D02*
X247889285Y-68922914D01*
X247889285Y-68922914D02*
X247841666Y-68827676D01*
X247841666Y-68827676D02*
X247746428Y-68732438D01*
X247746428Y-68732438D02*
X247603571Y-68684819D01*
X247603571Y-68684819D02*
X247508333Y-68684819D01*
X247508333Y-68684819D02*
X247365476Y-68732438D01*
X247365476Y-68732438D02*
X247317857Y-68780057D01*
X246460714Y-69018152D02*
X246460714Y-69684819D01*
X246698809Y-68637200D02*
X246936904Y-69351485D01*
X246936904Y-69351485D02*
X246317857Y-69351485D01*
X245794047Y-69113390D02*
X245889285Y-69065771D01*
X245889285Y-69065771D02*
X245936904Y-69018152D01*
X245936904Y-69018152D02*
X245984523Y-68922914D01*
X245984523Y-68922914D02*
X245984523Y-68875295D01*
X245984523Y-68875295D02*
X245936904Y-68780057D01*
X245936904Y-68780057D02*
X245889285Y-68732438D01*
X245889285Y-68732438D02*
X245794047Y-68684819D01*
X245794047Y-68684819D02*
X245603571Y-68684819D01*
X245603571Y-68684819D02*
X245508333Y-68732438D01*
X245508333Y-68732438D02*
X245460714Y-68780057D01*
X245460714Y-68780057D02*
X245413095Y-68875295D01*
X245413095Y-68875295D02*
X245413095Y-68922914D01*
X245413095Y-68922914D02*
X245460714Y-69018152D01*
X245460714Y-69018152D02*
X245508333Y-69065771D01*
X245508333Y-69065771D02*
X245603571Y-69113390D01*
X245603571Y-69113390D02*
X245794047Y-69113390D01*
X245794047Y-69113390D02*
X245889285Y-69161009D01*
X245889285Y-69161009D02*
X245936904Y-69208628D01*
X245936904Y-69208628D02*
X245984523Y-69303866D01*
X245984523Y-69303866D02*
X245984523Y-69494342D01*
X245984523Y-69494342D02*
X245936904Y-69589580D01*
X245936904Y-69589580D02*
X245889285Y-69637200D01*
X245889285Y-69637200D02*
X245794047Y-69684819D01*
X245794047Y-69684819D02*
X245603571Y-69684819D01*
X245603571Y-69684819D02*
X245508333Y-69637200D01*
X245508333Y-69637200D02*
X245460714Y-69589580D01*
X245460714Y-69589580D02*
X245413095Y-69494342D01*
X245413095Y-69494342D02*
X245413095Y-69303866D01*
X245413095Y-69303866D02*
X245460714Y-69208628D01*
X245460714Y-69208628D02*
X245508333Y-69161009D01*
X245508333Y-69161009D02*
X245603571Y-69113390D01*
X227047857Y-67579580D02*
X227095476Y-67627200D01*
X227095476Y-67627200D02*
X227238333Y-67674819D01*
X227238333Y-67674819D02*
X227333571Y-67674819D01*
X227333571Y-67674819D02*
X227476428Y-67627200D01*
X227476428Y-67627200D02*
X227571666Y-67531961D01*
X227571666Y-67531961D02*
X227619285Y-67436723D01*
X227619285Y-67436723D02*
X227666904Y-67246247D01*
X227666904Y-67246247D02*
X227666904Y-67103390D01*
X227666904Y-67103390D02*
X227619285Y-66912914D01*
X227619285Y-66912914D02*
X227571666Y-66817676D01*
X227571666Y-66817676D02*
X227476428Y-66722438D01*
X227476428Y-66722438D02*
X227333571Y-66674819D01*
X227333571Y-66674819D02*
X227238333Y-66674819D01*
X227238333Y-66674819D02*
X227095476Y-66722438D01*
X227095476Y-66722438D02*
X227047857Y-66770057D01*
X226095476Y-67674819D02*
X226666904Y-67674819D01*
X226381190Y-67674819D02*
X226381190Y-66674819D01*
X226381190Y-66674819D02*
X226476428Y-66817676D01*
X226476428Y-66817676D02*
X226571666Y-66912914D01*
X226571666Y-66912914D02*
X226666904Y-66960533D01*
X225238333Y-66674819D02*
X225428809Y-66674819D01*
X225428809Y-66674819D02*
X225524047Y-66722438D01*
X225524047Y-66722438D02*
X225571666Y-66770057D01*
X225571666Y-66770057D02*
X225666904Y-66912914D01*
X225666904Y-66912914D02*
X225714523Y-67103390D01*
X225714523Y-67103390D02*
X225714523Y-67484342D01*
X225714523Y-67484342D02*
X225666904Y-67579580D01*
X225666904Y-67579580D02*
X225619285Y-67627200D01*
X225619285Y-67627200D02*
X225524047Y-67674819D01*
X225524047Y-67674819D02*
X225333571Y-67674819D01*
X225333571Y-67674819D02*
X225238333Y-67627200D01*
X225238333Y-67627200D02*
X225190714Y-67579580D01*
X225190714Y-67579580D02*
X225143095Y-67484342D01*
X225143095Y-67484342D02*
X225143095Y-67246247D01*
X225143095Y-67246247D02*
X225190714Y-67151009D01*
X225190714Y-67151009D02*
X225238333Y-67103390D01*
X225238333Y-67103390D02*
X225333571Y-67055771D01*
X225333571Y-67055771D02*
X225524047Y-67055771D01*
X225524047Y-67055771D02*
X225619285Y-67103390D01*
X225619285Y-67103390D02*
X225666904Y-67151009D01*
X225666904Y-67151009D02*
X225714523Y-67246247D01*
X231057857Y-57539580D02*
X231105476Y-57587200D01*
X231105476Y-57587200D02*
X231248333Y-57634819D01*
X231248333Y-57634819D02*
X231343571Y-57634819D01*
X231343571Y-57634819D02*
X231486428Y-57587200D01*
X231486428Y-57587200D02*
X231581666Y-57491961D01*
X231581666Y-57491961D02*
X231629285Y-57396723D01*
X231629285Y-57396723D02*
X231676904Y-57206247D01*
X231676904Y-57206247D02*
X231676904Y-57063390D01*
X231676904Y-57063390D02*
X231629285Y-56872914D01*
X231629285Y-56872914D02*
X231581666Y-56777676D01*
X231581666Y-56777676D02*
X231486428Y-56682438D01*
X231486428Y-56682438D02*
X231343571Y-56634819D01*
X231343571Y-56634819D02*
X231248333Y-56634819D01*
X231248333Y-56634819D02*
X231105476Y-56682438D01*
X231105476Y-56682438D02*
X231057857Y-56730057D01*
X230676904Y-56730057D02*
X230629285Y-56682438D01*
X230629285Y-56682438D02*
X230534047Y-56634819D01*
X230534047Y-56634819D02*
X230295952Y-56634819D01*
X230295952Y-56634819D02*
X230200714Y-56682438D01*
X230200714Y-56682438D02*
X230153095Y-56730057D01*
X230153095Y-56730057D02*
X230105476Y-56825295D01*
X230105476Y-56825295D02*
X230105476Y-56920533D01*
X230105476Y-56920533D02*
X230153095Y-57063390D01*
X230153095Y-57063390D02*
X230724523Y-57634819D01*
X230724523Y-57634819D02*
X230105476Y-57634819D01*
X229629285Y-57634819D02*
X229438809Y-57634819D01*
X229438809Y-57634819D02*
X229343571Y-57587200D01*
X229343571Y-57587200D02*
X229295952Y-57539580D01*
X229295952Y-57539580D02*
X229200714Y-57396723D01*
X229200714Y-57396723D02*
X229153095Y-57206247D01*
X229153095Y-57206247D02*
X229153095Y-56825295D01*
X229153095Y-56825295D02*
X229200714Y-56730057D01*
X229200714Y-56730057D02*
X229248333Y-56682438D01*
X229248333Y-56682438D02*
X229343571Y-56634819D01*
X229343571Y-56634819D02*
X229534047Y-56634819D01*
X229534047Y-56634819D02*
X229629285Y-56682438D01*
X229629285Y-56682438D02*
X229676904Y-56730057D01*
X229676904Y-56730057D02*
X229724523Y-56825295D01*
X229724523Y-56825295D02*
X229724523Y-57063390D01*
X229724523Y-57063390D02*
X229676904Y-57158628D01*
X229676904Y-57158628D02*
X229629285Y-57206247D01*
X229629285Y-57206247D02*
X229534047Y-57253866D01*
X229534047Y-57253866D02*
X229343571Y-57253866D01*
X229343571Y-57253866D02*
X229248333Y-57206247D01*
X229248333Y-57206247D02*
X229200714Y-57158628D01*
X229200714Y-57158628D02*
X229153095Y-57063390D01*
X242611666Y-65164819D02*
X242944999Y-64688628D01*
X243183094Y-65164819D02*
X243183094Y-64164819D01*
X243183094Y-64164819D02*
X242802142Y-64164819D01*
X242802142Y-64164819D02*
X242706904Y-64212438D01*
X242706904Y-64212438D02*
X242659285Y-64260057D01*
X242659285Y-64260057D02*
X242611666Y-64355295D01*
X242611666Y-64355295D02*
X242611666Y-64498152D01*
X242611666Y-64498152D02*
X242659285Y-64593390D01*
X242659285Y-64593390D02*
X242706904Y-64641009D01*
X242706904Y-64641009D02*
X242802142Y-64688628D01*
X242802142Y-64688628D02*
X243183094Y-64688628D01*
X242040237Y-64593390D02*
X242135475Y-64545771D01*
X242135475Y-64545771D02*
X242183094Y-64498152D01*
X242183094Y-64498152D02*
X242230713Y-64402914D01*
X242230713Y-64402914D02*
X242230713Y-64355295D01*
X242230713Y-64355295D02*
X242183094Y-64260057D01*
X242183094Y-64260057D02*
X242135475Y-64212438D01*
X242135475Y-64212438D02*
X242040237Y-64164819D01*
X242040237Y-64164819D02*
X241849761Y-64164819D01*
X241849761Y-64164819D02*
X241754523Y-64212438D01*
X241754523Y-64212438D02*
X241706904Y-64260057D01*
X241706904Y-64260057D02*
X241659285Y-64355295D01*
X241659285Y-64355295D02*
X241659285Y-64402914D01*
X241659285Y-64402914D02*
X241706904Y-64498152D01*
X241706904Y-64498152D02*
X241754523Y-64545771D01*
X241754523Y-64545771D02*
X241849761Y-64593390D01*
X241849761Y-64593390D02*
X242040237Y-64593390D01*
X242040237Y-64593390D02*
X242135475Y-64641009D01*
X242135475Y-64641009D02*
X242183094Y-64688628D01*
X242183094Y-64688628D02*
X242230713Y-64783866D01*
X242230713Y-64783866D02*
X242230713Y-64974342D01*
X242230713Y-64974342D02*
X242183094Y-65069580D01*
X242183094Y-65069580D02*
X242135475Y-65117200D01*
X242135475Y-65117200D02*
X242040237Y-65164819D01*
X242040237Y-65164819D02*
X241849761Y-65164819D01*
X241849761Y-65164819D02*
X241754523Y-65117200D01*
X241754523Y-65117200D02*
X241706904Y-65069580D01*
X241706904Y-65069580D02*
X241659285Y-64974342D01*
X241659285Y-64974342D02*
X241659285Y-64783866D01*
X241659285Y-64783866D02*
X241706904Y-64688628D01*
X241706904Y-64688628D02*
X241754523Y-64641009D01*
X241754523Y-64641009D02*
X241849761Y-64593390D01*
X231057857Y-60049580D02*
X231105476Y-60097200D01*
X231105476Y-60097200D02*
X231248333Y-60144819D01*
X231248333Y-60144819D02*
X231343571Y-60144819D01*
X231343571Y-60144819D02*
X231486428Y-60097200D01*
X231486428Y-60097200D02*
X231581666Y-60001961D01*
X231581666Y-60001961D02*
X231629285Y-59906723D01*
X231629285Y-59906723D02*
X231676904Y-59716247D01*
X231676904Y-59716247D02*
X231676904Y-59573390D01*
X231676904Y-59573390D02*
X231629285Y-59382914D01*
X231629285Y-59382914D02*
X231581666Y-59287676D01*
X231581666Y-59287676D02*
X231486428Y-59192438D01*
X231486428Y-59192438D02*
X231343571Y-59144819D01*
X231343571Y-59144819D02*
X231248333Y-59144819D01*
X231248333Y-59144819D02*
X231105476Y-59192438D01*
X231105476Y-59192438D02*
X231057857Y-59240057D01*
X230676904Y-59240057D02*
X230629285Y-59192438D01*
X230629285Y-59192438D02*
X230534047Y-59144819D01*
X230534047Y-59144819D02*
X230295952Y-59144819D01*
X230295952Y-59144819D02*
X230200714Y-59192438D01*
X230200714Y-59192438D02*
X230153095Y-59240057D01*
X230153095Y-59240057D02*
X230105476Y-59335295D01*
X230105476Y-59335295D02*
X230105476Y-59430533D01*
X230105476Y-59430533D02*
X230153095Y-59573390D01*
X230153095Y-59573390D02*
X230724523Y-60144819D01*
X230724523Y-60144819D02*
X230105476Y-60144819D01*
X229534047Y-59573390D02*
X229629285Y-59525771D01*
X229629285Y-59525771D02*
X229676904Y-59478152D01*
X229676904Y-59478152D02*
X229724523Y-59382914D01*
X229724523Y-59382914D02*
X229724523Y-59335295D01*
X229724523Y-59335295D02*
X229676904Y-59240057D01*
X229676904Y-59240057D02*
X229629285Y-59192438D01*
X229629285Y-59192438D02*
X229534047Y-59144819D01*
X229534047Y-59144819D02*
X229343571Y-59144819D01*
X229343571Y-59144819D02*
X229248333Y-59192438D01*
X229248333Y-59192438D02*
X229200714Y-59240057D01*
X229200714Y-59240057D02*
X229153095Y-59335295D01*
X229153095Y-59335295D02*
X229153095Y-59382914D01*
X229153095Y-59382914D02*
X229200714Y-59478152D01*
X229200714Y-59478152D02*
X229248333Y-59525771D01*
X229248333Y-59525771D02*
X229343571Y-59573390D01*
X229343571Y-59573390D02*
X229534047Y-59573390D01*
X229534047Y-59573390D02*
X229629285Y-59621009D01*
X229629285Y-59621009D02*
X229676904Y-59668628D01*
X229676904Y-59668628D02*
X229724523Y-59763866D01*
X229724523Y-59763866D02*
X229724523Y-59954342D01*
X229724523Y-59954342D02*
X229676904Y-60049580D01*
X229676904Y-60049580D02*
X229629285Y-60097200D01*
X229629285Y-60097200D02*
X229534047Y-60144819D01*
X229534047Y-60144819D02*
X229343571Y-60144819D01*
X229343571Y-60144819D02*
X229248333Y-60097200D01*
X229248333Y-60097200D02*
X229200714Y-60049580D01*
X229200714Y-60049580D02*
X229153095Y-59954342D01*
X229153095Y-59954342D02*
X229153095Y-59763866D01*
X229153095Y-59763866D02*
X229200714Y-59668628D01*
X229200714Y-59668628D02*
X229248333Y-59621009D01*
X229248333Y-59621009D02*
X229343571Y-59573390D01*
X242611666Y-72694819D02*
X242944999Y-72218628D01*
X243183094Y-72694819D02*
X243183094Y-71694819D01*
X243183094Y-71694819D02*
X242802142Y-71694819D01*
X242802142Y-71694819D02*
X242706904Y-71742438D01*
X242706904Y-71742438D02*
X242659285Y-71790057D01*
X242659285Y-71790057D02*
X242611666Y-71885295D01*
X242611666Y-71885295D02*
X242611666Y-72028152D01*
X242611666Y-72028152D02*
X242659285Y-72123390D01*
X242659285Y-72123390D02*
X242706904Y-72171009D01*
X242706904Y-72171009D02*
X242802142Y-72218628D01*
X242802142Y-72218628D02*
X243183094Y-72218628D01*
X242278332Y-71694819D02*
X241659285Y-71694819D01*
X241659285Y-71694819D02*
X241992618Y-72075771D01*
X241992618Y-72075771D02*
X241849761Y-72075771D01*
X241849761Y-72075771D02*
X241754523Y-72123390D01*
X241754523Y-72123390D02*
X241706904Y-72171009D01*
X241706904Y-72171009D02*
X241659285Y-72266247D01*
X241659285Y-72266247D02*
X241659285Y-72504342D01*
X241659285Y-72504342D02*
X241706904Y-72599580D01*
X241706904Y-72599580D02*
X241754523Y-72647200D01*
X241754523Y-72647200D02*
X241849761Y-72694819D01*
X241849761Y-72694819D02*
X242135475Y-72694819D01*
X242135475Y-72694819D02*
X242230713Y-72647200D01*
X242230713Y-72647200D02*
X242278332Y-72599580D01*
X257557857Y-60049580D02*
X257605476Y-60097200D01*
X257605476Y-60097200D02*
X257748333Y-60144819D01*
X257748333Y-60144819D02*
X257843571Y-60144819D01*
X257843571Y-60144819D02*
X257986428Y-60097200D01*
X257986428Y-60097200D02*
X258081666Y-60001961D01*
X258081666Y-60001961D02*
X258129285Y-59906723D01*
X258129285Y-59906723D02*
X258176904Y-59716247D01*
X258176904Y-59716247D02*
X258176904Y-59573390D01*
X258176904Y-59573390D02*
X258129285Y-59382914D01*
X258129285Y-59382914D02*
X258081666Y-59287676D01*
X258081666Y-59287676D02*
X257986428Y-59192438D01*
X257986428Y-59192438D02*
X257843571Y-59144819D01*
X257843571Y-59144819D02*
X257748333Y-59144819D01*
X257748333Y-59144819D02*
X257605476Y-59192438D01*
X257605476Y-59192438D02*
X257557857Y-59240057D01*
X256605476Y-60144819D02*
X257176904Y-60144819D01*
X256891190Y-60144819D02*
X256891190Y-59144819D01*
X256891190Y-59144819D02*
X256986428Y-59287676D01*
X256986428Y-59287676D02*
X257081666Y-59382914D01*
X257081666Y-59382914D02*
X257176904Y-59430533D01*
X256224523Y-59240057D02*
X256176904Y-59192438D01*
X256176904Y-59192438D02*
X256081666Y-59144819D01*
X256081666Y-59144819D02*
X255843571Y-59144819D01*
X255843571Y-59144819D02*
X255748333Y-59192438D01*
X255748333Y-59192438D02*
X255700714Y-59240057D01*
X255700714Y-59240057D02*
X255653095Y-59335295D01*
X255653095Y-59335295D02*
X255653095Y-59430533D01*
X255653095Y-59430533D02*
X255700714Y-59573390D01*
X255700714Y-59573390D02*
X256272142Y-60144819D01*
X256272142Y-60144819D02*
X255653095Y-60144819D01*
X238601666Y-55124819D02*
X238934999Y-54648628D01*
X239173094Y-55124819D02*
X239173094Y-54124819D01*
X239173094Y-54124819D02*
X238792142Y-54124819D01*
X238792142Y-54124819D02*
X238696904Y-54172438D01*
X238696904Y-54172438D02*
X238649285Y-54220057D01*
X238649285Y-54220057D02*
X238601666Y-54315295D01*
X238601666Y-54315295D02*
X238601666Y-54458152D01*
X238601666Y-54458152D02*
X238649285Y-54553390D01*
X238649285Y-54553390D02*
X238696904Y-54601009D01*
X238696904Y-54601009D02*
X238792142Y-54648628D01*
X238792142Y-54648628D02*
X239173094Y-54648628D01*
X237649285Y-55124819D02*
X238220713Y-55124819D01*
X237934999Y-55124819D02*
X237934999Y-54124819D01*
X237934999Y-54124819D02*
X238030237Y-54267676D01*
X238030237Y-54267676D02*
X238125475Y-54362914D01*
X238125475Y-54362914D02*
X238220713Y-54410533D01*
X257557857Y-65069580D02*
X257605476Y-65117200D01*
X257605476Y-65117200D02*
X257748333Y-65164819D01*
X257748333Y-65164819D02*
X257843571Y-65164819D01*
X257843571Y-65164819D02*
X257986428Y-65117200D01*
X257986428Y-65117200D02*
X258081666Y-65021961D01*
X258081666Y-65021961D02*
X258129285Y-64926723D01*
X258129285Y-64926723D02*
X258176904Y-64736247D01*
X258176904Y-64736247D02*
X258176904Y-64593390D01*
X258176904Y-64593390D02*
X258129285Y-64402914D01*
X258129285Y-64402914D02*
X258081666Y-64307676D01*
X258081666Y-64307676D02*
X257986428Y-64212438D01*
X257986428Y-64212438D02*
X257843571Y-64164819D01*
X257843571Y-64164819D02*
X257748333Y-64164819D01*
X257748333Y-64164819D02*
X257605476Y-64212438D01*
X257605476Y-64212438D02*
X257557857Y-64260057D01*
X256605476Y-65164819D02*
X257176904Y-65164819D01*
X256891190Y-65164819D02*
X256891190Y-64164819D01*
X256891190Y-64164819D02*
X256986428Y-64307676D01*
X256986428Y-64307676D02*
X257081666Y-64402914D01*
X257081666Y-64402914D02*
X257176904Y-64450533D01*
X255986428Y-64164819D02*
X255891190Y-64164819D01*
X255891190Y-64164819D02*
X255795952Y-64212438D01*
X255795952Y-64212438D02*
X255748333Y-64260057D01*
X255748333Y-64260057D02*
X255700714Y-64355295D01*
X255700714Y-64355295D02*
X255653095Y-64545771D01*
X255653095Y-64545771D02*
X255653095Y-64783866D01*
X255653095Y-64783866D02*
X255700714Y-64974342D01*
X255700714Y-64974342D02*
X255748333Y-65069580D01*
X255748333Y-65069580D02*
X255795952Y-65117200D01*
X255795952Y-65117200D02*
X255891190Y-65164819D01*
X255891190Y-65164819D02*
X255986428Y-65164819D01*
X255986428Y-65164819D02*
X256081666Y-65117200D01*
X256081666Y-65117200D02*
X256129285Y-65069580D01*
X256129285Y-65069580D02*
X256176904Y-64974342D01*
X256176904Y-64974342D02*
X256224523Y-64783866D01*
X256224523Y-64783866D02*
X256224523Y-64545771D01*
X256224523Y-64545771D02*
X256176904Y-64355295D01*
X256176904Y-64355295D02*
X256129285Y-64260057D01*
X256129285Y-64260057D02*
X256081666Y-64212438D01*
X256081666Y-64212438D02*
X255986428Y-64164819D01*
X180747072Y-71029968D02*
X180747072Y-71745345D01*
X180747072Y-71745345D02*
X180794763Y-71888421D01*
X180794763Y-71888421D02*
X180890147Y-71983805D01*
X180890147Y-71983805D02*
X181033222Y-72031496D01*
X181033222Y-72031496D02*
X181128606Y-72031496D01*
X180317845Y-71125352D02*
X180270153Y-71077660D01*
X180270153Y-71077660D02*
X180174770Y-71029968D01*
X180174770Y-71029968D02*
X179936311Y-71029968D01*
X179936311Y-71029968D02*
X179840927Y-71077660D01*
X179840927Y-71077660D02*
X179793235Y-71125352D01*
X179793235Y-71125352D02*
X179745544Y-71220736D01*
X179745544Y-71220736D02*
X179745544Y-71316119D01*
X179745544Y-71316119D02*
X179793235Y-71459195D01*
X179793235Y-71459195D02*
X180365537Y-72031496D01*
X180365537Y-72031496D02*
X179745544Y-72031496D01*
D11*
%TO.C,U7*%
X194627700Y-67713703D02*
X194627700Y-67287697D01*
X195872300Y-67287697D02*
X195872300Y-67713703D01*
D12*
%TO.C,C18*%
X226264420Y-61280000D02*
X226545580Y-61280000D01*
X226264420Y-60260000D02*
X226545580Y-60260000D01*
%TO.C,C33*%
X234284420Y-68810000D02*
X234565580Y-68810000D01*
X234284420Y-67790000D02*
X234565580Y-67790000D01*
%TO.C,C3*%
X252764420Y-66300000D02*
X253045580Y-66300000D01*
X252764420Y-65280000D02*
X253045580Y-65280000D01*
%TO.C,L1*%
X238272221Y-56260000D02*
X238597779Y-56260000D01*
X238272221Y-55240000D02*
X238597779Y-55240000D01*
%TO.C,C21*%
X226264420Y-53750000D02*
X226545580Y-53750000D01*
X226264420Y-52730000D02*
X226545580Y-52730000D01*
%TO.C,C44*%
X238294420Y-63790000D02*
X238575580Y-63790000D01*
X238294420Y-62770000D02*
X238575580Y-62770000D01*
%TO.C,C23*%
X230274420Y-71320000D02*
X230555580Y-71320000D01*
X230274420Y-70300000D02*
X230555580Y-70300000D01*
%TO.C,C46*%
X238294420Y-58770000D02*
X238575580Y-58770000D01*
X238294420Y-57750000D02*
X238575580Y-57750000D01*
%TO.C,C11*%
X256774420Y-61280000D02*
X257055580Y-61280000D01*
X256774420Y-60260000D02*
X257055580Y-60260000D01*
%TO.C,C32*%
X234284420Y-71320000D02*
X234565580Y-71320000D01*
X234284420Y-70300000D02*
X234565580Y-70300000D01*
%TO.C,C2*%
X252764420Y-68810000D02*
X253045580Y-68810000D01*
X252764420Y-67790000D02*
X253045580Y-67790000D01*
%TO.C,C40*%
X179490000Y-82609420D02*
X179490000Y-82890580D01*
X180510000Y-82609420D02*
X180510000Y-82890580D01*
%TO.C,C26*%
X230274420Y-63790000D02*
X230555580Y-63790000D01*
X230274420Y-62770000D02*
X230555580Y-62770000D01*
%TO.C,C27*%
X230274420Y-61280000D02*
X230555580Y-61280000D01*
X230274420Y-60260000D02*
X230555580Y-60260000D01*
%TO.C,C24*%
X230274420Y-68810000D02*
X230555580Y-68810000D01*
X230274420Y-67790000D02*
X230555580Y-67790000D01*
%TO.C,C14*%
X226264420Y-71320000D02*
X226545580Y-71320000D01*
X226264420Y-70300000D02*
X226545580Y-70300000D01*
%TO.C,C7*%
X256774420Y-71320000D02*
X257055580Y-71320000D01*
X256774420Y-70300000D02*
X257055580Y-70300000D01*
%TO.C,R2*%
X238197742Y-51252500D02*
X238672258Y-51252500D01*
X238197742Y-50207500D02*
X238672258Y-50207500D01*
%TO.C,C19*%
X189010000Y-71640580D02*
X189010000Y-71359420D01*
X187990000Y-71640580D02*
X187990000Y-71359420D01*
%TO.C,C37*%
X234284420Y-58770000D02*
X234565580Y-58770000D01*
X234284420Y-57750000D02*
X234565580Y-57750000D01*
%TO.C,C45*%
X238294420Y-61280000D02*
X238575580Y-61280000D01*
X238294420Y-60260000D02*
X238575580Y-60260000D01*
%TO.C,R7*%
X242207742Y-66312500D02*
X242682258Y-66312500D01*
X242207742Y-65267500D02*
X242682258Y-65267500D01*
%TO.C,R4*%
X242207742Y-68822500D02*
X242682258Y-68822500D01*
X242207742Y-67777500D02*
X242682258Y-67777500D01*
%TO.C,C31*%
X230274420Y-51240000D02*
X230555580Y-51240000D01*
X230274420Y-50220000D02*
X230555580Y-50220000D01*
%TO.C,C15*%
X226264420Y-68810000D02*
X226545580Y-68810000D01*
X226264420Y-67790000D02*
X226545580Y-67790000D01*
%TO.C,R6*%
X260687742Y-66312500D02*
X261162258Y-66312500D01*
X260687742Y-65267500D02*
X261162258Y-65267500D01*
%TO.C,R5*%
X260687742Y-68822500D02*
X261162258Y-68822500D01*
X260687742Y-67777500D02*
X261162258Y-67777500D01*
%TO.C,C17*%
X226264420Y-63790000D02*
X226545580Y-63790000D01*
X226264420Y-62770000D02*
X226545580Y-62770000D01*
%TO.C,C47*%
X246413748Y-71295000D02*
X246936252Y-71295000D01*
X246413748Y-69825000D02*
X246936252Y-69825000D01*
%TO.C,C42*%
X166010000Y-63140580D02*
X166010000Y-62859420D01*
X164990000Y-63140580D02*
X164990000Y-62859420D01*
%TO.C,C38*%
X234284420Y-56260000D02*
X234565580Y-56260000D01*
X234284420Y-55240000D02*
X234565580Y-55240000D01*
%TO.C,C43*%
X238294420Y-66300000D02*
X238575580Y-66300000D01*
X238294420Y-65280000D02*
X238575580Y-65280000D01*
%TO.C,C9*%
X256774420Y-66300000D02*
X257055580Y-66300000D01*
X256774420Y-65280000D02*
X257055580Y-65280000D01*
%TO.C,C25*%
X230274420Y-66300000D02*
X230555580Y-66300000D01*
X230274420Y-65280000D02*
X230555580Y-65280000D01*
%TO.C,C13*%
X260784420Y-71320000D02*
X261065580Y-71320000D01*
X260784420Y-70300000D02*
X261065580Y-70300000D01*
%TO.C,C39*%
X189109420Y-69760000D02*
X189390580Y-69760000D01*
X189109420Y-68740000D02*
X189390580Y-68740000D01*
%TO.C,R9*%
X242207742Y-61292500D02*
X242682258Y-61292500D01*
X242207742Y-60247500D02*
X242682258Y-60247500D01*
%TO.C,C34*%
X234284420Y-66300000D02*
X234565580Y-66300000D01*
X234284420Y-65280000D02*
X234565580Y-65280000D01*
%TO.C,C5*%
X252764420Y-61280000D02*
X253045580Y-61280000D01*
X252764420Y-60260000D02*
X253045580Y-60260000D01*
%TO.C,C4*%
X252764420Y-63790000D02*
X253045580Y-63790000D01*
X252764420Y-62770000D02*
X253045580Y-62770000D01*
%TO.C,C35*%
X234284420Y-63790000D02*
X234565580Y-63790000D01*
X234284420Y-62770000D02*
X234565580Y-62770000D01*
%TO.C,C1*%
X252764420Y-71320000D02*
X253045580Y-71320000D01*
X252764420Y-70300000D02*
X253045580Y-70300000D01*
%TO.C,C22*%
X182109420Y-87760000D02*
X182390580Y-87760000D01*
X182109420Y-86740000D02*
X182390580Y-86740000D01*
%TO.C,C6*%
X252764420Y-58770000D02*
X253045580Y-58770000D01*
X252764420Y-57750000D02*
X253045580Y-57750000D01*
%TO.C,C20*%
X226264420Y-56260000D02*
X226545580Y-56260000D01*
X226264420Y-55240000D02*
X226545580Y-55240000D01*
%TO.C,C36*%
X234284420Y-61280000D02*
X234565580Y-61280000D01*
X234284420Y-60260000D02*
X234565580Y-60260000D01*
%TO.C,C8*%
X256774420Y-68810000D02*
X257055580Y-68810000D01*
X256774420Y-67790000D02*
X257055580Y-67790000D01*
%TO.C,R10*%
X242207742Y-58782500D02*
X242682258Y-58782500D01*
X242207742Y-57737500D02*
X242682258Y-57737500D01*
D11*
%TO.C,U8*%
X192877700Y-61213703D02*
X192877700Y-60787697D01*
X194122300Y-60787697D02*
X194122300Y-61213703D01*
D12*
%TO.C,C41*%
X194390580Y-57990000D02*
X194109420Y-57990000D01*
X194390580Y-59010000D02*
X194109420Y-59010000D01*
%TO.C,C48*%
X246413748Y-68285000D02*
X246936252Y-68285000D01*
X246413748Y-66815000D02*
X246936252Y-66815000D01*
%TO.C,C16*%
X226264420Y-66300000D02*
X226545580Y-66300000D01*
X226264420Y-65280000D02*
X226545580Y-65280000D01*
%TO.C,C29*%
X230274420Y-56260000D02*
X230555580Y-56260000D01*
X230274420Y-55240000D02*
X230555580Y-55240000D01*
%TO.C,R8*%
X242207742Y-63802500D02*
X242682258Y-63802500D01*
X242207742Y-62757500D02*
X242682258Y-62757500D01*
%TO.C,C28*%
X230274420Y-58770000D02*
X230555580Y-58770000D01*
X230274420Y-57750000D02*
X230555580Y-57750000D01*
%TO.C,R3*%
X242207742Y-71332500D02*
X242682258Y-71332500D01*
X242207742Y-70287500D02*
X242682258Y-70287500D01*
%TO.C,C12*%
X256774420Y-58770000D02*
X257055580Y-58770000D01*
X256774420Y-57750000D02*
X257055580Y-57750000D01*
%TO.C,R1*%
X238197742Y-53762500D02*
X238672258Y-53762500D01*
X238197742Y-52717500D02*
X238672258Y-52717500D01*
%TO.C,C10*%
X256774420Y-63790000D02*
X257055580Y-63790000D01*
X256774420Y-62770000D02*
X257055580Y-62770000D01*
D13*
%TO.C,J2*%
X177900000Y-53700000D02*
X177900000Y-55300000D01*
X177900000Y-63220000D02*
X177900000Y-66700000D01*
X177900000Y-66700000D02*
X178280000Y-66700000D01*
X178820000Y-50550000D02*
X190530000Y-50550000D01*
X189970000Y-66700000D02*
X191750000Y-66700000D01*
X191750000Y-66700000D02*
X191750000Y-52770000D01*
D14*
X187700000Y-68200000D02*
G75*
G02*
X187500000Y-68200000I-100000J0D01*
G01*
X187500000Y-68200000D02*
G75*
G02*
X187700000Y-68200000I100000J0D01*
G01*
%TD*%
M02*
