%TF.GenerationSoftware,KiCad,Pcbnew,9.0.1-9.0.1-0~ubuntu24.04.1*%
%TF.CreationDate,2025-06-01T18:05:04-05:00*%
%TF.ProjectId,FC,46432e6b-6963-4616-945f-706362585858,rev?*%
%TF.SameCoordinates,Original*%
%TF.FileFunction,Soldermask,Bot*%
%TF.FilePolarity,Negative*%
%FSLAX46Y46*%
G04 Gerber Fmt 4.6, Leading zero omitted, Abs format (unit mm)*
G04 Created by KiCad (PCBNEW 9.0.1-9.0.1-0~ubuntu24.04.1) date 2025-06-01 18:05:04*
%MOMM*%
%LPD*%
G01*
G04 APERTURE LIST*
G04 Aperture macros list*
%AMRoundRect*
0 Rectangle with rounded corners*
0 $1 Rounding radius*
0 $2 $3 $4 $5 $6 $7 $8 $9 X,Y pos of 4 corners*
0 Add a 4 corners polygon primitive as box body*
4,1,4,$2,$3,$4,$5,$6,$7,$8,$9,$2,$3,0*
0 Add four circle primitives for the rounded corners*
1,1,$1+$1,$2,$3*
1,1,$1+$1,$4,$5*
1,1,$1+$1,$6,$7*
1,1,$1+$1,$8,$9*
0 Add four rect primitives between the rounded corners*
20,1,$1+$1,$2,$3,$4,$5,0*
20,1,$1+$1,$4,$5,$6,$7,0*
20,1,$1+$1,$6,$7,$8,$9,0*
20,1,$1+$1,$8,$9,$2,$3,0*%
G04 Aperture macros list end*
%ADD10R,0.685800X0.711200*%
%ADD11RoundRect,0.225000X-0.225000X-0.250000X0.225000X-0.250000X0.225000X0.250000X-0.225000X0.250000X0*%
%ADD12RoundRect,0.218750X-0.218750X-0.256250X0.218750X-0.256250X0.218750X0.256250X-0.218750X0.256250X0*%
%ADD13RoundRect,0.225000X-0.250000X0.225000X-0.250000X-0.225000X0.250000X-0.225000X0.250000X0.225000X0*%
%ADD14RoundRect,0.200000X-0.200000X-0.275000X0.200000X-0.275000X0.200000X0.275000X-0.200000X0.275000X0*%
%ADD15RoundRect,0.225000X0.250000X-0.225000X0.250000X0.225000X-0.250000X0.225000X-0.250000X-0.225000X0*%
%ADD16C,0.650000*%
%ADD17O,2.100000X1.000000*%
%ADD18O,1.800000X1.000000*%
%ADD19RoundRect,0.250000X-0.250000X-0.475000X0.250000X-0.475000X0.250000X0.475000X-0.250000X0.475000X0*%
%ADD20RoundRect,0.225000X0.225000X0.250000X-0.225000X0.250000X-0.225000X-0.250000X0.225000X-0.250000X0*%
%ADD21C,0.700000*%
%ADD22O,1.500000X0.800000*%
%ADD23RoundRect,0.102000X-0.350000X-0.600000X0.350000X-0.600000X0.350000X0.600000X-0.350000X0.600000X0*%
%ADD24RoundRect,0.102000X-0.500000X-0.600000X0.500000X-0.600000X0.500000X0.600000X-0.500000X0.600000X0*%
%ADD25RoundRect,0.102000X-0.500000X-1.400000X0.500000X-1.400000X0.500000X1.400000X-0.500000X1.400000X0*%
%ADD26RoundRect,0.102000X-0.650000X-0.950000X0.650000X-0.950000X0.650000X0.950000X-0.650000X0.950000X0*%
%ADD27RoundRect,0.102000X-0.500000X-0.400000X0.500000X-0.400000X0.500000X0.400000X-0.500000X0.400000X0*%
G04 APERTURE END LIST*
D10*
%TO.C,U7*%
X195250000Y-68250000D03*
X195250000Y-66751400D03*
%TD*%
D11*
%TO.C,C18*%
X225630000Y-60770000D03*
X227180000Y-60770000D03*
%TD*%
%TO.C,C33*%
X233650000Y-68300000D03*
X235200000Y-68300000D03*
%TD*%
%TO.C,C3*%
X252130000Y-65790000D03*
X253680000Y-65790000D03*
%TD*%
D12*
%TO.C,L1*%
X237647500Y-55750000D03*
X239222500Y-55750000D03*
%TD*%
D11*
%TO.C,C21*%
X225630000Y-53240000D03*
X227180000Y-53240000D03*
%TD*%
%TO.C,C44*%
X237660000Y-63280000D03*
X239210000Y-63280000D03*
%TD*%
%TO.C,C23*%
X229640000Y-70810000D03*
X231190000Y-70810000D03*
%TD*%
%TO.C,C46*%
X237660000Y-58260000D03*
X239210000Y-58260000D03*
%TD*%
%TO.C,C11*%
X256140000Y-60770000D03*
X257690000Y-60770000D03*
%TD*%
%TO.C,C32*%
X233650000Y-70810000D03*
X235200000Y-70810000D03*
%TD*%
%TO.C,C2*%
X252130000Y-68300000D03*
X253680000Y-68300000D03*
%TD*%
D13*
%TO.C,C40*%
X180000000Y-81975000D03*
X180000000Y-83525000D03*
%TD*%
D11*
%TO.C,C26*%
X229640000Y-63280000D03*
X231190000Y-63280000D03*
%TD*%
%TO.C,C27*%
X229640000Y-60770000D03*
X231190000Y-60770000D03*
%TD*%
%TO.C,C24*%
X229640000Y-68300000D03*
X231190000Y-68300000D03*
%TD*%
%TO.C,C14*%
X225630000Y-70810000D03*
X227180000Y-70810000D03*
%TD*%
%TO.C,C7*%
X256140000Y-70810000D03*
X257690000Y-70810000D03*
%TD*%
D14*
%TO.C,R2*%
X237610000Y-50730000D03*
X239260000Y-50730000D03*
%TD*%
D15*
%TO.C,C19*%
X188500000Y-72275000D03*
X188500000Y-70725000D03*
%TD*%
D11*
%TO.C,C37*%
X233650000Y-58260000D03*
X235200000Y-58260000D03*
%TD*%
%TO.C,C45*%
X237660000Y-60770000D03*
X239210000Y-60770000D03*
%TD*%
D16*
%TO.C,J1*%
X193645000Y-77640000D03*
X193645000Y-71860000D03*
D17*
X193145000Y-79070000D03*
D18*
X197325000Y-79070000D03*
D17*
X193145000Y-70430000D03*
D18*
X197325000Y-70430000D03*
%TD*%
D14*
%TO.C,R7*%
X241620000Y-65790000D03*
X243270000Y-65790000D03*
%TD*%
%TO.C,R4*%
X241620000Y-68300000D03*
X243270000Y-68300000D03*
%TD*%
D11*
%TO.C,C31*%
X229640000Y-50730000D03*
X231190000Y-50730000D03*
%TD*%
%TO.C,C15*%
X225630000Y-68300000D03*
X227180000Y-68300000D03*
%TD*%
D14*
%TO.C,R6*%
X260100000Y-65790000D03*
X261750000Y-65790000D03*
%TD*%
%TO.C,R5*%
X260100000Y-68300000D03*
X261750000Y-68300000D03*
%TD*%
D11*
%TO.C,C17*%
X225630000Y-63280000D03*
X227180000Y-63280000D03*
%TD*%
D19*
%TO.C,C47*%
X245725000Y-70560000D03*
X247625000Y-70560000D03*
%TD*%
D15*
%TO.C,C42*%
X165500000Y-63775000D03*
X165500000Y-62225000D03*
%TD*%
D11*
%TO.C,C38*%
X233650000Y-55750000D03*
X235200000Y-55750000D03*
%TD*%
%TO.C,C43*%
X237660000Y-65790000D03*
X239210000Y-65790000D03*
%TD*%
%TO.C,C9*%
X256140000Y-65790000D03*
X257690000Y-65790000D03*
%TD*%
%TO.C,C25*%
X229640000Y-65790000D03*
X231190000Y-65790000D03*
%TD*%
%TO.C,C13*%
X260150000Y-70810000D03*
X261700000Y-70810000D03*
%TD*%
%TO.C,C39*%
X188475000Y-69250000D03*
X190025000Y-69250000D03*
%TD*%
D14*
%TO.C,R9*%
X241620000Y-60770000D03*
X243270000Y-60770000D03*
%TD*%
D11*
%TO.C,C34*%
X233650000Y-65790000D03*
X235200000Y-65790000D03*
%TD*%
%TO.C,C5*%
X252130000Y-60770000D03*
X253680000Y-60770000D03*
%TD*%
%TO.C,C4*%
X252130000Y-63280000D03*
X253680000Y-63280000D03*
%TD*%
%TO.C,C35*%
X233650000Y-63280000D03*
X235200000Y-63280000D03*
%TD*%
%TO.C,C1*%
X252130000Y-70810000D03*
X253680000Y-70810000D03*
%TD*%
%TO.C,C22*%
X181475000Y-87250000D03*
X183025000Y-87250000D03*
%TD*%
%TO.C,C6*%
X252130000Y-58260000D03*
X253680000Y-58260000D03*
%TD*%
%TO.C,C20*%
X225630000Y-55750000D03*
X227180000Y-55750000D03*
%TD*%
%TO.C,C36*%
X233650000Y-60770000D03*
X235200000Y-60770000D03*
%TD*%
%TO.C,C8*%
X256140000Y-68300000D03*
X257690000Y-68300000D03*
%TD*%
D14*
%TO.C,R10*%
X241620000Y-58260000D03*
X243270000Y-58260000D03*
%TD*%
D10*
%TO.C,U8*%
X193500000Y-61750000D03*
X193500000Y-60251400D03*
%TD*%
D20*
%TO.C,C41*%
X195025000Y-58500000D03*
X193475000Y-58500000D03*
%TD*%
D19*
%TO.C,C48*%
X245725000Y-67550000D03*
X247625000Y-67550000D03*
%TD*%
D11*
%TO.C,C16*%
X225630000Y-65790000D03*
X227180000Y-65790000D03*
%TD*%
%TO.C,C29*%
X229640000Y-55750000D03*
X231190000Y-55750000D03*
%TD*%
D14*
%TO.C,R8*%
X241620000Y-63280000D03*
X243270000Y-63280000D03*
%TD*%
D11*
%TO.C,C28*%
X229640000Y-58260000D03*
X231190000Y-58260000D03*
%TD*%
D21*
%TO.C,J34*%
X197213500Y-65540000D03*
X197213500Y-64270000D03*
X197213500Y-63000000D03*
X197213500Y-61730000D03*
X197213500Y-60460000D03*
D22*
X198368500Y-64905000D03*
X198368500Y-63635000D03*
X198368500Y-62365000D03*
X198368500Y-61095000D03*
%TD*%
D14*
%TO.C,R3*%
X241620000Y-70810000D03*
X243270000Y-70810000D03*
%TD*%
D11*
%TO.C,C12*%
X256140000Y-58260000D03*
X257690000Y-58260000D03*
%TD*%
D14*
%TO.C,R1*%
X237610000Y-53240000D03*
X239260000Y-53240000D03*
%TD*%
D11*
%TO.C,C10*%
X256140000Y-63280000D03*
X257690000Y-63280000D03*
%TD*%
D23*
%TO.C,J2*%
X187600000Y-66600000D03*
X186500000Y-66600000D03*
X185400000Y-66600000D03*
X184300000Y-66600000D03*
X183200000Y-66600000D03*
X182100000Y-66600000D03*
X181000000Y-66600000D03*
X179900000Y-66600000D03*
D24*
X178000000Y-62300000D03*
D25*
X178000000Y-51950000D03*
D26*
X191500000Y-51500000D03*
D24*
X189150000Y-66600000D03*
D27*
X178000000Y-56100000D03*
D23*
X178950000Y-66600000D03*
%TD*%
M02*
