%TF.GenerationSoftware,KiCad,Pcbnew,9.0.1-9.0.1-0~ubuntu24.04.1*%
%TF.CreationDate,2025-06-01T23:52:21-05:00*%
%TF.ProjectId,FC,46432e6b-6963-4616-945f-706362585858,rev?*%
%TF.SameCoordinates,Original*%
%TF.FileFunction,Copper,L1,Top*%
%TF.FilePolarity,Positive*%
%FSLAX46Y46*%
G04 Gerber Fmt 4.6, Leading zero omitted, Abs format (unit mm)*
G04 Created by KiCad (PCBNEW 9.0.1-9.0.1-0~ubuntu24.04.1) date 2025-06-01 23:52:21*
%MOMM*%
%LPD*%
G01*
G04 APERTURE LIST*
G04 Aperture macros list*
%AMRoundRect*
0 Rectangle with rounded corners*
0 $1 Rounding radius*
0 $2 $3 $4 $5 $6 $7 $8 $9 X,Y pos of 4 corners*
0 Add a 4 corners polygon primitive as box body*
4,1,4,$2,$3,$4,$5,$6,$7,$8,$9,$2,$3,0*
0 Add four circle primitives for the rounded corners*
1,1,$1+$1,$2,$3*
1,1,$1+$1,$4,$5*
1,1,$1+$1,$6,$7*
1,1,$1+$1,$8,$9*
0 Add four rect primitives between the rounded corners*
20,1,$1+$1,$2,$3,$4,$5,0*
20,1,$1+$1,$4,$5,$6,$7,0*
20,1,$1+$1,$6,$7,$8,$9,0*
20,1,$1+$1,$8,$9,$2,$3,0*%
%AMRotRect*
0 Rectangle, with rotation*
0 The origin of the aperture is its center*
0 $1 length*
0 $2 width*
0 $3 Rotation angle, in degrees counterclockwise*
0 Add horizontal line*
21,1,$1,$2,0,0,$3*%
G04 Aperture macros list end*
%TA.AperFunction,HeatsinkPad*%
%ADD10O,1.800000X1.000000*%
%TD*%
%TA.AperFunction,HeatsinkPad*%
%ADD11O,2.100000X1.000000*%
%TD*%
%TA.AperFunction,SMDPad,CuDef*%
%ADD12RoundRect,0.075000X0.500000X-0.075000X0.500000X0.075000X-0.500000X0.075000X-0.500000X-0.075000X0*%
%TD*%
%TA.AperFunction,SMDPad,CuDef*%
%ADD13RoundRect,0.150000X0.425000X-0.150000X0.425000X0.150000X-0.425000X0.150000X-0.425000X-0.150000X0*%
%TD*%
%TA.AperFunction,SMDPad,CuDef*%
%ADD14R,0.254000X0.431800*%
%TD*%
%TA.AperFunction,SMDPad,CuDef*%
%ADD15R,0.431800X0.254000*%
%TD*%
%TA.AperFunction,SMDPad,CuDef*%
%ADD16RoundRect,0.350000X-0.350000X-0.650000X0.350000X-0.650000X0.350000X0.650000X-0.350000X0.650000X0*%
%TD*%
%TA.AperFunction,SMDPad,CuDef*%
%ADD17R,0.350000X0.350000*%
%TD*%
%TA.AperFunction,SMDPad,CuDef*%
%ADD18R,1.050000X1.000000*%
%TD*%
%TA.AperFunction,SMDPad,CuDef*%
%ADD19R,2.200000X1.050000*%
%TD*%
%TA.AperFunction,SMDPad,CuDef*%
%ADD20R,0.475000X0.250000*%
%TD*%
%TA.AperFunction,SMDPad,CuDef*%
%ADD21R,0.250000X0.475000*%
%TD*%
%TA.AperFunction,SMDPad,CuDef*%
%ADD22RoundRect,0.075000X-0.675000X-0.075000X0.675000X-0.075000X0.675000X0.075000X-0.675000X0.075000X0*%
%TD*%
%TA.AperFunction,SMDPad,CuDef*%
%ADD23RoundRect,0.075000X-0.075000X-0.675000X0.075000X-0.675000X0.075000X0.675000X-0.075000X0.675000X0*%
%TD*%
%TA.AperFunction,SMDPad,CuDef*%
%ADD24RoundRect,0.175000X0.175000X1.175000X-0.175000X1.175000X-0.175000X-1.175000X0.175000X-1.175000X0*%
%TD*%
%TA.AperFunction,SMDPad,CuDef*%
%ADD25RoundRect,0.250000X0.300000X0.700000X-0.300000X0.700000X-0.300000X-0.700000X0.300000X-0.700000X0*%
%TD*%
%TA.AperFunction,SMDPad,CuDef*%
%ADD26RotRect,0.762000X0.508000X45.000000*%
%TD*%
%TA.AperFunction,SMDPad,CuDef*%
%ADD27RoundRect,0.350000X0.350000X0.650000X-0.350000X0.650000X-0.350000X-0.650000X0.350000X-0.650000X0*%
%TD*%
%TA.AperFunction,SMDPad,CuDef*%
%ADD28R,0.762000X0.508000*%
%TD*%
%TA.AperFunction,SMDPad,CuDef*%
%ADD29RoundRect,0.225000X-0.225000X-0.250000X0.225000X-0.250000X0.225000X0.250000X-0.225000X0.250000X0*%
%TD*%
%TA.AperFunction,SMDPad,CuDef*%
%ADD30RoundRect,0.175000X-0.725000X-0.175000X0.725000X-0.175000X0.725000X0.175000X-0.725000X0.175000X0*%
%TD*%
%TA.AperFunction,SMDPad,CuDef*%
%ADD31RoundRect,0.200000X-0.700000X-0.200000X0.700000X-0.200000X0.700000X0.200000X-0.700000X0.200000X0*%
%TD*%
%TA.AperFunction,SMDPad,CuDef*%
%ADD32R,1.016000X0.838200*%
%TD*%
%TA.AperFunction,SMDPad,CuDef*%
%ADD33RoundRect,0.093750X0.106250X-0.093750X0.106250X0.093750X-0.106250X0.093750X-0.106250X-0.093750X0*%
%TD*%
%TA.AperFunction,HeatsinkPad*%
%ADD34C,0.500000*%
%TD*%
%TA.AperFunction,HeatsinkPad*%
%ADD35R,1.600000X1.000000*%
%TD*%
%TA.AperFunction,SMDPad,CuDef*%
%ADD36RotRect,0.762000X0.508000X315.000000*%
%TD*%
%TA.AperFunction,SMDPad,CuDef*%
%ADD37O,1.500000X0.800000*%
%TD*%
%TA.AperFunction,SMDPad,CuDef*%
%ADD38RotRect,0.762000X0.508000X225.000000*%
%TD*%
%TA.AperFunction,SMDPad,CuDef*%
%ADD39RotRect,0.762000X0.508000X135.000000*%
%TD*%
%TA.AperFunction,SMDPad,CuDef*%
%ADD40R,0.375000X0.350000*%
%TD*%
%TA.AperFunction,SMDPad,CuDef*%
%ADD41R,0.350000X0.375000*%
%TD*%
%TA.AperFunction,SMDPad,CuDef*%
%ADD42R,2.209800X0.762000*%
%TD*%
%TA.AperFunction,SMDPad,CuDef*%
%ADD43C,0.889000*%
%TD*%
%TA.AperFunction,SMDPad,CuDef*%
%ADD44R,0.812800X0.990600*%
%TD*%
%TA.AperFunction,ViaPad*%
%ADD45C,0.600000*%
%TD*%
%TA.AperFunction,ViaPad*%
%ADD46C,0.800000*%
%TD*%
%TA.AperFunction,Conductor*%
%ADD47C,0.200000*%
%TD*%
G04 APERTURE END LIST*
D10*
%TO.P,J1,S1,GND*%
%TO.N,GND*%
X197325000Y-70430000D03*
D11*
X193145000Y-70430000D03*
D10*
X197325000Y-79070000D03*
D11*
X193145000Y-79070000D03*
D12*
%TO.P,J1,B8,SBU2*%
%TO.N,unconnected-(J1-SBU2-PadB8)*%
X192570000Y-76500000D03*
%TO.P,J1,B7,DN2*%
%TO.N,Net-(J1-DN1)*%
X192570000Y-75500000D03*
%TO.P,J1,B6,DP2*%
%TO.N,Net-(J1-DP1)*%
X192570000Y-74000000D03*
%TO.P,J1,B5,CC2*%
%TO.N,Net-(J1-CC2)*%
X192570000Y-73000000D03*
D13*
%TO.P,J1,A12,GND*%
%TO.N,GND*%
X192570000Y-71550000D03*
%TO.P,J1,A9,VBUS*%
%TO.N,Net-(J1-VBUS-PadA4)*%
X192570000Y-72350000D03*
D12*
%TO.P,J1,A8,SBU1*%
%TO.N,unconnected-(J1-SBU1-PadA8)*%
X192570000Y-73500000D03*
%TO.P,J1,A7,DN1*%
%TO.N,Net-(J1-DN1)*%
X192570000Y-74500000D03*
%TO.P,J1,A6,DP1*%
%TO.N,Net-(J1-DP1)*%
X192570000Y-75000000D03*
%TO.P,J1,A5,CC1*%
%TO.N,Net-(J1-CC1)*%
X192570000Y-76000000D03*
D13*
%TO.P,J1,A4,VBUS*%
%TO.N,Net-(J1-VBUS-PadA4)*%
X192570000Y-77150000D03*
%TO.P,J1,A1,GND*%
%TO.N,GND*%
X192570000Y-77950000D03*
%TD*%
D14*
%TO.P,U18,1,AP_SDO/AP_AD0*%
%TO.N,IMU3_MISO*%
X157999999Y-60706500D03*
%TO.P,U18,2,RESV*%
%TO.N,unconnected-(U18-RESV-Pad2)*%
X158500000Y-60706500D03*
%TO.P,U18,3,RESV*%
%TO.N,unconnected-(U18-RESV-Pad3)*%
X159000000Y-60706500D03*
%TO.P,U18,4,INT1/INT*%
%TO.N,IMU3_INT*%
X159500001Y-60706500D03*
D15*
%TO.P,U18,5,VDDIO*%
%TO.N,+3.3V*%
X159702500Y-59999999D03*
%TO.P,U18,6,GND*%
%TO.N,GND*%
X159702500Y-59500000D03*
%TO.P,U18,7,FSYNC*%
%TO.N,FSYNC*%
X159702500Y-59000001D03*
D14*
%TO.P,U18,8,VDD*%
%TO.N,+3.3V*%
X159500001Y-58293500D03*
%TO.P,U18,9,INT2*%
%TO.N,unconnected-(U18-INT2-Pad9)*%
X159000000Y-58293500D03*
%TO.P,U18,10,RESV*%
%TO.N,unconnected-(U18-RESV-Pad10)*%
X158500000Y-58293500D03*
%TO.P,U18,11,RESV*%
%TO.N,unconnected-(U18-RESV-Pad11)*%
X157999999Y-58293500D03*
D15*
%TO.P,U18,12,AP_CS*%
%TO.N,GND*%
X157797500Y-59000001D03*
%TO.P,U18,13,AP_SCL/AP_SCLK*%
%TO.N,IMU3_SCL*%
X157797500Y-59500000D03*
%TO.P,U18,14,AP_SDA/AP_SDIO/AP_SDI*%
%TO.N,IMU3_MOSI*%
X157797500Y-59999999D03*
%TD*%
D16*
%TO.P,J17,1,Pin_1*%
%TO.N,/EXT_UART_MOSI*%
X163250000Y-88750000D03*
%TD*%
%TO.P,J11,1,Pin_1*%
%TO.N,+3.3V*%
X171000000Y-56100000D03*
%TD*%
%TO.P,J19,1,Pin_1*%
%TO.N,GND*%
X163250000Y-92250000D03*
%TD*%
D17*
%TO.P,U5,1,GND*%
%TO.N,GND*%
X155975000Y-72225000D03*
%TO.P,U5,2,CSB*%
X155325000Y-72225000D03*
%TO.P,U5,3,SDI*%
%TO.N,BARO_MOSI*%
X154675000Y-72225000D03*
%TO.P,U5,4,SCK*%
%TO.N,BARO_SCL*%
X154025000Y-72225000D03*
%TO.P,U5,5,SDO*%
%TO.N,BARO_MISO*%
X154025000Y-70775000D03*
%TO.P,U5,6,VDDIO*%
%TO.N,+3.3V*%
X154675000Y-70775000D03*
%TO.P,U5,7,GND__1*%
%TO.N,GND*%
X155325000Y-70775000D03*
%TO.P,U5,8,VDD*%
%TO.N,+3.3V*%
X155975000Y-70775000D03*
%TD*%
D18*
%TO.P,J3,1*%
%TO.N,Net-(U9-RF_IN)*%
X193475000Y-89000000D03*
D19*
%TO.P,J3,S1*%
%TO.N,GND*%
X195000000Y-90475000D03*
D18*
%TO.P,J3,S2*%
X196525000Y-89000000D03*
D19*
%TO.P,J3,S3*%
X195000000Y-87525000D03*
%TD*%
D20*
%TO.P,U4,1,AP_SDO/AP_AD0*%
%TO.N,IMU2_MISO*%
X156662500Y-67162500D03*
%TO.P,U4,2,MAS_DA*%
%TO.N,unconnected-(U4-MAS_DA-Pad2)*%
X156662500Y-66662500D03*
%TO.P,U4,3,MAS_CLK*%
%TO.N,unconnected-(U4-MAS_CLK-Pad3)*%
X156662500Y-66162500D03*
%TO.P,U4,4,INT1/INT*%
%TO.N,IMU2_INT*%
X156662500Y-65662500D03*
D21*
%TO.P,U4,5,VDDIO*%
%TO.N,+3.3V*%
X156000000Y-65500000D03*
%TO.P,U4,6,GND*%
%TO.N,GND*%
X155500000Y-65500000D03*
%TO.P,U4,7,RESV*%
X155000000Y-65500000D03*
D20*
%TO.P,U4,8,VDD*%
%TO.N,+3.3V*%
X154337500Y-65662500D03*
%TO.P,U4,9,INT2/FSYNC/CLKIN*%
%TO.N,FSYNC*%
X154337500Y-66162500D03*
%TO.P,U4,10,RESV/AUX1_CS*%
%TO.N,GND*%
X154337500Y-66662500D03*
%TO.P,U4,11,RESV/AUX1_SDO*%
X154337500Y-67162500D03*
D21*
%TO.P,U4,12,AP_CS*%
X155000000Y-67325000D03*
%TO.P,U4,13,AP_SCL/AP_SCLK*%
%TO.N,IMU2_SCL*%
X155500000Y-67325000D03*
%TO.P,U4,14,AP_SDI*%
%TO.N,IMU2_MOSI*%
X156000000Y-67325000D03*
%TD*%
D16*
%TO.P,J7,1,Pin_1*%
%TO.N,/EXT_VTX_IRC*%
X173750000Y-56100000D03*
%TD*%
D22*
%TO.P,U10,1,PE2*%
%TO.N,IMU2_SCL*%
X161075000Y-61750000D03*
%TO.P,U10,2,PE3*%
%TO.N,IMU3_INT*%
X161075000Y-62250000D03*
%TO.P,U10,3,PE4*%
%TO.N,IMU2_INT*%
X161075000Y-62750000D03*
%TO.P,U10,4,PE5*%
%TO.N,IMU2_MISO*%
X161075000Y-63250000D03*
%TO.P,U10,5,PE6*%
%TO.N,IMU2_MOSI*%
X161075000Y-63750000D03*
%TO.P,U10,6,VSS*%
%TO.N,GND*%
X161075000Y-64250000D03*
%TO.P,U10,7,VDD*%
%TO.N,+3.3V*%
X161075000Y-64750000D03*
%TO.P,U10,8,VBAT*%
%TO.N,unconnected-(U10-VBAT-Pad8)*%
X161075000Y-65250000D03*
%TO.P,U10,9,PC13*%
%TO.N,unconnected-(U10-PC13-Pad9)*%
X161075000Y-65750000D03*
%TO.P,U10,10,PC14*%
%TO.N,unconnected-(U10-PC14-Pad10)*%
X161075000Y-66250000D03*
%TO.P,U10,11,PC15*%
%TO.N,unconnected-(U10-PC15-Pad11)*%
X161075000Y-66750000D03*
%TO.P,U10,12,VSS*%
%TO.N,GND*%
X161075000Y-67250000D03*
%TO.P,U10,13,VDD*%
%TO.N,+3.3V*%
X161075000Y-67750000D03*
%TO.P,U10,14,VSSSMPS*%
%TO.N,GND*%
X161075000Y-68250000D03*
%TO.P,U10,15,VLXSMPS*%
%TO.N,Net-(U10-VLXSMPS)*%
X161075000Y-68750000D03*
%TO.P,U10,16,VDDSMPS*%
%TO.N,+3.3V*%
X161075000Y-69250000D03*
%TO.P,U10,17,VFBSMPS*%
%TO.N,Net-(U10-VFBSMPS)*%
X161075000Y-69750000D03*
%TO.P,U10,18,PF0*%
%TO.N,unconnected-(U10-PF0-Pad18)*%
X161075000Y-70250000D03*
%TO.P,U10,19,PF1*%
%TO.N,unconnected-(U10-PF1-Pad19)*%
X161075000Y-70750000D03*
%TO.P,U10,20,PF2*%
%TO.N,unconnected-(U10-PF2-Pad20)*%
X161075000Y-71250000D03*
%TO.P,U10,21,PF3*%
%TO.N,unconnected-(U10-PF3-Pad21)*%
X161075000Y-71750000D03*
%TO.P,U10,22,PF4*%
%TO.N,unconnected-(U10-PF4-Pad22)*%
X161075000Y-72250000D03*
%TO.P,U10,23,PF5*%
%TO.N,unconnected-(U10-PF5-Pad23)*%
X161075000Y-72750000D03*
%TO.P,U10,24,VSS*%
%TO.N,GND*%
X161075000Y-73250000D03*
%TO.P,U10,25,VDD*%
%TO.N,+3.3V*%
X161075000Y-73750000D03*
%TO.P,U10,26,PF6*%
%TO.N,FSYNC*%
X161075000Y-74250000D03*
%TO.P,U10,27,PF7*%
%TO.N,BARO_SCL*%
X161075000Y-74750000D03*
%TO.P,U10,28,PF8*%
%TO.N,BARO_MISO*%
X161075000Y-75250000D03*
%TO.P,U10,29,PF9*%
%TO.N,BARO_MOSI*%
X161075000Y-75750000D03*
%TO.P,U10,30,PF10*%
%TO.N,unconnected-(U10-PF10-Pad30)*%
X161075000Y-76250000D03*
%TO.P,U10,31,PH0*%
%TO.N,Net-(U10-PH0)*%
X161075000Y-76750000D03*
%TO.P,U10,32,PH1*%
%TO.N,unconnected-(U10-PH1-Pad32)*%
X161075000Y-77250000D03*
%TO.P,U10,33,NRST*%
%TO.N,/NRST*%
X161075000Y-77750000D03*
%TO.P,U10,34,PC0*%
%TO.N,IMU1_INT*%
X161075000Y-78250000D03*
%TO.P,U10,35,PC1*%
%TO.N,IMU1_MOSI*%
X161075000Y-78750000D03*
%TO.P,U10,36,PC2_C*%
%TO.N,IMU1_MISO*%
X161075000Y-79250000D03*
%TO.P,U10,37,PC3_C*%
%TO.N,unconnected-(U10-PC3_C-Pad37)*%
X161075000Y-79750000D03*
%TO.P,U10,38,VSSA*%
%TO.N,GND*%
X161075000Y-80250000D03*
%TO.P,U10,39,VREF+*%
%TO.N,+3.3V*%
X161075000Y-80750000D03*
%TO.P,U10,40,VDDA*%
X161075000Y-81250000D03*
%TO.P,U10,41,PA0*%
%TO.N,/EXT_UART_MOSI*%
X161075000Y-81750000D03*
%TO.P,U10,42,PA1*%
%TO.N,/EXT_UART_MISO*%
X161075000Y-82250000D03*
%TO.P,U10,43,PA2*%
%TO.N,unconnected-(U10-PA2-Pad43)*%
X161075000Y-82750000D03*
%TO.P,U10,44,VDD*%
%TO.N,+3.3V*%
X161075000Y-83250000D03*
D23*
%TO.P,U10,45,VSS*%
%TO.N,GND*%
X163000000Y-85175000D03*
%TO.P,U10,46,PA3*%
%TO.N,unconnected-(U10-PA3-Pad46)*%
X163500000Y-85175000D03*
%TO.P,U10,47,VSS*%
%TO.N,GND*%
X164000000Y-85175000D03*
%TO.P,U10,48,VDD*%
%TO.N,+3.3V*%
X164500000Y-85175000D03*
%TO.P,U10,49,PA4*%
%TO.N,unconnected-(U10-PA4-Pad49)*%
X165000000Y-85175000D03*
%TO.P,U10,50,PA5*%
%TO.N,MAG_SCL*%
X165500000Y-85175000D03*
%TO.P,U10,51,PA6*%
%TO.N,MAG_MISO*%
X166000000Y-85175000D03*
%TO.P,U10,52,PA7*%
%TO.N,MAG_MOSI*%
X166500000Y-85175000D03*
%TO.P,U10,53,PC4*%
%TO.N,unconnected-(U10-PC4-Pad53)*%
X167000000Y-85175000D03*
%TO.P,U10,54,PC5*%
%TO.N,MAG_INT*%
X167500000Y-85175000D03*
%TO.P,U10,55,PB0*%
%TO.N,unconnected-(U10-PB0-Pad55)*%
X168000000Y-85175000D03*
%TO.P,U10,56,PB1*%
%TO.N,unconnected-(U10-PB1-Pad56)*%
X168500000Y-85175000D03*
%TO.P,U10,57,PB2*%
%TO.N,unconnected-(U10-PB2-Pad57)*%
X169000000Y-85175000D03*
%TO.P,U10,58,PF11*%
%TO.N,unconnected-(U10-PF11-Pad58)*%
X169500000Y-85175000D03*
%TO.P,U10,59,PF12*%
%TO.N,unconnected-(U10-PF12-Pad59)*%
X170000000Y-85175000D03*
%TO.P,U10,60,PF13*%
%TO.N,unconnected-(U10-PF13-Pad60)*%
X170500000Y-85175000D03*
%TO.P,U10,61,PF14*%
%TO.N,/EXT_I2C_SCL*%
X171000000Y-85175000D03*
%TO.P,U10,62,PF15*%
%TO.N,/EXT_I2C_SDA*%
X171500000Y-85175000D03*
%TO.P,U10,63,PG0*%
%TO.N,unconnected-(U10-PG0-Pad63)*%
X172000000Y-85175000D03*
%TO.P,U10,64,VSS*%
%TO.N,GND*%
X172500000Y-85175000D03*
%TO.P,U10,65,VDD*%
%TO.N,+3.3V*%
X173000000Y-85175000D03*
%TO.P,U10,66,PG1*%
%TO.N,unconnected-(U10-PG1-Pad66)*%
X173500000Y-85175000D03*
%TO.P,U10,67,PE7*%
%TO.N,unconnected-(U10-PE7-Pad67)*%
X174000000Y-85175000D03*
%TO.P,U10,68,PE8*%
%TO.N,unconnected-(U10-PE8-Pad68)*%
X174500000Y-85175000D03*
%TO.P,U10,69,PE9*%
%TO.N,/EXT_PWM_S3*%
X175000000Y-85175000D03*
%TO.P,U10,70,VSS*%
%TO.N,GND*%
X175500000Y-85175000D03*
%TO.P,U10,71,VDD*%
%TO.N,+3.3V*%
X176000000Y-85175000D03*
%TO.P,U10,72,PE10*%
%TO.N,unconnected-(U10-PE10-Pad72)*%
X176500000Y-85175000D03*
%TO.P,U10,73,PE11*%
%TO.N,/EXT_PWM_S4*%
X177000000Y-85175000D03*
%TO.P,U10,74,PE12*%
%TO.N,unconnected-(U10-PE12-Pad74)*%
X177500000Y-85175000D03*
%TO.P,U10,75,PE13*%
%TO.N,unconnected-(U10-PE13-Pad75)*%
X178000000Y-85175000D03*
%TO.P,U10,76,PE14*%
%TO.N,/LEDB_PWM*%
X178500000Y-85175000D03*
%TO.P,U10,77,PE15*%
%TO.N,unconnected-(U10-PE15-Pad77)*%
X179000000Y-85175000D03*
%TO.P,U10,78,PB10*%
%TO.N,IMU1_SCL*%
X179500000Y-85175000D03*
%TO.P,U10,79,PB11*%
%TO.N,unconnected-(U10-PB11-Pad79)*%
X180000000Y-85175000D03*
%TO.P,U10,80,VCAP*%
%TO.N,Net-(C40-Pad2)*%
X180500000Y-85175000D03*
%TO.P,U10,81,VSS*%
%TO.N,GND*%
X181000000Y-85175000D03*
%TO.P,U10,82,VDDLDO*%
%TO.N,+3.3V*%
X181500000Y-85175000D03*
%TO.P,U10,83,VSS*%
%TO.N,GND*%
X182000000Y-85175000D03*
%TO.P,U10,84,VDD*%
%TO.N,+3.3V*%
X182500000Y-85175000D03*
%TO.P,U10,85,PB12*%
%TO.N,GPS_UART_MISO*%
X183000000Y-85175000D03*
%TO.P,U10,86,PB13*%
%TO.N,GPS_UART_MOSI*%
X183500000Y-85175000D03*
%TO.P,U10,87,PB14*%
%TO.N,unconnected-(U10-PB14-Pad87)*%
X184000000Y-85175000D03*
%TO.P,U10,88,PB15*%
%TO.N,unconnected-(U10-PB15-Pad88)*%
X184500000Y-85175000D03*
D22*
%TO.P,U10,89,PD8*%
%TO.N,unconnected-(U10-PD8-Pad89)*%
X186425000Y-83250000D03*
%TO.P,U10,90,PD9*%
%TO.N,unconnected-(U10-PD9-Pad90)*%
X186425000Y-82750000D03*
%TO.P,U10,91,PD10*%
%TO.N,unconnected-(U10-PD10-Pad91)*%
X186425000Y-82250000D03*
%TO.P,U10,92,VDD*%
%TO.N,+3.3V*%
X186425000Y-81750000D03*
%TO.P,U10,93,VSS*%
%TO.N,GND*%
X186425000Y-81250000D03*
%TO.P,U10,94,PD11*%
%TO.N,unconnected-(U10-PD11-Pad94)*%
X186425000Y-80750000D03*
%TO.P,U10,95,PD12*%
%TO.N,/LEDC_PWM*%
X186425000Y-80250000D03*
%TO.P,U10,96,PD13*%
%TO.N,unconnected-(U10-PD13-Pad96)*%
X186425000Y-79750000D03*
%TO.P,U10,97,PD14*%
%TO.N,unconnected-(U10-PD14-Pad97)*%
X186425000Y-79250000D03*
%TO.P,U10,98,PD15*%
%TO.N,unconnected-(U10-PD15-Pad98)*%
X186425000Y-78750000D03*
%TO.P,U10,99,VDD*%
%TO.N,+3.3V*%
X186425000Y-78250000D03*
%TO.P,U10,100,VSS*%
%TO.N,GND*%
X186425000Y-77750000D03*
%TO.P,U10,101,VCAPDSI*%
%TO.N,Net-(U10-VCAPDSI)*%
X186425000Y-77250000D03*
%TO.P,U10,102,VDD12DSI*%
X186425000Y-76750000D03*
%TO.P,U10,103,DSI_D0P*%
%TO.N,unconnected-(U10-DSI_D0P-Pad103)*%
X186425000Y-76250000D03*
%TO.P,U10,104,DSI_D0N*%
%TO.N,unconnected-(U10-DSI_D0N-Pad104)*%
X186425000Y-75750000D03*
%TO.P,U10,105,VSSDSI*%
%TO.N,GND*%
X186425000Y-75250000D03*
%TO.P,U10,106,DSI_CKP*%
%TO.N,unconnected-(U10-DSI_CKP-Pad106)*%
X186425000Y-74750000D03*
%TO.P,U10,107,DSI_CKN*%
%TO.N,unconnected-(U10-DSI_CKN-Pad107)*%
X186425000Y-74250000D03*
%TO.P,U10,108,VDD12DSI*%
%TO.N,Net-(U10-VCAPDSI)*%
X186425000Y-73750000D03*
%TO.P,U10,109,VSSDSI*%
%TO.N,GND*%
X186425000Y-73250000D03*
%TO.P,U10,110,PG2*%
%TO.N,unconnected-(U10-PG2-Pad110)*%
X186425000Y-72750000D03*
%TO.P,U10,111,PG3*%
%TO.N,unconnected-(U10-PG3-Pad111)*%
X186425000Y-72250000D03*
%TO.P,U10,112,VSS*%
%TO.N,GND*%
X186425000Y-71750000D03*
%TO.P,U10,113,VDD*%
%TO.N,+3.3V*%
X186425000Y-71250000D03*
%TO.P,U10,114,PG4*%
%TO.N,unconnected-(U10-PG4-Pad114)*%
X186425000Y-70750000D03*
%TO.P,U10,115,PG5*%
%TO.N,unconnected-(U10-PG5-Pad115)*%
X186425000Y-70250000D03*
%TO.P,U10,116,PG6*%
%TO.N,unconnected-(U10-PG6-Pad116)*%
X186425000Y-69750000D03*
%TO.P,U10,117,PG7*%
%TO.N,unconnected-(U10-PG7-Pad117)*%
X186425000Y-69250000D03*
%TO.P,U10,118,PG8*%
%TO.N,/ESC_USART_DE*%
X186425000Y-68750000D03*
%TO.P,U10,119,VSS*%
%TO.N,GND*%
X186425000Y-68250000D03*
%TO.P,U10,120,VDD50_USB*%
%TO.N,+5V*%
X186425000Y-67750000D03*
%TO.P,U10,121,VDD33_USB*%
%TO.N,+3.3V*%
X186425000Y-67250000D03*
%TO.P,U10,122,PC6*%
%TO.N,/ESC_USART_MOSI*%
X186425000Y-66750000D03*
%TO.P,U10,123,PC7*%
%TO.N,/ESC_USART_MISO*%
X186425000Y-66250000D03*
%TO.P,U10,124,PC8*%
%TO.N,/SD_DAT0*%
X186425000Y-65750000D03*
%TO.P,U10,125,PC9*%
%TO.N,/SD_DAT1*%
X186425000Y-65250000D03*
%TO.P,U10,126,VDD*%
%TO.N,+3.3V*%
X186425000Y-64750000D03*
%TO.P,U10,127,PA8*%
%TO.N,unconnected-(U10-PA8-Pad127)*%
X186425000Y-64250000D03*
%TO.P,U10,128,PA9*%
%TO.N,/EXT_VTX_IRC*%
X186425000Y-63750000D03*
%TO.P,U10,129,PA10*%
%TO.N,unconnected-(U10-PA10-Pad129)*%
X186425000Y-63250000D03*
%TO.P,U10,130,PA11*%
%TO.N,/USB_DN*%
X186425000Y-62750000D03*
%TO.P,U10,131,PA12*%
%TO.N,/USB_DP*%
X186425000Y-62250000D03*
%TO.P,U10,132,PA13*%
%TO.N,/SDWIO*%
X186425000Y-61750000D03*
D23*
%TO.P,U10,133,VCAP*%
%TO.N,Net-(C41-Pad2)*%
X184500000Y-59825000D03*
%TO.P,U10,134,VSS*%
%TO.N,GND*%
X184000000Y-59825000D03*
%TO.P,U10,135,VDDLDO*%
%TO.N,+3.3V*%
X183500000Y-59825000D03*
%TO.P,U10,136,VDD*%
X183000000Y-59825000D03*
%TO.P,U10,137,VSS*%
%TO.N,GND*%
X182500000Y-59825000D03*
%TO.P,U10,138,PA14*%
%TO.N,/SWCLK*%
X182000000Y-59825000D03*
%TO.P,U10,139,PA15*%
%TO.N,/EXT_PWM_BZ*%
X181500000Y-59825000D03*
%TO.P,U10,140,PC10*%
%TO.N,/SD_DAT2*%
X181000000Y-59825000D03*
%TO.P,U10,141,PC11*%
%TO.N,/SD_DAT3*%
X180500000Y-59825000D03*
%TO.P,U10,142,PC12*%
%TO.N,/SD_CLK*%
X180000000Y-59825000D03*
%TO.P,U10,143,PD0*%
%TO.N,unconnected-(U10-PD0-Pad143)*%
X179500000Y-59825000D03*
%TO.P,U10,144,PD1*%
%TO.N,unconnected-(U10-PD1-Pad144)*%
X179000000Y-59825000D03*
%TO.P,U10,145,PD2*%
%TO.N,/SD_CMD*%
X178500000Y-59825000D03*
%TO.P,U10,146,PD3*%
%TO.N,unconnected-(U10-PD3-Pad146)*%
X178000000Y-59825000D03*
%TO.P,U10,147,PD4*%
%TO.N,unconnected-(U10-PD4-Pad147)*%
X177500000Y-59825000D03*
%TO.P,U10,148,PD5*%
%TO.N,unconnected-(U10-PD5-Pad148)*%
X177000000Y-59825000D03*
%TO.P,U10,149,PD6*%
%TO.N,unconnected-(U10-PD6-Pad149)*%
X176500000Y-59825000D03*
%TO.P,U10,150,PD7*%
%TO.N,unconnected-(U10-PD7-Pad150)*%
X176000000Y-59825000D03*
%TO.P,U10,151,VSS*%
%TO.N,GND*%
X175500000Y-59825000D03*
%TO.P,U10,152,VDD*%
%TO.N,+3.3V*%
X175000000Y-59825000D03*
%TO.P,U10,153,PG9*%
%TO.N,unconnected-(U10-PG9-Pad153)*%
X174500000Y-59825000D03*
%TO.P,U10,154,PG10*%
%TO.N,unconnected-(U10-PG10-Pad154)*%
X174000000Y-59825000D03*
%TO.P,U10,155,PG11*%
%TO.N,unconnected-(U10-PG11-Pad155)*%
X173500000Y-59825000D03*
%TO.P,U10,156,PG12*%
%TO.N,IMU3_MISO*%
X173000000Y-59825000D03*
%TO.P,U10,157,PG13*%
%TO.N,IMU3_SCL*%
X172500000Y-59825000D03*
%TO.P,U10,158,PG14*%
%TO.N,IMU3_MOSI*%
X172000000Y-59825000D03*
%TO.P,U10,159,VSS*%
%TO.N,GND*%
X171500000Y-59825000D03*
%TO.P,U10,160,VDD*%
%TO.N,+3.3V*%
X171000000Y-59825000D03*
%TO.P,U10,161,PG15*%
%TO.N,unconnected-(U10-PG15-Pad161)*%
X170500000Y-59825000D03*
%TO.P,U10,162,PB3*%
%TO.N,/SWO*%
X170000000Y-59825000D03*
%TO.P,U10,163,PB4*%
%TO.N,unconnected-(U10-PB4-Pad163)*%
X169500000Y-59825000D03*
%TO.P,U10,164,PB5*%
%TO.N,/EXT_PWM_S1*%
X169000000Y-59825000D03*
%TO.P,U10,165,PB6*%
%TO.N,/EXT_PWM_S2*%
X168500000Y-59825000D03*
%TO.P,U10,166,PB7*%
%TO.N,unconnected-(U10-PB7-Pad166)*%
X168000000Y-59825000D03*
%TO.P,U10,167,BOOT0*%
%TO.N,Net-(U10-BOOT0)*%
X167500000Y-59825000D03*
%TO.P,U10,168,PB8*%
%TO.N,unconnected-(U10-PB8-Pad168)*%
X167000000Y-59825000D03*
%TO.P,U10,169,PB9*%
%TO.N,unconnected-(U10-PB9-Pad169)*%
X166500000Y-59825000D03*
%TO.P,U10,170,PE0*%
%TO.N,/ELRS_UART_RX*%
X166000000Y-59825000D03*
%TO.P,U10,171,PE1*%
%TO.N,/ELRS_UART_TX*%
X165500000Y-59825000D03*
%TO.P,U10,172,VCAP*%
%TO.N,Net-(C42-Pad2)*%
X165000000Y-59825000D03*
%TO.P,U10,173,VSS*%
%TO.N,GND*%
X164500000Y-59825000D03*
%TO.P,U10,174,PDR_ON*%
%TO.N,+3.3V*%
X164000000Y-59825000D03*
%TO.P,U10,175,VDDLDO*%
X163500000Y-59825000D03*
%TO.P,U10,176,VDD*%
X163000000Y-59825000D03*
%TD*%
D16*
%TO.P,J32,1,Pin_1*%
%TO.N,/ELRS_UART_RX*%
X160700000Y-56100000D03*
%TD*%
D24*
%TO.P,J4,1,Pin_1*%
%TO.N,/ESC_USART_DE*%
X189500000Y-56650000D03*
%TO.P,J4,2,Pin_2*%
%TO.N,/ESC_USART_MOSI*%
X188000000Y-56650000D03*
%TO.P,J4,3,Pin_3*%
%TO.N,/ESC_USART_MISO*%
X186500000Y-56650000D03*
%TO.P,J4,4,Pin_4*%
%TO.N,/ESC_5V*%
X185000000Y-56650000D03*
%TO.P,J4,5,Pin_5*%
%TO.N,GND*%
X183500000Y-56650000D03*
D25*
%TO.P,J4,MP*%
%TO.N,N/C*%
X191450000Y-52950000D03*
X181550000Y-52950000D03*
%TD*%
D16*
%TO.P,J6,1,Pin_1*%
%TO.N,+5V*%
X176250000Y-56100000D03*
%TD*%
D26*
%TO.P,U12,1,DIN*%
%TO.N,Net-(U12-DIN)*%
X151769034Y-52637462D03*
%TO.P,U12,2,VDD*%
%TO.N,+5V*%
X152440786Y-53309214D03*
%TO.P,U12,3,DOUT*%
%TO.N,Net-(U12-DOUT)*%
X153250000Y-52500000D03*
%TO.P,U12,4,GND*%
%TO.N,GND*%
X152578248Y-51828248D03*
%TD*%
D16*
%TO.P,J12,1,Pin_1*%
%TO.N,/EXT_PWM_S1*%
X168500000Y-56100000D03*
%TD*%
%TO.P,J27,1,Pin_1*%
%TO.N,/EXT_PWM_S4*%
X173250000Y-95800000D03*
%TD*%
D27*
%TO.P,J30,1,Pin_1*%
%TO.N,GND*%
X163200000Y-52600000D03*
%TD*%
D16*
%TO.P,J22,1,Pin_1*%
%TO.N,/EXT_I2C_SDA*%
X165750000Y-95750000D03*
%TD*%
D28*
%TO.P,U16,1,DIN*%
%TO.N,Net-(U16-DIN)*%
X191927799Y-83275000D03*
%TO.P,U16,2,VDD*%
%TO.N,+5V*%
X191927799Y-84225000D03*
%TO.P,U16,3,DOUT*%
%TO.N,unconnected-(U16-DOUT-Pad3)*%
X193072201Y-84225000D03*
%TO.P,U16,4,GND*%
%TO.N,GND*%
X193072201Y-83275000D03*
%TD*%
D16*
%TO.P,J14,1,Pin_1*%
%TO.N,+3.3V*%
X171000000Y-52600000D03*
%TD*%
D29*
%TO.P,C30,1*%
%TO.N,+5V*%
X191975000Y-63000000D03*
%TO.P,C30,2*%
%TO.N,Net-(U1-IN)*%
X193525000Y-63000000D03*
%TD*%
D16*
%TO.P,J16,1,Pin_1*%
%TO.N,GND*%
X166000000Y-52600000D03*
%TD*%
D30*
%TO.P,U9,1,GND*%
%TO.N,GND*%
X181250000Y-88600000D03*
D31*
%TO.P,U9,2,TXD*%
%TO.N,GPS_UART_MISO*%
X181250000Y-89700000D03*
%TO.P,U9,3,RXD*%
%TO.N,GPS_UART_MOSI*%
X181250000Y-90800000D03*
%TO.P,U9,4,TIMEPULSE*%
%TO.N,unconnected-(U9-TIMEPULSE-Pad4)*%
X181250000Y-91900000D03*
%TO.P,U9,5,EXTINT*%
%TO.N,unconnected-(U9-EXTINT-Pad5)*%
X181250000Y-93000000D03*
%TO.P,U9,6,V_BCKP*%
%TO.N,unconnected-(U9-V_BCKP-Pad6)*%
X181250000Y-94100000D03*
%TO.P,U9,7,VCC_IO*%
%TO.N,+3.3V*%
X181250000Y-95200000D03*
%TO.P,U9,8,VCC*%
X181250000Y-96300000D03*
D30*
%TO.P,U9,9,~{RESET}*%
%TO.N,Net-(U9-~{RESET})*%
X181250000Y-97400000D03*
%TO.P,U9,10,GND*%
%TO.N,GND*%
X190750000Y-97400000D03*
D31*
%TO.P,U9,11,RF_IN*%
%TO.N,Net-(U9-RF_IN)*%
X190750000Y-96300000D03*
%TO.P,U9,12,GND*%
%TO.N,GND*%
X190750000Y-95200000D03*
%TO.P,U9,13,LNA_EN*%
%TO.N,unconnected-(U9-LNA_EN-Pad13)*%
X190750000Y-94100000D03*
%TO.P,U9,14,VCC_RF*%
%TO.N,+3.3V*%
X190750000Y-93000000D03*
%TO.P,U9,15,VIO_SEL*%
%TO.N,unconnected-(U9-VIO_SEL-Pad15)*%
X190750000Y-91900000D03*
%TO.P,U9,16,SDA*%
%TO.N,unconnected-(U9-SDA-Pad16)*%
X190750000Y-90800000D03*
%TO.P,U9,17,SCL*%
%TO.N,unconnected-(U9-SCL-Pad17)*%
X190750000Y-89700000D03*
D30*
%TO.P,U9,18,~{SAFEBOOT}*%
%TO.N,Net-(U9-~{SAFEBOOT})*%
X190750000Y-88600000D03*
%TD*%
D16*
%TO.P,J5,1,Pin_1*%
%TO.N,+5V*%
X178750000Y-56100000D03*
%TD*%
D32*
%TO.P,U11,1,EN*%
%TO.N,+3.3V*%
X156429801Y-75575001D03*
%TO.P,U11,2,GND*%
%TO.N,GND*%
X156429801Y-77424999D03*
%TO.P,U11,3,OUT*%
%TO.N,Net-(U10-PH0)*%
X158070199Y-77424999D03*
%TO.P,U11,4,VDD*%
%TO.N,+3.3V*%
X158070199Y-75575001D03*
%TD*%
D16*
%TO.P,J15,1,Pin_1*%
%TO.N,/EXT_PWM_S2*%
X168500000Y-52600000D03*
%TD*%
%TO.P,J9,1,Pin_1*%
%TO.N,GND*%
X176250000Y-52600000D03*
%TD*%
%TO.P,J10,1,Pin_1*%
%TO.N,GND*%
X173750000Y-52600000D03*
%TD*%
D29*
%TO.P,C31,1*%
%TO.N,Net-(U1-OUT)*%
X191725000Y-68500000D03*
%TO.P,C31,2*%
%TO.N,+3.3V*%
X193275000Y-68500000D03*
%TD*%
D33*
%TO.P,U1,1,OUT*%
%TO.N,Net-(U1-OUT)*%
X192200000Y-66637500D03*
%TO.P,U1,2,SNS*%
%TO.N,+3.3V*%
X192850000Y-66637500D03*
%TO.P,U1,3,GND*%
%TO.N,GND*%
X193500000Y-66637500D03*
%TO.P,U1,4,EN*%
%TO.N,unconnected-(U1-EN-Pad4)*%
X193500000Y-64862500D03*
%TO.P,U1,5,GND*%
%TO.N,GND*%
X192850000Y-64862500D03*
%TO.P,U1,6,IN*%
%TO.N,Net-(U1-IN)*%
X192200000Y-64862500D03*
D34*
%TO.P,U1,7,PAD*%
%TO.N,GND*%
X192300000Y-65750000D03*
D35*
X192850000Y-65750000D03*
D34*
X193400000Y-65750000D03*
%TD*%
D36*
%TO.P,U13,1,DIN*%
%TO.N,Net-(U12-DOUT)*%
X197421752Y-51759517D03*
%TO.P,U13,2,VDD*%
%TO.N,+5V*%
X196750000Y-52431269D03*
%TO.P,U13,3,DOUT*%
%TO.N,unconnected-(U13-DOUT-Pad3)*%
X197559214Y-53240483D03*
%TO.P,U13,4,GND*%
%TO.N,GND*%
X198230966Y-52568731D03*
%TD*%
D16*
%TO.P,J33,1,Pin_1*%
%TO.N,/ELRS_UART_TX*%
X163200000Y-56100000D03*
%TD*%
%TO.P,J18,1,Pin_1*%
%TO.N,/EXT_UART_MISO*%
X165750000Y-88750000D03*
%TD*%
%TO.P,J28,1,Pin_1*%
%TO.N,GND*%
X175750000Y-95800000D03*
%TD*%
%TO.P,J25,1,Pin_1*%
%TO.N,GND*%
X175750000Y-88800000D03*
%TD*%
D27*
%TO.P,J31,1,Pin_1*%
%TO.N,+5V*%
X160700000Y-52600000D03*
%TD*%
D16*
%TO.P,J23,1,Pin_1*%
%TO.N,+3.3V*%
X170750000Y-88750000D03*
%TD*%
%TO.P,J8,1,Pin_1*%
%TO.N,/EXT_PWM_BZ*%
X178750000Y-52600000D03*
%TD*%
%TO.P,J21,1,Pin_1*%
%TO.N,+3.3V*%
X163250000Y-95750000D03*
%TD*%
%TO.P,J24,1,Pin_1*%
%TO.N,/EXT_PWM_S3*%
X173250000Y-88800000D03*
%TD*%
%TO.P,J26,1,Pin_1*%
%TO.N,+3.3V*%
X170750000Y-95750000D03*
%TD*%
%TO.P,J20,1,Pin_1*%
%TO.N,/EXT_I2C_SCL*%
X165750000Y-92250000D03*
%TD*%
D15*
%TO.P,U3,1,AP_SDO/AP_AD0*%
%TO.N,IMU1_MISO*%
X156130299Y-83639001D03*
%TO.P,U3,2,RESV*%
%TO.N,unconnected-(U3-RESV-Pad2)*%
X156130299Y-83139000D03*
%TO.P,U3,3,RESV*%
%TO.N,unconnected-(U3-RESV-Pad3)*%
X156130299Y-82639000D03*
%TO.P,U3,4,INT1/INT*%
%TO.N,IMU1_INT*%
X156130299Y-82138999D03*
D14*
%TO.P,U3,5,VDDIO*%
%TO.N,+3.3V*%
X155499998Y-82000000D03*
%TO.P,U3,6,GND*%
%TO.N,GND*%
X154999999Y-82000000D03*
%TO.P,U3,7,RESV*%
%TO.N,unconnected-(U3-RESV-Pad7)*%
X154500000Y-82000000D03*
D15*
%TO.P,U3,8,VDD*%
%TO.N,+3.3V*%
X153869699Y-82138999D03*
%TO.P,U3,9,INT2/FSYNC/CLKIN*%
%TO.N,FSYNC*%
X153869699Y-82639000D03*
%TO.P,U3,10,RESV*%
%TO.N,unconnected-(U3-RESV-Pad10)*%
X153869699Y-83139000D03*
%TO.P,U3,11,RESV*%
%TO.N,unconnected-(U3-RESV-Pad11)*%
X153869699Y-83639001D03*
D14*
%TO.P,U3,12,AP_CS*%
%TO.N,GND*%
X154500000Y-83778000D03*
%TO.P,U3,13,AP_SCL/AP_SCLK*%
%TO.N,IMU1_SCL*%
X154999999Y-83778000D03*
%TO.P,U3,14,AP_SDI*%
%TO.N,IMU1_MOSI*%
X155499998Y-83778000D03*
%TD*%
D37*
%TO.P,J34,1,Pin_1*%
%TO.N,/SDWIO*%
X198368500Y-61095000D03*
%TO.P,J34,2,Pin_2*%
%TO.N,/SWCLK*%
X198368500Y-62365000D03*
%TO.P,J34,3,Pin_3*%
%TO.N,/SWO*%
X198368500Y-63635000D03*
%TO.P,J34,4,Pin_4*%
%TO.N,GND*%
X198368500Y-64905000D03*
%TD*%
D38*
%TO.P,U15,1,DIN*%
%TO.N,Net-(U15-DIN)*%
X198240483Y-97431269D03*
%TO.P,U15,2,VDD*%
%TO.N,+5V*%
X197568731Y-96759517D03*
%TO.P,U15,3,DOUT*%
%TO.N,Net-(U14-DIN)*%
X196759517Y-97568731D03*
%TO.P,U15,4,GND*%
%TO.N,GND*%
X197431269Y-98240483D03*
%TD*%
D39*
%TO.P,U14,1,DIN*%
%TO.N,Net-(U14-DIN)*%
X152568731Y-98240483D03*
%TO.P,U14,2,VDD*%
%TO.N,+5V*%
X153240483Y-97568731D03*
%TO.P,U14,3,DOUT*%
%TO.N,Net-(U12-DIN)*%
X152431269Y-96759517D03*
%TO.P,U14,4,GND*%
%TO.N,GND*%
X151759517Y-97431269D03*
%TD*%
D16*
%TO.P,J13,1,Pin_1*%
%TO.N,GND*%
X166000000Y-56100000D03*
%TD*%
D40*
%TO.P,U6,1,SCL/SPC*%
%TO.N,MAG_SCL*%
X157987500Y-90550000D03*
%TO.P,U6,2,RSVD1*%
%TO.N,GND*%
X157987500Y-91050000D03*
%TO.P,U6,3,GND*%
X157987500Y-91550000D03*
%TO.P,U6,4,C1*%
%TO.N,Net-(U6-C1)*%
X157987500Y-92050000D03*
D41*
%TO.P,U6,5,VDD*%
%TO.N,+3.3V*%
X158500000Y-92062500D03*
%TO.P,U6,6,VDD_IO*%
X159000000Y-92062500D03*
D40*
%TO.P,U6,7,INT*%
%TO.N,MAG_INT*%
X159512500Y-92050000D03*
%TO.P,U6,8,DRDY*%
%TO.N,unconnected-(U6-DRDY-Pad8)*%
X159512500Y-91550000D03*
%TO.P,U6,9,SDO/SA1*%
%TO.N,MAG_MISO*%
X159512500Y-91050000D03*
%TO.P,U6,10,CS*%
%TO.N,GND*%
X159512500Y-90550000D03*
D41*
%TO.P,U6,11,SDA/SDI/SDO*%
%TO.N,MAG_MOSI*%
X159000000Y-90537500D03*
%TO.P,U6,12,RSVD2*%
%TO.N,GND*%
X158500000Y-90537500D03*
%TD*%
D42*
%TO.P,U17,1,1*%
%TO.N,GND*%
X155000700Y-59499998D03*
%TO.P,U17,2,2*%
%TO.N,Net-(R8-Pad1)*%
X155000700Y-62500000D03*
%TO.P,U17,3,3*%
%TO.N,+3.3V*%
X155000700Y-64000000D03*
D43*
%TO.P,U17,4*%
%TO.N,N/C*%
X151900000Y-60250009D03*
%TO.P,U17,5*%
X151900000Y-63250009D03*
D44*
%TO.P,U17,6*%
X150935000Y-58099999D03*
%TO.P,U17,7*%
X152865000Y-58099999D03*
%TO.P,U17,8*%
X150935000Y-65399999D03*
%TO.P,U17,9*%
X152865000Y-65399999D03*
%TD*%
D45*
%TO.N,Net-(J1-VBUS-PadA4)*%
X195000000Y-71500000D03*
%TO.N,+3.3V*%
X188000000Y-64250000D03*
X184300000Y-66600000D03*
%TO.N,FSYNC*%
X159250000Y-72750000D03*
%TO.N,GND*%
X154475000Y-91750000D03*
%TO.N,Net-(U6-C1)*%
X156025000Y-91750000D03*
%TO.N,+3.3V*%
X175775000Y-54250000D03*
%TO.N,Net-(C41-Pad2)*%
X185500000Y-59250000D03*
X178000000Y-57800000D03*
%TO.N,GND*%
X174225000Y-58000000D03*
%TO.N,+3.3V*%
X176250000Y-67750000D03*
%TO.N,GND*%
X180750000Y-68500000D03*
%TO.N,IMU2_SCL*%
X155750000Y-68000000D03*
%TO.N,GND*%
X160750000Y-60250000D03*
%TO.N,+3.3V*%
X159025000Y-62250000D03*
%TO.N,IMU3_MISO*%
X173100000Y-61150000D03*
%TO.N,IMU3_MOSI*%
X171900000Y-58600000D03*
%TO.N,IMU3_SCL*%
X172500000Y-58000000D03*
%TO.N,IMU3_MISO*%
X158222909Y-61322154D03*
%TO.N,IMU3_MOSI*%
X159059598Y-59466239D03*
%TO.N,IMU3_SCL*%
X158445998Y-58936402D03*
%TO.N,FSYNC*%
X160101251Y-58101251D03*
X152374000Y-67626000D03*
%TO.N,Net-(U10-BOOT0)*%
X167250000Y-62250000D03*
%TO.N,GND*%
X163200000Y-52600000D03*
X164975000Y-83000000D03*
X181025000Y-83000000D03*
X181250000Y-88600000D03*
X155250000Y-65000000D03*
X156429801Y-77424999D03*
X165250000Y-77975000D03*
X154475000Y-58000000D03*
X153525000Y-79500000D03*
X157700000Y-56500000D03*
X189000000Y-97000000D03*
X157975000Y-93800000D03*
X166000000Y-56100000D03*
X182100000Y-66600000D03*
X195000000Y-87525000D03*
X159500000Y-66725000D03*
X163250000Y-92250000D03*
X166000000Y-54400000D03*
X175475000Y-83000000D03*
X152000000Y-83775000D03*
X153000000Y-72275000D03*
X180725000Y-87000000D03*
X195447500Y-80947500D03*
X157525000Y-69000000D03*
X165750000Y-62775000D03*
X184250000Y-80725000D03*
X175750000Y-88800000D03*
X184250000Y-72000000D03*
X152578248Y-51828248D03*
X192570000Y-71550000D03*
X189250000Y-53500000D03*
X162975000Y-70750000D03*
X166000000Y-52750000D03*
X172025000Y-61750000D03*
X176250000Y-52600000D03*
X173750000Y-52600000D03*
X171725000Y-83000000D03*
X151759517Y-97431269D03*
X175750000Y-95800000D03*
X198500000Y-55050000D03*
X163000000Y-72475000D03*
X196525000Y-89000000D03*
X157975000Y-95550000D03*
X157475000Y-62250000D03*
X166250000Y-67225000D03*
X183500000Y-56650000D03*
X164000000Y-62775000D03*
X158250000Y-54750000D03*
X163000000Y-77975000D03*
X152975000Y-69000000D03*
X195000000Y-90475000D03*
X192570000Y-77950000D03*
X168000000Y-67225000D03*
X153525000Y-78000000D03*
X190750000Y-95200000D03*
X189150000Y-66600000D03*
X176025000Y-61750000D03*
X163475000Y-58000000D03*
X155836765Y-72913235D03*
X154500000Y-59499998D03*
X163000000Y-64475000D03*
X198331117Y-52668883D03*
X196500000Y-67750000D03*
X188250000Y-70525000D03*
X194500000Y-58500000D03*
X159500000Y-71275000D03*
X184250000Y-77225000D03*
%TO.N,+3.3V*%
X182500000Y-83025000D03*
%TO.N,GND*%
X163000000Y-83275000D03*
X157750000Y-72000000D03*
%TO.N,Net-(J1-DP1)*%
X190575000Y-75250000D03*
X194250000Y-74238220D03*
%TO.N,Net-(J1-DN1)*%
X190575000Y-73750000D03*
%TO.N,Net-(J1-CC2)*%
X194175000Y-73250000D03*
%TO.N,Net-(J1-CC1)*%
X194175000Y-75760000D03*
%TO.N,/SD_CLK*%
X181500000Y-64250000D03*
%TO.N,/SD_DAT1*%
X180000000Y-65500000D03*
%TO.N,+3.3V*%
X163000000Y-81725000D03*
X154500000Y-64000000D03*
X163000000Y-74025000D03*
X162250000Y-61225000D03*
X181250000Y-96300000D03*
X195750000Y-58900000D03*
X153000000Y-70725000D03*
X174475000Y-61750000D03*
X159500000Y-69725000D03*
X183500000Y-61900000D03*
%TO.N,GND*%
X182500000Y-81475000D03*
%TO.N,+3.3V*%
X164000000Y-61225000D03*
X154525000Y-69000000D03*
X177025000Y-83000000D03*
X164575000Y-75750000D03*
X156025000Y-58000000D03*
X159525000Y-93800000D03*
X170750000Y-95750000D03*
X166525000Y-83000000D03*
X152000000Y-82225000D03*
X184750000Y-97250000D03*
X173275000Y-83000000D03*
X170475000Y-61750000D03*
X163250000Y-95750000D03*
X151987500Y-79512500D03*
X171000000Y-54400000D03*
X156429801Y-75575001D03*
X170750000Y-88750000D03*
X181250000Y-95200000D03*
X159250000Y-56500000D03*
X151975000Y-78000000D03*
X159500000Y-68275000D03*
X190750000Y-93000000D03*
X155124264Y-80250735D03*
X184250000Y-70450000D03*
X165750000Y-61225000D03*
X163000000Y-79525000D03*
X182275000Y-87000000D03*
X157750000Y-70450000D03*
X187425000Y-88500000D03*
D46*
X193275000Y-68500000D03*
D45*
X165250000Y-79525000D03*
X184250000Y-82275000D03*
X184250000Y-78775000D03*
X158070199Y-75575001D03*
X163000000Y-66025000D03*
%TO.N,/SD_CMD*%
X179400000Y-61900000D03*
%TO.N,/SD_DAT2*%
X183250000Y-62750000D03*
%TO.N,/SD_DAT0*%
X181250000Y-65500000D03*
%TO.N,/SD_DAT3*%
X184250000Y-63500000D03*
%TO.N,+5V*%
X197568731Y-96759517D03*
X152440786Y-53309214D03*
X161945650Y-51350000D03*
X188250000Y-68250000D03*
X153240483Y-97568731D03*
X184500000Y-67750000D03*
X198500000Y-56950000D03*
X180000000Y-56000000D03*
X196750000Y-52431269D03*
X198625000Y-85375000D03*
X194500000Y-61750000D03*
%TO.N,IMU1_MISO*%
X157250000Y-82250000D03*
X159000000Y-80500000D03*
%TO.N,IMU1_SCL*%
X155728520Y-84798379D03*
X179000000Y-87000000D03*
%TO.N,BARO_SCL*%
X154488235Y-73261765D03*
X159299265Y-73950735D03*
%TO.N,MAG_MISO*%
X164500000Y-87000000D03*
X161750000Y-91500000D03*
%TO.N,MAG_INT*%
X161750000Y-92250000D03*
X167500000Y-87000000D03*
%TO.N,MAG_SCL*%
X164174874Y-86349749D03*
X158250000Y-89750000D03*
%TO.N,Net-(C40-Pad2)*%
X179500000Y-83000000D03*
%TO.N,Net-(U9-~{RESET})*%
X183100000Y-97250000D03*
%TO.N,Net-(U9-~{SAFEBOOT})*%
X189075000Y-88500000D03*
%TO.N,/USB_DN*%
X187750000Y-63000000D03*
%TO.N,Net-(U15-DIN)*%
X195750000Y-92000000D03*
%TO.N,Net-(C42-Pad2)*%
X165025000Y-58000000D03*
%TO.N,Net-(U10-VFBSMPS)*%
X162962500Y-68750000D03*
X166250000Y-68775000D03*
%TO.N,/USB_DP*%
X187750000Y-61900000D03*
%TO.N,Net-(U10-VLXSMPS)*%
X164250000Y-67850000D03*
%TO.N,/EXT_VTX_IRC*%
X173750000Y-56100000D03*
X185074265Y-62425735D03*
%TO.N,/ESC_5V*%
X185000000Y-56650000D03*
X193500000Y-60251400D03*
%TO.N,/LEDC_PWM*%
X187750000Y-80250000D03*
%TO.N,Net-(U16-DIN)*%
X191927799Y-83275000D03*
%TO.N,/LEDB_PWM*%
X188925000Y-83250000D03*
X178750000Y-83750000D03*
%TO.N,/ELRS_UART_RX*%
X166750000Y-61500000D03*
X162035616Y-60348000D03*
%TO.N,Net-(R8-Pad1)*%
X155000700Y-62500000D03*
%TO.N,/SWO*%
X169672696Y-61191207D03*
X198600000Y-66650000D03*
%TO.N,/NRST*%
X162925000Y-75750000D03*
X199200000Y-67250000D03*
%TO.N,/SWCLK*%
X199000000Y-58250000D03*
X181900000Y-58250000D03*
%TO.N,/SDWIO*%
X186500000Y-59700000D03*
X198250000Y-59750000D03*
%TO.N,Net-(J1-VBUS-PadA4)*%
X195000000Y-76750000D03*
%TO.N,FSYNC*%
X152750000Y-83000000D03*
%TO.N,IMU2_SCL*%
X163086736Y-62086736D03*
%TO.N,GND*%
X197431269Y-98240483D03*
%TD*%
D47*
%TO.N,/EXT_PWM_BZ*%
X181500000Y-59825000D02*
X181500000Y-59041176D01*
X181500000Y-59041176D02*
X180699000Y-58240176D01*
X180699000Y-58240176D02*
X180699000Y-54549000D01*
X180699000Y-54549000D02*
X178750000Y-52600000D01*
%TO.N,/EXT_UART_MISO*%
X163000000Y-87250000D02*
X159750000Y-84000000D01*
%TO.N,+3.3V*%
X186425000Y-64750000D02*
X187500000Y-64750000D01*
X187500000Y-64750000D02*
X188000000Y-64250000D01*
X186425000Y-67250000D02*
X184950000Y-67250000D01*
X184950000Y-67250000D02*
X184300000Y-66600000D01*
X181500000Y-85175000D02*
X181500000Y-84025000D01*
X181500000Y-84025000D02*
X182500000Y-83025000D01*
%TO.N,GND*%
X193500000Y-66637500D02*
X193500000Y-66400000D01*
X193500000Y-66400000D02*
X192850000Y-65750000D01*
X192850000Y-64862500D02*
X192850000Y-65750000D01*
%TO.N,FSYNC*%
X160000000Y-73500000D02*
X159250000Y-72750000D01*
X160000000Y-73958824D02*
X160000000Y-73500000D01*
X160291176Y-74250000D02*
X160000000Y-73958824D01*
X161075000Y-74250000D02*
X160291176Y-74250000D01*
%TO.N,GND*%
X156750000Y-91050000D02*
X155175000Y-91050000D01*
X155175000Y-91050000D02*
X155076000Y-91149000D01*
X155076000Y-91149000D02*
X154475000Y-91750000D01*
%TO.N,Net-(U6-C1)*%
X157987500Y-92050000D02*
X156325000Y-92050000D01*
X156325000Y-92050000D02*
X156025000Y-91750000D01*
%TO.N,Net-(C41-Pad2)*%
X185500000Y-59250000D02*
X185075000Y-59250000D01*
X185075000Y-59250000D02*
X184500000Y-59825000D01*
%TO.N,IMU2_MISO*%
X161075000Y-63250000D02*
X160291176Y-63250000D01*
X160291176Y-63250000D02*
X157201000Y-66340176D01*
X157201000Y-66340176D02*
X157201000Y-67088500D01*
X157201000Y-67088500D02*
X156662500Y-67088500D01*
X156662500Y-67088500D02*
X156662500Y-67162500D01*
%TO.N,IMU2_MOSI*%
X161075000Y-63750000D02*
X160291176Y-63750000D01*
X158101000Y-67498943D02*
X157748943Y-67851000D01*
X160291176Y-63750000D02*
X158101000Y-65940176D01*
X158101000Y-65940176D02*
X158101000Y-67498943D01*
X157748943Y-67851000D02*
X156526000Y-67851000D01*
X156526000Y-67851000D02*
X156000000Y-67325000D01*
X156500000Y-67825000D02*
X156500000Y-68000000D01*
X156000000Y-67325000D02*
X156500000Y-67825000D01*
%TO.N,IMU2_SCL*%
X155500000Y-67750000D02*
X155750000Y-68000000D01*
X155500000Y-67325000D02*
X155500000Y-67750000D01*
%TO.N,+3.3V*%
X160000000Y-60297499D02*
X160000000Y-60750000D01*
X160000000Y-60750000D02*
X160475000Y-61225000D01*
X160000000Y-60297499D02*
X159702500Y-59999999D01*
%TO.N,GND*%
X159702500Y-59500000D02*
X160000000Y-59500000D01*
X160000000Y-59500000D02*
X160750000Y-60250000D01*
%TO.N,+3.3V*%
X160475000Y-61225000D02*
X162250000Y-61225000D01*
%TO.N,IMU3_MISO*%
X173000000Y-59825000D02*
X173000000Y-61050000D01*
X173000000Y-61050000D02*
X173100000Y-61150000D01*
X173100000Y-61150000D02*
X173000000Y-61250000D01*
%TO.N,IMU3_MOSI*%
X172000000Y-58700000D02*
X171900000Y-58600000D01*
X172000000Y-59825000D02*
X172000000Y-58700000D01*
%TO.N,IMU3_SCL*%
X172500000Y-58000000D02*
X172500000Y-59825000D01*
%TO.N,IMU3_MOSI*%
X159059598Y-59466239D02*
X159059598Y-59672184D01*
X159059598Y-59672184D02*
X158731783Y-59999999D01*
X158731783Y-59999999D02*
X157797500Y-59999999D01*
%TO.N,IMU3_SCL*%
X158445998Y-58936402D02*
X158445998Y-59405263D01*
X158445998Y-59405263D02*
X158351261Y-59500000D01*
X158351261Y-59500000D02*
X157797500Y-59500000D01*
%TO.N,IMU3_MISO*%
X157999999Y-61099244D02*
X158222909Y-61322154D01*
X157999999Y-60706500D02*
X157999999Y-61099244D01*
%TO.N,GND*%
X157797500Y-59000001D02*
X157500000Y-58702501D01*
X157500000Y-58702501D02*
X157500000Y-56700000D01*
X157500000Y-56700000D02*
X157700000Y-56500000D01*
%TO.N,+3.3V*%
X159500001Y-58293500D02*
X159500001Y-56750001D01*
X159500001Y-56750001D02*
X159250000Y-56500000D01*
%TO.N,FSYNC*%
X160101251Y-58601251D02*
X159702500Y-59000001D01*
X160101251Y-58101251D02*
X160101251Y-58601251D01*
X152374000Y-67626000D02*
X153837500Y-66162500D01*
X153837500Y-66162500D02*
X154337500Y-66162500D01*
X153869699Y-82639000D02*
X153111000Y-82639000D01*
X153111000Y-82639000D02*
X152750000Y-83000000D01*
%TO.N,Net-(U10-BOOT0)*%
X167500000Y-59825000D02*
X167500000Y-62000000D01*
X167500000Y-62000000D02*
X167250000Y-62250000D01*
%TO.N,IMU3_INT*%
X159500001Y-60706500D02*
X159500001Y-61458825D01*
X159500001Y-61458825D02*
X160291176Y-62250000D01*
X160291176Y-62250000D02*
X161075000Y-62250000D01*
%TO.N,GND*%
X155000000Y-67325000D02*
X154650000Y-67325000D01*
X163475000Y-58000000D02*
X164500000Y-59025000D01*
X192570000Y-71550000D02*
X192570000Y-71005000D01*
X161075000Y-64250000D02*
X162775000Y-64250000D01*
X152292001Y-84067001D02*
X152000000Y-83775000D01*
X154999999Y-82000000D02*
X154999999Y-80974999D01*
X166225000Y-67250000D02*
X162858824Y-67250000D01*
X155000000Y-65500000D02*
X155000000Y-65250000D01*
X164000000Y-83975000D02*
X164975000Y-83000000D01*
X196500000Y-67750000D02*
X198368500Y-65881500D01*
X155000000Y-65250000D02*
X155250000Y-65000000D01*
X175500000Y-85175000D02*
X175500000Y-83025000D01*
X181000000Y-85175000D02*
X181000000Y-83025000D01*
X164500000Y-59025000D02*
X164500000Y-59825000D01*
X162399000Y-79773943D02*
X162399000Y-78576000D01*
X162399000Y-78576000D02*
X163000000Y-77975000D01*
X184000000Y-57150000D02*
X184000000Y-59825000D01*
X182100000Y-66850000D02*
X182100000Y-66600000D01*
X154999999Y-80974999D02*
X153525000Y-79500000D01*
X182000000Y-85958824D02*
X180958824Y-87000000D01*
X161124000Y-68201000D02*
X161075000Y-68250000D01*
X198500000Y-55050000D02*
X198500000Y-52837765D01*
X175500000Y-61225000D02*
X176025000Y-61750000D01*
X183500000Y-56650000D02*
X184000000Y-57150000D01*
X154337500Y-67500000D02*
X154337500Y-67637500D01*
X182500000Y-57650000D02*
X182500000Y-59825000D01*
X155975000Y-72775000D02*
X155836765Y-72913235D01*
X196750000Y-89225000D02*
X196525000Y-89000000D01*
X197325000Y-68575000D02*
X196500000Y-67750000D01*
X184500000Y-71750000D02*
X186425000Y-71750000D01*
X161075000Y-80250000D02*
X161922943Y-80250000D01*
X155325000Y-70400000D02*
X156725000Y-69000000D01*
X186425000Y-75250000D02*
X187208824Y-75250000D01*
X155325000Y-70775000D02*
X155325000Y-70400000D01*
X154337500Y-67637500D02*
X154237500Y-67737500D01*
X181000000Y-83025000D02*
X181025000Y-83000000D01*
X163250000Y-91250001D02*
X162549999Y-90550000D01*
X197325000Y-70430000D02*
X197325000Y-68575000D01*
X160025000Y-67250000D02*
X159500000Y-66725000D01*
X161075000Y-73250000D02*
X162225000Y-73250000D01*
X180958824Y-87000000D02*
X180725000Y-87000000D01*
X187476000Y-75517176D02*
X187476000Y-77482824D01*
X155500000Y-65500000D02*
X155500000Y-65250000D01*
X154500000Y-83778000D02*
X154210999Y-84067001D01*
X164000000Y-85175000D02*
X164000000Y-83975000D01*
X187208824Y-77750000D02*
X186425000Y-77750000D01*
X186425000Y-68250000D02*
X185349943Y-68250000D01*
X158500000Y-91002000D02*
X158500000Y-90537500D01*
X183750000Y-68500000D02*
X182100000Y-66850000D01*
X172500000Y-85175000D02*
X172500000Y-83775000D01*
X195447500Y-80947500D02*
X197325000Y-79070000D01*
X198500000Y-52837765D02*
X198331117Y-52668883D01*
X155325000Y-72225000D02*
X155325000Y-72401470D01*
X158452000Y-91050000D02*
X158500000Y-91002000D01*
X163000000Y-85175000D02*
X163000000Y-83275000D01*
X166000000Y-52750000D02*
X166000000Y-52600000D01*
X156725000Y-69000000D02*
X157525000Y-69000000D01*
X192570000Y-77950000D02*
X192570000Y-78495000D01*
X183500000Y-56650000D02*
X182500000Y-57650000D01*
X162858824Y-67250000D02*
X161907824Y-68201000D01*
X187208824Y-75250000D02*
X187476000Y-75517176D01*
X162225000Y-73250000D02*
X163000000Y-72475000D01*
X198368500Y-65881500D02*
X198368500Y-64905000D01*
X172500000Y-83775000D02*
X171725000Y-83000000D01*
X155975000Y-72225000D02*
X155975000Y-72775000D01*
X193570000Y-79070000D02*
X193145000Y-79070000D01*
X193072201Y-83177799D02*
X193072201Y-83275000D01*
X161922943Y-80250000D02*
X162399000Y-79773943D01*
X155500000Y-65250000D02*
X155250000Y-65000000D01*
X198331117Y-52668883D02*
X198230966Y-52568731D01*
X187476000Y-77482824D02*
X187208824Y-77750000D01*
X184250000Y-72000000D02*
X185500000Y-73250000D01*
X190750000Y-97400000D02*
X189400000Y-97400000D01*
X184250000Y-72000000D02*
X184500000Y-71750000D01*
X171500000Y-61225000D02*
X172025000Y-61750000D01*
X185349943Y-68250000D02*
X185099943Y-68500000D01*
X184250000Y-80725000D02*
X184775000Y-81250000D01*
X154337500Y-67162500D02*
X154337500Y-67500000D01*
X195447500Y-80947500D02*
X195302500Y-80947500D01*
X162549999Y-90550000D02*
X159512500Y-90550000D01*
X192570000Y-78495000D02*
X193145000Y-79070000D01*
X185500000Y-73250000D02*
X186425000Y-73250000D01*
X166250000Y-67225000D02*
X166225000Y-67250000D01*
X196750000Y-88775000D02*
X196525000Y-89000000D01*
X154650000Y-67325000D02*
X154237500Y-67737500D01*
X163250000Y-92250000D02*
X163250000Y-91250001D01*
X157987500Y-91050000D02*
X158452000Y-91050000D01*
X184775000Y-81250000D02*
X186425000Y-81250000D01*
X154210999Y-84067001D02*
X152292001Y-84067001D01*
X175500000Y-83025000D02*
X175475000Y-83000000D01*
X154337500Y-66662500D02*
X154337500Y-67500000D01*
X161075000Y-67250000D02*
X160025000Y-67250000D01*
X182000000Y-85175000D02*
X182000000Y-85958824D01*
X162775000Y-64250000D02*
X163000000Y-64475000D01*
X186425000Y-77750000D02*
X184775000Y-77750000D01*
X195447500Y-80947500D02*
X193570000Y-79070000D01*
X154237500Y-67737500D02*
X152975000Y-69000000D01*
X192570000Y-71005000D02*
X193145000Y-70430000D01*
X175500000Y-59825000D02*
X175500000Y-61225000D01*
X185099943Y-68500000D02*
X183750000Y-68500000D01*
X161907824Y-68201000D02*
X161124000Y-68201000D01*
X184775000Y-77750000D02*
X184250000Y-77225000D01*
X155325000Y-72401470D02*
X155836765Y-72913235D01*
X195302500Y-80947500D02*
X193072201Y-83177799D01*
X189400000Y-97400000D02*
X189000000Y-97000000D01*
X171500000Y-59825000D02*
X171500000Y-61225000D01*
%TO.N,Net-(J1-DP1)*%
X192570000Y-75000000D02*
X190825000Y-75000000D01*
X193988220Y-74238220D02*
X193750000Y-74000000D01*
X190825000Y-75000000D02*
X190575000Y-75250000D01*
X194250000Y-74238220D02*
X193988220Y-74238220D01*
X193750000Y-74000000D02*
X192570000Y-74000000D01*
%TO.N,Net-(J1-DN1)*%
X193446000Y-74767176D02*
X193178824Y-74500000D01*
X193178824Y-75500000D02*
X193446000Y-75232824D01*
X191325000Y-74500000D02*
X190575000Y-73750000D01*
X193446000Y-75232824D02*
X193446000Y-74767176D01*
X192570000Y-75500000D02*
X193178824Y-75500000D01*
X192570000Y-74500000D02*
X191325000Y-74500000D01*
X193178824Y-74500000D02*
X192570000Y-74500000D01*
%TO.N,Net-(J1-CC2)*%
X193925000Y-73000000D02*
X194175000Y-73250000D01*
X192570000Y-73000000D02*
X193925000Y-73000000D01*
%TO.N,Net-(J1-CC1)*%
X192570000Y-76000000D02*
X193935000Y-76000000D01*
X193935000Y-76000000D02*
X194175000Y-75760000D01*
%TO.N,/SD_CLK*%
X181500000Y-64250000D02*
X180000000Y-62750000D01*
X180000000Y-62750000D02*
X180000000Y-59825000D01*
%TO.N,/SD_DAT1*%
X184899000Y-64899000D02*
X180601000Y-64899000D01*
X185250000Y-65250000D02*
X185000000Y-65000000D01*
X185000000Y-65000000D02*
X184899000Y-64899000D01*
X180601000Y-64899000D02*
X180000000Y-65500000D01*
X186425000Y-65250000D02*
X185250000Y-65250000D01*
%TO.N,+3.3V*%
X161075000Y-64750000D02*
X161858824Y-64750000D01*
X171000000Y-54400000D02*
X171000000Y-56100000D01*
X182500000Y-85175000D02*
X182500000Y-86775000D01*
X183500000Y-61900000D02*
X183500000Y-59825000D01*
X161075000Y-73750000D02*
X162725000Y-73750000D01*
X192850000Y-66637500D02*
X192850000Y-68075000D01*
X171000000Y-52600000D02*
X171000000Y-54400000D01*
X175000000Y-59825000D02*
X175000000Y-61225000D01*
X173000000Y-85175000D02*
X173000000Y-83275000D01*
X184250000Y-70450000D02*
X185050000Y-71250000D01*
X161075000Y-67750000D02*
X160025000Y-67750000D01*
X173000000Y-83275000D02*
X173275000Y-83000000D01*
X183500000Y-61900000D02*
X183150000Y-61900000D01*
X155725000Y-71250000D02*
X155000000Y-71250000D01*
X155975000Y-71000000D02*
X155725000Y-71250000D01*
X161075000Y-83250000D02*
X161858824Y-83250000D01*
X164616176Y-61225000D02*
X165750000Y-61225000D01*
X161075000Y-81250000D02*
X161824999Y-81250000D01*
X160025000Y-67750000D02*
X159500000Y-68275000D01*
X154337500Y-64663200D02*
X155000700Y-64000000D01*
X162325000Y-80750000D02*
X162787500Y-80287500D01*
X164500000Y-85175000D02*
X164500000Y-84391176D01*
X184775000Y-78250000D02*
X184250000Y-78775000D01*
X156000000Y-64000000D02*
X155000700Y-64000000D01*
X176000000Y-84025000D02*
X177025000Y-83000000D01*
X192850000Y-68075000D02*
X193275000Y-68500000D01*
X161858824Y-64750000D02*
X163000000Y-65891176D01*
X171000000Y-59825000D02*
X171000000Y-61225000D01*
X165891176Y-83000000D02*
X166525000Y-83000000D01*
X159975000Y-69250000D02*
X159500000Y-69725000D01*
X158500000Y-92062500D02*
X158500000Y-92775000D01*
X156000000Y-65500000D02*
X156000000Y-64000000D01*
X171000000Y-61225000D02*
X170475000Y-61750000D01*
X183000000Y-61750000D02*
X183000000Y-59825000D01*
X155499998Y-80626469D02*
X155124264Y-80250735D01*
X161075000Y-80750000D02*
X162325000Y-80750000D01*
X162725000Y-73750000D02*
X163000000Y-74025000D01*
X163500000Y-59825000D02*
X163500000Y-60725000D01*
X154337500Y-65662500D02*
X154337500Y-64663200D01*
X164500000Y-84391176D02*
X165891176Y-83000000D01*
X154675000Y-70775000D02*
X154675000Y-69150000D01*
X186425000Y-78250000D02*
X184775000Y-78250000D01*
X154675000Y-70925000D02*
X154675000Y-70775000D01*
X164000000Y-59825000D02*
X164000000Y-60608824D01*
X155499998Y-82000000D02*
X155499998Y-80626469D01*
X154675000Y-69150000D02*
X154525000Y-69000000D01*
X161075000Y-69250000D02*
X159975000Y-69250000D01*
X163000000Y-65891176D02*
X163000000Y-66025000D01*
X152086001Y-82138999D02*
X152000000Y-82225000D01*
X161824999Y-81250000D02*
X162787500Y-80287500D01*
X184250000Y-82275000D02*
X184775000Y-81750000D01*
X159000000Y-93275000D02*
X159525000Y-93800000D01*
X153869699Y-82138999D02*
X152086001Y-82138999D01*
X163000000Y-60475000D02*
X162250000Y-61225000D01*
X184775000Y-81750000D02*
X186425000Y-81750000D01*
X182500000Y-86775000D02*
X182275000Y-87000000D01*
X161858824Y-83250000D02*
X163000000Y-82108824D01*
X162787500Y-80287500D02*
X163000000Y-80074999D01*
X155975000Y-70775000D02*
X155975000Y-71000000D01*
X163500000Y-60725000D02*
X164000000Y-61225000D01*
X183150000Y-61900000D02*
X183000000Y-61750000D01*
X158500000Y-92775000D02*
X159000000Y-93275000D01*
X163000000Y-59825000D02*
X163000000Y-60475000D01*
X164000000Y-60608824D02*
X164616176Y-61225000D01*
X155000000Y-71250000D02*
X154675000Y-70925000D01*
X175000000Y-61225000D02*
X174475000Y-61750000D01*
X185050000Y-71250000D02*
X186425000Y-71250000D01*
X159000000Y-92062500D02*
X159000000Y-93275000D01*
X176000000Y-85175000D02*
X176000000Y-84025000D01*
X163000000Y-80074999D02*
X163000000Y-79525000D01*
X163000000Y-82108824D02*
X163000000Y-81725000D01*
%TO.N,/SD_CMD*%
X178500000Y-59825000D02*
X178500000Y-61000000D01*
X178500000Y-61000000D02*
X179400000Y-61900000D01*
%TO.N,/SD_DAT2*%
X183250000Y-62750000D02*
X183141176Y-62750000D01*
X183141176Y-62750000D02*
X181000000Y-60608824D01*
X181000000Y-60608824D02*
X181000000Y-59825000D01*
%TO.N,/SD_DAT0*%
X185000000Y-65500000D02*
X181250000Y-65500000D01*
X185250000Y-65750000D02*
X185000000Y-65500000D01*
X186425000Y-65750000D02*
X185250000Y-65750000D01*
%TO.N,/SD_DAT3*%
X184250000Y-63500000D02*
X182750000Y-63500000D01*
X182750000Y-63500000D02*
X180500000Y-61250000D01*
X180500000Y-61250000D02*
X180500000Y-59825000D01*
%TO.N,GPS_UART_MOSI*%
X182150000Y-90800000D02*
X181250000Y-90800000D01*
X183500000Y-89450000D02*
X182150000Y-90800000D01*
X183500000Y-85175000D02*
X183500000Y-89450000D01*
%TO.N,GPS_UART_MISO*%
X183000000Y-88428014D02*
X181728014Y-89700000D01*
X183000000Y-85175000D02*
X183000000Y-88428014D01*
X181728014Y-89700000D02*
X181250000Y-89700000D01*
%TO.N,Net-(U1-OUT)*%
X192200000Y-68025000D02*
X191725000Y-68500000D01*
X192200000Y-66637500D02*
X192200000Y-68025000D01*
%TO.N,Net-(U1-IN)*%
X192200000Y-64862500D02*
X192200000Y-64325000D01*
X192200000Y-64325000D02*
X193525000Y-63000000D01*
%TO.N,+5V*%
X152431269Y-53299697D02*
X152431269Y-53240483D01*
X160700000Y-52595650D02*
X161945650Y-51350000D01*
X192482799Y-84780000D02*
X191927799Y-84225000D01*
X160700000Y-52600000D02*
X160700000Y-52595650D01*
X184500000Y-67750000D02*
X186425000Y-67750000D01*
X191250000Y-63750000D02*
X191975000Y-63025000D01*
X196750000Y-52431269D02*
X196759517Y-52431269D01*
X198625000Y-85375000D02*
X198565000Y-85375000D01*
X198565000Y-85375000D02*
X197970000Y-84780000D01*
X194500000Y-61750000D02*
X194500000Y-62025000D01*
X194500000Y-61750000D02*
X193225000Y-61750000D01*
X193225000Y-61750000D02*
X191975000Y-63000000D01*
X188250000Y-68250000D02*
X188854412Y-68250000D01*
X197970000Y-84780000D02*
X192482799Y-84780000D01*
X180000000Y-56000000D02*
X179900000Y-56100000D01*
X179900000Y-56100000D02*
X176250000Y-56100000D01*
X152440786Y-53309214D02*
X152431269Y-53299697D01*
X191250000Y-65854412D02*
X191250000Y-63750000D01*
X188854412Y-68250000D02*
X191250000Y-65854412D01*
X191975000Y-63025000D02*
X191975000Y-63000000D01*
%TO.N,IMU1_INT*%
X156130299Y-81119701D02*
X159000000Y-78250000D01*
X159000000Y-78250000D02*
X161075000Y-78250000D01*
X156130299Y-82138999D02*
X156130299Y-81119701D01*
%TO.N,IMU1_MISO*%
X160250000Y-79250000D02*
X161075000Y-79250000D01*
X159000000Y-80500000D02*
X160250000Y-79250000D01*
X157250000Y-82250000D02*
X157250000Y-83000000D01*
X157250000Y-83000000D02*
X156610999Y-83639001D01*
X156610999Y-83639001D02*
X156130299Y-83639001D01*
%TO.N,IMU1_SCL*%
X179500000Y-85175000D02*
X179500000Y-86500000D01*
X154999999Y-84069858D02*
X155728520Y-84798379D01*
X179500000Y-86500000D02*
X179000000Y-87000000D01*
X154999999Y-83778000D02*
X154999999Y-84069858D01*
%TO.N,IMU1_MOSI*%
X159750000Y-78750000D02*
X158250000Y-80250000D01*
X155971998Y-84250000D02*
X155499998Y-83778000D01*
X158250000Y-83250000D02*
X157250000Y-84250000D01*
X157250000Y-84250000D02*
X155971998Y-84250000D01*
X158250000Y-80250000D02*
X158250000Y-83250000D01*
X161075000Y-78750000D02*
X159750000Y-78750000D01*
%TO.N,BARO_MISO*%
X154025000Y-71150000D02*
X154624000Y-71749000D01*
X159750000Y-75250000D02*
X161075000Y-75250000D01*
X156451000Y-71951000D02*
X159750000Y-75250000D01*
X156451000Y-71749000D02*
X156451000Y-71951000D01*
X154025000Y-70775000D02*
X154025000Y-71150000D01*
X154624000Y-71749000D02*
X156451000Y-71749000D01*
%TO.N,BARO_SCL*%
X154488235Y-73261765D02*
X154025000Y-72798530D01*
X154025000Y-72798530D02*
X154025000Y-72225000D01*
X161075000Y-74750000D02*
X160098530Y-74750000D01*
X160098530Y-74750000D02*
X159299265Y-73950735D01*
%TO.N,BARO_MOSI*%
X158798432Y-74854901D02*
X159596766Y-75653234D01*
X154675000Y-72225000D02*
X154675000Y-72600000D01*
X154675000Y-72600000D02*
X156929901Y-74854901D01*
X159596766Y-75653234D02*
X159693531Y-75750000D01*
X156929901Y-74854901D02*
X158798432Y-74854901D01*
X159379199Y-75435668D02*
X159596766Y-75653234D01*
X159693531Y-75750000D02*
X161075000Y-75750000D01*
%TO.N,MAG_MISO*%
X160750000Y-91050000D02*
X159512500Y-91050000D01*
X166000000Y-85958824D02*
X164958824Y-87000000D01*
X161200000Y-91500000D02*
X160750000Y-91050000D01*
X166000000Y-85175000D02*
X166000000Y-85958824D01*
X161750000Y-91500000D02*
X161200000Y-91500000D01*
X164958824Y-87000000D02*
X164500000Y-87000000D01*
%TO.N,MAG_INT*%
X159512500Y-92050000D02*
X159712500Y-92250000D01*
X159712500Y-92250000D02*
X161750000Y-92250000D01*
X167500000Y-87000000D02*
X167500000Y-85175000D01*
%TO.N,MAG_MOSI*%
X167000000Y-87349943D02*
X166500000Y-86849943D01*
X159024000Y-90074000D02*
X166346654Y-90074000D01*
X159000000Y-90537500D02*
X159000000Y-90098000D01*
X159000000Y-90098000D02*
X159003000Y-90101000D01*
X166500000Y-86849943D02*
X166500000Y-85175000D01*
X159003000Y-90101000D02*
X159024000Y-90101000D01*
X166346654Y-90074000D02*
X167000000Y-89420654D01*
X159024000Y-90101000D02*
X159024000Y-90074000D01*
X167000000Y-89420654D02*
X167000000Y-87349943D01*
%TO.N,MAG_SCL*%
X164174874Y-86349749D02*
X165109075Y-86349749D01*
X165500000Y-85958824D02*
X165500000Y-85175000D01*
X165109075Y-86349749D02*
X165500000Y-85958824D01*
X157987500Y-90550000D02*
X157987500Y-90012500D01*
X157987500Y-90012500D02*
X158250000Y-89750000D01*
%TO.N,Net-(U10-PH0)*%
X158745198Y-76750000D02*
X161075000Y-76750000D01*
X158070199Y-77424999D02*
X158745198Y-76750000D01*
%TO.N,Net-(C40-Pad2)*%
X179500000Y-83000000D02*
X180500000Y-84000000D01*
X180500000Y-84000000D02*
X180500000Y-85175000D01*
%TO.N,Net-(U9-~{RESET})*%
X181250000Y-97400000D02*
X182950000Y-97400000D01*
X182950000Y-97400000D02*
X183100000Y-97250000D01*
%TO.N,Net-(U9-~{SAFEBOOT})*%
X189175000Y-88600000D02*
X189075000Y-88500000D01*
X190750000Y-88600000D02*
X189175000Y-88600000D01*
%TO.N,/USB_DN*%
X187500000Y-62750000D02*
X187750000Y-63000000D01*
X186425000Y-62750000D02*
X187500000Y-62750000D01*
%TO.N,Net-(U15-DIN)*%
X198240483Y-97431269D02*
X198509891Y-97161861D01*
X198509891Y-94759891D02*
X195750000Y-92000000D01*
X198509891Y-97161861D02*
X198509891Y-94759891D01*
%TO.N,/ESC_USART_MISO*%
X187208824Y-66250000D02*
X186425000Y-66250000D01*
X186500000Y-56650000D02*
X186500000Y-57524000D01*
X188750000Y-64708824D02*
X187208824Y-66250000D01*
X186500000Y-57524000D02*
X188750000Y-59774000D01*
X188750000Y-59774000D02*
X188750000Y-64708824D01*
%TO.N,Net-(C42-Pad2)*%
X165025000Y-59800000D02*
X165000000Y-59825000D01*
X165025000Y-58000000D02*
X165025000Y-59800000D01*
%TO.N,/ESC_USART_DE*%
X190000000Y-57150000D02*
X190000000Y-64750000D01*
X189500000Y-56650000D02*
X190000000Y-57150000D01*
X190000000Y-64750000D02*
X187476000Y-67274000D01*
X187250000Y-68750000D02*
X186425000Y-68750000D01*
X187476000Y-68524000D02*
X187250000Y-68750000D01*
X187476000Y-67274000D02*
X187476000Y-68524000D01*
%TO.N,Net-(U10-VCAPDSI)*%
X185000000Y-74000000D02*
X185250000Y-73750000D01*
X185500000Y-76750000D02*
X185000000Y-76250000D01*
X185000000Y-76250000D02*
X185000000Y-75500000D01*
X185250000Y-77250000D02*
X185000000Y-77000000D01*
X185500000Y-76750000D02*
X186425000Y-76750000D01*
X185250000Y-73750000D02*
X186425000Y-73750000D01*
X186425000Y-77250000D02*
X185250000Y-77250000D01*
X185000000Y-75500000D02*
X185000000Y-74000000D01*
X185000000Y-77000000D02*
X185000000Y-75500000D01*
%TO.N,Net-(U9-RF_IN)*%
X191650000Y-96300000D02*
X190750000Y-96300000D01*
X192250000Y-95700000D02*
X191650000Y-96300000D01*
X192250000Y-90225000D02*
X192250000Y-95700000D01*
X193475000Y-89000000D02*
X192250000Y-90225000D01*
%TO.N,Net-(U12-DIN)*%
X150750000Y-56511299D02*
X150750000Y-53656496D01*
X152431269Y-96759517D02*
X150750000Y-95078248D01*
X150750000Y-95078248D02*
X150750000Y-67000000D01*
X151642400Y-66107600D02*
X151642400Y-64046706D01*
X150750000Y-53656496D02*
X151769034Y-52637462D01*
X151642400Y-57403699D02*
X150750000Y-56511299D01*
X150750000Y-67000000D02*
X151642400Y-66107600D01*
X151642400Y-58896299D02*
X151642400Y-57403699D01*
X151000000Y-59538699D02*
X151642400Y-58896299D01*
X151000000Y-63404306D02*
X151000000Y-59538699D01*
X151642400Y-64046706D02*
X151000000Y-63404306D01*
%TO.N,/ESC_USART_MOSI*%
X186425000Y-66750000D02*
X187208824Y-66750000D01*
X189250000Y-64708824D02*
X189250000Y-58428014D01*
X187208824Y-66750000D02*
X189250000Y-64708824D01*
X188849000Y-58027014D02*
X188849000Y-57499000D01*
X189250000Y-58428014D02*
X188849000Y-58027014D01*
X188849000Y-57499000D02*
X188000000Y-56650000D01*
%TO.N,Net-(U10-VFBSMPS)*%
X161075000Y-69750000D02*
X161962500Y-69750000D01*
X165750000Y-69750000D02*
X166250000Y-69250000D01*
X166250000Y-69250000D02*
X166250000Y-68775000D01*
X161962500Y-69750000D02*
X162962500Y-68750000D01*
X161075000Y-69750000D02*
X165750000Y-69750000D01*
%TO.N,Net-(U14-DIN)*%
X153578248Y-99250000D02*
X152568731Y-98240483D01*
X195500000Y-99250000D02*
X153578248Y-99250000D01*
X196759517Y-97990483D02*
X195500000Y-99250000D01*
X196759517Y-97568731D02*
X196759517Y-97990483D01*
%TO.N,/USB_DP*%
X187400000Y-62250000D02*
X187750000Y-61900000D01*
X186425000Y-62250000D02*
X187400000Y-62250000D01*
%TO.N,Net-(U10-VLXSMPS)*%
X164250000Y-67850000D02*
X162900000Y-67850000D01*
X162900000Y-67850000D02*
X162000000Y-68750000D01*
X162000000Y-68750000D02*
X161075000Y-68750000D01*
%TO.N,/EXT_VTX_IRC*%
X186425000Y-63750000D02*
X185641176Y-63750000D01*
X185074265Y-63183089D02*
X185074265Y-62425735D01*
X185641176Y-63750000D02*
X185074265Y-63183089D01*
%TO.N,/EXT_PWM_S2*%
X167499000Y-53601000D02*
X168500000Y-52600000D01*
X168500000Y-59000000D02*
X167499000Y-57999000D01*
X167499000Y-57999000D02*
X167499000Y-53601000D01*
X168500000Y-59825000D02*
X168500000Y-59000000D01*
%TO.N,Net-(U12-DOUT)*%
X196412235Y-50750000D02*
X197421752Y-51759517D01*
X153250000Y-52500000D02*
X155000000Y-50750000D01*
X155000000Y-50750000D02*
X196412235Y-50750000D01*
%TO.N,/EXT_PWM_S1*%
X169000000Y-59825000D02*
X169000000Y-56600000D01*
X169000000Y-56600000D02*
X168500000Y-56100000D01*
%TO.N,/EXT_UART_MOSI*%
X163250000Y-88750000D02*
X158750000Y-84250000D01*
X158750000Y-82520588D02*
X159520588Y-81750000D01*
X158750000Y-84250000D02*
X158750000Y-82520588D01*
X159520588Y-81750000D02*
X161075000Y-81750000D01*
%TO.N,/EXT_UART_MISO*%
X165250000Y-88750000D02*
X163750000Y-87250000D01*
X161075000Y-82250000D02*
X160291176Y-82250000D01*
X159750000Y-82791176D02*
X159750000Y-84000000D01*
X165750000Y-88750000D02*
X165250000Y-88750000D01*
X163750000Y-87250000D02*
X163000000Y-87250000D01*
X160291176Y-82250000D02*
X159750000Y-82791176D01*
%TO.N,/EXT_I2C_SCL*%
X170301000Y-87449000D02*
X171000000Y-86750000D01*
X165750000Y-92250000D02*
X165750000Y-92000000D01*
X169749000Y-87830346D02*
X170130346Y-87449000D01*
X171000000Y-86750000D02*
X171000000Y-85175000D01*
X170130346Y-87449000D02*
X170301000Y-87449000D01*
X165750000Y-92000000D02*
X169749000Y-88001000D01*
X169749000Y-88001000D02*
X169749000Y-87830346D01*
%TO.N,/EXT_I2C_SDA*%
X171767176Y-89732824D02*
X171767176Y-86226000D01*
X171500000Y-85958824D02*
X171500000Y-85175000D01*
X165750000Y-95750000D02*
X171767176Y-89732824D01*
X171767176Y-86226000D02*
X171500000Y-85958824D01*
%TO.N,/EXT_PWM_S4*%
X177000000Y-90750000D02*
X173250000Y-94500000D01*
X173250000Y-94500000D02*
X173250000Y-95800000D01*
X177000000Y-85175000D02*
X177000000Y-90750000D01*
%TO.N,/EXT_PWM_S3*%
X175000000Y-87050000D02*
X175000000Y-85175000D01*
X173250000Y-88800000D02*
X175000000Y-87050000D01*
%TO.N,/LEDC_PWM*%
X187750000Y-80250000D02*
X186425000Y-80250000D01*
%TO.N,/LEDB_PWM*%
X178500000Y-84000000D02*
X178500000Y-85175000D01*
X178750000Y-83750000D02*
X178500000Y-84000000D01*
%TO.N,/ELRS_UART_RX*%
X162035616Y-57435616D02*
X162035616Y-60348000D01*
X166000000Y-59825000D02*
X166000000Y-60608824D01*
X160700000Y-56100000D02*
X162035616Y-57435616D01*
X166750000Y-61358824D02*
X166750000Y-61500000D01*
X166000000Y-60608824D02*
X166750000Y-61358824D01*
%TO.N,/ELRS_UART_TX*%
X165500000Y-59041176D02*
X165500000Y-59825000D01*
X165626000Y-58915176D02*
X165500000Y-59041176D01*
X163200000Y-56100000D02*
X163974943Y-56100000D01*
X165626000Y-57751057D02*
X165626000Y-58915176D01*
X163974943Y-56100000D02*
X165626000Y-57751057D01*
%TO.N,/SWO*%
X170000000Y-60863903D02*
X170000000Y-59825000D01*
X199419500Y-65830500D02*
X198600000Y-66650000D01*
X169672696Y-61191207D02*
X170000000Y-60863903D01*
X198368500Y-63635000D02*
X198718500Y-63635000D01*
X199419500Y-64336000D02*
X199419500Y-65830500D01*
X198718500Y-63635000D02*
X199419500Y-64336000D01*
%TO.N,/NRST*%
X162925000Y-76683824D02*
X162925000Y-75750000D01*
X161858824Y-77750000D02*
X162925000Y-76683824D01*
X161075000Y-77750000D02*
X161858824Y-77750000D01*
%TO.N,/SWCLK*%
X182000000Y-58350000D02*
X181900000Y-58250000D01*
X199419500Y-61664000D02*
X198718500Y-62365000D01*
X182000000Y-59825000D02*
X182000000Y-58350000D01*
X199000000Y-58250000D02*
X199419500Y-58669500D01*
X199419500Y-58669500D02*
X199419500Y-61664000D01*
X198718500Y-62365000D02*
X198368500Y-62365000D01*
%TO.N,/SDWIO*%
X186425000Y-59775000D02*
X186500000Y-59700000D01*
X198250000Y-59750000D02*
X198250000Y-60976500D01*
X198250000Y-60976500D02*
X198368500Y-61095000D01*
X186425000Y-61750000D02*
X186425000Y-59775000D01*
%TO.N,Net-(J1-VBUS-PadA4)*%
X192760000Y-76960000D02*
X194790000Y-76960000D01*
X194790000Y-76960000D02*
X195000000Y-76750000D01*
X192570000Y-77150000D02*
X192760000Y-76960000D01*
%TO.N,IMU2_INT*%
X161075000Y-62750000D02*
X159374943Y-62750000D01*
X159374943Y-62750000D02*
X156662500Y-65462443D01*
X156662500Y-65462443D02*
X156662500Y-65662500D01*
%TO.N,IMU2_SCL*%
X163086736Y-62086736D02*
X162195560Y-62086736D01*
X161858824Y-61750000D02*
X161075000Y-61750000D01*
X162195560Y-62086736D02*
X161858824Y-61750000D01*
%TO.N,GND*%
X157250000Y-91550000D02*
X156750000Y-91050000D01*
X157987500Y-91550000D02*
X157250000Y-91550000D01*
X157987500Y-91050000D02*
X156750000Y-91050000D01*
%TO.N,Net-(J1-VBUS-PadA4)*%
X192760000Y-72540000D02*
X192570000Y-72350000D01*
X193960000Y-72540000D02*
X192760000Y-72540000D01*
X195000000Y-71500000D02*
X193960000Y-72540000D01*
%TD*%
M02*
