%TF.GenerationSoftware,KiCad,Pcbnew,9.0.1-9.0.1-0~ubuntu24.04.1*%
%TF.CreationDate,2025-06-01T23:52:21-05:00*%
%TF.ProjectId,FC,46432e6b-6963-4616-945f-706362585858,rev?*%
%TF.SameCoordinates,Original*%
%TF.FileFunction,Copper,L2,Inr*%
%TF.FilePolarity,Positive*%
%FSLAX46Y46*%
G04 Gerber Fmt 4.6, Leading zero omitted, Abs format (unit mm)*
G04 Created by KiCad (PCBNEW 9.0.1-9.0.1-0~ubuntu24.04.1) date 2025-06-01 23:52:21*
%MOMM*%
%LPD*%
G01*
G04 APERTURE LIST*
%TA.AperFunction,HeatsinkPad*%
%ADD10O,1.800000X1.000000*%
%TD*%
%TA.AperFunction,HeatsinkPad*%
%ADD11O,2.100000X1.000000*%
%TD*%
%TA.AperFunction,HeatsinkPad*%
%ADD12C,0.500000*%
%TD*%
%TA.AperFunction,ViaPad*%
%ADD13C,0.600000*%
%TD*%
%TA.AperFunction,ViaPad*%
%ADD14C,0.800000*%
%TD*%
%TA.AperFunction,Conductor*%
%ADD15C,0.200000*%
%TD*%
G04 APERTURE END LIST*
D10*
%TO.N,GND*%
%TO.C,J1*%
X197325000Y-70430000D03*
D11*
X193145000Y-70430000D03*
D10*
X197325000Y-79070000D03*
D11*
X193145000Y-79070000D03*
%TD*%
D12*
%TO.N,GND*%
%TO.C,U1*%
X192300000Y-65750000D03*
X193400000Y-65750000D03*
%TD*%
D13*
%TO.N,Net-(J1-VBUS-PadA4)*%
X195000000Y-71500000D03*
%TO.N,+3.3V*%
X188000000Y-64250000D03*
X184300000Y-66600000D03*
%TO.N,FSYNC*%
X159250000Y-72750000D03*
%TO.N,GND*%
X154475000Y-91750000D03*
%TO.N,Net-(U6-C1)*%
X156025000Y-91750000D03*
%TO.N,+3.3V*%
X175775000Y-54250000D03*
%TO.N,Net-(C41-Pad2)*%
X185500000Y-59250000D03*
X178000000Y-57800000D03*
%TO.N,GND*%
X174225000Y-58000000D03*
%TO.N,+3.3V*%
X176250000Y-67750000D03*
%TO.N,GND*%
X180750000Y-68500000D03*
%TO.N,IMU2_SCL*%
X155750000Y-68000000D03*
%TO.N,GND*%
X160750000Y-60250000D03*
%TO.N,+3.3V*%
X159025000Y-62250000D03*
%TO.N,IMU3_MISO*%
X173100000Y-61150000D03*
%TO.N,IMU3_MOSI*%
X171900000Y-58600000D03*
%TO.N,IMU3_SCL*%
X172500000Y-58000000D03*
%TO.N,IMU3_MISO*%
X158222909Y-61322154D03*
%TO.N,IMU3_MOSI*%
X159059598Y-59466239D03*
%TO.N,IMU3_SCL*%
X158445998Y-58936402D03*
%TO.N,FSYNC*%
X160101251Y-58101251D03*
X152374000Y-67626000D03*
%TO.N,Net-(U10-BOOT0)*%
X167250000Y-62250000D03*
%TO.N,GND*%
X163200000Y-52600000D03*
X164975000Y-83000000D03*
X181025000Y-83000000D03*
X181250000Y-88600000D03*
X155250000Y-65000000D03*
X156429801Y-77424999D03*
X165250000Y-77975000D03*
X154475000Y-58000000D03*
X153525000Y-79500000D03*
X157700000Y-56500000D03*
X189000000Y-97000000D03*
X157975000Y-93800000D03*
X166000000Y-56100000D03*
X182100000Y-66600000D03*
X195000000Y-87525000D03*
X159500000Y-66725000D03*
X163250000Y-92250000D03*
X166000000Y-54400000D03*
X175475000Y-83000000D03*
X152000000Y-83775000D03*
X153000000Y-72275000D03*
X180725000Y-87000000D03*
X195447500Y-80947500D03*
X157525000Y-69000000D03*
X165750000Y-62775000D03*
X184250000Y-80725000D03*
X175750000Y-88800000D03*
X184250000Y-72000000D03*
X152578248Y-51828248D03*
X192570000Y-71550000D03*
X189250000Y-53500000D03*
X162975000Y-70750000D03*
X166000000Y-52750000D03*
X172025000Y-61750000D03*
X176250000Y-52600000D03*
X173750000Y-52600000D03*
X171725000Y-83000000D03*
X151759517Y-97431269D03*
X175750000Y-95800000D03*
X198500000Y-55050000D03*
X163000000Y-72475000D03*
X196525000Y-89000000D03*
X157975000Y-95550000D03*
X157475000Y-62250000D03*
X166250000Y-67225000D03*
X183500000Y-56650000D03*
X164000000Y-62775000D03*
X158250000Y-54750000D03*
X163000000Y-77975000D03*
X152975000Y-69000000D03*
X195000000Y-90475000D03*
X192570000Y-77950000D03*
X168000000Y-67225000D03*
X153525000Y-78000000D03*
X190750000Y-95200000D03*
X189150000Y-66600000D03*
X176025000Y-61750000D03*
X163475000Y-58000000D03*
X155836765Y-72913235D03*
X154500000Y-59499998D03*
X163000000Y-64475000D03*
X198331117Y-52668883D03*
X196500000Y-67750000D03*
X188250000Y-70525000D03*
X194500000Y-58500000D03*
X159500000Y-71275000D03*
X184250000Y-77225000D03*
%TO.N,+3.3V*%
X182500000Y-83025000D03*
%TO.N,GND*%
X163000000Y-83275000D03*
X157750000Y-72000000D03*
%TO.N,Net-(J1-DP1)*%
X190575000Y-75250000D03*
X194250000Y-74238220D03*
%TO.N,Net-(J1-DN1)*%
X190575000Y-73750000D03*
%TO.N,Net-(J1-CC2)*%
X194175000Y-73250000D03*
%TO.N,Net-(J1-CC1)*%
X194175000Y-75760000D03*
%TO.N,/SD_CLK*%
X181500000Y-64250000D03*
%TO.N,/SD_DAT1*%
X180000000Y-65500000D03*
%TO.N,+3.3V*%
X163000000Y-81725000D03*
X154500000Y-64000000D03*
X163000000Y-74025000D03*
X162250000Y-61225000D03*
X181250000Y-96300000D03*
X195750000Y-58900000D03*
X153000000Y-70725000D03*
X174475000Y-61750000D03*
X159500000Y-69725000D03*
X183500000Y-61900000D03*
%TO.N,GND*%
X182500000Y-81475000D03*
%TO.N,+3.3V*%
X164000000Y-61225000D03*
X154525000Y-69000000D03*
X177025000Y-83000000D03*
X164575000Y-75750000D03*
X156025000Y-58000000D03*
X159525000Y-93800000D03*
X170750000Y-95750000D03*
X166525000Y-83000000D03*
X152000000Y-82225000D03*
X184750000Y-97250000D03*
X173275000Y-83000000D03*
X170475000Y-61750000D03*
X163250000Y-95750000D03*
X151987500Y-79512500D03*
X171000000Y-54400000D03*
X156429801Y-75575001D03*
X170750000Y-88750000D03*
X181250000Y-95200000D03*
X159250000Y-56500000D03*
X151975000Y-78000000D03*
X159500000Y-68275000D03*
X190750000Y-93000000D03*
X155124264Y-80250735D03*
X184250000Y-70450000D03*
X165750000Y-61225000D03*
X163000000Y-79525000D03*
X182275000Y-87000000D03*
X157750000Y-70450000D03*
X187425000Y-88500000D03*
D14*
X193275000Y-68500000D03*
D13*
X165250000Y-79525000D03*
X184250000Y-82275000D03*
X184250000Y-78775000D03*
X158070199Y-75575001D03*
X163000000Y-66025000D03*
%TO.N,/SD_CMD*%
X179400000Y-61900000D03*
%TO.N,/SD_DAT2*%
X183250000Y-62750000D03*
%TO.N,/SD_DAT0*%
X181250000Y-65500000D03*
%TO.N,/SD_DAT3*%
X184250000Y-63500000D03*
%TO.N,+5V*%
X197568731Y-96759517D03*
X152440786Y-53309214D03*
X161945650Y-51350000D03*
X188250000Y-68250000D03*
X153240483Y-97568731D03*
X184500000Y-67750000D03*
X198500000Y-56950000D03*
X180000000Y-56000000D03*
X196750000Y-52431269D03*
X198625000Y-85375000D03*
X194500000Y-61750000D03*
%TO.N,IMU1_MISO*%
X157250000Y-82250000D03*
X159000000Y-80500000D03*
%TO.N,IMU1_SCL*%
X155728520Y-84798379D03*
X179000000Y-87000000D03*
%TO.N,BARO_SCL*%
X154488235Y-73261765D03*
X159299265Y-73950735D03*
%TO.N,MAG_MISO*%
X164500000Y-87000000D03*
X161750000Y-91500000D03*
%TO.N,MAG_INT*%
X161750000Y-92250000D03*
X167500000Y-87000000D03*
%TO.N,MAG_SCL*%
X164174874Y-86349749D03*
X158250000Y-89750000D03*
%TO.N,Net-(C40-Pad2)*%
X179500000Y-83000000D03*
%TO.N,Net-(U9-~{RESET})*%
X183100000Y-97250000D03*
%TO.N,Net-(U9-~{SAFEBOOT})*%
X189075000Y-88500000D03*
%TO.N,/USB_DN*%
X187750000Y-63000000D03*
%TO.N,Net-(U15-DIN)*%
X195750000Y-92000000D03*
%TO.N,Net-(C42-Pad2)*%
X165025000Y-58000000D03*
%TO.N,Net-(U10-VFBSMPS)*%
X162962500Y-68750000D03*
X166250000Y-68775000D03*
%TO.N,/USB_DP*%
X187750000Y-61900000D03*
%TO.N,Net-(U10-VLXSMPS)*%
X164250000Y-67850000D03*
%TO.N,/EXT_VTX_IRC*%
X173750000Y-56100000D03*
X185074265Y-62425735D03*
%TO.N,/ESC_5V*%
X185000000Y-56650000D03*
X193500000Y-60251400D03*
%TO.N,/LEDC_PWM*%
X187750000Y-80250000D03*
%TO.N,Net-(U16-DIN)*%
X191927799Y-83275000D03*
%TO.N,/LEDB_PWM*%
X188925000Y-83250000D03*
X178750000Y-83750000D03*
%TO.N,/ELRS_UART_RX*%
X166750000Y-61500000D03*
X162035616Y-60348000D03*
%TO.N,Net-(R8-Pad1)*%
X155000700Y-62500000D03*
%TO.N,/SWO*%
X169672696Y-61191207D03*
X198600000Y-66650000D03*
%TO.N,/NRST*%
X162925000Y-75750000D03*
X199200000Y-67250000D03*
%TO.N,/SWCLK*%
X199000000Y-58250000D03*
X181900000Y-58250000D03*
%TO.N,/SDWIO*%
X186500000Y-59700000D03*
X198250000Y-59750000D03*
%TO.N,Net-(J1-VBUS-PadA4)*%
X195000000Y-76750000D03*
%TO.N,FSYNC*%
X152750000Y-83000000D03*
%TO.N,IMU2_SCL*%
X163086736Y-62086736D03*
%TO.N,GND*%
X197431269Y-98240483D03*
%TD*%
D15*
%TO.N,GND*%
X152000000Y-84250000D02*
X153000000Y-85250000D01*
X152000000Y-83775000D02*
X152000000Y-84250000D01*
X151759517Y-94765483D02*
X154475000Y-92050000D01*
X197431269Y-98240483D02*
X190240483Y-98240483D01*
X155328248Y-51828248D02*
X158250000Y-54750000D01*
X195050000Y-58500000D02*
X194500000Y-58500000D01*
X152578248Y-51828248D02*
X155328248Y-51828248D01*
X190240483Y-98240483D02*
X189000000Y-97000000D01*
X198500000Y-55050000D02*
X195050000Y-58500000D01*
X151759517Y-97431269D02*
X151759517Y-94765483D01*
%TD*%
%TA.AperFunction,Conductor*%
%TO.N,GND*%
G36*
X190015677Y-52519685D02*
G01*
X190036319Y-52536319D01*
X192463181Y-54963181D01*
X192496666Y-55024504D01*
X192499500Y-55050862D01*
X192499500Y-55140431D01*
X192530942Y-55419494D01*
X192530945Y-55419512D01*
X192593439Y-55693317D01*
X192593443Y-55693329D01*
X192686200Y-55958411D01*
X192808053Y-56211442D01*
X192808055Y-56211445D01*
X192957477Y-56449248D01*
X193132584Y-56668825D01*
X193331175Y-56867416D01*
X193550752Y-57042523D01*
X193766696Y-57178210D01*
X193788557Y-57191946D01*
X193831109Y-57212438D01*
X194041592Y-57313801D01*
X194171898Y-57359397D01*
X194306670Y-57406556D01*
X194306682Y-57406560D01*
X194580491Y-57469055D01*
X194580497Y-57469055D01*
X194580505Y-57469057D01*
X194763784Y-57489707D01*
X194859569Y-57500499D01*
X194859572Y-57500500D01*
X194949138Y-57500500D01*
X195016177Y-57520185D01*
X195036819Y-57536819D01*
X195465719Y-57965719D01*
X195499204Y-58027042D01*
X195494220Y-58096734D01*
X195452348Y-58152667D01*
X195425490Y-58167961D01*
X195370827Y-58190602D01*
X195370814Y-58190609D01*
X195239711Y-58278210D01*
X195239707Y-58278213D01*
X195128213Y-58389707D01*
X195128210Y-58389711D01*
X195040609Y-58520814D01*
X195040602Y-58520827D01*
X194980264Y-58666498D01*
X194980261Y-58666510D01*
X194949500Y-58821153D01*
X194949500Y-58978846D01*
X194980261Y-59133489D01*
X194980264Y-59133501D01*
X195040602Y-59279172D01*
X195040609Y-59279185D01*
X195128210Y-59410288D01*
X195128213Y-59410292D01*
X195239707Y-59521786D01*
X195239711Y-59521789D01*
X195370814Y-59609390D01*
X195370827Y-59609397D01*
X195458711Y-59645799D01*
X195516503Y-59669737D01*
X195667277Y-59699728D01*
X195671153Y-59700499D01*
X195671156Y-59700500D01*
X195671158Y-59700500D01*
X195828844Y-59700500D01*
X195828845Y-59700499D01*
X195983497Y-59669737D01*
X196129179Y-59609394D01*
X196260289Y-59521789D01*
X196371789Y-59410289D01*
X196459394Y-59279179D01*
X196482039Y-59224508D01*
X196525877Y-59170106D01*
X196592170Y-59148040D01*
X196659870Y-59165318D01*
X196684280Y-59184280D01*
X197160071Y-59660071D01*
X197193556Y-59721394D01*
X197188572Y-59791086D01*
X197146700Y-59847019D01*
X197104484Y-59867527D01*
X196981714Y-59900423D01*
X196981709Y-59900426D01*
X196844790Y-59979475D01*
X196844782Y-59979481D01*
X196732981Y-60091282D01*
X196732975Y-60091290D01*
X196653926Y-60228209D01*
X196653923Y-60228216D01*
X196613000Y-60380943D01*
X196613000Y-60539057D01*
X196651012Y-60680918D01*
X196653923Y-60691783D01*
X196653926Y-60691790D01*
X196732975Y-60828709D01*
X196732979Y-60828714D01*
X196732980Y-60828716D01*
X196844784Y-60940520D01*
X196844785Y-60940521D01*
X196844787Y-60940522D01*
X196926351Y-60987613D01*
X196974567Y-61038180D01*
X196987790Y-61106787D01*
X196961822Y-61171652D01*
X196926351Y-61202387D01*
X196844787Y-61249477D01*
X196844782Y-61249481D01*
X196732981Y-61361282D01*
X196732975Y-61361290D01*
X196653926Y-61498209D01*
X196653923Y-61498216D01*
X196613000Y-61650943D01*
X196613000Y-61809057D01*
X196653698Y-61960942D01*
X196653923Y-61961783D01*
X196653926Y-61961790D01*
X196732975Y-62098709D01*
X196732979Y-62098714D01*
X196732980Y-62098716D01*
X196844784Y-62210520D01*
X196844785Y-62210521D01*
X196844787Y-62210522D01*
X196926351Y-62257613D01*
X196974567Y-62308180D01*
X196987790Y-62376787D01*
X196961822Y-62441652D01*
X196926351Y-62472387D01*
X196844787Y-62519477D01*
X196844782Y-62519481D01*
X196732981Y-62631282D01*
X196732975Y-62631290D01*
X196653926Y-62768209D01*
X196653923Y-62768216D01*
X196613000Y-62920943D01*
X196613000Y-63079057D01*
X196653516Y-63230263D01*
X196653923Y-63231783D01*
X196653926Y-63231790D01*
X196732975Y-63368709D01*
X196732979Y-63368714D01*
X196732980Y-63368716D01*
X196844784Y-63480520D01*
X196844785Y-63480521D01*
X196844787Y-63480522D01*
X196926351Y-63527613D01*
X196974567Y-63578180D01*
X196987790Y-63646787D01*
X196961822Y-63711652D01*
X196926351Y-63742387D01*
X196844787Y-63789477D01*
X196844782Y-63789481D01*
X196732981Y-63901282D01*
X196732975Y-63901290D01*
X196653926Y-64038209D01*
X196653923Y-64038216D01*
X196613000Y-64190943D01*
X196613000Y-64349057D01*
X196621070Y-64379172D01*
X196653923Y-64501783D01*
X196653926Y-64501790D01*
X196732975Y-64638709D01*
X196732979Y-64638714D01*
X196732980Y-64638716D01*
X196844784Y-64750520D01*
X196844785Y-64750521D01*
X196844787Y-64750522D01*
X196926351Y-64797613D01*
X196974567Y-64848180D01*
X196987790Y-64916787D01*
X196961822Y-64981652D01*
X196926351Y-65012387D01*
X196844787Y-65059477D01*
X196844782Y-65059481D01*
X196732981Y-65171282D01*
X196732975Y-65171290D01*
X196653926Y-65308209D01*
X196653923Y-65308216D01*
X196613000Y-65460943D01*
X196613000Y-65619057D01*
X196648087Y-65750001D01*
X196653923Y-65771783D01*
X196653926Y-65771790D01*
X196732975Y-65908709D01*
X196732979Y-65908714D01*
X196732980Y-65908716D01*
X196844784Y-66020520D01*
X196844786Y-66020521D01*
X196844790Y-66020524D01*
X196964627Y-66089711D01*
X196981716Y-66099577D01*
X197134443Y-66140500D01*
X197134445Y-66140500D01*
X197292554Y-66140500D01*
X197292557Y-66140500D01*
X197343909Y-66126740D01*
X197413756Y-66128403D01*
X197471618Y-66167565D01*
X197499123Y-66231793D01*
X197500000Y-66246515D01*
X197500000Y-70130000D01*
X197075000Y-70130000D01*
X197075000Y-69430000D01*
X196826504Y-69430000D01*
X196633318Y-69468427D01*
X196633306Y-69468430D01*
X196451328Y-69543807D01*
X196451315Y-69543814D01*
X196287537Y-69653248D01*
X196287533Y-69653251D01*
X196148251Y-69792533D01*
X196148248Y-69792537D01*
X196038814Y-69956315D01*
X196038807Y-69956328D01*
X195963430Y-70138307D01*
X195963430Y-70138309D01*
X195955138Y-70180000D01*
X196758012Y-70180000D01*
X196740795Y-70189940D01*
X196684940Y-70245795D01*
X196645444Y-70314204D01*
X196625000Y-70390504D01*
X196625000Y-70469496D01*
X196645444Y-70545796D01*
X196684940Y-70614205D01*
X196740795Y-70670060D01*
X196758012Y-70680000D01*
X195955138Y-70680000D01*
X195963430Y-70721690D01*
X195963430Y-70721692D01*
X196038807Y-70903671D01*
X196038814Y-70903684D01*
X196148248Y-71067462D01*
X196148251Y-71067466D01*
X196287533Y-71206748D01*
X196287537Y-71206751D01*
X196451315Y-71316185D01*
X196451328Y-71316192D01*
X196633306Y-71391569D01*
X196633318Y-71391572D01*
X196826504Y-71429999D01*
X196826508Y-71430000D01*
X197075000Y-71430000D01*
X197075000Y-70730000D01*
X197500000Y-70730000D01*
X197500000Y-78770000D01*
X197075000Y-78770000D01*
X197075000Y-78070000D01*
X196826504Y-78070000D01*
X196633318Y-78108427D01*
X196633306Y-78108430D01*
X196451328Y-78183807D01*
X196451315Y-78183814D01*
X196287537Y-78293248D01*
X196287533Y-78293251D01*
X196148251Y-78432533D01*
X196148248Y-78432537D01*
X196038814Y-78596315D01*
X196038807Y-78596328D01*
X195963430Y-78778307D01*
X195963430Y-78778309D01*
X195955138Y-78820000D01*
X196758012Y-78820000D01*
X196740795Y-78829940D01*
X196684940Y-78885795D01*
X196645444Y-78954204D01*
X196625000Y-79030504D01*
X196625000Y-79109496D01*
X196645444Y-79185796D01*
X196684940Y-79254205D01*
X196740795Y-79310060D01*
X196758012Y-79320000D01*
X195955138Y-79320000D01*
X195963430Y-79361690D01*
X195963430Y-79361692D01*
X196038807Y-79543671D01*
X196038814Y-79543684D01*
X196148248Y-79707462D01*
X196148251Y-79707466D01*
X196287533Y-79846748D01*
X196287537Y-79846751D01*
X196451315Y-79956185D01*
X196451328Y-79956192D01*
X196633306Y-80031569D01*
X196633318Y-80031572D01*
X196826504Y-80069999D01*
X196826508Y-80070000D01*
X197075000Y-80070000D01*
X197075000Y-79370000D01*
X197500000Y-79370000D01*
X197500000Y-80200000D01*
X197500000Y-89948637D01*
X197480315Y-90015676D01*
X197463681Y-90036318D01*
X196244485Y-91255513D01*
X196183162Y-91288998D01*
X196113470Y-91284014D01*
X196109352Y-91282393D01*
X195983501Y-91230264D01*
X195983489Y-91230261D01*
X195828845Y-91199500D01*
X195828842Y-91199500D01*
X195671158Y-91199500D01*
X195671155Y-91199500D01*
X195516510Y-91230261D01*
X195516498Y-91230264D01*
X195370827Y-91290602D01*
X195370814Y-91290609D01*
X195239711Y-91378210D01*
X195239707Y-91378213D01*
X195128213Y-91489707D01*
X195128210Y-91489711D01*
X195040609Y-91620814D01*
X195040602Y-91620827D01*
X194980264Y-91766498D01*
X194980261Y-91766510D01*
X194949500Y-91921153D01*
X194949500Y-92078846D01*
X194980261Y-92233489D01*
X194980263Y-92233497D01*
X195003919Y-92290609D01*
X195019427Y-92328047D01*
X195026896Y-92397517D01*
X194995621Y-92459996D01*
X194935532Y-92495648D01*
X194904866Y-92499500D01*
X194859568Y-92499500D01*
X194580505Y-92530942D01*
X194580487Y-92530945D01*
X194306682Y-92593439D01*
X194306670Y-92593443D01*
X194041588Y-92686200D01*
X193788557Y-92808053D01*
X193550753Y-92957476D01*
X193331175Y-93132583D01*
X193132583Y-93331175D01*
X192957476Y-93550753D01*
X192808053Y-93788557D01*
X192686200Y-94041588D01*
X192593443Y-94306670D01*
X192593439Y-94306682D01*
X192530945Y-94580487D01*
X192530942Y-94580505D01*
X192499500Y-94859568D01*
X192499500Y-94949137D01*
X192479815Y-95016176D01*
X192463181Y-95036818D01*
X190036319Y-97463681D01*
X189974996Y-97497166D01*
X189948638Y-97500000D01*
X185667549Y-97500000D01*
X185600510Y-97480315D01*
X185554755Y-97427511D01*
X185544811Y-97358353D01*
X185545932Y-97351808D01*
X185550500Y-97328844D01*
X185550500Y-97171155D01*
X185550499Y-97171153D01*
X185530326Y-97069737D01*
X185519737Y-97016503D01*
X185510008Y-96993014D01*
X185459397Y-96870827D01*
X185459390Y-96870814D01*
X185371789Y-96739711D01*
X185371786Y-96739707D01*
X185260292Y-96628213D01*
X185260288Y-96628210D01*
X185129185Y-96540609D01*
X185129172Y-96540602D01*
X184983501Y-96480264D01*
X184983489Y-96480261D01*
X184828845Y-96449500D01*
X184828842Y-96449500D01*
X184671158Y-96449500D01*
X184671155Y-96449500D01*
X184516510Y-96480261D01*
X184516498Y-96480264D01*
X184370827Y-96540602D01*
X184370814Y-96540609D01*
X184239711Y-96628210D01*
X184239707Y-96628213D01*
X184128213Y-96739707D01*
X184128210Y-96739711D01*
X184040609Y-96870814D01*
X184040603Y-96870826D01*
X184039560Y-96873345D01*
X184038660Y-96874460D01*
X184037736Y-96876191D01*
X184037407Y-96876015D01*
X183995718Y-96927747D01*
X183929424Y-96949811D01*
X183861725Y-96932531D01*
X183814115Y-96881393D01*
X183810440Y-96873345D01*
X183809396Y-96870826D01*
X183809390Y-96870814D01*
X183721789Y-96739711D01*
X183721786Y-96739707D01*
X183610292Y-96628213D01*
X183610288Y-96628210D01*
X183479185Y-96540609D01*
X183479172Y-96540602D01*
X183333501Y-96480264D01*
X183333489Y-96480261D01*
X183178845Y-96449500D01*
X183178842Y-96449500D01*
X183021158Y-96449500D01*
X183021155Y-96449500D01*
X182866510Y-96480261D01*
X182866498Y-96480264D01*
X182720827Y-96540602D01*
X182720814Y-96540609D01*
X182589711Y-96628210D01*
X182589707Y-96628213D01*
X182478213Y-96739707D01*
X182478210Y-96739711D01*
X182390609Y-96870814D01*
X182390602Y-96870827D01*
X182330264Y-97016498D01*
X182330261Y-97016510D01*
X182299500Y-97171153D01*
X182299500Y-97328844D01*
X182304068Y-97351808D01*
X182297841Y-97421399D01*
X182254979Y-97476577D01*
X182189089Y-97499822D01*
X182182451Y-97500000D01*
X160051362Y-97500000D01*
X159984323Y-97480315D01*
X159963681Y-97463681D01*
X158171153Y-95671153D01*
X162449500Y-95671153D01*
X162449500Y-95828846D01*
X162480261Y-95983489D01*
X162480264Y-95983501D01*
X162540602Y-96129172D01*
X162540609Y-96129185D01*
X162628210Y-96260288D01*
X162628213Y-96260292D01*
X162739707Y-96371786D01*
X162739711Y-96371789D01*
X162870814Y-96459390D01*
X162870827Y-96459397D01*
X163016498Y-96519735D01*
X163016503Y-96519737D01*
X163171153Y-96550499D01*
X163171156Y-96550500D01*
X163171158Y-96550500D01*
X163328844Y-96550500D01*
X163328845Y-96550499D01*
X163483497Y-96519737D01*
X163629179Y-96459394D01*
X163760289Y-96371789D01*
X163871789Y-96260289D01*
X163959394Y-96129179D01*
X164019737Y-95983497D01*
X164050500Y-95828842D01*
X164050500Y-95671158D01*
X164050500Y-95671155D01*
X164050499Y-95671153D01*
X169949500Y-95671153D01*
X169949500Y-95828846D01*
X169980261Y-95983489D01*
X169980264Y-95983501D01*
X170040602Y-96129172D01*
X170040609Y-96129185D01*
X170128210Y-96260288D01*
X170128213Y-96260292D01*
X170239707Y-96371786D01*
X170239711Y-96371789D01*
X170370814Y-96459390D01*
X170370827Y-96459397D01*
X170516498Y-96519735D01*
X170516503Y-96519737D01*
X170671153Y-96550499D01*
X170671156Y-96550500D01*
X170671158Y-96550500D01*
X170828844Y-96550500D01*
X170828845Y-96550499D01*
X170983497Y-96519737D01*
X171129179Y-96459394D01*
X171260289Y-96371789D01*
X171371789Y-96260289D01*
X171459394Y-96129179D01*
X171519737Y-95983497D01*
X171550500Y-95828842D01*
X171550500Y-95671158D01*
X171550500Y-95671155D01*
X171550499Y-95671153D01*
X171532204Y-95579179D01*
X171519737Y-95516503D01*
X171468232Y-95392157D01*
X171459397Y-95370827D01*
X171459390Y-95370814D01*
X171371789Y-95239711D01*
X171371786Y-95239707D01*
X171260292Y-95128213D01*
X171260288Y-95128210D01*
X171249727Y-95121153D01*
X180449500Y-95121153D01*
X180449500Y-95278846D01*
X180480261Y-95433489D01*
X180480264Y-95433501D01*
X180540602Y-95579172D01*
X180540609Y-95579185D01*
X180608713Y-95681109D01*
X180629591Y-95747787D01*
X180611107Y-95815167D01*
X180608713Y-95818891D01*
X180540609Y-95920814D01*
X180540602Y-95920827D01*
X180480264Y-96066498D01*
X180480261Y-96066510D01*
X180449500Y-96221153D01*
X180449500Y-96378846D01*
X180480261Y-96533489D01*
X180480264Y-96533501D01*
X180540602Y-96679172D01*
X180540609Y-96679185D01*
X180628210Y-96810288D01*
X180628213Y-96810292D01*
X180739707Y-96921786D01*
X180739711Y-96921789D01*
X180870814Y-97009390D01*
X180870827Y-97009397D01*
X180989234Y-97058442D01*
X181016503Y-97069737D01*
X181171153Y-97100499D01*
X181171156Y-97100500D01*
X181171158Y-97100500D01*
X181328844Y-97100500D01*
X181328845Y-97100499D01*
X181483497Y-97069737D01*
X181629179Y-97009394D01*
X181760289Y-96921789D01*
X181871789Y-96810289D01*
X181959394Y-96679179D01*
X182019737Y-96533497D01*
X182050500Y-96378842D01*
X182050500Y-96221158D01*
X182050500Y-96221155D01*
X182050499Y-96221153D01*
X182034402Y-96140229D01*
X182019737Y-96066503D01*
X181981358Y-95973847D01*
X181959397Y-95920827D01*
X181959393Y-95920820D01*
X181959389Y-95920814D01*
X181891284Y-95818888D01*
X181870408Y-95752214D01*
X181888892Y-95684834D01*
X181891257Y-95681152D01*
X181959394Y-95579179D01*
X182019737Y-95433497D01*
X182050500Y-95278842D01*
X182050500Y-95121158D01*
X182050500Y-95121155D01*
X182050499Y-95121153D01*
X182049802Y-95117649D01*
X182019737Y-94966503D01*
X182006319Y-94934108D01*
X181959397Y-94820827D01*
X181959390Y-94820814D01*
X181871789Y-94689711D01*
X181871786Y-94689707D01*
X181760292Y-94578213D01*
X181760288Y-94578210D01*
X181629185Y-94490609D01*
X181629172Y-94490602D01*
X181483501Y-94430264D01*
X181483489Y-94430261D01*
X181328845Y-94399500D01*
X181328842Y-94399500D01*
X181171158Y-94399500D01*
X181171155Y-94399500D01*
X181016510Y-94430261D01*
X181016498Y-94430264D01*
X180870827Y-94490602D01*
X180870814Y-94490609D01*
X180739711Y-94578210D01*
X180739707Y-94578213D01*
X180628213Y-94689707D01*
X180628210Y-94689711D01*
X180540609Y-94820814D01*
X180540602Y-94820827D01*
X180480264Y-94966498D01*
X180480261Y-94966510D01*
X180449500Y-95121153D01*
X171249727Y-95121153D01*
X171129185Y-95040609D01*
X171129172Y-95040602D01*
X170983501Y-94980264D01*
X170983489Y-94980261D01*
X170828845Y-94949500D01*
X170828842Y-94949500D01*
X170671158Y-94949500D01*
X170671155Y-94949500D01*
X170516510Y-94980261D01*
X170516498Y-94980264D01*
X170370827Y-95040602D01*
X170370814Y-95040609D01*
X170239711Y-95128210D01*
X170239707Y-95128213D01*
X170128213Y-95239707D01*
X170128210Y-95239711D01*
X170040609Y-95370814D01*
X170040602Y-95370827D01*
X169980264Y-95516498D01*
X169980261Y-95516510D01*
X169949500Y-95671153D01*
X164050499Y-95671153D01*
X164032204Y-95579179D01*
X164019737Y-95516503D01*
X163968232Y-95392157D01*
X163959397Y-95370827D01*
X163959390Y-95370814D01*
X163871789Y-95239711D01*
X163871786Y-95239707D01*
X163760292Y-95128213D01*
X163760288Y-95128210D01*
X163629185Y-95040609D01*
X163629172Y-95040602D01*
X163483501Y-94980264D01*
X163483489Y-94980261D01*
X163328845Y-94949500D01*
X163328842Y-94949500D01*
X163171158Y-94949500D01*
X163171155Y-94949500D01*
X163016510Y-94980261D01*
X163016498Y-94980264D01*
X162870827Y-95040602D01*
X162870814Y-95040609D01*
X162739711Y-95128210D01*
X162739707Y-95128213D01*
X162628213Y-95239707D01*
X162628210Y-95239711D01*
X162540609Y-95370814D01*
X162540602Y-95370827D01*
X162480264Y-95516498D01*
X162480261Y-95516510D01*
X162449500Y-95671153D01*
X158171153Y-95671153D01*
X157536819Y-95036819D01*
X157503334Y-94975496D01*
X157500500Y-94949138D01*
X157500500Y-94859572D01*
X157500499Y-94859568D01*
X157496133Y-94820821D01*
X157476881Y-94649949D01*
X157469057Y-94580505D01*
X157469054Y-94580487D01*
X157434766Y-94430263D01*
X157406560Y-94306682D01*
X157313801Y-94041592D01*
X157226241Y-93859771D01*
X157191945Y-93788554D01*
X157187221Y-93781036D01*
X157149594Y-93721153D01*
X158724500Y-93721153D01*
X158724500Y-93878846D01*
X158755261Y-94033489D01*
X158755264Y-94033501D01*
X158815602Y-94179172D01*
X158815609Y-94179185D01*
X158903210Y-94310288D01*
X158903213Y-94310292D01*
X159014707Y-94421786D01*
X159014711Y-94421789D01*
X159145814Y-94509390D01*
X159145827Y-94509397D01*
X159291498Y-94569735D01*
X159291503Y-94569737D01*
X159441131Y-94599500D01*
X159446153Y-94600499D01*
X159446156Y-94600500D01*
X159446158Y-94600500D01*
X159603844Y-94600500D01*
X159603845Y-94600499D01*
X159758497Y-94569737D01*
X159904179Y-94509394D01*
X160035289Y-94421789D01*
X160146789Y-94310289D01*
X160234394Y-94179179D01*
X160294737Y-94033497D01*
X160325500Y-93878842D01*
X160325500Y-93721158D01*
X160325500Y-93721155D01*
X160325499Y-93721153D01*
X160305734Y-93621789D01*
X160294737Y-93566503D01*
X160271452Y-93510288D01*
X160234397Y-93420827D01*
X160234390Y-93420814D01*
X160146789Y-93289711D01*
X160146786Y-93289707D01*
X160035292Y-93178213D01*
X160035288Y-93178210D01*
X159904185Y-93090609D01*
X159904172Y-93090602D01*
X159758501Y-93030264D01*
X159758489Y-93030261D01*
X159603845Y-92999500D01*
X159603842Y-92999500D01*
X159446158Y-92999500D01*
X159446155Y-92999500D01*
X159291510Y-93030261D01*
X159291498Y-93030264D01*
X159145827Y-93090602D01*
X159145814Y-93090609D01*
X159014711Y-93178210D01*
X159014707Y-93178213D01*
X158903213Y-93289707D01*
X158903210Y-93289711D01*
X158815609Y-93420814D01*
X158815602Y-93420827D01*
X158755264Y-93566498D01*
X158755261Y-93566510D01*
X158724500Y-93721153D01*
X157149594Y-93721153D01*
X157121992Y-93677226D01*
X157042523Y-93550752D01*
X156867416Y-93331175D01*
X156668825Y-93132584D01*
X156449248Y-92957477D01*
X156312872Y-92871786D01*
X156211439Y-92808051D01*
X156135748Y-92771601D01*
X156083888Y-92724779D01*
X156065575Y-92657352D01*
X156086622Y-92590728D01*
X156140349Y-92546060D01*
X156165358Y-92538264D01*
X156202166Y-92530942D01*
X156258497Y-92519737D01*
X156404179Y-92459394D01*
X156535289Y-92371789D01*
X156646789Y-92260289D01*
X156734394Y-92129179D01*
X156794737Y-91983497D01*
X156825500Y-91828842D01*
X156825500Y-91671158D01*
X156825500Y-91671155D01*
X156825499Y-91671153D01*
X156794738Y-91516510D01*
X156794737Y-91516503D01*
X156755242Y-91421153D01*
X160949500Y-91421153D01*
X160949500Y-91578846D01*
X160980261Y-91733489D01*
X160980264Y-91733501D01*
X161019219Y-91827548D01*
X161026688Y-91897018D01*
X161019219Y-91922452D01*
X160980264Y-92016498D01*
X160980261Y-92016510D01*
X160949500Y-92171153D01*
X160949500Y-92328846D01*
X160980261Y-92483489D01*
X160980264Y-92483501D01*
X161040602Y-92629172D01*
X161040609Y-92629185D01*
X161128210Y-92760288D01*
X161128213Y-92760292D01*
X161239707Y-92871786D01*
X161239711Y-92871789D01*
X161370814Y-92959390D01*
X161370827Y-92959397D01*
X161467646Y-92999500D01*
X161516503Y-93019737D01*
X161671153Y-93050499D01*
X161671156Y-93050500D01*
X161671158Y-93050500D01*
X161828844Y-93050500D01*
X161828845Y-93050499D01*
X161983497Y-93019737D01*
X162129179Y-92959394D01*
X162186411Y-92921153D01*
X189949500Y-92921153D01*
X189949500Y-93078846D01*
X189980261Y-93233489D01*
X189980264Y-93233501D01*
X190040602Y-93379172D01*
X190040609Y-93379185D01*
X190128210Y-93510288D01*
X190128213Y-93510292D01*
X190239707Y-93621786D01*
X190239711Y-93621789D01*
X190370814Y-93709390D01*
X190370827Y-93709397D01*
X190516498Y-93769735D01*
X190516503Y-93769737D01*
X190671153Y-93800499D01*
X190671156Y-93800500D01*
X190671158Y-93800500D01*
X190828844Y-93800500D01*
X190828845Y-93800499D01*
X190983497Y-93769737D01*
X191129179Y-93709394D01*
X191260289Y-93621789D01*
X191371789Y-93510289D01*
X191459394Y-93379179D01*
X191519737Y-93233497D01*
X191550500Y-93078842D01*
X191550500Y-92921158D01*
X191550500Y-92921155D01*
X191550499Y-92921153D01*
X191519738Y-92766510D01*
X191519737Y-92766503D01*
X191507390Y-92736695D01*
X191459397Y-92620827D01*
X191459390Y-92620814D01*
X191371789Y-92489711D01*
X191371786Y-92489707D01*
X191260292Y-92378213D01*
X191260288Y-92378210D01*
X191129185Y-92290609D01*
X191129172Y-92290602D01*
X190983501Y-92230264D01*
X190983489Y-92230261D01*
X190828845Y-92199500D01*
X190828842Y-92199500D01*
X190671158Y-92199500D01*
X190671155Y-92199500D01*
X190516510Y-92230261D01*
X190516498Y-92230264D01*
X190370827Y-92290602D01*
X190370814Y-92290609D01*
X190239711Y-92378210D01*
X190239707Y-92378213D01*
X190128213Y-92489707D01*
X190128210Y-92489711D01*
X190040609Y-92620814D01*
X190040602Y-92620827D01*
X189980264Y-92766498D01*
X189980261Y-92766510D01*
X189949500Y-92921153D01*
X162186411Y-92921153D01*
X162260289Y-92871789D01*
X162260292Y-92871786D01*
X162304694Y-92827385D01*
X162371786Y-92760292D01*
X162371789Y-92760289D01*
X162459394Y-92629179D01*
X162462854Y-92620827D01*
X162497052Y-92538264D01*
X162519737Y-92483497D01*
X162550500Y-92328842D01*
X162550500Y-92171158D01*
X162550500Y-92171155D01*
X162550499Y-92171153D01*
X162519738Y-92016510D01*
X162519737Y-92016503D01*
X162480778Y-91922449D01*
X162473310Y-91852984D01*
X162480775Y-91827556D01*
X162519737Y-91733497D01*
X162550500Y-91578842D01*
X162550500Y-91421158D01*
X162550500Y-91421155D01*
X162550499Y-91421153D01*
X162524531Y-91290606D01*
X162519737Y-91266503D01*
X162515185Y-91255513D01*
X162459397Y-91120827D01*
X162459390Y-91120814D01*
X162371789Y-90989711D01*
X162371786Y-90989707D01*
X162260292Y-90878213D01*
X162260288Y-90878210D01*
X162129185Y-90790609D01*
X162129172Y-90790602D01*
X161983501Y-90730264D01*
X161983489Y-90730261D01*
X161828845Y-90699500D01*
X161828842Y-90699500D01*
X161671158Y-90699500D01*
X161671155Y-90699500D01*
X161516510Y-90730261D01*
X161516498Y-90730264D01*
X161370827Y-90790602D01*
X161370814Y-90790609D01*
X161239711Y-90878210D01*
X161239707Y-90878213D01*
X161128213Y-90989707D01*
X161128210Y-90989711D01*
X161040609Y-91120814D01*
X161040602Y-91120827D01*
X160980264Y-91266498D01*
X160980261Y-91266510D01*
X160949500Y-91421153D01*
X156755242Y-91421153D01*
X156737455Y-91378210D01*
X156734397Y-91370827D01*
X156734390Y-91370814D01*
X156646789Y-91239711D01*
X156646786Y-91239707D01*
X156535292Y-91128213D01*
X156535288Y-91128210D01*
X156404185Y-91040609D01*
X156404172Y-91040602D01*
X156258501Y-90980264D01*
X156258489Y-90980261D01*
X156103845Y-90949500D01*
X156103842Y-90949500D01*
X155946158Y-90949500D01*
X155946155Y-90949500D01*
X155791510Y-90980261D01*
X155791498Y-90980264D01*
X155645827Y-91040602D01*
X155645814Y-91040609D01*
X155514711Y-91128210D01*
X155514707Y-91128213D01*
X155403213Y-91239707D01*
X155403210Y-91239711D01*
X155315609Y-91370814D01*
X155315602Y-91370827D01*
X155255264Y-91516498D01*
X155255261Y-91516510D01*
X155224500Y-91671153D01*
X155224500Y-91828846D01*
X155255261Y-91983489D01*
X155255264Y-91983501D01*
X155315602Y-92129172D01*
X155315609Y-92129185D01*
X155403210Y-92260288D01*
X155403213Y-92260292D01*
X155455585Y-92312664D01*
X155489070Y-92373987D01*
X155484086Y-92443679D01*
X155442214Y-92499612D01*
X155376750Y-92524029D01*
X155354021Y-92523565D01*
X155140431Y-92499500D01*
X155140425Y-92499500D01*
X155050862Y-92499500D01*
X154983823Y-92479815D01*
X154963181Y-92463181D01*
X152536319Y-90036319D01*
X152502834Y-89974996D01*
X152500000Y-89948638D01*
X152500000Y-89671153D01*
X157449500Y-89671153D01*
X157449500Y-89828846D01*
X157480261Y-89983489D01*
X157480264Y-89983501D01*
X157540602Y-90129172D01*
X157540609Y-90129185D01*
X157628210Y-90260288D01*
X157628213Y-90260292D01*
X157739707Y-90371786D01*
X157739711Y-90371789D01*
X157870814Y-90459390D01*
X157870827Y-90459397D01*
X158016498Y-90519735D01*
X158016503Y-90519737D01*
X158171153Y-90550499D01*
X158171156Y-90550500D01*
X158171158Y-90550500D01*
X158328844Y-90550500D01*
X158328845Y-90550499D01*
X158483497Y-90519737D01*
X158629179Y-90459394D01*
X158760289Y-90371789D01*
X158871789Y-90260289D01*
X158959394Y-90129179D01*
X159019737Y-89983497D01*
X159050500Y-89828842D01*
X159050500Y-89671158D01*
X159050500Y-89671155D01*
X159050499Y-89671153D01*
X159019738Y-89516510D01*
X159019737Y-89516503D01*
X158959794Y-89371786D01*
X158959397Y-89370827D01*
X158959390Y-89370814D01*
X158871789Y-89239711D01*
X158871786Y-89239707D01*
X158760292Y-89128213D01*
X158760288Y-89128210D01*
X158629185Y-89040609D01*
X158629172Y-89040602D01*
X158483501Y-88980264D01*
X158483489Y-88980261D01*
X158328845Y-88949500D01*
X158328842Y-88949500D01*
X158171158Y-88949500D01*
X158171155Y-88949500D01*
X158016510Y-88980261D01*
X158016498Y-88980264D01*
X157870827Y-89040602D01*
X157870814Y-89040609D01*
X157739711Y-89128210D01*
X157739707Y-89128213D01*
X157628213Y-89239707D01*
X157628210Y-89239711D01*
X157540609Y-89370814D01*
X157540602Y-89370827D01*
X157480264Y-89516498D01*
X157480261Y-89516510D01*
X157449500Y-89671153D01*
X152500000Y-89671153D01*
X152500000Y-88671153D01*
X169949500Y-88671153D01*
X169949500Y-88828846D01*
X169980261Y-88983489D01*
X169980264Y-88983501D01*
X170040602Y-89129172D01*
X170040609Y-89129185D01*
X170128210Y-89260288D01*
X170128213Y-89260292D01*
X170239707Y-89371786D01*
X170239711Y-89371789D01*
X170370814Y-89459390D01*
X170370827Y-89459397D01*
X170508683Y-89516498D01*
X170516503Y-89519737D01*
X170671153Y-89550499D01*
X170671156Y-89550500D01*
X170671158Y-89550500D01*
X170828844Y-89550500D01*
X170828845Y-89550499D01*
X170983497Y-89519737D01*
X171129179Y-89459394D01*
X171260289Y-89371789D01*
X171371789Y-89260289D01*
X171459394Y-89129179D01*
X171519737Y-88983497D01*
X171550500Y-88828842D01*
X171550500Y-88671158D01*
X171550500Y-88671155D01*
X171550499Y-88671153D01*
X171519738Y-88516510D01*
X171519737Y-88516503D01*
X171480242Y-88421153D01*
X186624500Y-88421153D01*
X186624500Y-88578846D01*
X186655261Y-88733489D01*
X186655264Y-88733501D01*
X186715602Y-88879172D01*
X186715609Y-88879185D01*
X186803210Y-89010288D01*
X186803213Y-89010292D01*
X186914707Y-89121786D01*
X186914711Y-89121789D01*
X187045814Y-89209390D01*
X187045827Y-89209397D01*
X187191498Y-89269735D01*
X187191503Y-89269737D01*
X187346153Y-89300499D01*
X187346156Y-89300500D01*
X187346158Y-89300500D01*
X187503844Y-89300500D01*
X187503845Y-89300499D01*
X187658497Y-89269737D01*
X187804179Y-89209394D01*
X187935289Y-89121789D01*
X188046789Y-89010289D01*
X188134394Y-88879179D01*
X188135438Y-88876659D01*
X188136337Y-88875543D01*
X188137264Y-88873809D01*
X188137592Y-88873984D01*
X188179277Y-88822255D01*
X188245571Y-88800188D01*
X188313271Y-88817466D01*
X188360882Y-88868602D01*
X188364562Y-88876659D01*
X188365604Y-88879175D01*
X188365609Y-88879185D01*
X188453210Y-89010288D01*
X188453213Y-89010292D01*
X188564707Y-89121786D01*
X188564711Y-89121789D01*
X188695814Y-89209390D01*
X188695827Y-89209397D01*
X188841498Y-89269735D01*
X188841503Y-89269737D01*
X188996153Y-89300499D01*
X188996156Y-89300500D01*
X188996158Y-89300500D01*
X189153844Y-89300500D01*
X189153845Y-89300499D01*
X189308497Y-89269737D01*
X189454179Y-89209394D01*
X189585289Y-89121789D01*
X189696789Y-89010289D01*
X189784394Y-88879179D01*
X189844737Y-88733497D01*
X189875500Y-88578842D01*
X189875500Y-88421158D01*
X189875500Y-88421155D01*
X189875499Y-88421153D01*
X189844738Y-88266510D01*
X189844737Y-88266503D01*
X189844735Y-88266498D01*
X189784397Y-88120827D01*
X189784390Y-88120814D01*
X189696789Y-87989711D01*
X189696786Y-87989707D01*
X189585292Y-87878213D01*
X189585288Y-87878210D01*
X189454185Y-87790609D01*
X189454172Y-87790602D01*
X189308501Y-87730264D01*
X189308489Y-87730261D01*
X189153845Y-87699500D01*
X189153842Y-87699500D01*
X188996158Y-87699500D01*
X188996155Y-87699500D01*
X188841510Y-87730261D01*
X188841498Y-87730264D01*
X188695827Y-87790602D01*
X188695814Y-87790609D01*
X188564711Y-87878210D01*
X188564707Y-87878213D01*
X188453213Y-87989707D01*
X188453210Y-87989711D01*
X188365609Y-88120814D01*
X188365603Y-88120826D01*
X188364560Y-88123345D01*
X188363660Y-88124460D01*
X188362736Y-88126191D01*
X188362407Y-88126015D01*
X188320718Y-88177747D01*
X188254424Y-88199811D01*
X188186725Y-88182531D01*
X188139115Y-88131393D01*
X188135440Y-88123345D01*
X188134396Y-88120826D01*
X188134390Y-88120814D01*
X188046789Y-87989711D01*
X188046786Y-87989707D01*
X187935292Y-87878213D01*
X187935288Y-87878210D01*
X187804185Y-87790609D01*
X187804172Y-87790602D01*
X187658501Y-87730264D01*
X187658489Y-87730261D01*
X187503845Y-87699500D01*
X187503842Y-87699500D01*
X187346158Y-87699500D01*
X187346155Y-87699500D01*
X187191510Y-87730261D01*
X187191498Y-87730264D01*
X187045827Y-87790602D01*
X187045814Y-87790609D01*
X186914711Y-87878210D01*
X186914707Y-87878213D01*
X186803213Y-87989707D01*
X186803210Y-87989711D01*
X186715609Y-88120814D01*
X186715602Y-88120827D01*
X186655264Y-88266498D01*
X186655261Y-88266510D01*
X186624500Y-88421153D01*
X171480242Y-88421153D01*
X171479933Y-88420408D01*
X171459397Y-88370827D01*
X171459390Y-88370814D01*
X171371789Y-88239711D01*
X171371786Y-88239707D01*
X171260292Y-88128213D01*
X171260288Y-88128210D01*
X171129185Y-88040609D01*
X171129172Y-88040602D01*
X170983501Y-87980264D01*
X170983489Y-87980261D01*
X170828845Y-87949500D01*
X170828842Y-87949500D01*
X170671158Y-87949500D01*
X170671155Y-87949500D01*
X170516510Y-87980261D01*
X170516498Y-87980264D01*
X170370827Y-88040602D01*
X170370814Y-88040609D01*
X170239711Y-88128210D01*
X170239707Y-88128213D01*
X170128213Y-88239707D01*
X170128210Y-88239711D01*
X170040609Y-88370814D01*
X170040602Y-88370827D01*
X169980264Y-88516498D01*
X169980261Y-88516510D01*
X169949500Y-88671153D01*
X152500000Y-88671153D01*
X152500000Y-86270902D01*
X163374374Y-86270902D01*
X163374374Y-86428595D01*
X163405135Y-86583238D01*
X163405138Y-86583250D01*
X163465476Y-86728921D01*
X163465483Y-86728934D01*
X163553084Y-86860037D01*
X163553087Y-86860041D01*
X163663181Y-86970135D01*
X163696666Y-87031458D01*
X163699500Y-87057816D01*
X163699500Y-87078846D01*
X163730261Y-87233489D01*
X163730264Y-87233501D01*
X163790602Y-87379172D01*
X163790609Y-87379185D01*
X163878210Y-87510288D01*
X163878213Y-87510292D01*
X163989707Y-87621786D01*
X163989711Y-87621789D01*
X164120814Y-87709390D01*
X164120827Y-87709397D01*
X164266498Y-87769735D01*
X164266503Y-87769737D01*
X164421153Y-87800499D01*
X164421156Y-87800500D01*
X164421158Y-87800500D01*
X164578844Y-87800500D01*
X164578845Y-87800499D01*
X164733497Y-87769737D01*
X164879179Y-87709394D01*
X165010289Y-87621789D01*
X165121789Y-87510289D01*
X165209394Y-87379179D01*
X165269737Y-87233497D01*
X165300500Y-87078842D01*
X165300500Y-86921158D01*
X165300500Y-86921155D01*
X165300499Y-86921153D01*
X166699500Y-86921153D01*
X166699500Y-87078846D01*
X166730261Y-87233489D01*
X166730264Y-87233501D01*
X166790602Y-87379172D01*
X166790609Y-87379185D01*
X166878210Y-87510288D01*
X166878213Y-87510292D01*
X166989707Y-87621786D01*
X166989711Y-87621789D01*
X167120814Y-87709390D01*
X167120827Y-87709397D01*
X167266498Y-87769735D01*
X167266503Y-87769737D01*
X167421153Y-87800499D01*
X167421156Y-87800500D01*
X167421158Y-87800500D01*
X167578844Y-87800500D01*
X167578845Y-87800499D01*
X167733497Y-87769737D01*
X167879179Y-87709394D01*
X168010289Y-87621789D01*
X168121789Y-87510289D01*
X168209394Y-87379179D01*
X168269737Y-87233497D01*
X168300500Y-87078842D01*
X168300500Y-86921158D01*
X168300500Y-86921155D01*
X168300499Y-86921153D01*
X178199500Y-86921153D01*
X178199500Y-87078846D01*
X178230261Y-87233489D01*
X178230264Y-87233501D01*
X178290602Y-87379172D01*
X178290609Y-87379185D01*
X178378210Y-87510288D01*
X178378213Y-87510292D01*
X178489707Y-87621786D01*
X178489711Y-87621789D01*
X178620814Y-87709390D01*
X178620827Y-87709397D01*
X178766498Y-87769735D01*
X178766503Y-87769737D01*
X178921153Y-87800499D01*
X178921156Y-87800500D01*
X178921158Y-87800500D01*
X179078844Y-87800500D01*
X179078845Y-87800499D01*
X179233497Y-87769737D01*
X179379179Y-87709394D01*
X179510289Y-87621789D01*
X179621789Y-87510289D01*
X179709394Y-87379179D01*
X179769737Y-87233497D01*
X179800500Y-87078842D01*
X179800500Y-86921158D01*
X179800500Y-86921155D01*
X179800499Y-86921153D01*
X181474500Y-86921153D01*
X181474500Y-87078846D01*
X181505261Y-87233489D01*
X181505264Y-87233501D01*
X181565602Y-87379172D01*
X181565609Y-87379185D01*
X181653210Y-87510288D01*
X181653213Y-87510292D01*
X181764707Y-87621786D01*
X181764711Y-87621789D01*
X181895814Y-87709390D01*
X181895827Y-87709397D01*
X182041498Y-87769735D01*
X182041503Y-87769737D01*
X182196153Y-87800499D01*
X182196156Y-87800500D01*
X182196158Y-87800500D01*
X182353844Y-87800500D01*
X182353845Y-87800499D01*
X182508497Y-87769737D01*
X182654179Y-87709394D01*
X182785289Y-87621789D01*
X182896789Y-87510289D01*
X182984394Y-87379179D01*
X183044737Y-87233497D01*
X183075500Y-87078842D01*
X183075500Y-86921158D01*
X183075500Y-86921155D01*
X183075499Y-86921153D01*
X183044738Y-86766510D01*
X183044737Y-86766503D01*
X183029170Y-86728921D01*
X182984397Y-86620827D01*
X182984390Y-86620814D01*
X182896789Y-86489711D01*
X182896786Y-86489707D01*
X182785292Y-86378213D01*
X182785288Y-86378210D01*
X182654185Y-86290609D01*
X182654172Y-86290602D01*
X182508501Y-86230264D01*
X182508489Y-86230261D01*
X182353845Y-86199500D01*
X182353842Y-86199500D01*
X182196158Y-86199500D01*
X182196155Y-86199500D01*
X182041510Y-86230261D01*
X182041498Y-86230264D01*
X181895827Y-86290602D01*
X181895814Y-86290609D01*
X181764711Y-86378210D01*
X181764707Y-86378213D01*
X181653213Y-86489707D01*
X181653210Y-86489711D01*
X181565609Y-86620814D01*
X181565602Y-86620827D01*
X181505264Y-86766498D01*
X181505261Y-86766510D01*
X181474500Y-86921153D01*
X179800499Y-86921153D01*
X179769738Y-86766510D01*
X179769737Y-86766503D01*
X179754170Y-86728921D01*
X179709397Y-86620827D01*
X179709390Y-86620814D01*
X179621789Y-86489711D01*
X179621786Y-86489707D01*
X179510292Y-86378213D01*
X179510288Y-86378210D01*
X179379185Y-86290609D01*
X179379172Y-86290602D01*
X179233501Y-86230264D01*
X179233489Y-86230261D01*
X179078845Y-86199500D01*
X179078842Y-86199500D01*
X178921158Y-86199500D01*
X178921155Y-86199500D01*
X178766510Y-86230261D01*
X178766498Y-86230264D01*
X178620827Y-86290602D01*
X178620814Y-86290609D01*
X178489711Y-86378210D01*
X178489707Y-86378213D01*
X178378213Y-86489707D01*
X178378210Y-86489711D01*
X178290609Y-86620814D01*
X178290602Y-86620827D01*
X178230264Y-86766498D01*
X178230261Y-86766510D01*
X178199500Y-86921153D01*
X168300499Y-86921153D01*
X168269738Y-86766510D01*
X168269737Y-86766503D01*
X168254170Y-86728921D01*
X168209397Y-86620827D01*
X168209390Y-86620814D01*
X168121789Y-86489711D01*
X168121786Y-86489707D01*
X168010292Y-86378213D01*
X168010288Y-86378210D01*
X167879185Y-86290609D01*
X167879172Y-86290602D01*
X167733501Y-86230264D01*
X167733489Y-86230261D01*
X167578845Y-86199500D01*
X167578842Y-86199500D01*
X167421158Y-86199500D01*
X167421155Y-86199500D01*
X167266510Y-86230261D01*
X167266498Y-86230264D01*
X167120827Y-86290602D01*
X167120814Y-86290609D01*
X166989711Y-86378210D01*
X166989707Y-86378213D01*
X166878213Y-86489707D01*
X166878210Y-86489711D01*
X166790609Y-86620814D01*
X166790602Y-86620827D01*
X166730264Y-86766498D01*
X166730261Y-86766510D01*
X166699500Y-86921153D01*
X165300499Y-86921153D01*
X165269738Y-86766510D01*
X165269737Y-86766503D01*
X165254170Y-86728921D01*
X165209397Y-86620827D01*
X165209390Y-86620814D01*
X165121789Y-86489711D01*
X165121786Y-86489707D01*
X165011693Y-86379614D01*
X164978208Y-86318291D01*
X164975374Y-86291933D01*
X164975374Y-86270904D01*
X164975373Y-86270902D01*
X164944611Y-86116252D01*
X164944609Y-86116247D01*
X164884271Y-85970576D01*
X164884264Y-85970563D01*
X164796663Y-85839460D01*
X164796660Y-85839456D01*
X164685166Y-85727962D01*
X164685162Y-85727959D01*
X164554059Y-85640358D01*
X164554046Y-85640351D01*
X164408375Y-85580013D01*
X164408363Y-85580010D01*
X164253719Y-85549249D01*
X164253716Y-85549249D01*
X164096032Y-85549249D01*
X164096029Y-85549249D01*
X163941384Y-85580010D01*
X163941372Y-85580013D01*
X163795701Y-85640351D01*
X163795688Y-85640358D01*
X163664585Y-85727959D01*
X163664581Y-85727962D01*
X163553087Y-85839456D01*
X163553084Y-85839460D01*
X163465483Y-85970563D01*
X163465476Y-85970576D01*
X163405138Y-86116247D01*
X163405135Y-86116259D01*
X163374374Y-86270902D01*
X152500000Y-86270902D01*
X152500000Y-84719532D01*
X154928020Y-84719532D01*
X154928020Y-84877225D01*
X154958781Y-85031868D01*
X154958784Y-85031880D01*
X155019122Y-85177551D01*
X155019129Y-85177564D01*
X155106730Y-85308667D01*
X155106733Y-85308671D01*
X155218227Y-85420165D01*
X155218231Y-85420168D01*
X155349334Y-85507769D01*
X155349347Y-85507776D01*
X155495018Y-85568114D01*
X155495023Y-85568116D01*
X155649673Y-85598878D01*
X155649676Y-85598879D01*
X155649678Y-85598879D01*
X155807364Y-85598879D01*
X155807365Y-85598878D01*
X155962017Y-85568116D01*
X156107699Y-85507773D01*
X156238809Y-85420168D01*
X156350309Y-85308668D01*
X156437914Y-85177558D01*
X156498257Y-85031876D01*
X156529020Y-84877221D01*
X156529020Y-84719537D01*
X156529020Y-84719534D01*
X156529019Y-84719532D01*
X156498258Y-84564889D01*
X156498257Y-84564882D01*
X156492300Y-84550500D01*
X156437917Y-84419206D01*
X156437910Y-84419193D01*
X156350309Y-84288090D01*
X156350306Y-84288086D01*
X156238812Y-84176592D01*
X156238808Y-84176589D01*
X156107705Y-84088988D01*
X156107692Y-84088981D01*
X155962021Y-84028643D01*
X155962009Y-84028640D01*
X155807365Y-83997879D01*
X155807362Y-83997879D01*
X155649678Y-83997879D01*
X155649675Y-83997879D01*
X155495030Y-84028640D01*
X155495018Y-84028643D01*
X155349347Y-84088981D01*
X155349334Y-84088988D01*
X155218231Y-84176589D01*
X155218227Y-84176592D01*
X155106733Y-84288086D01*
X155106730Y-84288090D01*
X155019129Y-84419193D01*
X155019122Y-84419206D01*
X154958784Y-84564877D01*
X154958781Y-84564889D01*
X154928020Y-84719532D01*
X152500000Y-84719532D01*
X152500000Y-83917549D01*
X152519685Y-83850510D01*
X152572489Y-83804755D01*
X152641647Y-83794811D01*
X152648192Y-83795932D01*
X152671156Y-83800500D01*
X152671158Y-83800500D01*
X152828844Y-83800500D01*
X152828845Y-83800499D01*
X152983497Y-83769737D01*
X153129179Y-83709394D01*
X153260289Y-83621789D01*
X153371789Y-83510289D01*
X153459394Y-83379179D01*
X153462854Y-83370827D01*
X153509380Y-83258501D01*
X153519737Y-83233497D01*
X153550500Y-83078842D01*
X153550500Y-82921158D01*
X153550500Y-82921155D01*
X153550499Y-82921153D01*
X153523474Y-82785292D01*
X153519737Y-82766503D01*
X153517163Y-82760288D01*
X153459397Y-82620827D01*
X153459390Y-82620814D01*
X153371789Y-82489711D01*
X153371786Y-82489707D01*
X153260292Y-82378213D01*
X153260288Y-82378210D01*
X153129185Y-82290609D01*
X153129173Y-82290602D01*
X153107498Y-82281625D01*
X153107492Y-82281623D01*
X152983497Y-82230263D01*
X152884809Y-82210632D01*
X152878170Y-82208516D01*
X152854761Y-82192699D01*
X152829730Y-82179606D01*
X152826195Y-82173398D01*
X152822872Y-82171153D01*
X156449500Y-82171153D01*
X156449500Y-82328846D01*
X156480261Y-82483489D01*
X156480264Y-82483501D01*
X156540602Y-82629172D01*
X156540609Y-82629185D01*
X156628210Y-82760288D01*
X156628213Y-82760292D01*
X156739707Y-82871786D01*
X156739711Y-82871789D01*
X156870814Y-82959390D01*
X156870827Y-82959397D01*
X156956147Y-82994737D01*
X157016503Y-83019737D01*
X157125963Y-83041510D01*
X157171153Y-83050499D01*
X157171156Y-83050500D01*
X157171158Y-83050500D01*
X157328844Y-83050500D01*
X157328845Y-83050499D01*
X157483497Y-83019737D01*
X157625396Y-82960961D01*
X157629172Y-82959397D01*
X157629172Y-82959396D01*
X157629179Y-82959394D01*
X157686411Y-82921153D01*
X165724500Y-82921153D01*
X165724500Y-83078846D01*
X165755261Y-83233489D01*
X165755264Y-83233501D01*
X165815602Y-83379172D01*
X165815609Y-83379185D01*
X165903210Y-83510288D01*
X165903213Y-83510292D01*
X166014707Y-83621786D01*
X166014711Y-83621789D01*
X166145814Y-83709390D01*
X166145827Y-83709397D01*
X166291498Y-83769735D01*
X166291503Y-83769737D01*
X166446153Y-83800499D01*
X166446156Y-83800500D01*
X166446158Y-83800500D01*
X166603844Y-83800500D01*
X166603845Y-83800499D01*
X166758497Y-83769737D01*
X166904179Y-83709394D01*
X167035289Y-83621789D01*
X167146789Y-83510289D01*
X167234394Y-83379179D01*
X167237854Y-83370827D01*
X167284380Y-83258501D01*
X167294737Y-83233497D01*
X167325500Y-83078842D01*
X167325500Y-82921158D01*
X167325500Y-82921155D01*
X167325499Y-82921153D01*
X172474500Y-82921153D01*
X172474500Y-83078846D01*
X172505261Y-83233489D01*
X172505264Y-83233501D01*
X172565602Y-83379172D01*
X172565609Y-83379185D01*
X172653210Y-83510288D01*
X172653213Y-83510292D01*
X172764707Y-83621786D01*
X172764711Y-83621789D01*
X172895814Y-83709390D01*
X172895827Y-83709397D01*
X173041498Y-83769735D01*
X173041503Y-83769737D01*
X173196153Y-83800499D01*
X173196156Y-83800500D01*
X173196158Y-83800500D01*
X173353844Y-83800500D01*
X173353845Y-83800499D01*
X173508497Y-83769737D01*
X173654179Y-83709394D01*
X173785289Y-83621789D01*
X173896789Y-83510289D01*
X173984394Y-83379179D01*
X173987854Y-83370827D01*
X174034380Y-83258501D01*
X174044737Y-83233497D01*
X174075500Y-83078842D01*
X174075500Y-82921158D01*
X174075500Y-82921155D01*
X174075499Y-82921153D01*
X176224500Y-82921153D01*
X176224500Y-83078846D01*
X176255261Y-83233489D01*
X176255264Y-83233501D01*
X176315602Y-83379172D01*
X176315609Y-83379185D01*
X176403210Y-83510288D01*
X176403213Y-83510292D01*
X176514707Y-83621786D01*
X176514711Y-83621789D01*
X176645814Y-83709390D01*
X176645827Y-83709397D01*
X176791498Y-83769735D01*
X176791503Y-83769737D01*
X176946153Y-83800499D01*
X176946156Y-83800500D01*
X176946158Y-83800500D01*
X177103844Y-83800500D01*
X177103845Y-83800499D01*
X177258497Y-83769737D01*
X177404179Y-83709394D01*
X177461411Y-83671153D01*
X177949500Y-83671153D01*
X177949500Y-83828846D01*
X177980261Y-83983489D01*
X177980264Y-83983501D01*
X178040602Y-84129172D01*
X178040609Y-84129185D01*
X178128210Y-84260288D01*
X178128213Y-84260292D01*
X178239707Y-84371786D01*
X178239711Y-84371789D01*
X178370814Y-84459390D01*
X178370827Y-84459397D01*
X178516498Y-84519735D01*
X178516503Y-84519737D01*
X178671153Y-84550499D01*
X178671156Y-84550500D01*
X178671158Y-84550500D01*
X178828844Y-84550500D01*
X178828845Y-84550499D01*
X178983497Y-84519737D01*
X179129179Y-84459394D01*
X179260289Y-84371789D01*
X179371789Y-84260289D01*
X179459394Y-84129179D01*
X179519737Y-83983497D01*
X179539038Y-83886460D01*
X179571422Y-83824553D01*
X179632138Y-83789979D01*
X179636400Y-83789050D01*
X179733497Y-83769737D01*
X179879179Y-83709394D01*
X180010289Y-83621789D01*
X180121789Y-83510289D01*
X180209394Y-83379179D01*
X180212854Y-83370827D01*
X180259380Y-83258501D01*
X180269737Y-83233497D01*
X180300500Y-83078842D01*
X180300500Y-82946153D01*
X181699500Y-82946153D01*
X181699500Y-83103846D01*
X181730261Y-83258489D01*
X181730264Y-83258501D01*
X181790602Y-83404172D01*
X181790609Y-83404185D01*
X181878210Y-83535288D01*
X181878213Y-83535292D01*
X181989707Y-83646786D01*
X181989711Y-83646789D01*
X182120814Y-83734390D01*
X182120827Y-83734397D01*
X182252742Y-83789037D01*
X182266503Y-83794737D01*
X182416397Y-83824553D01*
X182421153Y-83825499D01*
X182421156Y-83825500D01*
X182421158Y-83825500D01*
X182578844Y-83825500D01*
X182578845Y-83825499D01*
X182733497Y-83794737D01*
X182879179Y-83734394D01*
X183010289Y-83646789D01*
X183121789Y-83535289D01*
X183209394Y-83404179D01*
X183269737Y-83258497D01*
X183287111Y-83171153D01*
X188124500Y-83171153D01*
X188124500Y-83328846D01*
X188155261Y-83483489D01*
X188155264Y-83483501D01*
X188215602Y-83629172D01*
X188215609Y-83629185D01*
X188303210Y-83760288D01*
X188303213Y-83760292D01*
X188414707Y-83871786D01*
X188414711Y-83871789D01*
X188545814Y-83959390D01*
X188545827Y-83959397D01*
X188691498Y-84019735D01*
X188691503Y-84019737D01*
X188817176Y-84044735D01*
X188846153Y-84050499D01*
X188846156Y-84050500D01*
X188846158Y-84050500D01*
X189003844Y-84050500D01*
X189003845Y-84050499D01*
X189158497Y-84019737D01*
X189304179Y-83959394D01*
X189435289Y-83871789D01*
X189546789Y-83760289D01*
X189634394Y-83629179D01*
X189694737Y-83483497D01*
X189725500Y-83328842D01*
X189725500Y-83196153D01*
X191127299Y-83196153D01*
X191127299Y-83353846D01*
X191158060Y-83508489D01*
X191158063Y-83508501D01*
X191218401Y-83654172D01*
X191218408Y-83654185D01*
X191306009Y-83785288D01*
X191306012Y-83785292D01*
X191417506Y-83896786D01*
X191417510Y-83896789D01*
X191548613Y-83984390D01*
X191548626Y-83984397D01*
X191655447Y-84028643D01*
X191694302Y-84044737D01*
X191848952Y-84075499D01*
X191848955Y-84075500D01*
X191848957Y-84075500D01*
X192006643Y-84075500D01*
X192006644Y-84075499D01*
X192161296Y-84044737D01*
X192306978Y-83984394D01*
X192438088Y-83896789D01*
X192549588Y-83785289D01*
X192637193Y-83654179D01*
X192697536Y-83508497D01*
X192728299Y-83353842D01*
X192728299Y-83196158D01*
X192728299Y-83196155D01*
X192728298Y-83196153D01*
X192723326Y-83171158D01*
X192697536Y-83041503D01*
X192697166Y-83040609D01*
X192637196Y-82895827D01*
X192637189Y-82895814D01*
X192549588Y-82764711D01*
X192549585Y-82764707D01*
X192438091Y-82653213D01*
X192438087Y-82653210D01*
X192306984Y-82565609D01*
X192306971Y-82565602D01*
X192161300Y-82505264D01*
X192161288Y-82505261D01*
X192006644Y-82474500D01*
X192006641Y-82474500D01*
X191848957Y-82474500D01*
X191848954Y-82474500D01*
X191694309Y-82505261D01*
X191694297Y-82505264D01*
X191548626Y-82565602D01*
X191548613Y-82565609D01*
X191417510Y-82653210D01*
X191417506Y-82653213D01*
X191306012Y-82764707D01*
X191306009Y-82764711D01*
X191218408Y-82895814D01*
X191218401Y-82895827D01*
X191158063Y-83041498D01*
X191158060Y-83041510D01*
X191127299Y-83196153D01*
X189725500Y-83196153D01*
X189725500Y-83171158D01*
X189725500Y-83171155D01*
X189725499Y-83171153D01*
X189700353Y-83044737D01*
X189694737Y-83016503D01*
X189685721Y-82994737D01*
X189634397Y-82870827D01*
X189634390Y-82870814D01*
X189546789Y-82739711D01*
X189546786Y-82739707D01*
X189435292Y-82628213D01*
X189435288Y-82628210D01*
X189304185Y-82540609D01*
X189304172Y-82540602D01*
X189158501Y-82480264D01*
X189158489Y-82480261D01*
X189003845Y-82449500D01*
X189003842Y-82449500D01*
X188846158Y-82449500D01*
X188846155Y-82449500D01*
X188691510Y-82480261D01*
X188691498Y-82480264D01*
X188545827Y-82540602D01*
X188545814Y-82540609D01*
X188414711Y-82628210D01*
X188414707Y-82628213D01*
X188303213Y-82739707D01*
X188303210Y-82739711D01*
X188215609Y-82870814D01*
X188215602Y-82870827D01*
X188155264Y-83016498D01*
X188155261Y-83016510D01*
X188124500Y-83171153D01*
X183287111Y-83171153D01*
X183300500Y-83103842D01*
X183300500Y-82946158D01*
X183300500Y-82946155D01*
X183300499Y-82946153D01*
X183295527Y-82921158D01*
X183269737Y-82791503D01*
X183259380Y-82766498D01*
X183209397Y-82645827D01*
X183209390Y-82645814D01*
X183121789Y-82514711D01*
X183121786Y-82514707D01*
X183010292Y-82403213D01*
X183010288Y-82403210D01*
X182879185Y-82315609D01*
X182879173Y-82315602D01*
X182852674Y-82304627D01*
X182733501Y-82255264D01*
X182733489Y-82255261D01*
X182578845Y-82224500D01*
X182578842Y-82224500D01*
X182421158Y-82224500D01*
X182421155Y-82224500D01*
X182266510Y-82255261D01*
X182266498Y-82255264D01*
X182120827Y-82315602D01*
X182120814Y-82315609D01*
X181989711Y-82403210D01*
X181989707Y-82403213D01*
X181878213Y-82514707D01*
X181878210Y-82514711D01*
X181790609Y-82645814D01*
X181790602Y-82645827D01*
X181730264Y-82791498D01*
X181730261Y-82791510D01*
X181699500Y-82946153D01*
X180300500Y-82946153D01*
X180300500Y-82921158D01*
X180300500Y-82921155D01*
X180300499Y-82921153D01*
X180273474Y-82785292D01*
X180269737Y-82766503D01*
X180267163Y-82760288D01*
X180209397Y-82620827D01*
X180209390Y-82620814D01*
X180121789Y-82489711D01*
X180121786Y-82489707D01*
X180010292Y-82378213D01*
X180010288Y-82378210D01*
X179879185Y-82290609D01*
X179879172Y-82290602D01*
X179733501Y-82230264D01*
X179733489Y-82230261D01*
X179578845Y-82199500D01*
X179578842Y-82199500D01*
X179421158Y-82199500D01*
X179421155Y-82199500D01*
X179266510Y-82230261D01*
X179266498Y-82230264D01*
X179120827Y-82290602D01*
X179120814Y-82290609D01*
X178989711Y-82378210D01*
X178989707Y-82378213D01*
X178878213Y-82489707D01*
X178878210Y-82489711D01*
X178790609Y-82620814D01*
X178790602Y-82620827D01*
X178730264Y-82766498D01*
X178730261Y-82766508D01*
X178710961Y-82863536D01*
X178678576Y-82925447D01*
X178617860Y-82960021D01*
X178613536Y-82960961D01*
X178516508Y-82980261D01*
X178516498Y-82980264D01*
X178370827Y-83040602D01*
X178370814Y-83040609D01*
X178239711Y-83128210D01*
X178239707Y-83128213D01*
X178128213Y-83239707D01*
X178128210Y-83239711D01*
X178040609Y-83370814D01*
X178040602Y-83370827D01*
X177980264Y-83516498D01*
X177980261Y-83516510D01*
X177949500Y-83671153D01*
X177461411Y-83671153D01*
X177535289Y-83621789D01*
X177535292Y-83621786D01*
X177579694Y-83577385D01*
X177646786Y-83510292D01*
X177646789Y-83510289D01*
X177734394Y-83379179D01*
X177737854Y-83370827D01*
X177784380Y-83258501D01*
X177794737Y-83233497D01*
X177825500Y-83078842D01*
X177825500Y-82921158D01*
X177825500Y-82921155D01*
X177825499Y-82921153D01*
X177798474Y-82785292D01*
X177794737Y-82766503D01*
X177792163Y-82760288D01*
X177734397Y-82620827D01*
X177734390Y-82620814D01*
X177646789Y-82489711D01*
X177646786Y-82489707D01*
X177535292Y-82378213D01*
X177535288Y-82378210D01*
X177404185Y-82290609D01*
X177404172Y-82290602D01*
X177258501Y-82230264D01*
X177258489Y-82230261D01*
X177103845Y-82199500D01*
X177103842Y-82199500D01*
X176946158Y-82199500D01*
X176946155Y-82199500D01*
X176791510Y-82230261D01*
X176791498Y-82230264D01*
X176645827Y-82290602D01*
X176645814Y-82290609D01*
X176514711Y-82378210D01*
X176514707Y-82378213D01*
X176403213Y-82489707D01*
X176403210Y-82489711D01*
X176315609Y-82620814D01*
X176315602Y-82620827D01*
X176255264Y-82766498D01*
X176255261Y-82766510D01*
X176224500Y-82921153D01*
X174075499Y-82921153D01*
X174048474Y-82785292D01*
X174044737Y-82766503D01*
X174042163Y-82760288D01*
X173984397Y-82620827D01*
X173984390Y-82620814D01*
X173896789Y-82489711D01*
X173896786Y-82489707D01*
X173785292Y-82378213D01*
X173785288Y-82378210D01*
X173654185Y-82290609D01*
X173654172Y-82290602D01*
X173508501Y-82230264D01*
X173508489Y-82230261D01*
X173353845Y-82199500D01*
X173353842Y-82199500D01*
X173196158Y-82199500D01*
X173196155Y-82199500D01*
X173041510Y-82230261D01*
X173041498Y-82230264D01*
X172895827Y-82290602D01*
X172895814Y-82290609D01*
X172764711Y-82378210D01*
X172764707Y-82378213D01*
X172653213Y-82489707D01*
X172653210Y-82489711D01*
X172565609Y-82620814D01*
X172565602Y-82620827D01*
X172505264Y-82766498D01*
X172505261Y-82766510D01*
X172474500Y-82921153D01*
X167325499Y-82921153D01*
X167298474Y-82785292D01*
X167294737Y-82766503D01*
X167292163Y-82760288D01*
X167234397Y-82620827D01*
X167234390Y-82620814D01*
X167146789Y-82489711D01*
X167146786Y-82489707D01*
X167035292Y-82378213D01*
X167035288Y-82378210D01*
X166904185Y-82290609D01*
X166904172Y-82290602D01*
X166758501Y-82230264D01*
X166758489Y-82230261D01*
X166603845Y-82199500D01*
X166603842Y-82199500D01*
X166446158Y-82199500D01*
X166446155Y-82199500D01*
X166291510Y-82230261D01*
X166291498Y-82230264D01*
X166145827Y-82290602D01*
X166145814Y-82290609D01*
X166014711Y-82378210D01*
X166014707Y-82378213D01*
X165903213Y-82489707D01*
X165903210Y-82489711D01*
X165815609Y-82620814D01*
X165815602Y-82620827D01*
X165755264Y-82766498D01*
X165755261Y-82766510D01*
X165724500Y-82921153D01*
X157686411Y-82921153D01*
X157760289Y-82871789D01*
X157768542Y-82863536D01*
X157804694Y-82827385D01*
X157871786Y-82760292D01*
X157871789Y-82760289D01*
X157959394Y-82629179D01*
X157962854Y-82620827D01*
X157985728Y-82565602D01*
X158019737Y-82483497D01*
X158050500Y-82328842D01*
X158050500Y-82171158D01*
X158050500Y-82171155D01*
X158050499Y-82171153D01*
X158037177Y-82104179D01*
X158019737Y-82016503D01*
X157995712Y-81958501D01*
X157959397Y-81870827D01*
X157959390Y-81870814D01*
X157871789Y-81739711D01*
X157871786Y-81739707D01*
X157778232Y-81646153D01*
X162199500Y-81646153D01*
X162199500Y-81803846D01*
X162230261Y-81958489D01*
X162230264Y-81958501D01*
X162290602Y-82104172D01*
X162290609Y-82104185D01*
X162378210Y-82235288D01*
X162378213Y-82235292D01*
X162489707Y-82346786D01*
X162489711Y-82346789D01*
X162620814Y-82434390D01*
X162620827Y-82434397D01*
X162754359Y-82489707D01*
X162766503Y-82494737D01*
X162921153Y-82525499D01*
X162921156Y-82525500D01*
X162921158Y-82525500D01*
X163078844Y-82525500D01*
X163078845Y-82525499D01*
X163233497Y-82494737D01*
X163379179Y-82434394D01*
X163510289Y-82346789D01*
X163621789Y-82235289D01*
X163647939Y-82196153D01*
X183449500Y-82196153D01*
X183449500Y-82353846D01*
X183480261Y-82508489D01*
X183480264Y-82508501D01*
X183540602Y-82654172D01*
X183540609Y-82654185D01*
X183628210Y-82785288D01*
X183628213Y-82785292D01*
X183739707Y-82896786D01*
X183739711Y-82896789D01*
X183870814Y-82984390D01*
X183870827Y-82984397D01*
X183970060Y-83025500D01*
X184016503Y-83044737D01*
X184171153Y-83075499D01*
X184171156Y-83075500D01*
X184171158Y-83075500D01*
X184328844Y-83075500D01*
X184328845Y-83075499D01*
X184483497Y-83044737D01*
X184629179Y-82984394D01*
X184760289Y-82896789D01*
X184871789Y-82785289D01*
X184959394Y-82654179D01*
X184962854Y-82645827D01*
X184973214Y-82620814D01*
X185019737Y-82508497D01*
X185050500Y-82353842D01*
X185050500Y-82196158D01*
X185050500Y-82196155D01*
X185050499Y-82196153D01*
X185045527Y-82171158D01*
X185019737Y-82041503D01*
X185009380Y-82016498D01*
X184959397Y-81895827D01*
X184959390Y-81895814D01*
X184871789Y-81764711D01*
X184871786Y-81764707D01*
X184760292Y-81653213D01*
X184760288Y-81653210D01*
X184629185Y-81565609D01*
X184629172Y-81565602D01*
X184483501Y-81505264D01*
X184483489Y-81505261D01*
X184328845Y-81474500D01*
X184328842Y-81474500D01*
X184171158Y-81474500D01*
X184171155Y-81474500D01*
X184016510Y-81505261D01*
X184016498Y-81505264D01*
X183870827Y-81565602D01*
X183870814Y-81565609D01*
X183739711Y-81653210D01*
X183739707Y-81653213D01*
X183628213Y-81764707D01*
X183628210Y-81764711D01*
X183540609Y-81895814D01*
X183540602Y-81895827D01*
X183480264Y-82041498D01*
X183480261Y-82041510D01*
X183449500Y-82196153D01*
X163647939Y-82196153D01*
X163709394Y-82104179D01*
X163769737Y-81958497D01*
X163800500Y-81803842D01*
X163800500Y-81646158D01*
X163800500Y-81646155D01*
X163800499Y-81646153D01*
X163784937Y-81567917D01*
X163769737Y-81491503D01*
X163765081Y-81480263D01*
X163709397Y-81345827D01*
X163709390Y-81345814D01*
X163621789Y-81214711D01*
X163621786Y-81214707D01*
X163510292Y-81103213D01*
X163510288Y-81103210D01*
X163379185Y-81015609D01*
X163379172Y-81015602D01*
X163233501Y-80955264D01*
X163233489Y-80955261D01*
X163078845Y-80924500D01*
X163078842Y-80924500D01*
X162921158Y-80924500D01*
X162921155Y-80924500D01*
X162766510Y-80955261D01*
X162766498Y-80955264D01*
X162620827Y-81015602D01*
X162620814Y-81015609D01*
X162489711Y-81103210D01*
X162489707Y-81103213D01*
X162378213Y-81214707D01*
X162378210Y-81214711D01*
X162290609Y-81345814D01*
X162290602Y-81345827D01*
X162230264Y-81491498D01*
X162230261Y-81491510D01*
X162199500Y-81646153D01*
X157778232Y-81646153D01*
X157760292Y-81628213D01*
X157760288Y-81628210D01*
X157629185Y-81540609D01*
X157629172Y-81540602D01*
X157483501Y-81480264D01*
X157483489Y-81480261D01*
X157328845Y-81449500D01*
X157328842Y-81449500D01*
X157171158Y-81449500D01*
X157171155Y-81449500D01*
X157016510Y-81480261D01*
X157016498Y-81480264D01*
X156870827Y-81540602D01*
X156870814Y-81540609D01*
X156739711Y-81628210D01*
X156739707Y-81628213D01*
X156628213Y-81739707D01*
X156628210Y-81739711D01*
X156540609Y-81870814D01*
X156540602Y-81870827D01*
X156480264Y-82016498D01*
X156480261Y-82016510D01*
X156449500Y-82171153D01*
X152822872Y-82171153D01*
X152820276Y-82169399D01*
X152809136Y-82143441D01*
X152795156Y-82118890D01*
X152794216Y-82114565D01*
X152769738Y-81991510D01*
X152769737Y-81991503D01*
X152719752Y-81870827D01*
X152709397Y-81845827D01*
X152709390Y-81845814D01*
X152621789Y-81714711D01*
X152621786Y-81714707D01*
X152536319Y-81629240D01*
X152502834Y-81567917D01*
X152500000Y-81541559D01*
X152500000Y-80183440D01*
X152503392Y-80171888D01*
X154323764Y-80171888D01*
X154323764Y-80329581D01*
X154354525Y-80484224D01*
X154354528Y-80484236D01*
X154414866Y-80629907D01*
X154414873Y-80629920D01*
X154502474Y-80761023D01*
X154502477Y-80761027D01*
X154613971Y-80872521D01*
X154613975Y-80872524D01*
X154745078Y-80960125D01*
X154745091Y-80960132D01*
X154888995Y-81019738D01*
X154890767Y-81020472D01*
X155041722Y-81050499D01*
X155045417Y-81051234D01*
X155045420Y-81051235D01*
X155045422Y-81051235D01*
X155203108Y-81051235D01*
X155203109Y-81051234D01*
X155357761Y-81020472D01*
X155503443Y-80960129D01*
X155634553Y-80872524D01*
X155746053Y-80761024D01*
X155833658Y-80629914D01*
X155833963Y-80629179D01*
X155854812Y-80578844D01*
X155894001Y-80484232D01*
X155897569Y-80466293D01*
X155906549Y-80421153D01*
X158199500Y-80421153D01*
X158199500Y-80578846D01*
X158230261Y-80733489D01*
X158230264Y-80733501D01*
X158290602Y-80879172D01*
X158290609Y-80879185D01*
X158378210Y-81010288D01*
X158378213Y-81010292D01*
X158489707Y-81121786D01*
X158489711Y-81121789D01*
X158620814Y-81209390D01*
X158620827Y-81209397D01*
X158766498Y-81269735D01*
X158766503Y-81269737D01*
X158921153Y-81300499D01*
X158921156Y-81300500D01*
X158921158Y-81300500D01*
X159078844Y-81300500D01*
X159078845Y-81300499D01*
X159233497Y-81269737D01*
X159379179Y-81209394D01*
X159510289Y-81121789D01*
X159621789Y-81010289D01*
X159709394Y-80879179D01*
X159769737Y-80733497D01*
X159800500Y-80578842D01*
X159800500Y-80421158D01*
X159800500Y-80421155D01*
X159800499Y-80421153D01*
X159782284Y-80329581D01*
X159769737Y-80266503D01*
X159769735Y-80266498D01*
X159709397Y-80120827D01*
X159709390Y-80120814D01*
X159621789Y-79989711D01*
X159621786Y-79989707D01*
X159510292Y-79878213D01*
X159510288Y-79878210D01*
X159379185Y-79790609D01*
X159379172Y-79790602D01*
X159233501Y-79730264D01*
X159233489Y-79730261D01*
X159078845Y-79699500D01*
X159078842Y-79699500D01*
X158921158Y-79699500D01*
X158921155Y-79699500D01*
X158766510Y-79730261D01*
X158766498Y-79730264D01*
X158620827Y-79790602D01*
X158620814Y-79790609D01*
X158489711Y-79878210D01*
X158489707Y-79878213D01*
X158378213Y-79989707D01*
X158378210Y-79989711D01*
X158290609Y-80120814D01*
X158290602Y-80120827D01*
X158230264Y-80266498D01*
X158230261Y-80266510D01*
X158199500Y-80421153D01*
X155906549Y-80421153D01*
X155912572Y-80390874D01*
X155912572Y-80390873D01*
X155924763Y-80329581D01*
X155924764Y-80329579D01*
X155924764Y-80171890D01*
X155924763Y-80171888D01*
X155897592Y-80035292D01*
X155894001Y-80017238D01*
X155893999Y-80017233D01*
X155833661Y-79871562D01*
X155833654Y-79871549D01*
X155746053Y-79740446D01*
X155746050Y-79740442D01*
X155634556Y-79628948D01*
X155634552Y-79628945D01*
X155506178Y-79543168D01*
X155506176Y-79543167D01*
X155503445Y-79541342D01*
X155503436Y-79541337D01*
X155357765Y-79480999D01*
X155357753Y-79480996D01*
X155203109Y-79450235D01*
X155203106Y-79450235D01*
X155045422Y-79450235D01*
X155045419Y-79450235D01*
X154890774Y-79480996D01*
X154890762Y-79480999D01*
X154745091Y-79541337D01*
X154745078Y-79541344D01*
X154613975Y-79628945D01*
X154613971Y-79628948D01*
X154502477Y-79740442D01*
X154502474Y-79740446D01*
X154414873Y-79871549D01*
X154414866Y-79871562D01*
X154354528Y-80017233D01*
X154354525Y-80017245D01*
X154323764Y-80171888D01*
X152503392Y-80171888D01*
X152508644Y-80153999D01*
X152515168Y-80124013D01*
X152518922Y-80118997D01*
X152519685Y-80116401D01*
X152536319Y-80095759D01*
X152609289Y-80022789D01*
X152696894Y-79891679D01*
X152757237Y-79745997D01*
X152788000Y-79591342D01*
X152788000Y-79446153D01*
X162199500Y-79446153D01*
X162199500Y-79603846D01*
X162230261Y-79758489D01*
X162230264Y-79758501D01*
X162290602Y-79904172D01*
X162290609Y-79904185D01*
X162378210Y-80035288D01*
X162378213Y-80035292D01*
X162489707Y-80146786D01*
X162489711Y-80146789D01*
X162620814Y-80234390D01*
X162620827Y-80234397D01*
X162698356Y-80266510D01*
X162766503Y-80294737D01*
X162858317Y-80313000D01*
X162921153Y-80325499D01*
X162921156Y-80325500D01*
X162921158Y-80325500D01*
X163078844Y-80325500D01*
X163078845Y-80325499D01*
X163233497Y-80294737D01*
X163379179Y-80234394D01*
X163510289Y-80146789D01*
X163621789Y-80035289D01*
X163709394Y-79904179D01*
X163769737Y-79758497D01*
X163800500Y-79603842D01*
X163800500Y-79446158D01*
X163800500Y-79446155D01*
X163800499Y-79446153D01*
X164449500Y-79446153D01*
X164449500Y-79603846D01*
X164480261Y-79758489D01*
X164480264Y-79758501D01*
X164540602Y-79904172D01*
X164540609Y-79904185D01*
X164628210Y-80035288D01*
X164628213Y-80035292D01*
X164739707Y-80146786D01*
X164739711Y-80146789D01*
X164870814Y-80234390D01*
X164870827Y-80234397D01*
X164948356Y-80266510D01*
X165016503Y-80294737D01*
X165108317Y-80313000D01*
X165171153Y-80325499D01*
X165171156Y-80325500D01*
X165171158Y-80325500D01*
X165328844Y-80325500D01*
X165328845Y-80325499D01*
X165483497Y-80294737D01*
X165629179Y-80234394D01*
X165723826Y-80171153D01*
X186949500Y-80171153D01*
X186949500Y-80328846D01*
X186980261Y-80483489D01*
X186980264Y-80483501D01*
X187040602Y-80629172D01*
X187040609Y-80629185D01*
X187128210Y-80760288D01*
X187128213Y-80760292D01*
X187239707Y-80871786D01*
X187239711Y-80871789D01*
X187370814Y-80959390D01*
X187370827Y-80959397D01*
X187506520Y-81015602D01*
X187516503Y-81019737D01*
X187671153Y-81050499D01*
X187671156Y-81050500D01*
X187671158Y-81050500D01*
X187828844Y-81050500D01*
X187828845Y-81050499D01*
X187983497Y-81019737D01*
X188096166Y-80973067D01*
X188129172Y-80959397D01*
X188129172Y-80959396D01*
X188129179Y-80959394D01*
X188260289Y-80871789D01*
X188371789Y-80760289D01*
X188459394Y-80629179D01*
X188519737Y-80483497D01*
X188550500Y-80328842D01*
X188550500Y-80171158D01*
X188550500Y-80171155D01*
X188550499Y-80171153D01*
X188523474Y-80035292D01*
X188519737Y-80016503D01*
X188519735Y-80016498D01*
X188459397Y-79870827D01*
X188459390Y-79870814D01*
X188371789Y-79739711D01*
X188371786Y-79739707D01*
X188260292Y-79628213D01*
X188260288Y-79628210D01*
X188129185Y-79540609D01*
X188129172Y-79540602D01*
X187983501Y-79480264D01*
X187983489Y-79480261D01*
X187828845Y-79449500D01*
X187828842Y-79449500D01*
X187671158Y-79449500D01*
X187671155Y-79449500D01*
X187516510Y-79480261D01*
X187516498Y-79480264D01*
X187370827Y-79540602D01*
X187370814Y-79540609D01*
X187239711Y-79628210D01*
X187239707Y-79628213D01*
X187128213Y-79739707D01*
X187128210Y-79739711D01*
X187040609Y-79870814D01*
X187040602Y-79870827D01*
X186980264Y-80016498D01*
X186980261Y-80016510D01*
X186949500Y-80171153D01*
X165723826Y-80171153D01*
X165760289Y-80146789D01*
X165790677Y-80116401D01*
X165829694Y-80077385D01*
X165871786Y-80035292D01*
X165871789Y-80035289D01*
X165959394Y-79904179D01*
X166019737Y-79758497D01*
X166050500Y-79603842D01*
X166050500Y-79446158D01*
X166050500Y-79446155D01*
X166050499Y-79446153D01*
X166035351Y-79370000D01*
X166019737Y-79291503D01*
X166004288Y-79254205D01*
X165959397Y-79145827D01*
X165959390Y-79145814D01*
X165871789Y-79014711D01*
X165871786Y-79014707D01*
X165760292Y-78903213D01*
X165760288Y-78903210D01*
X165629185Y-78815609D01*
X165629173Y-78815602D01*
X165602674Y-78804627D01*
X165483501Y-78755264D01*
X165483489Y-78755261D01*
X165328845Y-78724500D01*
X165328842Y-78724500D01*
X165171158Y-78724500D01*
X165171155Y-78724500D01*
X165016510Y-78755261D01*
X165016498Y-78755264D01*
X164870827Y-78815602D01*
X164870814Y-78815609D01*
X164739711Y-78903210D01*
X164739707Y-78903213D01*
X164628213Y-79014707D01*
X164628210Y-79014711D01*
X164540609Y-79145814D01*
X164540602Y-79145827D01*
X164480264Y-79291498D01*
X164480261Y-79291510D01*
X164449500Y-79446153D01*
X163800499Y-79446153D01*
X163785351Y-79370000D01*
X163769737Y-79291503D01*
X163754288Y-79254205D01*
X163709397Y-79145827D01*
X163709390Y-79145814D01*
X163621789Y-79014711D01*
X163621786Y-79014707D01*
X163510292Y-78903213D01*
X163510288Y-78903210D01*
X163379185Y-78815609D01*
X163379172Y-78815602D01*
X163233501Y-78755264D01*
X163233489Y-78755261D01*
X163078845Y-78724500D01*
X163078842Y-78724500D01*
X162921158Y-78724500D01*
X162921155Y-78724500D01*
X162766510Y-78755261D01*
X162766498Y-78755264D01*
X162620827Y-78815602D01*
X162620814Y-78815609D01*
X162489711Y-78903210D01*
X162489707Y-78903213D01*
X162378213Y-79014707D01*
X162378210Y-79014711D01*
X162290609Y-79145814D01*
X162290602Y-79145827D01*
X162230264Y-79291498D01*
X162230261Y-79291510D01*
X162199500Y-79446153D01*
X152788000Y-79446153D01*
X152788000Y-79433658D01*
X152788000Y-79433655D01*
X152787999Y-79433653D01*
X152780666Y-79396786D01*
X152757237Y-79279003D01*
X152757235Y-79278998D01*
X152696897Y-79133327D01*
X152696890Y-79133314D01*
X152609289Y-79002211D01*
X152609286Y-79002207D01*
X152536319Y-78929240D01*
X152521615Y-78902312D01*
X152505023Y-78876494D01*
X152504131Y-78870293D01*
X152502834Y-78867917D01*
X152500000Y-78841559D01*
X152500000Y-78696153D01*
X183449500Y-78696153D01*
X183449500Y-78853846D01*
X183480261Y-79008489D01*
X183480264Y-79008501D01*
X183540602Y-79154172D01*
X183540609Y-79154185D01*
X183628210Y-79285288D01*
X183628213Y-79285292D01*
X183739707Y-79396786D01*
X183739711Y-79396789D01*
X183870814Y-79484390D01*
X183870827Y-79484397D01*
X184012715Y-79543168D01*
X184016503Y-79544737D01*
X184171153Y-79575499D01*
X184171156Y-79575500D01*
X184171158Y-79575500D01*
X184328844Y-79575500D01*
X184328845Y-79575499D01*
X184483497Y-79544737D01*
X184629179Y-79484394D01*
X184760289Y-79396789D01*
X184871789Y-79285289D01*
X184896714Y-79247986D01*
X184916899Y-79217778D01*
X184959390Y-79154185D01*
X184959390Y-79154184D01*
X184959394Y-79154179D01*
X184962854Y-79145827D01*
X185017163Y-79014711D01*
X185019737Y-79008497D01*
X185050500Y-78853842D01*
X185050500Y-78820000D01*
X191625138Y-78820000D01*
X192428012Y-78820000D01*
X192410795Y-78829940D01*
X192354940Y-78885795D01*
X192315444Y-78954204D01*
X192295000Y-79030504D01*
X192295000Y-79109496D01*
X192315444Y-79185796D01*
X192354940Y-79254205D01*
X192410795Y-79310060D01*
X192428012Y-79320000D01*
X191625138Y-79320000D01*
X191633430Y-79361690D01*
X191633430Y-79361692D01*
X191708807Y-79543671D01*
X191708814Y-79543684D01*
X191818248Y-79707462D01*
X191818251Y-79707466D01*
X191957533Y-79846748D01*
X191957537Y-79846751D01*
X192121315Y-79956185D01*
X192121328Y-79956192D01*
X192303306Y-80031569D01*
X192303318Y-80031572D01*
X192496504Y-80069999D01*
X192496508Y-80070000D01*
X192895000Y-80070000D01*
X192895000Y-79370000D01*
X193395000Y-79370000D01*
X193395000Y-80070000D01*
X193793492Y-80070000D01*
X193793495Y-80069999D01*
X193986681Y-80031572D01*
X193986693Y-80031569D01*
X194168671Y-79956192D01*
X194168684Y-79956185D01*
X194332462Y-79846751D01*
X194332466Y-79846748D01*
X194471748Y-79707466D01*
X194471751Y-79707462D01*
X194581185Y-79543684D01*
X194581192Y-79543671D01*
X194656569Y-79361692D01*
X194656569Y-79361690D01*
X194664862Y-79320000D01*
X193861988Y-79320000D01*
X193879205Y-79310060D01*
X193935060Y-79254205D01*
X193974556Y-79185796D01*
X193995000Y-79109496D01*
X193995000Y-79030504D01*
X193974556Y-78954204D01*
X193935060Y-78885795D01*
X193879205Y-78829940D01*
X193861988Y-78820000D01*
X194664862Y-78820000D01*
X194656569Y-78778309D01*
X194656569Y-78778307D01*
X194581192Y-78596328D01*
X194581185Y-78596315D01*
X194471751Y-78432537D01*
X194471748Y-78432533D01*
X194332466Y-78293251D01*
X194332462Y-78293248D01*
X194168684Y-78183814D01*
X194168674Y-78183809D01*
X194159157Y-78179867D01*
X194104754Y-78136026D01*
X194082689Y-78069731D01*
X194099969Y-78002032D01*
X194103648Y-77996597D01*
X194105512Y-77993367D01*
X194105515Y-77993365D01*
X194181281Y-77862135D01*
X194220500Y-77715766D01*
X194220500Y-77564234D01*
X194181281Y-77417865D01*
X194105515Y-77286635D01*
X193998365Y-77179485D01*
X193932750Y-77141602D01*
X193867136Y-77103719D01*
X193793950Y-77084109D01*
X193720766Y-77064500D01*
X193569234Y-77064500D01*
X193422863Y-77103719D01*
X193291635Y-77179485D01*
X193291632Y-77179487D01*
X193184487Y-77286632D01*
X193184485Y-77286635D01*
X193108719Y-77417863D01*
X193073180Y-77550499D01*
X193069500Y-77564234D01*
X193069500Y-77715766D01*
X193083095Y-77766503D01*
X193108719Y-77862136D01*
X193142793Y-77921153D01*
X193184485Y-77993365D01*
X193291635Y-78100515D01*
X193333000Y-78124397D01*
X193381216Y-78174964D01*
X193395000Y-78231784D01*
X193395000Y-78770000D01*
X192895000Y-78770000D01*
X192895000Y-78070000D01*
X192496504Y-78070000D01*
X192303318Y-78108427D01*
X192303306Y-78108430D01*
X192121328Y-78183807D01*
X192121315Y-78183814D01*
X191957537Y-78293248D01*
X191957533Y-78293251D01*
X191818251Y-78432533D01*
X191818248Y-78432537D01*
X191708814Y-78596315D01*
X191708807Y-78596328D01*
X191633430Y-78778307D01*
X191633430Y-78778309D01*
X191625138Y-78820000D01*
X185050500Y-78820000D01*
X185050500Y-78696158D01*
X185050500Y-78696155D01*
X185050499Y-78696153D01*
X185019738Y-78541510D01*
X185019737Y-78541503D01*
X185006807Y-78510287D01*
X184959397Y-78395827D01*
X184959390Y-78395814D01*
X184871789Y-78264711D01*
X184871786Y-78264707D01*
X184760292Y-78153213D01*
X184760288Y-78153210D01*
X184629185Y-78065609D01*
X184629172Y-78065602D01*
X184483501Y-78005264D01*
X184483489Y-78005261D01*
X184328845Y-77974500D01*
X184328842Y-77974500D01*
X184171158Y-77974500D01*
X184171155Y-77974500D01*
X184016510Y-78005261D01*
X184016498Y-78005264D01*
X183870827Y-78065602D01*
X183870814Y-78065609D01*
X183739711Y-78153210D01*
X183739707Y-78153213D01*
X183628213Y-78264707D01*
X183628210Y-78264711D01*
X183540609Y-78395814D01*
X183540602Y-78395827D01*
X183480264Y-78541498D01*
X183480261Y-78541510D01*
X183449500Y-78696153D01*
X152500000Y-78696153D01*
X152500000Y-78658440D01*
X152519685Y-78591401D01*
X152536314Y-78570763D01*
X152596789Y-78510289D01*
X152684394Y-78379179D01*
X152744737Y-78233497D01*
X152775500Y-78078842D01*
X152775500Y-77921158D01*
X152775500Y-77921155D01*
X152775499Y-77921153D01*
X152763760Y-77862136D01*
X152744737Y-77766503D01*
X152723721Y-77715765D01*
X152684397Y-77620827D01*
X152684390Y-77620814D01*
X152596789Y-77489711D01*
X152596786Y-77489707D01*
X152536319Y-77429240D01*
X152502834Y-77367917D01*
X152500000Y-77341559D01*
X152500000Y-75496154D01*
X155629301Y-75496154D01*
X155629301Y-75653847D01*
X155660062Y-75808490D01*
X155660065Y-75808502D01*
X155720403Y-75954173D01*
X155720410Y-75954186D01*
X155808011Y-76085289D01*
X155808014Y-76085293D01*
X155919508Y-76196787D01*
X155919512Y-76196790D01*
X156050615Y-76284391D01*
X156050628Y-76284398D01*
X156196299Y-76344736D01*
X156196304Y-76344738D01*
X156332283Y-76371786D01*
X156350954Y-76375500D01*
X156350957Y-76375501D01*
X156350959Y-76375501D01*
X156508645Y-76375501D01*
X156508646Y-76375500D01*
X156663298Y-76344738D01*
X156808980Y-76284395D01*
X156940090Y-76196790D01*
X157051590Y-76085290D01*
X157139195Y-75954180D01*
X157139198Y-75954172D01*
X157140640Y-75951477D01*
X157141771Y-75950325D01*
X157142580Y-75949115D01*
X157142809Y-75949268D01*
X157189601Y-75901631D01*
X157257738Y-75886169D01*
X157323418Y-75909998D01*
X157357352Y-75949160D01*
X157357420Y-75949115D01*
X157357779Y-75949652D01*
X157359360Y-75951477D01*
X157360806Y-75954182D01*
X157448409Y-76085289D01*
X157448412Y-76085293D01*
X157559906Y-76196787D01*
X157559910Y-76196790D01*
X157691013Y-76284391D01*
X157691026Y-76284398D01*
X157836697Y-76344736D01*
X157836702Y-76344738D01*
X157972681Y-76371786D01*
X157991352Y-76375500D01*
X157991355Y-76375501D01*
X157991357Y-76375501D01*
X158149043Y-76375501D01*
X158149044Y-76375500D01*
X158303696Y-76344738D01*
X158449378Y-76284395D01*
X158580488Y-76196790D01*
X158691988Y-76085290D01*
X158779593Y-75954180D01*
X158839936Y-75808498D01*
X158867255Y-75671158D01*
X158867256Y-75671153D01*
X162124500Y-75671153D01*
X162124500Y-75828846D01*
X162155261Y-75983489D01*
X162155264Y-75983501D01*
X162215602Y-76129172D01*
X162215609Y-76129185D01*
X162303210Y-76260288D01*
X162303213Y-76260292D01*
X162414707Y-76371786D01*
X162414711Y-76371789D01*
X162545814Y-76459390D01*
X162545827Y-76459397D01*
X162683683Y-76516498D01*
X162691503Y-76519737D01*
X162846153Y-76550499D01*
X162846156Y-76550500D01*
X162846158Y-76550500D01*
X163003844Y-76550500D01*
X163003845Y-76550499D01*
X163158497Y-76519737D01*
X163271166Y-76473067D01*
X163304172Y-76459397D01*
X163304172Y-76459396D01*
X163304179Y-76459394D01*
X163435289Y-76371789D01*
X163546789Y-76260289D01*
X163634394Y-76129179D01*
X163635438Y-76126659D01*
X163636337Y-76125543D01*
X163637264Y-76123809D01*
X163637592Y-76123984D01*
X163679277Y-76072255D01*
X163745571Y-76050188D01*
X163813271Y-76067466D01*
X163860882Y-76118602D01*
X163864562Y-76126659D01*
X163865604Y-76129175D01*
X163865609Y-76129185D01*
X163953210Y-76260288D01*
X163953213Y-76260292D01*
X164064707Y-76371786D01*
X164064711Y-76371789D01*
X164195814Y-76459390D01*
X164195827Y-76459397D01*
X164333683Y-76516498D01*
X164341503Y-76519737D01*
X164496153Y-76550499D01*
X164496156Y-76550500D01*
X164496158Y-76550500D01*
X164653844Y-76550500D01*
X164653845Y-76550499D01*
X164808497Y-76519737D01*
X164921166Y-76473067D01*
X164954172Y-76459397D01*
X164954172Y-76459396D01*
X164954179Y-76459394D01*
X165085289Y-76371789D01*
X165196789Y-76260289D01*
X165284394Y-76129179D01*
X165344737Y-75983497D01*
X165375500Y-75828842D01*
X165375500Y-75671158D01*
X165375500Y-75671155D01*
X165375499Y-75671153D01*
X165367148Y-75629172D01*
X165344737Y-75516503D01*
X165331062Y-75483489D01*
X165284397Y-75370827D01*
X165284390Y-75370814D01*
X165196789Y-75239711D01*
X165196786Y-75239707D01*
X165085292Y-75128213D01*
X165085288Y-75128210D01*
X164954185Y-75040609D01*
X164954172Y-75040602D01*
X164808501Y-74980264D01*
X164808489Y-74980261D01*
X164653845Y-74949500D01*
X164653842Y-74949500D01*
X164496158Y-74949500D01*
X164496155Y-74949500D01*
X164341510Y-74980261D01*
X164341498Y-74980264D01*
X164195827Y-75040602D01*
X164195814Y-75040609D01*
X164064711Y-75128210D01*
X164064707Y-75128213D01*
X163953213Y-75239707D01*
X163953210Y-75239711D01*
X163865609Y-75370814D01*
X163865603Y-75370826D01*
X163864560Y-75373345D01*
X163863660Y-75374460D01*
X163862736Y-75376191D01*
X163862407Y-75376015D01*
X163820718Y-75427747D01*
X163754424Y-75449811D01*
X163686725Y-75432531D01*
X163639115Y-75381393D01*
X163635440Y-75373345D01*
X163634396Y-75370826D01*
X163634390Y-75370814D01*
X163546789Y-75239711D01*
X163546786Y-75239707D01*
X163435292Y-75128213D01*
X163435288Y-75128210D01*
X163304185Y-75040609D01*
X163304175Y-75040604D01*
X163248622Y-75017593D01*
X163194218Y-74973752D01*
X163172154Y-74907457D01*
X163189434Y-74839758D01*
X163240571Y-74792148D01*
X163248584Y-74788487D01*
X163379179Y-74734394D01*
X163510289Y-74646789D01*
X163621789Y-74535289D01*
X163709394Y-74404179D01*
X163769737Y-74258497D01*
X163800500Y-74103842D01*
X163800500Y-73946158D01*
X163800500Y-73946155D01*
X163800499Y-73946153D01*
X163788047Y-73883554D01*
X163769737Y-73791503D01*
X163755164Y-73756320D01*
X163737021Y-73712518D01*
X163719887Y-73671153D01*
X189774500Y-73671153D01*
X189774500Y-73828846D01*
X189805261Y-73983489D01*
X189805264Y-73983501D01*
X189865602Y-74129172D01*
X189865609Y-74129185D01*
X189953210Y-74260288D01*
X189953213Y-74260292D01*
X190064707Y-74371786D01*
X190064710Y-74371788D01*
X190064711Y-74371789D01*
X190090219Y-74388833D01*
X190102289Y-74396898D01*
X190147093Y-74450511D01*
X190155800Y-74519836D01*
X190125645Y-74582863D01*
X190102289Y-74603102D01*
X190064707Y-74628213D01*
X189953213Y-74739707D01*
X189953210Y-74739711D01*
X189865609Y-74870814D01*
X189865602Y-74870827D01*
X189805264Y-75016498D01*
X189805261Y-75016510D01*
X189774500Y-75171153D01*
X189774500Y-75328846D01*
X189805261Y-75483489D01*
X189805264Y-75483501D01*
X189865602Y-75629172D01*
X189865609Y-75629185D01*
X189953210Y-75760288D01*
X189953213Y-75760292D01*
X190064707Y-75871786D01*
X190064711Y-75871789D01*
X190195814Y-75959390D01*
X190195827Y-75959397D01*
X190278163Y-75993501D01*
X190341503Y-76019737D01*
X190496153Y-76050499D01*
X190496156Y-76050500D01*
X190496158Y-76050500D01*
X190653844Y-76050500D01*
X190653845Y-76050499D01*
X190808497Y-76019737D01*
X190954179Y-75959394D01*
X191085289Y-75871789D01*
X191196789Y-75760289D01*
X191284394Y-75629179D01*
X191344737Y-75483497D01*
X191375500Y-75328842D01*
X191375500Y-75171158D01*
X191375500Y-75171155D01*
X191375499Y-75171153D01*
X191366769Y-75127267D01*
X191344737Y-75016503D01*
X191341197Y-75007957D01*
X191284397Y-74870827D01*
X191284390Y-74870814D01*
X191196789Y-74739711D01*
X191196786Y-74739707D01*
X191085292Y-74628213D01*
X191085284Y-74628207D01*
X191047712Y-74603102D01*
X191002906Y-74549490D01*
X190994199Y-74480165D01*
X191024353Y-74417138D01*
X191047712Y-74396898D01*
X191074279Y-74379145D01*
X191085289Y-74371789D01*
X191196789Y-74260289D01*
X191284394Y-74129179D01*
X191344737Y-73983497D01*
X191375500Y-73828842D01*
X191375500Y-73671158D01*
X191375500Y-73671155D01*
X191375499Y-73671153D01*
X191344738Y-73516510D01*
X191344737Y-73516503D01*
X191343993Y-73514707D01*
X191284397Y-73370827D01*
X191284390Y-73370814D01*
X191196789Y-73239711D01*
X191196786Y-73239707D01*
X191085292Y-73128213D01*
X191085288Y-73128210D01*
X190954185Y-73040609D01*
X190954172Y-73040602D01*
X190808501Y-72980264D01*
X190808489Y-72980261D01*
X190653845Y-72949500D01*
X190653842Y-72949500D01*
X190496158Y-72949500D01*
X190496155Y-72949500D01*
X190341510Y-72980261D01*
X190341498Y-72980264D01*
X190195827Y-73040602D01*
X190195814Y-73040609D01*
X190064711Y-73128210D01*
X190064707Y-73128213D01*
X189953213Y-73239707D01*
X189953210Y-73239711D01*
X189865609Y-73370814D01*
X189865602Y-73370827D01*
X189805264Y-73516498D01*
X189805261Y-73516510D01*
X189774500Y-73671153D01*
X163719887Y-73671153D01*
X163709397Y-73645827D01*
X163709390Y-73645814D01*
X163621789Y-73514711D01*
X163621786Y-73514707D01*
X163510292Y-73403213D01*
X163510288Y-73403210D01*
X163379185Y-73315609D01*
X163379172Y-73315602D01*
X163233501Y-73255264D01*
X163233489Y-73255261D01*
X163078845Y-73224500D01*
X163078842Y-73224500D01*
X162921158Y-73224500D01*
X162921155Y-73224500D01*
X162766510Y-73255261D01*
X162766498Y-73255264D01*
X162620827Y-73315602D01*
X162620814Y-73315609D01*
X162489711Y-73403210D01*
X162489707Y-73403213D01*
X162378213Y-73514707D01*
X162378210Y-73514711D01*
X162290609Y-73645814D01*
X162290602Y-73645827D01*
X162230264Y-73791498D01*
X162230261Y-73791510D01*
X162199500Y-73946153D01*
X162199500Y-74103846D01*
X162230261Y-74258489D01*
X162230264Y-74258501D01*
X162290602Y-74404172D01*
X162290609Y-74404185D01*
X162378210Y-74535288D01*
X162378213Y-74535292D01*
X162489707Y-74646786D01*
X162489711Y-74646789D01*
X162620814Y-74734390D01*
X162620827Y-74734397D01*
X162676376Y-74757406D01*
X162730780Y-74801247D01*
X162752845Y-74867541D01*
X162735566Y-74935240D01*
X162684429Y-74982851D01*
X162676377Y-74986528D01*
X162545823Y-75040604D01*
X162545814Y-75040609D01*
X162414711Y-75128210D01*
X162414707Y-75128213D01*
X162303213Y-75239707D01*
X162303210Y-75239711D01*
X162215609Y-75370814D01*
X162215602Y-75370827D01*
X162155264Y-75516498D01*
X162155261Y-75516510D01*
X162124500Y-75671153D01*
X158867256Y-75671153D01*
X158870698Y-75653849D01*
X158870699Y-75653842D01*
X158870699Y-75496156D01*
X158870698Y-75496154D01*
X158861480Y-75449811D01*
X158839936Y-75341504D01*
X158834691Y-75328842D01*
X158779596Y-75195828D01*
X158779589Y-75195815D01*
X158691988Y-75064712D01*
X158691985Y-75064708D01*
X158580491Y-74953214D01*
X158580487Y-74953211D01*
X158449384Y-74865610D01*
X158449371Y-74865603D01*
X158303700Y-74805265D01*
X158303688Y-74805262D01*
X158149044Y-74774501D01*
X158149041Y-74774501D01*
X157991357Y-74774501D01*
X157991354Y-74774501D01*
X157836709Y-74805262D01*
X157836697Y-74805265D01*
X157691026Y-74865603D01*
X157691013Y-74865610D01*
X157559910Y-74953211D01*
X157559906Y-74953214D01*
X157448412Y-75064708D01*
X157448409Y-75064712D01*
X157360805Y-75195820D01*
X157359357Y-75198530D01*
X157358224Y-75199682D01*
X157357420Y-75200887D01*
X157357191Y-75200734D01*
X157310394Y-75248373D01*
X157242256Y-75263832D01*
X157176576Y-75239999D01*
X157142646Y-75200842D01*
X157142580Y-75200887D01*
X157142225Y-75200355D01*
X157140643Y-75198530D01*
X157139194Y-75195820D01*
X157051590Y-75064712D01*
X157051587Y-75064708D01*
X156940093Y-74953214D01*
X156940089Y-74953211D01*
X156808986Y-74865610D01*
X156808973Y-74865603D01*
X156663302Y-74805265D01*
X156663290Y-74805262D01*
X156508646Y-74774501D01*
X156508643Y-74774501D01*
X156350959Y-74774501D01*
X156350956Y-74774501D01*
X156196311Y-74805262D01*
X156196299Y-74805265D01*
X156050628Y-74865603D01*
X156050615Y-74865610D01*
X155919512Y-74953211D01*
X155919508Y-74953214D01*
X155808014Y-75064708D01*
X155808011Y-75064712D01*
X155720410Y-75195815D01*
X155720403Y-75195828D01*
X155660065Y-75341499D01*
X155660062Y-75341511D01*
X155629301Y-75496154D01*
X152500000Y-75496154D01*
X152500000Y-73182918D01*
X153687735Y-73182918D01*
X153687735Y-73340611D01*
X153718496Y-73495254D01*
X153718499Y-73495266D01*
X153778837Y-73640937D01*
X153778844Y-73640950D01*
X153866445Y-73772053D01*
X153866448Y-73772057D01*
X153977942Y-73883551D01*
X153977946Y-73883554D01*
X154109049Y-73971155D01*
X154109062Y-73971162D01*
X154250095Y-74029579D01*
X154254738Y-74031502D01*
X154409388Y-74062264D01*
X154409391Y-74062265D01*
X154409393Y-74062265D01*
X154567079Y-74062265D01*
X154567080Y-74062264D01*
X154721732Y-74031502D01*
X154867414Y-73971159D01*
X154998524Y-73883554D01*
X155110024Y-73772054D01*
X155197629Y-73640944D01*
X155257972Y-73495262D01*
X155288735Y-73340607D01*
X155288735Y-73182923D01*
X155288735Y-73182920D01*
X155288734Y-73182918D01*
X155278046Y-73129185D01*
X155257972Y-73028268D01*
X155239429Y-72983501D01*
X155197632Y-72882592D01*
X155197625Y-72882579D01*
X155110024Y-72751476D01*
X155110021Y-72751472D01*
X155029702Y-72671153D01*
X158449500Y-72671153D01*
X158449500Y-72828846D01*
X158480261Y-72983489D01*
X158480264Y-72983501D01*
X158540602Y-73129172D01*
X158540609Y-73129185D01*
X158628210Y-73260288D01*
X158628213Y-73260292D01*
X158657945Y-73290024D01*
X158691430Y-73351347D01*
X158686446Y-73421039D01*
X158673366Y-73446596D01*
X158589874Y-73571549D01*
X158589867Y-73571562D01*
X158529529Y-73717233D01*
X158529526Y-73717245D01*
X158498765Y-73871888D01*
X158498765Y-74029581D01*
X158529526Y-74184224D01*
X158529529Y-74184236D01*
X158589867Y-74329907D01*
X158589874Y-74329920D01*
X158677475Y-74461023D01*
X158677478Y-74461027D01*
X158788972Y-74572521D01*
X158788976Y-74572524D01*
X158920079Y-74660125D01*
X158920092Y-74660132D01*
X159065763Y-74720470D01*
X159065768Y-74720472D01*
X159206714Y-74748508D01*
X159220418Y-74751234D01*
X159220421Y-74751235D01*
X159220423Y-74751235D01*
X159378109Y-74751235D01*
X159378110Y-74751234D01*
X159532762Y-74720472D01*
X159678444Y-74660129D01*
X159809554Y-74572524D01*
X159921054Y-74461024D01*
X160008659Y-74329914D01*
X160069002Y-74184232D01*
X160099765Y-74029577D01*
X160099765Y-73871893D01*
X160099765Y-73871890D01*
X160099764Y-73871888D01*
X160091202Y-73828844D01*
X160069002Y-73717238D01*
X160039423Y-73645827D01*
X160008662Y-73571562D01*
X160008655Y-73571549D01*
X159921054Y-73440446D01*
X159921051Y-73440442D01*
X159891319Y-73410710D01*
X159857834Y-73349387D01*
X159862818Y-73279695D01*
X159875892Y-73254147D01*
X159959394Y-73129179D01*
X160019737Y-72983497D01*
X160050500Y-72828842D01*
X160050500Y-72671158D01*
X160050500Y-72671155D01*
X160050499Y-72671153D01*
X160026872Y-72552374D01*
X160019737Y-72516503D01*
X160009599Y-72492028D01*
X159959397Y-72370827D01*
X159959390Y-72370814D01*
X159871789Y-72239711D01*
X159871786Y-72239707D01*
X159760292Y-72128213D01*
X159760288Y-72128210D01*
X159629185Y-72040609D01*
X159629172Y-72040602D01*
X159483501Y-71980264D01*
X159483489Y-71980261D01*
X159328845Y-71949500D01*
X159328842Y-71949500D01*
X159171158Y-71949500D01*
X159171155Y-71949500D01*
X159016510Y-71980261D01*
X159016498Y-71980264D01*
X158870827Y-72040602D01*
X158870814Y-72040609D01*
X158739711Y-72128210D01*
X158739707Y-72128213D01*
X158628213Y-72239707D01*
X158628210Y-72239711D01*
X158540609Y-72370814D01*
X158540602Y-72370827D01*
X158480264Y-72516498D01*
X158480261Y-72516510D01*
X158449500Y-72671153D01*
X155029702Y-72671153D01*
X154998527Y-72639978D01*
X154998523Y-72639975D01*
X154867420Y-72552374D01*
X154867407Y-72552367D01*
X154721736Y-72492029D01*
X154721724Y-72492026D01*
X154567080Y-72461265D01*
X154567077Y-72461265D01*
X154409393Y-72461265D01*
X154409390Y-72461265D01*
X154254745Y-72492026D01*
X154254733Y-72492029D01*
X154109062Y-72552367D01*
X154109049Y-72552374D01*
X153977946Y-72639975D01*
X153977942Y-72639978D01*
X153866448Y-72751472D01*
X153866445Y-72751476D01*
X153778844Y-72882579D01*
X153778837Y-72882592D01*
X153718499Y-73028263D01*
X153718496Y-73028275D01*
X153687735Y-73182918D01*
X152500000Y-73182918D01*
X152500000Y-71569927D01*
X152519685Y-71502888D01*
X152572489Y-71457133D01*
X152641647Y-71447189D01*
X152671450Y-71455365D01*
X152766503Y-71494737D01*
X152921153Y-71525499D01*
X152921156Y-71525500D01*
X152921158Y-71525500D01*
X153078844Y-71525500D01*
X153078845Y-71525499D01*
X153233497Y-71494737D01*
X153379179Y-71434394D01*
X153510289Y-71346789D01*
X153621789Y-71235289D01*
X153709394Y-71104179D01*
X153769737Y-70958497D01*
X153800500Y-70803842D01*
X153800500Y-70646158D01*
X153800500Y-70646155D01*
X153800499Y-70646153D01*
X153795790Y-70622478D01*
X153769737Y-70491503D01*
X153769735Y-70491498D01*
X153737021Y-70412518D01*
X153719887Y-70371153D01*
X156949500Y-70371153D01*
X156949500Y-70528846D01*
X156980261Y-70683489D01*
X156980264Y-70683501D01*
X157040602Y-70829172D01*
X157040609Y-70829185D01*
X157128210Y-70960288D01*
X157128213Y-70960292D01*
X157239707Y-71071786D01*
X157239711Y-71071789D01*
X157370814Y-71159390D01*
X157370827Y-71159397D01*
X157516498Y-71219735D01*
X157516503Y-71219737D01*
X157671153Y-71250499D01*
X157671156Y-71250500D01*
X157671158Y-71250500D01*
X157828844Y-71250500D01*
X157828845Y-71250499D01*
X157983497Y-71219737D01*
X158129179Y-71159394D01*
X158260289Y-71071789D01*
X158371789Y-70960289D01*
X158459394Y-70829179D01*
X158519737Y-70683497D01*
X158550500Y-70528842D01*
X158550500Y-70371158D01*
X158550500Y-70371155D01*
X158550499Y-70371153D01*
X158531847Y-70277385D01*
X158519737Y-70216503D01*
X158492375Y-70150444D01*
X158459397Y-70070827D01*
X158459390Y-70070814D01*
X158371789Y-69939711D01*
X158371786Y-69939707D01*
X158260292Y-69828213D01*
X158260288Y-69828210D01*
X158129185Y-69740609D01*
X158129172Y-69740602D01*
X157983501Y-69680264D01*
X157983489Y-69680261D01*
X157828845Y-69649500D01*
X157828842Y-69649500D01*
X157671158Y-69649500D01*
X157671155Y-69649500D01*
X157516510Y-69680261D01*
X157516498Y-69680264D01*
X157370827Y-69740602D01*
X157370814Y-69740609D01*
X157239711Y-69828210D01*
X157239707Y-69828213D01*
X157128213Y-69939707D01*
X157128210Y-69939711D01*
X157040609Y-70070814D01*
X157040602Y-70070827D01*
X156980264Y-70216498D01*
X156980261Y-70216510D01*
X156949500Y-70371153D01*
X153719887Y-70371153D01*
X153709397Y-70345827D01*
X153709390Y-70345814D01*
X153621789Y-70214711D01*
X153621786Y-70214707D01*
X153510292Y-70103213D01*
X153510288Y-70103210D01*
X153379185Y-70015609D01*
X153379172Y-70015602D01*
X153233501Y-69955264D01*
X153233489Y-69955261D01*
X153078845Y-69924500D01*
X153078842Y-69924500D01*
X152921158Y-69924500D01*
X152921155Y-69924500D01*
X152766510Y-69955261D01*
X152766507Y-69955262D01*
X152766506Y-69955262D01*
X152766503Y-69955263D01*
X152685410Y-69988852D01*
X152671452Y-69994634D01*
X152601982Y-70002102D01*
X152539503Y-69970826D01*
X152503851Y-69910737D01*
X152500000Y-69880072D01*
X152500000Y-68921153D01*
X153724500Y-68921153D01*
X153724500Y-69078846D01*
X153755261Y-69233489D01*
X153755264Y-69233501D01*
X153815602Y-69379172D01*
X153815609Y-69379185D01*
X153903210Y-69510288D01*
X153903213Y-69510292D01*
X154014707Y-69621786D01*
X154014711Y-69621789D01*
X154145814Y-69709390D01*
X154145827Y-69709397D01*
X154221181Y-69740609D01*
X154291503Y-69769737D01*
X154406126Y-69792537D01*
X154446153Y-69800499D01*
X154446156Y-69800500D01*
X154446158Y-69800500D01*
X154603844Y-69800500D01*
X154603845Y-69800499D01*
X154758497Y-69769737D01*
X154904179Y-69709394D01*
X155035289Y-69621789D01*
X155146789Y-69510289D01*
X155234394Y-69379179D01*
X155294737Y-69233497D01*
X155325500Y-69078842D01*
X155325500Y-68921158D01*
X155325500Y-68921155D01*
X155320785Y-68897452D01*
X155327012Y-68827860D01*
X155369875Y-68772683D01*
X155435765Y-68749438D01*
X155489854Y-68758699D01*
X155499434Y-68762667D01*
X155516503Y-68769737D01*
X155671153Y-68800499D01*
X155671156Y-68800500D01*
X155671158Y-68800500D01*
X155828844Y-68800500D01*
X155828845Y-68800499D01*
X155983497Y-68769737D01*
X156129179Y-68709394D01*
X156260289Y-68621789D01*
X156371789Y-68510289D01*
X156459394Y-68379179D01*
X156462854Y-68370827D01*
X156480244Y-68328842D01*
X156519737Y-68233497D01*
X156522212Y-68221050D01*
X156527165Y-68196153D01*
X158699500Y-68196153D01*
X158699500Y-68353846D01*
X158730261Y-68508489D01*
X158730264Y-68508501D01*
X158790602Y-68654172D01*
X158790609Y-68654185D01*
X158878210Y-68785288D01*
X158878213Y-68785292D01*
X158989707Y-68896786D01*
X158989713Y-68896791D01*
X158989879Y-68896902D01*
X158989945Y-68896982D01*
X158994419Y-68900653D01*
X158993722Y-68901501D01*
X159034681Y-68950516D01*
X159043384Y-69019842D01*
X159013226Y-69082868D01*
X158994331Y-69099240D01*
X158994419Y-69099347D01*
X158990428Y-69102621D01*
X158989879Y-69103098D01*
X158989713Y-69103208D01*
X158989707Y-69103213D01*
X158878213Y-69214707D01*
X158878210Y-69214711D01*
X158790609Y-69345814D01*
X158790602Y-69345827D01*
X158730264Y-69491498D01*
X158730261Y-69491510D01*
X158699500Y-69646153D01*
X158699500Y-69803846D01*
X158730261Y-69958489D01*
X158730264Y-69958501D01*
X158790602Y-70104172D01*
X158790609Y-70104185D01*
X158878210Y-70235288D01*
X158878213Y-70235292D01*
X158989707Y-70346786D01*
X158989711Y-70346789D01*
X159120814Y-70434390D01*
X159120827Y-70434397D01*
X159205565Y-70469496D01*
X159266503Y-70494737D01*
X159421153Y-70525499D01*
X159421156Y-70525500D01*
X159421158Y-70525500D01*
X159578844Y-70525500D01*
X159578845Y-70525499D01*
X159733497Y-70494737D01*
X159879179Y-70434394D01*
X159973826Y-70371153D01*
X183449500Y-70371153D01*
X183449500Y-70528846D01*
X183480261Y-70683489D01*
X183480264Y-70683501D01*
X183540602Y-70829172D01*
X183540609Y-70829185D01*
X183628210Y-70960288D01*
X183628213Y-70960292D01*
X183739707Y-71071786D01*
X183739711Y-71071789D01*
X183870814Y-71159390D01*
X183870827Y-71159397D01*
X184016498Y-71219735D01*
X184016503Y-71219737D01*
X184171153Y-71250499D01*
X184171156Y-71250500D01*
X184171158Y-71250500D01*
X184328844Y-71250500D01*
X184328845Y-71250499D01*
X184483497Y-71219737D01*
X184629179Y-71159394D01*
X184760289Y-71071789D01*
X184871789Y-70960289D01*
X184959394Y-70829179D01*
X185019737Y-70683497D01*
X185047128Y-70545796D01*
X185050500Y-70528844D01*
X185050500Y-70371155D01*
X185050499Y-70371153D01*
X185023920Y-70237529D01*
X185023919Y-70237525D01*
X185019737Y-70216505D01*
X185019737Y-70216503D01*
X185004617Y-70180000D01*
X191625138Y-70180000D01*
X192428012Y-70180000D01*
X192410795Y-70189940D01*
X192354940Y-70245795D01*
X192315444Y-70314204D01*
X192295000Y-70390504D01*
X192295000Y-70469496D01*
X192315444Y-70545796D01*
X192354940Y-70614205D01*
X192410795Y-70670060D01*
X192428012Y-70680000D01*
X191625138Y-70680000D01*
X191633430Y-70721690D01*
X191633430Y-70721692D01*
X191708807Y-70903671D01*
X191708814Y-70903684D01*
X191818248Y-71067462D01*
X191818251Y-71067466D01*
X191957533Y-71206748D01*
X191957537Y-71206751D01*
X192121315Y-71316185D01*
X192121328Y-71316192D01*
X192303306Y-71391569D01*
X192303318Y-71391572D01*
X192496504Y-71429999D01*
X192496508Y-71430000D01*
X192895000Y-71430000D01*
X192895000Y-70730000D01*
X193395000Y-70730000D01*
X193395000Y-71268215D01*
X193375315Y-71335254D01*
X193333002Y-71375601D01*
X193291638Y-71399483D01*
X193291632Y-71399487D01*
X193184487Y-71506632D01*
X193184485Y-71506635D01*
X193108719Y-71637863D01*
X193069500Y-71784234D01*
X193069500Y-71935765D01*
X193108719Y-72082136D01*
X193135321Y-72128211D01*
X193184485Y-72213365D01*
X193291635Y-72320515D01*
X193422865Y-72396281D01*
X193569234Y-72435500D01*
X193569235Y-72435500D01*
X193574598Y-72436206D01*
X193638495Y-72464472D01*
X193676966Y-72522796D01*
X193677798Y-72592661D01*
X193646095Y-72646826D01*
X193553210Y-72739711D01*
X193465609Y-72870814D01*
X193465602Y-72870827D01*
X193405264Y-73016498D01*
X193405261Y-73016510D01*
X193374500Y-73171153D01*
X193374500Y-73328846D01*
X193405261Y-73483489D01*
X193405264Y-73483501D01*
X193465602Y-73629172D01*
X193465609Y-73629185D01*
X193534241Y-73731899D01*
X193555119Y-73798576D01*
X193542000Y-73853025D01*
X193542937Y-73853413D01*
X193480264Y-74004718D01*
X193480261Y-74004730D01*
X193449500Y-74159373D01*
X193449500Y-74317066D01*
X193480261Y-74471709D01*
X193480264Y-74471721D01*
X193540602Y-74617392D01*
X193540609Y-74617405D01*
X193628210Y-74748508D01*
X193628213Y-74748512D01*
X193739707Y-74860006D01*
X193739710Y-74860008D01*
X193739711Y-74860009D01*
X193755882Y-74870814D01*
X193756087Y-74870951D01*
X193800891Y-74924564D01*
X193809598Y-74993889D01*
X193779443Y-75056916D01*
X193756086Y-75077155D01*
X193664711Y-75138210D01*
X193664707Y-75138213D01*
X193553213Y-75249707D01*
X193553210Y-75249711D01*
X193465609Y-75380814D01*
X193465602Y-75380827D01*
X193405264Y-75526498D01*
X193405261Y-75526510D01*
X193374500Y-75681153D01*
X193374500Y-75838846D01*
X193405261Y-75993489D01*
X193405264Y-75993501D01*
X193465602Y-76139172D01*
X193465609Y-76139185D01*
X193553210Y-76270288D01*
X193553213Y-76270292D01*
X193664707Y-76381786D01*
X193664711Y-76381789D01*
X193795814Y-76469390D01*
X193795827Y-76469397D01*
X193917363Y-76519738D01*
X193941503Y-76529737D01*
X194039993Y-76549328D01*
X194099691Y-76561203D01*
X194161602Y-76593588D01*
X194196176Y-76654303D01*
X194199500Y-76682820D01*
X194199500Y-76828846D01*
X194230261Y-76983489D01*
X194230264Y-76983501D01*
X194289238Y-77125879D01*
X194289240Y-77125883D01*
X194290606Y-77129179D01*
X194364719Y-77240097D01*
X194364809Y-77240233D01*
X194378210Y-77260288D01*
X194378213Y-77260292D01*
X194489707Y-77371786D01*
X194489711Y-77371789D01*
X194620814Y-77459390D01*
X194620827Y-77459397D01*
X194694013Y-77489711D01*
X194766503Y-77519737D01*
X194921153Y-77550499D01*
X194921156Y-77550500D01*
X194921158Y-77550500D01*
X195078844Y-77550500D01*
X195078845Y-77550499D01*
X195233497Y-77519737D01*
X195379179Y-77459394D01*
X195510289Y-77371789D01*
X195621789Y-77260289D01*
X195709394Y-77129179D01*
X195769737Y-76983497D01*
X195800500Y-76828842D01*
X195800500Y-76671158D01*
X195800500Y-76671155D01*
X195800499Y-76671153D01*
X195778628Y-76561203D01*
X195769737Y-76516503D01*
X195750224Y-76469394D01*
X195709397Y-76370827D01*
X195709390Y-76370814D01*
X195621789Y-76239711D01*
X195621786Y-76239707D01*
X195510292Y-76128213D01*
X195510288Y-76128210D01*
X195379185Y-76040609D01*
X195379172Y-76040602D01*
X195233501Y-75980264D01*
X195233491Y-75980261D01*
X195075308Y-75948796D01*
X195013397Y-75916411D01*
X194978823Y-75855695D01*
X194975500Y-75827179D01*
X194975500Y-75681155D01*
X194975499Y-75681153D01*
X194944738Y-75526510D01*
X194944737Y-75526503D01*
X194926925Y-75483501D01*
X194884397Y-75380827D01*
X194884390Y-75380814D01*
X194796789Y-75249711D01*
X194796786Y-75249707D01*
X194685290Y-75138211D01*
X194668911Y-75127267D01*
X194624107Y-75073654D01*
X194615401Y-75004329D01*
X194645557Y-74941302D01*
X194668909Y-74921066D01*
X194760289Y-74860009D01*
X194871789Y-74748509D01*
X194959394Y-74617399D01*
X195019737Y-74471717D01*
X195050500Y-74317062D01*
X195050500Y-74159378D01*
X195050500Y-74159375D01*
X195050499Y-74159373D01*
X195039454Y-74103846D01*
X195019737Y-74004723D01*
X195005836Y-73971162D01*
X194959397Y-73859047D01*
X194959390Y-73859034D01*
X194890758Y-73756320D01*
X194869880Y-73689643D01*
X194883007Y-73635199D01*
X194882063Y-73634808D01*
X194931063Y-73516510D01*
X194944737Y-73483497D01*
X194975500Y-73328842D01*
X194975500Y-73171158D01*
X194975500Y-73171155D01*
X194975499Y-73171153D01*
X194949531Y-73040606D01*
X194944737Y-73016503D01*
X194931062Y-72983489D01*
X194884397Y-72870827D01*
X194884390Y-72870814D01*
X194796789Y-72739711D01*
X194796786Y-72739707D01*
X194685292Y-72628213D01*
X194685288Y-72628210D01*
X194554185Y-72540609D01*
X194554172Y-72540602D01*
X194408501Y-72480264D01*
X194408489Y-72480261D01*
X194253845Y-72449500D01*
X194253842Y-72449500D01*
X194168742Y-72449500D01*
X194101703Y-72429815D01*
X194055948Y-72377011D01*
X194046004Y-72307853D01*
X194075029Y-72244297D01*
X194081061Y-72237819D01*
X194105515Y-72213365D01*
X194181281Y-72082135D01*
X194182490Y-72077620D01*
X194218849Y-72017960D01*
X194281693Y-71987426D01*
X194351069Y-71995715D01*
X194389947Y-72022026D01*
X194489707Y-72121786D01*
X194489711Y-72121789D01*
X194620814Y-72209390D01*
X194620827Y-72209397D01*
X194766498Y-72269735D01*
X194766503Y-72269737D01*
X194921153Y-72300499D01*
X194921156Y-72300500D01*
X194921158Y-72300500D01*
X195078844Y-72300500D01*
X195078845Y-72300499D01*
X195233497Y-72269737D01*
X195369592Y-72213365D01*
X195379172Y-72209397D01*
X195379172Y-72209396D01*
X195379179Y-72209394D01*
X195510289Y-72121789D01*
X195621789Y-72010289D01*
X195709394Y-71879179D01*
X195769737Y-71733497D01*
X195800500Y-71578842D01*
X195800500Y-71421158D01*
X195800500Y-71421155D01*
X195800499Y-71421153D01*
X195796189Y-71399485D01*
X195769737Y-71266503D01*
X195769735Y-71266498D01*
X195709397Y-71120827D01*
X195709390Y-71120814D01*
X195621789Y-70989711D01*
X195621786Y-70989707D01*
X195510292Y-70878213D01*
X195510288Y-70878210D01*
X195379185Y-70790609D01*
X195379172Y-70790602D01*
X195308260Y-70761230D01*
X195233501Y-70730264D01*
X195233489Y-70730261D01*
X195078845Y-70699500D01*
X195078842Y-70699500D01*
X194921158Y-70699500D01*
X194921153Y-70699500D01*
X194787482Y-70726089D01*
X194717891Y-70719862D01*
X194667439Y-70683138D01*
X194664864Y-70680000D01*
X193861988Y-70680000D01*
X193879205Y-70670060D01*
X193935060Y-70614205D01*
X193974556Y-70545796D01*
X193995000Y-70469496D01*
X193995000Y-70390504D01*
X193974556Y-70314204D01*
X193935060Y-70245795D01*
X193879205Y-70189940D01*
X193861988Y-70180000D01*
X194664862Y-70180000D01*
X194656569Y-70138309D01*
X194656569Y-70138307D01*
X194581192Y-69956328D01*
X194581185Y-69956315D01*
X194471751Y-69792537D01*
X194471748Y-69792533D01*
X194332466Y-69653251D01*
X194332462Y-69653248D01*
X194168684Y-69543814D01*
X194168671Y-69543807D01*
X193986693Y-69468430D01*
X193986681Y-69468427D01*
X193864031Y-69444030D01*
X193802120Y-69411645D01*
X193767545Y-69350929D01*
X193771285Y-69281160D01*
X193812152Y-69224488D01*
X193819325Y-69219315D01*
X193849035Y-69199464D01*
X193974464Y-69074035D01*
X194073013Y-68926547D01*
X194076910Y-68917140D01*
X194095694Y-68871789D01*
X194140894Y-68762666D01*
X194141367Y-68760292D01*
X194169324Y-68619738D01*
X194175500Y-68588691D01*
X194175500Y-68411309D01*
X194175500Y-68411306D01*
X194175499Y-68411304D01*
X194140896Y-68237341D01*
X194140893Y-68237332D01*
X194137965Y-68230264D01*
X194106050Y-68153213D01*
X194073016Y-68073459D01*
X194073009Y-68073446D01*
X193974464Y-67925965D01*
X193974461Y-67925961D01*
X193849038Y-67800538D01*
X193849034Y-67800535D01*
X193701553Y-67701990D01*
X193701540Y-67701983D01*
X193537667Y-67634106D01*
X193537658Y-67634103D01*
X193363694Y-67599500D01*
X193363691Y-67599500D01*
X193186309Y-67599500D01*
X193186306Y-67599500D01*
X193012341Y-67634103D01*
X193012332Y-67634106D01*
X192848459Y-67701983D01*
X192848446Y-67701990D01*
X192700965Y-67800535D01*
X192700961Y-67800538D01*
X192575538Y-67925961D01*
X192575535Y-67925965D01*
X192476990Y-68073446D01*
X192476983Y-68073459D01*
X192409106Y-68237332D01*
X192409103Y-68237341D01*
X192374500Y-68411304D01*
X192374500Y-68588695D01*
X192409103Y-68762658D01*
X192409106Y-68762667D01*
X192476983Y-68926540D01*
X192476990Y-68926553D01*
X192575535Y-69074034D01*
X192575538Y-69074038D01*
X192700962Y-69199462D01*
X192706103Y-69202897D01*
X192750909Y-69256509D01*
X192759616Y-69325834D01*
X192729462Y-69388862D01*
X192670019Y-69425582D01*
X192637213Y-69430000D01*
X192496504Y-69430000D01*
X192303318Y-69468427D01*
X192303306Y-69468430D01*
X192121328Y-69543807D01*
X192121315Y-69543814D01*
X191957537Y-69653248D01*
X191957533Y-69653251D01*
X191818251Y-69792533D01*
X191818248Y-69792537D01*
X191708814Y-69956315D01*
X191708807Y-69956328D01*
X191633430Y-70138307D01*
X191633430Y-70138309D01*
X191625138Y-70180000D01*
X185004617Y-70180000D01*
X184992375Y-70150444D01*
X184959397Y-70070827D01*
X184959390Y-70070814D01*
X184871789Y-69939711D01*
X184871786Y-69939707D01*
X184760292Y-69828213D01*
X184760288Y-69828210D01*
X184629185Y-69740609D01*
X184629172Y-69740602D01*
X184483501Y-69680264D01*
X184483489Y-69680261D01*
X184328845Y-69649500D01*
X184328842Y-69649500D01*
X184171158Y-69649500D01*
X184171155Y-69649500D01*
X184016510Y-69680261D01*
X184016498Y-69680264D01*
X183870827Y-69740602D01*
X183870814Y-69740609D01*
X183739711Y-69828210D01*
X183739707Y-69828213D01*
X183628213Y-69939707D01*
X183628210Y-69939711D01*
X183540609Y-70070814D01*
X183540602Y-70070827D01*
X183480264Y-70216498D01*
X183480261Y-70216510D01*
X183449500Y-70371153D01*
X159973826Y-70371153D01*
X160010289Y-70346789D01*
X160042874Y-70314204D01*
X160079694Y-70277385D01*
X160121786Y-70235292D01*
X160121789Y-70235289D01*
X160209394Y-70104179D01*
X160269737Y-69958497D01*
X160300500Y-69803842D01*
X160300500Y-69646158D01*
X160300500Y-69646155D01*
X160300499Y-69646153D01*
X160280326Y-69544737D01*
X160269737Y-69491503D01*
X160260179Y-69468427D01*
X160209397Y-69345827D01*
X160209390Y-69345814D01*
X160121789Y-69214711D01*
X160121786Y-69214707D01*
X160010292Y-69103213D01*
X160010286Y-69103208D01*
X160010130Y-69103104D01*
X160010066Y-69103028D01*
X160005581Y-69099347D01*
X160006279Y-69098496D01*
X159965323Y-69049494D01*
X159956613Y-68980169D01*
X159986766Y-68917140D01*
X160005669Y-68900760D01*
X160005581Y-68900653D01*
X160009610Y-68897346D01*
X160010130Y-68896896D01*
X160010286Y-68896791D01*
X160010285Y-68896791D01*
X160010289Y-68896789D01*
X160121789Y-68785289D01*
X160198052Y-68671153D01*
X162162000Y-68671153D01*
X162162000Y-68828846D01*
X162192761Y-68983489D01*
X162192764Y-68983501D01*
X162253102Y-69129172D01*
X162253109Y-69129185D01*
X162340710Y-69260288D01*
X162340713Y-69260292D01*
X162452207Y-69371786D01*
X162452211Y-69371789D01*
X162583314Y-69459390D01*
X162583327Y-69459397D01*
X162728998Y-69519735D01*
X162729003Y-69519737D01*
X162854676Y-69544735D01*
X162883653Y-69550499D01*
X162883656Y-69550500D01*
X162883658Y-69550500D01*
X163041344Y-69550500D01*
X163041345Y-69550499D01*
X163195997Y-69519737D01*
X163341679Y-69459394D01*
X163472789Y-69371789D01*
X163584289Y-69260289D01*
X163671894Y-69129179D01*
X163732237Y-68983497D01*
X163763000Y-68828842D01*
X163763000Y-68700312D01*
X163764221Y-68696153D01*
X165449500Y-68696153D01*
X165449500Y-68853846D01*
X165480261Y-69008489D01*
X165480264Y-69008501D01*
X165540602Y-69154172D01*
X165540609Y-69154185D01*
X165628210Y-69285288D01*
X165628213Y-69285292D01*
X165739707Y-69396786D01*
X165739711Y-69396789D01*
X165870814Y-69484390D01*
X165870827Y-69484397D01*
X166016498Y-69544735D01*
X166016503Y-69544737D01*
X166171153Y-69575499D01*
X166171156Y-69575500D01*
X166171158Y-69575500D01*
X166328844Y-69575500D01*
X166328845Y-69575499D01*
X166483497Y-69544737D01*
X166629179Y-69484394D01*
X166760289Y-69396789D01*
X166871789Y-69285289D01*
X166959394Y-69154179D01*
X167019737Y-69008497D01*
X167050500Y-68853842D01*
X167050500Y-68696158D01*
X167050500Y-68696155D01*
X167050499Y-68696153D01*
X167037177Y-68629179D01*
X167019737Y-68541503D01*
X167010721Y-68519737D01*
X166959397Y-68395827D01*
X166959390Y-68395814D01*
X166871789Y-68264711D01*
X166871786Y-68264707D01*
X166760292Y-68153213D01*
X166760288Y-68153210D01*
X166629185Y-68065609D01*
X166629172Y-68065602D01*
X166483501Y-68005264D01*
X166483489Y-68005261D01*
X166328845Y-67974500D01*
X166328842Y-67974500D01*
X166171158Y-67974500D01*
X166171155Y-67974500D01*
X166016510Y-68005261D01*
X166016498Y-68005264D01*
X165870827Y-68065602D01*
X165870814Y-68065609D01*
X165739711Y-68153210D01*
X165739707Y-68153213D01*
X165628213Y-68264707D01*
X165628210Y-68264711D01*
X165540609Y-68395814D01*
X165540602Y-68395827D01*
X165480264Y-68541498D01*
X165480261Y-68541510D01*
X165449500Y-68696153D01*
X163764221Y-68696153D01*
X163782685Y-68633273D01*
X163835489Y-68587518D01*
X163904647Y-68577574D01*
X163934452Y-68585751D01*
X164016498Y-68619735D01*
X164016503Y-68619737D01*
X164171153Y-68650499D01*
X164171156Y-68650500D01*
X164171158Y-68650500D01*
X164328844Y-68650500D01*
X164328845Y-68650499D01*
X164483497Y-68619737D01*
X164558440Y-68588695D01*
X164590284Y-68575505D01*
X164629173Y-68559397D01*
X164629176Y-68559395D01*
X164629179Y-68559394D01*
X164760289Y-68471789D01*
X164871789Y-68360289D01*
X164959394Y-68229179D01*
X165019737Y-68083497D01*
X165050500Y-67928842D01*
X165050500Y-67771158D01*
X165050500Y-67771155D01*
X165034209Y-67689258D01*
X165034209Y-67689257D01*
X165030608Y-67671153D01*
X175449500Y-67671153D01*
X175449500Y-67828846D01*
X175480261Y-67983489D01*
X175480264Y-67983501D01*
X175540602Y-68129172D01*
X175540609Y-68129185D01*
X175628210Y-68260288D01*
X175628213Y-68260292D01*
X175739707Y-68371786D01*
X175739711Y-68371789D01*
X175870814Y-68459390D01*
X175870827Y-68459397D01*
X176008683Y-68516498D01*
X176016503Y-68519737D01*
X176125963Y-68541510D01*
X176171153Y-68550499D01*
X176171156Y-68550500D01*
X176171158Y-68550500D01*
X176328844Y-68550500D01*
X176328845Y-68550499D01*
X176483497Y-68519737D01*
X176629179Y-68459394D01*
X176760289Y-68371789D01*
X176871789Y-68260289D01*
X176959394Y-68129179D01*
X177019737Y-67983497D01*
X177050500Y-67828842D01*
X177050500Y-67671158D01*
X177050500Y-67671155D01*
X177050499Y-67671153D01*
X177029503Y-67565602D01*
X177019737Y-67516503D01*
X177015081Y-67505263D01*
X176959397Y-67370827D01*
X176959390Y-67370814D01*
X176871789Y-67239711D01*
X176871786Y-67239707D01*
X176760292Y-67128213D01*
X176760288Y-67128210D01*
X176629185Y-67040609D01*
X176629172Y-67040602D01*
X176483501Y-66980264D01*
X176483489Y-66980261D01*
X176328845Y-66949500D01*
X176328842Y-66949500D01*
X176171158Y-66949500D01*
X176171155Y-66949500D01*
X176016510Y-66980261D01*
X176016498Y-66980264D01*
X175870827Y-67040602D01*
X175870814Y-67040609D01*
X175739711Y-67128210D01*
X175739707Y-67128213D01*
X175628213Y-67239707D01*
X175628210Y-67239711D01*
X175540609Y-67370814D01*
X175540602Y-67370827D01*
X175480264Y-67516498D01*
X175480261Y-67516510D01*
X175449500Y-67671153D01*
X165030608Y-67671153D01*
X165027039Y-67653211D01*
X165019737Y-67616503D01*
X164998655Y-67565606D01*
X164959397Y-67470827D01*
X164959390Y-67470814D01*
X164871789Y-67339711D01*
X164871786Y-67339707D01*
X164760292Y-67228213D01*
X164760288Y-67228210D01*
X164629185Y-67140609D01*
X164629172Y-67140602D01*
X164483501Y-67080264D01*
X164483489Y-67080261D01*
X164328845Y-67049500D01*
X164328842Y-67049500D01*
X164171158Y-67049500D01*
X164171155Y-67049500D01*
X164016510Y-67080261D01*
X164016498Y-67080264D01*
X163870827Y-67140602D01*
X163870814Y-67140609D01*
X163739711Y-67228210D01*
X163739707Y-67228213D01*
X163628213Y-67339707D01*
X163628210Y-67339711D01*
X163540609Y-67470814D01*
X163540602Y-67470827D01*
X163480264Y-67616498D01*
X163480261Y-67616510D01*
X163449500Y-67771153D01*
X163449500Y-67899687D01*
X163429815Y-67966726D01*
X163377011Y-68012481D01*
X163307853Y-68022425D01*
X163278049Y-68014249D01*
X163203814Y-67983501D01*
X163195997Y-67980263D01*
X163195993Y-67980262D01*
X163195989Y-67980261D01*
X163041345Y-67949500D01*
X163041342Y-67949500D01*
X162883658Y-67949500D01*
X162883655Y-67949500D01*
X162729010Y-67980261D01*
X162728998Y-67980264D01*
X162583327Y-68040602D01*
X162583314Y-68040609D01*
X162452211Y-68128210D01*
X162452207Y-68128213D01*
X162340713Y-68239707D01*
X162340710Y-68239711D01*
X162253109Y-68370814D01*
X162253102Y-68370827D01*
X162192764Y-68516498D01*
X162192761Y-68516510D01*
X162162000Y-68671153D01*
X160198052Y-68671153D01*
X160209394Y-68654179D01*
X160210918Y-68650499D01*
X160224540Y-68617614D01*
X160256063Y-68541510D01*
X160269737Y-68508497D01*
X160300500Y-68353842D01*
X160300500Y-68196158D01*
X160300500Y-68196155D01*
X160300499Y-68196153D01*
X160295527Y-68171158D01*
X160269737Y-68041503D01*
X160269367Y-68040609D01*
X160209397Y-67895827D01*
X160209390Y-67895814D01*
X160121789Y-67764711D01*
X160121786Y-67764707D01*
X160010292Y-67653213D01*
X160010288Y-67653210D01*
X159879185Y-67565609D01*
X159879172Y-67565602D01*
X159733501Y-67505264D01*
X159733489Y-67505261D01*
X159578845Y-67474500D01*
X159578842Y-67474500D01*
X159421158Y-67474500D01*
X159421155Y-67474500D01*
X159266510Y-67505261D01*
X159266498Y-67505264D01*
X159120827Y-67565602D01*
X159120814Y-67565609D01*
X158989711Y-67653210D01*
X158989707Y-67653213D01*
X158878213Y-67764707D01*
X158878210Y-67764711D01*
X158790609Y-67895814D01*
X158790602Y-67895827D01*
X158730264Y-68041498D01*
X158730261Y-68041510D01*
X158699500Y-68196153D01*
X156527165Y-68196153D01*
X156533189Y-68165874D01*
X156533189Y-68165873D01*
X156549574Y-68083497D01*
X156550500Y-68078842D01*
X156550500Y-67921158D01*
X156550500Y-67921155D01*
X156550499Y-67921153D01*
X156540486Y-67870814D01*
X156519737Y-67766503D01*
X156518993Y-67764707D01*
X156459397Y-67620827D01*
X156459390Y-67620814D01*
X156371789Y-67489711D01*
X156371786Y-67489707D01*
X156260292Y-67378213D01*
X156260288Y-67378210D01*
X156129185Y-67290609D01*
X156129172Y-67290602D01*
X155983501Y-67230264D01*
X155983489Y-67230261D01*
X155828845Y-67199500D01*
X155828842Y-67199500D01*
X155671158Y-67199500D01*
X155671155Y-67199500D01*
X155516510Y-67230261D01*
X155516498Y-67230264D01*
X155370827Y-67290602D01*
X155370814Y-67290609D01*
X155239711Y-67378210D01*
X155239707Y-67378213D01*
X155128213Y-67489707D01*
X155128210Y-67489711D01*
X155040609Y-67620814D01*
X155040602Y-67620827D01*
X154980264Y-67766498D01*
X154980261Y-67766510D01*
X154949500Y-67921153D01*
X154949500Y-68078844D01*
X154954215Y-68102551D01*
X154947986Y-68172142D01*
X154905121Y-68227318D01*
X154839231Y-68250561D01*
X154785147Y-68241301D01*
X154758500Y-68230264D01*
X154758498Y-68230263D01*
X154758497Y-68230263D01*
X154758494Y-68230262D01*
X154758489Y-68230261D01*
X154603845Y-68199500D01*
X154603842Y-68199500D01*
X154446158Y-68199500D01*
X154446155Y-68199500D01*
X154291510Y-68230261D01*
X154291498Y-68230264D01*
X154145827Y-68290602D01*
X154145814Y-68290609D01*
X154014711Y-68378210D01*
X154014707Y-68378213D01*
X153903213Y-68489707D01*
X153903210Y-68489711D01*
X153815609Y-68620814D01*
X153815602Y-68620827D01*
X153755264Y-68766498D01*
X153755261Y-68766510D01*
X153724500Y-68921153D01*
X152500000Y-68921153D01*
X152500000Y-68518883D01*
X152519685Y-68451844D01*
X152572489Y-68406089D01*
X152599809Y-68397266D01*
X152607497Y-68395737D01*
X152753179Y-68335394D01*
X152884289Y-68247789D01*
X152995789Y-68136289D01*
X153083394Y-68005179D01*
X153143737Y-67859497D01*
X153174500Y-67704842D01*
X153174500Y-67547158D01*
X153174500Y-67547155D01*
X153174499Y-67547153D01*
X153166167Y-67505264D01*
X153143737Y-67392503D01*
X153133017Y-67366623D01*
X153083397Y-67246827D01*
X153083390Y-67246814D01*
X152995789Y-67115711D01*
X152995786Y-67115707D01*
X152884292Y-67004213D01*
X152884288Y-67004210D01*
X152753185Y-66916609D01*
X152753172Y-66916602D01*
X152607501Y-66856264D01*
X152607492Y-66856261D01*
X152599807Y-66854733D01*
X152537896Y-66822347D01*
X152503323Y-66761630D01*
X152500000Y-66733116D01*
X152500000Y-65946153D01*
X162199500Y-65946153D01*
X162199500Y-66103846D01*
X162230261Y-66258489D01*
X162230264Y-66258501D01*
X162290602Y-66404172D01*
X162290609Y-66404185D01*
X162378210Y-66535288D01*
X162378213Y-66535292D01*
X162489707Y-66646786D01*
X162489711Y-66646789D01*
X162620814Y-66734390D01*
X162620827Y-66734397D01*
X162766498Y-66794735D01*
X162766503Y-66794737D01*
X162905307Y-66822347D01*
X162921153Y-66825499D01*
X162921156Y-66825500D01*
X162921158Y-66825500D01*
X163078844Y-66825500D01*
X163078845Y-66825499D01*
X163233497Y-66794737D01*
X163379179Y-66734394D01*
X163510289Y-66646789D01*
X163621789Y-66535289D01*
X163631234Y-66521153D01*
X183499500Y-66521153D01*
X183499500Y-66678846D01*
X183530261Y-66833489D01*
X183530264Y-66833501D01*
X183590602Y-66979172D01*
X183590609Y-66979185D01*
X183678210Y-67110288D01*
X183678213Y-67110292D01*
X183777982Y-67210061D01*
X183811467Y-67271384D01*
X183806483Y-67341076D01*
X183793410Y-67366623D01*
X183790611Y-67370812D01*
X183790602Y-67370828D01*
X183730264Y-67516498D01*
X183730261Y-67516510D01*
X183699500Y-67671153D01*
X183699500Y-67828846D01*
X183730261Y-67983489D01*
X183730264Y-67983501D01*
X183790602Y-68129172D01*
X183790609Y-68129185D01*
X183878210Y-68260288D01*
X183878213Y-68260292D01*
X183989707Y-68371786D01*
X183989711Y-68371789D01*
X184120814Y-68459390D01*
X184120827Y-68459397D01*
X184258683Y-68516498D01*
X184266503Y-68519737D01*
X184375963Y-68541510D01*
X184421153Y-68550499D01*
X184421156Y-68550500D01*
X184421158Y-68550500D01*
X184578844Y-68550500D01*
X184578845Y-68550499D01*
X184733497Y-68519737D01*
X184879179Y-68459394D01*
X185010289Y-68371789D01*
X185121789Y-68260289D01*
X185181348Y-68171153D01*
X187449500Y-68171153D01*
X187449500Y-68328846D01*
X187480261Y-68483489D01*
X187480264Y-68483501D01*
X187540602Y-68629172D01*
X187540609Y-68629185D01*
X187628210Y-68760288D01*
X187628213Y-68760292D01*
X187739707Y-68871786D01*
X187739711Y-68871789D01*
X187870814Y-68959390D01*
X187870827Y-68959397D01*
X188006530Y-69015606D01*
X188016503Y-69019737D01*
X188166101Y-69049494D01*
X188171153Y-69050499D01*
X188171156Y-69050500D01*
X188171158Y-69050500D01*
X188328844Y-69050500D01*
X188328845Y-69050499D01*
X188483497Y-69019737D01*
X188629179Y-68959394D01*
X188760289Y-68871789D01*
X188871789Y-68760289D01*
X188959394Y-68629179D01*
X188962854Y-68620827D01*
X188995712Y-68541498D01*
X189019737Y-68483497D01*
X189050500Y-68328842D01*
X189050500Y-68171158D01*
X189050500Y-68171155D01*
X189050499Y-68171153D01*
X189031065Y-68073453D01*
X189019737Y-68016503D01*
X189015081Y-68005263D01*
X188959397Y-67870827D01*
X188959390Y-67870814D01*
X188871789Y-67739711D01*
X188871786Y-67739707D01*
X188760292Y-67628213D01*
X188760288Y-67628210D01*
X188629185Y-67540609D01*
X188629172Y-67540602D01*
X188483501Y-67480264D01*
X188483489Y-67480261D01*
X188328845Y-67449500D01*
X188328842Y-67449500D01*
X188171158Y-67449500D01*
X188171155Y-67449500D01*
X188016510Y-67480261D01*
X188016498Y-67480264D01*
X187870827Y-67540602D01*
X187870814Y-67540609D01*
X187739711Y-67628210D01*
X187739707Y-67628213D01*
X187628213Y-67739707D01*
X187628210Y-67739711D01*
X187540609Y-67870814D01*
X187540602Y-67870827D01*
X187480264Y-68016498D01*
X187480261Y-68016510D01*
X187449500Y-68171153D01*
X185181348Y-68171153D01*
X185209394Y-68129179D01*
X185269737Y-67983497D01*
X185300500Y-67828842D01*
X185300500Y-67671158D01*
X185300500Y-67671155D01*
X185300499Y-67671153D01*
X185279503Y-67565602D01*
X185269737Y-67516503D01*
X185265081Y-67505263D01*
X185209397Y-67370827D01*
X185209390Y-67370814D01*
X185121789Y-67239711D01*
X185121786Y-67239707D01*
X185022016Y-67139937D01*
X184988531Y-67078614D01*
X184993515Y-67008922D01*
X185006594Y-66983368D01*
X185009394Y-66979179D01*
X185069737Y-66833497D01*
X185100500Y-66678842D01*
X185100500Y-66521158D01*
X185100500Y-66521155D01*
X185081885Y-66427577D01*
X191975975Y-66427577D01*
X192081236Y-66471178D01*
X192081240Y-66471179D01*
X192226126Y-66499999D01*
X192226129Y-66500000D01*
X192373871Y-66500000D01*
X192373873Y-66499999D01*
X192518760Y-66471179D01*
X192518775Y-66471175D01*
X192624024Y-66427578D01*
X192624024Y-66427577D01*
X193075975Y-66427577D01*
X193181236Y-66471178D01*
X193181240Y-66471179D01*
X193326126Y-66499999D01*
X193326129Y-66500000D01*
X193473871Y-66500000D01*
X193473873Y-66499999D01*
X193618760Y-66471179D01*
X193618775Y-66471175D01*
X193724024Y-66427578D01*
X193724024Y-66427577D01*
X193400001Y-66103554D01*
X193400000Y-66103554D01*
X193075975Y-66427577D01*
X192624024Y-66427577D01*
X192300001Y-66103554D01*
X192300000Y-66103554D01*
X191975975Y-66427577D01*
X185081885Y-66427577D01*
X185078579Y-66410955D01*
X185069737Y-66366503D01*
X185042398Y-66300500D01*
X185009397Y-66220827D01*
X185009390Y-66220814D01*
X184921789Y-66089711D01*
X184921786Y-66089707D01*
X184810292Y-65978213D01*
X184810288Y-65978210D01*
X184679185Y-65890609D01*
X184679172Y-65890602D01*
X184533501Y-65830264D01*
X184533489Y-65830261D01*
X184378845Y-65799500D01*
X184378842Y-65799500D01*
X184221158Y-65799500D01*
X184221155Y-65799500D01*
X184066510Y-65830261D01*
X184066498Y-65830264D01*
X183920827Y-65890602D01*
X183920814Y-65890609D01*
X183789711Y-65978210D01*
X183789707Y-65978213D01*
X183678213Y-66089707D01*
X183678210Y-66089711D01*
X183590609Y-66220814D01*
X183590602Y-66220827D01*
X183530264Y-66366498D01*
X183530261Y-66366510D01*
X183499500Y-66521153D01*
X163631234Y-66521153D01*
X163664629Y-66471175D01*
X163681334Y-66446175D01*
X163681335Y-66446173D01*
X163709387Y-66404190D01*
X163709390Y-66404185D01*
X163709394Y-66404179D01*
X163769737Y-66258497D01*
X163800500Y-66103842D01*
X163800500Y-65946158D01*
X163800500Y-65946155D01*
X163800499Y-65946153D01*
X163793051Y-65908709D01*
X163769737Y-65791503D01*
X163760785Y-65769891D01*
X163709397Y-65645827D01*
X163709390Y-65645814D01*
X163621789Y-65514711D01*
X163621786Y-65514707D01*
X163528232Y-65421153D01*
X179199500Y-65421153D01*
X179199500Y-65578846D01*
X179230261Y-65733489D01*
X179230264Y-65733501D01*
X179290602Y-65879172D01*
X179290609Y-65879185D01*
X179378210Y-66010288D01*
X179378213Y-66010292D01*
X179489707Y-66121786D01*
X179489711Y-66121789D01*
X179620814Y-66209390D01*
X179620827Y-66209397D01*
X179766498Y-66269735D01*
X179766503Y-66269737D01*
X179921153Y-66300499D01*
X179921156Y-66300500D01*
X179921158Y-66300500D01*
X180078844Y-66300500D01*
X180078845Y-66300499D01*
X180233497Y-66269737D01*
X180351592Y-66220821D01*
X180379172Y-66209397D01*
X180379172Y-66209396D01*
X180379179Y-66209394D01*
X180510289Y-66121789D01*
X180510292Y-66121786D01*
X180537319Y-66094760D01*
X180598642Y-66061275D01*
X180668334Y-66066259D01*
X180712681Y-66094760D01*
X180739707Y-66121786D01*
X180739711Y-66121789D01*
X180870814Y-66209390D01*
X180870827Y-66209397D01*
X181016498Y-66269735D01*
X181016503Y-66269737D01*
X181171153Y-66300499D01*
X181171156Y-66300500D01*
X181171158Y-66300500D01*
X181328844Y-66300500D01*
X181328845Y-66300499D01*
X181483497Y-66269737D01*
X181601592Y-66220821D01*
X181629172Y-66209397D01*
X181629172Y-66209396D01*
X181629179Y-66209394D01*
X181760289Y-66121789D01*
X181871789Y-66010289D01*
X181959394Y-65879179D01*
X182019737Y-65733497D01*
X182030011Y-65681843D01*
X182031148Y-65676126D01*
X191550000Y-65676126D01*
X191550000Y-65823873D01*
X191578820Y-65968759D01*
X191578822Y-65968767D01*
X191622421Y-66074024D01*
X191946446Y-65750000D01*
X191946446Y-65749999D01*
X191926556Y-65730109D01*
X192200000Y-65730109D01*
X192200000Y-65769891D01*
X192215224Y-65806645D01*
X192243355Y-65834776D01*
X192280109Y-65850000D01*
X192319891Y-65850000D01*
X192356645Y-65834776D01*
X192384776Y-65806645D01*
X192400000Y-65769891D01*
X192400000Y-65750000D01*
X192653554Y-65750000D01*
X192850000Y-65946446D01*
X193046446Y-65750000D01*
X193026555Y-65730109D01*
X193300000Y-65730109D01*
X193300000Y-65769891D01*
X193315224Y-65806645D01*
X193343355Y-65834776D01*
X193380109Y-65850000D01*
X193419891Y-65850000D01*
X193456645Y-65834776D01*
X193484776Y-65806645D01*
X193500000Y-65769891D01*
X193500000Y-65749999D01*
X193753554Y-65749999D01*
X193753554Y-65750001D01*
X194077577Y-66074024D01*
X194077578Y-66074024D01*
X194121175Y-65968775D01*
X194121179Y-65968760D01*
X194149999Y-65823873D01*
X194150000Y-65823871D01*
X194150000Y-65676128D01*
X194149999Y-65676126D01*
X194121179Y-65531240D01*
X194121178Y-65531236D01*
X194077577Y-65425975D01*
X193753554Y-65749999D01*
X193500000Y-65749999D01*
X193500000Y-65730109D01*
X193484776Y-65693355D01*
X193456645Y-65665224D01*
X193419891Y-65650000D01*
X193380109Y-65650000D01*
X193343355Y-65665224D01*
X193315224Y-65693355D01*
X193300000Y-65730109D01*
X193026555Y-65730109D01*
X192850000Y-65553554D01*
X192653554Y-65750000D01*
X192400000Y-65750000D01*
X192400000Y-65730109D01*
X192384776Y-65693355D01*
X192356645Y-65665224D01*
X192319891Y-65650000D01*
X192280109Y-65650000D01*
X192243355Y-65665224D01*
X192215224Y-65693355D01*
X192200000Y-65730109D01*
X191926556Y-65730109D01*
X191622421Y-65425974D01*
X191622420Y-65425974D01*
X191578823Y-65531228D01*
X191578820Y-65531240D01*
X191550000Y-65676126D01*
X182031148Y-65676126D01*
X182037172Y-65645848D01*
X182037172Y-65645847D01*
X182050500Y-65578844D01*
X182050500Y-65421155D01*
X182050499Y-65421153D01*
X182019738Y-65266510D01*
X182019737Y-65266503D01*
X182015081Y-65255263D01*
X181959397Y-65120827D01*
X181959395Y-65120823D01*
X181959394Y-65120821D01*
X181928956Y-65075267D01*
X181928065Y-65072420D01*
X191975974Y-65072420D01*
X191975974Y-65072421D01*
X192300000Y-65396446D01*
X192300001Y-65396446D01*
X192624024Y-65072421D01*
X192624022Y-65072420D01*
X193075974Y-65072420D01*
X193075974Y-65072421D01*
X193400000Y-65396446D01*
X193400001Y-65396446D01*
X193724024Y-65072421D01*
X193618767Y-65028822D01*
X193618759Y-65028820D01*
X193473872Y-65000000D01*
X193326128Y-65000000D01*
X193181240Y-65028820D01*
X193181228Y-65028823D01*
X193075974Y-65072420D01*
X192624022Y-65072420D01*
X192518767Y-65028822D01*
X192518759Y-65028820D01*
X192373872Y-65000000D01*
X192226128Y-65000000D01*
X192081240Y-65028820D01*
X192081228Y-65028823D01*
X191975974Y-65072420D01*
X181928065Y-65072420D01*
X181908078Y-65008590D01*
X181926562Y-64941210D01*
X181963167Y-64903274D01*
X182010289Y-64871789D01*
X182121789Y-64760289D01*
X182209394Y-64629179D01*
X182269737Y-64483497D01*
X182300500Y-64328842D01*
X182300500Y-64171158D01*
X182300500Y-64171155D01*
X182300499Y-64171153D01*
X182274056Y-64038216D01*
X182269737Y-64016503D01*
X182222015Y-63901290D01*
X182209397Y-63870827D01*
X182209390Y-63870814D01*
X182121789Y-63739711D01*
X182121786Y-63739707D01*
X182010292Y-63628213D01*
X182010288Y-63628210D01*
X181879185Y-63540609D01*
X181879172Y-63540602D01*
X181733501Y-63480264D01*
X181733489Y-63480261D01*
X181578845Y-63449500D01*
X181578842Y-63449500D01*
X181421158Y-63449500D01*
X181421155Y-63449500D01*
X181266510Y-63480261D01*
X181266498Y-63480264D01*
X181120827Y-63540602D01*
X181120814Y-63540609D01*
X180989711Y-63628210D01*
X180989707Y-63628213D01*
X180878213Y-63739707D01*
X180878210Y-63739711D01*
X180790609Y-63870814D01*
X180790602Y-63870827D01*
X180730264Y-64016498D01*
X180730261Y-64016510D01*
X180699500Y-64171153D01*
X180699500Y-64328846D01*
X180730261Y-64483489D01*
X180730264Y-64483501D01*
X180790602Y-64629172D01*
X180790609Y-64629185D01*
X180821043Y-64674732D01*
X180822188Y-64678391D01*
X180824979Y-64681022D01*
X180832547Y-64711473D01*
X180841921Y-64741409D01*
X180840906Y-64745106D01*
X180841832Y-64748829D01*
X180831736Y-64778535D01*
X180823437Y-64808790D01*
X180820225Y-64812407D01*
X180819350Y-64814983D01*
X180808762Y-64825318D01*
X180795138Y-64840663D01*
X180791110Y-64843866D01*
X180739711Y-64878211D01*
X180707703Y-64910218D01*
X180702197Y-64914599D01*
X180676087Y-64925221D01*
X180651358Y-64938725D01*
X180644162Y-64938210D01*
X180637478Y-64940930D01*
X180609774Y-64935751D01*
X180581666Y-64933741D01*
X180574546Y-64929165D01*
X180568798Y-64928091D01*
X180560069Y-64919861D01*
X180537319Y-64905240D01*
X180510292Y-64878213D01*
X180510288Y-64878210D01*
X180379185Y-64790609D01*
X180379172Y-64790602D01*
X180233501Y-64730264D01*
X180233489Y-64730261D01*
X180078845Y-64699500D01*
X180078842Y-64699500D01*
X179921158Y-64699500D01*
X179921155Y-64699500D01*
X179766510Y-64730261D01*
X179766498Y-64730264D01*
X179620827Y-64790602D01*
X179620814Y-64790609D01*
X179489711Y-64878210D01*
X179489707Y-64878213D01*
X179378213Y-64989707D01*
X179378210Y-64989711D01*
X179290609Y-65120814D01*
X179290602Y-65120827D01*
X179230264Y-65266498D01*
X179230261Y-65266510D01*
X179199500Y-65421153D01*
X163528232Y-65421153D01*
X163510292Y-65403213D01*
X163510288Y-65403210D01*
X163379185Y-65315609D01*
X163379172Y-65315602D01*
X163233501Y-65255264D01*
X163233489Y-65255261D01*
X163078845Y-65224500D01*
X163078842Y-65224500D01*
X162921158Y-65224500D01*
X162921155Y-65224500D01*
X162766510Y-65255261D01*
X162766498Y-65255264D01*
X162620827Y-65315602D01*
X162620814Y-65315609D01*
X162489711Y-65403210D01*
X162489707Y-65403213D01*
X162378213Y-65514707D01*
X162378210Y-65514711D01*
X162290609Y-65645814D01*
X162290602Y-65645827D01*
X162230264Y-65791498D01*
X162230261Y-65791510D01*
X162199500Y-65946153D01*
X152500000Y-65946153D01*
X152500000Y-63921153D01*
X153699500Y-63921153D01*
X153699500Y-64078846D01*
X153730261Y-64233489D01*
X153730264Y-64233501D01*
X153790602Y-64379172D01*
X153790609Y-64379185D01*
X153878210Y-64510288D01*
X153878213Y-64510292D01*
X153989707Y-64621786D01*
X153989711Y-64621789D01*
X154120814Y-64709390D01*
X154120827Y-64709397D01*
X154266498Y-64769735D01*
X154266503Y-64769737D01*
X154406644Y-64797613D01*
X154421153Y-64800499D01*
X154421156Y-64800500D01*
X154421158Y-64800500D01*
X154578844Y-64800500D01*
X154578845Y-64800499D01*
X154733497Y-64769737D01*
X154879179Y-64709394D01*
X155010289Y-64621789D01*
X155121789Y-64510289D01*
X155209394Y-64379179D01*
X155269737Y-64233497D01*
X155300500Y-64078842D01*
X155300500Y-63921158D01*
X155300500Y-63921155D01*
X155300499Y-63921153D01*
X155281426Y-63825266D01*
X155269737Y-63766503D01*
X155259748Y-63742387D01*
X155209397Y-63620827D01*
X155209390Y-63620814D01*
X155121789Y-63489711D01*
X155121786Y-63489707D01*
X155121001Y-63488922D01*
X155120721Y-63488409D01*
X155117924Y-63485001D01*
X155118570Y-63484470D01*
X155087516Y-63427599D01*
X155092500Y-63357907D01*
X155134372Y-63301974D01*
X155184487Y-63279624D01*
X155234197Y-63269737D01*
X155379879Y-63209394D01*
X155510989Y-63121789D01*
X155622489Y-63010289D01*
X155710094Y-62879179D01*
X155770437Y-62733497D01*
X155801200Y-62578842D01*
X155801200Y-62421158D01*
X155801200Y-62421155D01*
X155801199Y-62421153D01*
X155793234Y-62381109D01*
X155770437Y-62266503D01*
X155766755Y-62257613D01*
X155710097Y-62120827D01*
X155710090Y-62120814D01*
X155622489Y-61989711D01*
X155622486Y-61989707D01*
X155510992Y-61878213D01*
X155510988Y-61878210D01*
X155379885Y-61790609D01*
X155379872Y-61790602D01*
X155234201Y-61730264D01*
X155234189Y-61730261D01*
X155079545Y-61699500D01*
X155079542Y-61699500D01*
X154921858Y-61699500D01*
X154921855Y-61699500D01*
X154767210Y-61730261D01*
X154767198Y-61730264D01*
X154621527Y-61790602D01*
X154621514Y-61790609D01*
X154490411Y-61878210D01*
X154490407Y-61878213D01*
X154378913Y-61989707D01*
X154378910Y-61989711D01*
X154291309Y-62120814D01*
X154291302Y-62120827D01*
X154230964Y-62266498D01*
X154230961Y-62266510D01*
X154200200Y-62421153D01*
X154200200Y-62578846D01*
X154230961Y-62733489D01*
X154230964Y-62733501D01*
X154291302Y-62879172D01*
X154291309Y-62879185D01*
X154378910Y-63010288D01*
X154378913Y-63010292D01*
X154379698Y-63011077D01*
X154379977Y-63011589D01*
X154382776Y-63014999D01*
X154382129Y-63015529D01*
X154413183Y-63072400D01*
X154408199Y-63142092D01*
X154366327Y-63198025D01*
X154316209Y-63220375D01*
X154266508Y-63230261D01*
X154266498Y-63230264D01*
X154120827Y-63290602D01*
X154120814Y-63290609D01*
X153989711Y-63378210D01*
X153989707Y-63378213D01*
X153878213Y-63489707D01*
X153878210Y-63489711D01*
X153790609Y-63620814D01*
X153790602Y-63620827D01*
X153730264Y-63766498D01*
X153730261Y-63766510D01*
X153699500Y-63921153D01*
X152500000Y-63921153D01*
X152500000Y-61243307D01*
X157422409Y-61243307D01*
X157422409Y-61401000D01*
X157453170Y-61555643D01*
X157453173Y-61555655D01*
X157513511Y-61701326D01*
X157513518Y-61701339D01*
X157601119Y-61832442D01*
X157601122Y-61832446D01*
X157712616Y-61943940D01*
X157712620Y-61943943D01*
X157843723Y-62031544D01*
X157843736Y-62031551D01*
X157989407Y-62091889D01*
X157989412Y-62091891D01*
X158086909Y-62111284D01*
X158124691Y-62118800D01*
X158186602Y-62151185D01*
X158221176Y-62211900D01*
X158224500Y-62240417D01*
X158224500Y-62328846D01*
X158255261Y-62483489D01*
X158255264Y-62483501D01*
X158315602Y-62629172D01*
X158315609Y-62629185D01*
X158403210Y-62760288D01*
X158403213Y-62760292D01*
X158514707Y-62871786D01*
X158514711Y-62871789D01*
X158645814Y-62959390D01*
X158645827Y-62959397D01*
X158771832Y-63011589D01*
X158791503Y-63019737D01*
X158931182Y-63047521D01*
X158946153Y-63050499D01*
X158946156Y-63050500D01*
X158946158Y-63050500D01*
X159103844Y-63050500D01*
X159103845Y-63050499D01*
X159258497Y-63019737D01*
X159404179Y-62959394D01*
X159535289Y-62871789D01*
X159646789Y-62760289D01*
X159734394Y-62629179D01*
X159737854Y-62620827D01*
X159778877Y-62521786D01*
X159794737Y-62483497D01*
X159825500Y-62328842D01*
X159825500Y-62171158D01*
X159825500Y-62171155D01*
X159825499Y-62171153D01*
X159818594Y-62136439D01*
X159794737Y-62016503D01*
X159785721Y-61994736D01*
X159734397Y-61870827D01*
X159734390Y-61870814D01*
X159646789Y-61739711D01*
X159646786Y-61739707D01*
X159535292Y-61628213D01*
X159535288Y-61628210D01*
X159404185Y-61540609D01*
X159404172Y-61540602D01*
X159258501Y-61480264D01*
X159258491Y-61480261D01*
X159123217Y-61453353D01*
X159061306Y-61420968D01*
X159026732Y-61360252D01*
X159023409Y-61331736D01*
X159023409Y-61243309D01*
X159023408Y-61243307D01*
X159022692Y-61239706D01*
X158992646Y-61088657D01*
X158977421Y-61051900D01*
X158932306Y-60942981D01*
X158932299Y-60942968D01*
X158844698Y-60811865D01*
X158844695Y-60811861D01*
X158733201Y-60700367D01*
X158733197Y-60700364D01*
X158602094Y-60612763D01*
X158602081Y-60612756D01*
X158456410Y-60552418D01*
X158456398Y-60552415D01*
X158301754Y-60521654D01*
X158301751Y-60521654D01*
X158144067Y-60521654D01*
X158144064Y-60521654D01*
X157989419Y-60552415D01*
X157989407Y-60552418D01*
X157843736Y-60612756D01*
X157843723Y-60612763D01*
X157712620Y-60700364D01*
X157712616Y-60700367D01*
X157601122Y-60811861D01*
X157601119Y-60811865D01*
X157513518Y-60942968D01*
X157513511Y-60942981D01*
X157453173Y-61088652D01*
X157453170Y-61088664D01*
X157422409Y-61243307D01*
X152500000Y-61243307D01*
X152500000Y-60269153D01*
X161235116Y-60269153D01*
X161235116Y-60426846D01*
X161265877Y-60581489D01*
X161265880Y-60581501D01*
X161326218Y-60727172D01*
X161326225Y-60727185D01*
X161413826Y-60858288D01*
X161413829Y-60858292D01*
X161444474Y-60888936D01*
X161477960Y-60950258D01*
X161478411Y-61000809D01*
X161449500Y-61146153D01*
X161449500Y-61303846D01*
X161480261Y-61458489D01*
X161480264Y-61458501D01*
X161540602Y-61604172D01*
X161540609Y-61604185D01*
X161628210Y-61735288D01*
X161628213Y-61735292D01*
X161739707Y-61846786D01*
X161739711Y-61846789D01*
X161870814Y-61934390D01*
X161870827Y-61934397D01*
X162004359Y-61989707D01*
X162016503Y-61994737D01*
X162078535Y-62007076D01*
X162171145Y-62025498D01*
X162171150Y-62025498D01*
X162171158Y-62025500D01*
X162171165Y-62025500D01*
X162174384Y-62025817D01*
X162175972Y-62026458D01*
X162177132Y-62026689D01*
X162177088Y-62026908D01*
X162239172Y-62051975D01*
X162279534Y-62109007D01*
X162286236Y-62149221D01*
X162286236Y-62165582D01*
X162316997Y-62320225D01*
X162317000Y-62320237D01*
X162377338Y-62465908D01*
X162377345Y-62465921D01*
X162464946Y-62597024D01*
X162464949Y-62597028D01*
X162576443Y-62708522D01*
X162576447Y-62708525D01*
X162707550Y-62796126D01*
X162707563Y-62796133D01*
X162853234Y-62856471D01*
X162853239Y-62856473D01*
X163007889Y-62887235D01*
X163007892Y-62887236D01*
X163007894Y-62887236D01*
X163165580Y-62887236D01*
X163165581Y-62887235D01*
X163320233Y-62856473D01*
X163465915Y-62796130D01*
X163597025Y-62708525D01*
X163708525Y-62597025D01*
X163796130Y-62465915D01*
X163856473Y-62320233D01*
X163887236Y-62165578D01*
X163887236Y-62149500D01*
X163906921Y-62082461D01*
X163959725Y-62036706D01*
X164011236Y-62025500D01*
X164078844Y-62025500D01*
X164078845Y-62025499D01*
X164233497Y-61994737D01*
X164346166Y-61948067D01*
X164379172Y-61934397D01*
X164379172Y-61934396D01*
X164379179Y-61934394D01*
X164510289Y-61846789D01*
X164621789Y-61735289D01*
X164709394Y-61604179D01*
X164723389Y-61570392D01*
X164760439Y-61480945D01*
X164804279Y-61426541D01*
X164870573Y-61404476D01*
X164938273Y-61421755D01*
X164985884Y-61472892D01*
X164989561Y-61480945D01*
X165040602Y-61604172D01*
X165040609Y-61604185D01*
X165128210Y-61735288D01*
X165128213Y-61735292D01*
X165239707Y-61846786D01*
X165239711Y-61846789D01*
X165370814Y-61934390D01*
X165370827Y-61934397D01*
X165504359Y-61989707D01*
X165516503Y-61994737D01*
X165625963Y-62016510D01*
X165671153Y-62025499D01*
X165671156Y-62025500D01*
X165671158Y-62025500D01*
X165828844Y-62025500D01*
X165828845Y-62025499D01*
X165983497Y-61994737D01*
X165998279Y-61988613D01*
X166067747Y-61981144D01*
X166130227Y-62012417D01*
X166133414Y-62015493D01*
X166239710Y-62121789D01*
X166332566Y-62183833D01*
X166370821Y-62209394D01*
X166372945Y-62210274D01*
X166373885Y-62211031D01*
X166376192Y-62212264D01*
X166375958Y-62212701D01*
X166427349Y-62254107D01*
X166449421Y-62320399D01*
X166449500Y-62324837D01*
X166449500Y-62328846D01*
X166480261Y-62483489D01*
X166480264Y-62483501D01*
X166540602Y-62629172D01*
X166540609Y-62629185D01*
X166628210Y-62760288D01*
X166628213Y-62760292D01*
X166739707Y-62871786D01*
X166739711Y-62871789D01*
X166870814Y-62959390D01*
X166870827Y-62959397D01*
X166996832Y-63011589D01*
X167016503Y-63019737D01*
X167156182Y-63047521D01*
X167171153Y-63050499D01*
X167171156Y-63050500D01*
X167171158Y-63050500D01*
X167328844Y-63050500D01*
X167328845Y-63050499D01*
X167483497Y-63019737D01*
X167629179Y-62959394D01*
X167760289Y-62871789D01*
X167871789Y-62760289D01*
X167959394Y-62629179D01*
X167962854Y-62620827D01*
X168003877Y-62521786D01*
X168019737Y-62483497D01*
X168050500Y-62328842D01*
X168050500Y-62171158D01*
X168050500Y-62171155D01*
X168050499Y-62171153D01*
X168043594Y-62136439D01*
X168019737Y-62016503D01*
X168010721Y-61994736D01*
X167959397Y-61870827D01*
X167959390Y-61870814D01*
X167871789Y-61739711D01*
X167871786Y-61739707D01*
X167760292Y-61628213D01*
X167760288Y-61628210D01*
X167629185Y-61540609D01*
X167629169Y-61540601D01*
X167627038Y-61539718D01*
X167626094Y-61538957D01*
X167623809Y-61537736D01*
X167624040Y-61537302D01*
X167572638Y-61495873D01*
X167550579Y-61429577D01*
X167550500Y-61425161D01*
X167550500Y-61421155D01*
X167550499Y-61421153D01*
X167546490Y-61401000D01*
X167519737Y-61266503D01*
X167510129Y-61243307D01*
X167473024Y-61153725D01*
X167459395Y-61120824D01*
X167459394Y-61120821D01*
X167459392Y-61120818D01*
X167459390Y-61120814D01*
X167453741Y-61112360D01*
X168872196Y-61112360D01*
X168872196Y-61270053D01*
X168902957Y-61424696D01*
X168902960Y-61424708D01*
X168963298Y-61570379D01*
X168963305Y-61570392D01*
X169050906Y-61701495D01*
X169050909Y-61701499D01*
X169162403Y-61812993D01*
X169162407Y-61812996D01*
X169293510Y-61900597D01*
X169293523Y-61900604D01*
X169439194Y-61960942D01*
X169439199Y-61960944D01*
X169593849Y-61991706D01*
X169593852Y-61991707D01*
X169593854Y-61991707D01*
X169625810Y-61991707D01*
X169692849Y-62011392D01*
X169738604Y-62064196D01*
X169740347Y-62068198D01*
X169765606Y-62129179D01*
X169765607Y-62129181D01*
X169765609Y-62129185D01*
X169853210Y-62260288D01*
X169853213Y-62260292D01*
X169964707Y-62371786D01*
X169964711Y-62371789D01*
X170095814Y-62459390D01*
X170095827Y-62459397D01*
X170240885Y-62519481D01*
X170241503Y-62519737D01*
X170396153Y-62550499D01*
X170396156Y-62550500D01*
X170396158Y-62550500D01*
X170553844Y-62550500D01*
X170553845Y-62550499D01*
X170708497Y-62519737D01*
X170854179Y-62459394D01*
X170985289Y-62371789D01*
X171096789Y-62260289D01*
X171184394Y-62129179D01*
X171187854Y-62120827D01*
X171222697Y-62036706D01*
X171244737Y-61983497D01*
X171275500Y-61828842D01*
X171275500Y-61671158D01*
X171275500Y-61671155D01*
X171275499Y-61671153D01*
X171262177Y-61604179D01*
X171244737Y-61516503D01*
X171237162Y-61498216D01*
X171184397Y-61370827D01*
X171184390Y-61370814D01*
X171096789Y-61239711D01*
X171096786Y-61239707D01*
X170985292Y-61128213D01*
X170985288Y-61128210D01*
X170899897Y-61071153D01*
X172299500Y-61071153D01*
X172299500Y-61228846D01*
X172330261Y-61383489D01*
X172330264Y-61383501D01*
X172390602Y-61529172D01*
X172390609Y-61529185D01*
X172478210Y-61660288D01*
X172478213Y-61660292D01*
X172589707Y-61771786D01*
X172589711Y-61771789D01*
X172720814Y-61859390D01*
X172720827Y-61859397D01*
X172866498Y-61919735D01*
X172866503Y-61919737D01*
X172988179Y-61943940D01*
X173021153Y-61950499D01*
X173021156Y-61950500D01*
X173021158Y-61950500D01*
X173178844Y-61950500D01*
X173178845Y-61950499D01*
X173333497Y-61919737D01*
X173451592Y-61870821D01*
X173479172Y-61859397D01*
X173479172Y-61859396D01*
X173479179Y-61859394D01*
X173479184Y-61859390D01*
X173479187Y-61859389D01*
X173502645Y-61843715D01*
X173569322Y-61822836D01*
X173636703Y-61841320D01*
X173683393Y-61893298D01*
X173693154Y-61922624D01*
X173705261Y-61983491D01*
X173705264Y-61983501D01*
X173765602Y-62129172D01*
X173765609Y-62129185D01*
X173853210Y-62260288D01*
X173853213Y-62260292D01*
X173964707Y-62371786D01*
X173964711Y-62371789D01*
X174095814Y-62459390D01*
X174095827Y-62459397D01*
X174240885Y-62519481D01*
X174241503Y-62519737D01*
X174396153Y-62550499D01*
X174396156Y-62550500D01*
X174396158Y-62550500D01*
X174553844Y-62550500D01*
X174553845Y-62550499D01*
X174708497Y-62519737D01*
X174854179Y-62459394D01*
X174985289Y-62371789D01*
X175096789Y-62260289D01*
X175184394Y-62129179D01*
X175187854Y-62120827D01*
X175222697Y-62036706D01*
X175244737Y-61983497D01*
X175275500Y-61828842D01*
X175275500Y-61821153D01*
X178599500Y-61821153D01*
X178599500Y-61978846D01*
X178630261Y-62133489D01*
X178630264Y-62133501D01*
X178690602Y-62279172D01*
X178690609Y-62279185D01*
X178778210Y-62410288D01*
X178778213Y-62410292D01*
X178889707Y-62521786D01*
X178889711Y-62521789D01*
X179020814Y-62609390D01*
X179020827Y-62609397D01*
X179141122Y-62659224D01*
X179166503Y-62669737D01*
X179316131Y-62699500D01*
X179321153Y-62700499D01*
X179321156Y-62700500D01*
X179321158Y-62700500D01*
X179478844Y-62700500D01*
X179478845Y-62700499D01*
X179626378Y-62671153D01*
X182449500Y-62671153D01*
X182449500Y-62828846D01*
X182480261Y-62983489D01*
X182480264Y-62983501D01*
X182540602Y-63129172D01*
X182540609Y-63129185D01*
X182628210Y-63260288D01*
X182628213Y-63260292D01*
X182739707Y-63371786D01*
X182739711Y-63371789D01*
X182870814Y-63459390D01*
X182870827Y-63459397D01*
X183016498Y-63519735D01*
X183016503Y-63519737D01*
X183170680Y-63550405D01*
X183171153Y-63550499D01*
X183171156Y-63550500D01*
X183171158Y-63550500D01*
X183328841Y-63550500D01*
X183328842Y-63550500D01*
X183328842Y-63550499D01*
X183329806Y-63550405D01*
X183330307Y-63550500D01*
X183334934Y-63550500D01*
X183334934Y-63551377D01*
X183398452Y-63563424D01*
X183449162Y-63611489D01*
X183463577Y-63649616D01*
X183480261Y-63733491D01*
X183480264Y-63733501D01*
X183540602Y-63879172D01*
X183540609Y-63879185D01*
X183628210Y-64010288D01*
X183628213Y-64010292D01*
X183739707Y-64121786D01*
X183739711Y-64121789D01*
X183870814Y-64209390D01*
X183870827Y-64209397D01*
X184016498Y-64269735D01*
X184016503Y-64269737D01*
X184171153Y-64300499D01*
X184171156Y-64300500D01*
X184171158Y-64300500D01*
X184328844Y-64300500D01*
X184328845Y-64300499D01*
X184483497Y-64269737D01*
X184629179Y-64209394D01*
X184760289Y-64121789D01*
X184871789Y-64010289D01*
X184959394Y-63879179D01*
X184962854Y-63870827D01*
X184996548Y-63789480D01*
X185019737Y-63733497D01*
X185050500Y-63578842D01*
X185050500Y-63421158D01*
X185050500Y-63421155D01*
X185041135Y-63374077D01*
X185047362Y-63304486D01*
X185090224Y-63249308D01*
X185147201Y-63227767D01*
X185147133Y-63227424D01*
X185149195Y-63227013D01*
X185150602Y-63226482D01*
X185153110Y-63226235D01*
X185247826Y-63207394D01*
X185307762Y-63195472D01*
X185453444Y-63135129D01*
X185584554Y-63047524D01*
X185696054Y-62936024D01*
X185783659Y-62804914D01*
X185844002Y-62659232D01*
X185874765Y-62504577D01*
X185874765Y-62346893D01*
X185874765Y-62346890D01*
X185874764Y-62346888D01*
X185857006Y-62257613D01*
X185844002Y-62192238D01*
X185840521Y-62183833D01*
X185783662Y-62046562D01*
X185783655Y-62046549D01*
X185696054Y-61915446D01*
X185696051Y-61915442D01*
X185601762Y-61821153D01*
X186949500Y-61821153D01*
X186949500Y-61978846D01*
X186980261Y-62133489D01*
X186980264Y-62133501D01*
X187040602Y-62279172D01*
X187040609Y-62279185D01*
X187108713Y-62381109D01*
X187129591Y-62447787D01*
X187111107Y-62515167D01*
X187108713Y-62518891D01*
X187040609Y-62620814D01*
X187040602Y-62620827D01*
X186980264Y-62766498D01*
X186980261Y-62766510D01*
X186949500Y-62921153D01*
X186949500Y-63078846D01*
X186980261Y-63233489D01*
X186980264Y-63233501D01*
X187040602Y-63379172D01*
X187040609Y-63379185D01*
X187128210Y-63510288D01*
X187128213Y-63510292D01*
X187239708Y-63621787D01*
X187239711Y-63621789D01*
X187286832Y-63653274D01*
X187331636Y-63706885D01*
X187340344Y-63776210D01*
X187321044Y-63825266D01*
X187290608Y-63870816D01*
X187290602Y-63870827D01*
X187230264Y-64016498D01*
X187230261Y-64016510D01*
X187199500Y-64171153D01*
X187199500Y-64328846D01*
X187230261Y-64483489D01*
X187230264Y-64483501D01*
X187290602Y-64629172D01*
X187290609Y-64629185D01*
X187378210Y-64760288D01*
X187378213Y-64760292D01*
X187489707Y-64871786D01*
X187489711Y-64871789D01*
X187620814Y-64959390D01*
X187620827Y-64959397D01*
X187748758Y-65012387D01*
X187766503Y-65019737D01*
X187921153Y-65050499D01*
X187921156Y-65050500D01*
X187921158Y-65050500D01*
X188078844Y-65050500D01*
X188078845Y-65050499D01*
X188233497Y-65019737D01*
X188379179Y-64959394D01*
X188510289Y-64871789D01*
X188621789Y-64760289D01*
X188709394Y-64629179D01*
X188769737Y-64483497D01*
X188800500Y-64328842D01*
X188800500Y-64171158D01*
X188800500Y-64171155D01*
X188800499Y-64171153D01*
X188774056Y-64038216D01*
X188769737Y-64016503D01*
X188722015Y-63901290D01*
X188709397Y-63870827D01*
X188709390Y-63870814D01*
X188621789Y-63739711D01*
X188621786Y-63739707D01*
X188510292Y-63628213D01*
X188510284Y-63628207D01*
X188463168Y-63596725D01*
X188418362Y-63543113D01*
X188409655Y-63473788D01*
X188428957Y-63424731D01*
X188431344Y-63421158D01*
X188459394Y-63379179D01*
X188463728Y-63368717D01*
X188473067Y-63346166D01*
X188519737Y-63233497D01*
X188550500Y-63078842D01*
X188550500Y-62921158D01*
X188550500Y-62921155D01*
X188550499Y-62921153D01*
X188532137Y-62828842D01*
X188519737Y-62766503D01*
X188492398Y-62700500D01*
X188459397Y-62620827D01*
X188459393Y-62620820D01*
X188459389Y-62620814D01*
X188391284Y-62518888D01*
X188370408Y-62452214D01*
X188388892Y-62384834D01*
X188391257Y-62381152D01*
X188459394Y-62279179D01*
X188519737Y-62133497D01*
X188550500Y-61978842D01*
X188550500Y-61821158D01*
X188550500Y-61821155D01*
X188550499Y-61821153D01*
X188529650Y-61716341D01*
X188519737Y-61666503D01*
X188503876Y-61628210D01*
X188459397Y-61520827D01*
X188459390Y-61520814D01*
X188371789Y-61389711D01*
X188371786Y-61389707D01*
X188260292Y-61278213D01*
X188260288Y-61278210D01*
X188129185Y-61190609D01*
X188129172Y-61190602D01*
X187983501Y-61130264D01*
X187983489Y-61130261D01*
X187828845Y-61099500D01*
X187828842Y-61099500D01*
X187671158Y-61099500D01*
X187671155Y-61099500D01*
X187516510Y-61130261D01*
X187516498Y-61130264D01*
X187370827Y-61190602D01*
X187370814Y-61190609D01*
X187239711Y-61278210D01*
X187239707Y-61278213D01*
X187128213Y-61389707D01*
X187128210Y-61389711D01*
X187040609Y-61520814D01*
X187040602Y-61520827D01*
X186980264Y-61666498D01*
X186980261Y-61666510D01*
X186949500Y-61821153D01*
X185601762Y-61821153D01*
X185584557Y-61803948D01*
X185584553Y-61803945D01*
X185453450Y-61716344D01*
X185453437Y-61716337D01*
X185307766Y-61655999D01*
X185307754Y-61655996D01*
X185153110Y-61625235D01*
X185153107Y-61625235D01*
X184995423Y-61625235D01*
X184995420Y-61625235D01*
X184840775Y-61655996D01*
X184840763Y-61655999D01*
X184695092Y-61716337D01*
X184695079Y-61716344D01*
X184563976Y-61803945D01*
X184505397Y-61862524D01*
X184444073Y-61896008D01*
X184374382Y-61891023D01*
X184318448Y-61849152D01*
X184296099Y-61799033D01*
X184279650Y-61716341D01*
X184269737Y-61666503D01*
X184253876Y-61628210D01*
X184209397Y-61520827D01*
X184209390Y-61520814D01*
X184121789Y-61389711D01*
X184121786Y-61389707D01*
X184010292Y-61278213D01*
X184010288Y-61278210D01*
X183879185Y-61190609D01*
X183879172Y-61190602D01*
X183733501Y-61130264D01*
X183733489Y-61130261D01*
X183578845Y-61099500D01*
X183578842Y-61099500D01*
X183421158Y-61099500D01*
X183421155Y-61099500D01*
X183266510Y-61130261D01*
X183266498Y-61130264D01*
X183120827Y-61190602D01*
X183120814Y-61190609D01*
X182989711Y-61278210D01*
X182989707Y-61278213D01*
X182878213Y-61389707D01*
X182878210Y-61389711D01*
X182790609Y-61520814D01*
X182790602Y-61520827D01*
X182730264Y-61666498D01*
X182730261Y-61666510D01*
X182699500Y-61821153D01*
X182699500Y-61978846D01*
X182718022Y-62071962D01*
X182711795Y-62141553D01*
X182684088Y-62183833D01*
X182628208Y-62239714D01*
X182540609Y-62370814D01*
X182540602Y-62370827D01*
X182480264Y-62516498D01*
X182480261Y-62516510D01*
X182449500Y-62671153D01*
X179626378Y-62671153D01*
X179633497Y-62669737D01*
X179751594Y-62620820D01*
X179779172Y-62609397D01*
X179779172Y-62609396D01*
X179779179Y-62609394D01*
X179797686Y-62597028D01*
X179850164Y-62561964D01*
X179881224Y-62541209D01*
X179910289Y-62521789D01*
X180021789Y-62410289D01*
X180109394Y-62279179D01*
X180169737Y-62133497D01*
X180200500Y-61978842D01*
X180200500Y-61821158D01*
X180200500Y-61821155D01*
X180200499Y-61821153D01*
X180179650Y-61716341D01*
X180169737Y-61666503D01*
X180153876Y-61628210D01*
X180109397Y-61520827D01*
X180109390Y-61520814D01*
X180021789Y-61389711D01*
X180021786Y-61389707D01*
X179910292Y-61278213D01*
X179910288Y-61278210D01*
X179779185Y-61190609D01*
X179779172Y-61190602D01*
X179633501Y-61130264D01*
X179633489Y-61130261D01*
X179478845Y-61099500D01*
X179478842Y-61099500D01*
X179321158Y-61099500D01*
X179321155Y-61099500D01*
X179166510Y-61130261D01*
X179166498Y-61130264D01*
X179020827Y-61190602D01*
X179020814Y-61190609D01*
X178889711Y-61278210D01*
X178889707Y-61278213D01*
X178778213Y-61389707D01*
X178778210Y-61389711D01*
X178690609Y-61520814D01*
X178690602Y-61520827D01*
X178630264Y-61666498D01*
X178630261Y-61666510D01*
X178599500Y-61821153D01*
X175275500Y-61821153D01*
X175275500Y-61671158D01*
X175275500Y-61671155D01*
X175275499Y-61671153D01*
X175262177Y-61604179D01*
X175244737Y-61516503D01*
X175237162Y-61498216D01*
X175184397Y-61370827D01*
X175184390Y-61370814D01*
X175096789Y-61239711D01*
X175096786Y-61239707D01*
X174985292Y-61128213D01*
X174985288Y-61128210D01*
X174854185Y-61040609D01*
X174854172Y-61040602D01*
X174708501Y-60980264D01*
X174708489Y-60980261D01*
X174553845Y-60949500D01*
X174553842Y-60949500D01*
X174396158Y-60949500D01*
X174396155Y-60949500D01*
X174241510Y-60980261D01*
X174241498Y-60980264D01*
X174095827Y-61040602D01*
X174095813Y-61040610D01*
X174072350Y-61056287D01*
X174005672Y-61077163D01*
X173938292Y-61058677D01*
X173891604Y-61006696D01*
X173881846Y-60977379D01*
X173869737Y-60916503D01*
X173868985Y-60914687D01*
X173809397Y-60770827D01*
X173809390Y-60770814D01*
X173721789Y-60639711D01*
X173721786Y-60639707D01*
X173610292Y-60528213D01*
X173610288Y-60528210D01*
X173479185Y-60440609D01*
X173479172Y-60440602D01*
X173333501Y-60380264D01*
X173333489Y-60380261D01*
X173178845Y-60349500D01*
X173178842Y-60349500D01*
X173021158Y-60349500D01*
X173021155Y-60349500D01*
X172866510Y-60380261D01*
X172866498Y-60380264D01*
X172720827Y-60440602D01*
X172720814Y-60440609D01*
X172589711Y-60528210D01*
X172589707Y-60528213D01*
X172478213Y-60639707D01*
X172478210Y-60639711D01*
X172390609Y-60770814D01*
X172390602Y-60770827D01*
X172330264Y-60916498D01*
X172330261Y-60916510D01*
X172299500Y-61071153D01*
X170899897Y-61071153D01*
X170854185Y-61040609D01*
X170854172Y-61040602D01*
X170708501Y-60980264D01*
X170708489Y-60980261D01*
X170553845Y-60949500D01*
X170553842Y-60949500D01*
X170521886Y-60949500D01*
X170454847Y-60929815D01*
X170409092Y-60877011D01*
X170407348Y-60873008D01*
X170382090Y-60812028D01*
X170382087Y-60812023D01*
X170382086Y-60812021D01*
X170294485Y-60680918D01*
X170294482Y-60680914D01*
X170182988Y-60569420D01*
X170182984Y-60569417D01*
X170051881Y-60481816D01*
X170051868Y-60481809D01*
X169906197Y-60421471D01*
X169906185Y-60421468D01*
X169751541Y-60390707D01*
X169751538Y-60390707D01*
X169593854Y-60390707D01*
X169593851Y-60390707D01*
X169439206Y-60421468D01*
X169439194Y-60421471D01*
X169293523Y-60481809D01*
X169293510Y-60481816D01*
X169162407Y-60569417D01*
X169162403Y-60569420D01*
X169050909Y-60680914D01*
X169050906Y-60680918D01*
X168963305Y-60812021D01*
X168963298Y-60812034D01*
X168902960Y-60957705D01*
X168902957Y-60957717D01*
X168872196Y-61112360D01*
X167453741Y-61112360D01*
X167371789Y-60989711D01*
X167371786Y-60989707D01*
X167260292Y-60878213D01*
X167260288Y-60878210D01*
X167129185Y-60790609D01*
X167129172Y-60790602D01*
X166983501Y-60730264D01*
X166983489Y-60730261D01*
X166828845Y-60699500D01*
X166828842Y-60699500D01*
X166671158Y-60699500D01*
X166671155Y-60699500D01*
X166516511Y-60730260D01*
X166516503Y-60730263D01*
X166501712Y-60736389D01*
X166432243Y-60743854D01*
X166369765Y-60712575D01*
X166366585Y-60709506D01*
X166260292Y-60603213D01*
X166260288Y-60603210D01*
X166129185Y-60515609D01*
X166129172Y-60515602D01*
X165983501Y-60455264D01*
X165983489Y-60455261D01*
X165828845Y-60424500D01*
X165828842Y-60424500D01*
X165671158Y-60424500D01*
X165671155Y-60424500D01*
X165516510Y-60455261D01*
X165516498Y-60455264D01*
X165370827Y-60515602D01*
X165370814Y-60515609D01*
X165239711Y-60603210D01*
X165239707Y-60603213D01*
X165128213Y-60714707D01*
X165128210Y-60714711D01*
X165040609Y-60845814D01*
X165040602Y-60845827D01*
X164989561Y-60969054D01*
X164945720Y-61023458D01*
X164879426Y-61045523D01*
X164811727Y-61028244D01*
X164764116Y-60977107D01*
X164760439Y-60969054D01*
X164709397Y-60845827D01*
X164709390Y-60845814D01*
X164621789Y-60714711D01*
X164621786Y-60714707D01*
X164510292Y-60603213D01*
X164510288Y-60603210D01*
X164379185Y-60515609D01*
X164379172Y-60515602D01*
X164233501Y-60455264D01*
X164233489Y-60455261D01*
X164078845Y-60424500D01*
X164078842Y-60424500D01*
X163921158Y-60424500D01*
X163921155Y-60424500D01*
X163766510Y-60455261D01*
X163766498Y-60455264D01*
X163620827Y-60515602D01*
X163620814Y-60515609D01*
X163489711Y-60603210D01*
X163489707Y-60603213D01*
X163378213Y-60714707D01*
X163378210Y-60714711D01*
X163290609Y-60845814D01*
X163290602Y-60845827D01*
X163239561Y-60969054D01*
X163195720Y-61023458D01*
X163129426Y-61045523D01*
X163061727Y-61028244D01*
X163014116Y-60977107D01*
X163010439Y-60969054D01*
X162959397Y-60845827D01*
X162959390Y-60845814D01*
X162871789Y-60714711D01*
X162871786Y-60714707D01*
X162841141Y-60684063D01*
X162807655Y-60622741D01*
X162807204Y-60572189D01*
X162807756Y-60569418D01*
X162825182Y-60481809D01*
X162836116Y-60426844D01*
X162836116Y-60269155D01*
X162836115Y-60269153D01*
X162817513Y-60175636D01*
X162805353Y-60114503D01*
X162795738Y-60091290D01*
X162745013Y-59968827D01*
X162745006Y-59968814D01*
X162657405Y-59837711D01*
X162657402Y-59837707D01*
X162545908Y-59726213D01*
X162545904Y-59726210D01*
X162414801Y-59638609D01*
X162414788Y-59638602D01*
X162269117Y-59578264D01*
X162269105Y-59578261D01*
X162114461Y-59547500D01*
X162114458Y-59547500D01*
X161956774Y-59547500D01*
X161956771Y-59547500D01*
X161802126Y-59578261D01*
X161802114Y-59578264D01*
X161656443Y-59638602D01*
X161656430Y-59638609D01*
X161525327Y-59726210D01*
X161525323Y-59726213D01*
X161413829Y-59837707D01*
X161413826Y-59837711D01*
X161326225Y-59968814D01*
X161326218Y-59968827D01*
X161265880Y-60114498D01*
X161265877Y-60114510D01*
X161235116Y-60269153D01*
X152500000Y-60269153D01*
X152500000Y-60051361D01*
X152519685Y-59984322D01*
X152536314Y-59963685D01*
X153642444Y-58857555D01*
X157645498Y-58857555D01*
X157645498Y-59015248D01*
X157676259Y-59169891D01*
X157676262Y-59169903D01*
X157736600Y-59315574D01*
X157736607Y-59315587D01*
X157824208Y-59446690D01*
X157824211Y-59446694D01*
X157935705Y-59558188D01*
X157935709Y-59558191D01*
X158066812Y-59645792D01*
X158066825Y-59645799D01*
X158154228Y-59682001D01*
X158212501Y-59706139D01*
X158234688Y-59710552D01*
X158296598Y-59742934D01*
X158325060Y-59784716D01*
X158350202Y-59845414D01*
X158350207Y-59845424D01*
X158437808Y-59976527D01*
X158437811Y-59976531D01*
X158549305Y-60088025D01*
X158549309Y-60088028D01*
X158680412Y-60175629D01*
X158680425Y-60175636D01*
X158826096Y-60235974D01*
X158826101Y-60235976D01*
X158948330Y-60260289D01*
X158980751Y-60266738D01*
X158980754Y-60266739D01*
X158980756Y-60266739D01*
X159138442Y-60266739D01*
X159138443Y-60266738D01*
X159293095Y-60235976D01*
X159438777Y-60175633D01*
X159452409Y-60166524D01*
X159462228Y-60159964D01*
X159530272Y-60114498D01*
X159569887Y-60088028D01*
X159681387Y-59976528D01*
X159768992Y-59845418D01*
X159829335Y-59699736D01*
X159860098Y-59545081D01*
X159860098Y-59387397D01*
X159860098Y-59387394D01*
X159860097Y-59387392D01*
X159848451Y-59328846D01*
X159829335Y-59232742D01*
X159811511Y-59189711D01*
X159768995Y-59087066D01*
X159768987Y-59087052D01*
X159753667Y-59064124D01*
X159732788Y-58997447D01*
X159751272Y-58930067D01*
X159803250Y-58883376D01*
X159872219Y-58872198D01*
X159880960Y-58873615D01*
X160022406Y-58901751D01*
X160022409Y-58901751D01*
X160180095Y-58901751D01*
X160180096Y-58901750D01*
X160334748Y-58870988D01*
X160480430Y-58810645D01*
X160611540Y-58723040D01*
X160723040Y-58611540D01*
X160810645Y-58480430D01*
X160870988Y-58334748D01*
X160901751Y-58180093D01*
X160901751Y-58022409D01*
X160901751Y-58022406D01*
X160901750Y-58022404D01*
X160885212Y-57939257D01*
X160881611Y-57921153D01*
X164224500Y-57921153D01*
X164224500Y-58078846D01*
X164255261Y-58233489D01*
X164255264Y-58233501D01*
X164315602Y-58379172D01*
X164315609Y-58379185D01*
X164403210Y-58510288D01*
X164403213Y-58510292D01*
X164514707Y-58621786D01*
X164514711Y-58621789D01*
X164645814Y-58709390D01*
X164645827Y-58709397D01*
X164791498Y-58769735D01*
X164791503Y-58769737D01*
X164946153Y-58800499D01*
X164946156Y-58800500D01*
X164946158Y-58800500D01*
X165103844Y-58800500D01*
X165103845Y-58800499D01*
X165258497Y-58769737D01*
X165404179Y-58709394D01*
X165535289Y-58621789D01*
X165635925Y-58521153D01*
X171099500Y-58521153D01*
X171099500Y-58678846D01*
X171130261Y-58833489D01*
X171130264Y-58833501D01*
X171190602Y-58979172D01*
X171190609Y-58979185D01*
X171278210Y-59110288D01*
X171278213Y-59110292D01*
X171389707Y-59221786D01*
X171389711Y-59221789D01*
X171520814Y-59309390D01*
X171520827Y-59309397D01*
X171666498Y-59369735D01*
X171666503Y-59369737D01*
X171821153Y-59400499D01*
X171821156Y-59400500D01*
X171821158Y-59400500D01*
X171978844Y-59400500D01*
X171978845Y-59400499D01*
X172133497Y-59369737D01*
X172251592Y-59320821D01*
X172279172Y-59309397D01*
X172279172Y-59309396D01*
X172279179Y-59309394D01*
X172410289Y-59221789D01*
X172460925Y-59171153D01*
X184699500Y-59171153D01*
X184699500Y-59328846D01*
X184730261Y-59483489D01*
X184730264Y-59483501D01*
X184790602Y-59629172D01*
X184790609Y-59629185D01*
X184878210Y-59760288D01*
X184878213Y-59760292D01*
X184989707Y-59871786D01*
X184989711Y-59871789D01*
X185120814Y-59959390D01*
X185120827Y-59959397D01*
X185262063Y-60017898D01*
X185266503Y-60019737D01*
X185421153Y-60050499D01*
X185421156Y-60050500D01*
X185421158Y-60050500D01*
X185578844Y-60050500D01*
X185667584Y-60032848D01*
X185737176Y-60039075D01*
X185792353Y-60081938D01*
X185794878Y-60085574D01*
X185878210Y-60210288D01*
X185878213Y-60210292D01*
X185989707Y-60321786D01*
X185989711Y-60321789D01*
X186120814Y-60409390D01*
X186120827Y-60409397D01*
X186266498Y-60469735D01*
X186266503Y-60469737D01*
X186421153Y-60500499D01*
X186421156Y-60500500D01*
X186421158Y-60500500D01*
X186578844Y-60500500D01*
X186578845Y-60500499D01*
X186733497Y-60469737D01*
X186879179Y-60409394D01*
X187010289Y-60321789D01*
X187121789Y-60210289D01*
X187147004Y-60172553D01*
X192699500Y-60172553D01*
X192699500Y-60330246D01*
X192730261Y-60484889D01*
X192730264Y-60484901D01*
X192790602Y-60630572D01*
X192790609Y-60630585D01*
X192878210Y-60761688D01*
X192878213Y-60761692D01*
X192989707Y-60873186D01*
X192989711Y-60873189D01*
X193120814Y-60960790D01*
X193120827Y-60960797D01*
X193212057Y-60998585D01*
X193266503Y-61021137D01*
X193364360Y-61040602D01*
X193421153Y-61051899D01*
X193421156Y-61051900D01*
X193421158Y-61051900D01*
X193578844Y-61051900D01*
X193578845Y-61051899D01*
X193733497Y-61021137D01*
X193777731Y-61002814D01*
X193847198Y-60995346D01*
X193909677Y-61026621D01*
X193945330Y-61086709D01*
X193942837Y-61156535D01*
X193912864Y-61205056D01*
X193878214Y-61239706D01*
X193878210Y-61239711D01*
X193790609Y-61370814D01*
X193790602Y-61370827D01*
X193730264Y-61516498D01*
X193730261Y-61516510D01*
X193699500Y-61671153D01*
X193699500Y-61828846D01*
X193730261Y-61983489D01*
X193730264Y-61983501D01*
X193790602Y-62129172D01*
X193790609Y-62129185D01*
X193878210Y-62260288D01*
X193878213Y-62260292D01*
X193989707Y-62371786D01*
X193989711Y-62371789D01*
X194120814Y-62459390D01*
X194120827Y-62459397D01*
X194265885Y-62519481D01*
X194266503Y-62519737D01*
X194421153Y-62550499D01*
X194421156Y-62550500D01*
X194421158Y-62550500D01*
X194578844Y-62550500D01*
X194578845Y-62550499D01*
X194733497Y-62519737D01*
X194879179Y-62459394D01*
X195010289Y-62371789D01*
X195121789Y-62260289D01*
X195209394Y-62129179D01*
X195212854Y-62120827D01*
X195247697Y-62036706D01*
X195269737Y-61983497D01*
X195300500Y-61828842D01*
X195300500Y-61671158D01*
X195300500Y-61671155D01*
X195300499Y-61671153D01*
X195287177Y-61604179D01*
X195269737Y-61516503D01*
X195262162Y-61498216D01*
X195209397Y-61370827D01*
X195209390Y-61370814D01*
X195121789Y-61239711D01*
X195121786Y-61239707D01*
X195010292Y-61128213D01*
X195010288Y-61128210D01*
X194879185Y-61040609D01*
X194879172Y-61040602D01*
X194733501Y-60980264D01*
X194733489Y-60980261D01*
X194578845Y-60949500D01*
X194578842Y-60949500D01*
X194421158Y-60949500D01*
X194421155Y-60949500D01*
X194266510Y-60980261D01*
X194266502Y-60980263D01*
X194222268Y-60998585D01*
X194152798Y-61006052D01*
X194090319Y-60974776D01*
X194054668Y-60914687D01*
X194057163Y-60844862D01*
X194087137Y-60796341D01*
X194121786Y-60761692D01*
X194121789Y-60761689D01*
X194209394Y-60630579D01*
X194216777Y-60612756D01*
X194234727Y-60569420D01*
X194269737Y-60484897D01*
X194300500Y-60330242D01*
X194300500Y-60172558D01*
X194300500Y-60172555D01*
X194300499Y-60172553D01*
X194285585Y-60097575D01*
X194269737Y-60017903D01*
X194265739Y-60008250D01*
X194209397Y-59872227D01*
X194209390Y-59872214D01*
X194121789Y-59741111D01*
X194121786Y-59741107D01*
X194010292Y-59629613D01*
X194010288Y-59629610D01*
X193879185Y-59542009D01*
X193879172Y-59542002D01*
X193733501Y-59481664D01*
X193733489Y-59481661D01*
X193578845Y-59450900D01*
X193578842Y-59450900D01*
X193421158Y-59450900D01*
X193421155Y-59450900D01*
X193266510Y-59481661D01*
X193266498Y-59481664D01*
X193120827Y-59542002D01*
X193120814Y-59542009D01*
X192989711Y-59629610D01*
X192989707Y-59629613D01*
X192878213Y-59741107D01*
X192878210Y-59741111D01*
X192790609Y-59872214D01*
X192790602Y-59872227D01*
X192730264Y-60017898D01*
X192730261Y-60017910D01*
X192699500Y-60172553D01*
X187147004Y-60172553D01*
X187185787Y-60114510D01*
X187197103Y-60097575D01*
X187209391Y-60079183D01*
X187209394Y-60079179D01*
X187269737Y-59933497D01*
X187300500Y-59778842D01*
X187300500Y-59621158D01*
X187300500Y-59621155D01*
X187300499Y-59621153D01*
X187291968Y-59578264D01*
X187269737Y-59466503D01*
X187242398Y-59400500D01*
X187209397Y-59320827D01*
X187209390Y-59320814D01*
X187121789Y-59189711D01*
X187121786Y-59189707D01*
X187010292Y-59078213D01*
X187010288Y-59078210D01*
X186879185Y-58990609D01*
X186879172Y-58990602D01*
X186733501Y-58930264D01*
X186733489Y-58930261D01*
X186578845Y-58899500D01*
X186578842Y-58899500D01*
X186421158Y-58899500D01*
X186332413Y-58917152D01*
X186262822Y-58910924D01*
X186207645Y-58868060D01*
X186205121Y-58864425D01*
X186121789Y-58739711D01*
X186121786Y-58739707D01*
X186010292Y-58628213D01*
X186010288Y-58628210D01*
X185879185Y-58540609D01*
X185879172Y-58540602D01*
X185733501Y-58480264D01*
X185733489Y-58480261D01*
X185578845Y-58449500D01*
X185578842Y-58449500D01*
X185421158Y-58449500D01*
X185421155Y-58449500D01*
X185266510Y-58480261D01*
X185266498Y-58480264D01*
X185120827Y-58540602D01*
X185120814Y-58540609D01*
X184989711Y-58628210D01*
X184989707Y-58628213D01*
X184878213Y-58739707D01*
X184878210Y-58739711D01*
X184790609Y-58870814D01*
X184790602Y-58870827D01*
X184730264Y-59016498D01*
X184730261Y-59016510D01*
X184699500Y-59171153D01*
X172460925Y-59171153D01*
X172521789Y-59110289D01*
X172609394Y-58979179D01*
X172668756Y-58835864D01*
X172712596Y-58781461D01*
X172735865Y-58768756D01*
X172756307Y-58760289D01*
X172879179Y-58709394D01*
X173010289Y-58621789D01*
X173121789Y-58510289D01*
X173209394Y-58379179D01*
X173269737Y-58233497D01*
X173300500Y-58078842D01*
X173300500Y-57921158D01*
X173300500Y-57921155D01*
X173300499Y-57921153D01*
X173294422Y-57890604D01*
X173269737Y-57766503D01*
X173268084Y-57762512D01*
X173250953Y-57721153D01*
X177199500Y-57721153D01*
X177199500Y-57878846D01*
X177230261Y-58033489D01*
X177230264Y-58033501D01*
X177290602Y-58179172D01*
X177290609Y-58179185D01*
X177378210Y-58310288D01*
X177378213Y-58310292D01*
X177489707Y-58421786D01*
X177489711Y-58421789D01*
X177620814Y-58509390D01*
X177620827Y-58509397D01*
X177746047Y-58561264D01*
X177766503Y-58569737D01*
X177921153Y-58600499D01*
X177921156Y-58600500D01*
X177921158Y-58600500D01*
X178078844Y-58600500D01*
X178078845Y-58600499D01*
X178233497Y-58569737D01*
X178351592Y-58520821D01*
X178379172Y-58509397D01*
X178379172Y-58509396D01*
X178379179Y-58509394D01*
X178510289Y-58421789D01*
X178621789Y-58310289D01*
X178709394Y-58179179D01*
X178709395Y-58179176D01*
X178709397Y-58179173D01*
X178712719Y-58171153D01*
X181099500Y-58171153D01*
X181099500Y-58328846D01*
X181130261Y-58483489D01*
X181130264Y-58483501D01*
X181190602Y-58629172D01*
X181190609Y-58629185D01*
X181278210Y-58760288D01*
X181278213Y-58760292D01*
X181389707Y-58871786D01*
X181389711Y-58871789D01*
X181520814Y-58959390D01*
X181520827Y-58959397D01*
X181658683Y-59016498D01*
X181666503Y-59019737D01*
X181821153Y-59050499D01*
X181821156Y-59050500D01*
X181821158Y-59050500D01*
X181978844Y-59050500D01*
X181978845Y-59050499D01*
X181989179Y-59048443D01*
X182014287Y-59043450D01*
X182014292Y-59043449D01*
X182099800Y-59026439D01*
X182133497Y-59019737D01*
X182279179Y-58959394D01*
X182410289Y-58871789D01*
X182521789Y-58760289D01*
X182609394Y-58629179D01*
X182669737Y-58483497D01*
X182700500Y-58328842D01*
X182700500Y-58171158D01*
X182700500Y-58171155D01*
X182700499Y-58171153D01*
X182673117Y-58033497D01*
X182669737Y-58016503D01*
X182630242Y-57921153D01*
X182609397Y-57870827D01*
X182609390Y-57870814D01*
X182521789Y-57739711D01*
X182521786Y-57739707D01*
X182410292Y-57628213D01*
X182410288Y-57628210D01*
X182279185Y-57540609D01*
X182279172Y-57540602D01*
X182133501Y-57480264D01*
X182133489Y-57480261D01*
X181978845Y-57449500D01*
X181978842Y-57449500D01*
X181821158Y-57449500D01*
X181821155Y-57449500D01*
X181666510Y-57480261D01*
X181666498Y-57480264D01*
X181520827Y-57540602D01*
X181520814Y-57540609D01*
X181389711Y-57628210D01*
X181389707Y-57628213D01*
X181278213Y-57739707D01*
X181278210Y-57739711D01*
X181190609Y-57870814D01*
X181190602Y-57870827D01*
X181130264Y-58016498D01*
X181130261Y-58016510D01*
X181099500Y-58171153D01*
X178712719Y-58171153D01*
X178734895Y-58117614D01*
X178734895Y-58117613D01*
X178769737Y-58033497D01*
X178800500Y-57878842D01*
X178800500Y-57721158D01*
X178800500Y-57721155D01*
X178800499Y-57721153D01*
X178769737Y-57566503D01*
X178765735Y-57556842D01*
X178709397Y-57420827D01*
X178709390Y-57420814D01*
X178621789Y-57289711D01*
X178621786Y-57289707D01*
X178510292Y-57178213D01*
X178510288Y-57178210D01*
X178379185Y-57090609D01*
X178379172Y-57090602D01*
X178233501Y-57030264D01*
X178233489Y-57030261D01*
X178078845Y-56999500D01*
X178078842Y-56999500D01*
X177921158Y-56999500D01*
X177921155Y-56999500D01*
X177766510Y-57030261D01*
X177766498Y-57030264D01*
X177620827Y-57090602D01*
X177620814Y-57090609D01*
X177489711Y-57178210D01*
X177489707Y-57178213D01*
X177378213Y-57289707D01*
X177378210Y-57289711D01*
X177290609Y-57420814D01*
X177290602Y-57420827D01*
X177230264Y-57566498D01*
X177230261Y-57566510D01*
X177199500Y-57721153D01*
X173250953Y-57721153D01*
X173209397Y-57620827D01*
X173209390Y-57620814D01*
X173121789Y-57489711D01*
X173121786Y-57489707D01*
X173010292Y-57378213D01*
X173010288Y-57378210D01*
X172879185Y-57290609D01*
X172879172Y-57290602D01*
X172733501Y-57230264D01*
X172733489Y-57230261D01*
X172578845Y-57199500D01*
X172578842Y-57199500D01*
X172421158Y-57199500D01*
X172421155Y-57199500D01*
X172266510Y-57230261D01*
X172266498Y-57230264D01*
X172120827Y-57290602D01*
X172120814Y-57290609D01*
X171989711Y-57378210D01*
X171989707Y-57378213D01*
X171878213Y-57489707D01*
X171878210Y-57489711D01*
X171790609Y-57620814D01*
X171790604Y-57620824D01*
X171731243Y-57764135D01*
X171687402Y-57818538D01*
X171664135Y-57831243D01*
X171520824Y-57890604D01*
X171520814Y-57890609D01*
X171389711Y-57978210D01*
X171389707Y-57978213D01*
X171278213Y-58089707D01*
X171278210Y-58089711D01*
X171190609Y-58220814D01*
X171190602Y-58220827D01*
X171130264Y-58366498D01*
X171130261Y-58366510D01*
X171099500Y-58521153D01*
X165635925Y-58521153D01*
X165646789Y-58510289D01*
X165703037Y-58426109D01*
X165734390Y-58379185D01*
X165734390Y-58379184D01*
X165734394Y-58379179D01*
X165794737Y-58233497D01*
X165825500Y-58078842D01*
X165825500Y-57921158D01*
X165825500Y-57921155D01*
X165825499Y-57921153D01*
X165819422Y-57890604D01*
X165794737Y-57766503D01*
X165793084Y-57762512D01*
X165734397Y-57620827D01*
X165734390Y-57620814D01*
X165646789Y-57489711D01*
X165646786Y-57489707D01*
X165535292Y-57378213D01*
X165535288Y-57378210D01*
X165404185Y-57290609D01*
X165404172Y-57290602D01*
X165258501Y-57230264D01*
X165258489Y-57230261D01*
X165103845Y-57199500D01*
X165103842Y-57199500D01*
X164946158Y-57199500D01*
X164946155Y-57199500D01*
X164791510Y-57230261D01*
X164791498Y-57230264D01*
X164645827Y-57290602D01*
X164645814Y-57290609D01*
X164514711Y-57378210D01*
X164514707Y-57378213D01*
X164403213Y-57489707D01*
X164403210Y-57489711D01*
X164315609Y-57620814D01*
X164315602Y-57620827D01*
X164255264Y-57766498D01*
X164255261Y-57766510D01*
X164224500Y-57921153D01*
X160881611Y-57921153D01*
X160870989Y-57867759D01*
X160870988Y-57867758D01*
X160870988Y-57867754D01*
X160829052Y-57766510D01*
X160810648Y-57722078D01*
X160810641Y-57722065D01*
X160723040Y-57590962D01*
X160723037Y-57590958D01*
X160611543Y-57479464D01*
X160611539Y-57479461D01*
X160480436Y-57391860D01*
X160480423Y-57391853D01*
X160334752Y-57331515D01*
X160334740Y-57331512D01*
X160180096Y-57300751D01*
X160180093Y-57300751D01*
X160022409Y-57300751D01*
X160022404Y-57300751D01*
X159872724Y-57330524D01*
X159803132Y-57324297D01*
X159747955Y-57281433D01*
X159724711Y-57215544D01*
X159740779Y-57147547D01*
X159760848Y-57121229D01*
X159871789Y-57010289D01*
X159959394Y-56879179D01*
X160019737Y-56733497D01*
X160050500Y-56578842D01*
X160050500Y-56421158D01*
X160050500Y-56421155D01*
X160050499Y-56421153D01*
X160020596Y-56270821D01*
X160019737Y-56266503D01*
X160006062Y-56233489D01*
X159959397Y-56120827D01*
X159959390Y-56120814D01*
X159934763Y-56083957D01*
X159892798Y-56021153D01*
X172949500Y-56021153D01*
X172949500Y-56178846D01*
X172980261Y-56333489D01*
X172980264Y-56333501D01*
X173040602Y-56479172D01*
X173040609Y-56479185D01*
X173128210Y-56610288D01*
X173128213Y-56610292D01*
X173239707Y-56721786D01*
X173239711Y-56721789D01*
X173370814Y-56809390D01*
X173370827Y-56809397D01*
X173516498Y-56869735D01*
X173516503Y-56869737D01*
X173671153Y-56900499D01*
X173671156Y-56900500D01*
X173671158Y-56900500D01*
X173828844Y-56900500D01*
X173828845Y-56900499D01*
X173983497Y-56869737D01*
X174129179Y-56809394D01*
X174260289Y-56721789D01*
X174371789Y-56610289D01*
X174459394Y-56479179D01*
X174519737Y-56333497D01*
X174550500Y-56178842D01*
X174550500Y-56021158D01*
X174550500Y-56021155D01*
X174534209Y-55939258D01*
X174534209Y-55939257D01*
X174530608Y-55921153D01*
X179199500Y-55921153D01*
X179199500Y-56078846D01*
X179230261Y-56233489D01*
X179230264Y-56233501D01*
X179290602Y-56379172D01*
X179290609Y-56379185D01*
X179378210Y-56510288D01*
X179378213Y-56510292D01*
X179489707Y-56621786D01*
X179489711Y-56621789D01*
X179620814Y-56709390D01*
X179620827Y-56709397D01*
X179766498Y-56769735D01*
X179766503Y-56769737D01*
X179921153Y-56800499D01*
X179921156Y-56800500D01*
X179921158Y-56800500D01*
X180078844Y-56800500D01*
X180078845Y-56800499D01*
X180233497Y-56769737D01*
X180379179Y-56709394D01*
X180510289Y-56621789D01*
X180560925Y-56571153D01*
X184199500Y-56571153D01*
X184199500Y-56728846D01*
X184230261Y-56883489D01*
X184230264Y-56883501D01*
X184290602Y-57029172D01*
X184290609Y-57029185D01*
X184378210Y-57160288D01*
X184378213Y-57160292D01*
X184489707Y-57271786D01*
X184489711Y-57271789D01*
X184620814Y-57359390D01*
X184620827Y-57359397D01*
X184766498Y-57419735D01*
X184766503Y-57419737D01*
X184916131Y-57449500D01*
X184921153Y-57450499D01*
X184921156Y-57450500D01*
X184921158Y-57450500D01*
X185078844Y-57450500D01*
X185078845Y-57450499D01*
X185233497Y-57419737D01*
X185379179Y-57359394D01*
X185510289Y-57271789D01*
X185621789Y-57160289D01*
X185709394Y-57029179D01*
X185769737Y-56883497D01*
X185800500Y-56728842D01*
X185800500Y-56571158D01*
X185800500Y-56571155D01*
X185800499Y-56571153D01*
X185782204Y-56479179D01*
X185769737Y-56416503D01*
X185756836Y-56385357D01*
X185709397Y-56270827D01*
X185709390Y-56270814D01*
X185621789Y-56139711D01*
X185621786Y-56139707D01*
X185510292Y-56028213D01*
X185510288Y-56028210D01*
X185379185Y-55940609D01*
X185379172Y-55940602D01*
X185233501Y-55880264D01*
X185233489Y-55880261D01*
X185078845Y-55849500D01*
X185078842Y-55849500D01*
X184921158Y-55849500D01*
X184921155Y-55849500D01*
X184766510Y-55880261D01*
X184766498Y-55880264D01*
X184620827Y-55940602D01*
X184620814Y-55940609D01*
X184489711Y-56028210D01*
X184489707Y-56028213D01*
X184378213Y-56139707D01*
X184378210Y-56139711D01*
X184290609Y-56270814D01*
X184290602Y-56270827D01*
X184230264Y-56416498D01*
X184230261Y-56416510D01*
X184199500Y-56571153D01*
X180560925Y-56571153D01*
X180621789Y-56510289D01*
X180632087Y-56494878D01*
X180709390Y-56379185D01*
X180709390Y-56379184D01*
X180709394Y-56379179D01*
X180769737Y-56233497D01*
X180800500Y-56078842D01*
X180800500Y-55921158D01*
X180800500Y-55921155D01*
X180800499Y-55921153D01*
X180774531Y-55790606D01*
X180769737Y-55766503D01*
X180769735Y-55766498D01*
X180709397Y-55620827D01*
X180709390Y-55620814D01*
X180621789Y-55489711D01*
X180621786Y-55489707D01*
X180510292Y-55378213D01*
X180510288Y-55378210D01*
X180379185Y-55290609D01*
X180379172Y-55290602D01*
X180233501Y-55230264D01*
X180233489Y-55230261D01*
X180078845Y-55199500D01*
X180078842Y-55199500D01*
X179921158Y-55199500D01*
X179921155Y-55199500D01*
X179766510Y-55230261D01*
X179766498Y-55230264D01*
X179620827Y-55290602D01*
X179620814Y-55290609D01*
X179489711Y-55378210D01*
X179489707Y-55378213D01*
X179378213Y-55489707D01*
X179378210Y-55489711D01*
X179290609Y-55620814D01*
X179290602Y-55620827D01*
X179230264Y-55766498D01*
X179230261Y-55766510D01*
X179199500Y-55921153D01*
X174530608Y-55921153D01*
X174522474Y-55880263D01*
X174519737Y-55866503D01*
X174478314Y-55766498D01*
X174459397Y-55720827D01*
X174459390Y-55720814D01*
X174371789Y-55589711D01*
X174371786Y-55589707D01*
X174260292Y-55478213D01*
X174260288Y-55478210D01*
X174129185Y-55390609D01*
X174129172Y-55390602D01*
X173983501Y-55330264D01*
X173983489Y-55330261D01*
X173828845Y-55299500D01*
X173828842Y-55299500D01*
X173671158Y-55299500D01*
X173671155Y-55299500D01*
X173516510Y-55330261D01*
X173516498Y-55330264D01*
X173370827Y-55390602D01*
X173370814Y-55390609D01*
X173239711Y-55478210D01*
X173239707Y-55478213D01*
X173128213Y-55589707D01*
X173128210Y-55589711D01*
X173040609Y-55720814D01*
X173040602Y-55720827D01*
X172980264Y-55866498D01*
X172980261Y-55866510D01*
X172949500Y-56021153D01*
X159892798Y-56021153D01*
X159871789Y-55989711D01*
X159871786Y-55989707D01*
X159760292Y-55878213D01*
X159760288Y-55878210D01*
X159629185Y-55790609D01*
X159629172Y-55790602D01*
X159483501Y-55730264D01*
X159483489Y-55730261D01*
X159328845Y-55699500D01*
X159328842Y-55699500D01*
X159171158Y-55699500D01*
X159171155Y-55699500D01*
X159016510Y-55730261D01*
X159016498Y-55730264D01*
X158870827Y-55790602D01*
X158870814Y-55790609D01*
X158739711Y-55878210D01*
X158739707Y-55878213D01*
X158628213Y-55989707D01*
X158628210Y-55989711D01*
X158540609Y-56120814D01*
X158540602Y-56120827D01*
X158480264Y-56266498D01*
X158480261Y-56266510D01*
X158449500Y-56421153D01*
X158449500Y-56578846D01*
X158480261Y-56733489D01*
X158480264Y-56733501D01*
X158540602Y-56879172D01*
X158540609Y-56879185D01*
X158628210Y-57010288D01*
X158628213Y-57010292D01*
X158739707Y-57121786D01*
X158739711Y-57121789D01*
X158870814Y-57209390D01*
X158870827Y-57209397D01*
X158947907Y-57241324D01*
X159016503Y-57269737D01*
X159171153Y-57300499D01*
X159171156Y-57300500D01*
X159171158Y-57300500D01*
X159328844Y-57300500D01*
X159478525Y-57270726D01*
X159548117Y-57276953D01*
X159603294Y-57319816D01*
X159626539Y-57385705D01*
X159610471Y-57453702D01*
X159590399Y-57480024D01*
X159479461Y-57590962D01*
X159391860Y-57722065D01*
X159391853Y-57722078D01*
X159331515Y-57867749D01*
X159331512Y-57867761D01*
X159300751Y-58022404D01*
X159300751Y-58180097D01*
X159331512Y-58334740D01*
X159331515Y-58334752D01*
X159381474Y-58455364D01*
X159388943Y-58524833D01*
X159357668Y-58587312D01*
X159297579Y-58622964D01*
X159227753Y-58620470D01*
X159170361Y-58580622D01*
X159157552Y-58561264D01*
X159155390Y-58557220D01*
X159067787Y-58426113D01*
X159067784Y-58426109D01*
X158956290Y-58314615D01*
X158956286Y-58314612D01*
X158825183Y-58227011D01*
X158825170Y-58227004D01*
X158679499Y-58166666D01*
X158679487Y-58166663D01*
X158524843Y-58135902D01*
X158524840Y-58135902D01*
X158367156Y-58135902D01*
X158367153Y-58135902D01*
X158212508Y-58166663D01*
X158212496Y-58166666D01*
X158066825Y-58227004D01*
X158066812Y-58227011D01*
X157935709Y-58314612D01*
X157935705Y-58314615D01*
X157824211Y-58426109D01*
X157824208Y-58426113D01*
X157736607Y-58557216D01*
X157736600Y-58557229D01*
X157676262Y-58702900D01*
X157676259Y-58702912D01*
X157645498Y-58857555D01*
X153642444Y-58857555D01*
X154963180Y-57536818D01*
X154988571Y-57522954D01*
X155012445Y-57506601D01*
X155021011Y-57505240D01*
X155024503Y-57503334D01*
X155047217Y-57500554D01*
X155049054Y-57500500D01*
X155140425Y-57500500D01*
X155172679Y-57496865D01*
X155177811Y-57496715D01*
X155206829Y-57504316D01*
X155236391Y-57509494D01*
X155240282Y-57513080D01*
X155245400Y-57514421D01*
X155265705Y-57536507D01*
X155287771Y-57556842D01*
X155289105Y-57561961D01*
X155292687Y-57565857D01*
X155297827Y-57595417D01*
X155305397Y-57624452D01*
X155304004Y-57630934D01*
X155304658Y-57634694D01*
X155301678Y-57641761D01*
X155296016Y-57668113D01*
X155255263Y-57766503D01*
X155255262Y-57766506D01*
X155255262Y-57766507D01*
X155255261Y-57766510D01*
X155224500Y-57921153D01*
X155224500Y-58078846D01*
X155255261Y-58233489D01*
X155255264Y-58233501D01*
X155315602Y-58379172D01*
X155315609Y-58379185D01*
X155403210Y-58510288D01*
X155403213Y-58510292D01*
X155514707Y-58621786D01*
X155514711Y-58621789D01*
X155645814Y-58709390D01*
X155645827Y-58709397D01*
X155791498Y-58769735D01*
X155791503Y-58769737D01*
X155946153Y-58800499D01*
X155946156Y-58800500D01*
X155946158Y-58800500D01*
X156103844Y-58800500D01*
X156103845Y-58800499D01*
X156258497Y-58769737D01*
X156330987Y-58739711D01*
X156337757Y-58736907D01*
X156404172Y-58709397D01*
X156404172Y-58709396D01*
X156404179Y-58709394D01*
X156535289Y-58621789D01*
X156646789Y-58510289D01*
X156734394Y-58379179D01*
X156794737Y-58233497D01*
X156825500Y-58078842D01*
X156825500Y-57921158D01*
X156825500Y-57921155D01*
X156825499Y-57921153D01*
X156819422Y-57890604D01*
X156794737Y-57766503D01*
X156793084Y-57762512D01*
X156734397Y-57620827D01*
X156734390Y-57620814D01*
X156646789Y-57489711D01*
X156646786Y-57489707D01*
X156535292Y-57378213D01*
X156535288Y-57378210D01*
X156404180Y-57290606D01*
X156403585Y-57290288D01*
X156403331Y-57290039D01*
X156399114Y-57287221D01*
X156399648Y-57286420D01*
X156353742Y-57241324D01*
X156338283Y-57173186D01*
X156362116Y-57107507D01*
X156396070Y-57075937D01*
X156449243Y-57042526D01*
X156449242Y-57042526D01*
X156449248Y-57042523D01*
X156668825Y-56867416D01*
X156867416Y-56668825D01*
X157042523Y-56449248D01*
X157191945Y-56211445D01*
X157313801Y-55958408D01*
X157406560Y-55693318D01*
X157469055Y-55419509D01*
X157479111Y-55330264D01*
X157497197Y-55169737D01*
X157500500Y-55140425D01*
X157500500Y-55050861D01*
X157520185Y-54983822D01*
X157536819Y-54963180D01*
X158178846Y-54321153D01*
X170199500Y-54321153D01*
X170199500Y-54478846D01*
X170230261Y-54633489D01*
X170230264Y-54633501D01*
X170290602Y-54779172D01*
X170290609Y-54779185D01*
X170378210Y-54910288D01*
X170378213Y-54910292D01*
X170489707Y-55021786D01*
X170489711Y-55021789D01*
X170620814Y-55109390D01*
X170620827Y-55109397D01*
X170766498Y-55169735D01*
X170766503Y-55169737D01*
X170916131Y-55199500D01*
X170921153Y-55200499D01*
X170921156Y-55200500D01*
X170921158Y-55200500D01*
X171078844Y-55200500D01*
X171078845Y-55200499D01*
X171233497Y-55169737D01*
X171379179Y-55109394D01*
X171510289Y-55021789D01*
X171621789Y-54910289D01*
X171709394Y-54779179D01*
X171769737Y-54633497D01*
X171800500Y-54478842D01*
X171800500Y-54321158D01*
X171800500Y-54321155D01*
X171800499Y-54321153D01*
X171774264Y-54189257D01*
X171770662Y-54171153D01*
X174974500Y-54171153D01*
X174974500Y-54328846D01*
X175005261Y-54483489D01*
X175005264Y-54483501D01*
X175065602Y-54629172D01*
X175065609Y-54629185D01*
X175153210Y-54760288D01*
X175153213Y-54760292D01*
X175264707Y-54871786D01*
X175264711Y-54871789D01*
X175395814Y-54959390D01*
X175395827Y-54959397D01*
X175493853Y-55000000D01*
X175541503Y-55019737D01*
X175696153Y-55050499D01*
X175696156Y-55050500D01*
X175696158Y-55050500D01*
X175853844Y-55050500D01*
X175853845Y-55050499D01*
X176008497Y-55019737D01*
X176154179Y-54959394D01*
X176285289Y-54871789D01*
X176396789Y-54760289D01*
X176484394Y-54629179D01*
X176544737Y-54483497D01*
X176575500Y-54328842D01*
X176575500Y-54171158D01*
X176575500Y-54171155D01*
X176575499Y-54171153D01*
X176557159Y-54078951D01*
X176544737Y-54016503D01*
X176509322Y-53931003D01*
X176484397Y-53870827D01*
X176484390Y-53870814D01*
X176396789Y-53739711D01*
X176396786Y-53739707D01*
X176285292Y-53628213D01*
X176285288Y-53628210D01*
X176154185Y-53540609D01*
X176154172Y-53540602D01*
X176008501Y-53480264D01*
X176008489Y-53480261D01*
X175853845Y-53449500D01*
X175853842Y-53449500D01*
X175696158Y-53449500D01*
X175696155Y-53449500D01*
X175541510Y-53480261D01*
X175541498Y-53480264D01*
X175395827Y-53540602D01*
X175395814Y-53540609D01*
X175264711Y-53628210D01*
X175264707Y-53628213D01*
X175153213Y-53739707D01*
X175153210Y-53739711D01*
X175065609Y-53870814D01*
X175065602Y-53870827D01*
X175005264Y-54016498D01*
X175005261Y-54016510D01*
X174974500Y-54171153D01*
X171770662Y-54171153D01*
X171769738Y-54166507D01*
X171769735Y-54166498D01*
X171709397Y-54020827D01*
X171709390Y-54020814D01*
X171621789Y-53889711D01*
X171621786Y-53889707D01*
X171510292Y-53778213D01*
X171510288Y-53778210D01*
X171379185Y-53690609D01*
X171379172Y-53690602D01*
X171233501Y-53630264D01*
X171233489Y-53630261D01*
X171078845Y-53599500D01*
X171078842Y-53599500D01*
X170921158Y-53599500D01*
X170921155Y-53599500D01*
X170766510Y-53630261D01*
X170766498Y-53630264D01*
X170620827Y-53690602D01*
X170620814Y-53690609D01*
X170489711Y-53778210D01*
X170489707Y-53778213D01*
X170378213Y-53889707D01*
X170378210Y-53889711D01*
X170290609Y-54020814D01*
X170290602Y-54020827D01*
X170230264Y-54166498D01*
X170230261Y-54166510D01*
X170199500Y-54321153D01*
X158178846Y-54321153D01*
X158272614Y-54227385D01*
X158479173Y-54020827D01*
X159963681Y-52536319D01*
X160025004Y-52502834D01*
X160051362Y-52500000D01*
X189948638Y-52500000D01*
X190015677Y-52519685D01*
G37*
%TD.AperFunction*%
%TD*%
M02*
