%TF.GenerationSoftware,KiCad,Pcbnew,9.0.1-9.0.1-0~ubuntu24.04.1*%
%TF.CreationDate,2025-06-01T18:05:04-05:00*%
%TF.ProjectId,FC,46432e6b-6963-4616-945f-706362585858,rev?*%
%TF.SameCoordinates,Original*%
%TF.FileFunction,Copper,L2,Inr*%
%TF.FilePolarity,Positive*%
%FSLAX46Y46*%
G04 Gerber Fmt 4.6, Leading zero omitted, Abs format (unit mm)*
G04 Created by KiCad (PCBNEW 9.0.1-9.0.1-0~ubuntu24.04.1) date 2025-06-01 18:05:04*
%MOMM*%
%LPD*%
G01*
G04 APERTURE LIST*
%TA.AperFunction,HeatsinkPad*%
%ADD10C,0.500000*%
%TD*%
%TA.AperFunction,HeatsinkPad*%
%ADD11O,2.100000X1.000000*%
%TD*%
%TA.AperFunction,HeatsinkPad*%
%ADD12O,1.800000X1.000000*%
%TD*%
%TA.AperFunction,ViaPad*%
%ADD13C,0.600000*%
%TD*%
G04 APERTURE END LIST*
D10*
%TO.N,GND*%
%TO.C,U1*%
X192300000Y-65750000D03*
X193400000Y-65750000D03*
%TD*%
D11*
%TO.N,GND*%
%TO.C,J1*%
X193145000Y-79070000D03*
D12*
X197325000Y-79070000D03*
D11*
X193145000Y-70430000D03*
D12*
X197325000Y-70430000D03*
%TD*%
D13*
%TO.N,+3.3V*%
X183025000Y-87250000D03*
%TO.N,GND*%
X181475000Y-87250000D03*
X164250000Y-67750000D03*
%TO.N,+3.3V*%
X162750000Y-67750000D03*
X174500000Y-61425000D03*
%TO.N,GND*%
X175500000Y-62175000D03*
%TO.N,+3.3V*%
X170500000Y-61425000D03*
%TO.N,GND*%
X171500000Y-62175000D03*
%TO.N,+3.3V*%
X163500000Y-61425000D03*
%TO.N,GND*%
X164500000Y-62175000D03*
%TO.N,+3.3V*%
X162675000Y-65250000D03*
%TO.N,GND*%
X163425000Y-64250000D03*
%TO.N,+3.3V*%
X162675000Y-74250000D03*
%TO.N,GND*%
X163425000Y-73250000D03*
%TO.N,+3.3V*%
X162675000Y-81250000D03*
%TO.N,GND*%
X163425000Y-80250000D03*
%TO.N,+3.3V*%
X165000000Y-83575000D03*
%TO.N,GND*%
X164000000Y-82825000D03*
%TO.N,+3.3V*%
X173500000Y-83575000D03*
%TO.N,GND*%
X172500000Y-82825000D03*
X175500000Y-82825000D03*
%TO.N,+3.3V*%
X176500000Y-83575000D03*
X181000000Y-83575000D03*
%TO.N,GND*%
X182000000Y-82825000D03*
%TO.N,+3.3V*%
X184825000Y-82250000D03*
%TO.N,GND*%
X184075000Y-81250000D03*
%TO.N,+3.3V*%
X184750000Y-78750000D03*
%TO.N,GND*%
X184000000Y-77750000D03*
%TO.N,+3.3V*%
X184750000Y-70750000D03*
%TO.N,GND*%
X184500000Y-71750000D03*
X189250000Y-53500000D03*
X190650000Y-65000000D03*
%TO.N,/SD_CMD*%
X179400000Y-61900000D03*
%TO.N,/SD_DAT3*%
X184250000Y-63500000D03*
%TO.N,/SD_CLK*%
X181500000Y-64250000D03*
%TO.N,/SD_DAT2*%
X183250000Y-62750000D03*
%TO.N,/SD_DAT1*%
X180000000Y-65500000D03*
%TO.N,/SD_DAT0*%
X181250000Y-65500000D03*
%TO.N,+5V*%
X184500000Y-68250000D03*
X191250000Y-65750000D03*
%TO.N,GND*%
X196500000Y-67750000D03*
X194750000Y-81500000D03*
X196750000Y-90500000D03*
X196750000Y-87500000D03*
%TO.N,+5V*%
X180000000Y-56000000D03*
X161945650Y-51350000D03*
%TO.N,+3.3V*%
X171000000Y-54400000D03*
%TO.N,GND*%
X175000000Y-52600000D03*
X166000000Y-54400000D03*
X175750000Y-92500000D03*
%TO.N,+3.3V*%
X170750000Y-92500000D03*
%TO.N,GND*%
X188500000Y-96250000D03*
X183250000Y-88500000D03*
%TO.N,+3.3V*%
X183250000Y-95750000D03*
X189000000Y-93000000D03*
%TO.N,+5V*%
X195750000Y-51500000D03*
X151500000Y-54250000D03*
X154250000Y-98500000D03*
X198500000Y-95750000D03*
X198625000Y-85375000D03*
X194500000Y-61750000D03*
%TD*%
%TA.AperFunction,Conductor*%
%TO.N,GND*%
G36*
X190015677Y-52519685D02*
G01*
X190036319Y-52536319D01*
X192463181Y-54963181D01*
X192496666Y-55024504D01*
X192499500Y-55050862D01*
X192499500Y-55140431D01*
X192530942Y-55419494D01*
X192530945Y-55419512D01*
X192593439Y-55693317D01*
X192593443Y-55693329D01*
X192686200Y-55958411D01*
X192808053Y-56211442D01*
X192808055Y-56211445D01*
X192957477Y-56449248D01*
X193132584Y-56668825D01*
X193331175Y-56867416D01*
X193550752Y-57042523D01*
X193788555Y-57191945D01*
X194041592Y-57313801D01*
X194240680Y-57383465D01*
X194306670Y-57406556D01*
X194306682Y-57406560D01*
X194580491Y-57469055D01*
X194580497Y-57469055D01*
X194580505Y-57469057D01*
X194766547Y-57490018D01*
X194859569Y-57500499D01*
X194859572Y-57500500D01*
X194949138Y-57500500D01*
X195016177Y-57520185D01*
X195036819Y-57536819D01*
X197160071Y-59660071D01*
X197193556Y-59721394D01*
X197188572Y-59791086D01*
X197146700Y-59847019D01*
X197104484Y-59867527D01*
X196981714Y-59900423D01*
X196981709Y-59900426D01*
X196844790Y-59979475D01*
X196844782Y-59979481D01*
X196732981Y-60091282D01*
X196732975Y-60091290D01*
X196653926Y-60228209D01*
X196653923Y-60228216D01*
X196613000Y-60380943D01*
X196613000Y-60539057D01*
X196644138Y-60655263D01*
X196653923Y-60691783D01*
X196653926Y-60691790D01*
X196732975Y-60828709D01*
X196732979Y-60828714D01*
X196732980Y-60828716D01*
X196844784Y-60940520D01*
X196844785Y-60940521D01*
X196844787Y-60940522D01*
X196926351Y-60987613D01*
X196974567Y-61038180D01*
X196987790Y-61106787D01*
X196961822Y-61171652D01*
X196926351Y-61202387D01*
X196844787Y-61249477D01*
X196844782Y-61249481D01*
X196732981Y-61361282D01*
X196732975Y-61361290D01*
X196653926Y-61498209D01*
X196653923Y-61498216D01*
X196613000Y-61650943D01*
X196613000Y-61809057D01*
X196646824Y-61935288D01*
X196653923Y-61961783D01*
X196653926Y-61961790D01*
X196732975Y-62098709D01*
X196732979Y-62098714D01*
X196732980Y-62098716D01*
X196844784Y-62210520D01*
X196844785Y-62210521D01*
X196844787Y-62210522D01*
X196926351Y-62257613D01*
X196974567Y-62308180D01*
X196987790Y-62376787D01*
X196961822Y-62441652D01*
X196926351Y-62472387D01*
X196844787Y-62519477D01*
X196844782Y-62519481D01*
X196732981Y-62631282D01*
X196732975Y-62631290D01*
X196653926Y-62768209D01*
X196653923Y-62768216D01*
X196613000Y-62920943D01*
X196613000Y-63079057D01*
X196626429Y-63129172D01*
X196653923Y-63231783D01*
X196653926Y-63231790D01*
X196732975Y-63368709D01*
X196732979Y-63368714D01*
X196732980Y-63368716D01*
X196844784Y-63480520D01*
X196844785Y-63480521D01*
X196844787Y-63480522D01*
X196926351Y-63527613D01*
X196974567Y-63578180D01*
X196987790Y-63646787D01*
X196961822Y-63711652D01*
X196926351Y-63742387D01*
X196844787Y-63789477D01*
X196844782Y-63789481D01*
X196732981Y-63901282D01*
X196732975Y-63901290D01*
X196653926Y-64038209D01*
X196653923Y-64038216D01*
X196613000Y-64190943D01*
X196613000Y-64349057D01*
X196648157Y-64480263D01*
X196653923Y-64501783D01*
X196653926Y-64501790D01*
X196732975Y-64638709D01*
X196732979Y-64638714D01*
X196732980Y-64638716D01*
X196844784Y-64750520D01*
X196844785Y-64750521D01*
X196844787Y-64750522D01*
X196926351Y-64797613D01*
X196974567Y-64848180D01*
X196987790Y-64916787D01*
X196961822Y-64981652D01*
X196926351Y-65012387D01*
X196844787Y-65059477D01*
X196844782Y-65059481D01*
X196732981Y-65171282D01*
X196732975Y-65171290D01*
X196653926Y-65308209D01*
X196653923Y-65308216D01*
X196613000Y-65460943D01*
X196613000Y-65619057D01*
X196648087Y-65750001D01*
X196653923Y-65771783D01*
X196653926Y-65771790D01*
X196732975Y-65908709D01*
X196732979Y-65908714D01*
X196732980Y-65908716D01*
X196844784Y-66020520D01*
X196844786Y-66020521D01*
X196844790Y-66020524D01*
X196896711Y-66050500D01*
X196981716Y-66099577D01*
X197134443Y-66140500D01*
X197134445Y-66140500D01*
X197292554Y-66140500D01*
X197292557Y-66140500D01*
X197343909Y-66126740D01*
X197413756Y-66128403D01*
X197471618Y-66167565D01*
X197499123Y-66231793D01*
X197500000Y-66246515D01*
X197500000Y-70130000D01*
X197075000Y-70130000D01*
X197075000Y-69430000D01*
X196826504Y-69430000D01*
X196633318Y-69468427D01*
X196633306Y-69468430D01*
X196451328Y-69543807D01*
X196451315Y-69543814D01*
X196287537Y-69653248D01*
X196287533Y-69653251D01*
X196148251Y-69792533D01*
X196148248Y-69792537D01*
X196038814Y-69956315D01*
X196038807Y-69956328D01*
X195963430Y-70138307D01*
X195963430Y-70138309D01*
X195955138Y-70180000D01*
X196758012Y-70180000D01*
X196740795Y-70189940D01*
X196684940Y-70245795D01*
X196645444Y-70314204D01*
X196625000Y-70390504D01*
X196625000Y-70469496D01*
X196645444Y-70545796D01*
X196684940Y-70614205D01*
X196740795Y-70670060D01*
X196758012Y-70680000D01*
X195955138Y-70680000D01*
X195963430Y-70721690D01*
X195963430Y-70721692D01*
X196038807Y-70903671D01*
X196038814Y-70903684D01*
X196148248Y-71067462D01*
X196148251Y-71067466D01*
X196287533Y-71206748D01*
X196287537Y-71206751D01*
X196451315Y-71316185D01*
X196451328Y-71316192D01*
X196633306Y-71391569D01*
X196633318Y-71391572D01*
X196826504Y-71429999D01*
X196826508Y-71430000D01*
X197075000Y-71430000D01*
X197075000Y-70730000D01*
X197500000Y-70730000D01*
X197500000Y-78770000D01*
X197075000Y-78770000D01*
X197075000Y-78070000D01*
X196826504Y-78070000D01*
X196633318Y-78108427D01*
X196633306Y-78108430D01*
X196451328Y-78183807D01*
X196451315Y-78183814D01*
X196287537Y-78293248D01*
X196287533Y-78293251D01*
X196148251Y-78432533D01*
X196148248Y-78432537D01*
X196038814Y-78596315D01*
X196038807Y-78596328D01*
X195963430Y-78778307D01*
X195963430Y-78778309D01*
X195955138Y-78820000D01*
X196758012Y-78820000D01*
X196740795Y-78829940D01*
X196684940Y-78885795D01*
X196645444Y-78954204D01*
X196625000Y-79030504D01*
X196625000Y-79109496D01*
X196645444Y-79185796D01*
X196684940Y-79254205D01*
X196740795Y-79310060D01*
X196758012Y-79320000D01*
X195955138Y-79320000D01*
X195963430Y-79361690D01*
X195963430Y-79361692D01*
X196038807Y-79543671D01*
X196038814Y-79543684D01*
X196148248Y-79707462D01*
X196148251Y-79707466D01*
X196287533Y-79846748D01*
X196287537Y-79846751D01*
X196451315Y-79956185D01*
X196451328Y-79956192D01*
X196633306Y-80031569D01*
X196633318Y-80031572D01*
X196826504Y-80069999D01*
X196826508Y-80070000D01*
X197075000Y-80070000D01*
X197075000Y-79370000D01*
X197500000Y-79370000D01*
X197500000Y-80200000D01*
X197500000Y-89948637D01*
X197480315Y-90015676D01*
X197463681Y-90036318D01*
X195036818Y-92463181D01*
X194975495Y-92496666D01*
X194949137Y-92499500D01*
X194859568Y-92499500D01*
X194580505Y-92530942D01*
X194580487Y-92530945D01*
X194306682Y-92593439D01*
X194306670Y-92593443D01*
X194041588Y-92686200D01*
X193788557Y-92808053D01*
X193550753Y-92957476D01*
X193331175Y-93132583D01*
X193132583Y-93331175D01*
X192957476Y-93550753D01*
X192808053Y-93788557D01*
X192686200Y-94041588D01*
X192593443Y-94306670D01*
X192593439Y-94306682D01*
X192530945Y-94580487D01*
X192530942Y-94580505D01*
X192499500Y-94859568D01*
X192499500Y-94949137D01*
X192479815Y-95016176D01*
X192463181Y-95036818D01*
X190036319Y-97463681D01*
X189974996Y-97497166D01*
X189948638Y-97500000D01*
X160051362Y-97500000D01*
X159984323Y-97480315D01*
X159963681Y-97463681D01*
X158171153Y-95671153D01*
X182449500Y-95671153D01*
X182449500Y-95828846D01*
X182480261Y-95983489D01*
X182480264Y-95983501D01*
X182540602Y-96129172D01*
X182540609Y-96129185D01*
X182628210Y-96260288D01*
X182628213Y-96260292D01*
X182739707Y-96371786D01*
X182739711Y-96371789D01*
X182870814Y-96459390D01*
X182870827Y-96459397D01*
X183016498Y-96519735D01*
X183016503Y-96519737D01*
X183171153Y-96550499D01*
X183171156Y-96550500D01*
X183171158Y-96550500D01*
X183328844Y-96550500D01*
X183328845Y-96550499D01*
X183483497Y-96519737D01*
X183629179Y-96459394D01*
X183760289Y-96371789D01*
X183871789Y-96260289D01*
X183959394Y-96129179D01*
X184019737Y-95983497D01*
X184050500Y-95828842D01*
X184050500Y-95671158D01*
X184050500Y-95671155D01*
X184050499Y-95671153D01*
X184019738Y-95516510D01*
X184019737Y-95516503D01*
X183968232Y-95392157D01*
X183959397Y-95370827D01*
X183959390Y-95370814D01*
X183871789Y-95239711D01*
X183871786Y-95239707D01*
X183760292Y-95128213D01*
X183760288Y-95128210D01*
X183629185Y-95040609D01*
X183629172Y-95040602D01*
X183483501Y-94980264D01*
X183483489Y-94980261D01*
X183328845Y-94949500D01*
X183328842Y-94949500D01*
X183171158Y-94949500D01*
X183171155Y-94949500D01*
X183016510Y-94980261D01*
X183016498Y-94980264D01*
X182870827Y-95040602D01*
X182870814Y-95040609D01*
X182739711Y-95128210D01*
X182739707Y-95128213D01*
X182628213Y-95239707D01*
X182628210Y-95239711D01*
X182540609Y-95370814D01*
X182540602Y-95370827D01*
X182480264Y-95516498D01*
X182480261Y-95516510D01*
X182449500Y-95671153D01*
X158171153Y-95671153D01*
X157536819Y-95036819D01*
X157503334Y-94975496D01*
X157500500Y-94949138D01*
X157500500Y-94859572D01*
X157500499Y-94859568D01*
X157469057Y-94580505D01*
X157469054Y-94580487D01*
X157406560Y-94306682D01*
X157406556Y-94306670D01*
X157383465Y-94240680D01*
X157313801Y-94041592D01*
X157191945Y-93788555D01*
X157042523Y-93550752D01*
X156867416Y-93331175D01*
X156668825Y-93132584D01*
X156449248Y-92957477D01*
X156211445Y-92808055D01*
X156211442Y-92808053D01*
X155958411Y-92686200D01*
X155693329Y-92593443D01*
X155693317Y-92593439D01*
X155441468Y-92535957D01*
X155419509Y-92530945D01*
X155419506Y-92530944D01*
X155419494Y-92530942D01*
X155140431Y-92499500D01*
X155140425Y-92499500D01*
X155050862Y-92499500D01*
X154983823Y-92479815D01*
X154963181Y-92463181D01*
X154921153Y-92421153D01*
X169949500Y-92421153D01*
X169949500Y-92578846D01*
X169980261Y-92733489D01*
X169980264Y-92733501D01*
X170040602Y-92879172D01*
X170040609Y-92879185D01*
X170128210Y-93010288D01*
X170128213Y-93010292D01*
X170239707Y-93121786D01*
X170239711Y-93121789D01*
X170370814Y-93209390D01*
X170370827Y-93209397D01*
X170516498Y-93269735D01*
X170516503Y-93269737D01*
X170671153Y-93300499D01*
X170671156Y-93300500D01*
X170671158Y-93300500D01*
X170828844Y-93300500D01*
X170828845Y-93300499D01*
X170983497Y-93269737D01*
X171129179Y-93209394D01*
X171260289Y-93121789D01*
X171371789Y-93010289D01*
X171431348Y-92921153D01*
X188199500Y-92921153D01*
X188199500Y-93078846D01*
X188230261Y-93233489D01*
X188230264Y-93233501D01*
X188290602Y-93379172D01*
X188290609Y-93379185D01*
X188378210Y-93510288D01*
X188378213Y-93510292D01*
X188489707Y-93621786D01*
X188489711Y-93621789D01*
X188620814Y-93709390D01*
X188620827Y-93709397D01*
X188766498Y-93769735D01*
X188766503Y-93769737D01*
X188921153Y-93800499D01*
X188921156Y-93800500D01*
X188921158Y-93800500D01*
X189078844Y-93800500D01*
X189078845Y-93800499D01*
X189233497Y-93769737D01*
X189379179Y-93709394D01*
X189510289Y-93621789D01*
X189621789Y-93510289D01*
X189709394Y-93379179D01*
X189769737Y-93233497D01*
X189800500Y-93078842D01*
X189800500Y-92921158D01*
X189800500Y-92921155D01*
X189800499Y-92921153D01*
X189769738Y-92766510D01*
X189769737Y-92766503D01*
X189736475Y-92686200D01*
X189709397Y-92620827D01*
X189709390Y-92620814D01*
X189621789Y-92489711D01*
X189621786Y-92489707D01*
X189510292Y-92378213D01*
X189510288Y-92378210D01*
X189379185Y-92290609D01*
X189379172Y-92290602D01*
X189233501Y-92230264D01*
X189233489Y-92230261D01*
X189078845Y-92199500D01*
X189078842Y-92199500D01*
X188921158Y-92199500D01*
X188921155Y-92199500D01*
X188766510Y-92230261D01*
X188766498Y-92230264D01*
X188620827Y-92290602D01*
X188620814Y-92290609D01*
X188489711Y-92378210D01*
X188489707Y-92378213D01*
X188378213Y-92489707D01*
X188378210Y-92489711D01*
X188290609Y-92620814D01*
X188290602Y-92620827D01*
X188230264Y-92766498D01*
X188230261Y-92766510D01*
X188199500Y-92921153D01*
X171431348Y-92921153D01*
X171459394Y-92879179D01*
X171519737Y-92733497D01*
X171550500Y-92578842D01*
X171550500Y-92421158D01*
X171550500Y-92421155D01*
X171550499Y-92421153D01*
X171524531Y-92290606D01*
X171519737Y-92266503D01*
X171519735Y-92266498D01*
X171459397Y-92120827D01*
X171459390Y-92120814D01*
X171371789Y-91989711D01*
X171371786Y-91989707D01*
X171260292Y-91878213D01*
X171260288Y-91878210D01*
X171129185Y-91790609D01*
X171129172Y-91790602D01*
X170983501Y-91730264D01*
X170983489Y-91730261D01*
X170828845Y-91699500D01*
X170828842Y-91699500D01*
X170671158Y-91699500D01*
X170671155Y-91699500D01*
X170516510Y-91730261D01*
X170516498Y-91730264D01*
X170370827Y-91790602D01*
X170370814Y-91790609D01*
X170239711Y-91878210D01*
X170239707Y-91878213D01*
X170128213Y-91989707D01*
X170128210Y-91989711D01*
X170040609Y-92120814D01*
X170040602Y-92120827D01*
X169980264Y-92266498D01*
X169980261Y-92266510D01*
X169949500Y-92421153D01*
X154921153Y-92421153D01*
X152536319Y-90036319D01*
X152502834Y-89974996D01*
X152500000Y-89948638D01*
X152500000Y-87171153D01*
X182224500Y-87171153D01*
X182224500Y-87328846D01*
X182255261Y-87483489D01*
X182255264Y-87483501D01*
X182315602Y-87629172D01*
X182315609Y-87629185D01*
X182403210Y-87760288D01*
X182403213Y-87760292D01*
X182514707Y-87871786D01*
X182514711Y-87871789D01*
X182645814Y-87959390D01*
X182645827Y-87959397D01*
X182791498Y-88019735D01*
X182791503Y-88019737D01*
X182946153Y-88050499D01*
X182946156Y-88050500D01*
X182946158Y-88050500D01*
X183103844Y-88050500D01*
X183103845Y-88050499D01*
X183258497Y-88019737D01*
X183404179Y-87959394D01*
X183535289Y-87871789D01*
X183646789Y-87760289D01*
X183734394Y-87629179D01*
X183794737Y-87483497D01*
X183825500Y-87328842D01*
X183825500Y-87171158D01*
X183825500Y-87171155D01*
X183825499Y-87171153D01*
X183794738Y-87016510D01*
X183794737Y-87016503D01*
X183794735Y-87016498D01*
X183734397Y-86870827D01*
X183734390Y-86870814D01*
X183646789Y-86739711D01*
X183646786Y-86739707D01*
X183535292Y-86628213D01*
X183535288Y-86628210D01*
X183404185Y-86540609D01*
X183404172Y-86540602D01*
X183258501Y-86480264D01*
X183258489Y-86480261D01*
X183103845Y-86449500D01*
X183103842Y-86449500D01*
X182946158Y-86449500D01*
X182946155Y-86449500D01*
X182791510Y-86480261D01*
X182791498Y-86480264D01*
X182645827Y-86540602D01*
X182645814Y-86540609D01*
X182514711Y-86628210D01*
X182514707Y-86628213D01*
X182403213Y-86739707D01*
X182403210Y-86739711D01*
X182315609Y-86870814D01*
X182315602Y-86870827D01*
X182255264Y-87016498D01*
X182255261Y-87016510D01*
X182224500Y-87171153D01*
X152500000Y-87171153D01*
X152500000Y-83496153D01*
X164199500Y-83496153D01*
X164199500Y-83653846D01*
X164230261Y-83808489D01*
X164230264Y-83808501D01*
X164290602Y-83954172D01*
X164290609Y-83954185D01*
X164378210Y-84085288D01*
X164378213Y-84085292D01*
X164489707Y-84196786D01*
X164489711Y-84196789D01*
X164620814Y-84284390D01*
X164620827Y-84284397D01*
X164766498Y-84344735D01*
X164766503Y-84344737D01*
X164921153Y-84375499D01*
X164921156Y-84375500D01*
X164921158Y-84375500D01*
X165078844Y-84375500D01*
X165078845Y-84375499D01*
X165233497Y-84344737D01*
X165379179Y-84284394D01*
X165510289Y-84196789D01*
X165621789Y-84085289D01*
X165709394Y-83954179D01*
X165769737Y-83808497D01*
X165800500Y-83653842D01*
X165800500Y-83496158D01*
X165800500Y-83496155D01*
X165800499Y-83496153D01*
X172699500Y-83496153D01*
X172699500Y-83653846D01*
X172730261Y-83808489D01*
X172730264Y-83808501D01*
X172790602Y-83954172D01*
X172790609Y-83954185D01*
X172878210Y-84085288D01*
X172878213Y-84085292D01*
X172989707Y-84196786D01*
X172989711Y-84196789D01*
X173120814Y-84284390D01*
X173120827Y-84284397D01*
X173266498Y-84344735D01*
X173266503Y-84344737D01*
X173421153Y-84375499D01*
X173421156Y-84375500D01*
X173421158Y-84375500D01*
X173578844Y-84375500D01*
X173578845Y-84375499D01*
X173733497Y-84344737D01*
X173879179Y-84284394D01*
X174010289Y-84196789D01*
X174121789Y-84085289D01*
X174209394Y-83954179D01*
X174269737Y-83808497D01*
X174300500Y-83653842D01*
X174300500Y-83496158D01*
X174300500Y-83496155D01*
X174300499Y-83496153D01*
X175699500Y-83496153D01*
X175699500Y-83653846D01*
X175730261Y-83808489D01*
X175730264Y-83808501D01*
X175790602Y-83954172D01*
X175790609Y-83954185D01*
X175878210Y-84085288D01*
X175878213Y-84085292D01*
X175989707Y-84196786D01*
X175989711Y-84196789D01*
X176120814Y-84284390D01*
X176120827Y-84284397D01*
X176266498Y-84344735D01*
X176266503Y-84344737D01*
X176421153Y-84375499D01*
X176421156Y-84375500D01*
X176421158Y-84375500D01*
X176578844Y-84375500D01*
X176578845Y-84375499D01*
X176733497Y-84344737D01*
X176879179Y-84284394D01*
X177010289Y-84196789D01*
X177121789Y-84085289D01*
X177209394Y-83954179D01*
X177269737Y-83808497D01*
X177300500Y-83653842D01*
X177300500Y-83496158D01*
X177300500Y-83496155D01*
X177300499Y-83496153D01*
X180199500Y-83496153D01*
X180199500Y-83653846D01*
X180230261Y-83808489D01*
X180230264Y-83808501D01*
X180290602Y-83954172D01*
X180290609Y-83954185D01*
X180378210Y-84085288D01*
X180378213Y-84085292D01*
X180489707Y-84196786D01*
X180489711Y-84196789D01*
X180620814Y-84284390D01*
X180620827Y-84284397D01*
X180766498Y-84344735D01*
X180766503Y-84344737D01*
X180921153Y-84375499D01*
X180921156Y-84375500D01*
X180921158Y-84375500D01*
X181078844Y-84375500D01*
X181078845Y-84375499D01*
X181233497Y-84344737D01*
X181379179Y-84284394D01*
X181510289Y-84196789D01*
X181621789Y-84085289D01*
X181709394Y-83954179D01*
X181769737Y-83808497D01*
X181800500Y-83653842D01*
X181800500Y-83496158D01*
X181800500Y-83496155D01*
X181800499Y-83496153D01*
X181769738Y-83341510D01*
X181769737Y-83341503D01*
X181769735Y-83341498D01*
X181709397Y-83195827D01*
X181709390Y-83195814D01*
X181621789Y-83064711D01*
X181621786Y-83064707D01*
X181510292Y-82953213D01*
X181510288Y-82953210D01*
X181379185Y-82865609D01*
X181379172Y-82865602D01*
X181233501Y-82805264D01*
X181233489Y-82805261D01*
X181078845Y-82774500D01*
X181078842Y-82774500D01*
X180921158Y-82774500D01*
X180921155Y-82774500D01*
X180766510Y-82805261D01*
X180766498Y-82805264D01*
X180620827Y-82865602D01*
X180620814Y-82865609D01*
X180489711Y-82953210D01*
X180489707Y-82953213D01*
X180378213Y-83064707D01*
X180378210Y-83064711D01*
X180290609Y-83195814D01*
X180290602Y-83195827D01*
X180230264Y-83341498D01*
X180230261Y-83341510D01*
X180199500Y-83496153D01*
X177300499Y-83496153D01*
X177269738Y-83341510D01*
X177269737Y-83341503D01*
X177269735Y-83341498D01*
X177209397Y-83195827D01*
X177209390Y-83195814D01*
X177121789Y-83064711D01*
X177121786Y-83064707D01*
X177010292Y-82953213D01*
X177010288Y-82953210D01*
X176879185Y-82865609D01*
X176879172Y-82865602D01*
X176733501Y-82805264D01*
X176733489Y-82805261D01*
X176578845Y-82774500D01*
X176578842Y-82774500D01*
X176421158Y-82774500D01*
X176421155Y-82774500D01*
X176266510Y-82805261D01*
X176266498Y-82805264D01*
X176120827Y-82865602D01*
X176120814Y-82865609D01*
X175989711Y-82953210D01*
X175989707Y-82953213D01*
X175878213Y-83064707D01*
X175878210Y-83064711D01*
X175790609Y-83195814D01*
X175790602Y-83195827D01*
X175730264Y-83341498D01*
X175730261Y-83341510D01*
X175699500Y-83496153D01*
X174300499Y-83496153D01*
X174269738Y-83341510D01*
X174269737Y-83341503D01*
X174269735Y-83341498D01*
X174209397Y-83195827D01*
X174209390Y-83195814D01*
X174121789Y-83064711D01*
X174121786Y-83064707D01*
X174010292Y-82953213D01*
X174010288Y-82953210D01*
X173879185Y-82865609D01*
X173879172Y-82865602D01*
X173733501Y-82805264D01*
X173733489Y-82805261D01*
X173578845Y-82774500D01*
X173578842Y-82774500D01*
X173421158Y-82774500D01*
X173421155Y-82774500D01*
X173266510Y-82805261D01*
X173266498Y-82805264D01*
X173120827Y-82865602D01*
X173120814Y-82865609D01*
X172989711Y-82953210D01*
X172989707Y-82953213D01*
X172878213Y-83064707D01*
X172878210Y-83064711D01*
X172790609Y-83195814D01*
X172790602Y-83195827D01*
X172730264Y-83341498D01*
X172730261Y-83341510D01*
X172699500Y-83496153D01*
X165800499Y-83496153D01*
X165769738Y-83341510D01*
X165769737Y-83341503D01*
X165769735Y-83341498D01*
X165709397Y-83195827D01*
X165709390Y-83195814D01*
X165621789Y-83064711D01*
X165621786Y-83064707D01*
X165510292Y-82953213D01*
X165510288Y-82953210D01*
X165379185Y-82865609D01*
X165379172Y-82865602D01*
X165233501Y-82805264D01*
X165233489Y-82805261D01*
X165078845Y-82774500D01*
X165078842Y-82774500D01*
X164921158Y-82774500D01*
X164921155Y-82774500D01*
X164766510Y-82805261D01*
X164766498Y-82805264D01*
X164620827Y-82865602D01*
X164620814Y-82865609D01*
X164489711Y-82953210D01*
X164489707Y-82953213D01*
X164378213Y-83064707D01*
X164378210Y-83064711D01*
X164290609Y-83195814D01*
X164290602Y-83195827D01*
X164230264Y-83341498D01*
X164230261Y-83341510D01*
X164199500Y-83496153D01*
X152500000Y-83496153D01*
X152500000Y-82171153D01*
X184024500Y-82171153D01*
X184024500Y-82328846D01*
X184055261Y-82483489D01*
X184055264Y-82483501D01*
X184115602Y-82629172D01*
X184115609Y-82629185D01*
X184203210Y-82760288D01*
X184203213Y-82760292D01*
X184314707Y-82871786D01*
X184314711Y-82871789D01*
X184445814Y-82959390D01*
X184445827Y-82959397D01*
X184591498Y-83019735D01*
X184591503Y-83019737D01*
X184746153Y-83050499D01*
X184746156Y-83050500D01*
X184746158Y-83050500D01*
X184903844Y-83050500D01*
X184903845Y-83050499D01*
X185058497Y-83019737D01*
X185204179Y-82959394D01*
X185335289Y-82871789D01*
X185446789Y-82760289D01*
X185534394Y-82629179D01*
X185594737Y-82483497D01*
X185625500Y-82328842D01*
X185625500Y-82171158D01*
X185625500Y-82171155D01*
X185625499Y-82171153D01*
X185594738Y-82016510D01*
X185594737Y-82016503D01*
X185534794Y-81871786D01*
X185534397Y-81870827D01*
X185534390Y-81870814D01*
X185446789Y-81739711D01*
X185446786Y-81739707D01*
X185335292Y-81628213D01*
X185335288Y-81628210D01*
X185204185Y-81540609D01*
X185204172Y-81540602D01*
X185058501Y-81480264D01*
X185058489Y-81480261D01*
X184903845Y-81449500D01*
X184903842Y-81449500D01*
X184746158Y-81449500D01*
X184746155Y-81449500D01*
X184591510Y-81480261D01*
X184591498Y-81480264D01*
X184445827Y-81540602D01*
X184445814Y-81540609D01*
X184314711Y-81628210D01*
X184314707Y-81628213D01*
X184203213Y-81739707D01*
X184203210Y-81739711D01*
X184115609Y-81870814D01*
X184115602Y-81870827D01*
X184055264Y-82016498D01*
X184055261Y-82016510D01*
X184024500Y-82171153D01*
X152500000Y-82171153D01*
X152500000Y-81171153D01*
X161874500Y-81171153D01*
X161874500Y-81328846D01*
X161905261Y-81483489D01*
X161905264Y-81483501D01*
X161965602Y-81629172D01*
X161965609Y-81629185D01*
X162053210Y-81760288D01*
X162053213Y-81760292D01*
X162164707Y-81871786D01*
X162164711Y-81871789D01*
X162295814Y-81959390D01*
X162295827Y-81959397D01*
X162433683Y-82016498D01*
X162441503Y-82019737D01*
X162596153Y-82050499D01*
X162596156Y-82050500D01*
X162596158Y-82050500D01*
X162753844Y-82050500D01*
X162753845Y-82050499D01*
X162764179Y-82048443D01*
X162789287Y-82043450D01*
X162789292Y-82043449D01*
X162874800Y-82026439D01*
X162908497Y-82019737D01*
X163054179Y-81959394D01*
X163185289Y-81871789D01*
X163296789Y-81760289D01*
X163384394Y-81629179D01*
X163444737Y-81483497D01*
X163475500Y-81328842D01*
X163475500Y-81171158D01*
X163475500Y-81171155D01*
X163475499Y-81171153D01*
X163444738Y-81016510D01*
X163444737Y-81016503D01*
X163444735Y-81016498D01*
X163384397Y-80870827D01*
X163384390Y-80870814D01*
X163296789Y-80739711D01*
X163296786Y-80739707D01*
X163185292Y-80628213D01*
X163185288Y-80628210D01*
X163054185Y-80540609D01*
X163054172Y-80540602D01*
X162908501Y-80480264D01*
X162908489Y-80480261D01*
X162753845Y-80449500D01*
X162753842Y-80449500D01*
X162596158Y-80449500D01*
X162596155Y-80449500D01*
X162441510Y-80480261D01*
X162441498Y-80480264D01*
X162295827Y-80540602D01*
X162295814Y-80540609D01*
X162164711Y-80628210D01*
X162164707Y-80628213D01*
X162053213Y-80739707D01*
X162053210Y-80739711D01*
X161965609Y-80870814D01*
X161965602Y-80870827D01*
X161905264Y-81016498D01*
X161905261Y-81016510D01*
X161874500Y-81171153D01*
X152500000Y-81171153D01*
X152500000Y-78671153D01*
X183949500Y-78671153D01*
X183949500Y-78828846D01*
X183980261Y-78983489D01*
X183980264Y-78983501D01*
X184040602Y-79129172D01*
X184040609Y-79129185D01*
X184128210Y-79260288D01*
X184128213Y-79260292D01*
X184239707Y-79371786D01*
X184239711Y-79371789D01*
X184370814Y-79459390D01*
X184370827Y-79459397D01*
X184516498Y-79519735D01*
X184516503Y-79519737D01*
X184636827Y-79543671D01*
X184671153Y-79550499D01*
X184671156Y-79550500D01*
X184671158Y-79550500D01*
X184828844Y-79550500D01*
X184828845Y-79550499D01*
X184983497Y-79519737D01*
X185129179Y-79459394D01*
X185260289Y-79371789D01*
X185371789Y-79260289D01*
X185381147Y-79246283D01*
X185400194Y-79217779D01*
X185400194Y-79217778D01*
X185402431Y-79214428D01*
X185459394Y-79129179D01*
X185519737Y-78983497D01*
X185550500Y-78828842D01*
X185550500Y-78820000D01*
X191625138Y-78820000D01*
X192428012Y-78820000D01*
X192410795Y-78829940D01*
X192354940Y-78885795D01*
X192315444Y-78954204D01*
X192295000Y-79030504D01*
X192295000Y-79109496D01*
X192315444Y-79185796D01*
X192354940Y-79254205D01*
X192410795Y-79310060D01*
X192428012Y-79320000D01*
X191625138Y-79320000D01*
X191633430Y-79361690D01*
X191633430Y-79361692D01*
X191708807Y-79543671D01*
X191708814Y-79543684D01*
X191818248Y-79707462D01*
X191818251Y-79707466D01*
X191957533Y-79846748D01*
X191957537Y-79846751D01*
X192121315Y-79956185D01*
X192121328Y-79956192D01*
X192303306Y-80031569D01*
X192303318Y-80031572D01*
X192496504Y-80069999D01*
X192496508Y-80070000D01*
X192895000Y-80070000D01*
X192895000Y-79370000D01*
X193395000Y-79370000D01*
X193395000Y-80070000D01*
X193793492Y-80070000D01*
X193793495Y-80069999D01*
X193986681Y-80031572D01*
X193986693Y-80031569D01*
X194168671Y-79956192D01*
X194168684Y-79956185D01*
X194332462Y-79846751D01*
X194332466Y-79846748D01*
X194471748Y-79707466D01*
X194471751Y-79707462D01*
X194581185Y-79543684D01*
X194581192Y-79543671D01*
X194656569Y-79361692D01*
X194656569Y-79361690D01*
X194664862Y-79320000D01*
X193861988Y-79320000D01*
X193879205Y-79310060D01*
X193935060Y-79254205D01*
X193974556Y-79185796D01*
X193995000Y-79109496D01*
X193995000Y-79030504D01*
X193974556Y-78954204D01*
X193935060Y-78885795D01*
X193879205Y-78829940D01*
X193861988Y-78820000D01*
X194664862Y-78820000D01*
X194656569Y-78778309D01*
X194656569Y-78778307D01*
X194581192Y-78596328D01*
X194581185Y-78596315D01*
X194471751Y-78432537D01*
X194471748Y-78432533D01*
X194332466Y-78293251D01*
X194332462Y-78293248D01*
X194168684Y-78183814D01*
X194168674Y-78183809D01*
X194159157Y-78179867D01*
X194104754Y-78136026D01*
X194082689Y-78069731D01*
X194099969Y-78002032D01*
X194103648Y-77996597D01*
X194105512Y-77993367D01*
X194105515Y-77993365D01*
X194181281Y-77862135D01*
X194220500Y-77715766D01*
X194220500Y-77564234D01*
X194181281Y-77417865D01*
X194105515Y-77286635D01*
X193998365Y-77179485D01*
X193932750Y-77141602D01*
X193867136Y-77103719D01*
X193793950Y-77084109D01*
X193720766Y-77064500D01*
X193569234Y-77064500D01*
X193422863Y-77103719D01*
X193291635Y-77179485D01*
X193291632Y-77179487D01*
X193184487Y-77286632D01*
X193184485Y-77286635D01*
X193108719Y-77417863D01*
X193069500Y-77564234D01*
X193069500Y-77715765D01*
X193108719Y-77862136D01*
X193146602Y-77927750D01*
X193184485Y-77993365D01*
X193291635Y-78100515D01*
X193333000Y-78124397D01*
X193381216Y-78174964D01*
X193395000Y-78231784D01*
X193395000Y-78770000D01*
X192895000Y-78770000D01*
X192895000Y-78070000D01*
X192496504Y-78070000D01*
X192303318Y-78108427D01*
X192303306Y-78108430D01*
X192121328Y-78183807D01*
X192121315Y-78183814D01*
X191957537Y-78293248D01*
X191957533Y-78293251D01*
X191818251Y-78432533D01*
X191818248Y-78432537D01*
X191708814Y-78596315D01*
X191708807Y-78596328D01*
X191633430Y-78778307D01*
X191633430Y-78778309D01*
X191625138Y-78820000D01*
X185550500Y-78820000D01*
X185550500Y-78671158D01*
X185550500Y-78671155D01*
X185550499Y-78671153D01*
X185519738Y-78516510D01*
X185519737Y-78516503D01*
X185519735Y-78516498D01*
X185459397Y-78370827D01*
X185459390Y-78370814D01*
X185371789Y-78239711D01*
X185371786Y-78239707D01*
X185260292Y-78128213D01*
X185260288Y-78128210D01*
X185129185Y-78040609D01*
X185129172Y-78040602D01*
X184983501Y-77980264D01*
X184983489Y-77980261D01*
X184828845Y-77949500D01*
X184828842Y-77949500D01*
X184671158Y-77949500D01*
X184671155Y-77949500D01*
X184516510Y-77980261D01*
X184516498Y-77980264D01*
X184370827Y-78040602D01*
X184370814Y-78040609D01*
X184239711Y-78128210D01*
X184239707Y-78128213D01*
X184128213Y-78239707D01*
X184128210Y-78239711D01*
X184040609Y-78370814D01*
X184040602Y-78370827D01*
X183980264Y-78516498D01*
X183980261Y-78516510D01*
X183949500Y-78671153D01*
X152500000Y-78671153D01*
X152500000Y-74171153D01*
X161874500Y-74171153D01*
X161874500Y-74328846D01*
X161905261Y-74483489D01*
X161905264Y-74483501D01*
X161965602Y-74629172D01*
X161965609Y-74629185D01*
X162053210Y-74760288D01*
X162053213Y-74760292D01*
X162164707Y-74871786D01*
X162164711Y-74871789D01*
X162295814Y-74959390D01*
X162295827Y-74959397D01*
X162441498Y-75019735D01*
X162441503Y-75019737D01*
X162596153Y-75050499D01*
X162596156Y-75050500D01*
X162596158Y-75050500D01*
X162753844Y-75050500D01*
X162753845Y-75050499D01*
X162908497Y-75019737D01*
X163054179Y-74959394D01*
X163185289Y-74871789D01*
X163296789Y-74760289D01*
X163384394Y-74629179D01*
X163444737Y-74483497D01*
X163475500Y-74328842D01*
X163475500Y-74171158D01*
X163475500Y-74171155D01*
X163475499Y-74171153D01*
X163444738Y-74016510D01*
X163444737Y-74016503D01*
X163444735Y-74016498D01*
X163384397Y-73870827D01*
X163384390Y-73870814D01*
X163296789Y-73739711D01*
X163296786Y-73739707D01*
X163185292Y-73628213D01*
X163185288Y-73628210D01*
X163054185Y-73540609D01*
X163054172Y-73540602D01*
X162908501Y-73480264D01*
X162908489Y-73480261D01*
X162753845Y-73449500D01*
X162753842Y-73449500D01*
X162596158Y-73449500D01*
X162596155Y-73449500D01*
X162441510Y-73480261D01*
X162441498Y-73480264D01*
X162295827Y-73540602D01*
X162295814Y-73540609D01*
X162164711Y-73628210D01*
X162164707Y-73628213D01*
X162053213Y-73739707D01*
X162053210Y-73739711D01*
X161965609Y-73870814D01*
X161965602Y-73870827D01*
X161905264Y-74016498D01*
X161905261Y-74016510D01*
X161874500Y-74171153D01*
X152500000Y-74171153D01*
X152500000Y-70671153D01*
X183949500Y-70671153D01*
X183949500Y-70828846D01*
X183980261Y-70983489D01*
X183980264Y-70983501D01*
X184040602Y-71129172D01*
X184040609Y-71129185D01*
X184128210Y-71260288D01*
X184128213Y-71260292D01*
X184239707Y-71371786D01*
X184239711Y-71371789D01*
X184370814Y-71459390D01*
X184370827Y-71459397D01*
X184516498Y-71519735D01*
X184516503Y-71519737D01*
X184671153Y-71550499D01*
X184671156Y-71550500D01*
X184671158Y-71550500D01*
X184828844Y-71550500D01*
X184828845Y-71550499D01*
X184983497Y-71519737D01*
X185129179Y-71459394D01*
X185260289Y-71371789D01*
X185371789Y-71260289D01*
X185459394Y-71129179D01*
X185519737Y-70983497D01*
X185550500Y-70828842D01*
X185550500Y-70671158D01*
X185519737Y-70516503D01*
X185467547Y-70390504D01*
X185459397Y-70370827D01*
X185459395Y-70370823D01*
X185459394Y-70370821D01*
X185375854Y-70245795D01*
X185371792Y-70239715D01*
X185371786Y-70239707D01*
X185312079Y-70180000D01*
X191625138Y-70180000D01*
X192428012Y-70180000D01*
X192410795Y-70189940D01*
X192354940Y-70245795D01*
X192315444Y-70314204D01*
X192295000Y-70390504D01*
X192295000Y-70469496D01*
X192315444Y-70545796D01*
X192354940Y-70614205D01*
X192410795Y-70670060D01*
X192428012Y-70680000D01*
X191625138Y-70680000D01*
X191633430Y-70721690D01*
X191633430Y-70721692D01*
X191708807Y-70903671D01*
X191708814Y-70903684D01*
X191818248Y-71067462D01*
X191818251Y-71067466D01*
X191957533Y-71206748D01*
X191957537Y-71206751D01*
X192121315Y-71316185D01*
X192121328Y-71316192D01*
X192303306Y-71391569D01*
X192303318Y-71391572D01*
X192496504Y-71429999D01*
X192496508Y-71430000D01*
X192895000Y-71430000D01*
X192895000Y-70730000D01*
X193395000Y-70730000D01*
X193395000Y-71268215D01*
X193375315Y-71335254D01*
X193333002Y-71375601D01*
X193291638Y-71399483D01*
X193291632Y-71399487D01*
X193184487Y-71506632D01*
X193184485Y-71506635D01*
X193108719Y-71637863D01*
X193069500Y-71784234D01*
X193069500Y-71935765D01*
X193108719Y-72082136D01*
X193146602Y-72147750D01*
X193184485Y-72213365D01*
X193291635Y-72320515D01*
X193422865Y-72396281D01*
X193569234Y-72435500D01*
X193569236Y-72435500D01*
X193720764Y-72435500D01*
X193720766Y-72435500D01*
X193867135Y-72396281D01*
X193998365Y-72320515D01*
X194105515Y-72213365D01*
X194181281Y-72082135D01*
X194220500Y-71935766D01*
X194220500Y-71784234D01*
X194181281Y-71637865D01*
X194105515Y-71506635D01*
X194105513Y-71506633D01*
X194101451Y-71499597D01*
X194103654Y-71498325D01*
X194083041Y-71445022D01*
X194097073Y-71376576D01*
X194145882Y-71326582D01*
X194159163Y-71320129D01*
X194168682Y-71316186D01*
X194168684Y-71316185D01*
X194332462Y-71206751D01*
X194332466Y-71206748D01*
X194471748Y-71067466D01*
X194471751Y-71067462D01*
X194581185Y-70903684D01*
X194581192Y-70903671D01*
X194656569Y-70721692D01*
X194656569Y-70721690D01*
X194664862Y-70680000D01*
X193861988Y-70680000D01*
X193879205Y-70670060D01*
X193935060Y-70614205D01*
X193974556Y-70545796D01*
X193995000Y-70469496D01*
X193995000Y-70390504D01*
X193974556Y-70314204D01*
X193935060Y-70245795D01*
X193879205Y-70189940D01*
X193861988Y-70180000D01*
X194664862Y-70180000D01*
X194656569Y-70138309D01*
X194656569Y-70138307D01*
X194581192Y-69956328D01*
X194581185Y-69956315D01*
X194471751Y-69792537D01*
X194471748Y-69792533D01*
X194332466Y-69653251D01*
X194332462Y-69653248D01*
X194168684Y-69543814D01*
X194168671Y-69543807D01*
X193986693Y-69468430D01*
X193986681Y-69468427D01*
X193793495Y-69430000D01*
X193395000Y-69430000D01*
X193395000Y-70130000D01*
X192895000Y-70130000D01*
X192895000Y-69430000D01*
X192496504Y-69430000D01*
X192303318Y-69468427D01*
X192303306Y-69468430D01*
X192121328Y-69543807D01*
X192121315Y-69543814D01*
X191957537Y-69653248D01*
X191957533Y-69653251D01*
X191818251Y-69792533D01*
X191818248Y-69792537D01*
X191708814Y-69956315D01*
X191708807Y-69956328D01*
X191633430Y-70138307D01*
X191633430Y-70138309D01*
X191625138Y-70180000D01*
X185312079Y-70180000D01*
X185260292Y-70128213D01*
X185260288Y-70128210D01*
X185129185Y-70040609D01*
X185129172Y-70040602D01*
X184983501Y-69980264D01*
X184983489Y-69980261D01*
X184828845Y-69949500D01*
X184828842Y-69949500D01*
X184671158Y-69949500D01*
X184671155Y-69949500D01*
X184516510Y-69980261D01*
X184516498Y-69980264D01*
X184370827Y-70040602D01*
X184370814Y-70040609D01*
X184239711Y-70128210D01*
X184239707Y-70128213D01*
X184128213Y-70239707D01*
X184128210Y-70239711D01*
X184040609Y-70370814D01*
X184040602Y-70370827D01*
X183980264Y-70516498D01*
X183980261Y-70516510D01*
X183949500Y-70671153D01*
X152500000Y-70671153D01*
X152500000Y-67671153D01*
X161949500Y-67671153D01*
X161949500Y-67828846D01*
X161980261Y-67983489D01*
X161980264Y-67983501D01*
X162040602Y-68129172D01*
X162040609Y-68129185D01*
X162128210Y-68260288D01*
X162128213Y-68260292D01*
X162239707Y-68371786D01*
X162239711Y-68371789D01*
X162370814Y-68459390D01*
X162370827Y-68459397D01*
X162516498Y-68519735D01*
X162516503Y-68519737D01*
X162671153Y-68550499D01*
X162671156Y-68550500D01*
X162671158Y-68550500D01*
X162828844Y-68550500D01*
X162828845Y-68550499D01*
X162983497Y-68519737D01*
X163129179Y-68459394D01*
X163260289Y-68371789D01*
X163371789Y-68260289D01*
X163431348Y-68171153D01*
X183699500Y-68171153D01*
X183699500Y-68328846D01*
X183730261Y-68483489D01*
X183730264Y-68483501D01*
X183790602Y-68629172D01*
X183790609Y-68629185D01*
X183878210Y-68760288D01*
X183878213Y-68760292D01*
X183989707Y-68871786D01*
X183989711Y-68871789D01*
X184120814Y-68959390D01*
X184120827Y-68959397D01*
X184266498Y-69019735D01*
X184266503Y-69019737D01*
X184421153Y-69050499D01*
X184421156Y-69050500D01*
X184421158Y-69050500D01*
X184578844Y-69050500D01*
X184578845Y-69050499D01*
X184733497Y-69019737D01*
X184879179Y-68959394D01*
X185010289Y-68871789D01*
X185121789Y-68760289D01*
X185209394Y-68629179D01*
X185269737Y-68483497D01*
X185300500Y-68328842D01*
X185300500Y-68171158D01*
X185300500Y-68171155D01*
X185300499Y-68171153D01*
X185269738Y-68016510D01*
X185269737Y-68016503D01*
X185256062Y-67983489D01*
X185209397Y-67870827D01*
X185209390Y-67870814D01*
X185121789Y-67739711D01*
X185121786Y-67739707D01*
X185010292Y-67628213D01*
X185010288Y-67628210D01*
X184879185Y-67540609D01*
X184879172Y-67540602D01*
X184733501Y-67480264D01*
X184733489Y-67480261D01*
X184578845Y-67449500D01*
X184578842Y-67449500D01*
X184421158Y-67449500D01*
X184421155Y-67449500D01*
X184266510Y-67480261D01*
X184266498Y-67480264D01*
X184120827Y-67540602D01*
X184120814Y-67540609D01*
X183989711Y-67628210D01*
X183989707Y-67628213D01*
X183878213Y-67739707D01*
X183878210Y-67739711D01*
X183790609Y-67870814D01*
X183790602Y-67870827D01*
X183730264Y-68016498D01*
X183730261Y-68016510D01*
X183699500Y-68171153D01*
X163431348Y-68171153D01*
X163459394Y-68129179D01*
X163519737Y-67983497D01*
X163550500Y-67828842D01*
X163550500Y-67671158D01*
X163550500Y-67671155D01*
X163550499Y-67671153D01*
X163524531Y-67540606D01*
X163519737Y-67516503D01*
X163519735Y-67516498D01*
X163459397Y-67370827D01*
X163459390Y-67370814D01*
X163371789Y-67239711D01*
X163371786Y-67239707D01*
X163260292Y-67128213D01*
X163260288Y-67128210D01*
X163129185Y-67040609D01*
X163129172Y-67040602D01*
X162983501Y-66980264D01*
X162983489Y-66980261D01*
X162828845Y-66949500D01*
X162828842Y-66949500D01*
X162671158Y-66949500D01*
X162671155Y-66949500D01*
X162516510Y-66980261D01*
X162516498Y-66980264D01*
X162370827Y-67040602D01*
X162370814Y-67040609D01*
X162239711Y-67128210D01*
X162239707Y-67128213D01*
X162128213Y-67239707D01*
X162128210Y-67239711D01*
X162040609Y-67370814D01*
X162040602Y-67370827D01*
X161980264Y-67516498D01*
X161980261Y-67516510D01*
X161949500Y-67671153D01*
X152500000Y-67671153D01*
X152500000Y-65171153D01*
X161874500Y-65171153D01*
X161874500Y-65328846D01*
X161905261Y-65483489D01*
X161905264Y-65483501D01*
X161965602Y-65629172D01*
X161965609Y-65629185D01*
X162053210Y-65760288D01*
X162053213Y-65760292D01*
X162164707Y-65871786D01*
X162164711Y-65871789D01*
X162295814Y-65959390D01*
X162295827Y-65959397D01*
X162428756Y-66014457D01*
X162441503Y-66019737D01*
X162596153Y-66050499D01*
X162596156Y-66050500D01*
X162596158Y-66050500D01*
X162753844Y-66050500D01*
X162753845Y-66050499D01*
X162908497Y-66019737D01*
X163054179Y-65959394D01*
X163185289Y-65871789D01*
X163296789Y-65760289D01*
X163384394Y-65629179D01*
X163444737Y-65483497D01*
X163457138Y-65421153D01*
X179199500Y-65421153D01*
X179199500Y-65578846D01*
X179230261Y-65733489D01*
X179230264Y-65733501D01*
X179290602Y-65879172D01*
X179290609Y-65879185D01*
X179378210Y-66010288D01*
X179378213Y-66010292D01*
X179489707Y-66121786D01*
X179489711Y-66121789D01*
X179620814Y-66209390D01*
X179620827Y-66209397D01*
X179766498Y-66269735D01*
X179766503Y-66269737D01*
X179921153Y-66300499D01*
X179921156Y-66300500D01*
X179921158Y-66300500D01*
X180078844Y-66300500D01*
X180078845Y-66300499D01*
X180233497Y-66269737D01*
X180379179Y-66209394D01*
X180510289Y-66121789D01*
X180510292Y-66121786D01*
X180537319Y-66094760D01*
X180598642Y-66061275D01*
X180668334Y-66066259D01*
X180712681Y-66094760D01*
X180739707Y-66121786D01*
X180739711Y-66121789D01*
X180870814Y-66209390D01*
X180870827Y-66209397D01*
X181016498Y-66269735D01*
X181016503Y-66269737D01*
X181171153Y-66300499D01*
X181171156Y-66300500D01*
X181171158Y-66300500D01*
X181328844Y-66300500D01*
X181328845Y-66300499D01*
X181483497Y-66269737D01*
X181629179Y-66209394D01*
X181760289Y-66121789D01*
X181871789Y-66010289D01*
X181959394Y-65879179D01*
X182019737Y-65733497D01*
X182032138Y-65671153D01*
X190449500Y-65671153D01*
X190449500Y-65828846D01*
X190480261Y-65983489D01*
X190480264Y-65983501D01*
X190540602Y-66129172D01*
X190540609Y-66129185D01*
X190628210Y-66260288D01*
X190628213Y-66260292D01*
X190739707Y-66371786D01*
X190739711Y-66371789D01*
X190870814Y-66459390D01*
X190870827Y-66459397D01*
X190968853Y-66500000D01*
X191016503Y-66519737D01*
X191171153Y-66550499D01*
X191171156Y-66550500D01*
X191171158Y-66550500D01*
X191328844Y-66550500D01*
X191328845Y-66550499D01*
X191483497Y-66519737D01*
X191629179Y-66459394D01*
X191751558Y-66377622D01*
X191818234Y-66356745D01*
X191885614Y-66375229D01*
X191889338Y-66377622D01*
X191944737Y-66414638D01*
X191944745Y-66414642D01*
X192081232Y-66471177D01*
X192081240Y-66471179D01*
X192226126Y-66499999D01*
X192226129Y-66500000D01*
X192373871Y-66500000D01*
X192373873Y-66499999D01*
X192518760Y-66471179D01*
X192518775Y-66471175D01*
X192624024Y-66427578D01*
X192624024Y-66427577D01*
X193075975Y-66427577D01*
X193181236Y-66471178D01*
X193181240Y-66471179D01*
X193326126Y-66499999D01*
X193326129Y-66500000D01*
X193473871Y-66500000D01*
X193473873Y-66499999D01*
X193618760Y-66471179D01*
X193618775Y-66471175D01*
X193724024Y-66427578D01*
X193724024Y-66427577D01*
X193400001Y-66103554D01*
X193400000Y-66103554D01*
X193075975Y-66427577D01*
X192624024Y-66427577D01*
X192210904Y-66014457D01*
X192177419Y-65953134D01*
X192182403Y-65883442D01*
X192210904Y-65839094D01*
X192229288Y-65820709D01*
X192243355Y-65834776D01*
X192280109Y-65850000D01*
X192319891Y-65850000D01*
X192356645Y-65834776D01*
X192384776Y-65806645D01*
X192400000Y-65769891D01*
X192400000Y-65750000D01*
X192653554Y-65750000D01*
X192850000Y-65946446D01*
X193046446Y-65750000D01*
X193026555Y-65730109D01*
X193300000Y-65730109D01*
X193300000Y-65769891D01*
X193315224Y-65806645D01*
X193343355Y-65834776D01*
X193380109Y-65850000D01*
X193419891Y-65850000D01*
X193456645Y-65834776D01*
X193484776Y-65806645D01*
X193500000Y-65769891D01*
X193500000Y-65749999D01*
X193753554Y-65749999D01*
X193753554Y-65750001D01*
X194077577Y-66074024D01*
X194077578Y-66074024D01*
X194121175Y-65968775D01*
X194121179Y-65968760D01*
X194149999Y-65823873D01*
X194150000Y-65823871D01*
X194150000Y-65676128D01*
X194149999Y-65676126D01*
X194121179Y-65531240D01*
X194121178Y-65531236D01*
X194077577Y-65425975D01*
X193753554Y-65749999D01*
X193500000Y-65749999D01*
X193500000Y-65730109D01*
X193484776Y-65693355D01*
X193456645Y-65665224D01*
X193419891Y-65650000D01*
X193380109Y-65650000D01*
X193343355Y-65665224D01*
X193315224Y-65693355D01*
X193300000Y-65730109D01*
X193026555Y-65730109D01*
X192850000Y-65553554D01*
X192653554Y-65750000D01*
X192400000Y-65750000D01*
X192400000Y-65730109D01*
X192384776Y-65693355D01*
X192356645Y-65665224D01*
X192319891Y-65650000D01*
X192280109Y-65650000D01*
X192243355Y-65665224D01*
X192229289Y-65679289D01*
X192210904Y-65660904D01*
X192177419Y-65599581D01*
X192182403Y-65529889D01*
X192210904Y-65485542D01*
X192624024Y-65072421D01*
X192624022Y-65072420D01*
X193075974Y-65072420D01*
X193075974Y-65072421D01*
X193400000Y-65396446D01*
X193400001Y-65396446D01*
X193724024Y-65072421D01*
X193618767Y-65028822D01*
X193618759Y-65028820D01*
X193473872Y-65000000D01*
X193326128Y-65000000D01*
X193181240Y-65028820D01*
X193181228Y-65028823D01*
X193075974Y-65072420D01*
X192624022Y-65072420D01*
X192518767Y-65028822D01*
X192518759Y-65028820D01*
X192373872Y-65000000D01*
X192226128Y-65000000D01*
X192081240Y-65028820D01*
X192081232Y-65028822D01*
X191944745Y-65085357D01*
X191944732Y-65085364D01*
X191889337Y-65122377D01*
X191822659Y-65143254D01*
X191755279Y-65124768D01*
X191751557Y-65122376D01*
X191629185Y-65040609D01*
X191629172Y-65040602D01*
X191483501Y-64980264D01*
X191483489Y-64980261D01*
X191328845Y-64949500D01*
X191328842Y-64949500D01*
X191171158Y-64949500D01*
X191171155Y-64949500D01*
X191016510Y-64980261D01*
X191016498Y-64980264D01*
X190870827Y-65040602D01*
X190870814Y-65040609D01*
X190739711Y-65128210D01*
X190739707Y-65128213D01*
X190628213Y-65239707D01*
X190628210Y-65239711D01*
X190540609Y-65370814D01*
X190540602Y-65370827D01*
X190480264Y-65516498D01*
X190480261Y-65516510D01*
X190449500Y-65671153D01*
X182032138Y-65671153D01*
X182046375Y-65599581D01*
X182050500Y-65578844D01*
X182050500Y-65421155D01*
X182050499Y-65421153D01*
X182019738Y-65266510D01*
X182019737Y-65266503D01*
X182019735Y-65266498D01*
X181959397Y-65120827D01*
X181959395Y-65120823D01*
X181959394Y-65120821D01*
X181959389Y-65120814D01*
X181928956Y-65075267D01*
X181908078Y-65008590D01*
X181926562Y-64941210D01*
X181963167Y-64903274D01*
X182010289Y-64871789D01*
X182121789Y-64760289D01*
X182209394Y-64629179D01*
X182269737Y-64483497D01*
X182300500Y-64328842D01*
X182300500Y-64171158D01*
X182300500Y-64171155D01*
X182300499Y-64171153D01*
X182274056Y-64038216D01*
X182269737Y-64016503D01*
X182222015Y-63901290D01*
X182209397Y-63870827D01*
X182209390Y-63870814D01*
X182121789Y-63739711D01*
X182121786Y-63739707D01*
X182010292Y-63628213D01*
X182010288Y-63628210D01*
X181879185Y-63540609D01*
X181879172Y-63540602D01*
X181733501Y-63480264D01*
X181733489Y-63480261D01*
X181578845Y-63449500D01*
X181578842Y-63449500D01*
X181421158Y-63449500D01*
X181421155Y-63449500D01*
X181266510Y-63480261D01*
X181266498Y-63480264D01*
X181120827Y-63540602D01*
X181120814Y-63540609D01*
X180989711Y-63628210D01*
X180989707Y-63628213D01*
X180878213Y-63739707D01*
X180878210Y-63739711D01*
X180790609Y-63870814D01*
X180790602Y-63870827D01*
X180730264Y-64016498D01*
X180730261Y-64016510D01*
X180699500Y-64171153D01*
X180699500Y-64328846D01*
X180730261Y-64483489D01*
X180730264Y-64483501D01*
X180790602Y-64629172D01*
X180790609Y-64629185D01*
X180821043Y-64674732D01*
X180822188Y-64678391D01*
X180824979Y-64681022D01*
X180832547Y-64711473D01*
X180841921Y-64741409D01*
X180840906Y-64745106D01*
X180841832Y-64748829D01*
X180831736Y-64778535D01*
X180823437Y-64808790D01*
X180820225Y-64812407D01*
X180819350Y-64814983D01*
X180808762Y-64825318D01*
X180795138Y-64840663D01*
X180791110Y-64843866D01*
X180739711Y-64878211D01*
X180707703Y-64910218D01*
X180702197Y-64914599D01*
X180676087Y-64925221D01*
X180651358Y-64938725D01*
X180644162Y-64938210D01*
X180637478Y-64940930D01*
X180609774Y-64935751D01*
X180581666Y-64933741D01*
X180574546Y-64929165D01*
X180568798Y-64928091D01*
X180560069Y-64919861D01*
X180537319Y-64905240D01*
X180510292Y-64878213D01*
X180510288Y-64878210D01*
X180379185Y-64790609D01*
X180379172Y-64790602D01*
X180233501Y-64730264D01*
X180233489Y-64730261D01*
X180078845Y-64699500D01*
X180078842Y-64699500D01*
X179921158Y-64699500D01*
X179921155Y-64699500D01*
X179766510Y-64730261D01*
X179766498Y-64730264D01*
X179620827Y-64790602D01*
X179620814Y-64790609D01*
X179489711Y-64878210D01*
X179489707Y-64878213D01*
X179378213Y-64989707D01*
X179378210Y-64989711D01*
X179290609Y-65120814D01*
X179290602Y-65120827D01*
X179230264Y-65266498D01*
X179230261Y-65266510D01*
X179199500Y-65421153D01*
X163457138Y-65421153D01*
X163467151Y-65370814D01*
X163475500Y-65328844D01*
X163475500Y-65171155D01*
X163475499Y-65171153D01*
X163444737Y-65016503D01*
X163435630Y-64994516D01*
X163384397Y-64870827D01*
X163384390Y-64870814D01*
X163296789Y-64739711D01*
X163296786Y-64739707D01*
X163185292Y-64628213D01*
X163185288Y-64628210D01*
X163054185Y-64540609D01*
X163054172Y-64540602D01*
X162908501Y-64480264D01*
X162908489Y-64480261D01*
X162753845Y-64449500D01*
X162753842Y-64449500D01*
X162596158Y-64449500D01*
X162596155Y-64449500D01*
X162441510Y-64480261D01*
X162441498Y-64480264D01*
X162295827Y-64540602D01*
X162295814Y-64540609D01*
X162164711Y-64628210D01*
X162164707Y-64628213D01*
X162053213Y-64739707D01*
X162053210Y-64739711D01*
X161965609Y-64870814D01*
X161965602Y-64870827D01*
X161905264Y-65016498D01*
X161905261Y-65016510D01*
X161874500Y-65171153D01*
X152500000Y-65171153D01*
X152500000Y-61346153D01*
X162699500Y-61346153D01*
X162699500Y-61503846D01*
X162730261Y-61658489D01*
X162730264Y-61658501D01*
X162790602Y-61804172D01*
X162790609Y-61804185D01*
X162878210Y-61935288D01*
X162878213Y-61935292D01*
X162989707Y-62046786D01*
X162989711Y-62046789D01*
X163120814Y-62134390D01*
X163120827Y-62134397D01*
X163266498Y-62194735D01*
X163266503Y-62194737D01*
X163421153Y-62225499D01*
X163421156Y-62225500D01*
X163421158Y-62225500D01*
X163578844Y-62225500D01*
X163578845Y-62225499D01*
X163733497Y-62194737D01*
X163879179Y-62134394D01*
X164010289Y-62046789D01*
X164121789Y-61935289D01*
X164209394Y-61804179D01*
X164269737Y-61658497D01*
X164300500Y-61503842D01*
X164300500Y-61346158D01*
X164300500Y-61346155D01*
X164300499Y-61346153D01*
X169699500Y-61346153D01*
X169699500Y-61503846D01*
X169730261Y-61658489D01*
X169730264Y-61658501D01*
X169790602Y-61804172D01*
X169790609Y-61804185D01*
X169878210Y-61935288D01*
X169878213Y-61935292D01*
X169989707Y-62046786D01*
X169989711Y-62046789D01*
X170120814Y-62134390D01*
X170120827Y-62134397D01*
X170266498Y-62194735D01*
X170266503Y-62194737D01*
X170421153Y-62225499D01*
X170421156Y-62225500D01*
X170421158Y-62225500D01*
X170578844Y-62225500D01*
X170578845Y-62225499D01*
X170733497Y-62194737D01*
X170879179Y-62134394D01*
X171010289Y-62046789D01*
X171121789Y-61935289D01*
X171209394Y-61804179D01*
X171269737Y-61658497D01*
X171300500Y-61503842D01*
X171300500Y-61346158D01*
X171300500Y-61346155D01*
X171300499Y-61346153D01*
X173699500Y-61346153D01*
X173699500Y-61503846D01*
X173730261Y-61658489D01*
X173730264Y-61658501D01*
X173790602Y-61804172D01*
X173790609Y-61804185D01*
X173878210Y-61935288D01*
X173878213Y-61935292D01*
X173989707Y-62046786D01*
X173989711Y-62046789D01*
X174120814Y-62134390D01*
X174120827Y-62134397D01*
X174266498Y-62194735D01*
X174266503Y-62194737D01*
X174421153Y-62225499D01*
X174421156Y-62225500D01*
X174421158Y-62225500D01*
X174578844Y-62225500D01*
X174578845Y-62225499D01*
X174733497Y-62194737D01*
X174879179Y-62134394D01*
X175010289Y-62046789D01*
X175121789Y-61935289D01*
X175198052Y-61821153D01*
X178599500Y-61821153D01*
X178599500Y-61978846D01*
X178630261Y-62133489D01*
X178630264Y-62133501D01*
X178690602Y-62279172D01*
X178690609Y-62279185D01*
X178778210Y-62410288D01*
X178778213Y-62410292D01*
X178889707Y-62521786D01*
X178889711Y-62521789D01*
X179020814Y-62609390D01*
X179020827Y-62609397D01*
X179166498Y-62669735D01*
X179166503Y-62669737D01*
X179251108Y-62686566D01*
X179321153Y-62700499D01*
X179321156Y-62700500D01*
X179321158Y-62700500D01*
X179478844Y-62700500D01*
X179478845Y-62700499D01*
X179626378Y-62671153D01*
X182449500Y-62671153D01*
X182449500Y-62828846D01*
X182480261Y-62983489D01*
X182480264Y-62983501D01*
X182540602Y-63129172D01*
X182540609Y-63129185D01*
X182628210Y-63260288D01*
X182628213Y-63260292D01*
X182739707Y-63371786D01*
X182739711Y-63371789D01*
X182870814Y-63459390D01*
X182870827Y-63459397D01*
X183016498Y-63519735D01*
X183016503Y-63519737D01*
X183170680Y-63550405D01*
X183171153Y-63550499D01*
X183171156Y-63550500D01*
X183171158Y-63550500D01*
X183328841Y-63550500D01*
X183328842Y-63550500D01*
X183328842Y-63550499D01*
X183329806Y-63550405D01*
X183330307Y-63550500D01*
X183334934Y-63550500D01*
X183334934Y-63551377D01*
X183398452Y-63563424D01*
X183449162Y-63611489D01*
X183463577Y-63649616D01*
X183480261Y-63733491D01*
X183480264Y-63733501D01*
X183540602Y-63879172D01*
X183540609Y-63879185D01*
X183628210Y-64010288D01*
X183628213Y-64010292D01*
X183739707Y-64121786D01*
X183739711Y-64121789D01*
X183870814Y-64209390D01*
X183870827Y-64209397D01*
X184016498Y-64269735D01*
X184016503Y-64269737D01*
X184171153Y-64300499D01*
X184171156Y-64300500D01*
X184171158Y-64300500D01*
X184328844Y-64300500D01*
X184328845Y-64300499D01*
X184483497Y-64269737D01*
X184629179Y-64209394D01*
X184760289Y-64121789D01*
X184871789Y-64010289D01*
X184959394Y-63879179D01*
X184962854Y-63870827D01*
X184996548Y-63789480D01*
X185019737Y-63733497D01*
X185050500Y-63578842D01*
X185050500Y-63421158D01*
X185050500Y-63421155D01*
X185050499Y-63421153D01*
X185040069Y-63368717D01*
X185019737Y-63266503D01*
X185005356Y-63231783D01*
X184959397Y-63120827D01*
X184959390Y-63120814D01*
X184871789Y-62989711D01*
X184871786Y-62989707D01*
X184760292Y-62878213D01*
X184760288Y-62878210D01*
X184629185Y-62790609D01*
X184629172Y-62790602D01*
X184483501Y-62730264D01*
X184483489Y-62730261D01*
X184328845Y-62699500D01*
X184328842Y-62699500D01*
X184171158Y-62699500D01*
X184171150Y-62699500D01*
X184170174Y-62699596D01*
X184169668Y-62699500D01*
X184165066Y-62699500D01*
X184165066Y-62698626D01*
X184101530Y-62686566D01*
X184050827Y-62638494D01*
X184036422Y-62600382D01*
X184020329Y-62519480D01*
X184019737Y-62516503D01*
X183988224Y-62440423D01*
X183959397Y-62370827D01*
X183959390Y-62370814D01*
X183871789Y-62239711D01*
X183871786Y-62239707D01*
X183760292Y-62128213D01*
X183760288Y-62128210D01*
X183629185Y-62040609D01*
X183629172Y-62040602D01*
X183483501Y-61980264D01*
X183483489Y-61980261D01*
X183328845Y-61949500D01*
X183328842Y-61949500D01*
X183171158Y-61949500D01*
X183171155Y-61949500D01*
X183016510Y-61980261D01*
X183016498Y-61980264D01*
X182870827Y-62040602D01*
X182870814Y-62040609D01*
X182739711Y-62128210D01*
X182739707Y-62128213D01*
X182628213Y-62239707D01*
X182628210Y-62239711D01*
X182540609Y-62370814D01*
X182540602Y-62370827D01*
X182480264Y-62516498D01*
X182480261Y-62516510D01*
X182449500Y-62671153D01*
X179626378Y-62671153D01*
X179633497Y-62669737D01*
X179779179Y-62609394D01*
X179779185Y-62609390D01*
X179850164Y-62561964D01*
X179881224Y-62541209D01*
X179910289Y-62521789D01*
X180021789Y-62410289D01*
X180109394Y-62279179D01*
X180169737Y-62133497D01*
X180200500Y-61978842D01*
X180200500Y-61821158D01*
X180200500Y-61821155D01*
X180200499Y-61821153D01*
X180174264Y-61689257D01*
X180170662Y-61671153D01*
X193699500Y-61671153D01*
X193699500Y-61828846D01*
X193730261Y-61983489D01*
X193730264Y-61983501D01*
X193790602Y-62129172D01*
X193790609Y-62129185D01*
X193878210Y-62260288D01*
X193878213Y-62260292D01*
X193989707Y-62371786D01*
X193989711Y-62371789D01*
X194120814Y-62459390D01*
X194120827Y-62459397D01*
X194265885Y-62519481D01*
X194266503Y-62519737D01*
X194421153Y-62550499D01*
X194421156Y-62550500D01*
X194421158Y-62550500D01*
X194578844Y-62550500D01*
X194578845Y-62550499D01*
X194733497Y-62519737D01*
X194879179Y-62459394D01*
X195010289Y-62371789D01*
X195121789Y-62260289D01*
X195209394Y-62129179D01*
X195269737Y-61983497D01*
X195300500Y-61828842D01*
X195300500Y-61671158D01*
X195300500Y-61671155D01*
X195300499Y-61671153D01*
X195270596Y-61520821D01*
X195269737Y-61516503D01*
X195262162Y-61498216D01*
X195209397Y-61370827D01*
X195209390Y-61370814D01*
X195121789Y-61239711D01*
X195121786Y-61239707D01*
X195010292Y-61128213D01*
X195010288Y-61128210D01*
X194879185Y-61040609D01*
X194879172Y-61040602D01*
X194733501Y-60980264D01*
X194733489Y-60980261D01*
X194578845Y-60949500D01*
X194578842Y-60949500D01*
X194421158Y-60949500D01*
X194421155Y-60949500D01*
X194266510Y-60980261D01*
X194266498Y-60980264D01*
X194120827Y-61040602D01*
X194120814Y-61040609D01*
X193989711Y-61128210D01*
X193989707Y-61128213D01*
X193878213Y-61239707D01*
X193878210Y-61239711D01*
X193790609Y-61370814D01*
X193790602Y-61370827D01*
X193730264Y-61516498D01*
X193730261Y-61516510D01*
X193699500Y-61671153D01*
X180170662Y-61671153D01*
X180169738Y-61666507D01*
X180169735Y-61666498D01*
X180109397Y-61520827D01*
X180109390Y-61520814D01*
X180021789Y-61389711D01*
X180021786Y-61389707D01*
X179910292Y-61278213D01*
X179910288Y-61278210D01*
X179779185Y-61190609D01*
X179779172Y-61190602D01*
X179633501Y-61130264D01*
X179633489Y-61130261D01*
X179478845Y-61099500D01*
X179478842Y-61099500D01*
X179321158Y-61099500D01*
X179321155Y-61099500D01*
X179166510Y-61130261D01*
X179166498Y-61130264D01*
X179020827Y-61190602D01*
X179020814Y-61190609D01*
X178889711Y-61278210D01*
X178889707Y-61278213D01*
X178778213Y-61389707D01*
X178778210Y-61389711D01*
X178690609Y-61520814D01*
X178690602Y-61520827D01*
X178630264Y-61666498D01*
X178630261Y-61666510D01*
X178599500Y-61821153D01*
X175198052Y-61821153D01*
X175209394Y-61804179D01*
X175269737Y-61658497D01*
X175300500Y-61503842D01*
X175300500Y-61346158D01*
X175300500Y-61346155D01*
X175300499Y-61346153D01*
X175286984Y-61278210D01*
X175269737Y-61191503D01*
X175269367Y-61190609D01*
X175209397Y-61045827D01*
X175209390Y-61045814D01*
X175121789Y-60914711D01*
X175121786Y-60914707D01*
X175010292Y-60803213D01*
X175010288Y-60803210D01*
X174879185Y-60715609D01*
X174879172Y-60715602D01*
X174733501Y-60655264D01*
X174733489Y-60655261D01*
X174578845Y-60624500D01*
X174578842Y-60624500D01*
X174421158Y-60624500D01*
X174421155Y-60624500D01*
X174266510Y-60655261D01*
X174266498Y-60655264D01*
X174120827Y-60715602D01*
X174120814Y-60715609D01*
X173989711Y-60803210D01*
X173989707Y-60803213D01*
X173878213Y-60914707D01*
X173878210Y-60914711D01*
X173790609Y-61045814D01*
X173790602Y-61045827D01*
X173730264Y-61191498D01*
X173730261Y-61191510D01*
X173699500Y-61346153D01*
X171300499Y-61346153D01*
X171286984Y-61278210D01*
X171269737Y-61191503D01*
X171269367Y-61190609D01*
X171209397Y-61045827D01*
X171209390Y-61045814D01*
X171121789Y-60914711D01*
X171121786Y-60914707D01*
X171010292Y-60803213D01*
X171010288Y-60803210D01*
X170879185Y-60715609D01*
X170879172Y-60715602D01*
X170733501Y-60655264D01*
X170733489Y-60655261D01*
X170578845Y-60624500D01*
X170578842Y-60624500D01*
X170421158Y-60624500D01*
X170421155Y-60624500D01*
X170266510Y-60655261D01*
X170266498Y-60655264D01*
X170120827Y-60715602D01*
X170120814Y-60715609D01*
X169989711Y-60803210D01*
X169989707Y-60803213D01*
X169878213Y-60914707D01*
X169878210Y-60914711D01*
X169790609Y-61045814D01*
X169790602Y-61045827D01*
X169730264Y-61191498D01*
X169730261Y-61191510D01*
X169699500Y-61346153D01*
X164300499Y-61346153D01*
X164286984Y-61278210D01*
X164269737Y-61191503D01*
X164269367Y-61190609D01*
X164209397Y-61045827D01*
X164209390Y-61045814D01*
X164121789Y-60914711D01*
X164121786Y-60914707D01*
X164010292Y-60803213D01*
X164010288Y-60803210D01*
X163879185Y-60715609D01*
X163879172Y-60715602D01*
X163733501Y-60655264D01*
X163733489Y-60655261D01*
X163578845Y-60624500D01*
X163578842Y-60624500D01*
X163421158Y-60624500D01*
X163421155Y-60624500D01*
X163266510Y-60655261D01*
X163266498Y-60655264D01*
X163120827Y-60715602D01*
X163120814Y-60715609D01*
X162989711Y-60803210D01*
X162989707Y-60803213D01*
X162878213Y-60914707D01*
X162878210Y-60914711D01*
X162790609Y-61045814D01*
X162790602Y-61045827D01*
X162730264Y-61191498D01*
X162730261Y-61191510D01*
X162699500Y-61346153D01*
X152500000Y-61346153D01*
X152500000Y-60051361D01*
X152519685Y-59984322D01*
X152536314Y-59963685D01*
X154963180Y-57536818D01*
X155024503Y-57503334D01*
X155050861Y-57500500D01*
X155140428Y-57500500D01*
X155140429Y-57500499D01*
X155283055Y-57484429D01*
X155419494Y-57469057D01*
X155419499Y-57469056D01*
X155419509Y-57469055D01*
X155693318Y-57406560D01*
X155958408Y-57313801D01*
X156211445Y-57191945D01*
X156449248Y-57042523D01*
X156668825Y-56867416D01*
X156867416Y-56668825D01*
X157042523Y-56449248D01*
X157191945Y-56211445D01*
X157313801Y-55958408D01*
X157326837Y-55921153D01*
X179199500Y-55921153D01*
X179199500Y-56078846D01*
X179230261Y-56233489D01*
X179230264Y-56233501D01*
X179290602Y-56379172D01*
X179290609Y-56379185D01*
X179378210Y-56510288D01*
X179378213Y-56510292D01*
X179489707Y-56621786D01*
X179489711Y-56621789D01*
X179620814Y-56709390D01*
X179620827Y-56709397D01*
X179766498Y-56769735D01*
X179766503Y-56769737D01*
X179921153Y-56800499D01*
X179921156Y-56800500D01*
X179921158Y-56800500D01*
X180078844Y-56800500D01*
X180078845Y-56800499D01*
X180233497Y-56769737D01*
X180379179Y-56709394D01*
X180510289Y-56621789D01*
X180621789Y-56510289D01*
X180709394Y-56379179D01*
X180769737Y-56233497D01*
X180800500Y-56078842D01*
X180800500Y-55921158D01*
X180800500Y-55921155D01*
X180800499Y-55921153D01*
X180769738Y-55766510D01*
X180769737Y-55766503D01*
X180739423Y-55693317D01*
X180709397Y-55620827D01*
X180709390Y-55620814D01*
X180621789Y-55489711D01*
X180621786Y-55489707D01*
X180510292Y-55378213D01*
X180510288Y-55378210D01*
X180379185Y-55290609D01*
X180379172Y-55290602D01*
X180233501Y-55230264D01*
X180233489Y-55230261D01*
X180078845Y-55199500D01*
X180078842Y-55199500D01*
X179921158Y-55199500D01*
X179921155Y-55199500D01*
X179766510Y-55230261D01*
X179766498Y-55230264D01*
X179620827Y-55290602D01*
X179620814Y-55290609D01*
X179489711Y-55378210D01*
X179489707Y-55378213D01*
X179378213Y-55489707D01*
X179378210Y-55489711D01*
X179290609Y-55620814D01*
X179290602Y-55620827D01*
X179230264Y-55766498D01*
X179230261Y-55766510D01*
X179199500Y-55921153D01*
X157326837Y-55921153D01*
X157406560Y-55693318D01*
X157469055Y-55419509D01*
X157500500Y-55140425D01*
X157500500Y-55050861D01*
X157520185Y-54983822D01*
X157536819Y-54963180D01*
X158178846Y-54321153D01*
X170199500Y-54321153D01*
X170199500Y-54478846D01*
X170230261Y-54633489D01*
X170230264Y-54633501D01*
X170290602Y-54779172D01*
X170290609Y-54779185D01*
X170378210Y-54910288D01*
X170378213Y-54910292D01*
X170489707Y-55021786D01*
X170489711Y-55021789D01*
X170620814Y-55109390D01*
X170620827Y-55109397D01*
X170766498Y-55169735D01*
X170766503Y-55169737D01*
X170916131Y-55199500D01*
X170921153Y-55200499D01*
X170921156Y-55200500D01*
X170921158Y-55200500D01*
X171078844Y-55200500D01*
X171078845Y-55200499D01*
X171233497Y-55169737D01*
X171379179Y-55109394D01*
X171510289Y-55021789D01*
X171621789Y-54910289D01*
X171709394Y-54779179D01*
X171769737Y-54633497D01*
X171800500Y-54478842D01*
X171800500Y-54321158D01*
X171800500Y-54321155D01*
X171800499Y-54321153D01*
X171800080Y-54319047D01*
X171769737Y-54166503D01*
X171711603Y-54026153D01*
X171709397Y-54020827D01*
X171709390Y-54020814D01*
X171621789Y-53889711D01*
X171621786Y-53889707D01*
X171510292Y-53778213D01*
X171510288Y-53778210D01*
X171379185Y-53690609D01*
X171379172Y-53690602D01*
X171233501Y-53630264D01*
X171233489Y-53630261D01*
X171078845Y-53599500D01*
X171078842Y-53599500D01*
X170921158Y-53599500D01*
X170921155Y-53599500D01*
X170766510Y-53630261D01*
X170766498Y-53630264D01*
X170620827Y-53690602D01*
X170620814Y-53690609D01*
X170489711Y-53778210D01*
X170489707Y-53778213D01*
X170378213Y-53889707D01*
X170378210Y-53889711D01*
X170290609Y-54020814D01*
X170290602Y-54020827D01*
X170230264Y-54166498D01*
X170230261Y-54166510D01*
X170199500Y-54321153D01*
X158178846Y-54321153D01*
X158272614Y-54227385D01*
X158479173Y-54020827D01*
X159963681Y-52536319D01*
X160025004Y-52502834D01*
X160051362Y-52500000D01*
X189948638Y-52500000D01*
X190015677Y-52519685D01*
G37*
%TD.AperFunction*%
%TD*%
M02*
