%TF.GenerationSoftware,KiCad,Pcbnew,9.0.1-9.0.1-0~ubuntu24.04.1*%
%TF.CreationDate,2025-06-01T18:05:04-05:00*%
%TF.ProjectId,FC,46432e6b-6963-4616-945f-706362585858,rev?*%
%TF.SameCoordinates,Original*%
%TF.FileFunction,Copper,L3,Inr*%
%TF.FilePolarity,Positive*%
%FSLAX46Y46*%
G04 Gerber Fmt 4.6, Leading zero omitted, Abs format (unit mm)*
G04 Created by KiCad (PCBNEW 9.0.1-9.0.1-0~ubuntu24.04.1) date 2025-06-01 18:05:04*
%MOMM*%
%LPD*%
G01*
G04 APERTURE LIST*
%TA.AperFunction,HeatsinkPad*%
%ADD10C,0.500000*%
%TD*%
%TA.AperFunction,HeatsinkPad*%
%ADD11O,2.100000X1.000000*%
%TD*%
%TA.AperFunction,HeatsinkPad*%
%ADD12O,1.800000X1.000000*%
%TD*%
%TA.AperFunction,ViaPad*%
%ADD13C,0.600000*%
%TD*%
%TA.AperFunction,Conductor*%
%ADD14C,0.200000*%
%TD*%
G04 APERTURE END LIST*
D10*
%TO.N,GND*%
%TO.C,U1*%
X192300000Y-65750000D03*
X193400000Y-65750000D03*
%TD*%
D11*
%TO.N,GND*%
%TO.C,J1*%
X193145000Y-79070000D03*
D12*
X197325000Y-79070000D03*
D11*
X193145000Y-70430000D03*
D12*
X197325000Y-70430000D03*
%TD*%
D13*
%TO.N,+3.3V*%
X183025000Y-87250000D03*
%TO.N,GND*%
X181475000Y-87250000D03*
X164250000Y-67750000D03*
%TO.N,+3.3V*%
X162750000Y-67750000D03*
X174500000Y-61425000D03*
%TO.N,GND*%
X175500000Y-62175000D03*
%TO.N,+3.3V*%
X170500000Y-61425000D03*
%TO.N,GND*%
X171500000Y-62175000D03*
%TO.N,+3.3V*%
X163500000Y-61425000D03*
%TO.N,GND*%
X164500000Y-62175000D03*
%TO.N,+3.3V*%
X162675000Y-65250000D03*
%TO.N,GND*%
X163425000Y-64250000D03*
%TO.N,+3.3V*%
X162675000Y-74250000D03*
%TO.N,GND*%
X163425000Y-73250000D03*
%TO.N,+3.3V*%
X162675000Y-81250000D03*
%TO.N,GND*%
X163425000Y-80250000D03*
%TO.N,+3.3V*%
X165000000Y-83575000D03*
%TO.N,GND*%
X164000000Y-82825000D03*
%TO.N,+3.3V*%
X173500000Y-83575000D03*
%TO.N,GND*%
X172500000Y-82825000D03*
X175500000Y-82825000D03*
%TO.N,+3.3V*%
X176500000Y-83575000D03*
X181000000Y-83575000D03*
%TO.N,GND*%
X182000000Y-82825000D03*
%TO.N,+3.3V*%
X184825000Y-82250000D03*
%TO.N,GND*%
X184075000Y-81250000D03*
%TO.N,+3.3V*%
X184750000Y-78750000D03*
%TO.N,GND*%
X184000000Y-77750000D03*
%TO.N,+3.3V*%
X184750000Y-70750000D03*
%TO.N,GND*%
X184500000Y-71750000D03*
X189250000Y-53500000D03*
X190650000Y-65000000D03*
%TO.N,/SD_CMD*%
X179400000Y-61900000D03*
%TO.N,/SD_DAT3*%
X184250000Y-63500000D03*
%TO.N,/SD_CLK*%
X181500000Y-64250000D03*
%TO.N,/SD_DAT2*%
X183250000Y-62750000D03*
%TO.N,/SD_DAT1*%
X180000000Y-65500000D03*
%TO.N,/SD_DAT0*%
X181250000Y-65500000D03*
%TO.N,+5V*%
X184500000Y-68250000D03*
X191250000Y-65750000D03*
%TO.N,GND*%
X196500000Y-67750000D03*
X194750000Y-81500000D03*
X196750000Y-90500000D03*
X196750000Y-87500000D03*
%TO.N,+5V*%
X180000000Y-56000000D03*
X161945650Y-51350000D03*
%TO.N,+3.3V*%
X171000000Y-54400000D03*
%TO.N,GND*%
X175000000Y-52600000D03*
X166000000Y-54400000D03*
X175750000Y-92500000D03*
%TO.N,+3.3V*%
X170750000Y-92500000D03*
%TO.N,GND*%
X188500000Y-96250000D03*
X183250000Y-88500000D03*
%TO.N,+3.3V*%
X183250000Y-95750000D03*
X189000000Y-93000000D03*
%TO.N,+5V*%
X195750000Y-51500000D03*
X151500000Y-54250000D03*
X154250000Y-98500000D03*
X198500000Y-95750000D03*
X198625000Y-85375000D03*
X194500000Y-61750000D03*
%TD*%
D14*
%TO.N,+5V*%
X180200000Y-50750000D02*
X179800000Y-50750000D01*
X180000000Y-51200000D02*
X180000000Y-50950000D01*
X180000000Y-50950000D02*
X179800000Y-50750000D01*
X195000000Y-50750000D02*
X180200000Y-50750000D01*
X180000000Y-56000000D02*
X180000000Y-51200000D01*
X180000000Y-50950000D02*
X180200000Y-50750000D01*
X179800000Y-50750000D02*
X163400000Y-50750000D01*
X161945650Y-51350000D02*
X162545650Y-50750000D01*
X162545650Y-50750000D02*
X163400000Y-50750000D01*
X154250000Y-50750000D02*
X163400000Y-50750000D01*
X150750000Y-54250000D02*
X154250000Y-50750000D01*
X198250000Y-53250000D02*
X198250000Y-58000000D01*
X198250000Y-58000000D02*
X194500000Y-61750000D01*
X195750000Y-50750000D02*
X198250000Y-53250000D01*
X150750000Y-55000000D02*
X151500000Y-54250000D01*
X150750000Y-55000000D02*
X150750000Y-54250000D01*
X199250000Y-86000000D02*
X199250000Y-95000000D01*
X199250000Y-95000000D02*
X198500000Y-95750000D01*
X199250000Y-95750000D02*
X195750000Y-99250000D01*
X198625000Y-85375000D02*
X199250000Y-86000000D01*
X199250000Y-95000000D02*
X199250000Y-95750000D01*
X195750000Y-99250000D02*
X154250000Y-99250000D01*
X154250000Y-99250000D02*
X153500000Y-98500000D01*
X154250000Y-99250000D02*
X150750000Y-95750000D01*
X150750000Y-95750000D02*
X150750000Y-54250000D01*
X155000000Y-99250000D02*
X154250000Y-99250000D01*
X155000000Y-99250000D02*
X154250000Y-98500000D01*
X195750000Y-51500000D02*
X195000000Y-50750000D01*
X195000000Y-50750000D02*
X195750000Y-50750000D01*
%TD*%
%TA.AperFunction,Conductor*%
%TO.N,+3.3V*%
G36*
X174142539Y-52519685D02*
G01*
X174188294Y-52572489D01*
X174199500Y-52624000D01*
X174199500Y-52678846D01*
X174230261Y-52833489D01*
X174230264Y-52833501D01*
X174290602Y-52979172D01*
X174290609Y-52979185D01*
X174378210Y-53110288D01*
X174378213Y-53110292D01*
X174489707Y-53221786D01*
X174489711Y-53221789D01*
X174620814Y-53309390D01*
X174620827Y-53309397D01*
X174673405Y-53331175D01*
X174766503Y-53369737D01*
X174921153Y-53400499D01*
X174921156Y-53400500D01*
X174921158Y-53400500D01*
X175078844Y-53400500D01*
X175078845Y-53400499D01*
X175233497Y-53369737D01*
X175379179Y-53309394D01*
X175510289Y-53221789D01*
X175621789Y-53110289D01*
X175709394Y-52979179D01*
X175769737Y-52833497D01*
X175800500Y-52678842D01*
X175800500Y-52624000D01*
X175820185Y-52556961D01*
X175872989Y-52511206D01*
X175924500Y-52500000D01*
X179275500Y-52500000D01*
X179342539Y-52519685D01*
X179388294Y-52572489D01*
X179399500Y-52624000D01*
X179399500Y-55420234D01*
X179379815Y-55487273D01*
X179378602Y-55489125D01*
X179290609Y-55620814D01*
X179290602Y-55620827D01*
X179230264Y-55766498D01*
X179230261Y-55766510D01*
X179199500Y-55921153D01*
X179199500Y-56078846D01*
X179230261Y-56233489D01*
X179230264Y-56233501D01*
X179290602Y-56379172D01*
X179290609Y-56379185D01*
X179378210Y-56510288D01*
X179378213Y-56510292D01*
X179489707Y-56621786D01*
X179489711Y-56621789D01*
X179620814Y-56709390D01*
X179620827Y-56709397D01*
X179766498Y-56769735D01*
X179766503Y-56769737D01*
X179921153Y-56800499D01*
X179921156Y-56800500D01*
X179921158Y-56800500D01*
X180078844Y-56800500D01*
X180078845Y-56800499D01*
X180233497Y-56769737D01*
X180379179Y-56709394D01*
X180510289Y-56621789D01*
X180621789Y-56510289D01*
X180709394Y-56379179D01*
X180769737Y-56233497D01*
X180800500Y-56078842D01*
X180800500Y-55921158D01*
X180800500Y-55921155D01*
X180800499Y-55921153D01*
X180769738Y-55766510D01*
X180769737Y-55766503D01*
X180739423Y-55693317D01*
X180709397Y-55620827D01*
X180709390Y-55620814D01*
X180621398Y-55489125D01*
X180600520Y-55422447D01*
X180600500Y-55420234D01*
X180600500Y-52624000D01*
X180620185Y-52556961D01*
X180672989Y-52511206D01*
X180724500Y-52500000D01*
X188949017Y-52500000D01*
X189016056Y-52519685D01*
X189061811Y-52572489D01*
X189071755Y-52641647D01*
X189042730Y-52705203D01*
X188996469Y-52738561D01*
X188870827Y-52790602D01*
X188870814Y-52790609D01*
X188739711Y-52878210D01*
X188739707Y-52878213D01*
X188628213Y-52989707D01*
X188628210Y-52989711D01*
X188540609Y-53120814D01*
X188540602Y-53120827D01*
X188480264Y-53266498D01*
X188480261Y-53266510D01*
X188449500Y-53421153D01*
X188449500Y-53578846D01*
X188480261Y-53733489D01*
X188480264Y-53733501D01*
X188540602Y-53879172D01*
X188540609Y-53879185D01*
X188628210Y-54010288D01*
X188628213Y-54010292D01*
X188739707Y-54121786D01*
X188739711Y-54121789D01*
X188870814Y-54209390D01*
X188870827Y-54209397D01*
X188914255Y-54227385D01*
X189016503Y-54269737D01*
X189171153Y-54300499D01*
X189171156Y-54300500D01*
X189171158Y-54300500D01*
X189328844Y-54300500D01*
X189328845Y-54300499D01*
X189483497Y-54269737D01*
X189629179Y-54209394D01*
X189760289Y-54121789D01*
X189871789Y-54010289D01*
X189959394Y-53879179D01*
X190019737Y-53733497D01*
X190050500Y-53578842D01*
X190050500Y-53421158D01*
X190050500Y-53421155D01*
X190050499Y-53421153D01*
X190028269Y-53309397D01*
X190019737Y-53266503D01*
X189980155Y-53170943D01*
X189959397Y-53120827D01*
X189959390Y-53120814D01*
X189871789Y-52989711D01*
X189871786Y-52989707D01*
X189760292Y-52878213D01*
X189760288Y-52878210D01*
X189629185Y-52790609D01*
X189629172Y-52790602D01*
X189503531Y-52738561D01*
X189449127Y-52694720D01*
X189427062Y-52628426D01*
X189444341Y-52560727D01*
X189495478Y-52513116D01*
X189550983Y-52500000D01*
X189948638Y-52500000D01*
X190015677Y-52519685D01*
X190036319Y-52536319D01*
X192463181Y-54963181D01*
X192496666Y-55024504D01*
X192499500Y-55050862D01*
X192499500Y-55140431D01*
X192530942Y-55419494D01*
X192530945Y-55419512D01*
X192593439Y-55693317D01*
X192593443Y-55693329D01*
X192686200Y-55958411D01*
X192808053Y-56211442D01*
X192808055Y-56211445D01*
X192957477Y-56449248D01*
X193132584Y-56668825D01*
X193331175Y-56867416D01*
X193550752Y-57042523D01*
X193788555Y-57191945D01*
X194041592Y-57313801D01*
X194240680Y-57383465D01*
X194306670Y-57406556D01*
X194306682Y-57406560D01*
X194580491Y-57469055D01*
X194580497Y-57469055D01*
X194580505Y-57469057D01*
X194766547Y-57490018D01*
X194859569Y-57500499D01*
X194859572Y-57500500D01*
X194949138Y-57500500D01*
X195016177Y-57520185D01*
X195036819Y-57536819D01*
X196362701Y-58862701D01*
X196396186Y-58924024D01*
X196391202Y-58993716D01*
X196362701Y-59038063D01*
X194485339Y-60915425D01*
X194424016Y-60948910D01*
X194421850Y-60949361D01*
X194266508Y-60980261D01*
X194266498Y-60980264D01*
X194120827Y-61040602D01*
X194120814Y-61040609D01*
X193989711Y-61128210D01*
X193989707Y-61128213D01*
X193878213Y-61239707D01*
X193878210Y-61239711D01*
X193790609Y-61370814D01*
X193790602Y-61370827D01*
X193730264Y-61516498D01*
X193730261Y-61516510D01*
X193699500Y-61671153D01*
X193699500Y-61828846D01*
X193730261Y-61983489D01*
X193730264Y-61983501D01*
X193790602Y-62129172D01*
X193790609Y-62129185D01*
X193878210Y-62260288D01*
X193878213Y-62260292D01*
X193989707Y-62371786D01*
X193989711Y-62371789D01*
X194120814Y-62459390D01*
X194120827Y-62459397D01*
X194265885Y-62519481D01*
X194266503Y-62519737D01*
X194421153Y-62550499D01*
X194421156Y-62550500D01*
X194421158Y-62550500D01*
X194578844Y-62550500D01*
X194578845Y-62550499D01*
X194733497Y-62519737D01*
X194879179Y-62459394D01*
X195010289Y-62371789D01*
X195121789Y-62260289D01*
X195209394Y-62129179D01*
X195269737Y-61983497D01*
X195289113Y-61886085D01*
X195300638Y-61828150D01*
X195333023Y-61766239D01*
X195334518Y-61764716D01*
X196450511Y-60648723D01*
X196511832Y-60615240D01*
X196581524Y-60620224D01*
X196637457Y-60662096D01*
X196652753Y-60688958D01*
X196653922Y-60691780D01*
X196653923Y-60691784D01*
X196653924Y-60691787D01*
X196653926Y-60691790D01*
X196732975Y-60828709D01*
X196732979Y-60828714D01*
X196732980Y-60828716D01*
X196844784Y-60940520D01*
X196844785Y-60940521D01*
X196844787Y-60940522D01*
X196926351Y-60987613D01*
X196974567Y-61038180D01*
X196987790Y-61106787D01*
X196961822Y-61171652D01*
X196926351Y-61202387D01*
X196844787Y-61249477D01*
X196844782Y-61249481D01*
X196732981Y-61361282D01*
X196732975Y-61361290D01*
X196653926Y-61498209D01*
X196653923Y-61498216D01*
X196613000Y-61650943D01*
X196613000Y-61809057D01*
X196648488Y-61941498D01*
X196653923Y-61961783D01*
X196653926Y-61961790D01*
X196732975Y-62098709D01*
X196732979Y-62098714D01*
X196732980Y-62098716D01*
X196844784Y-62210520D01*
X196844785Y-62210521D01*
X196844787Y-62210522D01*
X196926351Y-62257613D01*
X196974567Y-62308180D01*
X196987790Y-62376787D01*
X196961822Y-62441652D01*
X196926351Y-62472387D01*
X196844787Y-62519477D01*
X196844782Y-62519481D01*
X196732981Y-62631282D01*
X196732975Y-62631290D01*
X196653926Y-62768209D01*
X196653923Y-62768216D01*
X196613000Y-62920943D01*
X196613000Y-63079057D01*
X196626429Y-63129172D01*
X196653923Y-63231783D01*
X196653926Y-63231790D01*
X196732975Y-63368709D01*
X196732979Y-63368714D01*
X196732980Y-63368716D01*
X196844784Y-63480520D01*
X196844785Y-63480521D01*
X196844787Y-63480522D01*
X196926351Y-63527613D01*
X196974567Y-63578180D01*
X196987790Y-63646787D01*
X196961822Y-63711652D01*
X196926351Y-63742387D01*
X196844787Y-63789477D01*
X196844782Y-63789481D01*
X196732981Y-63901282D01*
X196732975Y-63901290D01*
X196653926Y-64038209D01*
X196653923Y-64038216D01*
X196613000Y-64190943D01*
X196613000Y-64349057D01*
X196620813Y-64378213D01*
X196653923Y-64501783D01*
X196653926Y-64501790D01*
X196732975Y-64638709D01*
X196732979Y-64638714D01*
X196732980Y-64638716D01*
X196844784Y-64750520D01*
X196844785Y-64750521D01*
X196844787Y-64750522D01*
X196926351Y-64797613D01*
X196974567Y-64848180D01*
X196987790Y-64916787D01*
X196961822Y-64981652D01*
X196926351Y-65012387D01*
X196844787Y-65059477D01*
X196844782Y-65059481D01*
X196732981Y-65171282D01*
X196732975Y-65171290D01*
X196653926Y-65308209D01*
X196653923Y-65308216D01*
X196613000Y-65460943D01*
X196613000Y-65619057D01*
X196649148Y-65753961D01*
X196653923Y-65771783D01*
X196653926Y-65771790D01*
X196732975Y-65908709D01*
X196732979Y-65908714D01*
X196732980Y-65908716D01*
X196844784Y-66020520D01*
X196844786Y-66020521D01*
X196844790Y-66020524D01*
X196915374Y-66061275D01*
X196981716Y-66099577D01*
X197134443Y-66140500D01*
X197134445Y-66140500D01*
X197292554Y-66140500D01*
X197292557Y-66140500D01*
X197343909Y-66126740D01*
X197413756Y-66128403D01*
X197471618Y-66167565D01*
X197499123Y-66231793D01*
X197500000Y-66246515D01*
X197500000Y-67449016D01*
X197480315Y-67516055D01*
X197427511Y-67561810D01*
X197358353Y-67571754D01*
X197294797Y-67542729D01*
X197261439Y-67496469D01*
X197209395Y-67370823D01*
X197209390Y-67370814D01*
X197121789Y-67239711D01*
X197121786Y-67239707D01*
X197010292Y-67128213D01*
X197010288Y-67128210D01*
X196879185Y-67040609D01*
X196879172Y-67040602D01*
X196733501Y-66980264D01*
X196733489Y-66980261D01*
X196578845Y-66949500D01*
X196578842Y-66949500D01*
X196421158Y-66949500D01*
X196421155Y-66949500D01*
X196266510Y-66980261D01*
X196266498Y-66980264D01*
X196120827Y-67040602D01*
X196120814Y-67040609D01*
X195989711Y-67128210D01*
X195989707Y-67128213D01*
X195878213Y-67239707D01*
X195878210Y-67239711D01*
X195790609Y-67370814D01*
X195790602Y-67370827D01*
X195730264Y-67516498D01*
X195730261Y-67516510D01*
X195699500Y-67671153D01*
X195699500Y-67828846D01*
X195730261Y-67983489D01*
X195730264Y-67983501D01*
X195790602Y-68129172D01*
X195790609Y-68129185D01*
X195878210Y-68260288D01*
X195878213Y-68260292D01*
X195989707Y-68371786D01*
X195989711Y-68371789D01*
X196120814Y-68459390D01*
X196120827Y-68459397D01*
X196266498Y-68519735D01*
X196266503Y-68519737D01*
X196421153Y-68550499D01*
X196421156Y-68550500D01*
X196421158Y-68550500D01*
X196578844Y-68550500D01*
X196578845Y-68550499D01*
X196733497Y-68519737D01*
X196879179Y-68459394D01*
X197010289Y-68371789D01*
X197121789Y-68260289D01*
X197209394Y-68129179D01*
X197261439Y-68003531D01*
X197305280Y-67949127D01*
X197371574Y-67927062D01*
X197439273Y-67944341D01*
X197486884Y-67995478D01*
X197500000Y-68050983D01*
X197500000Y-69305500D01*
X197480315Y-69372539D01*
X197427511Y-69418294D01*
X197376000Y-69429500D01*
X196826457Y-69429500D01*
X196633170Y-69467947D01*
X196633160Y-69467950D01*
X196451092Y-69543364D01*
X196451079Y-69543371D01*
X196287218Y-69652860D01*
X196287214Y-69652863D01*
X196147863Y-69792214D01*
X196147860Y-69792218D01*
X196038371Y-69956079D01*
X196038364Y-69956092D01*
X195962950Y-70138160D01*
X195962947Y-70138170D01*
X195924500Y-70331456D01*
X195924500Y-70331459D01*
X195924500Y-70528541D01*
X195924500Y-70528543D01*
X195924499Y-70528543D01*
X195962947Y-70721829D01*
X195962950Y-70721839D01*
X196038364Y-70903907D01*
X196038371Y-70903920D01*
X196147860Y-71067781D01*
X196147863Y-71067785D01*
X196287214Y-71207136D01*
X196287218Y-71207139D01*
X196451079Y-71316628D01*
X196451092Y-71316635D01*
X196633160Y-71392049D01*
X196633165Y-71392051D01*
X196633169Y-71392051D01*
X196633170Y-71392052D01*
X196826456Y-71430500D01*
X197376000Y-71430500D01*
X197443039Y-71450185D01*
X197488794Y-71502989D01*
X197500000Y-71554500D01*
X197500000Y-77945500D01*
X197480315Y-78012539D01*
X197427511Y-78058294D01*
X197376000Y-78069500D01*
X196826457Y-78069500D01*
X196633170Y-78107947D01*
X196633160Y-78107950D01*
X196451092Y-78183364D01*
X196451079Y-78183371D01*
X196287218Y-78292860D01*
X196287214Y-78292863D01*
X196147863Y-78432214D01*
X196147860Y-78432218D01*
X196038371Y-78596079D01*
X196038364Y-78596092D01*
X195962950Y-78778160D01*
X195962947Y-78778170D01*
X195924500Y-78971456D01*
X195924500Y-78971459D01*
X195924500Y-79168541D01*
X195924500Y-79168543D01*
X195924499Y-79168543D01*
X195962947Y-79361829D01*
X195962950Y-79361839D01*
X196038364Y-79543907D01*
X196038371Y-79543920D01*
X196147860Y-79707781D01*
X196147863Y-79707785D01*
X196287214Y-79847136D01*
X196287218Y-79847139D01*
X196451079Y-79956628D01*
X196451092Y-79956635D01*
X196595645Y-80016510D01*
X196633165Y-80032051D01*
X196633169Y-80032051D01*
X196633170Y-80032052D01*
X196826456Y-80070500D01*
X197376000Y-80070500D01*
X197443039Y-80090185D01*
X197488794Y-80142989D01*
X197500000Y-80194500D01*
X197500000Y-86818559D01*
X197480315Y-86885598D01*
X197427511Y-86931353D01*
X197358353Y-86941297D01*
X197294797Y-86912272D01*
X197288319Y-86906240D01*
X197260292Y-86878213D01*
X197260288Y-86878210D01*
X197129185Y-86790609D01*
X197129172Y-86790602D01*
X196983501Y-86730264D01*
X196983489Y-86730261D01*
X196828845Y-86699500D01*
X196828842Y-86699500D01*
X196671158Y-86699500D01*
X196671155Y-86699500D01*
X196516510Y-86730261D01*
X196516498Y-86730264D01*
X196370827Y-86790602D01*
X196370814Y-86790609D01*
X196239711Y-86878210D01*
X196239707Y-86878213D01*
X196128213Y-86989707D01*
X196128210Y-86989711D01*
X196040609Y-87120814D01*
X196040602Y-87120827D01*
X195980264Y-87266498D01*
X195980261Y-87266510D01*
X195949500Y-87421153D01*
X195949500Y-87578846D01*
X195980261Y-87733489D01*
X195980264Y-87733501D01*
X196040602Y-87879172D01*
X196040609Y-87879185D01*
X196128210Y-88010288D01*
X196128213Y-88010292D01*
X196239707Y-88121786D01*
X196239711Y-88121789D01*
X196370814Y-88209390D01*
X196370827Y-88209397D01*
X196508683Y-88266498D01*
X196516503Y-88269737D01*
X196671153Y-88300499D01*
X196671156Y-88300500D01*
X196671158Y-88300500D01*
X196828844Y-88300500D01*
X196828845Y-88300499D01*
X196983497Y-88269737D01*
X197129179Y-88209394D01*
X197260289Y-88121789D01*
X197261264Y-88120814D01*
X197288319Y-88093760D01*
X197349642Y-88060275D01*
X197419334Y-88065259D01*
X197475267Y-88107131D01*
X197499684Y-88172595D01*
X197500000Y-88181441D01*
X197500000Y-89818559D01*
X197480315Y-89885598D01*
X197427511Y-89931353D01*
X197358353Y-89941297D01*
X197294797Y-89912272D01*
X197288319Y-89906240D01*
X197260292Y-89878213D01*
X197260288Y-89878210D01*
X197129185Y-89790609D01*
X197129172Y-89790602D01*
X196983501Y-89730264D01*
X196983489Y-89730261D01*
X196828845Y-89699500D01*
X196828842Y-89699500D01*
X196671158Y-89699500D01*
X196671155Y-89699500D01*
X196516510Y-89730261D01*
X196516498Y-89730264D01*
X196370827Y-89790602D01*
X196370814Y-89790609D01*
X196239711Y-89878210D01*
X196239707Y-89878213D01*
X196128213Y-89989707D01*
X196128210Y-89989711D01*
X196040609Y-90120814D01*
X196040602Y-90120827D01*
X195980264Y-90266498D01*
X195980261Y-90266510D01*
X195949500Y-90421153D01*
X195949500Y-90578846D01*
X195980261Y-90733489D01*
X195980264Y-90733501D01*
X196040602Y-90879172D01*
X196040609Y-90879185D01*
X196128210Y-91010288D01*
X196128213Y-91010292D01*
X196221279Y-91103358D01*
X196254764Y-91164681D01*
X196249780Y-91234373D01*
X196221279Y-91278720D01*
X195036818Y-92463181D01*
X194975495Y-92496666D01*
X194949137Y-92499500D01*
X194859568Y-92499500D01*
X194580505Y-92530942D01*
X194580487Y-92530945D01*
X194306682Y-92593439D01*
X194306670Y-92593443D01*
X194041588Y-92686200D01*
X193788557Y-92808053D01*
X193550753Y-92957476D01*
X193331175Y-93132583D01*
X193132583Y-93331175D01*
X192957476Y-93550753D01*
X192808053Y-93788557D01*
X192686200Y-94041588D01*
X192593443Y-94306670D01*
X192593439Y-94306682D01*
X192530945Y-94580487D01*
X192530942Y-94580505D01*
X192499500Y-94859568D01*
X192499500Y-94949137D01*
X192479815Y-95016176D01*
X192463181Y-95036818D01*
X190036319Y-97463681D01*
X189974996Y-97497166D01*
X189948638Y-97500000D01*
X160051362Y-97500000D01*
X159984323Y-97480315D01*
X159963681Y-97463681D01*
X158671153Y-96171153D01*
X187699500Y-96171153D01*
X187699500Y-96328846D01*
X187730261Y-96483489D01*
X187730264Y-96483501D01*
X187790602Y-96629172D01*
X187790609Y-96629185D01*
X187878210Y-96760288D01*
X187878213Y-96760292D01*
X187989707Y-96871786D01*
X187989711Y-96871789D01*
X188120814Y-96959390D01*
X188120827Y-96959397D01*
X188221714Y-97001185D01*
X188266503Y-97019737D01*
X188421153Y-97050499D01*
X188421156Y-97050500D01*
X188421158Y-97050500D01*
X188578844Y-97050500D01*
X188578845Y-97050499D01*
X188733497Y-97019737D01*
X188879179Y-96959394D01*
X189010289Y-96871789D01*
X189121789Y-96760289D01*
X189209394Y-96629179D01*
X189269737Y-96483497D01*
X189300500Y-96328842D01*
X189300500Y-96171158D01*
X189300500Y-96171155D01*
X189300499Y-96171153D01*
X189269738Y-96016510D01*
X189269737Y-96016503D01*
X189269735Y-96016498D01*
X189209397Y-95870827D01*
X189209390Y-95870814D01*
X189121789Y-95739711D01*
X189121786Y-95739707D01*
X189010292Y-95628213D01*
X189010288Y-95628210D01*
X188879185Y-95540609D01*
X188879172Y-95540602D01*
X188733501Y-95480264D01*
X188733489Y-95480261D01*
X188578845Y-95449500D01*
X188578842Y-95449500D01*
X188421158Y-95449500D01*
X188421155Y-95449500D01*
X188266510Y-95480261D01*
X188266498Y-95480264D01*
X188120827Y-95540602D01*
X188120814Y-95540609D01*
X187989711Y-95628210D01*
X187989707Y-95628213D01*
X187878213Y-95739707D01*
X187878210Y-95739711D01*
X187790609Y-95870814D01*
X187790602Y-95870827D01*
X187730264Y-96016498D01*
X187730261Y-96016510D01*
X187699500Y-96171153D01*
X158671153Y-96171153D01*
X157536819Y-95036819D01*
X157503334Y-94975496D01*
X157500500Y-94949138D01*
X157500500Y-94859572D01*
X157500499Y-94859568D01*
X157469057Y-94580505D01*
X157469054Y-94580487D01*
X157406560Y-94306682D01*
X157406556Y-94306670D01*
X157383465Y-94240680D01*
X157313801Y-94041592D01*
X157191945Y-93788555D01*
X157042523Y-93550752D01*
X156867416Y-93331175D01*
X156668825Y-93132584D01*
X156449248Y-92957477D01*
X156211445Y-92808055D01*
X156211442Y-92808053D01*
X155958411Y-92686200D01*
X155693329Y-92593443D01*
X155693317Y-92593439D01*
X155441468Y-92535957D01*
X155419509Y-92530945D01*
X155419506Y-92530944D01*
X155419494Y-92530942D01*
X155140431Y-92499500D01*
X155140425Y-92499500D01*
X155050862Y-92499500D01*
X154983823Y-92479815D01*
X154963181Y-92463181D01*
X154921153Y-92421153D01*
X174949500Y-92421153D01*
X174949500Y-92578846D01*
X174980261Y-92733489D01*
X174980264Y-92733501D01*
X175040602Y-92879172D01*
X175040609Y-92879185D01*
X175128210Y-93010288D01*
X175128213Y-93010292D01*
X175239707Y-93121786D01*
X175239711Y-93121789D01*
X175370814Y-93209390D01*
X175370827Y-93209397D01*
X175516498Y-93269735D01*
X175516503Y-93269737D01*
X175671153Y-93300499D01*
X175671156Y-93300500D01*
X175671158Y-93300500D01*
X175828844Y-93300500D01*
X175828845Y-93300499D01*
X175983497Y-93269737D01*
X176129179Y-93209394D01*
X176260289Y-93121789D01*
X176371789Y-93010289D01*
X176459394Y-92879179D01*
X176519737Y-92733497D01*
X176550500Y-92578842D01*
X176550500Y-92421158D01*
X176550500Y-92421155D01*
X176550499Y-92421153D01*
X176519738Y-92266510D01*
X176519737Y-92266503D01*
X176519735Y-92266498D01*
X176459397Y-92120827D01*
X176459390Y-92120814D01*
X176371789Y-91989711D01*
X176371786Y-91989707D01*
X176260292Y-91878213D01*
X176260288Y-91878210D01*
X176129185Y-91790609D01*
X176129172Y-91790602D01*
X175983501Y-91730264D01*
X175983489Y-91730261D01*
X175828845Y-91699500D01*
X175828842Y-91699500D01*
X175671158Y-91699500D01*
X175671155Y-91699500D01*
X175516510Y-91730261D01*
X175516498Y-91730264D01*
X175370827Y-91790602D01*
X175370814Y-91790609D01*
X175239711Y-91878210D01*
X175239707Y-91878213D01*
X175128213Y-91989707D01*
X175128210Y-91989711D01*
X175040609Y-92120814D01*
X175040602Y-92120827D01*
X174980264Y-92266498D01*
X174980261Y-92266510D01*
X174949500Y-92421153D01*
X154921153Y-92421153D01*
X152536319Y-90036319D01*
X152502834Y-89974996D01*
X152500000Y-89948638D01*
X152500000Y-88421153D01*
X182449500Y-88421153D01*
X182449500Y-88578846D01*
X182480261Y-88733489D01*
X182480264Y-88733501D01*
X182540602Y-88879172D01*
X182540609Y-88879185D01*
X182628210Y-89010288D01*
X182628213Y-89010292D01*
X182739707Y-89121786D01*
X182739711Y-89121789D01*
X182870814Y-89209390D01*
X182870827Y-89209397D01*
X183016498Y-89269735D01*
X183016503Y-89269737D01*
X183171153Y-89300499D01*
X183171156Y-89300500D01*
X183171158Y-89300500D01*
X183328844Y-89300500D01*
X183328845Y-89300499D01*
X183483497Y-89269737D01*
X183629179Y-89209394D01*
X183760289Y-89121789D01*
X183871789Y-89010289D01*
X183959394Y-88879179D01*
X184019737Y-88733497D01*
X184050500Y-88578842D01*
X184050500Y-88421158D01*
X184050500Y-88421155D01*
X184050499Y-88421153D01*
X184019738Y-88266510D01*
X184019737Y-88266503D01*
X183996080Y-88209390D01*
X183959397Y-88120827D01*
X183959390Y-88120814D01*
X183871789Y-87989711D01*
X183871786Y-87989707D01*
X183760292Y-87878213D01*
X183760288Y-87878210D01*
X183629185Y-87790609D01*
X183629172Y-87790602D01*
X183483501Y-87730264D01*
X183483489Y-87730261D01*
X183328845Y-87699500D01*
X183328842Y-87699500D01*
X183171158Y-87699500D01*
X183171155Y-87699500D01*
X183016510Y-87730261D01*
X183016498Y-87730264D01*
X182870827Y-87790602D01*
X182870814Y-87790609D01*
X182739711Y-87878210D01*
X182739707Y-87878213D01*
X182628213Y-87989707D01*
X182628210Y-87989711D01*
X182540609Y-88120814D01*
X182540602Y-88120827D01*
X182480264Y-88266498D01*
X182480261Y-88266510D01*
X182449500Y-88421153D01*
X152500000Y-88421153D01*
X152500000Y-87171153D01*
X180674500Y-87171153D01*
X180674500Y-87328846D01*
X180705261Y-87483489D01*
X180705264Y-87483501D01*
X180765602Y-87629172D01*
X180765609Y-87629185D01*
X180853210Y-87760288D01*
X180853213Y-87760292D01*
X180964707Y-87871786D01*
X180964711Y-87871789D01*
X181095814Y-87959390D01*
X181095827Y-87959397D01*
X181241498Y-88019735D01*
X181241503Y-88019737D01*
X181396153Y-88050499D01*
X181396156Y-88050500D01*
X181396158Y-88050500D01*
X181553844Y-88050500D01*
X181553845Y-88050499D01*
X181708497Y-88019737D01*
X181854179Y-87959394D01*
X181985289Y-87871789D01*
X182096789Y-87760289D01*
X182184394Y-87629179D01*
X182244737Y-87483497D01*
X182275500Y-87328842D01*
X182275500Y-87171158D01*
X182275500Y-87171155D01*
X182275499Y-87171153D01*
X182244738Y-87016510D01*
X182244737Y-87016503D01*
X182244735Y-87016498D01*
X182184397Y-86870827D01*
X182184390Y-86870814D01*
X182096789Y-86739711D01*
X182096786Y-86739707D01*
X181985292Y-86628213D01*
X181985288Y-86628210D01*
X181854185Y-86540609D01*
X181854172Y-86540602D01*
X181708501Y-86480264D01*
X181708489Y-86480261D01*
X181553845Y-86449500D01*
X181553842Y-86449500D01*
X181396158Y-86449500D01*
X181396155Y-86449500D01*
X181241510Y-86480261D01*
X181241498Y-86480264D01*
X181095827Y-86540602D01*
X181095814Y-86540609D01*
X180964711Y-86628210D01*
X180964707Y-86628213D01*
X180853213Y-86739707D01*
X180853210Y-86739711D01*
X180765609Y-86870814D01*
X180765602Y-86870827D01*
X180705264Y-87016498D01*
X180705261Y-87016510D01*
X180674500Y-87171153D01*
X152500000Y-87171153D01*
X152500000Y-82746153D01*
X163199500Y-82746153D01*
X163199500Y-82903846D01*
X163230261Y-83058489D01*
X163230264Y-83058501D01*
X163290602Y-83204172D01*
X163290609Y-83204185D01*
X163378210Y-83335288D01*
X163378213Y-83335292D01*
X163489707Y-83446786D01*
X163489711Y-83446789D01*
X163620814Y-83534390D01*
X163620827Y-83534397D01*
X163766498Y-83594735D01*
X163766503Y-83594737D01*
X163921153Y-83625499D01*
X163921156Y-83625500D01*
X163921158Y-83625500D01*
X164078844Y-83625500D01*
X164078845Y-83625499D01*
X164233497Y-83594737D01*
X164379179Y-83534394D01*
X164510289Y-83446789D01*
X164621789Y-83335289D01*
X164709394Y-83204179D01*
X164769737Y-83058497D01*
X164800500Y-82903842D01*
X164800500Y-82746158D01*
X164800500Y-82746155D01*
X164800499Y-82746153D01*
X171699500Y-82746153D01*
X171699500Y-82903846D01*
X171730261Y-83058489D01*
X171730264Y-83058501D01*
X171790602Y-83204172D01*
X171790609Y-83204185D01*
X171878210Y-83335288D01*
X171878213Y-83335292D01*
X171989707Y-83446786D01*
X171989711Y-83446789D01*
X172120814Y-83534390D01*
X172120827Y-83534397D01*
X172266498Y-83594735D01*
X172266503Y-83594737D01*
X172421153Y-83625499D01*
X172421156Y-83625500D01*
X172421158Y-83625500D01*
X172578844Y-83625500D01*
X172578845Y-83625499D01*
X172733497Y-83594737D01*
X172879179Y-83534394D01*
X173010289Y-83446789D01*
X173121789Y-83335289D01*
X173209394Y-83204179D01*
X173269737Y-83058497D01*
X173300500Y-82903842D01*
X173300500Y-82746158D01*
X173300500Y-82746155D01*
X173300499Y-82746153D01*
X174699500Y-82746153D01*
X174699500Y-82903846D01*
X174730261Y-83058489D01*
X174730264Y-83058501D01*
X174790602Y-83204172D01*
X174790609Y-83204185D01*
X174878210Y-83335288D01*
X174878213Y-83335292D01*
X174989707Y-83446786D01*
X174989711Y-83446789D01*
X175120814Y-83534390D01*
X175120827Y-83534397D01*
X175266498Y-83594735D01*
X175266503Y-83594737D01*
X175421153Y-83625499D01*
X175421156Y-83625500D01*
X175421158Y-83625500D01*
X175578844Y-83625500D01*
X175578845Y-83625499D01*
X175733497Y-83594737D01*
X175879179Y-83534394D01*
X176010289Y-83446789D01*
X176121789Y-83335289D01*
X176209394Y-83204179D01*
X176269737Y-83058497D01*
X176300500Y-82903842D01*
X176300500Y-82746158D01*
X176300500Y-82746155D01*
X176300499Y-82746153D01*
X181199500Y-82746153D01*
X181199500Y-82903846D01*
X181230261Y-83058489D01*
X181230264Y-83058501D01*
X181290602Y-83204172D01*
X181290609Y-83204185D01*
X181378210Y-83335288D01*
X181378213Y-83335292D01*
X181489707Y-83446786D01*
X181489711Y-83446789D01*
X181620814Y-83534390D01*
X181620827Y-83534397D01*
X181766498Y-83594735D01*
X181766503Y-83594737D01*
X181921153Y-83625499D01*
X181921156Y-83625500D01*
X181921158Y-83625500D01*
X182078844Y-83625500D01*
X182078845Y-83625499D01*
X182233497Y-83594737D01*
X182379179Y-83534394D01*
X182510289Y-83446789D01*
X182621789Y-83335289D01*
X182709394Y-83204179D01*
X182769737Y-83058497D01*
X182800500Y-82903842D01*
X182800500Y-82746158D01*
X182800500Y-82746155D01*
X182800499Y-82746153D01*
X182769738Y-82591510D01*
X182769737Y-82591503D01*
X182769735Y-82591498D01*
X182709397Y-82445827D01*
X182709390Y-82445814D01*
X182621789Y-82314711D01*
X182621786Y-82314707D01*
X182510292Y-82203213D01*
X182510288Y-82203210D01*
X182379185Y-82115609D01*
X182379172Y-82115602D01*
X182233501Y-82055264D01*
X182233489Y-82055261D01*
X182078845Y-82024500D01*
X182078842Y-82024500D01*
X181921158Y-82024500D01*
X181921155Y-82024500D01*
X181766510Y-82055261D01*
X181766498Y-82055264D01*
X181620827Y-82115602D01*
X181620814Y-82115609D01*
X181489711Y-82203210D01*
X181489707Y-82203213D01*
X181378213Y-82314707D01*
X181378210Y-82314711D01*
X181290609Y-82445814D01*
X181290602Y-82445827D01*
X181230264Y-82591498D01*
X181230261Y-82591510D01*
X181199500Y-82746153D01*
X176300499Y-82746153D01*
X176269738Y-82591510D01*
X176269737Y-82591503D01*
X176269735Y-82591498D01*
X176209397Y-82445827D01*
X176209390Y-82445814D01*
X176121789Y-82314711D01*
X176121786Y-82314707D01*
X176010292Y-82203213D01*
X176010288Y-82203210D01*
X175879185Y-82115609D01*
X175879172Y-82115602D01*
X175733501Y-82055264D01*
X175733489Y-82055261D01*
X175578845Y-82024500D01*
X175578842Y-82024500D01*
X175421158Y-82024500D01*
X175421155Y-82024500D01*
X175266510Y-82055261D01*
X175266498Y-82055264D01*
X175120827Y-82115602D01*
X175120814Y-82115609D01*
X174989711Y-82203210D01*
X174989707Y-82203213D01*
X174878213Y-82314707D01*
X174878210Y-82314711D01*
X174790609Y-82445814D01*
X174790602Y-82445827D01*
X174730264Y-82591498D01*
X174730261Y-82591510D01*
X174699500Y-82746153D01*
X173300499Y-82746153D01*
X173269738Y-82591510D01*
X173269737Y-82591503D01*
X173269735Y-82591498D01*
X173209397Y-82445827D01*
X173209390Y-82445814D01*
X173121789Y-82314711D01*
X173121786Y-82314707D01*
X173010292Y-82203213D01*
X173010288Y-82203210D01*
X172879185Y-82115609D01*
X172879172Y-82115602D01*
X172733501Y-82055264D01*
X172733489Y-82055261D01*
X172578845Y-82024500D01*
X172578842Y-82024500D01*
X172421158Y-82024500D01*
X172421155Y-82024500D01*
X172266510Y-82055261D01*
X172266498Y-82055264D01*
X172120827Y-82115602D01*
X172120814Y-82115609D01*
X171989711Y-82203210D01*
X171989707Y-82203213D01*
X171878213Y-82314707D01*
X171878210Y-82314711D01*
X171790609Y-82445814D01*
X171790602Y-82445827D01*
X171730264Y-82591498D01*
X171730261Y-82591510D01*
X171699500Y-82746153D01*
X164800499Y-82746153D01*
X164769738Y-82591510D01*
X164769737Y-82591503D01*
X164769735Y-82591498D01*
X164709397Y-82445827D01*
X164709390Y-82445814D01*
X164621789Y-82314711D01*
X164621786Y-82314707D01*
X164510292Y-82203213D01*
X164510288Y-82203210D01*
X164379185Y-82115609D01*
X164379172Y-82115602D01*
X164233501Y-82055264D01*
X164233489Y-82055261D01*
X164078845Y-82024500D01*
X164078842Y-82024500D01*
X163921158Y-82024500D01*
X163921155Y-82024500D01*
X163766510Y-82055261D01*
X163766498Y-82055264D01*
X163620827Y-82115602D01*
X163620814Y-82115609D01*
X163489711Y-82203210D01*
X163489707Y-82203213D01*
X163378213Y-82314707D01*
X163378210Y-82314711D01*
X163290609Y-82445814D01*
X163290602Y-82445827D01*
X163230264Y-82591498D01*
X163230261Y-82591510D01*
X163199500Y-82746153D01*
X152500000Y-82746153D01*
X152500000Y-81171153D01*
X183274500Y-81171153D01*
X183274500Y-81328846D01*
X183305261Y-81483489D01*
X183305264Y-81483501D01*
X183365602Y-81629172D01*
X183365609Y-81629185D01*
X183453210Y-81760288D01*
X183453213Y-81760292D01*
X183564707Y-81871786D01*
X183564711Y-81871789D01*
X183695814Y-81959390D01*
X183695827Y-81959397D01*
X183841498Y-82019735D01*
X183841503Y-82019737D01*
X183996153Y-82050499D01*
X183996156Y-82050500D01*
X183996158Y-82050500D01*
X184153844Y-82050500D01*
X184153845Y-82050499D01*
X184308497Y-82019737D01*
X184454179Y-81959394D01*
X184585289Y-81871789D01*
X184696789Y-81760289D01*
X184784394Y-81629179D01*
X184844737Y-81483497D01*
X184857138Y-81421153D01*
X193949500Y-81421153D01*
X193949500Y-81578846D01*
X193980261Y-81733489D01*
X193980264Y-81733501D01*
X194040602Y-81879172D01*
X194040609Y-81879185D01*
X194128210Y-82010288D01*
X194128213Y-82010292D01*
X194239707Y-82121786D01*
X194239711Y-82121789D01*
X194370814Y-82209390D01*
X194370827Y-82209397D01*
X194516498Y-82269735D01*
X194516503Y-82269737D01*
X194671153Y-82300499D01*
X194671156Y-82300500D01*
X194671158Y-82300500D01*
X194828844Y-82300500D01*
X194828845Y-82300499D01*
X194983497Y-82269737D01*
X195129179Y-82209394D01*
X195260289Y-82121789D01*
X195371789Y-82010289D01*
X195459394Y-81879179D01*
X195519737Y-81733497D01*
X195550500Y-81578842D01*
X195550500Y-81421158D01*
X195550500Y-81421155D01*
X195550499Y-81421153D01*
X195519738Y-81266510D01*
X195519737Y-81266503D01*
X195480242Y-81171153D01*
X195459397Y-81120827D01*
X195459390Y-81120814D01*
X195371789Y-80989711D01*
X195371786Y-80989707D01*
X195260292Y-80878213D01*
X195260288Y-80878210D01*
X195129185Y-80790609D01*
X195129172Y-80790602D01*
X194983501Y-80730264D01*
X194983489Y-80730261D01*
X194828845Y-80699500D01*
X194828842Y-80699500D01*
X194671158Y-80699500D01*
X194671155Y-80699500D01*
X194516510Y-80730261D01*
X194516498Y-80730264D01*
X194370827Y-80790602D01*
X194370814Y-80790609D01*
X194239711Y-80878210D01*
X194239707Y-80878213D01*
X194128213Y-80989707D01*
X194128210Y-80989711D01*
X194040609Y-81120814D01*
X194040602Y-81120827D01*
X193980264Y-81266498D01*
X193980261Y-81266510D01*
X193949500Y-81421153D01*
X184857138Y-81421153D01*
X184863161Y-81390874D01*
X184875500Y-81328844D01*
X184875500Y-81171155D01*
X184875499Y-81171153D01*
X184844738Y-81016510D01*
X184844737Y-81016503D01*
X184844735Y-81016498D01*
X184784397Y-80870827D01*
X184784390Y-80870814D01*
X184696789Y-80739711D01*
X184696786Y-80739707D01*
X184585292Y-80628213D01*
X184585288Y-80628210D01*
X184454185Y-80540609D01*
X184454172Y-80540602D01*
X184308501Y-80480264D01*
X184308489Y-80480261D01*
X184153845Y-80449500D01*
X184153842Y-80449500D01*
X183996158Y-80449500D01*
X183996155Y-80449500D01*
X183841510Y-80480261D01*
X183841498Y-80480264D01*
X183695827Y-80540602D01*
X183695814Y-80540609D01*
X183564711Y-80628210D01*
X183564707Y-80628213D01*
X183453213Y-80739707D01*
X183453210Y-80739711D01*
X183365609Y-80870814D01*
X183365602Y-80870827D01*
X183305264Y-81016498D01*
X183305261Y-81016510D01*
X183274500Y-81171153D01*
X152500000Y-81171153D01*
X152500000Y-80171153D01*
X162624500Y-80171153D01*
X162624500Y-80328846D01*
X162655261Y-80483489D01*
X162655264Y-80483501D01*
X162715602Y-80629172D01*
X162715609Y-80629185D01*
X162803210Y-80760288D01*
X162803213Y-80760292D01*
X162914707Y-80871786D01*
X162914711Y-80871789D01*
X163045814Y-80959390D01*
X163045827Y-80959397D01*
X163119013Y-80989711D01*
X163191503Y-81019737D01*
X163346153Y-81050499D01*
X163346156Y-81050500D01*
X163346158Y-81050500D01*
X163503844Y-81050500D01*
X163503845Y-81050499D01*
X163514179Y-81048443D01*
X163539287Y-81043450D01*
X163539292Y-81043449D01*
X163624800Y-81026439D01*
X163658497Y-81019737D01*
X163804179Y-80959394D01*
X163935289Y-80871789D01*
X164046789Y-80760289D01*
X164134394Y-80629179D01*
X164194737Y-80483497D01*
X164225500Y-80328842D01*
X164225500Y-80171158D01*
X164225500Y-80171155D01*
X164225499Y-80171153D01*
X164209393Y-80090185D01*
X164194737Y-80016503D01*
X164169936Y-79956628D01*
X164134397Y-79870827D01*
X164134390Y-79870814D01*
X164046789Y-79739711D01*
X164046786Y-79739707D01*
X163935292Y-79628213D01*
X163935288Y-79628210D01*
X163804185Y-79540609D01*
X163804172Y-79540602D01*
X163658501Y-79480264D01*
X163658489Y-79480261D01*
X163503845Y-79449500D01*
X163503842Y-79449500D01*
X163346158Y-79449500D01*
X163346155Y-79449500D01*
X163191510Y-79480261D01*
X163191498Y-79480264D01*
X163045827Y-79540602D01*
X163045814Y-79540609D01*
X162914711Y-79628210D01*
X162914707Y-79628213D01*
X162803213Y-79739707D01*
X162803210Y-79739711D01*
X162715609Y-79870814D01*
X162715602Y-79870827D01*
X162655264Y-80016498D01*
X162655261Y-80016510D01*
X162624500Y-80171153D01*
X152500000Y-80171153D01*
X152500000Y-79168543D01*
X191594499Y-79168543D01*
X191632947Y-79361829D01*
X191632950Y-79361839D01*
X191708364Y-79543907D01*
X191708371Y-79543920D01*
X191817860Y-79707781D01*
X191817863Y-79707785D01*
X191957214Y-79847136D01*
X191957218Y-79847139D01*
X192121079Y-79956628D01*
X192121092Y-79956635D01*
X192265645Y-80016510D01*
X192303165Y-80032051D01*
X192303169Y-80032051D01*
X192303170Y-80032052D01*
X192496456Y-80070500D01*
X192496459Y-80070500D01*
X193793543Y-80070500D01*
X193923582Y-80044632D01*
X193986835Y-80032051D01*
X194168914Y-79956632D01*
X194332782Y-79847139D01*
X194472139Y-79707782D01*
X194581632Y-79543914D01*
X194657051Y-79361835D01*
X194695500Y-79168541D01*
X194695500Y-78971459D01*
X194695500Y-78971456D01*
X194657052Y-78778170D01*
X194657051Y-78778169D01*
X194657051Y-78778165D01*
X194657049Y-78778160D01*
X194581635Y-78596092D01*
X194581628Y-78596079D01*
X194472139Y-78432218D01*
X194472136Y-78432214D01*
X194332785Y-78292863D01*
X194332781Y-78292860D01*
X194168920Y-78183371D01*
X194168913Y-78183367D01*
X194159474Y-78179458D01*
X194105070Y-78135617D01*
X194083004Y-78069323D01*
X194100283Y-78001624D01*
X194103431Y-77996972D01*
X194105511Y-77993368D01*
X194105515Y-77993365D01*
X194181281Y-77862135D01*
X194220500Y-77715766D01*
X194220500Y-77564234D01*
X194181281Y-77417865D01*
X194105515Y-77286635D01*
X193998365Y-77179485D01*
X193909560Y-77128213D01*
X193867136Y-77103719D01*
X193793950Y-77084109D01*
X193720766Y-77064500D01*
X193569234Y-77064500D01*
X193422863Y-77103719D01*
X193291635Y-77179485D01*
X193291632Y-77179487D01*
X193184487Y-77286632D01*
X193184485Y-77286635D01*
X193108719Y-77417863D01*
X193082289Y-77516503D01*
X193069500Y-77564234D01*
X193069500Y-77715766D01*
X193099799Y-77828846D01*
X193108720Y-77862137D01*
X193108721Y-77862140D01*
X193121053Y-77883499D01*
X193137527Y-77951398D01*
X193114675Y-78017426D01*
X193059755Y-78060617D01*
X193013667Y-78069500D01*
X192496457Y-78069500D01*
X192303170Y-78107947D01*
X192303160Y-78107950D01*
X192121092Y-78183364D01*
X192121079Y-78183371D01*
X191957218Y-78292860D01*
X191957214Y-78292863D01*
X191817863Y-78432214D01*
X191817860Y-78432218D01*
X191708371Y-78596079D01*
X191708364Y-78596092D01*
X191632950Y-78778160D01*
X191632947Y-78778170D01*
X191594500Y-78971456D01*
X191594500Y-78971459D01*
X191594500Y-79168541D01*
X191594500Y-79168543D01*
X191594499Y-79168543D01*
X152500000Y-79168543D01*
X152500000Y-77671153D01*
X183199500Y-77671153D01*
X183199500Y-77828846D01*
X183230261Y-77983489D01*
X183230264Y-77983501D01*
X183290602Y-78129172D01*
X183290609Y-78129185D01*
X183378210Y-78260288D01*
X183378213Y-78260292D01*
X183489707Y-78371786D01*
X183489711Y-78371789D01*
X183620814Y-78459390D01*
X183620827Y-78459397D01*
X183766498Y-78519735D01*
X183766503Y-78519737D01*
X183921153Y-78550499D01*
X183921156Y-78550500D01*
X183921158Y-78550500D01*
X184078844Y-78550500D01*
X184078845Y-78550499D01*
X184233497Y-78519737D01*
X184379179Y-78459394D01*
X184510289Y-78371789D01*
X184621789Y-78260289D01*
X184709394Y-78129179D01*
X184769737Y-77983497D01*
X184800500Y-77828842D01*
X184800500Y-77671158D01*
X184800500Y-77671155D01*
X184800499Y-77671153D01*
X184769737Y-77516503D01*
X184728880Y-77417865D01*
X184709397Y-77370827D01*
X184709390Y-77370814D01*
X184621789Y-77239711D01*
X184621786Y-77239707D01*
X184510292Y-77128213D01*
X184510288Y-77128210D01*
X184379185Y-77040609D01*
X184379172Y-77040602D01*
X184233501Y-76980264D01*
X184233489Y-76980261D01*
X184078845Y-76949500D01*
X184078842Y-76949500D01*
X183921158Y-76949500D01*
X183921155Y-76949500D01*
X183766510Y-76980261D01*
X183766498Y-76980264D01*
X183620827Y-77040602D01*
X183620814Y-77040609D01*
X183489711Y-77128210D01*
X183489707Y-77128213D01*
X183378213Y-77239707D01*
X183378210Y-77239711D01*
X183290609Y-77370814D01*
X183290602Y-77370827D01*
X183230264Y-77516498D01*
X183230261Y-77516510D01*
X183199500Y-77671153D01*
X152500000Y-77671153D01*
X152500000Y-73171153D01*
X162624500Y-73171153D01*
X162624500Y-73328846D01*
X162655261Y-73483489D01*
X162655264Y-73483501D01*
X162715602Y-73629172D01*
X162715609Y-73629185D01*
X162803210Y-73760288D01*
X162803213Y-73760292D01*
X162914707Y-73871786D01*
X162914711Y-73871789D01*
X163045814Y-73959390D01*
X163045827Y-73959397D01*
X163191498Y-74019735D01*
X163191503Y-74019737D01*
X163346153Y-74050499D01*
X163346156Y-74050500D01*
X163346158Y-74050500D01*
X163503844Y-74050500D01*
X163503845Y-74050499D01*
X163658497Y-74019737D01*
X163804179Y-73959394D01*
X163935289Y-73871789D01*
X164046789Y-73760289D01*
X164134394Y-73629179D01*
X164194737Y-73483497D01*
X164225500Y-73328842D01*
X164225500Y-73171158D01*
X164225500Y-73171155D01*
X164225499Y-73171153D01*
X164194738Y-73016510D01*
X164194737Y-73016503D01*
X164194735Y-73016498D01*
X164134397Y-72870827D01*
X164134390Y-72870814D01*
X164046789Y-72739711D01*
X164046786Y-72739707D01*
X163935292Y-72628213D01*
X163935288Y-72628210D01*
X163804185Y-72540609D01*
X163804172Y-72540602D01*
X163658501Y-72480264D01*
X163658489Y-72480261D01*
X163503845Y-72449500D01*
X163503842Y-72449500D01*
X163346158Y-72449500D01*
X163346155Y-72449500D01*
X163191510Y-72480261D01*
X163191498Y-72480264D01*
X163045827Y-72540602D01*
X163045814Y-72540609D01*
X162914711Y-72628210D01*
X162914707Y-72628213D01*
X162803213Y-72739707D01*
X162803210Y-72739711D01*
X162715609Y-72870814D01*
X162715602Y-72870827D01*
X162655264Y-73016498D01*
X162655261Y-73016510D01*
X162624500Y-73171153D01*
X152500000Y-73171153D01*
X152500000Y-71671153D01*
X183699500Y-71671153D01*
X183699500Y-71828846D01*
X183730261Y-71983489D01*
X183730264Y-71983501D01*
X183790602Y-72129172D01*
X183790609Y-72129185D01*
X183878210Y-72260288D01*
X183878213Y-72260292D01*
X183989707Y-72371786D01*
X183989711Y-72371789D01*
X184120814Y-72459390D01*
X184120827Y-72459397D01*
X184266498Y-72519735D01*
X184266503Y-72519737D01*
X184421153Y-72550499D01*
X184421156Y-72550500D01*
X184421158Y-72550500D01*
X184578844Y-72550500D01*
X184578845Y-72550499D01*
X184733497Y-72519737D01*
X184879179Y-72459394D01*
X185010289Y-72371789D01*
X185121789Y-72260289D01*
X185209394Y-72129179D01*
X185269737Y-71983497D01*
X185300500Y-71828842D01*
X185300500Y-71671158D01*
X185300500Y-71671155D01*
X185300499Y-71671153D01*
X185269737Y-71516503D01*
X185262177Y-71498252D01*
X185209397Y-71370827D01*
X185209390Y-71370814D01*
X185121789Y-71239711D01*
X185121786Y-71239707D01*
X185010292Y-71128213D01*
X185010288Y-71128210D01*
X184879185Y-71040609D01*
X184879172Y-71040602D01*
X184733501Y-70980264D01*
X184733489Y-70980261D01*
X184578845Y-70949500D01*
X184578842Y-70949500D01*
X184421158Y-70949500D01*
X184421155Y-70949500D01*
X184266510Y-70980261D01*
X184266498Y-70980264D01*
X184120827Y-71040602D01*
X184120814Y-71040609D01*
X183989711Y-71128210D01*
X183989707Y-71128213D01*
X183878213Y-71239707D01*
X183878210Y-71239711D01*
X183790609Y-71370814D01*
X183790602Y-71370827D01*
X183730264Y-71516498D01*
X183730261Y-71516510D01*
X183699500Y-71671153D01*
X152500000Y-71671153D01*
X152500000Y-70528543D01*
X191594499Y-70528543D01*
X191632947Y-70721829D01*
X191632950Y-70721839D01*
X191708364Y-70903907D01*
X191708371Y-70903920D01*
X191817860Y-71067781D01*
X191817863Y-71067785D01*
X191957214Y-71207136D01*
X191957218Y-71207139D01*
X192121079Y-71316628D01*
X192121092Y-71316635D01*
X192303160Y-71392049D01*
X192303165Y-71392051D01*
X192303169Y-71392051D01*
X192303170Y-71392052D01*
X192496456Y-71430500D01*
X192496459Y-71430500D01*
X193013667Y-71430500D01*
X193080706Y-71450185D01*
X193126461Y-71502989D01*
X193136405Y-71572147D01*
X193121053Y-71616501D01*
X193108721Y-71637859D01*
X193108720Y-71637862D01*
X193069500Y-71784234D01*
X193069500Y-71935765D01*
X193108719Y-72082136D01*
X193135876Y-72129172D01*
X193184485Y-72213365D01*
X193291635Y-72320515D01*
X193422865Y-72396281D01*
X193569234Y-72435500D01*
X193569236Y-72435500D01*
X193720764Y-72435500D01*
X193720766Y-72435500D01*
X193867135Y-72396281D01*
X193998365Y-72320515D01*
X194105515Y-72213365D01*
X194181281Y-72082135D01*
X194220500Y-71935766D01*
X194220500Y-71784234D01*
X194181281Y-71637865D01*
X194105515Y-71506635D01*
X194105513Y-71506633D01*
X194101451Y-71499597D01*
X194103779Y-71498252D01*
X194083355Y-71445422D01*
X194097393Y-71376977D01*
X194146206Y-71326986D01*
X194159470Y-71320543D01*
X194168914Y-71316632D01*
X194332782Y-71207139D01*
X194472139Y-71067782D01*
X194581632Y-70903914D01*
X194657051Y-70721835D01*
X194695500Y-70528541D01*
X194695500Y-70331459D01*
X194695500Y-70331456D01*
X194657052Y-70138170D01*
X194657051Y-70138169D01*
X194657051Y-70138165D01*
X194657049Y-70138160D01*
X194581635Y-69956092D01*
X194581628Y-69956079D01*
X194472139Y-69792218D01*
X194472136Y-69792214D01*
X194332785Y-69652863D01*
X194332781Y-69652860D01*
X194168920Y-69543371D01*
X194168907Y-69543364D01*
X193986839Y-69467950D01*
X193986829Y-69467947D01*
X193793543Y-69429500D01*
X193793541Y-69429500D01*
X192496459Y-69429500D01*
X192496457Y-69429500D01*
X192303170Y-69467947D01*
X192303160Y-69467950D01*
X192121092Y-69543364D01*
X192121079Y-69543371D01*
X191957218Y-69652860D01*
X191957214Y-69652863D01*
X191817863Y-69792214D01*
X191817860Y-69792218D01*
X191708371Y-69956079D01*
X191708364Y-69956092D01*
X191632950Y-70138160D01*
X191632947Y-70138170D01*
X191594500Y-70331456D01*
X191594500Y-70331459D01*
X191594500Y-70528541D01*
X191594500Y-70528543D01*
X191594499Y-70528543D01*
X152500000Y-70528543D01*
X152500000Y-67671153D01*
X163449500Y-67671153D01*
X163449500Y-67828846D01*
X163480261Y-67983489D01*
X163480264Y-67983501D01*
X163540602Y-68129172D01*
X163540609Y-68129185D01*
X163628210Y-68260288D01*
X163628213Y-68260292D01*
X163739707Y-68371786D01*
X163739711Y-68371789D01*
X163870814Y-68459390D01*
X163870827Y-68459397D01*
X164016498Y-68519735D01*
X164016503Y-68519737D01*
X164171153Y-68550499D01*
X164171156Y-68550500D01*
X164171158Y-68550500D01*
X164328844Y-68550500D01*
X164328845Y-68550499D01*
X164483497Y-68519737D01*
X164629179Y-68459394D01*
X164760289Y-68371789D01*
X164871789Y-68260289D01*
X164931348Y-68171153D01*
X183699500Y-68171153D01*
X183699500Y-68328846D01*
X183730261Y-68483489D01*
X183730264Y-68483501D01*
X183790602Y-68629172D01*
X183790609Y-68629185D01*
X183878210Y-68760288D01*
X183878213Y-68760292D01*
X183989707Y-68871786D01*
X183989711Y-68871789D01*
X184120814Y-68959390D01*
X184120827Y-68959397D01*
X184266498Y-69019735D01*
X184266503Y-69019737D01*
X184421153Y-69050499D01*
X184421156Y-69050500D01*
X184421158Y-69050500D01*
X184578844Y-69050500D01*
X184578845Y-69050499D01*
X184733497Y-69019737D01*
X184879179Y-68959394D01*
X185010289Y-68871789D01*
X185121789Y-68760289D01*
X185209394Y-68629179D01*
X185269737Y-68483497D01*
X185300500Y-68328842D01*
X185300500Y-68171158D01*
X185300500Y-68171155D01*
X185300499Y-68171153D01*
X185289849Y-68117611D01*
X185269737Y-68016503D01*
X185232690Y-67927062D01*
X185209397Y-67870827D01*
X185209390Y-67870814D01*
X185121789Y-67739711D01*
X185121786Y-67739707D01*
X185010292Y-67628213D01*
X185010288Y-67628210D01*
X184879185Y-67540609D01*
X184879172Y-67540602D01*
X184733501Y-67480264D01*
X184733489Y-67480261D01*
X184578845Y-67449500D01*
X184578842Y-67449500D01*
X184421158Y-67449500D01*
X184421155Y-67449500D01*
X184266510Y-67480261D01*
X184266498Y-67480264D01*
X184120827Y-67540602D01*
X184120814Y-67540609D01*
X183989711Y-67628210D01*
X183989707Y-67628213D01*
X183878213Y-67739707D01*
X183878210Y-67739711D01*
X183790609Y-67870814D01*
X183790602Y-67870827D01*
X183730264Y-68016498D01*
X183730261Y-68016510D01*
X183699500Y-68171153D01*
X164931348Y-68171153D01*
X164959394Y-68129179D01*
X165019737Y-67983497D01*
X165050500Y-67828842D01*
X165050500Y-67671158D01*
X165050500Y-67671155D01*
X165050499Y-67671153D01*
X165028749Y-67561810D01*
X165019737Y-67516503D01*
X165019735Y-67516498D01*
X164959397Y-67370827D01*
X164959390Y-67370814D01*
X164871789Y-67239711D01*
X164871786Y-67239707D01*
X164760292Y-67128213D01*
X164760288Y-67128210D01*
X164629185Y-67040609D01*
X164629172Y-67040602D01*
X164483501Y-66980264D01*
X164483489Y-66980261D01*
X164328845Y-66949500D01*
X164328842Y-66949500D01*
X164171158Y-66949500D01*
X164171155Y-66949500D01*
X164016510Y-66980261D01*
X164016498Y-66980264D01*
X163870827Y-67040602D01*
X163870814Y-67040609D01*
X163739711Y-67128210D01*
X163739707Y-67128213D01*
X163628213Y-67239707D01*
X163628210Y-67239711D01*
X163540609Y-67370814D01*
X163540602Y-67370827D01*
X163480264Y-67516498D01*
X163480261Y-67516510D01*
X163449500Y-67671153D01*
X152500000Y-67671153D01*
X152500000Y-65421153D01*
X179199500Y-65421153D01*
X179199500Y-65578846D01*
X179230261Y-65733489D01*
X179230264Y-65733501D01*
X179290602Y-65879172D01*
X179290609Y-65879185D01*
X179378210Y-66010288D01*
X179378213Y-66010292D01*
X179489707Y-66121786D01*
X179489711Y-66121789D01*
X179620814Y-66209390D01*
X179620827Y-66209397D01*
X179746296Y-66261367D01*
X179766503Y-66269737D01*
X179921153Y-66300499D01*
X179921156Y-66300500D01*
X179921158Y-66300500D01*
X180078844Y-66300500D01*
X180078845Y-66300499D01*
X180233497Y-66269737D01*
X180379179Y-66209394D01*
X180510289Y-66121789D01*
X180510292Y-66121786D01*
X180537319Y-66094760D01*
X180598642Y-66061275D01*
X180668334Y-66066259D01*
X180712681Y-66094760D01*
X180739707Y-66121786D01*
X180739711Y-66121789D01*
X180870814Y-66209390D01*
X180870827Y-66209397D01*
X180996296Y-66261367D01*
X181016503Y-66269737D01*
X181171153Y-66300499D01*
X181171156Y-66300500D01*
X181171158Y-66300500D01*
X181328844Y-66300500D01*
X181328845Y-66300499D01*
X181483497Y-66269737D01*
X181629179Y-66209394D01*
X181760289Y-66121789D01*
X181871789Y-66010289D01*
X181959394Y-65879179D01*
X182019737Y-65733497D01*
X182050500Y-65578842D01*
X182050500Y-65421158D01*
X182050500Y-65421155D01*
X182050499Y-65421153D01*
X182019737Y-65266503D01*
X181980299Y-65171290D01*
X181959397Y-65120827D01*
X181959395Y-65120823D01*
X181959394Y-65120821D01*
X181935405Y-65084919D01*
X181928956Y-65075267D01*
X181928179Y-65072787D01*
X181926255Y-65071042D01*
X181917799Y-65039635D01*
X181908078Y-65008590D01*
X181908765Y-65006083D01*
X181908090Y-65003575D01*
X181917954Y-64972587D01*
X181926562Y-64941210D01*
X181928738Y-64938709D01*
X181929284Y-64936997D01*
X181936373Y-64929941D01*
X181944025Y-64921153D01*
X189849500Y-64921153D01*
X189849500Y-65078846D01*
X189880261Y-65233489D01*
X189880264Y-65233501D01*
X189940602Y-65379172D01*
X189940609Y-65379185D01*
X190028210Y-65510288D01*
X190028213Y-65510292D01*
X190139707Y-65621786D01*
X190139711Y-65621789D01*
X190270814Y-65709390D01*
X190270827Y-65709397D01*
X190378415Y-65753961D01*
X190432819Y-65797802D01*
X190452580Y-65844330D01*
X190480261Y-65983491D01*
X190480264Y-65983501D01*
X190540602Y-66129172D01*
X190540609Y-66129185D01*
X190628210Y-66260288D01*
X190628213Y-66260292D01*
X190739707Y-66371786D01*
X190739711Y-66371789D01*
X190870814Y-66459390D01*
X190870827Y-66459397D01*
X190970060Y-66500500D01*
X191016503Y-66519737D01*
X191171153Y-66550499D01*
X191171156Y-66550500D01*
X191171158Y-66550500D01*
X191328844Y-66550500D01*
X191328845Y-66550499D01*
X191483497Y-66519737D01*
X191629179Y-66459394D01*
X191751109Y-66377922D01*
X191817785Y-66357045D01*
X191885165Y-66375529D01*
X191888852Y-66377898D01*
X191944505Y-66415084D01*
X191944507Y-66415085D01*
X191944511Y-66415087D01*
X192051469Y-66459390D01*
X192081087Y-66471658D01*
X192081091Y-66471658D01*
X192081092Y-66471659D01*
X192226079Y-66500500D01*
X192226082Y-66500500D01*
X192373920Y-66500500D01*
X192471462Y-66481096D01*
X192518913Y-66471658D01*
X192655495Y-66415084D01*
X192778416Y-66332951D01*
X192778417Y-66332949D01*
X192781109Y-66331151D01*
X192847786Y-66310273D01*
X192915166Y-66328757D01*
X192918891Y-66331151D01*
X192921582Y-66332949D01*
X192921584Y-66332951D01*
X193044505Y-66415084D01*
X193044507Y-66415085D01*
X193044511Y-66415087D01*
X193151469Y-66459390D01*
X193181087Y-66471658D01*
X193181091Y-66471658D01*
X193181092Y-66471659D01*
X193326079Y-66500500D01*
X193326082Y-66500500D01*
X193473920Y-66500500D01*
X193571462Y-66481096D01*
X193618913Y-66471658D01*
X193755495Y-66415084D01*
X193878416Y-66332951D01*
X193982951Y-66228416D01*
X194065084Y-66105495D01*
X194121658Y-65968913D01*
X194133634Y-65908709D01*
X194150500Y-65823920D01*
X194150500Y-65676079D01*
X194121659Y-65531092D01*
X194121658Y-65531091D01*
X194121658Y-65531087D01*
X194121656Y-65531082D01*
X194065087Y-65394511D01*
X194065080Y-65394498D01*
X193982951Y-65271584D01*
X193982948Y-65271580D01*
X193878419Y-65167051D01*
X193878415Y-65167048D01*
X193755501Y-65084919D01*
X193755488Y-65084912D01*
X193618917Y-65028343D01*
X193618907Y-65028340D01*
X193473920Y-64999500D01*
X193473918Y-64999500D01*
X193326082Y-64999500D01*
X193326080Y-64999500D01*
X193181092Y-65028340D01*
X193181082Y-65028343D01*
X193044511Y-65084912D01*
X193044498Y-65084919D01*
X192918891Y-65168848D01*
X192852213Y-65189726D01*
X192784833Y-65171241D01*
X192781109Y-65168848D01*
X192655501Y-65084919D01*
X192655488Y-65084912D01*
X192518917Y-65028343D01*
X192518907Y-65028340D01*
X192373920Y-64999500D01*
X192373918Y-64999500D01*
X192226082Y-64999500D01*
X192226080Y-64999500D01*
X192081092Y-65028340D01*
X192081082Y-65028343D01*
X191944511Y-65084912D01*
X191944500Y-65084918D01*
X191888888Y-65122077D01*
X191822210Y-65142954D01*
X191754830Y-65124469D01*
X191751107Y-65122076D01*
X191749218Y-65120814D01*
X191674730Y-65071042D01*
X191629184Y-65040609D01*
X191629175Y-65040604D01*
X191521583Y-64996038D01*
X191467180Y-64952197D01*
X191447419Y-64905668D01*
X191424531Y-64790606D01*
X191419737Y-64766503D01*
X191409343Y-64741409D01*
X191359397Y-64620827D01*
X191359390Y-64620814D01*
X191271789Y-64489711D01*
X191271786Y-64489707D01*
X191160292Y-64378213D01*
X191160288Y-64378210D01*
X191029185Y-64290609D01*
X191029172Y-64290602D01*
X190883501Y-64230264D01*
X190883489Y-64230261D01*
X190728845Y-64199500D01*
X190728842Y-64199500D01*
X190571158Y-64199500D01*
X190571155Y-64199500D01*
X190416510Y-64230261D01*
X190416498Y-64230264D01*
X190270827Y-64290602D01*
X190270814Y-64290609D01*
X190139711Y-64378210D01*
X190139707Y-64378213D01*
X190028213Y-64489707D01*
X190028210Y-64489711D01*
X189940609Y-64620814D01*
X189940602Y-64620827D01*
X189880264Y-64766498D01*
X189880261Y-64766510D01*
X189849500Y-64921153D01*
X181944025Y-64921153D01*
X181952993Y-64910853D01*
X181957882Y-64906806D01*
X182010289Y-64871789D01*
X182121789Y-64760289D01*
X182209394Y-64629179D01*
X182212854Y-64620827D01*
X182262162Y-64501784D01*
X182269737Y-64483497D01*
X182300500Y-64328842D01*
X182300500Y-64171158D01*
X182300500Y-64171155D01*
X182300499Y-64171153D01*
X182274056Y-64038216D01*
X182269737Y-64016503D01*
X182222015Y-63901290D01*
X182209397Y-63870827D01*
X182209390Y-63870814D01*
X182121789Y-63739711D01*
X182121786Y-63739707D01*
X182010292Y-63628213D01*
X182010288Y-63628210D01*
X181879185Y-63540609D01*
X181879172Y-63540602D01*
X181733501Y-63480264D01*
X181733489Y-63480261D01*
X181578845Y-63449500D01*
X181578842Y-63449500D01*
X181421158Y-63449500D01*
X181421155Y-63449500D01*
X181266510Y-63480261D01*
X181266498Y-63480264D01*
X181120827Y-63540602D01*
X181120814Y-63540609D01*
X180989711Y-63628210D01*
X180989707Y-63628213D01*
X180878213Y-63739707D01*
X180878210Y-63739711D01*
X180790609Y-63870814D01*
X180790602Y-63870827D01*
X180730264Y-64016498D01*
X180730261Y-64016510D01*
X180699500Y-64171153D01*
X180699500Y-64328846D01*
X180730261Y-64483489D01*
X180730264Y-64483501D01*
X180790602Y-64629172D01*
X180790609Y-64629185D01*
X180821043Y-64674732D01*
X180822188Y-64678391D01*
X180824979Y-64681022D01*
X180832547Y-64711473D01*
X180841921Y-64741409D01*
X180840906Y-64745106D01*
X180841832Y-64748829D01*
X180831736Y-64778535D01*
X180823437Y-64808790D01*
X180820225Y-64812407D01*
X180819350Y-64814983D01*
X180808762Y-64825318D01*
X180795138Y-64840663D01*
X180791110Y-64843866D01*
X180739711Y-64878211D01*
X180707703Y-64910218D01*
X180702197Y-64914599D01*
X180676087Y-64925221D01*
X180651358Y-64938725D01*
X180644162Y-64938210D01*
X180637478Y-64940930D01*
X180609774Y-64935751D01*
X180581666Y-64933741D01*
X180574546Y-64929165D01*
X180568798Y-64928091D01*
X180560069Y-64919861D01*
X180537319Y-64905240D01*
X180510292Y-64878213D01*
X180510288Y-64878210D01*
X180379185Y-64790609D01*
X180379172Y-64790602D01*
X180233501Y-64730264D01*
X180233489Y-64730261D01*
X180078845Y-64699500D01*
X180078842Y-64699500D01*
X179921158Y-64699500D01*
X179921155Y-64699500D01*
X179766510Y-64730261D01*
X179766498Y-64730264D01*
X179620827Y-64790602D01*
X179620814Y-64790609D01*
X179489711Y-64878210D01*
X179489707Y-64878213D01*
X179378213Y-64989707D01*
X179378210Y-64989711D01*
X179290609Y-65120814D01*
X179290602Y-65120827D01*
X179230264Y-65266498D01*
X179230261Y-65266510D01*
X179199500Y-65421153D01*
X152500000Y-65421153D01*
X152500000Y-64171153D01*
X162624500Y-64171153D01*
X162624500Y-64328846D01*
X162655261Y-64483489D01*
X162655264Y-64483501D01*
X162715602Y-64629172D01*
X162715609Y-64629185D01*
X162803210Y-64760288D01*
X162803213Y-64760292D01*
X162914707Y-64871786D01*
X162914711Y-64871789D01*
X163045814Y-64959390D01*
X163045827Y-64959397D01*
X163173758Y-65012387D01*
X163191503Y-65019737D01*
X163346153Y-65050499D01*
X163346156Y-65050500D01*
X163346158Y-65050500D01*
X163503844Y-65050500D01*
X163503845Y-65050499D01*
X163658497Y-65019737D01*
X163804179Y-64959394D01*
X163935289Y-64871789D01*
X164046789Y-64760289D01*
X164134394Y-64629179D01*
X164137854Y-64620827D01*
X164187162Y-64501784D01*
X164194737Y-64483497D01*
X164225500Y-64328842D01*
X164225500Y-64171158D01*
X164225500Y-64171155D01*
X164225499Y-64171153D01*
X164199056Y-64038216D01*
X164194737Y-64016503D01*
X164147015Y-63901290D01*
X164134397Y-63870827D01*
X164134390Y-63870814D01*
X164046789Y-63739711D01*
X164046786Y-63739707D01*
X163935292Y-63628213D01*
X163935288Y-63628210D01*
X163804185Y-63540609D01*
X163804172Y-63540602D01*
X163658501Y-63480264D01*
X163658489Y-63480261D01*
X163503845Y-63449500D01*
X163503842Y-63449500D01*
X163346158Y-63449500D01*
X163346155Y-63449500D01*
X163191510Y-63480261D01*
X163191498Y-63480264D01*
X163045827Y-63540602D01*
X163045814Y-63540609D01*
X162914711Y-63628210D01*
X162914707Y-63628213D01*
X162803213Y-63739707D01*
X162803210Y-63739711D01*
X162715609Y-63870814D01*
X162715602Y-63870827D01*
X162655264Y-64016498D01*
X162655261Y-64016510D01*
X162624500Y-64171153D01*
X152500000Y-64171153D01*
X152500000Y-62096153D01*
X163699500Y-62096153D01*
X163699500Y-62253846D01*
X163730261Y-62408489D01*
X163730264Y-62408501D01*
X163790602Y-62554172D01*
X163790609Y-62554185D01*
X163878210Y-62685288D01*
X163878213Y-62685292D01*
X163989707Y-62796786D01*
X163989711Y-62796789D01*
X164120814Y-62884390D01*
X164120827Y-62884397D01*
X164266498Y-62944735D01*
X164266503Y-62944737D01*
X164421153Y-62975499D01*
X164421156Y-62975500D01*
X164421158Y-62975500D01*
X164578844Y-62975500D01*
X164578845Y-62975499D01*
X164733497Y-62944737D01*
X164879179Y-62884394D01*
X165010289Y-62796789D01*
X165121789Y-62685289D01*
X165209394Y-62554179D01*
X165269737Y-62408497D01*
X165300500Y-62253842D01*
X165300500Y-62096158D01*
X165300500Y-62096155D01*
X165300499Y-62096153D01*
X170699500Y-62096153D01*
X170699500Y-62253846D01*
X170730261Y-62408489D01*
X170730264Y-62408501D01*
X170790602Y-62554172D01*
X170790609Y-62554185D01*
X170878210Y-62685288D01*
X170878213Y-62685292D01*
X170989707Y-62796786D01*
X170989711Y-62796789D01*
X171120814Y-62884390D01*
X171120827Y-62884397D01*
X171266498Y-62944735D01*
X171266503Y-62944737D01*
X171421153Y-62975499D01*
X171421156Y-62975500D01*
X171421158Y-62975500D01*
X171578844Y-62975500D01*
X171578845Y-62975499D01*
X171733497Y-62944737D01*
X171879179Y-62884394D01*
X172010289Y-62796789D01*
X172121789Y-62685289D01*
X172209394Y-62554179D01*
X172269737Y-62408497D01*
X172300500Y-62253842D01*
X172300500Y-62096158D01*
X172300500Y-62096155D01*
X172300499Y-62096153D01*
X174699500Y-62096153D01*
X174699500Y-62253846D01*
X174730261Y-62408489D01*
X174730264Y-62408501D01*
X174790602Y-62554172D01*
X174790609Y-62554185D01*
X174878210Y-62685288D01*
X174878213Y-62685292D01*
X174989707Y-62796786D01*
X174989711Y-62796789D01*
X175120814Y-62884390D01*
X175120827Y-62884397D01*
X175266498Y-62944735D01*
X175266503Y-62944737D01*
X175421153Y-62975499D01*
X175421156Y-62975500D01*
X175421158Y-62975500D01*
X175578844Y-62975500D01*
X175578845Y-62975499D01*
X175733497Y-62944737D01*
X175879179Y-62884394D01*
X176010289Y-62796789D01*
X176121789Y-62685289D01*
X176209394Y-62554179D01*
X176269737Y-62408497D01*
X176300500Y-62253842D01*
X176300500Y-62096158D01*
X176300500Y-62096155D01*
X176300499Y-62096153D01*
X176269737Y-61941503D01*
X176237021Y-61862518D01*
X176219887Y-61821153D01*
X178599500Y-61821153D01*
X178599500Y-61978846D01*
X178630261Y-62133489D01*
X178630264Y-62133501D01*
X178690602Y-62279172D01*
X178690609Y-62279185D01*
X178778210Y-62410288D01*
X178778213Y-62410292D01*
X178889707Y-62521786D01*
X178889711Y-62521789D01*
X179020814Y-62609390D01*
X179020827Y-62609397D01*
X179166498Y-62669735D01*
X179166503Y-62669737D01*
X179251108Y-62686566D01*
X179321153Y-62700499D01*
X179321156Y-62700500D01*
X179321158Y-62700500D01*
X179478844Y-62700500D01*
X179478845Y-62700499D01*
X179626378Y-62671153D01*
X182449500Y-62671153D01*
X182449500Y-62828846D01*
X182480261Y-62983489D01*
X182480264Y-62983501D01*
X182540602Y-63129172D01*
X182540609Y-63129185D01*
X182628210Y-63260288D01*
X182628213Y-63260292D01*
X182739707Y-63371786D01*
X182739711Y-63371789D01*
X182870814Y-63459390D01*
X182870827Y-63459397D01*
X183016498Y-63519735D01*
X183016503Y-63519737D01*
X183170680Y-63550405D01*
X183171153Y-63550499D01*
X183171156Y-63550500D01*
X183171158Y-63550500D01*
X183328841Y-63550500D01*
X183328842Y-63550500D01*
X183328842Y-63550499D01*
X183329806Y-63550405D01*
X183330307Y-63550500D01*
X183334934Y-63550500D01*
X183334934Y-63551377D01*
X183398452Y-63563424D01*
X183449162Y-63611489D01*
X183463577Y-63649616D01*
X183480261Y-63733491D01*
X183480264Y-63733501D01*
X183540602Y-63879172D01*
X183540609Y-63879185D01*
X183628210Y-64010288D01*
X183628213Y-64010292D01*
X183739707Y-64121786D01*
X183739711Y-64121789D01*
X183870814Y-64209390D01*
X183870827Y-64209397D01*
X184016498Y-64269735D01*
X184016503Y-64269737D01*
X184171153Y-64300499D01*
X184171156Y-64300500D01*
X184171158Y-64300500D01*
X184328844Y-64300500D01*
X184328845Y-64300499D01*
X184483497Y-64269737D01*
X184629179Y-64209394D01*
X184760289Y-64121789D01*
X184871789Y-64010289D01*
X184959394Y-63879179D01*
X184962854Y-63870827D01*
X184996548Y-63789480D01*
X185019737Y-63733497D01*
X185050500Y-63578842D01*
X185050500Y-63421158D01*
X185050500Y-63421155D01*
X185050499Y-63421153D01*
X185040069Y-63368717D01*
X185019737Y-63266503D01*
X185005356Y-63231783D01*
X184959397Y-63120827D01*
X184959390Y-63120814D01*
X184871789Y-62989711D01*
X184871786Y-62989707D01*
X184760292Y-62878213D01*
X184760288Y-62878210D01*
X184629185Y-62790609D01*
X184629172Y-62790602D01*
X184483501Y-62730264D01*
X184483489Y-62730261D01*
X184328845Y-62699500D01*
X184328842Y-62699500D01*
X184171158Y-62699500D01*
X184171150Y-62699500D01*
X184170174Y-62699596D01*
X184169668Y-62699500D01*
X184165066Y-62699500D01*
X184165066Y-62698626D01*
X184101530Y-62686566D01*
X184050827Y-62638494D01*
X184036422Y-62600382D01*
X184020329Y-62519480D01*
X184019737Y-62516503D01*
X183988224Y-62440423D01*
X183959397Y-62370827D01*
X183959390Y-62370814D01*
X183871789Y-62239711D01*
X183871786Y-62239707D01*
X183760292Y-62128213D01*
X183760288Y-62128210D01*
X183629185Y-62040609D01*
X183629172Y-62040602D01*
X183483501Y-61980264D01*
X183483489Y-61980261D01*
X183328845Y-61949500D01*
X183328842Y-61949500D01*
X183171158Y-61949500D01*
X183171155Y-61949500D01*
X183016510Y-61980261D01*
X183016498Y-61980264D01*
X182870827Y-62040602D01*
X182870814Y-62040609D01*
X182739711Y-62128210D01*
X182739707Y-62128213D01*
X182628213Y-62239707D01*
X182628210Y-62239711D01*
X182540609Y-62370814D01*
X182540602Y-62370827D01*
X182480264Y-62516498D01*
X182480261Y-62516510D01*
X182449500Y-62671153D01*
X179626378Y-62671153D01*
X179633497Y-62669737D01*
X179779179Y-62609394D01*
X179779185Y-62609390D01*
X179850164Y-62561964D01*
X179881224Y-62541209D01*
X179910289Y-62521789D01*
X180021789Y-62410289D01*
X180109394Y-62279179D01*
X180169737Y-62133497D01*
X180200500Y-61978842D01*
X180200500Y-61821158D01*
X180200500Y-61821155D01*
X180200499Y-61821153D01*
X180169738Y-61666510D01*
X180169737Y-61666503D01*
X180163292Y-61650943D01*
X180109397Y-61520827D01*
X180109390Y-61520814D01*
X180021789Y-61389711D01*
X180021786Y-61389707D01*
X179910292Y-61278213D01*
X179910288Y-61278210D01*
X179779185Y-61190609D01*
X179779172Y-61190602D01*
X179633501Y-61130264D01*
X179633489Y-61130261D01*
X179478845Y-61099500D01*
X179478842Y-61099500D01*
X179321158Y-61099500D01*
X179321155Y-61099500D01*
X179166510Y-61130261D01*
X179166498Y-61130264D01*
X179020827Y-61190602D01*
X179020814Y-61190609D01*
X178889711Y-61278210D01*
X178889707Y-61278213D01*
X178778213Y-61389707D01*
X178778210Y-61389711D01*
X178690609Y-61520814D01*
X178690602Y-61520827D01*
X178630264Y-61666498D01*
X178630261Y-61666510D01*
X178599500Y-61821153D01*
X176219887Y-61821153D01*
X176209397Y-61795827D01*
X176209390Y-61795814D01*
X176121789Y-61664711D01*
X176121786Y-61664707D01*
X176010292Y-61553213D01*
X176010288Y-61553210D01*
X175879185Y-61465609D01*
X175879172Y-61465602D01*
X175733501Y-61405264D01*
X175733489Y-61405261D01*
X175578845Y-61374500D01*
X175578842Y-61374500D01*
X175421158Y-61374500D01*
X175421155Y-61374500D01*
X175266510Y-61405261D01*
X175266498Y-61405264D01*
X175120827Y-61465602D01*
X175120814Y-61465609D01*
X174989711Y-61553210D01*
X174989707Y-61553213D01*
X174878213Y-61664707D01*
X174878210Y-61664711D01*
X174790609Y-61795814D01*
X174790602Y-61795827D01*
X174730264Y-61941498D01*
X174730261Y-61941510D01*
X174699500Y-62096153D01*
X172300499Y-62096153D01*
X172269737Y-61941503D01*
X172237021Y-61862518D01*
X172209397Y-61795827D01*
X172209390Y-61795814D01*
X172121789Y-61664711D01*
X172121786Y-61664707D01*
X172010292Y-61553213D01*
X172010288Y-61553210D01*
X171879185Y-61465609D01*
X171879172Y-61465602D01*
X171733501Y-61405264D01*
X171733489Y-61405261D01*
X171578845Y-61374500D01*
X171578842Y-61374500D01*
X171421158Y-61374500D01*
X171421155Y-61374500D01*
X171266510Y-61405261D01*
X171266498Y-61405264D01*
X171120827Y-61465602D01*
X171120814Y-61465609D01*
X170989711Y-61553210D01*
X170989707Y-61553213D01*
X170878213Y-61664707D01*
X170878210Y-61664711D01*
X170790609Y-61795814D01*
X170790602Y-61795827D01*
X170730264Y-61941498D01*
X170730261Y-61941510D01*
X170699500Y-62096153D01*
X165300499Y-62096153D01*
X165269737Y-61941503D01*
X165237021Y-61862518D01*
X165209397Y-61795827D01*
X165209390Y-61795814D01*
X165121789Y-61664711D01*
X165121786Y-61664707D01*
X165010292Y-61553213D01*
X165010288Y-61553210D01*
X164879185Y-61465609D01*
X164879172Y-61465602D01*
X164733501Y-61405264D01*
X164733489Y-61405261D01*
X164578845Y-61374500D01*
X164578842Y-61374500D01*
X164421158Y-61374500D01*
X164421155Y-61374500D01*
X164266510Y-61405261D01*
X164266498Y-61405264D01*
X164120827Y-61465602D01*
X164120814Y-61465609D01*
X163989711Y-61553210D01*
X163989707Y-61553213D01*
X163878213Y-61664707D01*
X163878210Y-61664711D01*
X163790609Y-61795814D01*
X163790602Y-61795827D01*
X163730264Y-61941498D01*
X163730261Y-61941510D01*
X163699500Y-62096153D01*
X152500000Y-62096153D01*
X152500000Y-60051361D01*
X152519685Y-59984322D01*
X152536314Y-59963685D01*
X154963180Y-57536818D01*
X155024503Y-57503334D01*
X155050861Y-57500500D01*
X155140428Y-57500500D01*
X155140429Y-57500499D01*
X155283055Y-57484429D01*
X155419494Y-57469057D01*
X155419499Y-57469056D01*
X155419509Y-57469055D01*
X155693318Y-57406560D01*
X155958408Y-57313801D01*
X156211445Y-57191945D01*
X156449248Y-57042523D01*
X156668825Y-56867416D01*
X156867416Y-56668825D01*
X157042523Y-56449248D01*
X157191945Y-56211445D01*
X157313801Y-55958408D01*
X157406560Y-55693318D01*
X157469055Y-55419509D01*
X157500500Y-55140425D01*
X157500500Y-55050861D01*
X157520185Y-54983822D01*
X157536819Y-54963180D01*
X158178846Y-54321153D01*
X165199500Y-54321153D01*
X165199500Y-54478846D01*
X165230261Y-54633489D01*
X165230264Y-54633501D01*
X165290602Y-54779172D01*
X165290609Y-54779185D01*
X165378210Y-54910288D01*
X165378213Y-54910292D01*
X165489707Y-55021786D01*
X165489711Y-55021789D01*
X165620814Y-55109390D01*
X165620827Y-55109397D01*
X165766498Y-55169735D01*
X165766503Y-55169737D01*
X165921153Y-55200499D01*
X165921156Y-55200500D01*
X165921158Y-55200500D01*
X166078844Y-55200500D01*
X166078845Y-55200499D01*
X166233497Y-55169737D01*
X166379179Y-55109394D01*
X166510289Y-55021789D01*
X166621789Y-54910289D01*
X166709394Y-54779179D01*
X166769737Y-54633497D01*
X166800500Y-54478842D01*
X166800500Y-54321158D01*
X166800500Y-54321155D01*
X166800499Y-54321153D01*
X166800080Y-54319047D01*
X166769737Y-54166503D01*
X166711603Y-54026153D01*
X166709397Y-54020827D01*
X166709390Y-54020814D01*
X166621789Y-53889711D01*
X166621786Y-53889707D01*
X166510292Y-53778213D01*
X166510288Y-53778210D01*
X166379185Y-53690609D01*
X166379172Y-53690602D01*
X166233501Y-53630264D01*
X166233489Y-53630261D01*
X166078845Y-53599500D01*
X166078842Y-53599500D01*
X165921158Y-53599500D01*
X165921155Y-53599500D01*
X165766510Y-53630261D01*
X165766498Y-53630264D01*
X165620827Y-53690602D01*
X165620814Y-53690609D01*
X165489711Y-53778210D01*
X165489707Y-53778213D01*
X165378213Y-53889707D01*
X165378210Y-53889711D01*
X165290609Y-54020814D01*
X165290602Y-54020827D01*
X165230264Y-54166498D01*
X165230261Y-54166510D01*
X165199500Y-54321153D01*
X158178846Y-54321153D01*
X158272614Y-54227385D01*
X158479173Y-54020827D01*
X159963681Y-52536319D01*
X160025004Y-52502834D01*
X160051362Y-52500000D01*
X174075500Y-52500000D01*
X174142539Y-52519685D01*
G37*
%TD.AperFunction*%
%TD*%
M02*
