M48
; DRILL file {KiCad 9.0.1-9.0.1-0~ubuntu24.04.1} date 2025-06-01T23:52:24-0500
; FORMAT={-:-/ absolute / metric / decimal}
; #@! TF.CreationDate,2025-06-01T23:52:24-05:00
; #@! TF.GenerationSoftware,Kicad,Pcbnew,9.0.1-9.0.1-0~ubuntu24.04.1
; #@! TF.FileFunction,Plated,1,6,PTH
FMAT,2
METRIC
; #@! TA.AperFunction,Plated,PTH,ComponentDrill
T1C0.200
; #@! TA.AperFunction,Plated,PTH,ViaDrill
T2C0.300
; #@! TA.AperFunction,Plated,PTH,ComponentDrill
T3C0.600
%
G90
G05
T1
X192.3Y-65.75
X193.4Y-65.75
T2
X151.76Y-97.431
X151.975Y-78.0
X151.987Y-79.513
X152.0Y-82.225
X152.0Y-83.775
X152.374Y-67.626
X152.441Y-53.309
X152.578Y-51.828
X152.75Y-83.0
X152.975Y-69.0
X153.0Y-70.725
X153.0Y-72.275
X153.24Y-97.569
X153.525Y-78.0
X153.525Y-79.5
X154.475Y-58.0
X154.475Y-91.75
X154.488Y-73.262
X154.5Y-59.5
X154.5Y-64.0
X154.525Y-69.0
X155.001Y-62.5
X155.124Y-80.251
X155.25Y-65.0
X155.729Y-84.798
X155.75Y-68.0
X155.837Y-72.913
X156.025Y-58.0
X156.025Y-91.75
X156.43Y-75.575
X156.43Y-77.425
X157.25Y-82.25
X157.475Y-62.25
X157.525Y-69.0
X157.7Y-56.5
X157.75Y-70.45
X157.75Y-72.0
X157.975Y-93.8
X157.975Y-95.55
X158.07Y-75.575
X158.223Y-61.322
X158.25Y-54.75
X158.25Y-89.75
X158.446Y-58.936
X159.0Y-80.5
X159.025Y-62.25
X159.06Y-59.466
X159.25Y-56.5
X159.25Y-72.75
X159.299Y-73.951
X159.5Y-66.725
X159.5Y-68.275
X159.5Y-69.725
X159.5Y-71.275
X159.525Y-93.8
X160.101Y-58.101
X160.75Y-60.25
X161.75Y-91.5
X161.75Y-92.25
X161.946Y-51.35
X162.036Y-60.348
X162.25Y-61.225
X162.925Y-75.75
X162.963Y-68.75
X162.975Y-70.75
X163.0Y-64.475
X163.0Y-66.025
X163.0Y-72.475
X163.0Y-74.025
X163.0Y-77.975
X163.0Y-79.525
X163.0Y-81.725
X163.0Y-83.275
X163.087Y-62.087
X163.2Y-52.6
X163.25Y-92.25
X163.25Y-95.75
X163.475Y-58.0
X164.0Y-61.225
X164.0Y-62.775
X164.175Y-86.35
X164.25Y-67.85
X164.5Y-87.0
X164.575Y-75.75
X164.975Y-83.0
X165.025Y-58.0
X165.25Y-77.975
X165.25Y-79.525
X165.75Y-61.225
X165.75Y-62.775
X166.0Y-52.75
X166.0Y-54.4
X166.0Y-56.1
X166.25Y-67.225
X166.25Y-68.775
X166.525Y-83.0
X166.75Y-61.5
X167.25Y-62.25
X167.5Y-87.0
X168.0Y-67.225
X169.673Y-61.191
X170.475Y-61.75
X170.75Y-88.75
X170.75Y-95.75
X171.0Y-54.4
X171.725Y-83.0
X171.9Y-58.6
X172.025Y-61.75
X172.5Y-58.0
X173.1Y-61.15
X173.275Y-83.0
X173.75Y-52.6
X173.75Y-56.1
X174.225Y-58.0
X174.475Y-61.75
X175.475Y-83.0
X175.75Y-88.8
X175.75Y-95.8
X175.775Y-54.25
X176.025Y-61.75
X176.25Y-52.6
X176.25Y-67.75
X177.025Y-83.0
X178.0Y-57.8
X178.75Y-83.75
X179.0Y-87.0
X179.4Y-61.9
X179.5Y-83.0
X180.0Y-56.0
X180.0Y-65.5
X180.725Y-87.0
X180.75Y-68.5
X181.025Y-83.0
X181.25Y-65.5
X181.25Y-88.6
X181.25Y-95.2
X181.25Y-96.3
X181.5Y-64.25
X181.9Y-58.25
X182.1Y-66.6
X182.275Y-87.0
X182.5Y-81.475
X182.5Y-83.025
X183.1Y-97.25
X183.25Y-62.75
X183.5Y-56.65
X183.5Y-61.9
X184.25Y-63.5
X184.25Y-70.45
X184.25Y-72.0
X184.25Y-77.225
X184.25Y-78.775
X184.25Y-80.725
X184.25Y-82.275
X184.3Y-66.6
X184.5Y-67.75
X184.75Y-97.25
X185.0Y-56.65
X185.074Y-62.426
X185.5Y-59.25
X186.5Y-59.7
X187.425Y-88.5
X187.75Y-61.9
X187.75Y-63.0
X187.75Y-80.25
X188.0Y-64.25
X188.25Y-68.25
X188.25Y-70.525
X188.925Y-83.25
X189.0Y-97.0
X189.075Y-88.5
X189.15Y-66.6
X189.25Y-53.5
X190.575Y-73.75
X190.575Y-75.25
X190.75Y-93.0
X190.75Y-95.2
X191.928Y-83.275
X192.57Y-71.55
X192.57Y-77.95
X193.275Y-68.5
X193.5Y-60.251
X194.175Y-73.25
X194.175Y-75.76
X194.25Y-74.238
X194.5Y-58.5
X194.5Y-61.75
X195.0Y-71.5
X195.0Y-76.75
X195.0Y-87.525
X195.0Y-90.475
X195.447Y-80.947
X195.75Y-58.9
X195.75Y-92.0
X196.5Y-67.75
X196.525Y-89.0
X196.75Y-52.431
X197.431Y-98.24
X197.569Y-96.76
X198.25Y-59.75
X198.331Y-52.669
X198.5Y-55.05
X198.5Y-56.95
X198.6Y-66.65
X198.625Y-85.375
X199.0Y-58.25
X199.2Y-67.25
T3
X192.595Y-70.43G85X193.695Y-70.43
G05
X192.595Y-79.07G85X193.695Y-79.07
G05
X196.925Y-70.43G85X197.725Y-70.43
G05
X196.925Y-79.07G85X197.725Y-79.07
G05
M30
